<svg width="21" height="32" viewBox="0 0 21 32" fill="none" xmlns="http://www.w3.org/2000/svg">
<g clip-path="url(#clip0_9656_2669)">
<path d="M5.24895 31.9987C8.14637 31.9987 10.4979 29.6094 10.4979 26.6654V21.332H5.24895C2.35153 21.332 0 23.7214 0 26.6654C0 29.6094 2.35153 31.9987 5.24895 31.9987Z" fill="#0ACF83"/>
<path d="M0 16.0013C0 13.0573 2.35153 10.668 5.24895 10.668H10.4979V21.3346H5.24895C2.35153 21.3346 0 18.9453 0 16.0013Z" fill="#A259FF"/>
<path d="M0 5.33333C0 2.38933 2.35153 0 5.24895 0H10.4979V10.6667H5.24895C2.35153 10.6667 0 8.27733 0 5.33333Z" fill="#F24E1E"/>
<path d="M10.5 0H15.749C18.6464 0 20.9979 2.38933 20.9979 5.33333C20.9979 8.27733 18.6464 10.6667 15.749 10.6667H10.5V0Z" fill="#FF7262"/>
<path d="M20.9979 16.0013C20.9979 18.9453 18.6464 21.3346 15.749 21.3346C12.8515 21.3346 10.5 18.9453 10.5 16.0013C10.5 13.0573 12.8515 10.668 15.749 10.668C18.6464 10.668 20.9979 13.0573 20.9979 16.0013Z" fill="#1ABCFE"/>
</g>
<defs>
<clipPath id="clip0_9656_2669">
<rect width="21" height="32" fill="white"/>
</clipPath>
</defs>
</svg>
