<svg width="149" height="36" viewBox="0 0 149 36" fill="none" xmlns="http://www.w3.org/2000/svg">
<path d="M27.0753 19.1113C26.1724 19.1369 25.4199 19.367 24.818 19.8017C24.216 20.2364 23.7896 20.8757 23.5388 21.7195C23.3005 22.5506 23.1814 24.0337 23.1814 26.1688C23.1814 28.9177 23.0309 30.8291 22.7299 31.9031C22.4289 32.9898 21.8521 33.7953 20.9993 34.3195C20.1465 34.8565 18.8924 35.125 17.237 35.125H16.1836V32.2866H16.7667C18.0208 32.2866 18.8736 32.0693 19.3251 31.6346C19.7765 31.2127 20.0023 30.1962 20.0023 28.5853C20.0023 25.7341 20.065 23.7396 20.1904 22.6017C20.3158 21.4638 20.6607 20.4985 21.225 19.7058C21.7894 18.9003 22.728 18.2003 23.9696 17.625C22.6528 17.1136 21.6326 16.2921 20.9805 15.1414C20.3283 13.9908 20.0023 12.1177 20.0023 9.52226C20.0023 7.11861 19.9647 5.59715 19.8894 4.95788C19.8142 4.30582 19.5696 3.81358 19.1558 3.48116C18.7545 3.14874 17.9581 2.98253 16.7667 2.98253H16.1836V0.125H17.237C18.466 0.125 19.4317 0.246461 20.134 0.489384C20.8363 0.732306 21.4445 1.19258 21.9587 1.87021C22.4854 2.53505 22.8177 3.3661 22.9557 4.36336C23.1061 5.34783 23.1814 6.92043 23.1814 9.08116C23.1814 11.2291 23.3005 12.7186 23.5388 13.5497C23.7771 14.3807 24.2035 15.02 24.818 15.4675C25.4325 15.9022 26.1849 16.1259 27.0753 16.1387V19.1113Z" fill="#444444"/>
<path d="M-0.00111008 19.1113C0.901832 19.1369 1.65428 19.367 2.25624 19.8017C2.85821 20.2364 3.2846 20.8757 3.53541 21.7195C3.77369 22.5506 3.89283 24.0337 3.89283 26.1688C3.89283 28.9177 4.04332 30.8291 4.3443 31.9031C4.64528 32.9898 5.22216 33.7953 6.07494 34.3195C6.92771 34.8565 8.1818 35.125 9.83719 35.125H10.8906V32.2866H10.3075C9.05339 32.2866 8.20061 32.0693 7.74914 31.6346C7.29767 31.2127 7.07193 30.1962 7.07193 28.5853C7.07193 25.7341 7.00923 23.7396 6.88382 22.6017C6.75841 21.4638 6.41354 20.4985 5.8492 19.7058C5.28486 18.9003 4.34621 18.2003 3.10466 17.625C4.42145 17.1136 5.44162 16.2921 6.09375 15.1414C6.74587 13.9908 7.07193 12.1177 7.07193 9.52226C7.07193 7.11861 7.10956 5.59715 7.1848 4.95788C7.26005 4.30582 7.50459 3.81358 7.91844 3.48116C8.31975 3.14874 9.11609 2.98253 10.3075 2.98253H10.8906V0.125H9.83719C8.60819 0.125 7.64254 0.246461 6.94025 0.489384C6.23797 0.732306 5.62974 1.19258 5.11556 1.87021C4.58884 2.53505 4.25651 3.3661 4.11856 4.36336C3.96807 5.34783 3.89283 6.92043 3.89283 9.08116C3.89283 11.2291 3.77369 12.7186 3.53541 13.5497C3.29714 14.3807 2.87075 15.02 2.25624 15.4675C1.64174 15.9022 0.889291 16.1259 -0.00111008 16.1387V19.1113Z" fill="#444444"/>
<path d="M15.2473 10.2848V24.9652C15.2473 25.744 14.4813 26.375 13.5358 26.375C12.5902 26.375 11.8242 25.744 11.8242 24.9652V10.2848C11.8242 9.50732 12.5902 8.875 13.5358 8.875C14.4813 8.875 15.2473 9.50596 15.2473 10.2848Z" fill="#0075F2"/>
<path d="M83.4023 8.875H93.3605V12H86.8255V16.0625H93.3605V19.1875H86.8255V23.25H93.3605V26.375H83.4023V8.875Z" fill="#0075F2"/>
<path d="M68.1562 8.875H72.0516C74.5625 8.875 76.428 9.19224 77.6483 9.82673C78.8685 10.4533 79.8737 11.4764 80.6637 12.8961C81.4537 14.3157 81.8487 15.9733 81.8487 17.8689C81.8487 19.2172 81.6258 20.4584 81.1799 21.5925C80.7419 22.7188 80.1318 23.6546 79.3496 24.4002C78.5752 25.1457 77.7343 25.6612 76.827 25.9467C75.9196 26.2322 74.3474 26.375 72.1103 26.375H68.1562V8.875ZM71.4298 12.0871V23.1153H72.9551C74.4569 23.1153 75.5442 22.9408 76.2169 22.5919C76.8974 22.2429 77.4527 21.656 77.8829 20.8312C78.3132 20.0063 78.5283 18.9911 78.5283 17.7856C78.5283 15.9297 78.0159 14.4902 76.9912 13.4671C76.0682 12.5471 74.586 12.0871 72.5444 12.0871H71.4298Z" fill="#0075F2"/>
<path d="M58.2243 8.875C60.5118 8.875 62.4767 9.72829 64.119 11.4349C65.7686 13.1415 66.5935 15.2218 66.5935 17.676C66.5935 20.1075 65.7796 22.1652 64.152 23.8491C62.5317 25.533 60.5631 26.375 58.2462 26.375C55.8194 26.375 53.8032 25.5104 52.1975 23.7811C50.5919 22.0519 49.7891 19.998 49.7891 17.6193C49.7891 16.026 50.163 14.5611 50.9108 13.2245C51.6587 11.8879 52.6851 10.8308 53.9902 10.053C55.3025 9.26766 56.7139 8.875 58.2243 8.875ZM58.1913 11.9786C56.6956 11.9786 55.4382 12.5147 54.4191 13.587C53.4 14.6593 52.8904 16.0222 52.8904 17.676C52.8904 19.5185 53.5319 20.9759 54.815 22.0481C55.8121 22.8863 56.9559 23.3054 58.2462 23.3054C59.7053 23.3054 60.948 22.7617 61.9744 21.6744C63.0009 20.587 63.5141 19.2466 63.5141 17.6533C63.5141 16.0676 62.9972 14.7272 61.9635 13.6323C60.9297 12.5298 59.6723 11.9786 58.1913 11.9786Z" fill="#0075F2"/>
<path d="M48.2354 12.2278L45.9669 14.3459C44.4236 12.7526 42.6875 11.9559 40.7585 11.9559C39.1304 11.9559 37.7569 12.4996 36.6381 13.587C35.5269 14.6744 34.9714 16.0147 34.9714 17.608C34.9714 18.718 35.2183 19.7035 35.7121 20.5643C36.206 21.4252 36.9043 22.101 37.8071 22.5918C38.7098 23.0827 39.7129 23.3281 40.8163 23.3281C41.7577 23.3281 42.6181 23.1582 43.3974 22.8184C44.1767 22.471 45.0332 21.8443 45.9669 20.9381L48.1659 23.1808C46.9082 24.3815 45.7199 25.2159 44.6011 25.6841C43.4823 26.1447 42.2052 26.375 40.77 26.375C38.1234 26.375 35.9552 25.5557 34.2654 23.9171C32.5832 22.2709 31.7422 20.1641 31.7422 17.5967C31.7422 15.9354 32.1241 14.4591 32.888 13.1679C33.6596 11.8766 34.7592 10.8383 36.1867 10.053C37.6219 9.26766 39.1651 8.875 40.8163 8.875C42.2207 8.875 43.571 9.16572 44.8673 9.74717C46.1713 10.3286 47.294 11.1555 48.2354 12.2278Z" fill="#0075F2"/>
<path d="M148.455 11.5595L146.084 13.6323C145.252 12.4845 144.405 11.9106 143.542 11.9106C143.122 11.9106 142.779 12.0239 142.512 12.2504C142.245 12.4694 142.111 12.7186 142.111 12.998C142.111 13.2774 142.206 13.5417 142.397 13.7909C142.657 14.1231 143.439 14.8367 144.745 15.9316C145.966 16.9435 146.707 17.5816 146.966 17.8459C147.615 18.4953 148.073 19.1183 148.34 19.7148C148.615 20.3038 148.752 20.9494 148.752 21.6517C148.752 23.0185 148.275 24.1474 147.321 25.0384C146.367 25.9295 145.123 26.375 143.588 26.375C142.39 26.375 141.344 26.0843 140.451 25.5028C139.565 24.9214 138.805 24.0077 138.172 22.7617L140.863 21.1533C141.672 22.6258 142.603 23.3621 143.657 23.3621C144.206 23.3621 144.668 23.2035 145.042 22.8863C145.416 22.5692 145.603 22.2029 145.603 21.7876C145.603 21.4101 145.462 21.0325 145.18 20.6549C144.897 20.2774 144.275 19.6997 143.313 18.9219C141.481 17.4419 140.298 16.3016 139.764 15.5012C139.229 14.6932 138.962 13.889 138.962 13.0886C138.962 11.9333 139.405 10.944 140.29 10.121C141.183 9.29032 142.283 8.875 143.588 8.875C144.428 8.875 145.226 9.06756 145.981 9.45267C146.745 9.83778 147.569 10.54 148.455 11.5595Z" fill="#444444"/>
<path d="M126.035 26.375V8.875H128.692C130.233 8.875 131.36 8.9781 132.073 9.18431C133.085 9.4619 133.89 9.97742 134.488 10.7309C135.086 11.4843 135.385 12.3726 135.385 13.3957C135.385 14.0619 135.247 14.6687 134.971 15.2159C134.703 15.7552 134.262 16.2628 133.649 16.7387C134.676 17.2384 135.427 17.8649 135.903 18.6184C136.378 19.3639 136.616 20.2482 136.616 21.2713C136.616 22.2548 136.37 23.151 135.88 23.96C135.389 24.7689 134.756 25.3757 133.982 25.7802C133.208 26.1767 132.138 26.375 130.773 26.375H126.035ZM129.255 12.0514V15.7394H129.957C130.739 15.7394 131.318 15.5689 131.693 15.2278C132.077 14.8868 132.268 14.4228 132.268 13.8359C132.268 13.2887 132.088 12.8564 131.728 12.5392C131.368 12.214 130.819 12.0514 130.083 12.0514H129.255ZM129.255 18.7135V23.1986H130.06C131.394 23.1986 132.291 23.0241 132.752 22.6751C133.219 22.3262 133.453 21.8186 133.453 21.1524C133.453 20.3989 133.181 19.8041 132.636 19.3679C132.092 18.9317 131.187 18.7135 129.922 18.7135H129.255Z" fill="#444444"/>
<path d="M114.4 8.875H117.768L124.48 26.375H121.029L119.665 22.7703H112.55L111.127 26.375H107.676L114.4 8.875ZM116.108 13.5147L113.783 19.5225H118.42L116.108 13.5147Z" fill="#444444"/>
<path d="M98.0273 8.875H101.32V23.1986H106.118V26.375H98.0273V8.875Z" fill="#444444"/>
</svg>
