<svg width="32" height="32" viewBox="0 0 32 32" fill="none" xmlns="http://www.w3.org/2000/svg">
<g clip-path="url(#clip0_9656_2662)">
<path d="M6.85509 20.158C6.85509 21.9974 5.36848 23.484 3.52911 23.484C1.68974 23.484 0.203125 21.9974 0.203125 20.158C0.203125 18.3186 1.68974 16.832 3.52911 16.832H6.85509V20.158ZM8.51809 20.158C8.51809 18.3186 10.0047 16.832 11.8441 16.832C13.6834 16.832 15.1701 18.3186 15.1701 20.158V28.473C15.1701 30.3123 13.6834 31.799 11.8441 31.799C10.0047 31.799 8.51809 30.3123 8.51809 28.473V20.158Z" fill="#E01E5A"/>
<path d="M11.8458 6.80431C10.0065 6.80431 8.51985 5.3177 8.51985 3.47833C8.51985 1.63896 10.0065 0.152344 11.8458 0.152344C13.6852 0.152344 15.1718 1.63896 15.1718 3.47833V6.80431H11.8458ZM11.8458 8.4925C13.6852 8.4925 15.1718 9.97912 15.1718 11.8185C15.1718 13.6579 13.6852 15.1445 11.8458 15.1445H3.50567C1.6663 15.1445 0.179688 13.6579 0.179688 11.8185C0.179688 9.97912 1.6663 8.4925 3.50567 8.4925H11.8458Z" fill="#36C5F0"/>
<path d="M25.1743 11.8185C25.1743 9.97912 26.6609 8.4925 28.5003 8.4925C30.3397 8.4925 31.8263 9.97912 31.8263 11.8185C31.8263 13.6579 30.3397 15.1445 28.5003 15.1445H25.1743V11.8185ZM23.5113 11.8185C23.5113 13.6579 22.0247 15.1445 20.1854 15.1445C18.346 15.1445 16.8594 13.6579 16.8594 11.8185V3.47833C16.8594 1.63896 18.346 0.152344 20.1854 0.152344C22.0247 0.152344 23.5113 1.63896 23.5113 3.47833V11.8185Z" fill="#2EB67D"/>
<path d="M20.1854 25.147C22.0247 25.147 23.5113 26.6336 23.5113 28.473C23.5113 30.3123 22.0247 31.799 20.1854 31.799C18.346 31.799 16.8594 30.3123 16.8594 28.473V25.147H20.1854ZM20.1854 23.484C18.346 23.484 16.8594 21.9974 16.8594 20.158C16.8594 18.3186 18.346 16.832 20.1854 16.832H28.5255C30.3649 16.832 31.8515 18.3186 31.8515 20.158C31.8515 21.9974 30.3649 23.484 28.5255 23.484H20.1854Z" fill="#ECB22E"/>
</g>
<defs>
<clipPath id="clip0_9656_2662">
<rect width="32" height="32" fill="white"/>
</clipPath>
</defs>
</svg>
