<svg width="32" height="32" viewBox="0 0 32 32" fill="none" xmlns="http://www.w3.org/2000/svg">
<circle cx="16" cy="16" r="16" fill="#635BFF"/>
<path fill-rule="evenodd" clip-rule="evenodd" d="M15.1795 12.6582C15.1795 11.844 15.8346 11.5308 16.9197 11.5308C18.4756 11.5308 20.4409 12.011 21.9969 12.867V7.96044C20.2976 7.27143 18.6189 7 16.9197 7C12.7638 7 10 9.21319 10 12.9088C10 18.6714 17.7795 17.7527 17.7795 20.2374C17.7795 21.1978 16.9606 21.511 15.8142 21.511C14.115 21.511 11.9449 20.8011 10.2252 19.8407V24.8099C12.1291 25.6451 14.0535 26 15.8142 26C20.0724 26 23 23.8494 23 20.1121C22.9795 13.8901 15.1795 14.9967 15.1795 12.6582Z" fill="white"/>
</svg>
