<svg width="72" height="72" viewBox="0 0 72 72" fill="none" xmlns="http://www.w3.org/2000/svg">
<circle cx="36" cy="36.4037" r="31.3395" transform="rotate(-8.31653 36 36.4037)" fill="#0075F2"/>
<circle cx="36" cy="36.4036" r="23.5046" transform="rotate(-8.31653 36 36.4036)" fill="white"/>
<g clip-path="url(#clip0_7099_9095)">
<path d="M37.244 43.0647L27.7881 46.8743L25.1289 28.6826L35.2721 29.5753L37.244 43.0647Z" fill="#3999FF"/>
<path d="M36.984 43.1328L46.8656 44.086L46.8696 44.0631L44.2178 25.9223L44.2074 25.9016L35.0121 29.6434L36.985 43.14" fill="#0075F2"/>
<path d="M33.96 22.4482L34.9884 29.4836L39.2916 29.9235L38.4183 23.9493L33.96 22.4482ZM44.206 25.8944L46.8652 44.0861L48.5611 42.888L46.1738 26.5569L44.206 25.8944ZM35.4867 32.8923L36.5172 39.9422L40.5878 38.7904L39.7145 32.8162L35.4867 32.8923ZM41.0085 41.6685L37.0112 43.3218L38.0397 50.3572L41.8818 47.6428L41.0085 41.6685Z" fill="#3999FF"/>
<path d="M38.04 50.3574L37.0116 43.322L32.7084 42.8821L33.5817 48.8564L38.04 50.3574ZM27.794 46.9113L25.1348 28.7196L23.4389 29.9177L25.8262 46.2488L27.794 46.9113ZM36.5133 39.9134L35.4828 32.8635L31.4122 34.0152L32.2855 39.9895L36.5133 39.9134ZM30.9915 31.1371L34.9888 29.4839L33.9603 22.4485L30.1182 25.1629L30.9915 31.1371Z" fill="#0075F2"/>
<path d="M39.292 29.9232L35.2554 31.3075L30.9915 31.1365L34.9742 29.4334L39.3063 29.9211" fill="#075FDB"/>
<path d="M41.0089 41.6688L36.745 41.4978L32.7084 42.8822L37.0226 43.4467L41.0233 41.6667" fill="#4FA4FF"/>
</g>
<defs>
<clipPath id="clip0_7099_9095">
<rect width="31.3395" height="31.3395" fill="white" transform="translate(18.2285 23.165) rotate(-8.31653)"/>
</clipPath>
</defs>
</svg>
