<svg width="54" height="54" viewBox="0 0 54 54" fill="none" xmlns="http://www.w3.org/2000/svg">
<path d="M27 32.5V40.75M27 32.5C20.3479 32.5 14.799 27.7762 13.525 21.5M27 32.5C33.6521 32.5 39.201 27.7762 40.4749 21.5M27 40.75C29.5574 40.75 30.8361 40.75 31.8853 41.0311C34.7323 41.794 36.956 44.0177 37.7189 46.8647C38 47.9139 38 49.1926 38 51.75H16C16 49.1926 16 47.9139 16.2811 46.8647C17.044 44.0177 19.2677 41.794 22.1147 41.0311C23.1639 40.75 24.4426 40.75 27 40.75ZM13.525 21.5H13.25H12.5625C10.6458 21.5 9.6874 21.5 8.8905 21.3415C5.6178 20.6905 3.0595 18.1322 2.40852 14.8595C2.25 14.0626 2.25 13.1042 2.25 11.1875C2.25 10.5486 2.25 10.2291 2.30284 9.9635C2.51983 8.8726 3.3726 8.0198 4.4635 7.8028C4.7291 7.75 5.0486 7.75 5.6875 7.75H13.25M13.525 21.5C13.3447 20.6114 13.25 19.6918 13.25 18.75V6.5714C13.25 5.1054 13.25 4.3723 13.5223 3.80682C13.7926 3.24552 14.2455 2.79264 14.8068 2.52234C15.3723 2.25 16.1054 2.25 17.5714 2.25H36.4286C37.8946 2.25 38.6277 2.25 39.1932 2.52234C39.7545 2.79264 40.2074 3.24552 40.4777 3.80682C40.75 4.3723 40.75 5.1054 40.75 6.5714V18.75C40.75 19.6918 40.6553 20.6114 40.4749 21.5M40.4749 21.5H40.75H41.4375C43.3542 21.5 44.3126 21.5 45.1095 21.3415C48.3822 20.6905 50.9405 18.1322 51.5915 14.8595C51.75 14.0626 51.75 13.1042 51.75 11.1875C51.75 10.5486 51.75 10.2291 51.6972 9.9635C51.4802 8.8726 50.6274 8.0198 49.5365 7.8028C49.2709 7.75 48.9514 7.75 48.3125 7.75H40.75" stroke="#1B1B1B" stroke-width="4" stroke-linecap="round" stroke-linejoin="round"/>
</svg>
