<svg width="48" height="60" viewBox="0 0 48 60" fill="none" xmlns="http://www.w3.org/2000/svg">
<path d="M48.0034 32.5479C46.4026 32.5918 45.0686 32.9863 44.0013 33.7315C42.9341 34.4767 42.1782 35.5726 41.7335 37.0192C41.311 38.4438 41.0998 40.9863 41.0998 44.6466C41.0998 49.3589 40.833 52.6356 40.2994 54.4767C39.7658 56.3397 38.743 57.7205 37.2311 58.6192C35.7192 59.5397 33.4959 60 30.561 60H28.6934V55.1342H29.7272C31.9506 55.1342 33.4625 54.7616 34.2629 54.0164C35.0633 53.2931 35.4636 51.5507 35.4636 48.789C35.4636 43.9014 35.5747 40.4822 35.7971 38.5315C36.0194 36.5808 36.6308 34.926 37.6314 33.5671C38.6319 32.1863 40.296 30.9863 42.4972 30C40.1626 29.1233 38.354 27.7151 37.1978 25.7425C36.0416 23.7699 35.4636 20.5589 35.4636 16.1096C35.4636 11.989 35.3969 9.38082 35.2635 8.28493C35.13 7.16712 34.6965 6.32329 33.9628 5.75342C33.2513 5.18356 31.8394 4.89863 29.7272 4.89863H28.6934V0H30.561C32.7399 0 34.4519 0.208219 35.697 0.624657C36.9421 1.0411 38.0204 1.83014 38.932 2.99178C39.8658 4.13151 40.455 5.55616 40.6996 7.26575C40.9664 8.95342 41.0998 11.6493 41.0998 15.3534C41.0998 19.0356 41.311 21.589 41.7335 23.0137C42.1559 24.4384 42.9119 25.5342 44.0013 26.3014C45.0908 27.0466 46.4248 27.4301 48.0034 27.4521V32.5479Z" fill="#1B1B1B"/>
<path d="M0.000484467 32.5479C1.60132 32.5918 2.93535 32.9863 4.00257 33.7315C5.06979 34.4767 5.82574 35.5726 6.27042 37.0192C6.69286 38.4438 6.90408 40.9863 6.90408 44.6466C6.90408 49.3589 7.17089 52.6356 7.7045 54.4767C8.23811 56.3397 9.26087 57.7205 10.7728 58.6192C12.2847 59.5397 14.508 60 17.4429 60H19.3105V55.1342H18.2767C16.0533 55.1342 14.5414 54.7616 13.741 54.0164C12.9406 53.2931 12.5404 51.5507 12.5404 48.789C12.5404 43.9014 12.4292 40.4822 12.2068 38.5315C11.9845 36.5808 11.3731 34.926 10.3726 33.5671C9.37203 32.1863 7.70788 30.9863 5.50673 30C7.84128 29.1233 9.64996 27.7151 10.8061 25.7425C11.9623 23.7699 12.5404 20.5589 12.5404 16.1096C12.5404 11.989 12.6071 9.38082 12.7405 8.28493C12.8739 7.16712 13.3074 6.32329 14.0411 5.75342C14.7526 5.18356 16.1645 4.89863 18.2767 4.89863H19.3105V0H17.4429C15.264 0 13.552 0.208219 12.3069 0.624657C11.0618 1.0411 9.98346 1.83014 9.07188 2.99178C8.13806 4.13151 7.54886 5.55616 7.30429 7.26575C7.03748 8.95342 6.90408 11.6493 6.90408 15.3534C6.90408 19.0356 6.69286 21.589 6.27042 23.0137C5.84798 24.4384 5.09203 25.5342 4.00257 26.3014C2.91311 27.0466 1.57908 27.4301 0.000484467 27.4521V32.5479Z" fill="#1B1B1B"/>
<path d="M27.0435 17.4168V42.5832C27.0435 43.9184 25.6854 45 24.009 45C22.3327 45 20.9746 43.9184 20.9746 42.5832V17.4168C20.9746 16.084 22.3327 15 24.009 15C25.6854 15 27.0435 16.0816 27.0435 17.4168Z" fill="#1B1B1B"/>
</svg>
