<svg width="60" height="54" viewBox="0 0 60 54" fill="none" xmlns="http://www.w3.org/2000/svg">
<path d="M44.1806 1.38629C43.851 1.05396 43.4015 0.867188 42.9332 0.867188C42.4649 0.867188 42.0158 1.05441 41.6857 1.38675L36.4929 6.61991C36.1491 6.96598 35.6927 7.15687 35.2084 7.15687C34.8394 7.15687 26.0133 7.15687 24.4665 7.15687C23.9817 7.15687 23.5258 6.96598 23.1788 6.61717L18.077 1.50119C17.7474 1.17023 17.2993 0.984375 16.8323 0.984375C16.8319 0.984375 16.831 0.984375 16.8305 0.984375C16.3627 0.984833 15.9145 1.17206 15.5849 1.50394L0.393107 16.8079C-0.288504 17.4946 -0.287131 18.6028 0.396311 19.2881L4.75331 23.6533C5.57866 24.4851 6.03322 25.5915 6.03322 26.7693C6.03322 28.2932 6.46077 29.7507 7.25545 31.0064C5.52602 33.1094 5.63771 36.2414 7.59237 38.2102C8.53857 39.1638 9.77774 39.7149 11.1066 39.7799C11.1675 41.0653 11.6839 42.3324 12.6562 43.3116C13.6024 44.2651 14.8415 44.8162 16.1709 44.8812C16.2313 46.1666 16.7481 47.4337 17.7199 48.4129C19.2503 49.9546 21.4462 50.3433 23.3006 49.6772C23.556 50.4151 23.9753 51.1073 24.5594 51.6955C26.6464 53.7985 30.0306 53.7989 32.118 51.6955L32.8601 50.9484C33.3238 50.4811 33.6831 49.9478 33.9395 49.3788C36.0154 51.213 39.2152 51.1723 41.2381 49.1343C42.2103 48.1552 42.7267 46.8881 42.7871 45.6027C44.116 45.5381 45.3556 44.9865 46.3018 44.033C47.2741 43.0538 47.7905 41.7868 47.8514 40.5013C49.1798 40.4368 50.4194 39.8852 51.3656 38.9321C53.3093 36.9743 53.4315 33.8656 51.7323 31.7626C52.9706 30.0181 53.6412 27.9357 53.6412 25.749C53.6412 25.2367 53.8467 24.7359 54.2051 24.3748L59.3724 19.1672C60.0526 18.482 60.0526 17.376 59.3724 16.6907L44.1806 1.38629ZM10.0876 33.1089L12.6195 30.5582C13.3304 29.8418 14.4767 29.8414 15.1881 30.5582C15.9067 31.282 15.9067 32.4593 15.1881 33.1826L12.6562 35.7337C11.9448 36.4501 10.799 36.4501 10.0876 35.7337C9.36941 35.01 9.36941 33.8326 10.0876 33.1089ZM15.1514 38.2102L20.2152 33.1089C20.9266 32.3925 22.0728 32.392 22.7842 33.1089C23.5024 33.8326 23.5024 35.01 22.7842 35.7337C20.9792 37.552 20.8831 37.6486 17.7199 40.8351C17.0086 41.551 15.8628 41.5515 15.1514 40.8346C14.4332 40.1113 14.4332 38.934 15.1514 38.2102ZM20.2152 45.9359C19.497 45.2127 19.497 44.0353 20.2152 43.3116L22.7471 40.7609C23.4585 40.0445 24.6047 40.0445 25.3161 40.7609C25.9794 41.4292 26.0288 42.4835 25.4667 43.2113C25.312 43.3541 25.5422 43.1243 22.7842 45.9359C22.0728 46.6528 20.927 46.6532 20.2152 45.9359ZM30.3652 48.4715L29.6232 49.2186C28.9118 49.9354 27.766 49.9354 27.0547 49.2186C26.4001 48.5594 26.3438 47.5244 26.8821 46.7984C27.8471 45.8229 27.7999 45.8805 27.9679 45.6965C28.6857 45.1321 29.7106 45.1879 30.3652 45.8471C31.0835 46.5708 31.083 47.7482 30.3652 48.4715ZM48.8708 36.4552C48.1595 37.1716 47.0132 37.1716 46.3018 36.4552L43.0284 33.1574C42.3445 32.4685 41.2312 32.4644 40.5423 33.1483C39.8533 33.8322 39.8492 34.945 40.5331 35.6339L43.807 38.9317C44.5253 39.6554 44.5253 40.8328 43.807 41.556C43.0957 42.2729 41.9494 42.2729 41.2381 41.556L37.9646 38.2583C37.2802 37.5694 36.1674 37.5652 35.4785 38.2491C34.7895 38.933 34.7854 40.0463 35.4693 40.7353L38.7428 44.033C39.4615 44.7567 39.4615 45.9341 38.7428 46.6574C38.0319 47.3742 36.8856 47.3742 36.1738 46.6574C32.7278 43.2141 32.893 43.2896 32.546 43.0799C31.6506 42.3091 30.5415 41.8623 29.3595 41.8019C29.2959 40.5215 28.7795 39.2599 27.8114 38.2839C27.3147 37.7841 26.737 37.395 26.1085 37.1285C27.3005 35.0764 27.0245 32.3902 25.279 30.6324C23.4901 28.8302 20.814 28.6118 18.8186 29.7805C18.5599 29.163 18.1823 28.5839 17.6833 28.0817C15.5959 25.9788 12.2121 25.9788 10.1243 28.0817L9.84411 28.3642C9.65094 27.8625 9.54885 27.3237 9.54885 26.7693C9.54885 24.6572 8.73174 22.6714 7.24493 21.1732L4.12068 18.043L16.8351 5.23426L20.6867 9.09642C21.5473 9.96342 22.651 10.4967 23.8435 10.635L15.9882 20.0608C15.367 20.8069 15.4677 21.9152 16.2134 22.5364C18.0166 24.0392 20.2972 24.7501 22.635 24.5377C24.9723 24.3253 27.0876 23.2152 28.5923 21.4094C29.2217 20.6541 30.2805 20.4265 31.1682 20.855C32.9795 21.7303 34.9703 22.0498 36.9287 21.7998L48.8708 33.8303C49.5891 34.5541 49.5891 35.7314 48.8708 36.4552ZM51.7103 21.8978C50.6881 22.9273 50.1256 24.2951 50.1256 25.749C50.1256 26.9758 49.8074 28.1522 49.2132 29.185L40.6636 20.5726C42.4113 19.6003 43.8446 18.1386 44.7953 16.3268C45.2462 15.4671 44.9148 14.4047 44.0551 13.9538C43.1955 13.5024 42.133 13.8338 41.6821 14.6935C40.7281 16.5117 39.0907 17.7253 37.2564 18.1748C37.1759 18.1872 37.0957 18.2046 37.0175 18.2284C35.608 18.52 34.0969 18.3657 32.6975 17.6896C30.3542 16.5575 27.5559 17.1618 25.8897 19.1613C24.9879 20.243 23.719 20.909 22.3168 21.0367C21.5199 21.1091 20.7343 21.0024 20.0056 20.7319L28.1432 10.9655C28.7809 10.7709 29.4419 10.6574 30.1084 10.6574H35.2084C36.6366 10.6574 37.9788 10.1127 38.9881 9.09642L42.9336 5.12028L55.6485 17.929L51.7103 21.8978Z" fill="#1B1B1B"/>
</svg>
