<svg width="60" height="60" viewBox="0 0 60 60" fill="none" xmlns="http://www.w3.org/2000/svg">
<path d="M30 0L0 11.1113V48.8745L30 59.9858L60 48.8745V11.1113L30 0ZM30 20.4858L22.4222 17.6793L43.3301 9.93576L50.9079 12.7423L30 20.4858ZM36.5817 7.43637L15.6738 15.1799L9.0921 12.7423L30 4.99878L36.5817 7.43637ZM4.6875 16.1096L13.5938 19.4083V30.9814L18.2808 32.7173C18.2808 32.7155 18.2812 32.7136 18.2812 32.7118V21.1446L27.6562 24.6167V54.1187L4.6875 45.612V16.1096ZM32.3438 54.1187V24.6167L55.3125 16.1096V45.612L32.3438 54.1187Z" fill="#1B1B1B"/>
</svg>
