<svg width="66" height="66" viewBox="0 0 66 66" fill="none" xmlns="http://www.w3.org/2000/svg">
<path d="M55.0037 27.5V19.8C55.0037 16.7197 55.0037 15.1796 54.4709 14.0031C54.0022 12.9682 53.2542 12.1268 52.3343 11.5995C51.2886 11 49.9195 11 47.1815 11H18.8259C16.0879 11 14.7189 11 13.6731 11.5995C12.7532 12.1268 12.0053 12.9682 11.5366 14.0031C11.0037 15.1796 11.0037 16.7197 11.0037 19.8V27.5M17.4363 38.5H17.4638M9.65625 55C10.7888 51.7957 13.8447 49.5 17.4368 49.5C21.0289 49.5 24.0848 51.7957 25.2174 55M33.0014 38.5H33.0289M25.2213 55C26.3539 51.7957 29.4098 49.5 33.0019 49.5C36.594 49.5 39.6499 51.7957 40.7825 55M48.5661 38.5H48.5936M40.7861 55C41.9187 51.7957 44.9746 49.5 48.5667 49.5C52.1588 49.5 55.2147 51.7957 56.3472 55M20.1863 38.5C20.1863 40.0188 18.9551 41.25 17.4363 41.25C15.9175 41.25 14.6863 40.0188 14.6863 38.5C14.6863 36.9812 15.9175 35.75 17.4363 35.75C18.9551 35.75 20.1863 36.9812 20.1863 38.5ZM35.7514 38.5C35.7514 40.0188 34.5202 41.25 33.0014 41.25C31.4826 41.25 30.2514 40.0188 30.2514 38.5C30.2514 36.9812 31.4826 35.75 33.0014 35.75C34.5202 35.75 35.7514 36.9812 35.7514 38.5ZM51.3161 38.5C51.3161 40.0188 50.0849 41.25 48.5661 41.25C47.0473 41.25 45.8161 40.0188 45.8161 38.5C45.8161 36.9812 47.0473 35.75 48.5661 35.75C50.0849 35.75 51.3161 36.9812 51.3161 38.5Z" stroke="#1B1B1B" stroke-width="4" stroke-linecap="round" stroke-linejoin="round"/>
</svg>
