<svg width="140" height="140" viewBox="0 0 140 140" fill="none" xmlns="http://www.w3.org/2000/svg">
<g filter="url(#filter0_dd_7099_5182)">
<rect x="30" y="30" width="80" height="80" rx="20" fill="white"/>
</g>
<path fill-rule="evenodd" clip-rule="evenodd" d="M86.875 60C86.875 58.1766 86.1507 56.428 84.8614 55.1386C83.572 53.8493 81.8234 53.125 80 53.125H60C58.1766 53.125 56.428 53.8493 55.1386 55.1386C53.8493 56.428 53.125 58.1766 53.125 60V80C53.125 81.8234 53.8493 83.572 55.1386 84.8614C56.428 86.1507 58.1766 86.875 60 86.875H80C81.8234 86.875 83.572 86.1507 84.8614 84.8614C86.1507 83.572 86.875 81.8234 86.875 80V60ZM75 65V75C75 75.4973 75.1975 75.9742 75.5492 76.3258C75.9008 76.6775 76.3777 76.875 76.875 76.875C77.3723 76.875 77.8492 76.6775 78.2008 76.3258C78.5525 75.9742 78.75 75.4973 78.75 75V65C78.75 64.5027 78.5525 64.0258 78.2008 63.6742C77.8492 63.3225 77.3723 63.125 76.875 63.125C76.3777 63.125 75.9008 63.3225 75.5492 63.6742C75.1975 64.0258 75 64.5027 75 65ZM72.5 75V67.5C72.5 66.3397 72.0391 65.2269 71.2186 64.4064C70.3981 63.5859 69.2853 63.125 68.125 63.125H65.625C64.4647 63.125 63.3519 63.5859 62.5314 64.4064C61.7109 65.2269 61.25 66.3397 61.25 67.5V75C61.25 75.4973 61.4475 75.9742 61.7992 76.3258C62.1508 76.6775 62.6277 76.875 63.125 76.875C63.6223 76.875 64.0992 76.6775 64.4508 76.3258C64.8025 75.9742 65 75.4973 65 75V73.125H68.75V75C68.75 75.4973 68.9475 75.9742 69.2992 76.3258C69.6508 76.6775 70.1277 76.875 70.625 76.875C71.1223 76.875 71.5992 76.6775 71.9508 76.3258C72.3025 75.9742 72.5 75.4973 72.5 75ZM65 69.375H68.75V67.5C68.75 67.3342 68.6842 67.1753 68.5669 67.0581C68.4497 66.9408 68.2908 66.875 68.125 66.875H65.625C65.4592 66.875 65.3003 66.9408 65.1831 67.0581C65.0658 67.1753 65 67.3342 65 67.5V69.375Z" fill="#0075F2"/>
<path fill-rule="evenodd" clip-rule="evenodd" d="M85 71.875H95C95.4973 71.875 95.9742 71.6775 96.3258 71.3258C96.6775 70.9742 96.875 70.4973 96.875 70C96.875 69.5027 96.6775 69.0258 96.3258 68.6742C95.9742 68.3225 95.4973 68.125 95 68.125H85C84.5027 68.125 84.0258 68.3225 83.6742 68.6742C83.3225 69.0258 83.125 69.5027 83.125 70C83.125 70.4973 83.3225 70.9742 83.6742 71.3258C84.0258 71.6775 84.5027 71.875 85 71.875ZM71.875 55V45C71.875 44.5027 71.6775 44.0258 71.3258 43.6742C70.9742 43.3225 70.4973 43.125 70 43.125C69.5027 43.125 69.0258 43.3225 68.6742 43.6742C68.3225 44.0258 68.125 44.5027 68.125 45V55C68.125 55.4973 68.3225 55.9742 68.6742 56.3258C69.0258 56.6775 69.5027 56.875 70 56.875C70.4973 56.875 70.9742 56.6775 71.3258 56.3258C71.6775 55.9742 71.875 55.4973 71.875 55ZM68.125 85V95C68.125 95.4973 68.3225 95.9742 68.6742 96.3258C69.0258 96.6775 69.5027 96.875 70 96.875C70.4973 96.875 70.9742 96.6775 71.3258 96.3258C71.6775 95.9742 71.875 95.4973 71.875 95V85C71.875 84.5027 71.6775 84.0258 71.3258 83.6742C70.9742 83.3225 70.4973 83.125 70 83.125C69.5027 83.125 69.0258 83.3225 68.6742 83.6742C68.3225 84.0258 68.125 84.5027 68.125 85ZM55 68.125H45C44.5027 68.125 44.0258 68.3225 43.6742 68.6742C43.3225 69.0258 43.125 69.5027 43.125 70C43.125 70.4973 43.3225 70.9742 43.6742 71.3258C44.0258 71.6775 44.5027 71.875 45 71.875H55C55.4973 71.875 55.9742 71.6775 56.3258 71.3258C56.6775 70.9742 56.875 70.4973 56.875 70C56.875 69.5027 56.6775 69.0258 56.3258 68.6742C55.9742 68.3225 55.4973 68.125 55 68.125ZM85 64.375H91.25C91.7473 64.375 92.2242 64.1775 92.5758 63.8258C92.9275 63.4742 93.125 62.9973 93.125 62.5C93.125 62.0027 92.9275 61.5258 92.5758 61.1742C92.2242 60.8225 91.7473 60.625 91.25 60.625H85C84.5027 60.625 84.0258 60.8225 83.6742 61.1742C83.3225 61.5258 83.125 62.0027 83.125 62.5C83.125 62.9973 83.3225 63.4742 83.6742 63.8258C84.0258 64.1775 84.5027 64.375 85 64.375ZM64.375 55V48.75C64.375 48.2527 64.1775 47.7758 63.8258 47.4242C63.4742 47.0725 62.9973 46.875 62.5 46.875C62.0027 46.875 61.5258 47.0725 61.1742 47.4242C60.8225 47.7758 60.625 48.2527 60.625 48.75V55C60.625 55.4973 60.8225 55.9742 61.1742 56.3258C61.5258 56.6775 62.0027 56.875 62.5 56.875C62.9973 56.875 63.4742 56.6775 63.8258 56.3258C64.1775 55.9742 64.375 55.4973 64.375 55ZM60.625 85V91.25C60.625 91.7473 60.8225 92.2242 61.1742 92.5758C61.5258 92.9275 62.0027 93.125 62.5 93.125C62.9973 93.125 63.4742 92.9275 63.8258 92.5758C64.1775 92.2242 64.375 91.7473 64.375 91.25V85C64.375 84.5027 64.1775 84.0258 63.8258 83.6742C63.4742 83.3225 62.9973 83.125 62.5 83.125C62.0027 83.125 61.5258 83.3225 61.1742 83.6742C60.8225 84.0258 60.625 84.5027 60.625 85ZM55 60.625H48.75C48.2527 60.625 47.7758 60.8225 47.4242 61.1742C47.0725 61.5258 46.875 62.0027 46.875 62.5C46.875 62.9973 47.0725 63.4742 47.4242 63.8258C47.7758 64.1775 48.2527 64.375 48.75 64.375H55C55.4973 64.375 55.9742 64.1775 56.3258 63.8258C56.6775 63.4742 56.875 62.9973 56.875 62.5C56.875 62.0027 56.6775 61.5258 56.3258 61.1742C55.9742 60.8225 55.4973 60.625 55 60.625ZM85 79.375H91.25C91.7473 79.375 92.2242 79.1775 92.5758 78.8258C92.9275 78.4742 93.125 77.9973 93.125 77.5C93.125 77.0027 92.9275 76.5258 92.5758 76.1742C92.2242 75.8225 91.7473 75.625 91.25 75.625H85C84.5027 75.625 84.0258 75.8225 83.6742 76.1742C83.3225 76.5258 83.125 77.0027 83.125 77.5C83.125 77.9973 83.3225 78.4742 83.6742 78.8258C84.0258 79.1775 84.5027 79.375 85 79.375ZM79.375 55V48.75C79.375 48.2527 79.1775 47.7758 78.8258 47.4242C78.4742 47.0725 77.9973 46.875 77.5 46.875C77.0027 46.875 76.5258 47.0725 76.1742 47.4242C75.8225 47.7758 75.625 48.2527 75.625 48.75V55C75.625 55.4973 75.8225 55.9742 76.1742 56.3258C76.5258 56.6775 77.0027 56.875 77.5 56.875C77.9973 56.875 78.4742 56.6775 78.8258 56.3258C79.1775 55.9742 79.375 55.4973 79.375 55ZM75.625 85V91.25C75.625 91.7473 75.8225 92.2242 76.1742 92.5758C76.5258 92.9275 77.0027 93.125 77.5 93.125C77.9973 93.125 78.4742 92.9275 78.8258 92.5758C79.1775 92.2242 79.375 91.7473 79.375 91.25V85C79.375 84.5027 79.1775 84.0258 78.8258 83.6742C78.4742 83.3225 77.9973 83.125 77.5 83.125C77.0027 83.125 76.5258 83.3225 76.1742 83.6742C75.8225 84.0258 75.625 84.5027 75.625 85ZM55 75.625H48.75C48.2527 75.625 47.7758 75.8225 47.4242 76.1742C47.0725 76.5258 46.875 77.0027 46.875 77.5C46.875 77.9973 47.0725 78.4742 47.4242 78.8258C47.7758 79.1775 48.2527 79.375 48.75 79.375H55C55.4973 79.375 55.9742 79.1775 56.3258 78.8258C56.6775 78.4742 56.875 77.9973 56.875 77.5C56.875 77.0027 56.6775 76.5258 56.3258 76.1742C55.9742 75.8225 55.4973 75.625 55 75.625Z" fill="#0075F2"/>
<defs>
<filter id="filter0_dd_7099_5182" x="0" y="0" width="140" height="140" filterUnits="userSpaceOnUse" color-interpolation-filters="sRGB">
<feFlood flood-opacity="0" result="BackgroundImageFix"/>
<feColorMatrix in="SourceAlpha" type="matrix" values="0 0 0 0 0 0 0 0 0 0 0 0 0 0 0 0 0 0 127 0" result="hardAlpha"/>
<feOffset dy="2"/>
<feGaussianBlur stdDeviation="5"/>
<feComposite in2="hardAlpha" operator="out"/>
<feColorMatrix type="matrix" values="0 0 0 0 0 0 0 0 0 0.458824 0 0 0 0 0.94902 0 0 0 0.1 0"/>
<feBlend mode="normal" in2="BackgroundImageFix" result="effect1_dropShadow_7099_5182"/>
<feColorMatrix in="SourceAlpha" type="matrix" values="0 0 0 0 0 0 0 0 0 0 0 0 0 0 0 0 0 0 127 0" result="hardAlpha"/>
<feOffset/>
<feGaussianBlur stdDeviation="15"/>
<feComposite in2="hardAlpha" operator="out"/>
<feColorMatrix type="matrix" values="0 0 0 0 0 0 0 0 0 0.458824 0 0 0 0 0.94902 0 0 0 0.1 0"/>
<feBlend mode="normal" in2="effect1_dropShadow_7099_5182" result="effect2_dropShadow_7099_5182"/>
<feBlend mode="normal" in="SourceGraphic" in2="effect2_dropShadow_7099_5182" result="shape"/>
</filter>
</defs>
</svg>
