<svg width="140" height="140" viewBox="0 0 140 140" fill="none" xmlns="http://www.w3.org/2000/svg">
<g filter="url(#filter0_dd_7099_5135)">
<rect x="30" y="30" width="80" height="80" rx="20" fill="white"/>
</g>
<g clip-path="url(#clip0_7099_5135)">
<path d="M46.9993 57.5079C46.9465 57.3286 46.9664 57.1528 47.059 56.9899C49.3114 53.0301 52.5563 49.7079 56.4563 47.37C60.2461 45.0942 64.6477 43.7454 69.3481 43.6293C69.7102 43.6223 69.9997 43.3235 69.9997 42.9614V40.6692C69.9997 40.3938 70.159 40.1571 70.4122 40.0516C70.6676 39.9485 70.9465 40.0012 71.1434 40.1981L76.0993 45.154C76.3618 45.4165 76.3618 45.8418 76.0993 46.1008L71.1434 51.0602C70.9477 51.2559 70.6688 51.3098 70.4122 51.2032C70.1602 51.1 69.9997 50.8645 69.9997 50.5856V48.3122C69.9997 48.1258 69.9329 47.9629 69.7969 47.834C69.661 47.7016 69.4981 47.6383 69.3118 47.6442C65.3625 47.7637 61.6782 48.9004 58.5094 50.8C55.2176 52.777 52.4766 55.5707 50.57 58.9059C50.3907 59.2176 49.9922 59.3313 49.6735 59.1614L47.3286 57.9086C47.1622 57.8231 47.052 57.6872 46.9993 57.5079ZM58.9043 89.4309C55.5691 87.5208 52.7795 84.7872 50.802 81.4915C48.9024 78.3227 47.7622 74.6383 47.6461 70.6891C47.6391 70.5028 47.7024 70.3375 47.8325 70.204C47.9649 70.068 48.1243 70.0012 48.3141 70.0012H50.5864C50.8618 70.0012 51.0985 69.8418 51.2039 69.5864C51.3094 69.3309 51.2543 69.0543 51.0575 68.8586L46.1016 63.8993C45.9755 63.7748 45.8054 63.705 45.6282 63.705C45.451 63.705 45.2809 63.7748 45.1547 63.8993L40.1989 68.8586C40.0032 69.0543 39.9469 69.3309 40.0524 69.5864C40.1579 69.8418 40.3946 70.0012 40.67 70.0012H42.9622C43.3243 70.0012 43.6196 70.2907 43.6301 70.6528C43.7426 75.3532 45.095 79.7547 47.3672 83.5446C49.7086 87.4446 53.0274 90.6895 56.9907 92.9383C57.1536 93.0309 57.3258 93.0508 57.5051 93.0016C57.6844 92.9489 57.8204 92.8387 57.9106 92.6723L59.1633 90.3274C59.3332 90.0086 59.2207 89.6102 58.9043 89.4309ZM92.6743 82.0891L90.3258 80.8364C90.1724 80.7545 89.9931 80.7358 89.8261 80.7841C89.6591 80.8325 89.5176 80.9442 89.4317 81.0954C87.5186 84.4295 84.7842 87.2187 81.4887 89.1977C78.3235 91.0973 74.6356 92.234 70.6899 92.3536C70.5 92.3606 70.3383 92.2973 70.2012 92.1637C70.0688 92.0336 69.9985 91.8719 69.9985 91.6856V89.4133C69.9985 89.1379 69.8426 88.9012 69.5872 88.7957C69.3317 88.6891 69.0528 88.743 68.8559 88.9387L63.9 93.8981C63.6375 94.1571 63.6375 94.5825 63.9 94.845L68.8559 99.8008C69.0516 99.9965 69.3305 100.053 69.5872 99.9473C69.8438 99.8418 69.9985 99.6051 69.9985 99.3297V97.0375C69.9985 96.6754 70.2879 96.3766 70.6524 96.3696C75.3528 96.2536 79.7508 94.9047 83.5407 92.629C87.4407 90.2899 90.6856 86.9688 92.9379 83.009C93.0305 82.8461 93.0504 82.6739 92.9977 82.4911C92.9508 82.3118 92.8372 82.1758 92.6743 82.0891ZM99.9457 70.4125C99.8391 70.1571 99.6036 70.0012 99.3282 70.0012H97.0395C96.6739 70.0012 96.3786 69.7094 96.368 69.3473C96.2555 64.6469 94.9032 60.2454 92.6309 56.4555C90.2859 52.5487 86.9724 49.3132 83.011 47.0618C82.8446 46.9692 82.6723 46.9493 82.493 46.9985C82.3137 47.0512 82.1778 47.1614 82.0875 47.3278L80.8383 49.6762C80.6661 49.995 80.7821 50.3899 81.0938 50.5704C84.4254 52.477 87.2227 55.2215 89.1961 58.5098C91.0993 61.6786 92.236 65.3629 92.3555 69.3122C92.359 69.502 92.2957 69.6637 92.1657 69.7973C92.0356 69.9332 91.8739 70.0036 91.684 70.0036H89.4118C89.1364 70.0036 88.8997 70.1594 88.7942 70.4149C88.6875 70.6704 88.7438 70.9493 88.9407 71.1426L93.8965 76.102C94.159 76.361 94.5844 76.361 94.8434 76.102L99.8028 71.1426C99.9961 70.9481 100.052 70.6692 99.9457 70.4125ZM69.9997 82.4512C63.143 82.4512 57.5497 76.8567 57.5497 70.0012C57.5497 63.1411 63.1442 57.5477 69.9997 57.5477C76.8598 57.5477 82.4497 63.1422 82.4497 70.0012C82.4497 76.8567 76.8586 82.4512 69.9997 82.4512ZM69.6539 74.0899L76.4672 67.2766C76.8457 66.8981 76.8457 66.2864 76.4672 65.9079C76.0887 65.5293 75.477 65.5293 75.0985 65.9079L68.9696 72.0403L64.9008 67.9715C64.5223 67.593 63.9106 67.593 63.5321 67.9715C63.1536 68.35 63.1536 68.9618 63.5321 69.3403L68.2852 74.0911C68.6614 74.4684 69.2754 74.4684 69.6539 74.0899Z" fill="#0075F2"/>
</g>
<defs>
<filter id="filter0_dd_7099_5135" x="0" y="0" width="140" height="140" filterUnits="userSpaceOnUse" color-interpolation-filters="sRGB">
<feFlood flood-opacity="0" result="BackgroundImageFix"/>
<feColorMatrix in="SourceAlpha" type="matrix" values="0 0 0 0 0 0 0 0 0 0 0 0 0 0 0 0 0 0 127 0" result="hardAlpha"/>
<feOffset dy="2"/>
<feGaussianBlur stdDeviation="5"/>
<feComposite in2="hardAlpha" operator="out"/>
<feColorMatrix type="matrix" values="0 0 0 0 0 0 0 0 0 0.458824 0 0 0 0 0.94902 0 0 0 0.1 0"/>
<feBlend mode="normal" in2="BackgroundImageFix" result="effect1_dropShadow_7099_5135"/>
<feColorMatrix in="SourceAlpha" type="matrix" values="0 0 0 0 0 0 0 0 0 0 0 0 0 0 0 0 0 0 127 0" result="hardAlpha"/>
<feOffset/>
<feGaussianBlur stdDeviation="15"/>
<feComposite in2="hardAlpha" operator="out"/>
<feColorMatrix type="matrix" values="0 0 0 0 0 0 0 0 0 0.458824 0 0 0 0 0.94902 0 0 0 0.1 0"/>
<feBlend mode="normal" in2="effect1_dropShadow_7099_5135" result="effect2_dropShadow_7099_5135"/>
<feBlend mode="normal" in="SourceGraphic" in2="effect2_dropShadow_7099_5135" result="shape"/>
</filter>
<clipPath id="clip0_7099_5135">
<rect width="60" height="60" fill="white" transform="translate(40 40)"/>
</clipPath>
</defs>
</svg>
