<svg width="79" height="80" viewBox="0 0 79 80" fill="none" xmlns="http://www.w3.org/2000/svg">
<circle cx="39.4352" cy="40.066" r="34.0099" transform="rotate(-10.0469 39.4352 40.066)" fill="#0075F2"/>
<circle cx="39.4353" cy="40.0658" r="25.5074" transform="rotate(-10.0469 39.4353 40.0658)" fill="white"/>
<g clip-path="url(#clip0_7099_9068)">
<path fill-rule="evenodd" clip-rule="evenodd" d="M41.8104 53.898C49.483 52.5386 54.6009 45.2167 53.2416 37.5441C51.8822 29.8714 44.5603 24.7535 36.8877 26.1129C29.215 27.4722 24.0971 34.7941 25.4565 42.4668C26.8158 50.1394 34.1377 55.2573 41.8104 53.898ZM31.8539 46.1841C32.8319 46.4931 33.9154 46.5422 35.1044 46.3316C36.0395 46.1659 36.8418 45.8722 37.5112 45.4505C38.1915 45.013 38.7225 44.4711 39.104 43.8248L37.488 42.5196C37.1849 42.9867 36.8095 43.3563 36.3616 43.6286C35.9138 43.9008 35.3893 44.0902 34.7881 44.1967C34.0934 44.3198 33.4552 44.2951 32.8735 44.1226C32.2918 43.9501 31.8102 43.6427 31.4287 43.2004C31.1883 42.9218 31.001 42.6036 30.867 42.2459L39.2634 40.7583C39.2555 40.6357 39.2397 40.5076 39.216 40.374C39.2057 40.238 39.1911 40.1166 39.1721 40.0097C38.9733 38.8875 38.5667 37.9536 37.9524 37.2082C37.338 36.4627 36.5832 35.9351 35.6877 35.6252C34.7923 35.3154 33.8236 35.2528 32.7815 35.4374C31.7128 35.6267 30.799 36.0298 30.0401 36.6465C29.2947 37.2608 28.7548 38.0247 28.4206 38.9383C28.0974 39.836 28.0305 40.8193 28.2199 41.8881C28.4069 42.9435 28.8142 43.8428 29.4419 44.5859C30.083 45.3266 30.887 45.8593 31.8539 46.1841ZM30.55 40.5865C30.5337 40.1754 30.584 39.7945 30.7011 39.4437C30.883 38.9154 31.1775 38.4774 31.5844 38.1297C32.0046 37.7797 32.522 37.5502 33.1366 37.4413C33.7378 37.3348 34.2891 37.3749 34.7907 37.5617C35.3056 37.746 35.7381 38.0483 36.0882 38.4686C36.3357 38.7657 36.5196 39.1121 36.6398 39.5076L30.55 40.5865ZM43.9722 39.0067L40.7592 45.185L43.5246 44.6951L45.6434 40.5048L49.0355 43.7187L51.8611 43.2181L46.706 38.4864L49.7848 32.5489L47.0795 33.0282L45.0661 36.9951L41.8291 33.9584L39.0436 34.4519L43.9722 39.0067Z" fill="#0075F2"/>
</g>
<defs>
<clipPath id="clip0_7099_9068">
<rect width="34.0099" height="34.0099" fill="white" transform="translate(19.7246 26.2881) rotate(-10.0469)"/>
</clipPath>
</defs>
</svg>
