<svg width="70" height="71" viewBox="0 0 70 71" fill="none" xmlns="http://www.w3.org/2000/svg">
<circle cx="34.9829" cy="35.501" r="30.7151" transform="rotate(8.24374 34.9829 35.501)" fill="#0075F2"/>
<circle cx="34.9825" cy="35.5008" r="23.0363" transform="rotate(8.24374 34.9825 35.5008)" fill="white"/>
<g clip-path="url(#clip0_7099_9152)">
<path d="M47.4973 21.7976L26.8747 18.8097C26.3215 18.7296 25.8113 19.1118 25.7315 19.6625L21.6166 48.0641C21.5366 48.616 21.9175 49.1273 22.4694 49.2073L37.7688 51.4239C38.0144 51.4595 38.2649 51.4038 38.4723 51.2655L44.4831 47.2746C44.7222 47.1158 44.8831 46.8621 44.9241 46.5791L48.3491 22.9394C48.4289 22.3886 48.0469 21.8772 47.4973 21.7976ZM43.0113 45.7313L38.3687 45.0586L37.7506 49.3247L37.6807 49.3706L23.7576 47.3534L27.583 20.9504L46.2094 23.6491L43.0113 45.7313Z" fill="#0075F2"/>
<path d="M36.4449 38.3123L31.3731 37.5775C31.0843 37.5357 30.8177 37.7358 30.776 38.0235L30.0412 43.0953C29.9993 43.3841 30.1983 43.6505 30.4872 43.6924L35.5589 44.4272C35.8466 44.4689 36.1144 44.2689 36.1561 43.9812L36.8907 38.9106C36.9335 38.6231 36.7337 38.3542 36.4449 38.3123ZM35.1907 43.31L31.1609 42.7262L31.7447 38.6964L35.7745 39.2802L35.1907 43.31Z" fill="#0075F2"/>
<path d="M38.0213 30.6553L38.0267 30.6179C38.0636 30.363 37.8865 30.1272 37.6327 30.0904L32.5691 29.3568C32.3154 29.32 32.0786 29.4959 32.0416 29.7508L31.3082 34.8132C31.2711 35.0693 31.4483 35.3051 31.702 35.3418L36.7668 36.0756C37.0205 36.1124 37.2573 35.9366 37.2944 35.6805L37.5558 33.8761L36.624 34.5721C36.5892 34.5981 36.5449 34.6072 36.5059 34.629L36.4393 35.0886L32.2961 34.4883L32.8966 30.3439L37.0398 30.9442L36.9676 31.4423L38.0213 30.6553Z" fill="#0075F2"/>
<path d="M39.0125 30.4937L36.0726 32.6885L35.2327 31.5627C35.0058 31.2588 34.5777 31.1968 34.2738 31.4238C33.9699 31.6508 33.9077 32.0799 34.1351 32.3815L35.3859 34.0576C35.4989 34.2089 35.6635 34.3008 35.8365 34.3258C36.0108 34.3511 36.1947 34.3097 36.3448 34.1965L39.8326 31.5904C40.1377 31.3635 40.1997 30.9355 39.9716 30.6315C39.7456 30.3289 39.3164 30.2667 39.0125 30.4937Z" fill="#0075F2"/>
<path d="M43.138 26.132L29.8242 24.2031L29.6228 25.5936L42.9365 27.5225L43.138 26.132Z" fill="#0075F2"/>
</g>
<defs>
<clipPath id="clip0_7099_9152">
<rect width="30.7151" height="30.7151" fill="white" transform="translate(21.9863 18.1006) rotate(8.24374)"/>
</clipPath>
</defs>
</svg>
