<svg width="72" height="72" viewBox="0 0 72 72" fill="none" xmlns="http://www.w3.org/2000/svg">
<circle cx="35.7958" cy="36.2582" r="31.3395" transform="rotate(-8.31653 35.7958 36.2582)" fill="#0075F2"/>
<circle cx="35.7959" cy="36.2581" r="23.5046" transform="rotate(-8.31653 35.7959 36.2581)" fill="white"/>
<g clip-path="url(#clip0_7099_9107)">
<path d="M39.8278 30.4675L41.9842 27.6408L42.0005 26.5809C36.8204 23.1766 29.6002 24.7039 26.1364 29.8845C25.1743 31.3234 24.5543 33.0326 24.3393 34.7354L25.2222 34.4795L30.1352 32.9331L30.4669 32.488C32.3539 29.7583 36.091 28.8819 38.974 30.5483L39.8278 30.4675Z" fill="#075FDB"/>
<path d="M46.2044 31.4652C45.3219 29.4683 43.8612 27.7708 42.0012 26.5808L38.9747 30.548C40.6398 31.5208 41.7514 33.1905 41.99 35.0773L42.0796 35.6899C43.8151 35.4362 45.4232 36.6057 45.6712 38.302C45.9191 39.9984 44.708 41.5448 42.9725 41.7985L36.6786 42.7185L36.1564 43.4645L36.695 47.1486L37.3974 47.6363L43.6914 46.7163C48.2107 46.0907 51.3851 42.0372 50.7753 37.6198C50.4056 34.9422 48.69 32.6322 46.2044 31.4652Z" fill="#4285F4"/>
<path d="M31.1118 48.5556L37.3969 47.6369L36.678 42.719L30.3929 43.6377C29.945 43.7031 29.4976 43.6724 29.0638 43.5501L28.2112 43.9478L26.0372 46.7771L25.9388 47.6463C27.5129 48.4871 29.3326 48.8234 31.1118 48.5556Z" fill="#3999FF"/>
<path d="M28.7797 32.6023C24.2691 33.2885 21.1574 37.4186 21.8293 41.8269C22.2045 44.2887 23.7209 46.4359 25.9387 47.6459L29.0637 43.5496C27.3798 43.0824 26.411 41.3657 26.8996 39.7154C27.3882 38.0651 29.1493 37.106 30.833 37.5731C31.5749 37.779 32.2128 38.243 32.6273 38.8781L35.7522 34.7819C33.9113 33.0266 31.3315 32.2202 28.7797 32.6023Z" fill="#0075F2"/>
</g>
<defs>
<clipPath id="clip0_7099_9107">
<rect width="31.3395" height="31.3395" fill="white" transform="translate(18.0244 23.0195) rotate(-8.31653)"/>
</clipPath>
</defs>
</svg>
