<svg width="48" height="63" viewBox="0 0 48 63" fill="none" xmlns="http://www.w3.org/2000/svg">
<path d="M48.0054 33.661C46.4045 33.7063 45.0705 34.1143 44.0033 34.885C42.9361 35.6557 42.1801 36.7891 41.7354 38.2851C41.313 39.7585 41.1018 42.3879 41.1018 46.1734C41.1018 51.0468 40.835 54.4356 40.3014 56.3397C39.7677 58.2664 38.745 59.6944 37.2331 60.6238C35.7212 61.5758 33.4978 62.0518 30.563 62.0518H28.6953V57.0197H29.7292C31.9526 57.0197 33.4645 56.6343 34.2649 55.8636C35.0653 55.1156 35.4655 53.3136 35.4655 50.4575C35.4655 45.4027 35.5767 41.8666 35.799 39.8492C36.0214 37.8318 36.6328 36.1204 37.6333 34.715C38.6338 33.287 40.298 32.0459 42.4991 31.0259C40.1646 30.1192 38.3559 28.6628 37.1997 26.6228C36.0436 24.5827 35.4655 21.262 35.4655 16.6605C35.4655 12.399 35.3988 9.70162 35.2654 8.56825C35.132 7.41222 34.6984 6.53953 33.9647 5.95018C33.2532 5.36082 31.8414 5.06615 29.7292 5.06615H28.6953V0H30.563C32.7419 0 34.4539 0.21534 35.699 0.646019C36.9441 1.0767 38.0224 1.89272 38.934 3.09409C39.8678 4.27279 40.457 5.74617 40.7016 7.51422C40.9684 9.25961 41.1018 12.0477 41.1018 15.8785C41.1018 19.6866 41.313 22.3273 41.7354 23.8007C42.1579 25.2741 42.9138 26.4074 44.0033 27.2008C45.0927 27.9715 46.4268 28.3682 48.0054 28.3908V33.661Z" fill="black"/>
<path d="M0.00243759 33.661C1.60327 33.7063 2.9373 34.1143 4.00452 34.885C5.07175 35.6557 5.82769 36.7891 6.27237 38.2851C6.69481 39.7585 6.90604 42.3879 6.90604 46.1734C6.90604 51.0468 7.17284 54.4356 7.70645 56.3397C8.24006 58.2664 9.26282 59.6944 10.7747 60.6238C12.2866 61.5758 14.51 62.0518 17.4449 62.0518H19.3125V57.0197H18.2786C16.0552 57.0197 14.5433 56.6343 13.7429 55.8636C12.9425 55.1156 12.5423 53.3136 12.5423 50.4575C12.5423 45.4027 12.4311 41.8666 12.2088 39.8492C11.9865 37.8318 11.375 36.1204 10.3745 34.715C9.37399 33.287 7.70983 32.0459 5.50869 31.0259C7.84324 30.1192 9.65191 28.6628 10.8081 26.6228C11.9642 24.5827 12.5423 21.262 12.5423 16.6605C12.5423 12.399 12.609 9.70162 12.7424 8.56825C12.8758 7.41222 13.3094 6.53953 14.0431 5.95018C14.7546 5.36082 16.1664 5.06615 18.2786 5.06615H19.3125V0H17.4449C15.2659 0 13.5539 0.21534 12.3089 0.646019C11.0638 1.0767 9.98542 1.89272 9.07383 3.09409C8.14001 4.27279 7.55082 5.74617 7.30624 7.51422C7.03944 9.25961 6.90604 12.0477 6.90604 15.8785C6.90604 19.6866 6.69481 22.3273 6.27237 23.8007C5.84993 25.2741 5.09398 26.4074 4.00452 27.2008C2.91507 27.9715 1.58104 28.3682 0.00243759 28.3908V33.661Z" fill="black"/>
<path d="M27.0454 18.0112V44.0381C27.0454 45.419 25.6874 46.5376 24.011 46.5376C22.3346 46.5376 20.9766 45.419 20.9766 44.0381V18.0112C20.9766 16.6328 22.3346 15.5117 24.011 15.5117C25.6874 15.5117 27.0454 16.6304 27.0454 18.0112Z" fill="#0075F2"/>
</svg>
