<svg width="140" height="140" viewBox="0 0 140 140" fill="none" xmlns="http://www.w3.org/2000/svg">
<g filter="url(#filter0_dd_7099_5150)">
<rect x="30" y="30" width="80" height="80" rx="20" fill="white"/>
</g>
<path d="M49.375 43.75C47.8832 43.75 46.4524 44.3426 45.3975 45.3975C44.3426 46.4524 43.75 47.8832 43.75 49.375V71.875C43.75 73.3668 44.3426 74.7976 45.3975 75.8525C46.4524 76.9074 47.8832 77.5 49.375 77.5H58.75V79.6937C57.653 80.0819 56.7033 80.8006 56.0317 81.7509C55.3601 82.7012 54.9997 83.8363 55 85V86.875C55 87.3723 55.1975 87.8492 55.5492 88.2008C55.9008 88.5525 56.3777 88.75 56.875 88.75H71.875V73.75H49.375C48.8777 73.75 48.4008 73.5525 48.0492 73.2008C47.6975 72.8492 47.5 72.3723 47.5 71.875V49.375C47.5 48.8777 47.6975 48.4008 48.0492 48.0492C48.4008 47.6975 48.8777 47.5 49.375 47.5H86.875C87.3723 47.5 87.8492 47.6975 88.2008 48.0492C88.5525 48.4008 88.75 48.8777 88.75 49.375V60.625H90.625C91.2719 60.625 91.9 60.7075 92.5 60.8612V49.375C92.5 47.8832 91.9074 46.4524 90.8525 45.3975C89.7976 44.3426 88.3668 43.75 86.875 43.75H49.375Z" fill="#0075F2"/>
<path fill-rule="evenodd" clip-rule="evenodd" d="M73.75 90.625C73.75 92.1168 74.3426 93.5476 75.3975 94.6025C76.4524 95.6574 77.8832 96.25 79.375 96.25H90.625C92.1168 96.25 93.5476 95.6574 94.6025 94.6025C95.6574 93.5476 96.25 92.1168 96.25 90.625V68.125C96.25 66.6332 95.6574 65.2024 94.6025 64.1475C93.5476 63.0926 92.1168 62.5 90.625 62.5H79.375C77.8832 62.5 76.4524 63.0926 75.3975 64.1475C74.3426 65.2024 73.75 66.6332 73.75 68.125V90.625ZM92.5 87.2069V68.125C92.5 67.6277 92.3025 67.1508 91.9508 66.7992C91.5992 66.4475 91.1223 66.25 90.625 66.25H79.375C78.8777 66.25 78.4008 66.4475 78.0492 66.7992C77.6975 67.1508 77.5 67.6277 77.5 68.125V87.2069H80.785C80.8127 86.7293 81.022 86.2804 81.3698 85.9521C81.7177 85.6237 82.1779 85.4408 82.6562 85.4406H87.3438C87.8221 85.4408 88.2823 85.6237 88.6302 85.9521C88.978 86.2804 89.1873 86.7293 89.215 87.2069H92.5Z" fill="#0075F2"/>
<defs>
<filter id="filter0_dd_7099_5150" x="0" y="0" width="140" height="140" filterUnits="userSpaceOnUse" color-interpolation-filters="sRGB">
<feFlood flood-opacity="0" result="BackgroundImageFix"/>
<feColorMatrix in="SourceAlpha" type="matrix" values="0 0 0 0 0 0 0 0 0 0 0 0 0 0 0 0 0 0 127 0" result="hardAlpha"/>
<feOffset dy="2"/>
<feGaussianBlur stdDeviation="5"/>
<feComposite in2="hardAlpha" operator="out"/>
<feColorMatrix type="matrix" values="0 0 0 0 0 0 0 0 0 0.458824 0 0 0 0 0.94902 0 0 0 0.1 0"/>
<feBlend mode="normal" in2="BackgroundImageFix" result="effect1_dropShadow_7099_5150"/>
<feColorMatrix in="SourceAlpha" type="matrix" values="0 0 0 0 0 0 0 0 0 0 0 0 0 0 0 0 0 0 127 0" result="hardAlpha"/>
<feOffset/>
<feGaussianBlur stdDeviation="15"/>
<feComposite in2="hardAlpha" operator="out"/>
<feColorMatrix type="matrix" values="0 0 0 0 0 0 0 0 0 0.458824 0 0 0 0 0.94902 0 0 0 0.1 0"/>
<feBlend mode="normal" in2="effect1_dropShadow_7099_5150" result="effect2_dropShadow_7099_5150"/>
<feBlend mode="normal" in="SourceGraphic" in2="effect2_dropShadow_7099_5150" result="shape"/>
</filter>
</defs>
</svg>
