<svg width="76" height="76" viewBox="0 0 76 76" fill="none" xmlns="http://www.w3.org/2000/svg">
<circle cx="37.8496" cy="38.3479" r="30.6667" transform="rotate(15 37.8496 38.3479)" fill="#0075F2"/>
<circle cx="37.8494" cy="38.3478" r="23" transform="rotate(15 37.8494 38.3478)" fill="white"/>
<path d="M40.9031 26.5371L41.222 27.9149C41.3067 28.1761 41.4103 28.4149 41.5453 28.6477C41.9423 29.3255 42.2931 30.0295 42.5953 30.7547C43.3003 32.4743 43.609 34.257 43.6733 36.1128C43.7067 37.2449 43.5893 38.3655 43.3108 39.4559C42.4927 42.7196 40.631 45.2114 37.7636 46.9286C37.2997 47.1984 36.8146 47.4301 36.3131 47.6211C36.0906 47.5615 36.0311 47.3627 35.9815 47.181C35.8925 46.8449 35.8671 46.4952 35.9065 46.1498C35.9329 45.7355 35.9864 45.3285 36.1207 44.9294L36.1699 44.746C36.1623 44.7021 40.8001 26.6086 40.9031 26.5371Z" fill="#075FDB"/>
<path d="M40.9142 26.4973C40.902 26.4376 40.865 26.4704 40.8318 26.4889C40.7741 26.7554 40.6196 26.9654 40.416 27.1509C40.1985 27.3311 39.9438 27.4458 39.6849 27.573C38.2495 28.2696 37.0059 29.2423 35.9063 30.4084C34.4377 31.9807 33.4073 33.8115 32.71 35.8426C32.4446 36.5715 32.0402 39.2863 32.0719 40.1093C32.1732 42.2989 32.8734 44.2984 33.9738 46.166C34.246 46.6176 34.5506 47.0504 34.8721 47.4742C34.9901 47.5058 35.0311 47.404 35.0791 47.3331C35.1757 47.1796 35.2609 47.0194 35.3341 46.8535L36.1237 44.9591L40.9142 26.4973Z" fill="#0075F2"/>
<path d="M35.7535 48.3268C35.8604 48.0331 36.0716 47.8223 36.2953 47.6155C36.155 47.5078 36.0726 47.3464 36.0198 47.1767C35.9775 47.0182 35.9508 46.8559 35.9401 46.6921C35.9041 46.0927 36.0197 45.505 36.1178 44.9286L36.209 44.5881C36.1295 44.6232 35.9968 45.0645 35.979 45.1307C35.7816 45.7147 35.5443 46.2845 35.2691 46.8362C35.1667 47.0618 35.0774 47.29 34.8761 47.4608C34.8691 47.4871 34.862 47.5135 34.8643 47.556C34.9142 48.3138 34.7894 49.0385 34.636 49.77L34.5655 50.0331C34.4813 50.3473 34.4863 50.2778 34.7189 50.4529C34.8137 50.5202 34.9273 50.5651 35.0116 50.6715C35.0906 50.6926 35.1209 50.6307 35.135 50.5781L35.2117 50.1354L35.5348 48.9296C35.5784 48.7157 35.6735 48.5172 35.7525 48.3273L35.7535 48.3268Z" fill="#C2BFBF"/>
</svg>
