<svg width="71" height="71" viewBox="0 0 71 71" fill="none" xmlns="http://www.w3.org/2000/svg">
<circle cx="35.7065" cy="35.4287" r="30.7151" transform="rotate(8.24374 35.7065 35.4287)" fill="#0075F2"/>
<circle cx="35.7062" cy="35.4285" r="23.0363" transform="rotate(8.24374 35.7062 35.4285)" fill="white"/>
<path fill-rule="evenodd" clip-rule="evenodd" d="M36.8837 22.8421C37.0923 22.7588 37.3192 22.7319 37.5416 22.7641C37.7639 22.7963 37.9738 22.8865 38.1503 23.0256L47.1961 30.1553C47.3726 30.2944 47.5093 30.4775 47.5926 30.6861C47.6758 30.8947 47.7027 31.1216 47.6705 31.344L46.019 42.7431C45.9868 42.9654 45.8966 43.1753 45.7575 43.3518C45.6185 43.5282 45.4354 43.6649 45.2268 43.7482L34.5294 48.0175C34.3207 48.1008 34.0938 48.1277 33.8715 48.0955C33.6492 48.0633 33.4392 47.9731 33.2628 47.834L31.0007 46.0515C30.8674 45.9479 30.756 45.819 30.6728 45.6721C30.5896 45.5253 30.5362 45.3634 30.5158 45.1959C30.4954 45.0284 30.5083 44.8584 30.5539 44.6959C30.5994 44.5334 30.6766 44.3815 30.7811 44.2489C30.8856 44.1164 31.0152 44.0058 31.1626 43.9236C31.31 43.8413 31.4722 43.789 31.6399 43.7697C31.8076 43.7504 31.9774 43.7645 32.1396 43.8111C32.3018 43.8577 32.4532 43.9359 32.5851 44.0413L34.2669 45.3661L43.5917 41.6453L45.0315 31.7078L37.1461 25.4935L27.8213 29.2143L26.375 39.1974L28.1705 40.7818L28.196 40.7842C28.4467 40.7946 28.7639 40.7915 29.0679 40.7463C29.3878 40.6982 29.601 40.6192 29.7157 40.5414C29.7902 40.4914 29.8042 40.4663 29.8145 40.3954L31.1907 30.8961C31.2394 30.5602 31.4195 30.2573 31.6915 30.0542C31.9634 29.8511 32.3049 29.7643 32.6408 29.813C32.9767 29.8617 33.2796 30.0418 33.4827 30.3137C33.6858 30.5857 33.7726 30.9272 33.7239 31.2631L32.3476 40.7624C32.2201 41.6426 31.7347 42.2706 31.1377 42.6691C30.5821 43.0412 29.9523 43.2021 29.4461 43.2774C28.8499 43.3626 28.2454 43.3732 27.6466 43.309C27.6033 43.3045 27.56 43.2995 27.5168 43.2941L27.4776 43.2884L27.4647 43.2878L27.4559 43.2865C27.2098 43.2508 26.9794 43.1442 26.793 42.9797L24.1627 40.6589C24.0032 40.5182 23.8812 40.3401 23.8079 40.1405C23.7345 39.9409 23.7121 39.7261 23.7425 39.5156L25.3941 28.1165C25.4263 27.8942 25.5164 27.6843 25.6555 27.5078C25.7946 27.3314 25.9776 27.1947 26.1863 27.1114L36.8837 22.8421ZM36.1175 31.3435C36.9734 30.8183 38.1339 30.6089 39.607 30.8223C41.08 31.0357 42.1347 31.5661 42.805 32.3124C43.4687 33.0512 43.6832 33.9267 43.5812 34.631C43.5325 34.9669 43.3524 35.2697 43.0805 35.4728C42.8085 35.6759 42.4671 35.7627 42.1311 35.714C41.7952 35.6654 41.4924 35.4852 41.2893 35.2133C41.0862 34.9414 40.9994 34.5999 41.0481 34.264L41.0451 34.2842C41.0439 34.284 41.0399 34.1774 40.9018 34.0242C40.7381 33.8414 40.3001 33.509 39.24 33.3554C38.1798 33.2018 37.6667 33.3965 37.4569 33.5238C37.2891 33.6288 37.2503 33.7267 37.2454 33.7337C37.1995 34.0504 37.2125 34.0859 37.217 34.0994C37.2166 34.102 37.2285 34.136 37.2879 34.208C37.3544 34.2849 37.4779 34.4049 37.7033 34.563C38.1593 34.8787 38.642 35.0818 39.267 35.3379L39.306 35.3539C39.8958 35.5945 40.6159 35.8902 41.3195 36.3801C41.7952 36.7029 42.1851 37.1368 42.4554 37.6442C42.7257 38.1516 42.8684 38.7172 42.871 39.2921C42.8718 39.4087 42.8662 39.5253 42.854 39.6413L42.8494 39.673L42.8488 39.6858L42.8474 39.696C42.7454 40.4002 42.291 41.1801 41.4449 41.7002C40.589 42.2254 39.4285 42.4348 37.9554 42.2214C36.4824 42.008 35.429 41.4778 34.7574 40.7313C34.0937 39.9925 33.8792 39.1169 33.9812 38.4127C34.0299 38.0768 34.21 37.774 34.4819 37.5709C34.7539 37.3678 35.0954 37.281 35.4313 37.3297C35.7672 37.3783 36.07 37.5584 36.2731 37.8304C36.4762 38.1023 36.563 38.4438 36.5143 38.7797L36.5173 38.7595C36.5185 38.7596 36.5238 38.8664 36.6606 39.0195C36.8243 39.2022 37.2623 39.5347 38.3224 39.6883C39.3826 39.8419 39.897 39.6474 40.1055 39.5199C40.1906 39.4735 40.2617 39.4052 40.3114 39.3221L40.3112 39.3143C40.3123 39.1485 40.2714 38.9851 40.1923 38.8394C40.1133 38.6936 39.9987 38.5702 39.8591 38.4807C39.4031 38.165 38.9204 37.9619 38.2967 37.706L38.2564 37.6898C37.6679 37.4494 36.9465 37.1535 36.2429 36.6636C35.5226 36.1635 35.0173 35.5989 34.7881 34.9049C34.5784 34.2732 34.6637 33.6933 34.7086 33.392L34.7152 33.3464C34.8172 32.6422 35.2716 31.8623 36.1175 31.3435Z" fill="#0075F2"/>
</svg>
