<svg width="72" height="72" viewBox="0 0 72 72" fill="none" xmlns="http://www.w3.org/2000/svg">
<ellipse cx="35.6262" cy="36.3575" rx="30.6667" ry="30.6667" transform="rotate(9.70072 35.6262 36.3575)" fill="#0075F2"/>
<ellipse cx="35.6266" cy="36.3572" rx="23" ry="23" transform="rotate(9.70072 35.6266 36.3572)" fill="white"/>
<g clip-path="url(#clip0_7099_9007)">
<path d="M49.3921 30.5294C48.5831 28.6184 46.3329 27.4973 43.0658 27.3616C42.9506 27.3554 42.8276 27.3549 42.7123 27.3487C42.684 27.235 42.6557 27.1209 42.6205 27.006C41.742 23.8624 40.1352 21.9378 38.0882 21.5879C36.0412 21.2379 33.8797 22.5185 32.0133 25.1928C31.9487 25.2906 31.8774 25.3877 31.8128 25.4855C31.6965 25.4454 31.5859 25.4126 31.4752 25.3801C28.3432 24.4152 25.8537 24.7329 24.4559 26.2667C23.0583 27.8006 22.9793 30.3029 24.2297 33.3121C24.3979 33.7173 24.5833 34.1153 24.7852 34.5049C24.4582 34.8171 24.1523 35.1262 23.8651 35.4452C21.686 37.8682 20.9282 40.2614 21.738 42.166C22.3951 43.7237 24.0109 44.7568 26.3567 45.1578C26.9195 45.2509 27.4875 45.3093 28.0575 45.3324C28.1727 45.3386 28.2957 45.3391 28.411 45.3452C28.4396 45.4593 28.4679 45.5731 28.503 45.6883C29.3816 48.8316 30.9884 50.7565 33.0351 51.1064C35.0821 51.4563 37.2439 50.1756 39.1099 47.5015C39.1746 47.4033 39.2458 47.3065 39.3105 47.2085C39.4267 47.2488 39.5374 47.2814 39.6484 47.3139C40.1927 47.4844 40.748 47.6181 41.3103 47.7141C43.6564 48.1152 45.5234 47.6774 46.6607 46.4264C48.0584 44.8926 48.1373 42.3899 46.8871 39.3807C46.7188 38.9757 46.5334 38.5778 46.3316 38.1882C46.6586 37.8757 46.9645 37.5669 47.2518 37.2476C49.4517 34.8216 50.2087 32.4348 49.3921 30.5294ZM33.1202 25.9615C34.6509 23.7686 36.3796 22.6594 37.8616 22.9128C39.3437 23.1661 40.6058 24.7866 41.3212 27.3635C41.3212 27.3686 41.3227 27.3736 41.3257 27.3778C39.8562 27.475 38.399 27.7074 36.9728 28.0721C35.7504 27.2516 34.453 26.5481 33.0978 25.9713C33.1111 25.9736 33.1123 25.9668 33.1201 25.9615L33.1202 25.9615ZM41.5532 37.3714C41.3723 38.4314 41.1336 39.4809 40.8378 40.5149C39.8956 41.0396 38.9244 41.511 37.9288 41.9267C36.7788 42.4131 35.598 42.824 34.3941 43.1568C33.3719 42.4393 32.395 41.6597 31.4689 40.8224C30.6693 40.0982 29.9099 39.3311 29.194 38.5244C29.3241 36.3758 29.6878 34.2478 30.2789 32.178C32.3156 31.0493 34.4782 30.1627 36.7225 29.5363C37.7448 30.2537 38.7218 31.0332 39.648 31.8704C40.4476 32.5946 41.207 33.3618 41.9228 34.1684C41.8582 35.242 41.7348 36.3113 41.5533 37.3714L41.5532 37.3714ZM43.152 35.6604C43.6996 36.3759 44.2022 37.1245 44.6568 37.9019C43.9697 38.484 43.247 39.023 42.493 39.5159C42.6416 38.887 42.7714 38.2479 42.8824 37.5986C42.9934 36.9493 43.0833 36.3034 43.152 35.6604ZM40.2436 42.3499C39.8377 43.4611 39.3404 44.5368 38.7567 45.5661C37.7643 45.1573 36.8042 44.6741 35.8849 44.1206C36.7562 43.8382 37.6159 43.5212 38.4617 43.1703C39.0669 42.9123 39.6609 42.6389 40.2436 42.3499ZM32.6813 43.573C31.6312 43.7949 30.5647 43.9318 29.4923 43.9824C29.2837 42.8176 29.172 41.6378 29.1582 40.4549C29.6054 40.9199 30.0748 41.3752 30.5676 41.8139C31.2602 42.4437 31.9675 43.0282 32.6813 43.573ZM27.978 37.0347C27.4306 36.3192 26.928 35.5707 26.4731 34.7935C27.1603 34.2113 27.883 33.6722 28.6371 33.1792C28.4884 33.8084 28.3586 34.4475 28.2476 35.0968C28.1366 35.7461 28.0467 36.392 27.978 37.0347ZM30.8864 30.3455C31.2922 29.2343 31.7896 28.1586 32.3733 27.1293C33.3659 27.5379 34.326 28.0211 35.2452 28.5748C34.3738 28.8572 33.5142 29.1742 32.6683 29.5251C32.0666 29.7815 31.4723 30.0551 30.8864 30.3455ZM40.5572 30.8737C39.8699 30.2518 39.1637 29.6605 38.442 29.1213C39.4922 28.8994 40.5587 28.7625 41.6312 28.7119C41.8397 29.8767 41.9514 31.0565 41.9654 32.2394C41.5182 31.7743 41.0488 31.3191 40.5572 30.8737ZM25.4742 32.7954C24.4456 30.3285 24.4409 28.2755 25.4513 27.1664C26.2593 26.2818 27.7335 25.9814 29.6009 26.3006C30.1005 26.3882 30.5943 26.5069 31.0793 26.6556L31.0925 26.6578C30.2885 28.1241 29.6392 29.6698 29.1551 31.2699C27.9854 31.9465 26.8724 32.7163 25.827 33.5716C25.6994 33.3181 25.5796 33.059 25.4742 32.7954ZM28.1091 43.9915C27.6022 43.9709 27.0971 43.9187 26.5967 43.8353C24.729 43.516 23.4373 42.7497 22.9704 41.6402C22.3858 40.2584 23.0722 38.3236 24.8616 36.3384C25.0474 36.1315 25.2478 35.9202 25.4536 35.7167C26.1552 36.8708 26.9492 37.9666 27.8279 38.9932C27.7531 40.6634 27.8522 42.3369 28.1234 43.987C28.1223 43.9938 28.1156 43.9926 28.1091 43.9915ZM38.0099 46.7339C36.4791 48.9268 34.7505 50.036 33.2683 49.7826C31.7862 49.5293 30.5242 47.9088 29.8088 45.332C29.8089 45.3268 29.8073 45.3218 29.8043 45.3176C31.2739 45.2205 32.7311 44.988 34.1573 44.623C35.3796 45.4438 36.677 46.1473 38.0322 46.7241C38.0189 46.7218 38.0178 46.7283 38.0099 46.7339ZM45.6558 39.9001C46.6845 42.3666 46.6891 44.4199 45.6787 45.529C44.6683 46.6379 42.6182 46.8263 40.0584 46.0342L40.0452 46.0319C40.8492 44.5657 41.4986 43.0201 41.9828 41.4199C43.1526 40.7433 44.2655 39.9736 45.3107 39.1182C45.4307 39.3773 45.5505 39.6365 45.6559 39.9001L45.6558 39.9001ZM43.2965 33.6943C43.3715 32.0242 43.2726 30.3506 43.0012 28.7005L43.0145 28.7028C45.6907 28.8124 47.563 29.6644 48.1476 31.0462C48.7322 32.428 48.0458 34.3628 46.2563 36.348C46.0706 36.5549 45.8701 36.7662 45.6643 36.9697C44.967 35.8147 44.175 34.7192 43.2965 33.6943Z" fill="#0075F2"/>
<path d="M36.0381 33.6521C34.5846 33.4037 33.2055 34.3768 32.9578 35.8256C32.7101 37.2745 33.6877 38.6503 35.1413 38.8987C36.5949 39.1472 37.974 38.1744 38.2216 36.7255C38.4682 35.2767 37.491 33.9016 36.0381 33.6521ZM35.3677 37.5738C34.6484 37.4508 34.1644 36.7699 34.287 36.0529C34.4096 35.3358 35.0923 34.854 35.8117 34.977C36.531 35.1 37.015 35.7812 36.8924 36.4983C36.7686 37.2146 36.0868 37.6957 35.3677 37.5738Z" fill="#0075F2"/>
</g>
<defs>
<clipPath id="clip0_7099_9007">
<rect width="30.6667" height="30.6667" fill="white" transform="translate(23.0957 18.6602) rotate(9.70072)"/>
</clipPath>
</defs>
</svg>
