<svg width="71" height="71" viewBox="0 0 71 71" fill="none" xmlns="http://www.w3.org/2000/svg">
<circle cx="35.5356" cy="35.6446" r="30.7151" transform="rotate(8.24374 35.5356 35.6446)" fill="#0075F2"/>
<circle cx="35.5353" cy="35.6443" r="23.0363" transform="rotate(8.24374 35.5353 35.6443)" fill="white"/>
<g clip-path="url(#clip0_7099_9141)">
<path d="M40.7308 41.1099C41.8691 41.1583 42.8578 40.3309 42.9845 39.1843C43.1111 38.0378 42.2763 36.9849 41.1158 36.8168L41.0384 36.8056C39.8338 36.6699 38.7621 37.5242 38.63 38.7088C38.586 39.2848 38.7465 39.8129 39.045 40.2056C37.3607 42.5631 35.0792 44.1352 31.8361 45.2573C29.6316 46.0252 27.449 46.0973 25.36 45.5228C23.6524 45.0424 22.4087 44.0856 21.7395 42.7073C20.7717 40.6644 20.9476 38.632 22.2841 36.7677C23.2284 35.429 24.5432 34.5322 25.3553 34.1063C25.2722 33.5894 25.1613 32.7191 25.1334 32.0938C18.9459 35.2745 18.7438 40.7589 20.0766 43.5536C21.0776 45.6401 23.4985 47.1946 26.361 47.6093C27.1347 47.7214 27.9194 47.7574 28.7205 47.6793C33.8096 47.4459 37.9806 45.0992 40.7308 41.1099ZM48.2221 37.3804C45.7726 33.5697 41.7102 31.0785 36.7588 30.3611L36.1399 30.2715C35.891 29.5365 35.2221 28.9736 34.4098 28.8559L34.3324 28.8447C33.1278 28.709 32.0561 29.5633 31.924 30.7479C31.7974 31.8944 32.6322 32.9473 33.7927 33.1154L33.87 33.1266C34.7266 33.2119 35.5387 32.7859 35.9528 32.1082L36.6491 32.2091C39.589 32.635 42.2529 33.8752 44.5303 35.8748C46.2826 37.41 47.4382 39.2471 47.9253 41.3368C48.3515 43.0294 48.0869 44.5831 47.1978 45.8133C45.8227 47.672 43.8448 48.5115 41.4465 48.1641C39.8992 47.9399 38.4954 47.2705 37.7713 46.8162C37.2907 47.1348 36.4289 47.6313 35.8323 47.9331C37.3854 48.9347 39.0268 49.5996 40.6515 49.835C44.365 50.3731 47.4035 48.7553 48.7399 46.891C50.1813 44.8477 50.6549 41.0334 48.2221 37.3804ZM27.7945 39.8958C27.6679 41.0423 28.5027 42.0952 29.6632 42.2633L29.7406 42.2745C30.9452 42.4102 32.0169 41.5559 32.149 40.3713C32.2756 39.2248 31.4408 38.172 30.2803 38.0038L30.203 37.9926C30.1256 37.9814 30.0096 37.9646 29.9267 37.9914C28.7154 35.1755 28.4655 32.2659 29.1384 29.2571C29.6237 26.9976 30.6839 25.1321 32.2747 23.6929C33.6004 22.4483 35.8658 22.0776 37.3412 22.2525C41.4526 22.7705 42.466 28.0428 42.29 30.0753C42.7763 30.2622 43.5888 30.6517 44.1414 30.926C44.5699 24.6977 41.1645 20.9426 37.451 20.4046C33.9696 19.9002 30.4008 21.9071 28.5953 25.3731C26.1106 29.9833 26.5934 34.8292 28.2251 38.8321C27.9931 39.0703 27.8165 39.4718 27.7945 39.8958Z" fill="#0075F2"/>
</g>
<defs>
<clipPath id="clip0_7099_9141">
<rect width="30.7151" height="30.7151" fill="white" transform="translate(22.5391 18.2441) rotate(8.24374)"/>
</clipPath>
</defs>
</svg>
