<svg width="71" height="71" viewBox="0 0 71 71" fill="none" xmlns="http://www.w3.org/2000/svg">
<circle cx="35.2593" cy="35.5723" r="30.7151" transform="rotate(8.24374 35.2593 35.5723)" fill="#0075F2"/>
<circle cx="35.2589" cy="35.572" r="23.0363" transform="rotate(8.24374 35.2589 35.572)" fill="white"/>
<g clip-path="url(#clip0_7099_9146)">
<path d="M28.9634 37.2482C30.4854 37.4687 31.8835 36.5133 32.0862 35.1143C32.2889 33.7153 31.2194 32.4024 29.6974 32.1819C28.1754 31.9614 26.7772 32.9167 26.5745 34.3157C26.3718 35.7148 27.4414 37.0276 28.9634 37.2482ZM21.7155 41.3707C23.2376 41.5912 24.6357 40.6359 24.8384 39.2368C25.0411 37.8378 23.9716 36.5249 22.4496 36.3044C20.9276 36.0839 19.5294 37.0393 19.3267 38.4383C19.124 39.8373 20.1935 41.1502 21.7155 41.3707ZM46.6016 44.9762C48.1236 45.1968 49.5217 44.2414 49.7244 42.8424C49.9271 41.4434 48.8576 40.1305 47.3356 39.91C45.8136 39.6894 44.4155 40.6448 44.2128 42.0438C44.0101 43.4428 45.0796 44.7557 46.6016 44.9762Z" fill="#075FDB"/>
<path d="M38.4632 36.111C38.5064 35.2298 38.5691 34.5002 37.9807 33.8959C37.2355 33.1305 36.2252 33.4107 35.1168 32.8165C34.0077 32.3702 33.3037 31.2202 33.481 29.9966C33.6894 28.5579 35.0374 27.5624 36.4918 27.7731C37.5689 27.9292 38.4023 28.7031 38.6775 29.6786C39.129 30.9617 38.5474 32.1167 39.2432 32.8417C40.0672 33.7002 41.3962 33.3515 42.694 34.2398C43.1129 34.5124 43.4453 34.8965 43.654 35.3431C43.8626 35.7898 43.9477 36.299 43.872 36.8215C43.6947 38.0451 42.6933 38.948 41.5032 39.0612C40.2717 39.3164 39.3824 38.7609 38.4507 39.2834C37.4029 39.8709 37.7321 41.1554 36.7783 42.3237C36.22 43.1032 35.2499 43.5515 34.2272 43.4033C32.7729 43.1926 31.7629 41.8555 31.9713 40.4167C32.1227 39.3716 32.8755 38.5604 33.8335 38.2755C35.3301 37.7921 36.5055 38.5036 37.5392 37.9143C38.1355 37.5743 38.3421 36.9465 38.4632 36.111Z" fill="#0075F2"/>
</g>
<defs>
<clipPath id="clip0_7099_9146">
<rect width="30.7151" height="30.7151" fill="white" transform="translate(22.2627 18.1719) rotate(8.24374)"/>
</clipPath>
</defs>
</svg>
