<svg width="140" height="140" viewBox="0 0 140 140" fill="none" xmlns="http://www.w3.org/2000/svg">
<g filter="url(#filter0_dd_7099_5163)">
<rect x="30" y="30" width="80" height="80" rx="20" fill="white"/>
</g>
<path fill-rule="evenodd" clip-rule="evenodd" d="M88.9928 53.1162L66.541 75.568C66.2581 75.8509 65.8724 76.0052 65.4866 76.0052C65.1008 76.0052 64.715 75.8509 64.4321 75.568C63.8663 74.9765 63.8663 74.0507 64.4321 73.4849L86.8839 51.0331H76.8025C75.9795 51.0331 75.3108 50.3644 75.3108 49.5414C75.3108 48.7185 75.9795 48.0498 76.8025 48.0498H90.5102C90.5616 48.0498 90.5873 48.0755 90.613 48.0755H90.7416L90.7931 48.1012H90.8702L90.9216 48.127L90.9731 48.1527H90.9988L91.0245 48.1784H91.0502L91.1017 48.2041H91.1274L91.1531 48.2298L91.1788 48.2555H91.2045L91.256 48.2813L91.2817 48.307H91.3074L91.3331 48.3327L91.3588 48.3584L91.3846 48.3841L91.4103 48.4099L91.436 48.4356H91.4617L91.4874 48.4613L91.5132 48.487L91.5389 48.5127L91.5646 48.5384L91.5903 48.5899L91.616 48.6156L91.6417 48.6413H91.6675L91.6932 48.6928L91.7189 48.7185V48.7442L91.7446 48.7699L91.7703 48.8213V48.8471L91.7961 48.8985L91.8218 48.9242V48.9757H91.8475V49.0271L91.8732 49.0528V49.0785C91.8989 49.1557 91.8989 49.1042 91.8989 49.2071L91.9246 49.2328V49.2843C91.9504 49.3357 91.9246 49.31 91.9504 49.3614V63.2234C91.9504 64.0207 91.2817 64.6893 90.4587 64.6893C89.6615 64.6893 88.9928 64.0464 88.9928 63.2234V53.1162ZM51.0331 57.3854V77.6512H60.8831C61.706 77.6512 62.349 78.3198 62.349 79.1171V88.9928H82.6405V63.2234C82.6405 62.4004 83.3091 61.7318 84.1064 61.7318C84.9294 61.7318 85.598 62.4004 85.598 63.2234V90.4587C85.598 91.2817 84.9294 91.9504 84.1064 91.9504H49.5414C48.7185 91.9504 48.0498 91.2817 48.0498 90.4587V55.8938C48.0498 55.0708 48.7185 54.4021 49.5414 54.4021H76.8025C77.5997 54.4021 78.2684 55.0708 78.2684 55.8938C78.2684 56.7168 77.5997 57.3854 76.8025 57.3854H51.0331Z" fill="#0075F2"/>
<defs>
<filter id="filter0_dd_7099_5163" x="0" y="0" width="140" height="140" filterUnits="userSpaceOnUse" color-interpolation-filters="sRGB">
<feFlood flood-opacity="0" result="BackgroundImageFix"/>
<feColorMatrix in="SourceAlpha" type="matrix" values="0 0 0 0 0 0 0 0 0 0 0 0 0 0 0 0 0 0 127 0" result="hardAlpha"/>
<feOffset dy="2"/>
<feGaussianBlur stdDeviation="5"/>
<feComposite in2="hardAlpha" operator="out"/>
<feColorMatrix type="matrix" values="0 0 0 0 0 0 0 0 0 0.458824 0 0 0 0 0.94902 0 0 0 0.1 0"/>
<feBlend mode="normal" in2="BackgroundImageFix" result="effect1_dropShadow_7099_5163"/>
<feColorMatrix in="SourceAlpha" type="matrix" values="0 0 0 0 0 0 0 0 0 0 0 0 0 0 0 0 0 0 127 0" result="hardAlpha"/>
<feOffset/>
<feGaussianBlur stdDeviation="15"/>
<feComposite in2="hardAlpha" operator="out"/>
<feColorMatrix type="matrix" values="0 0 0 0 0 0 0 0 0 0.458824 0 0 0 0 0.94902 0 0 0 0.1 0"/>
<feBlend mode="normal" in2="effect1_dropShadow_7099_5163" result="effect2_dropShadow_7099_5163"/>
<feBlend mode="normal" in="SourceGraphic" in2="effect2_dropShadow_7099_5163" result="shape"/>
</filter>
</defs>
</svg>
