<svg width="140" height="140" viewBox="0 0 140 140" fill="none" xmlns="http://www.w3.org/2000/svg">
<g filter="url(#filter0_dd_7099_5174)">
<rect x="30" y="30" width="80" height="80" rx="20" fill="white"/>
</g>
<path d="M77.6424 70.0522C77.5914 72.3472 74.19 74.2006 70.0002 74.2006C65.8104 74.2006 62.409 72.3472 62.3586 70.0522C55.9476 70.6378 50.9268 76.027 50.9268 82.5886C50.9268 88.5454 55.0644 89.386 60.621 89.5048V88.6216C60.6199 88.1273 60.762 87.6432 61.0303 87.2279C61.2985 86.8126 61.6813 86.484 62.1324 86.2816C61.955 85.8187 61.9168 85.3139 62.0225 84.8295C62.1283 84.3451 62.3733 83.9022 62.7276 83.5552L64.0092 82.2814C64.4956 81.801 65.1519 81.5319 65.8356 81.5326C66.1464 81.5326 66.4518 81.5884 66.7386 81.694C66.9425 81.2411 67.2735 80.8571 67.6914 80.5886C68.1094 80.3201 68.5962 80.1786 69.093 80.1814H70.9062C71.4021 80.1798 71.8879 80.3215 72.3053 80.5894C72.7226 80.8573 73.0537 81.2401 73.2588 81.6916C73.5498 81.5835 73.8579 81.5283 74.1684 81.5284C74.8632 81.5284 75.5112 81.7978 75.99 82.2784L77.2746 83.5558C77.6258 83.9035 77.8686 84.3457 77.9736 84.8287C78.0785 85.3117 78.0409 85.8148 77.8656 86.2768C78.3182 86.4788 78.7024 86.8081 78.9713 87.2245C79.2401 87.6409 79.3821 88.1266 79.38 88.6222V89.5054C84.9366 89.3866 89.0736 88.546 89.0736 82.5892C89.0736 76.027 84.054 70.6378 77.6424 70.0522Z" fill="#0075F2"/>
<path d="M59.4189 61.3354C59.6937 61.4092 59.9835 61.4506 60.2841 61.4506H60.8775L60.8853 61.45C62.1297 67.0666 65.7393 71.1292 69.9999 71.1292C73.8243 71.1292 77.1177 67.8478 78.6537 63.1132C79.3767 62.6008 79.9743 62.0146 80.4141 61.3696C80.4507 61.3624 80.4867 61.3582 80.5209 61.3504C81.8775 61.015 82.8801 59.8594 82.8801 58.4782V56.1466C82.8801 54.7672 81.8775 53.6098 80.5209 53.2756V52.9138C80.5209 47.4472 75.7869 43 69.9693 43C64.1517 43 59.4189 47.4472 59.4189 52.9132V53.2888C58.0947 53.6428 57.1221 54.787 57.1221 56.146V58.4776C57.1221 59.8378 58.0947 60.9814 59.4189 61.3354ZM69.9693 45.0694C74.2047 45.0694 77.7051 48.0496 78.2403 51.8932C76.5525 48.958 73.4979 46.9918 70.0005 46.9918C66.4467 46.9918 63.3471 49.021 61.6767 52.036C62.1435 48.1228 65.6823 45.0694 69.9693 45.0694ZM63.0009 59.6482C63.0009 59.647 62.0487 53.9974 64.0587 53.2042C64.0587 53.2042 66.8313 54.5506 70.0005 54.6376C73.1709 54.5506 75.9435 53.2042 75.9435 53.2042C77.9529 53.9974 76.9995 59.647 76.9995 59.6482C77.4951 59.3026 77.9475 59.122 78.3189 59.0272V59.1628C78.2579 59.7776 78.1628 60.3886 78.0339 60.9928C76.7223 62.1802 74.4669 63.0352 71.8791 63.1936C71.6329 62.9815 71.319 62.8645 70.9941 62.8636H69.1635C68.803 62.8711 68.4598 63.0196 68.2076 63.2772C67.9553 63.5348 67.814 63.881 67.814 64.2415C67.814 64.602 67.9553 64.9482 68.2076 65.2058C68.4598 65.4634 68.803 65.6119 69.1635 65.6194H70.9941C71.3649 65.6194 71.7015 65.4712 71.9487 65.2318C73.8657 65.125 75.6147 64.6948 77.0673 64.0252C75.5703 67.4116 72.9663 69.6562 69.9999 69.6562C65.7381 69.6562 62.2155 65.0266 61.6629 59.0218C62.0379 59.1154 62.4987 59.2978 63.0009 59.6482ZM76.8879 87.928L75.7569 87.7396C75.6489 87.3916 75.5067 87.0532 75.3381 86.7316L75.9945 85.8148C76.1051 85.681 76.1616 85.5107 76.1528 85.3373C76.1441 85.1639 76.0706 85.0001 75.9471 84.8782L74.6637 83.6014C74.5989 83.536 74.5216 83.4843 74.4365 83.4492C74.3514 83.4142 74.2601 83.3966 74.1681 83.3974C74.0121 83.3959 73.8603 83.4478 73.7379 83.5444L72.8037 84.208C72.4801 84.0377 72.1414 83.8977 71.7921 83.7898L71.6061 82.6792C71.5879 82.5062 71.5062 82.3461 71.3767 82.2299C71.2472 82.1137 71.0792 82.0497 70.9053 82.0504H69.0921C68.7309 82.0504 68.4303 82.3216 68.3967 82.663L68.2089 83.7898C67.8589 83.8977 67.5197 84.0377 67.1955 84.208L66.2757 83.5522C66.1504 83.453 65.995 83.3997 65.8353 83.401C65.6523 83.401 65.4699 83.4682 65.3367 83.6008L64.0539 84.8776C63.9311 84.9969 63.8571 85.1575 63.8464 85.3284C63.8356 85.4992 63.8888 85.6679 63.9957 85.8016L64.6629 86.731C64.4925 87.0534 64.3523 87.3908 64.2441 87.739L63.1287 87.9256C62.7687 87.9622 62.4969 88.261 62.4969 88.6222V90.4288C62.4969 90.7912 62.7687 91.0894 63.1119 91.1224L64.2441 91.3108C64.3509 91.6564 64.4937 91.9954 64.6629 92.3188L64.0071 93.235C63.8958 93.3685 63.8389 93.539 63.8474 93.7126C63.856 93.8862 63.9295 94.0502 64.0533 94.1722L65.3355 95.4496C65.4681 95.581 65.6445 95.6554 65.8317 95.6554C65.9943 95.6554 66.1503 95.5978 66.2619 95.5066L67.1955 94.843C67.5197 95.0132 67.859 95.1531 68.2089 95.2612L68.3943 96.3718C68.4121 96.5444 68.4935 96.7043 68.6225 96.8204C68.7515 96.9365 68.9191 97.0005 69.0927 97H70.9059C71.2689 97 71.5689 96.7294 71.6025 96.3874L71.7921 95.2606C72.1401 95.152 72.4803 95.0122 72.8037 94.8424L73.7235 95.4958C73.8489 95.5978 74.0073 95.6488 74.1657 95.6488C74.3487 95.6488 74.5311 95.581 74.6631 95.4484L75.9459 94.1716C76.2021 93.9166 76.2237 93.514 76.0047 93.2482L75.3381 92.3188C75.5083 91.9957 75.6485 91.6577 75.7569 91.309L76.8693 91.1218C77.0428 91.1069 77.2044 91.0273 77.322 90.8988C77.4396 90.7704 77.5046 90.6024 77.5041 90.4282V88.6216C77.5053 88.4503 77.443 88.2846 77.3292 88.1565C77.2154 88.0284 77.0582 87.947 76.8879 87.928ZM69.9999 92.5144C68.3451 92.5144 66.9981 91.174 66.9981 89.5252C66.9981 87.8764 68.3451 86.5354 69.9999 86.5354C71.6553 86.5354 73.0023 87.8764 73.0023 89.5252C73.0023 91.174 71.6553 92.5144 69.9999 92.5144Z" fill="#0075F2"/>
<defs>
<filter id="filter0_dd_7099_5174" x="0" y="0" width="140" height="140" filterUnits="userSpaceOnUse" color-interpolation-filters="sRGB">
<feFlood flood-opacity="0" result="BackgroundImageFix"/>
<feColorMatrix in="SourceAlpha" type="matrix" values="0 0 0 0 0 0 0 0 0 0 0 0 0 0 0 0 0 0 127 0" result="hardAlpha"/>
<feOffset dy="2"/>
<feGaussianBlur stdDeviation="5"/>
<feComposite in2="hardAlpha" operator="out"/>
<feColorMatrix type="matrix" values="0 0 0 0 0 0 0 0 0 0.458824 0 0 0 0 0.94902 0 0 0 0.1 0"/>
<feBlend mode="normal" in2="BackgroundImageFix" result="effect1_dropShadow_7099_5174"/>
<feColorMatrix in="SourceAlpha" type="matrix" values="0 0 0 0 0 0 0 0 0 0 0 0 0 0 0 0 0 0 127 0" result="hardAlpha"/>
<feOffset/>
<feGaussianBlur stdDeviation="15"/>
<feComposite in2="hardAlpha" operator="out"/>
<feColorMatrix type="matrix" values="0 0 0 0 0 0 0 0 0 0.458824 0 0 0 0 0.94902 0 0 0 0.1 0"/>
<feBlend mode="normal" in2="effect1_dropShadow_7099_5174" result="effect2_dropShadow_7099_5174"/>
<feBlend mode="normal" in="SourceGraphic" in2="effect2_dropShadow_7099_5174" result="shape"/>
</filter>
</defs>
</svg>
