<svg width="76" height="77" viewBox="0 0 76 77" fill="none" xmlns="http://www.w3.org/2000/svg">
<circle cx="37.6534" cy="38.5276" r="30.6667" transform="rotate(15 37.6534 38.5276)" fill="#0075F2"/>
<circle cx="37.6531" cy="38.5275" r="23" transform="rotate(15 37.6531 38.5275)" fill="white"/>
<g clip-path="url(#clip0_7099_9048)">
<path d="M50.9597 30.4525L36.8066 26.6602L34.8579 33.9331L42.0648 35.8642C42.3215 35.933 42.4745 36.195 42.4064 36.4493L40.5204 43.4882L47.4665 45.3494L51.3011 31.0385C51.3341 30.9162 51.3167 30.7858 51.2526 30.6758C51.1886 30.5659 51.0832 30.4856 50.9597 30.4525Z" fill="#0075F2"/>
<path opacity="0.405" d="M36.8094 26.6612L34.8608 33.9337L27.9809 32.0902C27.8886 32.0653 27.8207 31.9864 27.8089 31.8905C27.7971 31.7946 27.8438 31.7006 27.9271 31.6526L36.8094 26.6612ZM39.0625 50.4763C38.9797 50.5238 38.877 50.5167 38.8021 50.4582C38.7271 50.3997 38.6944 50.3012 38.7191 50.2083L40.52 43.4873L47.4668 45.3487L39.0627 50.4754L39.0625 50.4763Z" fill="#3999FF"/>
<path opacity="0.405" d="M34.8574 33.9326L42.2981 35.9263C42.4257 35.9605 42.5027 36.0913 42.4686 36.2184L40.5208 43.4879L33.3139 41.5569C33.057 41.488 32.9041 41.226 32.9722 40.9717L34.8583 33.9328L34.8574 33.9326Z" fill="#3999FF"/>
</g>
<defs>
<clipPath id="clip0_7099_9048">
<rect width="30.6667" height="30.6667" fill="white" transform="translate(26.8105 19.748) rotate(15)"/>
</clipPath>
</defs>
</svg>
