<svg width="80" height="80" viewBox="0 0 80 80" fill="none" xmlns="http://www.w3.org/2000/svg">
<rect width="80" height="80" rx="10" fill="white"/>
<path d="M40.0002 46.1937C43.4152 46.1937 46.1937 43.4152 46.1937 40.0002C46.1937 36.5852 43.4152 33.8066 40.0002 33.8066C36.5852 33.8066 33.8066 36.5852 33.8066 40.0002C33.8066 43.4152 36.5852 46.1937 40.0002 46.1937ZM40.0002 35.355C42.562 35.355 44.6453 37.4384 44.6453 40.0002C44.6453 42.562 42.562 44.6453 40.0002 44.6453C37.4384 44.6453 35.355 42.562 35.355 40.0002C35.355 37.4384 37.4384 35.355 40.0002 35.355Z" fill="black"/>
<path d="M40.0001 43.0969C41.708 43.0969 43.0969 41.708 43.0969 40.0001C43.0969 38.2922 41.708 36.9033 40.0001 36.9033C38.2922 36.9033 36.9033 38.2922 36.9033 40.0001C36.9033 41.708 38.2922 43.0969 40.0001 43.0969ZM40.0001 38.4517C40.854 38.4517 41.5485 39.1462 41.5485 40.0001C41.5485 40.854 40.854 41.5485 40.0001 41.5485C39.1462 41.5485 38.4517 40.854 38.4517 40.0001C38.4517 39.1462 39.1462 38.4517 40.0001 38.4517Z" fill="black"/>
<path d="M34.9135 49.1463L36.2668 48.4991C36.3876 48.5525 36.5092 48.6036 36.6315 48.6508L37.1293 50.0645H42.8699L43.3693 48.6508C43.4908 48.6028 43.6124 48.5525 43.7339 48.4991L45.0872 49.1463L49.1471 45.0865L48.4999 43.7332C48.5533 43.6124 48.6044 43.4908 48.6516 43.3685L50.0645 42.8707V37.1301L48.6508 36.6307C48.6026 36.5082 48.552 36.3866 48.4991 36.2661L49.1463 34.9128L45.0865 30.8529L43.7332 31.5001C43.6128 31.4466 43.4913 31.396 43.3685 31.3484L42.8707 29.9355H37.1301L36.6307 31.3492C36.5092 31.3972 36.3876 31.4475 36.2661 31.5009L34.9128 30.8537L30.8529 34.9135L31.5001 36.2668C31.4466 36.3872 31.396 36.5087 31.3484 36.6315L29.9355 37.1293V42.8699L31.3492 43.3693C31.3972 43.4908 31.4475 43.6124 31.5009 43.7339L30.8537 45.0872L34.9135 49.1463ZM31.4839 41.7745V38.2248L32.5615 37.8446L32.6831 37.4901C32.7845 37.1935 32.9092 36.8947 33.0532 36.6021L33.2181 36.2653L32.7241 35.2325L35.2341 32.7226L36.2668 33.2165L36.6036 33.0516C36.8916 32.9099 37.1882 32.7863 37.4916 32.6815L37.8462 32.56L38.2255 31.4839H41.7752L42.1554 32.5615L42.5099 32.6831C42.8065 32.7845 43.1053 32.9092 43.3979 33.0532L43.7347 33.2181L44.7675 32.7241L47.2774 35.2341L46.7835 36.2668L46.9484 36.6036C47.0924 36.8963 47.2163 37.1951 47.3185 37.4916L47.44 37.8462L48.5161 38.2255V41.7752L47.4385 42.1554L47.3169 42.5099C47.2125 42.8135 47.0889 43.1101 46.9468 43.3979L46.7819 43.7347L47.2759 44.7675L44.7659 47.2774L43.7332 46.7835L43.3964 46.9484C43.1084 47.0901 42.8118 47.2137 42.5084 47.3185L42.1538 47.44L41.7745 48.5161H38.2248L37.8446 47.4385L37.4901 47.3169C37.1865 47.2125 36.8899 47.0889 36.6021 46.9468L36.2653 46.7819L35.2325 47.2759L32.7226 44.7659L33.2165 43.7332L33.0516 43.3964C32.9099 43.1084 32.7863 42.8118 32.6815 42.5084L32.56 42.1538L31.4839 41.7745ZM26.0645 51.6129H18.3226C17.0421 51.6129 16 52.655 16 53.9355V61.6774C16 62.9579 17.0421 64 18.3226 64H26.0645C27.345 64 28.3871 62.9579 28.3871 61.6774V53.9355C28.3871 52.655 27.345 51.6129 26.0645 51.6129ZM26.8387 61.6774C26.8387 62.104 26.4911 62.4516 26.0645 62.4516H18.3226C17.896 62.4516 17.5484 62.104 17.5484 61.6774V53.9355C17.5484 53.5089 17.896 53.1613 18.3226 53.1613H26.0645C26.4911 53.1613 26.8387 53.5089 26.8387 53.9355V61.6774ZM61.6774 33.8065H53.9355C52.655 33.8065 51.6129 34.8485 51.6129 36.129V43.871C51.6129 45.1515 52.655 46.1935 53.9355 46.1935H61.6774C62.9579 46.1935 64 45.1515 64 43.871V36.129C64 34.8485 62.9579 33.8065 61.6774 33.8065ZM62.4516 43.871C62.4516 44.2975 62.104 44.6452 61.6774 44.6452H53.9355C53.5089 44.6452 53.1613 44.2975 53.1613 43.871V36.129C53.1613 35.7025 53.5089 35.3548 53.9355 35.3548H61.6774C62.104 35.3548 62.4516 35.7025 62.4516 36.129V43.871ZM22.9677 28.3871H30.7097C31.9902 28.3871 33.0323 27.345 33.0323 26.0645V18.3226C33.0323 17.0421 31.9902 16 30.7097 16H22.9677C21.6872 16 20.6452 17.0421 20.6452 18.3226V26.0645C20.6452 27.345 21.6872 28.3871 22.9677 28.3871ZM22.1935 18.3226C22.1935 17.896 22.5412 17.5484 22.9677 17.5484H30.7097C31.1363 17.5484 31.4839 17.896 31.4839 18.3226V26.0645C31.4839 26.4911 31.1363 26.8387 30.7097 26.8387H22.9677C22.5412 26.8387 22.1935 26.4911 22.1935 26.0645V18.3226Z" fill="black"/>
<path d="M20.6458 59.0346L19.6447 58.0336L18.55 59.1283L20.6458 61.224L25.8383 56.0315L24.7436 54.9368L20.6458 59.0346ZM30.4835 20.4186L29.3887 19.3239L25.2909 23.4217L24.2899 22.4207L23.1952 23.5154L25.2909 25.6111L30.4835 20.4186ZM56.2587 41.2282L55.2577 40.2271L54.1629 41.3219L56.2587 43.4176L61.4512 38.2251L60.3565 37.1304L56.2587 41.2282ZM51.4254 50.088L51.8009 51.59L56.2014 50.4899C52.6471 55.9959 46.596 59.3551 40.0006 59.3551C37.1678 59.3551 34.438 58.7575 31.8878 57.5784L31.2383 58.9835C33.9839 60.2556 36.9747 60.9109 40.0006 60.9035C47.014 60.9035 53.4553 57.3887 57.317 51.6101L57.8133 55.5802L59.3493 55.3882L58.4667 48.3275L51.4254 50.088ZM24.4958 43.2767L22.99 42.9167L22.0455 46.8697C21.1196 44.5781 20.6458 42.2749 20.6458 40.0003C20.6458 37.1435 21.2535 34.3928 22.452 31.8233L21.0484 31.1683C19.7564 33.933 19.0902 36.9486 19.0974 40.0003C19.0974 42.4646 19.6045 44.9505 20.5955 47.4163L17.1487 45.5157L16.4009 46.872L22.7942 50.3962L24.4958 43.2767ZM41.2045 22.3239L38.6868 20.6455H40.0006C43.5439 20.6397 47.0205 21.609 50.0498 23.4471C53.079 25.2852 55.5442 27.9214 57.1753 31.0669L58.548 30.3508C54.9302 23.4093 47.8231 19.0971 40.0006 19.0971H38.6868L41.2045 17.4186L40.3459 16.1304L34.7338 19.8713L40.3451 23.6122L41.2045 22.3239Z" fill="black"/>
</svg>
