<svg width="100" height="100" viewBox="0 0 100 100" fill="none" xmlns="http://www.w3.org/2000/svg">
<path d="M100 50C100 77.6142 77.6142 100 50 100C22.3858 100 0 77.6142 0 50C0 22.3858 22.3858 0 50 0C77.6142 0 100 22.3858 100 50Z" fill="#0075F2"/>
<path d="M64.0625 67.8125H35.9375V64.0625H34.0625V74.375C34.0625 75.9256 35.3244 77.1875 36.875 77.1875H63.125C64.6756 77.1875 65.9375 75.9256 65.9375 74.375V62.0178C65.2996 61.9102 64.6722 61.7474 64.0625 61.5312V67.8125ZM40.8997 74.1003C40.7239 74.2761 40.4855 74.3749 40.2369 74.375H39.6875C39.4389 74.375 39.2004 74.2762 39.0246 74.1004C38.8488 73.9246 38.75 73.6861 38.75 73.4375V71.5625C38.75 71.3139 38.8488 71.0754 39.0246 70.8996C39.2004 70.7238 39.4389 70.625 39.6875 70.625H40.2369C40.4853 70.625 40.7244 70.7234 40.8997 70.8997L42.5 72.5L40.8997 74.1003ZM51.875 73.4375C51.875 73.6861 51.7762 73.9246 51.6004 74.1004C51.4246 74.2762 51.1861 74.375 50.9375 74.375H49.0625C48.8139 74.375 48.5754 74.2762 48.3996 74.1004C48.2238 73.9246 48.125 73.6861 48.125 73.4375V71.5625C48.125 71.3139 48.2238 71.0754 48.3996 70.8996C48.5754 70.7238 48.8139 70.625 49.0625 70.625H50.9375C51.1861 70.625 51.4246 70.7238 51.6004 70.8996C51.7762 71.0754 51.875 71.3139 51.875 71.5625V73.4375ZM61.25 73.4375C61.25 73.6861 61.1512 73.9246 60.9754 74.1004C60.7996 74.2762 60.5611 74.375 60.3125 74.375H59.7631C59.64 74.3751 59.5181 74.3509 59.4043 74.3038C59.2906 74.2566 59.1873 74.1875 59.1003 74.1003L57.5 72.5L59.1003 70.8997C59.2761 70.7239 59.5145 70.6251 59.7631 70.625H60.3125C60.5611 70.625 60.7996 70.7238 60.9754 70.8996C61.1512 71.0754 61.25 71.3139 61.25 71.5625V73.4375ZM37.6447 59.9806L38.1397 59.8222C38.6647 59.6544 39.1944 59.4322 39.7175 59.1622L40.1797 58.9241L42.1438 60.0922L45.0903 57.1456L43.9222 55.1816L44.1603 54.7194C44.4303 54.1963 44.6525 53.6656 44.8203 53.1416L44.9787 52.6466L47.1875 52.0841V47.9169L44.9806 47.3553L44.8222 46.8603C44.6461 46.3168 44.4253 45.7887 44.1622 45.2816L43.9241 44.8194L45.0922 42.8553L42.1456 39.9088L40.1816 41.0769L39.7194 40.8388C39.2126 40.5755 38.6849 40.3547 38.1416 40.1788L37.6466 40.0203L37.0841 37.8125H32.9169L32.3553 40.0194L31.8603 40.1778C31.3353 40.3456 30.8056 40.5678 30.2825 40.8378L29.8203 41.0759L27.8563 39.9078L24.9097 42.8544L26.0778 44.8184L25.8397 45.2806C25.5766 45.7878 25.3558 46.3158 25.1797 46.8594L25.0213 47.3544L22.8125 47.9159V52.0831L25.0194 52.6447L25.1778 53.1397C25.3456 53.6647 25.5678 54.1944 25.8378 54.7175L26.0759 55.1797L24.9078 57.1437L27.8544 60.0903L29.8184 58.9222L30.2806 59.1603C30.8037 59.4303 31.3344 59.6525 31.8584 59.8203L32.3534 59.9788L32.9159 62.1875H37.0831L37.6447 59.9806ZM27.5 50C27.5 48.0109 28.2902 46.1032 29.6967 44.6967C31.1032 43.2902 33.0109 42.5 35 42.5C36.9891 42.5 38.8968 43.2902 40.3033 44.6967C41.7098 46.1032 42.5 48.0109 42.5 50C42.5 51.9891 41.7098 53.8968 40.3033 55.3033C38.8968 56.7098 36.9891 57.5 35 57.5C33.0109 57.5 31.1032 56.7098 29.6967 55.3033C28.2902 53.8968 27.5 51.9891 27.5 50ZM35.9375 28.4375H64.0625V40.3438C64.6721 40.1271 65.2995 39.9643 65.9375 39.8572V25.625C65.9375 24.0744 64.6756 22.8125 63.125 22.8125H36.875C35.3244 22.8125 34.0625 24.0744 34.0625 25.625V35.9375H35.9375V28.4375ZM49.0625 24.6875H54.6875V26.5625H49.0625V24.6875ZM45.3125 24.6875H47.1875V26.5625H45.3125V24.6875Z" fill="white"/>
<path d="M40.1056 61.0606C39.8084 61.1984 39.5094 61.3241 39.2094 61.4356L38.5409 64.0625H37.8125V65.9375H62.1875V60.665C58.8303 58.7159 56.5625 55.0906 56.5625 50.9375C56.5625 46.7844 58.8303 43.1591 62.1875 41.21V30.3125H37.8125V35.9375H38.5409L39.2094 38.5644C39.5084 38.6759 39.8084 38.8006 40.1056 38.9394L42.44 37.5519L47.4481 42.56L46.0606 44.8934C46.1984 45.1906 46.3241 45.4906 46.4356 45.7897L49.0625 46.4591V53.5419L46.4356 54.2103C46.3226 54.5139 46.1975 54.8129 46.0606 55.1066L47.4481 57.4409L42.44 62.4491L40.1056 61.0606ZM50 33.125L59.375 37.8125L50 42.5V33.125Z" fill="white"/>
<path d="M67.8126 52.8125C66.3457 52.8093 64.9205 53.3001 63.7666 54.2057C62.6126 55.1114 61.7972 56.3791 61.4517 57.8047C63.1251 59.3553 65.3563 60.3125 67.8126 60.3125C70.2688 60.3125 72.5001 59.3553 74.1735 57.8047C73.828 56.3791 73.0125 55.1114 71.8586 54.2057C70.7047 53.3001 69.2795 52.8093 67.8126 52.8125Z" fill="white"/>
<path d="M67.8125 41.5625C62.6431 41.5625 58.4375 45.7681 58.4375 50.9375C58.4375 52.8659 59.0244 54.6603 60.0266 56.1519C60.4508 55.1168 61.0779 54.177 61.8708 53.3879C62.6638 52.5988 63.6066 51.9764 64.6437 51.5572C64.1666 51.1216 63.7852 50.5915 63.5237 50.0007C63.2623 49.4098 63.1265 48.7711 63.125 48.125C63.125 45.5403 65.2278 43.4375 67.8125 43.4375C70.3972 43.4375 72.5 45.5403 72.5 48.125C72.5 49.4844 71.9084 50.7003 70.9813 51.5572C72.0184 51.9764 72.9612 52.5988 73.7542 53.3879C74.5471 54.177 75.1742 55.1168 75.5984 56.1519C76.6359 54.6109 77.1892 52.7951 77.1875 50.9375C77.1875 45.7681 72.9819 41.5625 67.8125 41.5625Z" fill="white"/>
<path d="M67.8125 50.9375C69.3658 50.9375 70.625 49.6783 70.625 48.125C70.625 46.5717 69.3658 45.3125 67.8125 45.3125C66.2592 45.3125 65 46.5717 65 48.125C65 49.6783 66.2592 50.9375 67.8125 50.9375Z" fill="white"/>
</svg>
