<svg width="126" height="60" viewBox="0 0 126 60" fill="none" xmlns="http://www.w3.org/2000/svg">
<path d="M74.4653 0C79.7977 0.0495527 84.9044 1.14726 89.7828 3.28619C96.8144 6.36917 102.626 11.007 107.246 17.1298C111.164 22.3231 113.836 28.1072 115.326 34.4385C115.354 34.5582 115.384 34.6791 115.394 34.801C115.454 35.4969 114.653 35.8922 114.143 35.6536C113.95 35.563 113.818 35.419 113.75 35.2219C113.7 35.0766 113.67 34.9243 113.635 34.7744C112.304 29.1404 109.995 23.9429 106.639 19.2234C102.34 13.1793 96.8642 8.52173 90.1514 5.34183C87.211 3.94888 84.138 2.95295 80.9387 2.35747C79.6195 2.11189 78.2894 1.944 76.9495 1.84599C75.9478 1.7727 74.9464 1.75407 73.9437 1.76369C69.9865 1.80167 66.1595 2.53267 62.4648 3.94705C57.7462 5.75335 53.6061 8.46792 49.9722 11.9629C45.4857 16.2778 42.1924 21.3839 39.939 27.1733C39.0705 29.4042 38.387 31.6911 37.8894 34.0332C37.8638 34.1536 37.838 34.2762 37.7922 34.3898C37.6781 34.6731 37.4656 34.8253 37.1561 34.847C36.5245 34.8912 36.0367 34.3455 36.1835 33.7078C36.4774 32.4306 36.782 31.157 37.1634 29.9027C38.9726 23.9533 41.8364 18.5713 45.8582 13.8206C49.6602 9.32955 54.2004 5.79024 59.5446 3.30311C62.2555 2.04152 65.082 1.13411 68.0239 0.596823C69.4508 0.336276 70.8886 0.154867 72.3393 0.0918001C73.048 0.0609971 73.7567 0.0310471 74.4655 0.00060935L74.4653 0Z" fill="#F57158"/>
<path d="M105.242 50.1778C105.085 50.0813 104.959 50.0009 104.831 49.9253C104.321 49.6254 103.865 49.2615 103.491 48.8013C103.155 48.3884 102.915 47.9275 102.804 47.4032C102.65 46.6749 102.783 45.9941 103.144 45.3517C103.42 44.8596 103.801 44.4597 104.244 44.1161C104.849 43.6476 105.525 43.3136 106.252 43.0908C107.386 42.7438 108.542 42.6092 109.725 42.7583C109.923 42.7833 110.122 42.7959 110.345 42.8165C110.393 42.7074 110.44 42.6139 110.476 42.5168C110.885 41.4317 112.208 40.4694 113.734 40.6498C114.691 40.7631 115.088 41.7274 114.786 42.4857C114.628 42.8813 114.314 43.095 113.881 43.0683C113.529 43.0466 113.179 42.9778 112.829 42.9243C112.415 42.8611 112.001 42.8314 111.584 42.8679C111.464 42.8785 111.333 42.8729 111.23 43.0146C111.345 43.0622 111.45 43.1126 111.559 43.1504C112.205 43.3728 112.81 43.6725 113.357 44.0852C113.754 44.3847 114.107 44.7285 114.377 45.1488C115.069 46.2274 115.085 47.3212 114.425 48.4182C114.109 48.9418 113.673 49.3545 113.173 49.7007C112.295 50.3092 111.314 50.6597 110.267 50.8325C109.001 51.0414 107.747 50.9731 106.51 50.6271C106.378 50.5903 106.248 50.513 106.116 50.6212C105.937 50.7682 105.744 50.91 105.692 51.151C105.675 51.2313 105.704 51.3353 105.744 51.4119C105.819 51.5548 105.953 51.6353 106.109 51.6733C106.352 51.7321 106.597 51.7513 106.844 51.7096C107.558 51.5888 108.272 51.4699 108.985 51.3418C109.821 51.1915 110.658 51.0739 111.512 51.1018C112.452 51.1324 113.249 51.4856 113.93 52.1159C114.651 52.7828 114.992 53.6129 114.966 54.5952C114.944 55.37 114.708 56.0815 114.316 56.7409C113.434 58.2249 112.153 59.2082 110.512 59.7259C109.86 59.9317 109.189 60.0169 108.505 59.9973C107.112 59.9576 105.786 59.6548 104.551 58.9958C103.795 58.5923 103.127 58.0778 102.574 57.4185C102.265 57.0496 102.008 56.6476 101.83 56.1998C101.762 56.0294 101.71 55.8485 101.683 55.6676C101.609 55.174 101.771 54.7575 102.133 54.4156C102.372 54.1895 102.651 54.0259 102.957 53.9125C103.634 53.6614 104.331 53.5547 105.045 53.7112C105.283 53.7632 105.521 53.8488 105.734 53.9641C106.107 54.1655 106.28 54.495 106.234 54.9259C106.227 54.9872 106.222 55.0491 106.21 55.1094C106.014 56.0785 106.315 56.9087 106.941 57.6341C107.61 58.41 108.472 58.87 109.471 59.0614C109.974 59.1577 110.481 59.1463 110.984 59.0092C111.784 58.791 112.26 58.2 112.333 57.3297C112.374 56.8441 112.277 56.3772 112.102 55.9266C111.726 54.9594 111.08 54.211 110.222 53.6413C109.341 53.0555 108.36 52.7627 107.31 52.6917C106.771 52.6553 106.231 52.6421 105.693 52.6025C105.48 52.5868 105.266 52.5415 105.059 52.4845C104.848 52.4265 104.663 52.3098 104.526 52.1338C104.287 51.8277 104.203 51.4948 104.427 51.1504C104.577 50.9193 104.76 50.7087 104.935 50.4949C105.02 50.391 105.122 50.3007 105.242 50.1778H105.242ZM110.421 46.7516C110.428 46.2207 110.36 45.6555 110.199 45.104C110.095 44.7477 109.967 44.397 109.74 44.0995C109.611 43.9304 109.462 43.764 109.29 43.6436C108.982 43.4294 108.642 43.4329 108.339 43.6542C108.169 43.7786 108.022 43.9457 107.894 44.1161C107.67 44.4155 107.538 44.7648 107.442 45.1233C107.136 46.2657 107.143 47.4104 107.449 48.5512C107.545 48.9095 107.69 49.2512 107.902 49.5593C108.462 50.3724 109.204 50.3698 109.749 49.5399C109.9 49.3105 110.017 49.053 110.113 48.7947C110.351 48.1512 110.429 47.4784 110.421 46.7516H110.421Z" fill="#F57158"/>
<path d="M74.7564 4.82028C79.7181 4.83257 84.4634 5.87014 88.9705 7.92834C97.5387 11.8411 103.855 18.077 107.986 26.5316C109.208 29.0334 110.127 31.6481 110.778 34.3561C110.803 34.461 110.838 34.5652 110.847 34.6716C110.885 35.0809 110.503 35.4191 110.103 35.3362C109.866 35.2873 109.726 35.136 109.667 34.9077C109.598 34.6391 109.536 34.3684 109.468 34.0996C106.879 23.9586 100.126 15.0857 90.5625 10.038C87.6547 8.50325 84.5938 7.38545 81.3732 6.71606C79.8923 6.40828 78.3964 6.20629 76.8858 6.10366C75.8838 6.0356 74.882 6.01295 73.8797 6.04095C69.774 6.15577 65.8472 7.0566 62.1072 8.75649C57.7898 10.7189 54.069 13.4974 50.9043 17.019C46.9672 21.4002 44.2847 26.4671 42.7212 32.1355C42.5533 32.7444 42.4145 33.3614 42.2627 33.9747C42.2442 34.0494 42.2344 34.1269 42.2098 34.1993C42.1107 34.4913 41.8955 34.6301 41.6113 34.5909C41.3089 34.5492 41.0718 34.3346 41.0546 34.0605C41.0461 33.9248 41.0678 33.7835 41.0971 33.6495C41.7712 30.5784 42.8 27.6308 44.1931 24.8118C46.3286 20.4903 49.1534 16.6846 52.7463 13.463C56.4853 10.1104 60.7341 7.64283 65.5455 6.16891C67.1995 5.66219 68.8859 5.30302 70.6033 5.08545C71.9826 4.91074 73.3653 4.81175 74.7563 4.81979L74.7564 4.82028Z" fill="#F57158"/>
<path d="M68.207 45.6121C68.4196 45.676 68.5679 45.7159 68.7131 45.7649C69.411 46.0004 70.0334 46.3606 70.5408 46.9012C71.1809 47.5831 71.5291 48.3869 71.5006 49.3301C71.4754 50.1652 71.1555 50.889 70.6002 51.5065C69.9374 52.2437 69.1032 52.6862 68.1367 52.8721C67.8058 52.9358 67.4637 52.9679 67.1267 52.9689C64.3963 52.9764 61.6659 52.9734 58.9355 52.9729C58.8277 52.9729 58.7185 52.9757 58.6124 52.96C58.4317 52.9333 58.3279 52.7373 58.4109 52.5746C58.4516 52.4948 58.5148 52.4226 58.5805 52.3602C58.6922 52.2543 58.817 52.1623 58.931 52.0585C59.3876 51.6431 59.6215 51.1215 59.6587 50.509C59.6671 50.3706 59.6695 50.2315 59.6696 50.0927C59.6702 47.3007 59.6701 44.5088 59.6696 41.7168C59.6696 41.5934 59.6672 41.47 59.6617 41.3468C59.6324 40.6811 59.3731 40.1238 58.8719 39.6819C58.7448 39.5698 58.6088 39.4669 58.489 39.3475C58.3991 39.2579 58.3466 39.1442 58.4092 39.0117C58.4613 38.9014 58.5595 38.8607 58.6716 38.8512C58.7637 38.8434 58.8564 38.8439 58.949 38.8438C61.2167 38.8435 63.4842 38.8412 65.7519 38.8445C67.0898 38.8465 68.2164 39.3409 69.1138 40.3341C69.5567 40.8243 69.8428 41.3963 69.9591 42.0544C70.0735 42.7017 69.9681 43.3128 69.6989 43.9016C69.4506 44.4445 69.0757 44.8906 68.6211 45.2726C68.5045 45.3706 68.3856 45.4658 68.207 45.6121ZM63.9333 52.1733C64.3177 52.2287 64.6541 52.205 64.986 52.1406C66.0964 51.9251 66.8904 51.3033 67.3288 50.2571C67.5352 49.7645 67.5962 49.2443 67.4763 48.7162C67.2011 47.5052 66.4321 46.7608 65.2653 46.3991C64.7995 46.2547 64.3187 46.2959 63.842 46.2958C63.7566 46.2958 63.6713 46.3284 63.5627 46.3508C63.6094 48.298 63.6861 50.2188 63.9334 52.1733H63.9333ZM63.5873 45.4607C63.6858 45.4734 63.7599 45.4942 63.8329 45.4906C64.8312 45.4399 65.5644 44.9525 66.0059 44.0737C66.5077 43.0749 66.4947 42.0458 66.0017 41.0438C65.6322 40.293 65.0132 39.8368 64.1909 39.6672C64.1074 39.65 64.0173 39.6649 63.906 39.6649C63.7045 41.3004 63.6438 42.9164 63.5792 44.532C63.567 44.8363 63.544 45.143 63.5873 45.4607Z" fill="#F57158"/>
<path d="M97.2497 42.8858C97.1171 42.3485 96.9215 41.8893 96.5448 41.5211C96.468 41.4461 96.3845 41.3746 96.323 41.2881C96.2121 41.1317 96.2869 40.9294 96.4693 40.8857C96.558 40.8644 96.6526 40.8624 96.7448 40.8608C97.6783 40.8439 98.5337 40.5594 99.3307 40.0911C99.6759 39.8883 100.004 39.6562 100.341 39.4387C100.548 39.3048 100.748 39.1567 100.967 39.046C101.157 38.9499 101.365 38.8819 101.573 38.8309C101.751 38.7869 101.872 38.9163 101.841 39.103C101.79 39.4069 101.728 39.7091 101.667 40.011C101.357 41.5268 101.203 43.0554 101.222 44.6052C101.243 46.3786 101.226 48.1525 101.227 49.9262C101.227 50.1112 101.226 50.2967 101.238 50.4811C101.28 51.1083 101.522 51.6438 101.989 52.0709C102.102 52.1749 102.224 52.2703 102.338 52.374C102.394 52.4254 102.452 52.4804 102.491 52.5449C102.598 52.723 102.497 52.9367 102.294 52.9637C102.202 52.9759 102.109 52.9731 102.017 52.9731C99.8571 52.9735 97.6977 52.9825 95.5384 52.97C94.0775 52.9614 92.7862 52.4749 91.7031 51.4862C90.6882 50.5597 90.1239 49.4022 90.0652 48.0264C90.0147 46.8427 90.3721 45.7725 91.1056 44.8409C92.0154 43.6856 93.2177 43.0229 94.6608 42.7804C95.4318 42.6508 96.1959 42.6781 96.9556 42.8635C97.0395 42.884 97.1301 42.8775 97.2497 42.8858ZM97.1853 48.0253C97.1853 47.2865 97.1596 46.7028 97.0642 46.1235C96.969 45.5446 96.8354 44.9765 96.5933 44.4393C96.4727 44.1716 96.3292 43.9165 96.1082 43.7154C95.7915 43.4273 95.4297 43.4131 95.1191 43.7109C94.9556 43.8677 94.8052 44.0581 94.7096 44.2618C94.5472 44.6083 94.3963 44.9682 94.3044 45.3384C93.9158 46.9021 93.9098 48.4773 94.234 50.0535C94.3271 50.5066 94.4647 50.9478 94.6756 51.3621C94.802 51.6102 94.9486 51.8461 95.1733 52.0197C95.468 52.2474 95.7836 52.255 96.0533 52.0034C96.219 51.8488 96.3732 51.6617 96.4718 51.4596C96.6328 51.1297 96.7695 50.7828 96.8711 50.4301C97.111 49.5962 97.1915 48.7385 97.1853 48.0253Z" fill="#F57158"/>
<path d="M7.90221 26.1497C7.43937 26.0592 7.05897 26.16 6.69415 26.3477C6.19734 26.6034 5.75142 26.9335 5.32524 27.2912C5.11263 27.4696 4.90794 27.6576 4.70203 27.8439C4.60815 27.9288 4.51 27.9963 4.37666 27.999C4.24333 28.0016 4.12911 27.9038 4.14445 27.7716C4.16917 27.5575 4.21057 27.3455 4.2454 27.1325C4.29752 26.813 4.35 26.4937 4.40211 26.1742C4.41198 26.1133 4.4166 26.0514 4.43024 25.9915C4.50282 25.6711 4.61314 25.5746 4.93241 25.5547C5.02471 25.549 5.1175 25.5517 5.21004 25.5517C7.95652 25.5516 10.703 25.5513 13.4495 25.5522C13.5882 25.5522 13.7273 25.5543 13.8653 25.5664C14.0361 25.5815 14.1543 25.6804 14.2007 25.8418C14.243 25.9893 14.262 26.1434 14.2902 26.2949C14.3262 26.4891 14.3611 26.6835 14.3967 26.8788C14.5867 26.8994 14.728 26.844 14.8721 26.7944C15.314 26.6426 15.7102 26.4064 16.0944 26.146C16.3242 25.9902 16.5541 25.8344 16.7904 25.6892C16.9353 25.6002 17.094 25.5327 17.2714 25.5501C17.3576 25.5586 17.4159 25.6134 17.4141 25.7011C17.4125 25.7768 17.3889 25.8521 17.374 25.9274C17.1712 26.959 17.0775 28.0029 17.0206 29.0509C17.0184 29.091 17.0394 29.1324 17.0494 29.1718C17.0904 29.1665 17.1276 29.1728 17.1466 29.1572C17.2059 29.1084 17.2586 29.0517 17.3133 28.9974C17.8693 28.445 18.5426 28.2548 19.3069 28.3617C20.3622 28.5093 21.1843 29.0281 21.7518 29.9334C22.1018 30.4918 22.3061 31.1048 22.3541 31.761C22.3855 32.1912 22.3798 32.6241 22.388 33.056C22.3928 33.3182 22.3887 33.5806 22.3951 33.8427C22.4087 34.3979 22.6193 34.8595 23.0539 35.2141C23.1371 35.2819 23.2193 35.3542 23.287 35.4367C23.3884 35.5603 23.3202 35.7313 23.1661 35.7523C23.0901 35.7626 23.0123 35.7619 22.9352 35.7619C21.7316 35.7625 20.5282 35.7625 19.3246 35.7619C19.2322 35.7619 19.1387 35.7625 19.0476 35.7496C18.8525 35.7218 18.769 35.5456 18.8634 35.3692C18.8849 35.3289 18.9115 35.2891 18.9434 35.2567C19.3311 34.8632 19.4761 34.3604 19.5662 33.8394C19.7535 32.7562 19.6595 31.6852 19.3665 30.6331C19.2806 30.3245 19.1419 30.0251 18.9882 29.7427C18.8959 29.5731 18.7427 29.4262 18.5898 29.3027C18.4086 29.1565 18.1894 29.1441 17.9814 29.2633C17.8618 29.3318 17.7379 29.4039 17.6427 29.5008C17.4922 29.6539 17.3596 29.8255 17.2277 29.9957C17.0415 30.2361 16.9753 30.5054 16.9848 30.8152C17.0162 31.8339 17.0713 32.8496 17.2576 33.8535C17.3054 34.1106 17.3729 34.3645 17.443 34.6167C17.5094 34.856 17.6094 35.0807 17.7871 35.2635C17.8291 35.3068 17.8655 35.3591 17.8918 35.4134C17.9565 35.5471 17.8797 35.7074 17.733 35.7379C17.6434 35.7564 17.5496 35.7614 17.4576 35.7615C16.2232 35.763 14.9889 35.7626 13.7545 35.762C13.693 35.762 13.6307 35.7607 13.5701 35.7509C13.4207 35.7268 13.3549 35.5539 13.4503 35.4294C13.4966 35.369 13.5569 35.3192 13.6124 35.2662C13.7127 35.1704 13.8199 35.0812 13.9141 34.9797C14.142 34.7348 14.2754 34.4432 14.3027 34.1092C14.319 33.9097 14.3251 33.7087 14.3253 33.5084C14.3272 32.0889 14.3274 30.6695 14.3251 29.25C14.3247 29.0344 14.3195 28.8174 14.296 28.6034C14.2614 28.2879 14.1376 28.0061 13.9043 27.7855C13.3309 27.2436 12.7237 26.7456 12.0237 26.3713C11.6475 26.1702 11.2563 26.0572 10.7978 26.1455C10.7834 26.2415 10.7544 26.3436 10.7545 26.4456C10.7556 28.081 10.7545 29.7164 10.7667 31.3518C10.7733 32.2327 10.859 33.1078 11.0567 33.9681C11.1118 34.2076 11.1772 34.4492 11.2759 34.6729C11.3615 34.8668 11.4987 35.0384 11.6178 35.2167C11.6602 35.2801 11.7245 35.3295 11.7641 35.3943C11.8391 35.5168 11.7696 35.697 11.6323 35.7312C11.5439 35.7534 11.4498 35.761 11.3581 35.7611C10.0157 35.763 8.67336 35.763 7.331 35.7611C7.2393 35.7611 7.1453 35.7538 7.05665 35.7323C6.91833 35.6987 6.84587 35.5229 6.91443 35.3971C6.94341 35.3439 6.9825 35.2931 7.02682 35.2519C7.29787 34.9996 7.44034 34.6721 7.52449 34.3268C7.63736 33.8634 7.74452 33.3944 7.79737 32.9214C7.86751 32.2939 7.90939 31.6606 7.91633 31.0293C7.93302 29.5174 7.92254 28.0052 7.92157 26.4932C7.92157 26.3878 7.91012 26.2822 7.90233 26.1499L7.90221 26.1497Z" fill="#F57158"/>
<path d="M9.1449 39.6664C9.13625 39.8028 9.122 39.9225 9.122 40.0421C9.12091 42.1246 9.10995 44.2071 9.1259 46.2894C9.13601 47.6013 9.22368 48.9104 9.4895 50.1989C9.57632 50.6196 9.71063 51.0319 9.84482 51.441C9.94649 51.7511 10.1164 52.027 10.3642 52.2499C10.4316 52.3105 10.4927 52.3844 10.5373 52.4632C10.6395 52.6442 10.5713 52.8532 10.3749 52.9186C10.2469 52.9612 10.1033 52.9694 9.96659 52.9708C9.41132 52.9763 8.85594 52.9732 8.30056 52.9732C7.03563 52.9732 5.77071 52.9742 4.50578 52.972C4.35236 52.9718 4.19418 52.9747 4.04647 52.9407C3.80878 52.8862 3.71612 52.6418 3.83971 52.4311C3.87795 52.3659 3.92921 52.3046 3.9862 52.2549C4.26261 52.0133 4.42116 51.6974 4.54889 51.3643C4.74299 50.8584 4.86025 50.3316 4.94585 49.7981C5.13411 48.6233 5.22568 47.44 5.22799 46.2507C5.23189 44.1991 5.22957 42.1476 5.22848 40.096C5.22848 39.9601 5.21593 39.8242 5.20814 39.6641C4.75736 39.5981 4.32922 39.594 3.92824 39.7783C3.55137 39.9516 3.17949 40.1433 2.82855 40.3638C2.13448 40.7999 1.51273 41.3322 0.910222 41.8866C0.819505 41.97 0.736338 42.0658 0.633931 42.1313C0.546989 42.1868 0.439468 42.2267 0.337183 42.2382C0.111912 42.2634 -0.0146043 42.1349 0.0013473 41.9093C0.0110887 41.7711 0.0347114 41.6337 0.0577255 41.4968C0.16756 40.8433 0.279222 40.19 0.390274 39.5365C0.403181 39.4605 0.409147 39.3826 0.430335 39.309C0.500108 39.0662 0.647569 38.9021 0.910344 38.8724C1.04782 38.8568 1.18676 38.845 1.32496 38.8448C5.22775 38.8434 9.13065 38.8434 13.0334 38.8448C13.1716 38.8448 13.3107 38.856 13.4479 38.8727C13.7088 38.9046 13.8606 39.0629 13.9247 39.3108C13.9478 39.4003 13.9645 39.4916 13.9796 39.5829C14.0946 40.2825 14.2085 40.9822 14.3232 41.6819C14.3306 41.7275 14.3446 41.7721 14.3507 41.8179C14.398 42.1719 14.1714 42.3508 13.8454 42.2014C13.7232 42.1454 13.6223 42.0402 13.5167 41.9514C13.0564 41.5645 12.6068 41.1644 12.1364 40.7903C11.6772 40.4251 11.1816 40.1119 10.6475 39.8624C10.1738 39.6413 9.68396 39.5778 9.14526 39.6664H9.1449Z" fill="#F57158"/>
<path d="M16.8874 51.7271C16.798 51.8141 16.7009 51.9091 16.6034 52.0035C15.2228 53.3391 13.0155 53.2941 11.6971 51.9036C10.6028 50.7495 10.5103 49.0103 11.4792 47.7505C12.6608 46.2142 14.9564 45.9396 16.4914 47.2913C16.6047 47.3912 16.7125 47.4972 16.822 47.5994C16.8553 47.5662 16.891 47.5477 16.8922 47.5272C16.9451 46.6431 16.8948 45.768 16.6002 44.9253C16.4993 44.6365 16.3625 44.3557 16.2057 44.0929C16.106 43.9259 15.9479 43.7889 15.7996 43.6568C15.6699 43.5414 15.5025 43.4974 15.3264 43.5008C15.1698 43.5039 15.0591 43.58 15.0275 43.7363C15.0035 43.8549 14.9847 43.9849 15.0085 44.1007C15.0577 44.3407 15.1161 44.5828 15.2081 44.8091C15.3802 45.2329 15.1975 45.5077 14.9399 45.6993C14.6356 45.9256 14.2815 46.0372 13.9153 46.101C13.5185 46.1701 13.1171 46.1784 12.7169 46.1174C12.4705 46.0798 12.237 46.0037 12.0287 45.8632C11.7315 45.6629 11.6067 45.3803 11.6488 45.0275C11.6979 44.6169 11.8711 44.2612 12.1421 43.9508C12.4311 43.6198 12.7852 43.377 13.1778 43.1876C13.7409 42.916 14.3429 42.7865 14.9599 42.7281C15.9757 42.6319 16.9689 42.7464 17.8995 43.1753C19.6839 43.9978 20.6496 45.4131 20.7791 47.3669C20.8361 48.2272 20.7931 49.0939 20.8026 49.9576C20.8052 50.2036 20.8274 50.4498 20.8497 50.6951C20.898 51.2264 21.1369 51.6651 21.5208 52.0277C21.6552 52.1546 21.8051 52.2652 21.9367 52.3946C21.9997 52.4565 22.054 52.5392 22.0815 52.6224C22.1364 52.7886 22.0375 52.9392 21.8685 52.9621C21.7773 52.9745 21.6839 52.9727 21.5915 52.9727C20.743 52.9733 19.8947 52.9679 19.0462 52.9744C18.244 52.9808 17.6199 52.6455 17.142 52.0148C17.077 51.9291 17.0157 51.8406 16.951 51.7545C16.9437 51.7447 16.9258 51.743 16.8874 51.727V51.7271ZM16.8032 49.8128C16.7992 49.2217 16.6733 48.7835 16.366 48.4118C15.8234 47.7553 14.984 47.7717 14.4675 48.447C14.1426 48.8718 14.0368 49.3605 14.0764 49.8852C14.1109 50.3453 14.2647 50.7586 14.5917 51.093C15.0767 51.5891 15.7421 51.6057 16.2366 51.1186C16.3869 50.9705 16.5071 50.7821 16.6057 50.5937C16.7503 50.3176 16.8105 50.0138 16.8032 49.8128Z" fill="#F57158"/>
<path d="M39.5474 52.9807C37.8502 52.9264 36.331 52.2911 35.1949 50.8767C33.7303 49.0534 33.7554 46.5367 35.2479 44.7355C36.1959 43.5914 37.4279 42.9506 38.8966 42.7592C40.433 42.5591 41.8391 42.9027 43.0937 43.8113C44.0481 44.5025 44.7227 45.4135 45.0194 46.5593C45.5017 48.4218 45.0148 50.0429 43.6606 51.3851C42.5562 52.4797 41.1852 52.9634 39.5475 52.9807H39.5474ZM41.2451 47.7839C41.2607 47.1228 41.1875 46.4193 41.0483 45.723C40.9516 45.2391 40.8161 44.7661 40.5942 44.322C40.4766 44.0867 40.341 43.8628 40.1382 43.6895C39.8468 43.4404 39.4999 43.4212 39.2175 43.6757C39.0495 43.8271 38.9102 44.0197 38.7906 44.2138C38.5876 44.5432 38.4715 44.9124 38.3716 45.285C38.1018 46.2912 38.0474 47.3178 38.0802 48.3535C38.1023 49.0489 38.2014 49.7329 38.3772 50.4051C38.4748 50.7779 38.5965 51.1452 38.799 51.4754C38.9106 51.6572 39.0384 51.8377 39.1933 51.982C39.4985 52.2663 39.8393 52.2619 40.1419 51.9796C40.2749 51.8555 40.3992 51.7076 40.4816 51.547C40.6283 51.2607 40.7659 50.9648 40.8619 50.6586C41.1498 49.7406 41.2569 48.7944 41.2452 47.784L41.2451 47.7839Z" fill="#F57158"/>
<path d="M119.958 48.9751C120.22 50.0364 121.356 51.0903 122.853 50.9705C123.398 50.9269 123.918 50.8049 124.408 50.5612C124.729 50.4017 125.016 50.1966 125.258 49.9316C125.3 49.8861 125.337 49.8359 125.38 49.7926C125.533 49.641 125.649 49.6176 125.788 49.7062C125.969 49.8214 126.047 50.0034 125.971 50.1776C125.916 50.3038 125.843 50.4239 125.765 50.5379C124.944 51.7387 123.812 52.4964 122.401 52.8166C120.687 53.2055 119.09 52.908 117.648 51.8918C116.683 51.2119 116.007 50.3021 115.695 49.1604C115.238 47.4916 115.59 45.981 116.706 44.6633C117.446 43.7905 118.399 43.242 119.499 42.9419C120.836 42.5768 122.151 42.6072 123.436 43.1637C123.877 43.3547 124.293 43.5915 124.654 43.9109C124.86 44.094 125.06 44.2921 125.229 44.5093C125.857 45.3137 125.935 46.196 125.543 47.1234C125.316 47.6613 124.943 48.0914 124.476 48.4376C123.788 48.9474 123.012 49.2176 122.159 49.2711C121.521 49.3111 120.897 49.2379 120.293 49.0228C120.206 48.992 120.116 48.9694 120.027 48.9454C120.016 48.9426 120.001 48.9556 119.958 48.9751H119.958ZM122.424 45.9733C122.411 45.4636 122.343 44.9315 122.144 44.4237C122.031 44.1343 121.88 43.867 121.629 43.671C121.339 43.4444 121.037 43.4398 120.739 43.6584C120.499 43.8353 120.328 44.0706 120.189 44.3315C119.862 44.9475 119.768 45.613 119.792 46.2979C119.807 46.7142 119.873 47.1249 120.039 47.5124C120.167 47.8129 120.333 48.089 120.596 48.2926C120.991 48.5981 121.404 48.5675 121.753 48.2095C121.939 48.019 122.062 47.7886 122.155 47.5423C122.343 47.0474 122.414 46.5318 122.424 45.9733H122.424Z" fill="#F57158"/>
<path d="M75.1771 10.4934C69.8124 10.5103 65.0892 11.9289 60.7694 14.6868C56.4799 17.4254 53.1485 21.0665 50.683 25.5081C49.1913 28.1953 48.1254 31.0457 47.444 34.0414C47.4201 34.1465 47.3988 34.2533 47.3619 34.354C47.3008 34.5209 47.1717 34.5867 46.9955 34.5555C46.8261 34.5254 46.7045 34.4108 46.7018 34.248C46.6998 34.1266 46.7207 34.0026 46.7478 33.8834C48.1039 27.9212 50.8614 22.7096 55.1419 18.3309C58.1958 15.2069 61.7703 12.8654 65.8834 11.3656C67.7447 10.687 69.659 10.2315 71.6266 9.98656C73.3945 9.76643 75.1669 9.72723 76.9389 9.85616C80.6245 10.1244 84.1405 11.0637 87.4671 12.6704C94.5771 16.1046 99.7638 21.4374 103.084 28.5912C103.97 30.4985 104.647 32.4807 105.138 34.526C105.159 34.6158 105.189 34.7048 105.199 34.796C105.22 34.999 105.092 35.1582 104.894 35.1919C104.711 35.2229 104.571 35.14 104.509 34.9412C104.453 34.765 104.418 34.5827 104.373 34.4031C102.219 25.729 96.4341 18.2609 88.5976 14.038C86.0287 12.6536 83.3196 11.6507 80.4606 11.0616C78.6424 10.687 76.8024 10.509 75.1771 10.4933V10.4934Z" fill="#F57158"/>
<path d="M27.9077 45.098C28.0534 44.9186 28.1264 44.8244 28.2038 44.7342C28.4548 44.4418 28.6969 44.1407 28.9628 43.8624C29.1537 43.6626 29.3703 43.4854 29.5872 43.3128C30.7408 42.3945 32.0144 42.611 33.0238 43.2849C33.6386 43.6954 33.9041 44.2949 33.8478 45.0362C33.8236 45.353 33.7156 45.637 33.54 45.8969C33.0104 46.6809 31.8238 47.1621 30.8931 46.973C30.1726 46.8266 29.8771 46.3888 30.0128 45.6683C30.0527 45.4563 30.1081 45.2461 30.1298 45.0324C30.1631 44.7032 30.0105 44.5733 29.6852 44.6501C29.5526 44.6815 29.4198 44.7381 29.3048 44.8113C29.1367 44.9184 28.9702 45.0362 28.8288 45.1757C28.6209 45.3808 28.4225 45.5989 28.2434 45.8296C27.7393 46.4786 27.7271 46.521 27.6851 47.343C27.6274 48.4715 27.6686 49.5942 27.902 50.7038C27.9368 50.8695 27.9772 51.0352 28.031 51.1954C28.1696 51.6083 28.3458 51.9995 28.6937 52.2879C28.8307 52.4015 28.9254 52.5449 28.858 52.7332C28.7901 52.9224 28.6245 52.963 28.4467 52.97C28.3389 52.9741 28.2307 52.973 28.1228 52.973C26.5338 52.9731 24.9446 52.9732 23.3555 52.9728C23.2322 52.9728 23.1078 52.9774 22.9857 52.964C22.7602 52.9392 22.6574 52.7103 22.7795 52.5158C22.8039 52.477 22.8335 52.4402 22.8665 52.4084C22.9108 52.3658 22.9589 52.3265 23.0085 52.29C23.7404 51.7507 24.0364 51.0139 24.0217 50.1209C24.0079 49.288 24.0191 48.4547 24.0183 47.6217C24.0182 47.4983 24.0151 47.3748 24.0072 47.2517C23.9659 46.6071 23.7204 46.0581 23.2376 45.6218C23.1575 45.5493 23.0767 45.4779 22.9943 45.408C22.8528 45.2879 22.6781 45.1723 22.7439 44.9552C22.8123 44.7296 23.023 44.7552 23.2082 44.7434C23.4387 44.7287 23.6703 44.7146 23.898 44.6789C24.6413 44.5627 25.3185 44.2722 25.9462 43.8653C26.2697 43.6556 26.5783 43.4234 26.8997 43.2105C27.1049 43.0745 27.3143 42.9412 27.5348 42.8336C27.6695 42.7678 27.8272 42.7414 27.9778 42.719C28.0917 42.7021 28.1826 42.8051 28.1788 42.9211C28.1769 42.9822 28.1663 43.0433 28.1574 43.1041C28.0745 43.6679 27.9902 44.2315 27.9089 44.7956C27.9004 44.8551 27.9078 44.9168 27.9078 45.0978L27.9077 45.098Z" fill="#F57158"/>
<path d="M77.0029 45.0252C77.068 44.9446 77.1303 44.8617 77.1985 44.784C77.5131 44.4251 77.8168 44.0552 78.1489 43.713C78.4612 43.3912 78.8262 43.1311 79.2348 42.9369C79.6947 42.7184 80.1712 42.653 80.6751 42.741C81.2155 42.8355 81.7185 43.0117 82.1532 43.3543C82.5031 43.63 82.7428 43.9764 82.8431 44.4181C82.9623 44.9433 82.878 45.4296 82.5854 45.8776C82.0438 46.7067 80.7714 47.1975 79.8143 46.9525C79.2274 46.8023 78.9451 46.3889 79.0192 45.7841C79.0286 45.708 79.05 45.6333 79.0661 45.5581C79.0981 45.4074 79.1341 45.2574 79.1608 45.1057C79.1739 45.0308 79.1783 44.952 79.172 44.8764C79.1608 44.7443 79.0606 44.6357 78.9317 44.6414C78.7963 44.6474 78.6453 44.6559 78.5312 44.7184C78.3037 44.8431 78.0799 44.986 77.8848 45.1562C77.4752 45.5136 77.1503 45.9464 76.8835 46.4189C76.8099 46.5491 76.7456 46.7029 76.7377 46.8491C76.6648 48.1911 76.6524 49.5314 76.9704 50.8504C77.0279 51.0889 77.1102 51.3233 77.2013 51.5514C77.3048 51.8106 77.4514 52.0465 77.6666 52.2327C77.7131 52.273 77.7583 52.3153 77.7997 52.3607C77.9007 52.4717 77.9404 52.6033 77.8862 52.7449C77.8311 52.8895 77.7055 52.9519 77.5586 52.9629C77.4205 52.9732 77.2814 52.9735 77.1427 52.9736C75.6008 52.9743 74.059 52.9741 72.517 52.974C72.3782 52.974 72.2395 52.973 72.1007 52.9724C71.9711 52.9718 71.8478 52.9477 71.7954 52.8125C71.7407 52.6714 71.7696 52.5366 71.8809 52.4307C71.97 52.3458 72.0673 52.2696 72.1623 52.191C72.6875 51.7563 72.9968 51.2101 73.0289 50.5198C73.0376 50.3351 73.0563 50.1507 73.0572 49.966C73.0605 49.2413 73.0619 48.5166 73.0566 47.792C73.0549 47.5613 73.0326 47.3305 73.0155 47.1002C72.9735 46.5354 72.7291 46.067 72.3257 45.6778C72.2149 45.5709 72.0931 45.4754 71.9817 45.3691C71.9157 45.3062 71.8462 45.2402 71.8026 45.1619C71.7122 44.9999 71.8049 44.8049 71.9866 44.7668C72.0761 44.7481 72.1702 44.7476 72.2623 44.7455C73.1463 44.726 73.9622 44.4693 74.7176 44.0213C75.0484 43.8251 75.3615 43.5986 75.6825 43.3858C75.9136 43.2325 76.1363 43.0641 76.3783 42.9305C76.5508 42.835 76.7449 42.7697 76.9369 42.721C77.1165 42.6755 77.238 42.8048 77.2119 42.9846C77.2031 43.0454 77.183 43.1044 77.1699 43.1646C77.0389 43.7669 76.9969 44.3803 77.0034 45.0253L77.0029 45.0252Z" fill="#F57158"/>
<path d="M46.9777 45.2792C46.7974 45.2756 46.6146 45.2786 46.4328 45.2671C46.1278 45.2479 45.9803 45.1238 45.9438 44.8191C45.9222 44.6391 45.9336 44.4499 45.9634 44.2703C45.9972 44.0667 46.1463 43.9544 46.3495 43.9281C46.4561 43.9143 46.5649 43.9157 46.6727 43.9143C47.4146 43.905 48.0618 43.6398 48.6068 43.1497C48.9032 42.8832 49.1687 42.5792 49.4262 42.2737C49.6743 41.9796 49.8841 41.6534 50.1296 41.3568C50.3154 41.1325 50.5226 40.9239 50.736 40.7252C50.8832 40.5881 51.0672 40.4995 51.2711 40.4695C51.5697 40.4257 51.7914 40.573 51.844 40.8691C51.8649 40.9862 51.8464 41.1135 51.8296 41.2337C51.7293 41.9507 51.6224 42.6669 51.5226 43.3839C51.5015 43.5355 51.5002 43.69 51.488 43.8698C51.6073 43.8878 51.7091 43.9141 51.8115 43.9165C52.0889 43.9231 52.3667 43.9126 52.6438 43.9215C53.0247 43.9337 53.1707 44.074 53.1982 44.4547C53.2082 44.5916 53.2031 44.7334 53.1792 44.8684C53.1356 45.1147 52.9905 45.2468 52.7373 45.2626C52.4916 45.278 52.2443 45.2679 51.9977 45.2702C51.8145 45.2719 51.6312 45.2754 51.4252 45.2786C51.4024 45.4182 51.3711 45.5351 51.3661 45.6531C51.3175 46.8101 51.3606 47.9639 51.4822 49.1156C51.5453 49.7142 51.6351 50.3077 51.7916 50.8891C51.8555 51.1265 51.9334 51.3611 52.0211 51.5909C52.1149 51.8366 52.2406 52.0664 52.436 52.2509C52.4805 52.293 52.5247 52.3376 52.5597 52.3876C52.7281 52.6287 52.6291 52.8962 52.3441 52.9521C52.2246 52.9755 52.0988 52.9721 51.9758 52.9724C51.2205 52.9741 50.465 52.9732 49.7097 52.9734C48.7693 52.9734 47.829 52.9736 46.8886 52.973C46.7654 52.973 46.6413 52.9763 46.5191 52.9634C46.3535 52.9458 46.2371 52.7937 46.2812 52.6354C46.3132 52.5203 46.3614 52.3929 46.4429 52.3112C46.9629 51.7887 47.1514 51.1212 47.2372 50.4285C47.4082 49.0479 47.4139 47.6617 47.2592 46.2775C47.2217 45.9415 47.1507 45.6116 46.9777 45.2789V45.2792Z" fill="#F57158"/>
<path d="M86.4097 52.9735C85.5929 52.9735 84.7761 52.9741 83.9593 52.9729C83.8363 52.9727 83.7113 52.9754 83.5908 52.9558C83.4377 52.9308 83.3355 52.7366 83.4051 52.5959C83.4513 52.5026 83.5249 52.4186 83.6005 52.3451C83.7218 52.2272 83.8594 52.1264 83.982 52.0098C84.404 51.6087 84.6203 51.1112 84.657 50.5336C84.6667 50.38 84.6697 50.2256 84.6699 50.0716C84.6711 49.2702 84.6705 48.4689 84.6703 47.6675C84.6703 47.5751 84.6673 47.4826 84.6671 47.3901C84.6653 46.6344 84.3695 46.0169 83.7957 45.5283C83.6788 45.4287 83.5546 45.333 83.4577 45.2159C83.3077 45.0346 83.3997 44.8066 83.6316 44.7611C83.7064 44.7463 83.7848 44.7473 83.8616 44.7461C84.7952 44.7312 85.6489 44.4473 86.4402 43.9672C86.7428 43.7836 87.0292 43.5736 87.3227 43.3752C87.5142 43.2457 87.699 43.1051 87.8981 42.9888C88.0563 42.8964 88.2263 42.8166 88.4005 42.761C88.7718 42.6428 88.8782 42.755 88.8077 43.1444C88.7228 43.6138 88.6358 44.0835 88.5767 44.5565C88.3832 46.103 88.2789 47.6546 88.3611 49.2141C88.3936 49.831 88.4736 50.4417 88.6433 51.037C88.7798 51.5159 88.9656 51.9704 89.3673 52.2993C89.391 52.3186 89.4136 52.3407 89.4318 52.3653C89.5164 52.4802 89.5847 52.601 89.5152 52.7482C89.4497 52.8869 89.3298 52.9519 89.1835 52.964C89.0609 52.9741 88.9371 52.9732 88.814 52.9732C88.0126 52.9739 87.2111 52.9735 86.4097 52.9735Z" fill="#F57158"/>
<path d="M26.5937 32.8613C26.7939 33.6102 27.3726 34.1613 28.0927 34.2761C28.963 34.4147 29.7428 34.2025 30.39 33.58C30.4343 33.5374 30.4719 33.4874 30.5177 33.4466C30.6197 33.3556 30.7139 33.35 30.808 33.4237C30.9237 33.5143 30.974 33.6347 30.9198 33.7444C30.8587 33.8681 30.7872 33.9886 30.706 34.1001C30.0463 35.0069 29.1483 35.5462 28.0517 35.7129C26.7697 35.9078 25.5978 35.6157 24.6029 34.7529C22.8945 33.2709 22.9385 30.7273 24.6866 29.294C25.8187 28.3659 27.6949 28.0013 29.1765 28.7111C29.627 28.9268 30.0327 29.2005 30.3473 29.5943C30.8653 30.2422 30.9133 30.9402 30.5451 31.6695C30.3236 32.1082 29.9758 32.4337 29.5521 32.6763C28.8075 33.1024 28.0104 33.1797 27.1813 33.0142C27.0034 32.9787 26.8294 32.9233 26.5937 32.8613ZM28.3552 30.6907C28.3363 30.3087 28.2883 29.9126 28.1296 29.5382C28.0446 29.3376 27.9356 29.1524 27.7534 29.0228C27.5447 28.8741 27.3553 28.8601 27.1592 29.0196C27.0187 29.1339 26.8788 29.2712 26.7942 29.4283C26.3598 30.2352 26.3165 31.0701 26.6807 31.915C26.7401 32.0529 26.8348 32.184 26.9399 32.2924C27.2616 32.624 27.6513 32.6058 27.9283 32.2405C28.0378 32.0962 28.1192 31.9241 28.183 31.7534C28.3079 31.4191 28.3463 31.0663 28.355 30.6907H28.3552Z" fill="#F57158"/>
<path d="M74.3415 25.0618C74.2149 25.1022 74.0895 25.1466 73.9617 25.1823C72.2123 25.6696 71.037 26.7673 70.4449 28.4858C70.3396 28.7915 70.2412 29.0997 70.131 29.4036C70.0948 29.5033 70.034 29.5947 69.9785 29.6863C69.9651 29.7083 69.9275 29.7157 69.872 29.7454C69.8371 29.6897 69.7859 29.6365 69.7676 29.5738C69.6344 29.1155 69.5294 28.6478 69.3744 28.1974C69.1059 27.4173 68.7041 26.7091 68.1328 26.1053C67.6232 25.5668 67.0225 25.1804 66.2956 25.0027C66.2254 24.9856 66.1598 24.9494 66.0952 24.9234C66.1134 24.7771 66.2141 24.7779 66.2963 24.7566C66.5344 24.6951 66.7821 24.6593 67.0101 24.5716C68.3625 24.0519 69.263 23.1026 69.6853 21.7101C69.7294 21.5647 69.7686 21.4179 69.8162 21.25C70.0401 21.2687 70.2054 21.3574 70.3287 21.5261C70.4742 21.7253 70.6155 21.9277 70.7614 22.1265C71.1358 22.6367 71.5318 23.1286 71.9843 23.5733C72.5986 24.1769 73.2922 24.6489 74.1299 24.8873C74.2009 24.9075 74.268 24.9411 74.337 24.9685C74.3384 24.9996 74.34 25.0307 74.3415 25.0618Z" fill="#F57158"/>
<path d="M85.4747 42.8939C84.4474 42.9363 83.6293 42.0788 83.8636 40.9225C84.0932 39.7892 85.133 38.9063 86.2855 38.8487C87.0876 38.8086 87.7411 39.2516 87.9456 39.9743C88.0227 40.2471 88.0255 40.5268 87.9717 40.7998C87.7159 42.0996 86.4503 42.9298 85.4746 42.8938L85.4747 42.8939Z" fill="#F57158"/>
<path d="M77.4399 27.6913C77.8916 27.4327 78.2941 27.2438 78.6066 26.9204C78.9211 26.5948 79.1634 26.2269 79.3373 25.8092C79.5104 25.3936 79.5308 24.9482 79.5874 24.5175C79.8207 24.478 79.9515 24.6071 80.0957 24.7267C80.4862 25.0508 80.8746 25.3789 81.2834 25.679C81.7337 26.0096 82.236 26.2438 82.7886 26.3534C82.9667 26.3887 83.1485 26.4058 83.321 26.4301C83.3559 26.5142 83.326 26.558 83.2639 26.5892C83.2089 26.6169 83.1545 26.6459 83.1008 26.6759C81.9226 27.3347 81.2805 28.3402 81.1563 29.6811C81.1379 29.8801 81.1217 30.0795 81.094 30.2772C81.0818 30.3638 81.043 30.4467 81.0195 30.5212C80.8936 30.5435 80.8692 30.4617 80.834 30.3969C80.6944 30.1402 80.5639 29.8782 80.4158 29.6266C80.1804 29.2265 79.8971 28.8622 79.5477 28.5539C79.0383 28.1044 78.4607 27.8054 77.7692 27.7604C77.6844 27.7549 77.6013 27.7259 77.4399 27.6912V27.6913Z" fill="#F57158"/>
<path d="M76.8107 22.7532C76.7581 22.5813 76.7218 22.466 76.6876 22.35C76.5782 21.9799 76.4441 21.6202 76.2437 21.288C75.964 20.8246 75.5905 20.4738 75.0681 20.299C75.0162 20.2816 74.9671 20.2551 74.8955 20.2235C76.2182 19.6602 76.2832 19.5477 76.8449 18.3081C76.9325 18.3725 77.0292 18.4202 77.0932 18.4956C77.2124 18.636 77.3093 18.795 77.4214 18.9417C77.8577 19.5137 78.3582 20.0054 79.0639 20.2167C79.0791 20.378 78.9576 20.3575 78.8822 20.3807C78.1872 20.5945 77.6534 21.0104 77.3086 21.652C77.2076 21.8401 77.1463 22.0498 77.0696 22.2507C77.0102 22.4062 76.9856 22.5784 76.8109 22.7531L76.8107 22.7532Z" fill="#F57158"/>
<path d="M65.2035 20.0127C65.1928 20.1767 65.0481 20.2992 64.8912 20.2768C64.75 20.2567 64.6541 20.1342 64.6599 19.9816C64.6664 19.8114 64.798 19.7004 64.9687 19.7213C65.1094 19.7384 65.213 19.867 65.2037 20.0126L65.2035 20.0127Z" fill="#F57158"/>
<path d="M75.016 30.297C75.0271 30.442 74.9245 30.5695 74.7814 30.5883C74.614 30.6103 74.4769 30.4952 74.4723 30.3288C74.4682 30.1787 74.5665 30.0516 74.7036 30.0302C74.8546 30.0067 75.0035 30.1338 75.0159 30.2969L75.016 30.297Z" fill="#F57158"/>
<path d="M83.2977 19.8348C83.2941 19.9909 83.1929 20.0993 83.0454 20.1049C82.8808 20.1112 82.7535 19.9835 82.759 19.8178C82.7644 19.6526 82.8997 19.5322 83.0624 19.5477C83.2046 19.5614 83.3014 19.6795 83.2977 19.8348Z" fill="#F57158"/>
</svg>
