<svg width="80" height="80" viewBox="0 0 80 80" fill="none" xmlns="http://www.w3.org/2000/svg">
<rect width="80" height="80" rx="10" fill="white"/>
<path d="M29.5923 42.3269C29.5923 37.1395 33.8126 32.9192 39 32.9192C44.1874 32.9192 48.4076 37.1395 48.4076 42.3269C48.4076 42.7165 48.3835 43.1088 48.336 43.4928C48.3112 43.6926 48.2081 43.8744 48.0493 43.9982C47.8906 44.1219 47.6891 44.1776 47.4893 44.1529C47.2895 44.1282 47.1077 44.0251 46.9839 43.8663C46.8601 43.7075 46.8045 43.5061 46.8292 43.3063C46.869 42.9839 46.8893 42.6545 46.8893 42.3269C46.8893 37.9766 43.3502 34.4375 39 34.4375C34.6497 34.4375 31.1106 37.9766 31.1106 42.3269C31.1106 42.6541 31.1308 42.9836 31.1707 43.3064C31.1834 43.4055 31.1763 43.5062 31.15 43.6026C31.1237 43.699 31.0785 43.7892 31.0172 43.8682C30.9559 43.9471 30.8796 44.0131 30.7927 44.0625C30.7058 44.1119 30.61 44.1436 30.5109 44.1559C30.4117 44.1681 30.311 44.1607 30.2147 44.134C30.1184 44.1073 30.0283 44.0618 29.9497 44.0001C29.871 43.9385 29.8052 43.862 29.7562 43.7749C29.7072 43.6878 29.6758 43.5919 29.6639 43.4926C29.6164 43.1083 29.5923 42.716 29.5923 42.3268V42.3269ZM16.5183 56.3853V56.8654H27.1098C27.3112 56.8654 27.5042 56.9454 27.6466 57.0877C27.789 57.2301 27.869 57.4232 27.869 57.6245C27.869 57.8259 27.789 58.0189 27.6466 58.1613C27.5042 58.3037 27.3112 58.3837 27.1098 58.3837H15.7591C15.5578 58.3837 15.3647 58.3037 15.2223 58.1613C15.08 58.0189 15 57.8259 15 57.6245V56.3503C15 56.3275 15.001 56.3049 15.003 56.2822C15.1918 54.1877 16.1516 52.2477 17.7057 50.8198C18.5466 50.0468 19.5358 49.4526 20.6132 49.0732C19.629 48.2607 19.0006 47.0318 19.0006 45.6588C19.0006 43.2183 20.9861 41.2329 23.4267 41.2329C25.8672 41.2329 27.8526 43.2183 27.8526 45.6588C27.8526 47.0324 27.2237 48.2618 26.2386 49.0743C27.2468 49.4289 28.1785 49.9716 28.9843 50.6736C29.136 50.806 29.229 50.9932 29.2427 51.1941C29.2563 51.395 29.1897 51.5931 29.0573 51.7448C28.9249 51.8965 28.7377 51.9894 28.5368 52.0031C28.336 52.0168 28.1379 51.9501 27.9861 51.8178C26.7227 50.716 25.1029 50.1092 23.4266 50.1097C19.8215 50.1097 16.8574 52.805 16.5183 56.3853ZM23.4267 48.5665C25.03 48.5665 26.3344 47.2622 26.3344 45.6588C26.3344 44.0553 25.03 42.7511 23.4267 42.7511C21.8233 42.7511 20.5189 44.0554 20.5189 45.6588C20.5189 47.2621 21.8233 48.5665 23.4267 48.5665ZM63 56.3503V57.6245C63 57.8259 62.92 58.0189 62.7777 58.1613C62.6353 58.3037 62.4422 58.3837 62.2409 58.3837H50.8902C50.6889 58.3837 50.4958 58.3037 50.3534 58.1613C50.211 58.0189 50.131 57.8259 50.131 57.6245C50.131 57.4232 50.211 57.2301 50.3534 57.0877C50.4958 56.9454 50.6889 56.8654 50.8902 56.8654H61.4817V56.3853C61.1426 52.8051 58.1784 50.1096 54.5733 50.1096C52.897 50.1091 51.2772 50.7159 50.0139 51.8177C49.8617 51.9469 49.6648 52.0111 49.4657 51.9962C49.2666 51.9814 49.0814 51.8887 48.9501 51.7382C48.8189 51.5878 48.7521 51.3917 48.7644 51.1924C48.7767 50.9932 48.867 50.8067 49.0157 50.6735C49.8214 49.9714 50.7532 49.4287 51.7614 49.0742C50.7764 48.2617 50.1474 47.0323 50.1474 45.6588C50.1474 43.2182 52.1328 41.2328 54.5733 41.2328C57.0139 41.2328 58.9994 43.2182 58.9994 45.6588C58.9994 47.0318 58.371 48.2606 57.3867 49.0731C58.4641 49.4525 59.4533 50.0467 60.2943 50.8197C61.8484 52.2477 62.8082 54.1876 62.997 56.2821C62.999 56.3048 63 56.3275 63 56.3503ZM57.4811 45.6588C57.4811 44.0554 56.1767 42.7511 54.5733 42.7511C52.9699 42.7511 51.6656 44.0554 51.6656 45.6588C51.6656 47.2621 52.97 48.5665 54.5733 48.5665C56.1767 48.5665 57.4811 47.2622 57.4811 45.6588ZM49.5587 55.9274C49.5606 55.95 49.5617 55.9727 49.5617 55.9955V57.6245C49.5617 57.8259 49.4817 58.0189 49.3393 58.1613C49.197 58.3037 49.0039 58.3837 48.8025 58.3837H29.1974C28.996 58.3837 28.8029 58.3037 28.6606 58.1613C28.5182 58.0189 28.4382 57.8259 28.4382 57.6245V55.9955C28.4382 55.9727 28.4393 55.95 28.4413 55.9274C28.6778 53.3021 29.8809 50.8705 31.8289 49.0805C32.9941 48.0098 34.3664 47.2251 35.8475 46.7647C34.4602 45.7764 33.5528 44.156 33.5528 42.3268C33.5528 39.3232 35.9964 36.8797 39 36.8797C42.0035 36.8797 44.4471 39.3232 44.4471 42.3268C44.4471 44.1561 43.5397 45.7764 42.1524 46.7647C43.6334 47.2251 45.0058 48.0099 46.171 49.0805C48.119 50.8705 49.3221 53.3021 49.5587 55.9274ZM39 46.2555C41.1664 46.2555 42.9288 44.4931 42.9288 42.3268C42.9288 40.1605 41.1664 38.3979 39 38.3979C36.8336 38.3979 35.0711 40.1604 35.0711 42.3268C35.0711 44.4932 36.8336 46.2555 39 46.2555ZM48.0434 56.0302C47.6039 51.339 43.7219 47.8055 39 47.8055C34.278 47.8055 30.3961 51.3391 29.9565 56.0302V56.8653H48.0434V56.0302ZM38.4058 29.6649C38.4769 29.7543 38.5673 29.8265 38.6702 29.8762C38.7731 29.9258 38.8858 29.9516 39 29.9516C39.1143 29.9516 39.227 29.9258 39.3299 29.8762C39.4328 29.8265 39.5232 29.7543 39.5943 29.6649L41.2493 27.5834C41.3746 27.4258 41.4322 27.2249 41.4093 27.0249C41.3865 26.8248 41.2851 26.642 41.1275 26.5167C40.9699 26.3914 40.769 26.3339 40.569 26.3567C40.3689 26.3795 40.1862 26.4809 40.0609 26.6385L39.7592 27.018V21.3754C39.7592 21.174 39.6792 20.9809 39.5368 20.8386C39.3945 20.6962 39.2014 20.6162 39 20.6162C38.7987 20.6162 38.6056 20.6962 38.4633 20.8386C38.3209 20.9809 38.2409 21.174 38.2409 21.3754V27.0179L37.9392 26.6385C37.8772 26.5604 37.8004 26.4954 37.7132 26.447C37.6261 26.3987 37.5302 26.368 37.4312 26.3566C37.3321 26.3453 37.2318 26.3537 37.136 26.3811C37.0402 26.4086 36.9507 26.4547 36.8727 26.5167C36.7946 26.5788 36.7296 26.6556 36.6812 26.7428C36.6329 26.83 36.6022 26.9258 36.5909 27.0249C36.5795 27.1239 36.5879 27.2242 36.6153 27.3201C36.6428 27.4159 36.6889 27.5054 36.7509 27.5834L38.4058 29.6649ZM48.2873 33.7985C48.3158 33.7985 48.3446 33.7969 48.3734 33.7936L51.0155 33.4921C51.1146 33.4808 51.2104 33.4501 51.2976 33.4018C51.3848 33.3534 51.4616 33.2884 51.5237 33.2103C51.5857 33.1323 51.6318 33.0428 51.6592 32.947C51.6867 32.8512 51.695 32.7509 51.6837 32.6518C51.6361 32.2353 51.2605 31.9357 50.8434 31.9837L50.3618 32.0386L54.3517 28.0487C54.4222 27.9782 54.4781 27.8945 54.5163 27.8024C54.5544 27.7103 54.5741 27.6116 54.5741 27.5119C54.5741 27.4122 54.5544 27.3135 54.5163 27.2214C54.4781 27.1293 54.4222 27.0456 54.3517 26.9752C54.2093 26.8328 54.0162 26.7528 53.8149 26.7528C53.6136 26.7528 53.4205 26.8328 53.2782 26.9752L49.2883 30.965L49.3432 30.4834C49.3546 30.3844 49.3462 30.2841 49.3188 30.1882C49.2913 30.0924 49.2453 30.0029 49.1832 29.9249C49.1212 29.8469 49.0444 29.7818 48.9572 29.7335C48.87 29.6851 48.7742 29.6545 48.6751 29.6432C48.2582 29.5962 47.8824 29.8947 47.8348 30.3113L47.5333 32.9533C47.5203 33.0668 47.5331 33.1818 47.5708 33.2896C47.6084 33.3975 47.67 33.4954 47.7508 33.5762C47.8212 33.6467 47.9049 33.7026 47.997 33.7407C48.0891 33.7789 48.1878 33.7985 48.2875 33.7985H48.2873ZM27.6383 32.0385L27.1568 31.9836C26.9568 31.9608 26.7559 32.0183 26.5983 32.1436C26.4407 32.2689 26.3393 32.4517 26.3165 32.6517C26.2937 32.8518 26.3513 33.0527 26.4766 33.2102C26.6019 33.3678 26.7846 33.4692 26.9847 33.492L29.6267 33.7936C29.7402 33.8065 29.8552 33.7937 29.9631 33.7561C30.0709 33.7185 30.1689 33.657 30.2497 33.5762C30.3305 33.4954 30.392 33.3975 30.4296 33.2896C30.4673 33.1818 30.4801 33.0668 30.4671 32.9533L30.1655 30.3112C30.1543 30.2121 30.1236 30.1163 30.0752 30.0291C30.0269 29.9419 29.9619 29.8651 29.8838 29.8031C29.8058 29.741 29.7163 29.6949 29.6205 29.6675C29.5246 29.64 29.4243 29.6317 29.3253 29.6431C29.1252 29.6659 28.9425 29.7673 28.8172 29.9248C28.6919 30.0824 28.6343 30.2833 28.6571 30.4833L28.7121 30.965L24.7221 26.9751C24.5798 26.8327 24.3867 26.7527 24.1854 26.7527C23.984 26.7527 23.791 26.8327 23.6486 26.9751C23.5781 27.0455 23.5222 27.1292 23.484 27.2213C23.4459 27.3134 23.4262 27.4121 23.4262 27.5118C23.4262 27.6115 23.4459 27.7102 23.484 27.8023C23.5222 27.8944 23.5781 27.9781 23.6486 28.0486L27.6385 32.0384L27.6383 32.0385Z" fill="black"/>
</svg>
