<svg width="100" height="100" viewBox="0 0 100 100" fill="none" xmlns="http://www.w3.org/2000/svg">
<path d="M100 50C100 77.6142 77.6142 100 50 100C22.3858 100 0 77.6142 0 50C0 22.3858 22.3858 0 50 0C77.6142 0 100 22.3858 100 50Z" fill="#0075F2"/>
<g clip-path="url(#clip0_7280_7503)">
<path fill-rule="evenodd" clip-rule="evenodd" d="M32.1697 19.875H63.8303C65.0759 19.875 66.0918 20.8909 66.0918 22.1365V25.7388H29.9082V22.1365C29.9082 20.8909 30.9241 19.875 32.1697 19.875ZM56.0155 70.0492C54.6777 68.6395 53.8612 66.1789 53.691 62.7064H42.3091C42.1389 66.1789 41.3224 68.6395 39.9846 70.0492H56.0155ZM23.3906 22.6546C21.4543 22.6546 19.875 24.2339 19.875 26.1702V57.7846C19.875 59.721 21.4543 61.3002 23.3906 61.3002H72.6094C74.5457 61.3002 76.125 59.7209 76.125 57.7846V26.1702C76.125 24.2339 74.5458 22.6546 72.6094 22.6546H67.498V24.7639H72.6094C73.3813 24.7639 74.0156 25.3984 74.0156 26.1702V54.6197C74.0156 55.3916 73.3812 56.0259 72.6094 56.0259H23.3906C22.6216 56.0259 21.9844 55.39 21.9844 54.6197V26.1702C21.9844 25.4002 22.6196 24.7639 23.3906 24.7639H28.502V22.6546H23.3906ZM34.3338 71.4554H61.6662C62.9503 71.4554 64.001 72.5062 64.001 73.7903V74.9532C64.001 75.5987 63.4746 76.1251 62.8291 76.1251H33.1709C32.5254 76.1251 31.999 75.5987 31.999 74.9532V73.7903C31.999 72.5061 33.0496 71.4554 34.3338 71.4554ZM23.3906 54.6196V26.1702H28.502V46.7221C28.502 48.7438 30.148 50.3898 32.1697 50.3898H63.8303C65.852 50.3898 67.498 48.7438 67.498 46.7221V26.1702H72.6094V54.6197H23.3906V54.6196ZM29.9082 27.1452V46.7221C29.9082 47.9677 30.9241 48.9836 32.1697 48.9836H63.8303C65.0759 48.9836 66.0918 47.9677 66.0918 46.7221V27.1452H29.9082ZM41.6095 41.0394C42.1587 41.5886 42.1587 42.4788 41.6095 43.028C41.0604 43.5771 40.1701 43.5771 39.621 43.028L35.3002 38.7071C34.751 38.158 34.751 37.2677 35.3002 36.7186L39.621 32.3978C40.1701 31.8486 41.0604 31.8486 41.6095 32.3978C42.1587 32.9469 42.1587 33.8372 41.6095 34.3863L38.283 37.7128L41.6095 41.0394ZM51.2532 30.9982L47.4606 45.1527C47.2603 45.902 46.4905 46.3472 45.7412 46.1469C44.9919 45.9468 44.5467 45.177 44.747 44.4275L48.5396 30.273C48.7398 29.5238 49.5097 29.0786 50.259 29.2788C51.0083 29.479 51.4535 30.2489 51.2532 30.9982ZM60.7 38.7071L56.3791 43.028C55.83 43.5771 54.9397 43.5771 54.3906 43.028C53.8414 42.4788 53.8414 41.5886 54.3906 41.0394L57.7171 37.7129L54.3906 34.3864C53.8414 33.8373 53.8414 32.947 54.3906 32.3979C54.9397 31.8488 55.83 31.8488 56.3791 32.3979L60.7 36.7187C61.2491 37.2679 61.2491 38.158 60.7 38.7071ZM53.8093 24.1463H62.5009C62.7628 24.1463 63.0141 24.0422 63.1993 23.857C63.3845 23.6718 63.4886 23.4205 63.4886 23.1586C63.4886 22.8967 63.3845 22.6454 63.1993 22.4602C63.0141 22.275 62.7628 22.1709 62.5009 22.1709H53.8093C53.5474 22.1709 53.2962 22.275 53.111 22.4602C52.9257 22.6454 52.8217 22.8967 52.8217 23.1586C52.8217 23.4205 52.9257 23.6718 53.111 23.857C53.2962 24.0422 53.5474 24.1463 53.8093 24.1463ZM42.191 22.1709C42.0613 22.171 41.9329 22.1965 41.813 22.2462C41.6932 22.2958 41.5843 22.3686 41.4926 22.4603C41.4009 22.5521 41.3281 22.661 41.2785 22.7808C41.2289 22.9007 41.2033 23.0291 41.2034 23.1588C41.2034 23.2885 41.2289 23.417 41.2786 23.5368C41.3282 23.6567 41.401 23.7655 41.4928 23.8573C41.5845 23.949 41.6934 24.0217 41.8132 24.0713C41.9331 24.121 42.0615 24.1465 42.1912 24.1465C42.4532 24.1465 42.7045 24.0424 42.8897 23.8571C43.0749 23.6718 43.1789 23.4206 43.1789 23.1586C43.1789 22.8966 43.0748 22.6454 42.8895 22.4602C42.7042 22.2749 42.453 22.1709 42.191 22.1709ZM37.8452 22.1709C37.5833 22.1709 37.3321 22.275 37.1469 22.4602C36.9616 22.6454 36.8576 22.8967 36.8576 23.1586C36.8576 23.4205 36.9616 23.6718 37.1469 23.857C37.3321 24.0422 37.5833 24.1463 37.8452 24.1463C38.1072 24.1463 38.3584 24.0422 38.5436 23.857C38.7288 23.6718 38.8329 23.4205 38.8329 23.1586C38.8329 22.8967 38.7288 22.6454 38.5436 22.4602C38.3584 22.275 38.1072 22.1709 37.8452 22.1709ZM33.4995 22.1709C33.2375 22.1709 32.9863 22.275 32.8011 22.4602C32.6159 22.6454 32.5118 22.8967 32.5118 23.1586C32.5118 23.4205 32.6159 23.6718 32.8011 23.857C32.9863 24.0422 33.2375 24.1463 33.4995 24.1463C33.7614 24.1463 34.0126 24.0422 34.1978 23.857C34.3831 23.6718 34.4871 23.4205 34.4871 23.1586C34.4871 22.8967 34.3831 22.6454 34.1978 22.4602C34.0126 22.275 33.7614 22.1709 33.4995 22.1709Z" fill="white"/>
</g>
<defs>
<clipPath id="clip0_7280_7503">
<rect width="60" height="60" fill="white" transform="translate(20 20)"/>
</clipPath>
</defs>
</svg>
