<svg width="80" height="80" viewBox="0 0 80 80" fill="none" xmlns="http://www.w3.org/2000/svg">
<rect width="80" height="80" rx="10" fill="white"/>
<path d="M58.7863 33.7962C59.0874 34.9296 60.122 35.7674 61.3488 35.7674C62.8108 35.7674 64.0001 34.578 64.0001 33.116C64.0001 31.6541 62.8108 30.4646 61.3488 30.4646C60.122 30.4646 59.0874 31.3024 58.7863 32.4359H57.3494C57.169 32.4359 56.996 32.5075 56.8684 32.6351C56.7409 32.7626 56.6692 32.9356 56.6692 33.116V39.3198H53.8402V25.1616H58.7863C59.0874 26.2951 60.122 27.1328 61.3488 27.1328C62.8108 27.1328 64.0001 25.9434 64.0001 24.4814C64.0001 23.0195 62.8108 21.8301 61.3488 21.8301C60.122 21.8301 59.0874 22.6678 58.7863 23.8013H53.16C52.9796 23.8013 52.8066 23.8729 52.6791 24.0005C52.5515 24.1281 52.4799 24.3011 52.4799 24.4814V39.3198H51.3963C51.2159 39.3198 51.0429 39.3915 50.9153 39.519C50.7878 39.6466 50.7161 39.8196 50.7161 40C50.7161 45.9087 45.9089 50.7158 40.0002 50.7158C34.0916 50.7158 29.2843 45.9087 29.2843 40C29.2843 39.8196 29.2126 39.6466 29.0851 39.519C28.9575 39.3915 28.7845 39.3198 28.6041 39.3198H27.5204V24.4814C27.5204 24.3011 27.4488 24.1281 27.3212 24.0005C27.1936 23.8729 27.0206 23.8013 26.8402 23.8013H21.2139C20.9128 22.6678 19.8782 21.8301 18.6514 21.8301C17.1894 21.8301 16 23.0195 16 24.4814C16 25.9434 17.1894 27.1328 18.6514 27.1328C19.8782 27.1328 20.9128 26.2951 21.2139 25.1616H26.16V39.3198H23.331V33.116C23.331 32.9356 23.2593 32.7626 23.1318 32.6351C23.0042 32.5075 22.8312 32.4359 22.6508 32.4359H21.2139C20.9128 31.3024 19.8782 30.4646 18.6514 30.4646C17.1894 30.4647 16 31.6541 16 33.116C16 34.578 17.1894 35.7674 18.6514 35.7674C19.8782 35.7674 20.9128 34.9296 21.2139 33.7962H21.9707V39.3198H16.6802C16.4998 39.3198 16.3268 39.3915 16.1992 39.519C16.0717 39.6466 16 39.8196 16 40V42.3318C16 43.5515 16.9924 44.5438 18.2121 44.5438C20.0562 44.5438 21.641 45.6044 22.3482 47.3115C23.0552 49.0187 22.6845 50.8894 21.3805 52.1933C20.9628 52.6111 20.7327 53.1667 20.7327 53.7575C20.7327 54.3484 20.9628 54.9039 21.3805 55.3217L24.6784 58.6196C25.0962 59.0373 25.6517 59.2674 26.2426 59.2674C26.8334 59.2674 27.389 59.0373 27.8069 58.6196C29.1126 57.3137 30.9839 56.9415 32.69 57.6483C34.3964 58.355 35.4563 59.9414 35.4563 61.788C35.4563 63.0076 36.4486 64 37.6683 64H42.332C43.5518 64 44.544 63.0077 44.544 61.788C44.544 59.9439 45.6045 58.359 47.3117 57.6519C49.0187 56.9447 50.8895 57.3156 52.1934 58.6195C52.3984 58.8256 52.6421 58.9889 52.9106 59.1001C53.1791 59.2113 53.467 59.2681 53.7576 59.2673C54.0482 59.2681 54.3361 59.2113 54.6046 59.1001C54.8731 58.9889 55.1169 58.8256 55.3219 58.6195L58.6198 55.3216C59.4822 54.4592 59.4822 53.0558 58.6198 52.1932C57.3157 50.8893 56.945 49.0186 57.6521 47.3113C58.3593 45.6042 59.9441 44.5437 61.7881 44.5437C63.0078 44.5437 64.0001 43.5515 64.0001 42.3317V40C64.0001 39.8196 63.9284 39.6466 63.8009 39.519C63.6733 39.3915 63.5003 39.3198 63.3199 39.3198H58.0295V33.7962H58.7863ZM61.3488 31.8251C62.0606 31.8251 62.6398 32.4042 62.6398 33.1161C62.6398 33.8281 62.0606 34.4072 61.3488 34.4072C60.6369 34.4072 60.0578 33.8281 60.0578 33.1161C60.0578 32.4042 60.6369 31.8251 61.3488 31.8251ZM61.3488 23.1904C62.0606 23.1904 62.6398 23.7695 62.6398 24.4814C62.6398 25.1934 62.0606 25.7725 61.3488 25.7725C60.6369 25.7725 60.0578 25.1934 60.0578 24.4814C60.0578 23.7695 60.6369 23.1904 61.3488 23.1904ZM18.6514 25.7725C17.9395 25.7725 17.3603 25.1934 17.3603 24.4814C17.3603 23.7695 17.9395 23.1904 18.6514 23.1904C19.3632 23.1904 19.9424 23.7695 19.9424 24.4814C19.9424 25.1934 19.3632 25.7725 18.6514 25.7725ZM18.6514 34.4071C17.9395 34.4071 17.3603 33.828 17.3603 33.116C17.3603 32.4041 17.9395 31.825 18.6514 31.825C19.3632 31.825 19.9424 32.4041 19.9424 33.116C19.9424 33.828 19.3632 34.4071 18.6514 34.4071ZM62.6398 42.3318C62.6398 42.8015 62.2577 43.1835 61.7881 43.1835C59.3834 43.1835 57.317 44.5658 56.3954 46.7909C55.4737 49.0161 55.9574 51.4548 57.6578 53.1552C57.9899 53.4873 57.9899 54.0277 57.6578 54.3598L54.3598 57.6577C54.2809 57.737 54.1871 57.7999 54.0837 57.8427C53.9803 57.8855 53.8695 57.9073 53.7576 57.907C53.6457 57.9073 53.5349 57.8854 53.4315 57.8426C53.3282 57.7998 53.2343 57.737 53.1554 57.6577C51.4549 55.9573 49.0161 55.4734 46.7912 56.3952C44.5661 57.3168 43.1837 59.3832 43.1837 61.788C43.1837 62.2576 42.8016 62.6397 42.332 62.6397H37.6683C37.1986 62.6397 36.8165 62.2576 36.8165 61.788C36.8165 59.3806 35.4348 57.3127 33.2107 56.3915C32.4652 56.0827 31.696 55.932 30.938 55.932C29.4346 55.932 27.9766 56.5259 26.8449 57.6577C26.6841 57.8185 26.4701 57.907 26.2426 57.907C26.015 57.907 25.8012 57.8185 25.6403 57.6577L22.3424 54.3598C22.1816 54.1989 22.0931 53.9851 22.0931 53.7575C22.0931 53.53 22.1816 53.3161 22.3425 53.1552C24.0429 51.4548 24.5267 49.0161 23.6049 46.7909C22.6833 44.5658 20.6169 43.1835 18.2121 43.1835C17.7425 43.1835 17.3603 42.8015 17.3603 42.3318V40.6801H27.9428C28.2971 47.0236 33.5697 52.0762 40.0001 52.0762C46.4306 52.0762 51.7032 47.0235 52.0575 40.6801H62.6398V42.3318ZM40 48.8689C44.8904 48.8689 48.869 44.8903 48.869 40C48.869 39.8196 48.7973 39.6466 48.6698 39.519C48.5422 39.3915 48.3692 39.3198 48.1888 39.3198H31.8114C31.631 39.3198 31.458 39.3915 31.3304 39.519C31.2029 39.6466 31.1312 39.8196 31.1312 40C31.1312 44.8903 35.1098 48.8689 40 48.8689ZM47.4781 40.6801C47.1334 44.5029 43.9112 47.5086 40 47.5086C36.089 47.5086 32.8668 44.5029 32.522 40.6801H47.4781ZM32.4793 23.9187L35.315 23.9188V36.8761C35.315 37.0565 35.3866 37.2295 35.5142 37.357C35.6418 37.4846 35.8148 37.5562 35.9951 37.5562H44.0053C44.1857 37.5562 44.3587 37.4846 44.4863 37.357C44.6138 37.2295 44.6855 37.0565 44.6855 36.8761V23.9188L47.521 23.9187C47.6594 23.9186 47.7946 23.8763 47.9083 23.7974C48.0221 23.7185 48.1091 23.6068 48.1577 23.4772C48.2063 23.3475 48.2141 23.2062 48.1803 23.0719C48.1464 22.9377 48.0723 22.817 47.9681 22.7259L40.4473 16.1675C40.3234 16.0595 40.1646 16 40.0003 16C39.8359 16 39.6771 16.0595 39.5533 16.1675L32.0324 22.7259C31.9281 22.817 31.854 22.9376 31.8201 23.0719C31.7862 23.2061 31.794 23.3475 31.8426 23.4771C31.8912 23.6068 31.9782 23.7185 32.0919 23.7974C32.2057 23.8763 32.3408 23.9186 32.4793 23.9187ZM40.0001 17.5826L45.7061 22.5583H44.0053C43.8249 22.5583 43.6519 22.63 43.5244 22.7576C43.3968 22.8851 43.3252 23.0581 43.3252 23.2385V36.1959H36.6753V23.2386C36.6753 23.0582 36.6036 22.8852 36.4761 22.7576C36.3485 22.6301 36.1755 22.5584 35.9951 22.5584H34.2942L40.0001 17.5826Z" fill="black"/>
</svg>
