<svg width="80" height="80" viewBox="0 0 80 80" fill="none" xmlns="http://www.w3.org/2000/svg">
<rect width="80" height="80" rx="10" fill="#FEFEFB"/>
<path d="M32.6652 27.2707C32.5273 27.6951 32.663 28.15 33.0108 28.4296L36.1079 30.9189L35.0655 34.7532C34.9485 35.1837 35.1061 35.6314 35.4673 35.8941C35.8286 36.1562 36.3029 36.1677 36.6763 35.9234L40.0007 33.7472L43.3253 35.9235C43.4986 36.0377 43.7015 36.0988 43.909 36.0991C44.1338 36.0988 44.3527 36.027 44.5341 35.8941C44.8955 35.6317 45.0532 35.1837 44.9359 34.7532L43.8935 30.919L46.9903 28.4298C47.3384 28.1503 47.4742 27.6953 47.3362 27.2707C47.1983 26.846 46.821 26.5577 46.3753 26.5362L42.4065 26.3427L40.9962 22.6281C40.8378 22.2108 40.447 21.9411 40.0006 21.9411C39.5543 21.9411 39.1635 22.2107 39.0052 22.628L37.5947 26.3428L33.6263 26.5362C33.1803 26.5577 32.8031 26.846 32.6652 27.2707ZM37.9523 27.827C38.1592 27.817 38.3587 27.7467 38.5263 27.625C38.6939 27.5032 38.8223 27.3351 38.8958 27.1414L40.0005 24.2319L41.1053 27.1417C41.1789 27.3353 41.3073 27.5033 41.4749 27.625C41.6425 27.7467 41.8419 27.8169 42.0488 27.827L45.1573 27.9786L42.7314 29.9283C42.5699 30.0581 42.4498 30.2322 42.3858 30.4292C42.3218 30.6262 42.3166 30.8377 42.371 31.0376L43.1875 34.0407L40.5835 32.3361C40.4101 32.2227 40.2075 32.1623 40.0003 32.1623C39.7931 32.1623 39.5905 32.2227 39.4171 32.3362L36.8133 34.0407L37.6298 31.0378C37.6842 30.8378 37.6791 30.6263 37.6151 30.4293C37.551 30.2322 37.4309 30.0581 37.2693 29.9283L34.8436 27.9787L37.9523 27.827ZM39.2505 19.5023V16.75C39.2505 16.5511 39.3296 16.3603 39.4702 16.2197C39.6109 16.079 39.8016 16 40.0005 16C40.1995 16 40.3902 16.079 40.5309 16.2197C40.6715 16.3603 40.7505 16.5511 40.7505 16.75V19.5023C40.7505 19.7012 40.6715 19.892 40.5309 20.0326C40.3902 20.1733 40.1995 20.2523 40.0005 20.2523C39.8016 20.2523 39.6109 20.1733 39.4702 20.0326C39.3296 19.892 39.2505 19.7012 39.2505 19.5023ZM43.8179 23.9459C43.6848 23.798 43.6159 23.6034 43.6263 23.4048C43.6367 23.2061 43.7256 23.0198 43.8734 22.8867L46.9405 20.125C47.0137 20.0591 47.0991 20.0082 47.192 19.9754C47.2848 19.9425 47.3832 19.9282 47.4816 19.9333C47.5799 19.9385 47.6763 19.963 47.7652 20.0054C47.8541 20.0478 47.9338 20.1073 47.9997 20.1804C48.0656 20.2536 48.1165 20.3391 48.1493 20.4319C48.1822 20.5248 48.1965 20.6232 48.1913 20.7215C48.1862 20.8199 48.1617 20.9163 48.1193 21.0052C48.0769 21.0941 48.0174 21.1738 47.9442 21.2397L44.8771 24.0014C44.7396 24.1256 44.5608 24.1942 44.3755 24.194C44.2703 24.1942 44.1663 24.1721 44.0702 24.1294C43.9742 24.0866 43.8882 24.0241 43.8179 23.9459ZM32.0013 20.1805C32.0672 20.1073 32.1469 20.0478 32.2358 20.0054C32.3247 19.963 32.4211 19.9385 32.5195 19.9333C32.6178 19.9282 32.7163 19.9425 32.8091 19.9753C32.902 20.0082 32.9874 20.0591 33.0606 20.125L36.1277 22.8867C36.2756 23.0198 36.3644 23.2062 36.3748 23.4048C36.3852 23.6035 36.3163 23.7981 36.1832 23.9459C36.0501 24.0937 35.8637 24.1826 35.6651 24.193C35.4664 24.2034 35.2718 24.1345 35.124 24.0014L32.0568 21.2397C31.909 21.1066 31.8201 20.9202 31.8097 20.7216C31.7993 20.5229 31.8682 20.3283 32.0013 20.1805ZM49.6225 28.4296L52.7195 30.9189L51.6771 34.7532C51.5601 35.1837 51.7177 35.6314 52.0789 35.8941C52.4399 36.1562 52.9143 36.1676 53.2879 35.9234L56.6124 33.7472L59.9369 35.9235C60.1102 36.0377 60.3131 36.0988 60.5206 36.0991C60.7454 36.0988 60.9644 36.027 61.1457 35.8941C61.5069 35.6319 61.6646 35.184 61.5475 34.7532L60.5051 30.919L63.602 28.4298C63.95 28.1504 64.0857 27.6954 63.9477 27.2707C63.8098 26.846 63.4326 26.5577 62.9869 26.5362L59.0182 26.3427L57.6079 22.6281C57.4495 22.2108 57.0587 21.9411 56.6124 21.9411C56.1659 21.9411 55.7751 22.2107 55.6167 22.628L54.2065 26.3427L50.238 26.5361C49.792 26.5576 49.4147 26.846 49.2768 27.2707C49.1388 27.6953 49.2746 28.1503 49.6225 28.4296ZM54.5638 27.827C54.7708 27.817 54.9704 27.7467 55.138 27.6249C55.3056 27.5031 55.4341 27.3351 55.5076 27.1413L56.6123 24.2318L57.7168 27.1412C57.7903 27.335 57.9188 27.503 58.0864 27.6248C58.254 27.7466 58.4535 27.8169 58.6605 27.8269L61.769 27.9785L59.3434 29.928C59.1818 30.0578 59.0616 30.2319 58.9975 30.4289C58.9335 30.626 58.9283 30.8375 58.9827 31.0375L59.7992 34.0407L57.1952 32.336C57.0219 32.2225 56.8192 32.162 56.612 32.1621C56.4048 32.1621 56.2022 32.2226 56.0289 32.3361L53.425 34.0407L54.2415 31.0377C54.2959 30.8377 54.2908 30.6263 54.2267 30.4292C54.1627 30.2321 54.0426 30.058 53.881 29.9282L51.4553 27.9785L54.5638 27.827ZM16.399 28.4296L19.4961 30.9189L18.4536 34.7532C18.3366 35.1837 18.4942 35.6314 18.8555 35.8941C19.2168 36.1562 19.6911 36.1677 20.0645 35.9234L23.3889 33.7472L26.7135 35.9235C26.8867 36.0377 27.0896 36.0988 27.2972 36.0991C27.522 36.0988 27.7409 36.027 27.9223 35.8941C28.2835 35.6319 28.4412 35.184 28.3241 34.7532L27.2817 30.919L30.3785 28.4298C30.7263 28.1505 30.8622 27.6957 30.7243 27.2702C30.5861 26.8458 30.2088 26.5576 29.7634 26.5361L25.7947 26.3426L24.3844 22.6281C24.2261 22.2108 23.8353 21.9411 23.3889 21.9411C22.9425 21.9411 22.5516 22.2107 22.3933 22.628L20.983 26.3427L17.0146 26.5361C16.5686 26.5576 16.1914 26.846 16.0536 27.2702C15.9153 27.695 16.0509 28.1502 16.399 28.4296ZM21.3404 27.827C21.5474 27.817 21.7469 27.7467 21.9146 27.6249C22.0822 27.5031 22.2107 27.3351 22.2842 27.1413L23.3888 24.2318L24.4934 27.1412C24.5669 27.335 24.6953 27.503 24.863 27.6248C25.0306 27.7466 25.2301 27.8169 25.4371 27.8269L28.5455 27.9785L26.1199 29.928C25.9584 30.0578 25.8382 30.2319 25.7741 30.4289C25.71 30.626 25.7049 30.8375 25.7593 31.0375L26.5758 34.0407L23.9718 32.336C23.7984 32.2225 23.5958 32.162 23.3886 32.1621C23.1814 32.1621 22.9787 32.2226 22.8054 32.3361L20.2016 34.0407L21.0181 31.0377C21.0725 30.8377 21.0673 30.6263 21.0033 30.4292C20.9393 30.2321 20.8191 30.058 20.6576 29.9282L18.2318 27.9785L21.3404 27.827ZM63.8825 55.8374C63.3547 54.1332 62.2739 52.603 60.8389 51.5285C60.1613 51.0204 59.4116 50.6163 58.6146 50.3297C59.7087 49.4709 60.4137 48.1378 60.4137 46.6422C60.4137 44.0579 58.3112 41.9555 55.727 41.9555C53.1427 41.9555 51.0401 44.0579 51.0401 46.6422C51.0401 48.136 51.7435 49.4678 52.8355 50.3267C51.3719 50.8491 50.0754 51.7669 49.0825 53.0036C48.6147 52.3491 48.0779 51.7468 47.4813 51.2072C46.2813 50.121 44.8589 49.3095 43.3132 48.8293C44.9383 47.7519 46.0127 45.9072 46.0127 43.8156C46.0127 40.5006 43.3156 37.8036 40.0006 37.8036C36.6856 37.8036 33.9886 40.5006 33.9886 43.8156C33.9886 45.9072 35.0628 47.7519 36.688 48.8293C35.1422 49.3095 33.7198 50.1209 32.5198 51.2072C31.9232 51.7468 31.3864 52.349 30.9187 53.0035C29.9259 51.7667 28.6293 50.8489 27.1657 50.3264C28.2576 49.4676 28.961 48.1357 28.961 46.6419C28.961 44.0576 26.8585 41.9552 24.2743 41.9552C21.69 41.9552 19.5875 44.0576 19.5875 46.6419C19.5875 48.1374 20.2925 49.4707 21.3865 50.3294C20.5895 50.6161 19.8398 51.0201 19.1621 51.5282C17.7271 52.6026 16.6462 54.1329 16.1185 55.837C15.8747 56.6241 16.0098 57.423 16.4989 58.0865C16.9879 58.7499 17.7111 59.1152 18.5351 59.1152H28.9032V60.4687C28.9032 62.4159 30.4873 64 32.4345 64H47.5666C49.5137 64 51.0979 62.4159 51.098 60.4687V59.1155H61.466C62.2901 59.1155 63.0133 58.7502 63.5022 58.0869C63.9912 57.4234 64.1263 56.6244 63.8825 55.8374ZM55.727 43.4555C57.4841 43.4555 58.9137 44.8851 58.9137 46.6422C58.9137 48.3995 57.4841 49.8291 55.727 49.8291C53.9697 49.8291 52.5401 48.3995 52.5401 46.6422C52.5401 44.8851 53.9697 43.4555 55.727 43.4555ZM35.4886 43.8156C35.4886 41.3276 37.5127 39.3036 40.0006 39.3036C42.4886 39.3036 44.5127 41.3276 44.5127 43.8156C44.5127 46.3028 42.4899 48.3263 40.0031 48.3276H39.9981C37.5113 48.3262 35.4886 46.3027 35.4886 43.8156ZM24.2743 43.4551C26.0314 43.4551 27.461 44.8847 27.461 46.6418C27.461 48.3991 26.0314 49.8287 24.2743 49.8287C22.517 49.8287 21.0875 48.3991 21.0875 46.6418C21.0875 44.8847 22.517 43.4551 24.2743 43.4551ZM29.0006 57.6151H18.5352C18.19 57.6151 17.9112 57.4743 17.7064 57.1964C17.5014 56.9185 17.4494 56.6105 17.5515 56.2807C18.4687 53.3187 21.1705 51.3287 24.2743 51.3287C26.6221 51.3287 28.7608 52.4631 30.0762 54.3833C29.5535 55.3988 29.1907 56.4889 29.0006 57.6151ZM49.598 60.4686C49.5979 61.5887 48.6866 62.4999 47.5666 62.4999H32.4345C31.3144 62.4999 30.4032 61.5887 30.4032 60.4686V58.4059C30.9462 53.5132 35.0641 49.8288 39.9981 49.8276L40.0006 49.8277L40.0031 49.8276C44.937 49.8289 49.0548 53.5132 49.598 58.4059V60.4686ZM62.2948 57.1969C62.09 57.4746 61.8113 57.6155 61.466 57.6155H51.0007C50.8105 56.4892 50.4477 55.3991 49.9251 54.3835C51.2406 52.4633 53.3792 51.3291 55.7269 51.3291C58.8307 51.3291 61.5324 53.3192 62.4497 56.2812C62.5518 56.6107 62.4997 56.9188 62.2948 57.1969Z" fill="black"/>
</svg>
