<svg width="100" height="100" viewBox="0 0 100 100" fill="none" xmlns="http://www.w3.org/2000/svg">
<path d="M100 50C100 77.6142 77.6142 100 50 100C22.3858 100 0 77.6142 0 50C0 22.3858 22.3858 0 50 0C77.6142 0 100 22.3858 100 50Z" fill="#0075F2"/>
<path fill-rule="evenodd" clip-rule="evenodd" d="M40.4984 26.6458H48.4016C48.6863 26.6458 48.9184 26.4981 49.0391 26.2415L50.382 23.3774H38.5191L39.8621 26.2415C39.9816 26.4981 40.2148 26.6458 40.4984 26.6458ZM52.6684 70.9474H29.4863V74.3938C29.4863 75.8575 30.677 77.0481 32.1406 77.0481H56.7605C58.2242 77.0481 59.4148 75.8575 59.4148 74.3938V73.5313H58.2758C57.7953 73.5313 57.4074 73.1552 57.3934 72.6747L57.3441 71.0423C56.7167 70.8546 56.11 70.6033 55.5336 70.2923L54.3441 71.4114C54.1774 71.5699 53.9553 71.6568 53.7253 71.6535C53.4953 71.6502 53.2758 71.557 53.1137 71.3938L52.6684 70.9474ZM40.4516 74.2462C40.4516 73.8571 40.7668 73.5431 41.1547 73.5431H47.7453C48.1332 73.5431 48.4484 73.8571 48.4484 74.2462C48.4484 74.6341 48.1332 74.9493 47.7453 74.9493H41.1547C40.7668 74.9493 40.4516 74.6341 40.4516 74.2462ZM58.7832 51.445H61.4527L61.4996 52.9567C61.5047 53.1485 61.5724 53.3332 61.6924 53.4829C61.8123 53.6325 61.978 53.7387 62.1641 53.7852C62.9246 53.9786 63.6523 54.281 64.3262 54.6817C64.6684 54.8845 65.0926 54.8388 65.3832 54.5657L66.4848 53.5298L68.3738 55.4177L67.3367 56.5204C67.2044 56.6597 67.1216 56.8386 67.1008 57.0295C67.0801 57.2205 67.1226 57.413 67.2219 57.5774C67.6222 58.2516 67.9237 58.9797 68.1172 59.7395C68.1636 59.9259 68.27 60.0918 68.4198 60.2119C68.5697 60.3319 68.7549 60.3994 68.9469 60.404L70.4574 60.4509V63.1216L68.9469 63.1685C68.5496 63.1802 68.2156 63.4474 68.1172 63.8341C67.9238 64.5941 67.6219 65.3223 67.2207 65.9962C67.018 66.3384 67.0648 66.7626 67.3379 67.052L68.3738 68.1548L66.4848 70.0427L65.3832 69.0067C65.0938 68.7349 64.6695 68.688 64.3262 68.8907C63.6512 69.2927 62.9223 69.5938 62.1617 69.7872C61.7762 69.8868 61.509 70.2196 61.4973 70.6169L61.4527 72.1274H58.7832L58.7375 70.6169C58.7329 70.4249 58.6654 70.2397 58.5454 70.0899C58.4253 69.94 58.2594 69.8336 58.073 69.7872C57.3118 69.5935 56.5825 69.2911 55.9074 68.8895C55.5652 68.6868 55.1398 68.7325 54.8504 69.0056L53.75 70.0427L51.8621 68.1548L52.8992 67.0544C53.0319 66.9154 53.1152 66.7365 53.1361 66.5455C53.1571 66.3545 53.1146 66.1619 53.0152 65.9974C52.6133 65.3212 52.3109 64.5911 52.1176 63.8317C52.0191 63.445 51.6852 63.179 51.2879 63.1661L49.7773 63.1216V60.452L51.2879 60.4063C51.6863 60.3946 52.0191 60.1274 52.1176 59.7407C52.3113 58.9795 52.6136 58.2502 53.0152 57.5751C53.218 57.2329 53.1723 56.8075 52.8992 56.5181L51.8621 55.4177L53.75 53.531L54.8492 54.5669C55.1387 54.8399 55.5641 54.888 55.9074 54.6841C56.5824 54.2821 57.3113 53.981 58.0707 53.7864C58.4562 53.688 58.7234 53.3552 58.7363 52.9579L58.7832 51.445ZM54.5762 60.3009C53.757 63.3571 55.577 66.5095 58.6332 67.3274C59.1277 67.4599 59.6293 67.5255 60.1273 67.5255C61.1211 67.5255 62.102 67.2653 62.9867 66.7544C64.3133 65.988 65.2625 64.7517 65.6598 63.2704C66.4777 60.2153 64.6578 57.063 61.6027 56.2438C58.5477 55.4259 55.3953 57.2446 54.5762 60.3009ZM48.4016 28.0521C49.2289 28.0521 49.9613 27.5868 50.3117 26.838L51.9348 23.3774H56.7605C58.2242 23.3774 59.4148 24.5681 59.4148 26.0317V50.0388H58.2758C57.7965 50.0388 57.4074 50.4149 57.3922 50.8954L57.3418 52.529C56.715 52.7164 56.1091 52.9678 55.5336 53.279L54.3441 52.1599C54.1773 52.0015 53.9551 51.9148 53.7251 51.9183C53.4951 51.9218 53.2756 52.0153 53.1137 52.1786L50.5098 54.7825C50.3464 54.9445 50.253 55.1639 50.2495 55.3939C50.246 55.6239 50.3327 55.8461 50.491 56.013L51.6113 57.2024C51.2995 57.7786 51.0478 58.3853 50.8602 59.013L49.2277 59.0622C48.7473 59.0774 48.3711 59.4653 48.3711 59.9458V63.629C48.3711 64.1095 48.7473 64.4974 49.2289 64.5114L50.8602 64.5606C51.0477 65.1876 51.2996 65.7935 51.6113 66.3712L50.491 67.5606C50.3327 67.7275 50.246 67.9497 50.2495 68.1797C50.253 68.4097 50.3464 68.6292 50.5098 68.7911L51.2621 69.5435H29.4863V26.0317C29.4863 24.5681 30.677 23.3774 32.1406 23.3774H36.9652L38.5883 26.838C38.9398 27.5868 39.6711 28.0521 40.4984 28.0521H48.4016ZM42.8809 52.1095C42.8012 52.4892 43.0461 52.8618 43.4258 52.9415C43.4738 52.952 43.5219 52.9567 43.5699 52.9567C43.8957 52.9567 44.1887 52.7294 44.2578 52.3978L47.4477 37.0954C47.4855 36.9128 47.4494 36.7227 47.3472 36.5667C47.2451 36.4108 47.0852 36.3017 46.9027 36.2634C46.8123 36.2443 46.719 36.2433 46.6282 36.2604C46.5374 36.2775 46.4508 36.3124 46.3735 36.363C46.2962 36.4136 46.2297 36.479 46.1777 36.5555C46.1257 36.6319 46.0894 36.7178 46.0707 36.8083L42.8809 52.1095ZM34.2582 44.0985C34.1234 44.231 34.0461 44.4114 34.0461 44.6013C34.0461 44.7911 34.1234 44.9728 34.2582 45.1052L38.6199 49.3638C38.7512 49.4919 38.9275 49.5635 39.1109 49.563C39.2938 49.563 39.4766 49.4927 39.6148 49.3509C39.8855 49.0731 39.8809 48.6278 39.6031 48.3571L35.7559 44.6024L39.6031 40.8478C39.8809 40.577 39.8855 40.1317 39.6148 39.854C39.343 39.5763 38.8977 39.5704 38.6199 39.8423L34.2582 44.0985ZM49.298 48.3571C49.0203 48.629 49.0145 49.0743 49.2863 49.3509C49.3517 49.418 49.4299 49.4714 49.5162 49.5079C49.6026 49.5443 49.6953 49.563 49.7891 49.563C49.966 49.563 50.143 49.4962 50.2801 49.3638L54.6418 45.1052C54.7777 44.9728 54.8539 44.7911 54.8539 44.6013C54.8539 44.4114 54.7777 44.231 54.6418 44.0985L50.2801 39.8411C50.2141 39.7765 50.1361 39.7256 50.0504 39.6912C49.9647 39.6569 49.8731 39.6397 49.7808 39.6408C49.6885 39.6419 49.5973 39.6612 49.5124 39.6976C49.4276 39.734 49.3508 39.7867 49.2863 39.8528C49.2218 39.9188 49.1708 39.9969 49.1365 40.0825C49.1021 40.1682 49.085 40.2598 49.0861 40.3521C49.0871 40.4444 49.1064 40.5356 49.1428 40.6205C49.1792 40.7053 49.2319 40.7822 49.298 40.8466L53.1441 44.6013L49.298 48.3571Z" fill="white"/>
</svg>
