<svg width="100" height="100" viewBox="0 0 100 100" fill="none" xmlns="http://www.w3.org/2000/svg">
<path d="M100 50C100 77.6142 77.6142 100 50 100C22.3858 100 0 77.6142 0 50C0 22.3858 22.3858 0 50 0C77.6142 0 100 22.3858 100 50Z" fill="#0075F2"/>
<path d="M74.375 36.875H44.375C43.8777 36.875 43.4008 37.0725 43.0492 37.4242C42.6975 37.7758 42.5 38.2527 42.5 38.75V44.375H76.25V38.75C76.25 38.2527 76.0525 37.7758 75.7008 37.4242C75.3492 37.0725 74.8723 36.875 74.375 36.875ZM46.25 42.5C45.7527 42.5 45.2758 42.3025 44.9242 41.9508C44.5725 41.5992 44.375 41.1223 44.375 40.625C44.375 40.1277 44.5725 39.6508 44.9242 39.2992C45.2758 38.9475 45.7527 38.75 46.25 38.75C46.7473 38.75 47.2242 38.9475 47.5758 39.2992C47.9275 39.6508 48.125 40.1277 48.125 40.625C48.125 41.1223 47.9275 41.5992 47.5758 41.9508C47.2242 42.3025 46.7473 42.5 46.25 42.5ZM51.875 42.5C51.3777 42.5 50.9008 42.3025 50.5492 41.9508C50.1975 41.5992 50 41.1223 50 40.625C50 40.1277 50.1975 39.6508 50.5492 39.2992C50.9008 38.9475 51.3777 38.75 51.875 38.75C52.3723 38.75 52.8492 38.9475 53.2008 39.2992C53.5525 39.6508 53.75 40.1277 53.75 40.625C53.75 41.1223 53.5525 41.5992 53.2008 41.9508C52.8492 42.3025 52.3723 42.5 51.875 42.5ZM42.5 46.25V61.25C42.5 61.7473 42.6975 62.2242 43.0492 62.5758C43.4008 62.9275 43.8777 63.125 44.375 63.125H74.375C74.8723 63.125 75.3492 62.9275 75.7008 62.5758C76.0525 62.2242 76.25 61.7473 76.25 61.25V46.25H42.5ZM55.3512 57.7738C55.5273 57.9498 55.6262 58.1885 55.6262 58.4375C55.6262 58.6865 55.5273 58.9252 55.3512 59.1012C55.1752 59.2773 54.9365 59.3762 54.6875 59.3762C54.4385 59.3762 54.1998 59.2773 54.0238 59.1012L50.2737 55.3512C50.1864 55.2642 50.1172 55.1607 50.0699 55.0468C50.0227 54.9329 49.9983 54.8108 49.9983 54.6875C49.9983 54.5642 50.0227 54.4421 50.0699 54.3282C50.1172 54.2143 50.1864 54.1108 50.2737 54.0238L54.0238 50.2738C54.1109 50.1866 54.2144 50.1174 54.3283 50.0703C54.4422 50.0231 54.5642 49.9988 54.6875 49.9988C54.8108 49.9988 54.9328 50.0231 55.0467 50.0703C55.1606 50.1174 55.2641 50.1866 55.3512 50.2738C55.4384 50.3609 55.5076 50.4644 55.5547 50.5783C55.6019 50.6922 55.6262 50.8142 55.6262 50.9375C55.6262 51.0608 55.6019 51.1828 55.5547 51.2967C55.5076 51.4106 55.4384 51.5141 55.3512 51.6012L52.2631 54.6875L55.3512 57.7738ZM61.22 51.1644L59.345 58.6644C59.3204 58.789 59.2707 58.9073 59.199 59.0122C59.1272 59.117 59.0349 59.2062 58.9276 59.2743C58.8204 59.3424 58.7004 59.3879 58.575 59.4082C58.4496 59.4285 58.3214 59.4231 58.1981 59.3923C58.0748 59.3615 57.9591 59.306 57.858 59.2291C57.7568 59.1523 57.6724 59.0556 57.6097 58.9451C57.5471 58.8346 57.5075 58.7125 57.4935 58.5863C57.4795 58.46 57.4912 58.3322 57.5281 58.2106L59.4031 50.7106C59.4306 50.5887 59.4821 50.4735 59.5546 50.3719C59.6272 50.2702 59.7194 50.184 59.8258 50.1184C59.9321 50.0528 60.0505 50.0092 60.174 49.99C60.2974 49.9709 60.4235 49.9766 60.5447 50.0068C60.6659 50.0371 60.7799 50.0912 60.8799 50.1661C60.9799 50.2411 61.0639 50.3352 61.127 50.443C61.19 50.5509 61.2309 50.6703 61.2472 50.7941C61.2635 50.918 61.2549 51.0439 61.2219 51.1644H61.22ZM68.4762 55.3512L64.7262 59.1012C64.6394 59.189 64.536 59.2587 64.4221 59.3062C64.3082 59.3538 64.186 59.3782 64.0625 59.3782C63.939 59.3782 63.8168 59.3538 63.7029 59.3062C63.589 59.2587 63.4856 59.189 63.3988 59.1012C63.3114 59.0142 63.2422 58.9107 63.1949 58.7968C63.1476 58.6829 63.1233 58.5608 63.1233 58.4375C63.1233 58.3142 63.1476 58.1921 63.1949 58.0782C63.2422 57.9643 63.3114 57.8608 63.3988 57.7738L66.4869 54.6875L63.3988 51.6012C63.3116 51.5141 63.2424 51.4106 63.1953 51.2967C63.1481 51.1828 63.1238 51.0608 63.1238 50.9375C63.1238 50.8142 63.1481 50.6922 63.1953 50.5783C63.2424 50.4644 63.3116 50.3609 63.3988 50.2738C63.4859 50.1866 63.5894 50.1174 63.7033 50.0703C63.8172 50.0231 63.9392 49.9988 64.0625 49.9988C64.1858 49.9988 64.3078 50.0231 64.4217 50.0703C64.5356 50.1174 64.6391 50.1866 64.7262 50.2738L68.4762 54.0238C68.5636 54.1108 68.6328 54.2143 68.6801 54.3282C68.7274 54.4421 68.7517 54.5642 68.7517 54.6875C68.7517 54.8108 68.7274 54.9329 68.6801 55.0468C68.6328 55.1607 68.5636 55.2642 68.4762 55.3512Z" fill="white"/>
<path d="M44.375 65C43.3804 65 42.4266 64.6049 41.7234 63.9016C41.0201 63.1984 40.625 62.2446 40.625 61.25V38.75C40.625 37.7554 41.0201 36.8016 41.7234 36.0984C42.4266 35.3951 43.3804 35 44.375 35H53.75V29.375C53.75 28.8777 53.5525 28.4008 53.2008 28.0492C52.8492 27.6975 52.3723 27.5 51.875 27.5H44.375C44.375 28.4946 43.9799 29.4484 43.2766 30.1517C42.5734 30.8549 41.6196 31.25 40.625 31.25C39.6304 31.25 38.6766 30.8549 37.9734 30.1517C37.2701 29.4484 36.875 28.4946 36.875 27.5H29.375C28.8777 27.5 28.4008 27.6975 28.0492 28.0492C27.6975 28.4008 27.5 28.8777 27.5 29.375V70.625C27.5 71.1223 27.6975 71.5992 28.0492 71.9508C28.4008 72.3025 28.8777 72.5 29.375 72.5H51.875C52.3723 72.5 52.8492 72.3025 53.2008 71.9508C53.5525 71.5992 53.75 71.1223 53.75 70.625V65H44.375Z" fill="white"/>
<path d="M55.625 65V70.625C55.625 72.6931 53.9431 74.375 51.875 74.375H29.375C27.3069 74.375 25.625 72.6931 25.625 70.625V29.375C25.625 27.3069 27.3069 25.625 29.375 25.625H51.875C53.9431 25.625 55.625 27.3069 55.625 29.375V35H57.5V29.375C57.5 26.2737 54.9762 23.75 51.875 23.75H29.375C26.2737 23.75 23.75 26.2737 23.75 29.375V70.625C23.75 73.7262 26.2737 76.25 29.375 76.25H51.875C54.9762 76.25 57.5 73.7262 57.5 70.625V65H55.625Z" fill="white"/>
</svg>
