<svg width="100" height="100" viewBox="0 0 100 100" fill="none" xmlns="http://www.w3.org/2000/svg">
<path d="M100 50C100 77.6142 77.6142 100 50 100C22.3858 100 0 77.6142 0 50C0 22.3858 22.3858 0 50 0C77.6142 0 100 22.3858 100 50Z" fill="#0075F2"/>
<path d="M48.0625 65.8875L50 66.525V56.25H40C39.6685 56.25 39.3505 56.1183 39.1161 55.8839C38.8817 55.6495 38.75 55.3315 38.75 55C38.75 54.6685 38.8817 54.3505 39.1161 54.1161C39.3505 53.8817 39.6685 53.75 40 53.75H50C50.0017 52.7601 50.2972 51.7929 50.849 50.9711C51.4009 50.1493 52.1843 49.5098 53.1 49.1336C54.0157 48.7574 55.0224 48.6615 55.9926 48.858C56.9628 49.0545 57.8529 49.5347 58.55 50.2375C60.3875 52.025 60 54.1 60 57.5C60.6577 57.5011 61.3087 57.632 61.9157 57.8851C62.5227 58.1382 63.0738 58.5086 63.5375 58.975C64.1935 58.7741 64.8839 58.7104 65.5656 58.7878C66.2473 58.8653 66.9057 59.0821 67.5 59.425V28.75H32.5V71.25H41.6875C41.56 70.4229 41.6476 69.5768 41.9418 68.7933C42.236 68.0098 42.727 67.3153 43.3674 66.7766C44.0079 66.2378 44.7763 65.873 45.5986 65.7173C46.4209 65.5616 47.2694 65.6202 48.0625 65.8875ZM51.5 35.75C51.3011 35.4848 51.2157 35.1514 51.2626 34.8232C51.3094 34.495 51.4848 34.1989 51.75 34C52.0152 33.8011 52.3486 33.7157 52.6768 33.7626C53.005 33.8094 53.3011 33.9848 53.5 34.25L56.25 37.9125L59 34.25C59.1989 33.9848 59.495 33.8094 59.8232 33.7626C60.1514 33.7157 60.4848 33.8011 60.75 34C61.0152 34.1989 61.1906 34.495 61.2374 34.8232C61.2843 35.1514 61.1989 35.4848 61 35.75L57.8125 40L61 44.25C61.1393 44.4357 61.2241 44.6565 61.245 44.8877C61.2658 45.1189 61.2219 45.3514 61.118 45.559C61.0142 45.7667 60.8546 45.9413 60.6572 46.0633C60.4597 46.1854 60.2321 46.25 60 46.25C59.15 46.25 59.1 45.8875 56.25 42.0875C53.35 45.9375 53.3375 46.25 52.5 46.25C52.2679 46.25 52.0403 46.1854 51.8428 46.0633C51.6454 45.9413 51.4858 45.7667 51.382 45.559C51.2782 45.3514 51.2342 45.1189 51.2551 44.8877C51.2759 44.6565 51.3607 44.4357 51.5 44.25L54.6875 40L51.5 35.75ZM38.75 35C38.75 34.6685 38.8817 34.3505 39.1161 34.1161C39.3505 33.8817 39.6685 33.75 40 33.75C40.3315 33.75 40.6495 33.8817 40.8839 34.1161C41.1183 34.3505 41.25 34.6685 41.25 35V41.25C41.25 41.913 41.5134 42.5489 41.9822 43.0178C42.4511 43.4866 43.087 43.75 43.75 43.75C44.413 43.75 45.0489 43.4866 45.5178 43.0178C45.9866 42.5489 46.25 41.913 46.25 41.25V35C46.25 34.6685 46.3817 34.3505 46.6161 34.1161C46.8505 33.8817 47.1685 33.75 47.5 33.75C47.8315 33.75 48.1495 33.8817 48.3839 34.1161C48.6183 34.3505 48.75 34.6685 48.75 35V41.25C48.75 42.5761 48.2232 43.8479 47.2855 44.7855C46.3479 45.7232 45.0761 46.25 43.75 46.25C42.4239 46.25 41.1522 45.7232 40.2145 44.7855C39.2768 43.8479 38.75 42.5761 38.75 41.25V35ZM40 48.75H47.5C47.8315 48.75 48.1495 48.8817 48.3839 49.1161C48.6183 49.3505 48.75 49.6685 48.75 50C48.75 50.3315 48.6183 50.6495 48.3839 50.8839C48.1495 51.1183 47.8315 51.25 47.5 51.25H40C39.6685 51.25 39.3505 51.1183 39.1161 50.8839C38.8817 50.6495 38.75 50.3315 38.75 50C38.75 49.6685 38.8817 49.3505 39.1161 49.1161C39.3505 48.8817 39.6685 48.75 40 48.75ZM40 58.75H45C45.3315 58.75 45.6495 58.8817 45.8839 59.1161C46.1183 59.3505 46.25 59.6685 46.25 60C46.25 60.3315 46.1183 60.6495 45.8839 60.8839C45.6495 61.1183 45.3315 61.25 45 61.25H40C39.6685 61.25 39.3505 61.1183 39.1161 60.8839C38.8817 60.6495 38.75 60.3315 38.75 60C38.75 59.6685 38.8817 59.3505 39.1161 59.1161C39.3505 58.8817 39.6685 58.75 40 58.75ZM62.5 21.25H37.5C36.1739 21.25 34.9021 21.7768 33.9645 22.7145C33.0268 23.6521 32.5 24.9239 32.5 26.25H67.5C67.5 24.9239 66.9732 23.6521 66.0355 22.7145C65.0979 21.7768 63.8261 21.25 62.5 21.25ZM42.875 73.75H32.5C32.5 75.0761 33.0268 76.3479 33.9645 77.2855C34.9021 78.2232 36.1739 78.75 37.5 78.75H48.65C42.7875 73.75 43.25 74.1625 42.875 73.75Z" fill="white"/>
<path d="M71.7624 63.2375C71.4128 62.89 70.9683 62.6536 70.4847 62.558C70.0011 62.4624 69.5001 62.5119 69.0446 62.7002C68.589 62.8886 68.1994 63.2074 67.9245 63.6166C67.6497 64.0258 67.5019 64.5071 67.4999 65V63.75C67.4971 63.088 67.2318 62.4542 66.7624 61.9875C66.4128 61.64 65.9683 61.4036 65.4847 61.308C65.0011 61.2124 64.5001 61.2619 64.0446 61.4502C63.589 61.6386 63.1994 61.9574 62.9245 62.3666C62.6497 62.7758 62.5019 63.2571 62.4999 63.75V62.5C62.4971 61.838 62.2318 61.2042 61.7624 60.7375C61.4128 60.39 60.9683 60.1536 60.4847 60.058C60.0011 59.9624 59.5001 60.0119 59.0446 60.2002C58.589 60.3886 58.1994 60.7074 57.9245 61.1166C57.6497 61.5258 57.5019 62.0071 57.4999 62.5C57.4999 53.1125 57.7624 52.9625 56.7624 51.9875C56.4128 51.64 55.9683 51.4036 55.4847 51.308C55.0011 51.2124 54.5001 51.2619 54.0446 51.4502C53.589 51.6386 53.1994 51.9574 52.9245 52.3666C52.6497 52.7758 52.5019 53.2571 52.4999 53.75V70L47.2499 68.25C46.7354 68.1044 46.1868 68.1366 45.6929 68.3415C45.199 68.5464 44.7887 68.912 44.5284 69.3791C44.2681 69.8462 44.1731 70.3874 44.2586 70.9152C44.3442 71.4431 44.6054 71.9266 44.9999 72.2875L52.4999 78.75H72.4999C72.4999 64.225 72.7874 64.2375 71.7624 63.2375Z" fill="white"/>
</svg>
