<svg width="688" height="612" viewBox="0 0 688 612" fill="none" xmlns="http://www.w3.org/2000/svg">
<g clip-path="url(#clip0_7280_6438)">
<path d="M268.409 111.278C269.014 110.107 269.212 108.769 268.974 107.473C268.737 106.177 268.076 104.997 267.095 104.116C266.114 103.236 264.87 102.706 263.555 102.609C262.241 102.512 260.932 102.853 259.832 103.579C257.065 101.595 254.182 99.776 251.2 98.1318C252.79 95.4939 254.24 92.7748 255.546 89.9856C261.052 78.1329 261.45 68.9672 256.663 64.1771C251.877 59.387 242.709 59.78 230.839 65.2752C228.052 66.5779 225.333 68.024 222.696 69.6079C222.171 68.6679 221.638 67.746 221.097 66.8425C220.98 66.6343 220.822 66.4517 220.633 66.3055C220.445 66.1592 220.228 66.0523 219.997 65.9911C219.766 65.9299 219.526 65.9155 219.289 65.9489C219.053 65.9824 218.825 66.0628 218.62 66.1856C218.415 66.3084 218.237 66.4711 218.096 66.6639C217.955 66.8567 217.855 67.0758 217.8 67.3083C217.745 67.5407 217.737 67.7818 217.778 68.0172C217.818 68.2526 217.904 68.4777 218.033 68.679C218.581 69.5936 219.122 70.5313 219.655 71.4921C214.609 74.7595 209.784 78.3553 205.21 82.2561C201.438 81.5701 197.723 81.0373 194.065 80.6578C193.596 80.6141 193.129 80.7572 192.765 81.0559C192.401 81.3546 192.17 81.7849 192.121 82.2532C192.073 82.7214 192.211 83.1898 192.507 83.5566C192.802 83.9233 193.23 84.1587 193.698 84.2117C196.342 84.4848 199.023 84.8421 201.739 85.2836C199.533 87.2622 197.352 89.3265 195.196 91.4767C193.041 93.6268 190.97 95.8134 188.983 98.0366C184.723 71.9589 188.906 53.5178 196.955 51.3741C198.432 50.9787 200.066 51.1073 201.813 51.7552C202.257 51.9201 202.749 51.9016 203.18 51.704C203.611 51.5063 203.946 51.1456 204.111 50.7012C204.275 50.2567 204.257 49.765 204.059 49.3342C203.862 48.9033 203.501 48.5687 203.056 48.4038C200.602 47.4939 198.239 47.3319 196.03 47.9274C189.49 49.6757 185.244 57.8077 184.072 70.8251C183.269 79.7574 183.941 90.3405 185.966 101.505C182.064 106.071 178.466 110.888 175.195 115.925C172.34 114.357 169.58 112.622 166.93 110.73C167.206 110.033 167.347 109.29 167.344 108.541C167.344 107.517 167.08 106.511 166.577 105.62C166.075 104.728 165.351 103.981 164.476 103.45C163.6 102.92 162.603 102.624 161.579 102.591C160.556 102.558 159.542 102.789 158.634 103.263C156.282 100.442 154.136 96.6979 155.074 93.1988C156.482 87.9585 164.8 84.4118 177.327 83.7163C177.801 83.69 178.245 83.4767 178.562 83.1231C178.878 82.7695 179.042 82.3047 179.015 81.8309C178.989 81.3571 178.776 80.9132 178.422 80.5967C178.068 80.2802 177.603 80.1171 177.129 80.1433C162.563 80.9556 153.504 85.2621 151.622 92.2722C150.519 96.3859 152.068 101.043 156.101 105.804C155.497 106.975 155.298 108.313 155.536 109.609C155.774 110.905 156.435 112.085 157.415 112.966C158.396 113.846 159.641 114.376 160.955 114.473C162.269 114.57 163.579 114.229 164.678 113.503C167.446 115.487 170.328 117.306 173.31 118.95C171.721 121.588 170.27 124.307 168.965 127.096C163.458 138.949 163.061 148.115 167.847 152.905C170.068 155.127 173.184 156.24 177.139 156.24C177.616 156.24 178.123 156.221 178.63 156.187C179.249 157.364 180.243 158.3 181.455 158.846C182.667 159.392 184.027 159.517 185.319 159.201C186.61 158.886 187.758 158.147 188.581 157.103C189.404 156.059 189.854 154.77 189.859 153.441C193.997 151.789 197.992 149.797 201.801 147.486C203.292 150.179 204.921 152.793 206.682 155.318C213.208 164.581 219.896 169.519 225.836 169.519C226.732 169.52 227.624 169.403 228.49 169.171C235.03 167.423 239.276 159.291 240.448 146.274C240.712 143.208 240.818 140.131 240.765 137.055C241.286 137.055 241.811 137.07 242.325 137.07C244.987 137.07 247.548 136.962 249.983 136.746C263.006 135.586 271.142 131.348 272.898 124.81C273.992 120.689 272.443 116.039 268.409 111.278ZM232.352 68.5241C242.597 63.7745 250.54 63.1147 254.136 66.7115C258.557 71.1348 256.485 82.4324 248.072 96.4669C242.714 93.7297 237.185 91.3428 231.518 89.321C229.514 83.6503 227.138 78.1178 224.406 72.7593C226.979 71.2094 229.631 69.7958 232.352 68.5241ZM235.559 102.315C234.773 99.38 233.92 96.4978 233.005 93.6871C237.497 95.3815 241.894 97.3185 246.175 99.4896C243.555 103.512 240.712 107.384 237.66 111.09C237.049 108.188 236.348 105.261 235.559 102.307V102.315ZM221.349 74.6553C223.527 78.9325 225.467 83.3268 227.16 87.818C224.332 86.8906 221.447 86.0323 218.507 85.2431C215.567 84.4539 212.644 83.752 209.737 83.1374C213.448 80.098 217.325 77.2663 221.349 74.6553ZM197.722 94.0111C200.465 91.2695 203.303 88.6255 206.232 86.0839C209.976 86.808 213.755 87.6814 217.571 88.7041C221.383 89.7259 225.1 90.8716 228.702 92.1245C229.938 95.7094 231.084 99.4229 232.095 103.236C233.138 107.133 234.001 110.921 234.715 114.574C232.28 117.378 229.633 120.213 226.789 123.071C226.05 123.808 225.305 124.538 224.554 125.262C224.37 125.421 224.221 125.615 224.115 125.833C224.01 126.052 223.949 126.289 223.938 126.531C223.927 126.773 223.965 127.015 224.051 127.242C224.136 127.469 224.267 127.676 224.435 127.851C224.603 128.026 224.805 128.165 225.028 128.259C225.252 128.353 225.492 128.401 225.734 128.4C225.977 128.398 226.217 128.347 226.439 128.25C226.661 128.153 226.861 128.012 227.027 127.835C227.787 127.104 228.554 126.351 229.307 125.598C231.464 123.437 233.538 121.253 235.528 119.045C236.313 123.785 236.835 128.565 237.091 133.363C227.777 132.887 217.437 131.201 206.93 128.383C203.118 127.361 199.394 126.213 195.79 124.96C194.582 121.446 193.445 117.74 192.406 113.85C191.368 109.961 190.5 106.166 189.786 102.512C192.339 99.594 194.986 96.7588 197.722 94.0111ZM186.841 105.988C187.452 108.894 188.153 111.823 188.942 114.777C189.728 117.709 190.584 120.591 191.499 123.404C187.009 121.706 182.615 119.766 178.335 117.592C180.955 113.568 183.798 109.693 186.85 105.985L186.841 105.988ZM188.763 150.02C188.074 149.042 187.106 148.294 185.985 147.874C184.864 147.455 183.643 147.382 182.48 147.666C181.318 147.95 180.268 148.578 179.467 149.467C178.666 150.357 178.152 151.467 177.992 152.652C174.597 152.812 172.036 152.052 170.368 150.38C165.946 145.957 168.019 134.659 176.431 120.625C181.791 123.36 187.321 125.747 192.988 127.771C194.995 133.436 197.373 138.964 200.104 144.318C196.489 146.523 192.699 148.429 188.773 150.018L188.763 150.02ZM227.546 165.722C226.992 165.87 226.421 165.944 225.848 165.941C219.929 165.941 212.029 158.605 204.807 145.604C207.296 144.007 209.816 142.254 212.365 140.345C212.744 140.061 212.995 139.637 213.062 139.168C213.129 138.699 213.007 138.223 212.722 137.844C212.438 137.465 212.015 137.214 211.545 137.147C211.076 137.08 210.6 137.202 210.221 137.486C207.838 139.278 205.471 140.929 203.121 142.441C200.945 138.156 199.01 133.753 197.324 129.252C200.157 130.181 203.042 131.046 205.994 131.834C216.846 134.747 227.549 136.481 237.205 136.943C237.465 153.284 233.598 164.105 227.556 165.72L227.546 165.722ZM269.436 123.883C268.119 128.795 260.909 132.187 249.661 133.187C246.664 133.444 243.655 133.543 240.648 133.482C240.341 127.48 239.64 121.504 238.549 115.594C242.451 111.026 246.049 106.208 249.32 101.169C252.175 102.737 254.935 104.471 257.585 106.364C257.309 107.057 257.167 107.795 257.166 108.541C257.166 109.564 257.431 110.571 257.933 111.462C258.436 112.354 259.16 113.101 260.035 113.632C260.91 114.162 261.908 114.458 262.931 114.491C263.954 114.524 264.969 114.293 265.877 113.819C268.228 116.652 270.375 120.384 269.436 123.883Z" fill="#0075F2"/>
<path d="M212.255 121.046C219.163 121.046 224.763 115.447 224.763 108.541C224.763 101.634 219.163 96.0354 212.255 96.0354C205.347 96.0354 199.747 101.634 199.747 108.541C199.747 115.447 205.347 121.046 212.255 121.046Z" fill="#0075F2"/>
<path d="M212.254 63.641C213.432 63.641 214.584 63.2917 215.563 62.6374C216.543 61.9831 217.306 61.053 217.757 59.9649C218.208 58.8768 218.326 57.6795 218.096 56.5244C217.866 55.3692 217.299 54.3082 216.466 53.4753C215.633 52.6425 214.572 52.0754 213.416 51.8456C212.261 51.6159 211.063 51.7338 209.975 52.1845C208.886 52.6352 207.956 53.3985 207.302 54.3777C206.647 55.357 206.298 56.5083 206.298 57.6861C206.298 59.2654 206.925 60.7801 208.042 61.8968C209.159 63.0136 210.674 63.641 212.254 63.641Z" fill="#0075F2"/>
</g>
<g clip-path="url(#clip1_7280_6438)">
<path d="M463.075 72.2868C472.227 72.8959 480.417 66.6469 482.212 57.6639C480.003 54.2465 476.227 52.1914 472.162 52.1914C461.596 51.9496 455.926 64.5174 463.079 72.2915L463.075 72.2868ZM420.395 21.8389L445.318 7.40667L437.375 2.92912L403.001 22.834L405.741 24.359L410.945 27.2836L420.395 21.8157V21.8389ZM448.513 6.07689C448.927 6.20243 449.262 6.54185 449.388 6.95101L460.94 42.2552C461.159 42.8643 460.917 43.5199 460.359 43.8547C451.206 49.2296 446.797 60.0771 449.583 70.3247C452.634 81.4419 463.242 88.7045 474.701 87.5421C475.329 87.491 475.934 87.8815 476.129 88.486L488.049 124.767C488.24 125.376 487.998 126.027 487.468 126.366L450.918 148.549C450.746 148.647 450.527 148.717 450.308 148.717C449.992 148.791 449.657 148.717 449.364 148.526L436.505 140.171C436.282 140.027 436.114 139.813 435.998 139.571L410.903 79.6099L372.679 102.277C372.604 102.328 372.507 102.374 372.437 102.425C372.046 102.593 371.586 102.542 371.223 102.328L362.577 97.2458C361.945 96.9063 361.703 96.1066 362.042 95.4743L399.03 22.2481C399.146 21.9831 399.388 21.7646 399.657 21.639L436.673 0.209123C437.082 -0.032655 437.589 -0.0559029 438.031 0.185875L448.513 6.07689ZM409.81 29.7897L400.825 24.7263L365.047 95.5347L371.539 99.3613L402.378 57.4454C402.671 57.0316 403.155 56.8131 403.638 56.8874C404.122 56.9386 404.531 57.2455 404.731 57.7104L438.347 138.129L447.337 143.946L409.838 29.7897H409.81ZM472.157 78.8753C461.665 78.8753 454.545 68.2185 458.563 58.5288C462.563 48.8437 475.134 46.3515 482.543 53.7629C485.31 56.5201 486.858 60.2537 486.858 64.1547C486.882 72.2868 480.292 78.8753 472.157 78.8753Z" fill="#0075F2"/>
</g>
<path d="M92.7489 207.042L45.7072 253.163L16.8503 230.444L5.48193 236.35V292.697L16.8503 298.603L45.7121 275.884L92.7489 322.005L121.385 310.419V218.628L92.7489 207.042ZM16.3919 282.017V247.029L35.0277 264.523L16.3919 282.017ZM93.4304 289.288L61.3894 264.516L93.4304 239.743V289.288Z" fill="#0075F2"/>
<path d="M569.113 196.282L584.883 187.273C585.077 187.162 585.297 187.104 585.521 187.104C585.745 187.104 585.965 187.162 586.159 187.273L601.929 196.282C602.123 196.393 602.284 196.553 602.396 196.745C602.508 196.936 602.567 197.154 602.567 197.376V215.399C602.567 215.621 602.508 215.838 602.396 216.03C602.284 216.222 602.123 216.381 601.929 216.492L586.159 225.502C585.965 225.613 585.745 225.671 585.521 225.671C585.297 225.671 585.077 225.613 584.883 225.502L569.113 216.492C568.919 216.381 568.758 216.222 568.646 216.03C568.534 215.838 568.475 215.621 568.475 215.399V197.376C568.475 197.154 568.534 196.936 568.646 196.745C568.758 196.553 568.919 196.393 569.113 196.282Z" fill="#0075F2"/>
<path d="M626.523 204.491L607.665 172.045C606.981 170.87 605.716 170.006 604.348 170.006H566.663C565.295 170.006 564.029 170.872 563.344 172.045L544.521 204.42C544.185 205.003 544.008 205.663 544.008 206.334C544.008 207.005 544.185 207.665 544.521 208.248L563.36 240.431C564.043 241.606 565.31 242.204 566.679 242.204H604.364C605.731 242.204 606.997 241.622 607.681 240.449L626.523 208.214C627.207 207.039 627.207 205.668 626.523 204.475M610.902 220.079C610.902 220.556 610.615 220.997 610.194 221.236L586.194 234.943C585.987 235.06 585.753 235.122 585.515 235.122C585.277 235.122 585.043 235.06 584.836 234.943L560.816 221.236C560.607 221.12 560.432 220.953 560.308 220.75C560.183 220.547 560.115 220.316 560.108 220.079V192.679C560.108 192.202 560.395 191.76 560.813 191.521L584.813 177.814C585.019 177.697 585.253 177.636 585.491 177.636C585.729 177.636 585.962 177.697 586.169 177.814L610.208 191.504C610.418 191.619 610.594 191.786 610.719 191.989C610.844 192.192 610.913 192.423 610.92 192.661L610.902 220.079Z" fill="#0075F2"/>
<path d="M654.948 380.908C658.427 380.529 661.066 377.37 660.946 373.58C660.826 369.79 657.827 366.758 654.228 366.758H653.988C650.269 366.884 647.39 370.169 647.51 374.085C647.63 375.981 648.35 377.623 649.43 378.76C645.351 387.225 639.113 393.415 629.756 398.595C623.398 402.132 616.8 403.396 610.202 402.511C604.803 401.753 600.605 399.227 597.965 395.057C594.127 388.867 593.767 382.171 597.006 375.475C599.285 370.674 602.884 367.137 605.163 365.368C604.683 363.726 603.964 360.946 603.604 358.925C586.209 372.19 588.008 390.13 593.287 398.595C597.246 404.912 605.283 408.828 614.16 408.828C616.56 408.828 618.959 408.576 621.358 407.944C636.714 404.785 648.35 395.184 654.948 380.908ZM676.062 365.242C666.944 353.998 653.509 347.807 638.153 347.807H636.234C635.154 345.533 632.875 344.017 630.356 344.017H630.116C626.397 344.144 623.518 347.428 623.638 351.345C623.758 355.135 626.757 358.167 630.356 358.167H630.595C633.235 358.041 635.514 356.272 636.474 353.872H638.633C647.75 353.872 656.388 356.651 664.185 362.083C670.183 366.253 674.502 371.685 676.901 378.255C678.941 383.561 678.821 388.741 676.661 393.162C673.302 399.858 667.664 403.522 660.226 403.522C655.428 403.522 650.869 402.006 648.47 400.869C647.15 402.132 644.751 404.154 643.072 405.417C648.23 407.944 653.509 409.334 658.547 409.334C670.063 409.334 678.581 402.638 681.82 395.942C685.299 388.614 685.059 375.981 676.062 365.242ZM615.12 383.055C615.24 386.846 618.239 389.878 621.838 389.878H622.078C625.797 389.751 628.676 386.467 628.556 382.55C628.436 378.76 625.437 375.728 621.838 375.728H621.598C621.358 375.728 620.998 375.728 620.758 375.854C615.84 367.263 613.801 357.914 614.52 347.807C615 340.227 617.4 333.658 621.598 328.225C625.077 323.551 631.795 321.276 636.354 321.15C649.07 320.897 654.468 337.574 654.828 344.27C656.388 344.649 659.027 345.533 660.826 346.165C659.387 325.698 647.39 315.086 635.874 315.086C625.077 315.086 615.12 323.298 611.161 335.426C605.643 351.597 609.242 367.137 615.96 379.392C615.36 380.276 615 381.666 615.12 383.055Z" fill="#0075F2"/>
<g clip-path="url(#clip2_7280_6438)">
<path d="M121.982 413.632C121.982 409.48 118.616 406.114 114.463 406.114H46.5512C42.3984 406.114 39.0317 409.48 39.0317 413.632V481.527C39.0317 485.678 42.3984 489.044 46.5512 489.044H114.463C118.616 489.044 121.982 485.678 121.982 481.527V413.632ZM66.6717 422.302C69.4295 422.302 71.7392 424.462 71.7392 427.292C71.7392 430.124 69.4295 432.285 66.6717 432.285C63.9146 432.285 61.6049 430.124 61.6049 427.292C61.6049 424.462 63.9146 422.302 66.6717 422.302ZM100.573 470.055C95.4311 470.055 92.9727 467.002 92.9727 462.829C92.9727 461.638 93.1211 460.37 93.4937 459.104L95.9532 450.313C96.251 449.344 96.3259 448.451 96.3259 447.631C96.3259 444.801 94.6118 443.087 91.8545 443.087C88.3518 443.087 86.0418 445.6 84.8497 450.443L80.0801 469.568H71.7345L73.2323 463.558C70.7794 467.587 67.3724 470.082 63.1695 470.082C58.1022 470.082 55.7176 467.164 55.7176 462.767C55.7176 461.651 55.8669 460.284 56.1647 459.017L59.9651 443.495H54.0787L55.8671 436.899H70.0254L64.436 459.064C64.0633 460.481 63.9144 461.656 63.9144 462.474C63.9144 463.891 64.6122 464.306 65.7035 464.552C66.368 464.701 71.6635 464.597 74.5468 458.19L78.2176 443.495H72.256L74.0444 436.899H86.7869L85.1478 444.388C87.3829 440.215 91.8543 436.251 96.2507 436.251C100.945 436.251 104.821 439.595 104.821 446.002C104.821 447.64 104.597 449.423 104.001 451.434L101.616 459.999C101.393 460.895 101.243 461.639 101.243 462.309C101.243 463.799 101.84 464.543 102.958 464.543C104.075 464.543 105.491 463.722 107.131 459.18L110.409 460.445C108.472 467.225 104.97 470.055 100.573 470.055Z" fill="#0075F2"/>
</g>
<path d="M174.151 343.652H168.348C155.382 343.652 144.868 354.173 144.868 367.148V496.085C144.868 509.061 155.382 519.582 168.348 519.582H247.962C260.928 519.582 271.441 509.061 271.441 496.085" stroke="#0075F2" stroke-width="1.34152" stroke-linecap="round" stroke-linejoin="round"/>
<path d="M264.911 221.99V196.522C264.911 188.571 271.345 182.132 279.29 182.132H382.822C390.767 182.132 397.201 188.571 397.201 196.522" stroke="#075FDB" stroke-width="1.34152" stroke-linecap="round" stroke-linejoin="round"/>
<path d="M551.403 256.158V449.081C551.403 462.217 540.761 472.857 527.645 472.857H188.567C175.441 472.857 164.81 462.207 164.81 449.081V256.158C164.81 255.59 164.831 255.033 164.885 254.476C165.73 242.122 176.019 232.361 188.578 232.361H527.645C540.204 232.361 550.482 242.122 551.339 254.476C551.381 255.033 551.414 255.59 551.414 256.158H551.403Z" fill="white" stroke="#075FDB" stroke-width="1.34152" stroke-linecap="round" stroke-linejoin="round"/>
<path d="M176.374 263.401H541.05V441.613C541.05 453.914 531.072 463.899 518.781 463.899H198.643C186.352 463.899 176.374 453.914 176.374 441.613V263.401Z" fill="#383838"/>
<path opacity="0.2" d="M541.05 263.39V441.614C541.05 453.914 531.179 463.889 519.027 463.889H198.397C186.245 463.889 176.374 453.914 176.374 441.614V263.39H541.061H541.05Z" fill="#383838"/>
<path d="M212.369 243.43C212.369 245.755 210.485 247.64 208.161 247.64C205.838 247.64 203.954 245.755 203.954 243.43C203.954 241.104 205.838 239.219 208.161 239.219C210.485 239.219 212.369 241.104 212.369 243.43Z" fill="#0075F2"/>
<path d="M230.162 243.43C230.162 245.755 228.278 247.64 225.954 247.64C223.631 247.64 221.747 245.755 221.747 243.43C221.747 241.104 223.631 239.219 225.954 239.219C228.278 239.219 230.162 241.104 230.162 243.43Z" fill="#0075F2"/>
<path d="M243.751 247.64C246.075 247.64 247.959 245.755 247.959 243.43C247.959 241.104 246.075 239.219 243.751 239.219C241.427 239.219 239.543 241.104 239.543 243.43C239.543 245.755 241.427 247.64 243.751 247.64Z" fill="#0075F2"/>
<path d="M541.05 263.401V441.613C541.05 453.914 531.083 463.899 518.781 463.899H198.643C187.83 463.899 178.815 456.174 176.802 445.931H176.791V445.867C176.523 444.485 176.374 443.049 176.374 441.603V263.401H541.05Z" fill="white" stroke="#075FDB" stroke-width="1.34152" stroke-miterlimit="10"/>
<path d="M540.709 290.969C539.146 290.09 537.487 289.405 535.763 288.923L533.771 279.976H525.27L523.29 288.923C521.555 289.394 519.885 290.09 518.332 290.969L510.656 286.051L504.649 292.062L509.478 299.744C508.589 301.319 507.904 302.98 507.433 304.705L498.493 306.687V315.194L507.433 317.187C507.904 318.934 508.589 320.616 509.478 322.191L504.564 329.916L510.57 335.927L518.29 331.009C519.853 331.898 521.512 332.584 523.247 333.066L525.228 342.002H533.729L535.72 333.066C537.444 332.584 539.114 331.887 540.666 331.009L541.052 331.255V290.712L540.698 290.937L540.709 290.969ZM529.532 321.987C523.461 321.987 518.547 317.069 518.547 310.994C518.547 304.919 523.461 300.001 529.532 300.001C535.602 300.001 540.517 304.93 540.517 310.994C540.517 317.059 535.602 321.987 529.532 321.987Z" fill="#0075F2"/>
<path d="M387.497 299.583V281.637L368.643 277.458C367.615 273.815 366.17 270.301 364.328 266.99L366.609 263.401H277.637L279.832 266.904C277.979 270.205 276.534 273.708 275.528 277.362L256.673 281.562V299.498L275.528 303.708C276.534 307.383 277.969 310.93 279.832 314.251L269.478 330.548L282.166 343.234L298.44 332.873C301.748 334.727 305.249 336.184 308.9 337.212L313.076 356.048H331.009L335.228 337.212C338.868 336.184 342.358 334.716 345.656 332.873L361.94 343.234L374.617 330.548L364.328 314.251C366.159 310.941 367.615 307.448 368.643 303.805L387.497 299.594V299.583ZM322.187 313.791C309.393 313.791 299.029 303.408 299.029 290.615C299.029 277.822 309.403 267.44 322.187 267.44C334.971 267.44 345.345 277.822 345.345 290.615C345.345 303.408 334.971 313.791 322.187 313.791Z" fill="#0075F2"/>
<path d="M268.58 422.778L269.34 408.549L254.597 404.392C253.912 401.477 252.894 398.627 251.578 395.927L260.485 383.413L250.946 372.816L237.595 380.37C235.047 378.774 232.327 377.466 229.468 376.481L226.92 361.352L212.702 360.591L208.591 375.388C205.657 376.041 202.83 377.059 200.132 378.388L187.638 369.474L177.028 379.02L184.586 392.392C182.959 394.931 181.653 397.652 180.689 400.513L176.374 401.22V420.496L179.501 421.385C180.165 424.331 181.182 427.181 182.52 429.871L176.364 438.485L176.781 445.867V445.91H176.792L183.13 452.971L196.503 445.417C199.051 447.056 201.792 448.385 204.651 449.349L207.081 463.878L207.199 464.489L221.417 465.25L221.792 463.889L225.528 450.453C228.483 449.789 231.321 448.782 234.029 447.453L246.503 456.357L257.113 446.821L249.575 433.438C251.181 430.899 252.477 428.178 253.43 425.328L268.569 422.778H268.58Z" fill="#0075F2"/>
<path d="M382.304 401.52C382.861 399.313 383.139 397.052 383.171 394.781L393.396 389.402L390.569 379.02L379.028 379.556C377.861 377.606 376.469 375.806 374.884 374.198L378.3 363.152L368.985 357.805L361.191 366.323C358.996 365.788 356.747 365.498 354.478 365.466L349.081 355.223L338.728 358.041L339.274 369.602C337.326 370.77 335.527 372.163 333.91 373.748L322.872 370.341L317.529 379.652L326.084 387.431C325.527 389.638 325.249 391.888 325.238 394.149L314.992 399.549L317.818 409.931L329.371 409.384C330.527 411.334 331.908 413.134 333.503 414.752L330.067 425.745L339.381 431.092L347.133 422.649C349.338 423.206 351.587 423.485 353.857 423.495L359.242 433.738L369.595 430.92L369.146 421.042L369.071 419.349C371.041 418.192 372.85 416.799 374.488 415.202L385.527 418.631L390.088 410.659L390.869 409.309L382.325 401.52H382.304ZM357.818 407.82C350.42 409.834 342.797 405.463 340.784 398.07C338.771 390.666 343.139 383.038 350.527 381.023C357.925 379.009 365.548 383.381 367.561 390.774C369.574 398.177 365.206 405.806 357.818 407.82Z" fill="#0075F2"/>
<path d="M500.835 419.777L503.202 405.538L488.79 399.731C488.459 396.688 487.763 393.72 486.724 390.838L497.099 379.277L488.705 367.534L474.401 373.609C472.024 371.702 469.444 370.095 466.681 368.809L465.846 353.284L451.607 350.927L445.771 365.284C442.752 365.638 439.786 366.334 436.928 367.363L425.343 356.98L413.62 365.38L419.701 379.684C418.02 381.784 416.575 384.034 415.365 386.424C415.204 386.756 415.033 387.088 414.883 387.42L399.38 388.288L397.014 402.517L399.348 403.459L411.414 408.324C411.746 411.335 412.431 414.313 413.48 417.174L403.106 428.767L411.5 440.499L425.804 434.403C428.17 436.331 430.761 437.949 433.512 439.235L434.315 454.696L448.544 457.053L454.369 442.803C457.399 442.471 460.375 441.774 463.234 440.724L474.797 451.117L486.531 442.706L480.45 428.392C482.388 426.013 484.026 423.399 485.332 420.624L500.835 419.777ZM460.911 419.135C452.538 425.124 440.889 423.195 434.904 414.817C428.909 406.449 430.846 394.791 439.208 388.802C447.581 382.802 459.23 384.741 465.215 393.109C471.21 401.488 469.272 413.145 460.911 419.135Z" fill="#0075F2"/>
<path d="M334.933 342.173V497.307C334.933 505.075 328.648 511.364 320.886 511.364H208.927C201.175 511.364 194.901 505.075 194.901 497.307V342.173C194.901 334.416 201.186 328.137 208.927 328.137H320.886C328.648 328.137 334.933 334.427 334.933 342.173Z" fill="white" stroke="#075FDB" stroke-width="1.34152" stroke-linecap="round" stroke-linejoin="round"/>
<path d="M334.932 342.173V350.477H194.89V342.173C194.89 334.416 201.174 328.137 208.915 328.137H320.874C328.636 328.137 334.921 334.427 334.921 342.173H334.932Z" fill="white" stroke="#075FDB" stroke-width="1.34152" stroke-linecap="round" stroke-linejoin="round"/>
<path d="M242.511 360.098H208.057V365.884H242.511V360.098Z" fill="#0075F2"/>
<path d="M242.511 411.945H208.057V417.731H242.511V411.945Z" fill="#0075F2"/>
<path d="M242.511 458.96H208.057V464.746H242.511V458.96Z" fill="#0075F2"/>
<path d="M305.906 374.413H208.058V378.656H305.906V374.413Z" fill="#0075F2"/>
<path d="M288.261 382.534H208.058V386.67H288.261V382.534Z" fill="#0075F2"/>
<path d="M298.764 390.516H208.058V394.652H298.764V390.516Z" fill="#0075F2"/>
<path d="M298.764 398.488H208.058V402.624H298.764V398.488Z" fill="#0075F2"/>
<path d="M305.906 421.428H208.058V425.671H305.906V421.428Z" fill="#0075F2"/>
<path d="M288.261 429.549H208.058V433.685H288.261V429.549Z" fill="#0075F2"/>
<path d="M298.764 437.531H208.058V441.667H298.764V437.531Z" fill="#0075F2"/>
<path d="M305.906 473.06H208.058V477.303H305.906V473.06Z" fill="#0075F2"/>
<path d="M288.261 481.181H208.058V485.317H288.261V481.181Z" fill="#0075F2"/>
<path d="M298.764 489.164H208.058V493.3H298.764V489.164Z" fill="#0075F2"/>
<path d="M492.748 220.554V283.255C492.748 292.512 485.264 300.001 476.014 300.001H331.7C322.46 300.001 314.965 292.512 314.965 283.255V220.554C314.965 211.297 322.46 203.797 331.7 203.797H476.014C485.264 203.797 492.748 211.297 492.748 220.554Z" fill="white" stroke="#075FDB" stroke-width="1.34152" stroke-miterlimit="10"/>
<path d="M492.748 220.554V221.979H314.965V220.554C314.965 211.297 322.46 203.797 331.7 203.797H476.014C485.264 203.797 492.748 211.297 492.748 220.554Z" stroke="#075FDB" stroke-width="1.34152" stroke-miterlimit="10"/>
<path d="M341.089 215.893C340.093 216.9 338.466 216.9 337.459 215.893C336.463 214.897 336.463 213.268 337.459 212.261C338.455 211.254 340.082 211.264 341.089 212.261C342.084 213.268 342.084 214.886 341.089 215.893Z" fill="#075FDB"/>
<path d="M352.994 215.893C351.999 216.9 350.371 216.9 349.365 215.893C348.369 214.896 348.369 213.268 349.365 212.261C350.361 211.264 351.988 211.264 352.994 212.261C354.001 213.257 353.99 214.886 352.994 215.893Z" fill="#075FDB"/>
<path d="M364.902 215.893C363.906 216.9 362.279 216.9 361.272 215.893C360.276 214.897 360.276 213.268 361.272 212.261C362.268 211.254 363.895 211.264 364.902 212.261C365.908 213.257 365.897 214.886 364.902 215.893Z" fill="#075FDB"/>
<path d="M384.419 233.518H326.303V283.79H384.419V233.518Z" stroke="#075FDB" stroke-width="1.34152" stroke-linecap="round" stroke-linejoin="round"/>
<path d="M460.264 233.519H393.38V237.054H460.264V233.519Z" fill="#0075F2"/>
<path d="M444.686 240.836H393.38V244.361H444.686V240.836Z" fill="#0075F2"/>
<path d="M469.772 248.122H393.38V251.69H469.772V248.122Z" fill="#0075F2"/>
<path d="M458.434 255.226H393.38V258.794H458.434V255.226Z" fill="#0075F2"/>
<path d="M408.273 585.026C408.273 585.026 377.224 593.94 372.888 595.472C368.948 596.865 358.252 600.615 350.233 599.458C349.44 599.34 348.669 599.18 347.941 598.965C339.815 596.544 336.164 594.283 335.104 589.172C334.034 584.04 338.081 580.301 341.978 577.89C345.875 575.479 367.021 572.961 367.021 572.961L372.128 574.461H372.138L408.273 585.037V585.026Z" fill="#333333"/>
<path d="M350.233 599.458C349.44 599.34 348.669 599.18 347.941 598.965C339.815 596.544 336.164 594.283 335.104 589.172C334.034 584.04 338.081 580.301 341.978 577.89C345.875 575.479 367.021 572.961 367.021 572.961L372.128 574.461C367.513 576.594 350.286 577.772 346.539 579.937C342.781 582.101 340.961 586.172 343.188 591.679C344.365 594.615 347.535 597.444 350.254 599.469L350.233 599.458Z" fill="white"/>
<path d="M403.604 586.301C403.604 586.301 380.285 592.344 371.035 596.212C361.784 600.079 344.15 601.772 337.866 593.79C331.581 585.808 337.137 578.94 343.422 577.418C349.707 575.897 362.416 573.476 369.354 574.44" stroke="black" stroke-width="1.34152" stroke-linecap="round" stroke-linejoin="round"/>
<path d="M350.705 599.04C350.705 599.04 338.842 592.526 342.782 583.408C345.694 576.679 361.518 578.136 369.355 574.451" stroke="black" stroke-width="1.34152" stroke-linecap="round" stroke-linejoin="round"/>
<path d="M502.841 600.904C502.52 604.087 501.396 607.13 498.184 609.026C496.043 610.29 493.002 611.051 488.644 610.997C477.756 610.858 457.285 603.069 457.285 603.069L438.12 592.472L448.088 576.679L450.818 572.351L457.874 573.936C457.874 573.936 463.709 577.247 469.576 579.883C475.443 582.519 489.694 583.076 494.704 587.136C499.726 591.187 503.387 595.612 502.841 600.904Z" fill="#333333"/>
<path d="M502.843 600.904C502.522 604.087 501.397 607.13 498.185 609.026C498.785 606.551 499.288 603.144 497.639 599.447C495.509 594.637 488.539 590.394 479.363 589.687C470.209 588.979 463.186 584.683 459.513 582.776C456.644 581.286 450.595 578.04 448.079 576.679L450.809 572.351L457.864 573.936C457.864 573.936 463.7 577.247 469.567 579.883C475.434 582.519 489.684 583.076 494.695 587.136C499.716 591.187 503.378 595.612 502.832 600.904H502.843Z" fill="white"/>
<path d="M442.363 595.441C456.003 603.262 471.613 608.898 487.223 610.773C490.713 611.191 494.771 611.255 497.105 608.63C498.411 607.173 498.883 605.105 498.711 603.155C498.294 598.226 494.15 594.326 489.611 592.376C485.071 590.426 480.06 589.955 475.242 588.873C470.446 587.801 465.789 586.087 461.431 583.815C457.962 582.005 454.611 579.808 450.789 579.005C446.966 578.19 442.416 579.176 440.371 582.508" stroke="black" stroke-width="1.34152" stroke-linecap="round" stroke-linejoin="round"/>
<path d="M495.831 609.969C499.353 608.158 502.255 604.826 502.844 600.905C503.54 596.265 500.895 591.594 497.18 588.744C493.454 585.894 488.807 584.544 484.214 583.59C479.621 582.637 474.932 581.994 470.553 580.29C463.84 577.665 457.212 572.479 450.242 574.322" stroke="black" stroke-width="1.34152" stroke-linecap="round" stroke-linejoin="round"/>
<path d="M463.999 429.453L431.568 417.099L431.172 416.949C431.172 416.949 431.29 416.081 431.386 414.839C431.59 412.246 431.697 408.035 430.476 406.599C428.667 404.488 423.538 406.256 418.549 403.963C413.549 401.671 404.309 405.774 404.309 405.774C404.309 405.774 397.639 404.542 394.695 409.364C393.196 413.253 393.71 419.039 393.71 419.039C393.71 419.039 393.496 419.124 393.1 419.264C389.234 420.71 368.217 428.628 363.764 431.799C358.849 435.282 353.421 471.036 351.665 481.536C349.92 492.047 346.815 501.497 348.389 505.118C349.963 508.718 372.554 526.129 385.541 530.629C398.528 535.129 444.63 533.811 444.63 533.811C444.63 533.811 445.391 533.608 446.718 533.19C454.513 530.683 482.178 520.365 496.846 496.032C496.846 496.032 482.639 449.393 463.999 429.464V429.453ZM376.376 489.593C373.988 491.286 375.262 497.843 375.262 497.843L371.205 494.264L381.397 469.182L385.744 488.436C385.744 488.436 378.763 487.911 376.376 489.593ZM457.907 505.525C456.782 506.104 461.129 494.05 459.063 491.318C456.996 488.575 450.808 488.843 450.808 488.843L451.343 485.543C451.418 485.179 455.016 466.696 455.016 466.696L456.236 465.239C456.236 465.239 468.849 486.882 471.108 494.5C471.108 494.5 457.36 505.515 457.917 505.515L457.907 505.525Z" fill="#1E1E1E"/>
<path d="M402.76 351.227L386.025 369.013C386.025 369.013 383.713 371.059 384.634 376.213C385.554 381.377 387.685 385.802 389.302 386.145C390.918 386.488 393.177 386.488 393.177 386.488C393.177 386.488 396.764 394.267 399.302 397.32C399.302 397.32 400.19 409.331 399.719 412.663C399.719 412.663 405.736 417.924 411.4 418.588C417.064 419.252 425.811 410.574 425.811 410.574L427.985 399.945C427.985 399.945 433.124 392.145 433.466 390.066C433.82 387.988 436.164 388.524 437.321 387.495C438.477 386.466 441.143 381.891 441.582 377.563C442.021 373.234 442.053 368.263 437.032 369.72C432.674 368.552 435.404 359.338 435.404 359.338L427.749 352.577L402.76 351.216V351.227Z" fill="white"/>
<path d="M431.56 417.099C431.303 417.785 431.014 418.439 430.693 419.039C427.93 424.246 415.896 434.178 415.896 434.178L412.256 422.982L410.265 434.178C406.25 432.432 394.001 421.803 394.001 421.803C394.001 421.803 393.584 420.806 393.081 419.264C393.487 419.124 393.691 419.039 393.691 419.039C393.691 419.039 393.166 413.242 394.676 409.364C397.62 404.542 404.29 405.774 404.29 405.774C404.29 405.774 413.541 401.671 418.53 403.963C423.53 406.256 428.648 404.488 430.457 406.599C432.267 408.71 431.153 416.949 431.153 416.949L431.549 417.099H431.56Z" fill="white"/>
<path opacity="0.2" d="M463.999 429.453L431.569 417.099L431.173 416.949C431.173 416.949 431.291 416.081 431.387 414.839L430.713 419.049L425.916 425.574C425.916 425.574 434.021 428.499 440.884 432.175C445.648 434.725 448.389 439.921 447.757 445.289L441.783 496.45L439.342 525.497L446.74 533.179C454.535 530.672 482.201 520.354 496.869 496.022C496.869 496.022 482.661 449.382 464.021 429.453H463.999ZM457.907 505.525C456.783 506.104 461.13 494.05 459.064 491.318C456.997 488.575 450.809 488.843 450.809 488.843L451.344 485.543C451.419 485.179 455.016 466.696 455.016 466.696L456.237 465.239C456.237 465.239 468.849 486.882 471.108 494.5C471.108 494.5 457.361 505.515 457.918 505.515L457.907 505.525Z" fill="#4B4B4B"/>
<path opacity="0.2" d="M387.94 491.318L382.897 474.453C382.897 474.453 373.861 443.596 367.651 435.978L369.278 457.685C369.278 457.685 363.957 483.614 359.032 491.318C354.107 499.011 353.047 500.939 359.032 500.939C365.017 500.939 379.578 512.554 379.578 512.554L378.454 502.857L387.929 491.307L387.94 491.318ZM375.263 497.843L371.205 494.264L381.398 469.182L385.745 488.436C385.745 488.436 378.764 487.91 376.377 489.593C373.989 491.286 375.263 497.843 375.263 497.843Z" fill="black"/>
<path d="M399.301 397.331C399.301 397.331 400.233 406.428 399.301 410.585" stroke="black" stroke-width="1.34152" stroke-linecap="round" stroke-linejoin="round"/>
<path d="M426.742 409.363C426.742 409.363 426.688 404.928 427.748 400.674" stroke="black" stroke-width="1.34152" stroke-linecap="round" stroke-linejoin="round"/>
<path d="M429.17 358.009C429.17 358.009 434.673 364.92 434.384 370.138C434.106 375.356 433.677 381.57 433.817 387.634C433.956 393.699 424.084 406.395 419.009 407.531C413.934 408.656 409.566 408.945 406.322 405.699C403.078 402.452 399.834 397.942 395.605 392.156C391.376 386.37 392.361 373.673 392.361 373.673" stroke="black" stroke-width="1.34152" stroke-linecap="round" stroke-linejoin="round"/>
<path d="M415.941 378.506C415.609 380.402 415.459 382.331 415.512 384.259C415.555 385.866 415.791 387.613 416.926 388.759C417.536 389.381 418.414 389.874 418.532 390.741C418.639 391.502 418.05 392.199 417.407 392.616C416.754 393.034 416.005 393.291 415.427 393.795" stroke="black" stroke-width="1.34152" stroke-linecap="round" stroke-linejoin="round"/>
<path d="M407.204 394.46C407.204 394.46 407.836 398.563 413.339 399.42" stroke="black" stroke-width="1.34152" stroke-linecap="round" stroke-linejoin="round"/>
<path d="M407.169 381.634C407.169 382.149 407.056 382.582 406.905 382.864C406.83 383.004 406.756 383.087 406.701 383.131C406.675 383.151 406.656 383.16 406.646 383.164C406.638 383.167 406.634 383.167 406.633 383.167H406.633C406.632 383.167 406.632 383.167 406.63 383.167C406.629 383.167 406.626 383.166 406.621 383.164C406.612 383.161 406.593 383.152 406.567 383.131C406.511 383.087 406.437 383.002 406.361 382.86C406.209 382.576 406.097 382.143 406.097 381.634C406.097 381.126 406.209 380.692 406.361 380.408C406.437 380.267 406.511 380.182 406.567 380.138C406.593 380.117 406.612 380.108 406.621 380.104C406.626 380.102 406.629 380.102 406.63 380.102C406.632 380.101 406.632 380.101 406.633 380.101C406.633 380.101 406.634 380.101 406.635 380.102C406.637 380.102 406.64 380.102 406.645 380.104C406.654 380.108 406.673 380.117 406.699 380.138C406.755 380.182 406.829 380.267 406.905 380.408C407.057 380.692 407.169 381.126 407.169 381.634Z" fill="#0075F2" stroke="black" stroke-width="1.21956"/>
<path d="M423.561 382.148C423.561 382.663 423.449 383.096 423.298 383.378C423.223 383.518 423.148 383.602 423.094 383.645C423.067 383.666 423.049 383.675 423.039 383.678C423.03 383.682 423.026 383.682 423.026 383.682H423.025C423.025 383.682 423.024 383.682 423.023 383.681C423.022 383.681 423.019 383.68 423.014 383.679C423.004 383.675 422.986 383.666 422.959 383.645C422.904 383.601 422.829 383.516 422.754 383.375C422.602 383.09 422.49 382.657 422.49 382.148C422.49 381.64 422.602 381.207 422.754 380.922C422.829 380.781 422.904 380.696 422.959 380.652C422.986 380.631 423.004 380.622 423.014 380.618C423.019 380.617 423.022 380.616 423.023 380.616C423.024 380.615 423.025 380.615 423.025 380.615C423.026 380.615 423.027 380.615 423.028 380.616C423.029 380.616 423.032 380.617 423.037 380.618C423.047 380.622 423.065 380.631 423.092 380.652C423.147 380.696 423.222 380.781 423.297 380.922C423.449 381.207 423.561 381.64 423.561 382.148Z" fill="#0075F2" stroke="black" stroke-width="1.21956"/>
<path d="M420.865 376.952C420.865 376.952 426.197 371.617 430.705 377.563" stroke="black" stroke-width="2.69523" stroke-linecap="round" stroke-linejoin="round"/>
<path d="M409.593 377.059C409.593 377.059 406.21 373.266 400.878 377.059" stroke="black" stroke-width="2.69523" stroke-linecap="round" stroke-linejoin="round"/>
<path d="M399.718 402.335C399.718 402.335 402.983 411.335 410.275 413.896C417.566 416.446 427.245 403.192 427.245 403.192L426.741 401.467C426.741 401.467 420.403 409.717 413.347 408.303C406.292 406.899 399.311 397.331 399.311 397.331L399.729 402.324L399.718 402.335Z" fill="black"/>
<path d="M393.177 386.145C393.177 386.145 388.83 387.677 387.674 384.291C386.517 380.906 382.556 371.98 386.025 369.013C389.494 366.034 392.277 372.934 392.277 372.934" stroke="black" stroke-width="1.34152" stroke-linecap="round" stroke-linejoin="round"/>
<path d="M433.818 387.999C433.818 387.999 437.855 388.813 439.011 385.428C440.167 382.042 444.129 373.117 440.66 370.149C437.191 367.17 434.407 374.07 434.407 374.07" stroke="black" stroke-width="1.34152" stroke-linecap="round" stroke-linejoin="round"/>
<path d="M392.276 381.634C393.475 381.581 395.456 380.402 396.088 379.384C396.719 378.356 396.987 377.156 397.201 375.966C397.597 373.695 397.801 371.381 397.801 369.077C397.801 368.177 397.779 367.256 398.047 366.388C398.325 365.488 398.893 364.716 399.503 363.998C401.023 362.22 402.843 360.72 404.289 358.877C405.734 357.034 406.794 354.709 406.398 352.405C406.398 352.405 416.248 361.416 430.456 358.63C438.1 357.13 445.445 350.413 444.556 341.97C444.235 338.97 442.03 336.805 439.171 336.087C435.391 335.145 431.997 337.159 428.571 338.455C422.329 340.812 416.216 336.762 409.91 336.087C404.514 335.509 397.886 336.173 395.081 341.541C395.081 341.541 385.392 342.677 381.141 350.648C376.891 358.62 384.963 369.645 384.963 369.645C384.963 369.645 388.208 365.713 392.383 373.673L392.287 381.634H392.276Z" fill="#050505"/>
<path d="M429.781 355.974C429.781 355.974 427.276 369.045 433.818 375.377C433.818 375.377 435.252 371.445 436.698 370.492C436.698 370.492 440.338 363.581 435.552 355.984C430.766 348.377 429.781 355.984 429.781 355.984V355.974Z" fill="#050505"/>
<path opacity="0.2" d="M441.763 341.102C440.8 344.702 437.748 347.488 434.301 348.902C425.222 352.598 416.4 348.495 407.31 347.691C399.879 347.038 391.689 353.734 391.175 361.363" stroke="white" stroke-width="1.34152" stroke-linecap="round" stroke-linejoin="round"/>
<path opacity="0.2" d="M385.531 359.348C385.67 353.338 389.631 347.584 395.199 345.334" stroke="white" stroke-width="1.34152" stroke-linecap="round" stroke-linejoin="round"/>
<path d="M397.214 409.363C397.214 409.363 403.199 415.964 411.358 419.039C411.358 419.039 422.225 415.889 427.76 408.303" stroke="black" stroke-width="1.34152" stroke-linecap="round" stroke-linejoin="round"/>
<path d="M408.299 390.362C413.126 388.147 415.244 382.435 413.03 377.605C410.816 372.775 405.109 370.656 400.283 372.871C395.456 375.087 393.338 380.798 395.552 385.628C397.766 390.458 403.473 392.578 408.299 390.362Z" stroke="black" stroke-width="1.34152" stroke-linecap="round" stroke-linejoin="round"/>
<path d="M426.94 391.205C432.21 390.557 435.958 385.757 435.311 380.483C434.664 375.208 429.867 371.458 424.597 372.105C419.326 372.753 415.578 377.553 416.225 382.828C416.873 388.102 421.67 391.852 426.94 391.205Z" stroke="black" stroke-width="1.34152" stroke-linecap="round" stroke-linejoin="round"/>
<path d="M399.3 405.774C399.3 405.774 396.377 406.363 394.675 409.363C392.973 412.363 394 421.803 394 421.803C394 421.803 402.791 430.503 410.274 434.178L412.48 421.76L415.906 434.178C415.906 434.178 427.491 425.981 430.703 419.049C430.703 419.049 431.752 410.97 430.703 408.313C429.653 405.656 427.244 405.785 427.244 405.785" stroke="black" stroke-width="1.34152" stroke-linecap="round" stroke-linejoin="round"/>
<path d="M385.531 488.853C385.531 488.853 382.104 465.817 377.533 456.421" stroke="black" stroke-width="1.34152" stroke-linecap="round" stroke-linejoin="round"/>
<path d="M367.65 435.978C367.65 435.978 371.997 442.064 374.76 447.881" stroke="black" stroke-width="1.34152" stroke-linecap="round" stroke-linejoin="round"/>
<path d="M457.918 453.174C459.128 448.588 460.413 444.56 461.698 441.935L457.918 453.174Z" fill="black"/>
<path d="M457.918 453.174C459.128 448.588 460.413 444.56 461.698 441.935" stroke="black" stroke-width="1.34152" stroke-linecap="round" stroke-linejoin="round"/>
<path d="M450.81 488.853C450.81 488.853 453.283 473.06 456.238 460.053L450.81 488.853Z" fill="black"/>
<path d="M450.81 488.853C450.81 488.853 453.283 473.06 456.238 460.053" stroke="black" stroke-width="1.34152" stroke-linecap="round" stroke-linejoin="round"/>
<path d="M455.018 466.696C457.373 463.546 460.799 461.199 464.589 460.149L455.018 466.696Z" fill="black"/>
<path d="M455.018 466.696C457.373 463.546 460.799 461.199 464.589 460.149" stroke="black" stroke-width="1.34152" stroke-linecap="round" stroke-linejoin="round"/>
<path d="M431.162 416.949C431.162 416.949 451.119 424.92 463.999 429.453C463.999 429.453 479.844 444.367 496.836 496.021C496.836 496.021 481.258 522.229 451.654 530.629" stroke="black" stroke-width="1.34152" stroke-linecap="round" stroke-linejoin="round"/>
<path d="M456.792 506.457L471.096 494.5C471.096 494.5 478.666 488.746 486.535 492.678" stroke="black" stroke-width="1.34152" stroke-linecap="round" stroke-linejoin="round"/>
<path d="M456.239 465.25C456.239 465.25 468.07 482.693 471.099 494.511L456.239 465.25Z" fill="black"/>
<path d="M456.239 465.25C456.239 465.25 468.07 482.693 471.099 494.511" stroke="black" stroke-width="1.34152" stroke-linecap="round" stroke-linejoin="round"/>
<path d="M375.394 498.507L371.208 494.51C371.208 494.51 364.987 493.428 357.953 498.143" stroke="black" stroke-width="1.34152" stroke-linecap="round" stroke-linejoin="round"/>
<path d="M371.207 494.51C371.207 494.51 376.41 477.421 381.538 468.592" stroke="black" stroke-width="1.34152" stroke-linecap="round" stroke-linejoin="round"/>
<path d="M393.689 419.049C393.689 419.049 364.985 429.828 362.169 432.967C359.353 436.106 348.657 496.396 348.379 503.296C348.122 509.468 370.488 523.322 381.526 529.161" stroke="black" stroke-width="1.34152" stroke-linecap="round" stroke-linejoin="round"/>
<path d="M497.618 376.159H464.91C461.049 376.159 457.918 379.292 457.918 383.156V402.367C457.918 406.231 461.049 409.363 464.91 409.363H497.618C501.48 409.363 504.61 406.231 504.61 402.367V383.156C504.61 379.292 501.48 376.159 497.618 376.159Z" fill="white" stroke="#0075F2" stroke-width="1.34152" stroke-linecap="round" stroke-linejoin="round"/>
<path d="M472.982 386.145L463.999 391.792L472.329 399.185" stroke="#0075F2" stroke-width="1.34152" stroke-linecap="round" stroke-linejoin="round"/>
<path d="M489.343 399.72L497.415 392.842L488.101 386.734" stroke="#0075F2" stroke-width="1.34152" stroke-linecap="round" stroke-linejoin="round"/>
<path d="M477.342 403.963L483.98 383.156" stroke="#0075F2" stroke-width="1.34152" stroke-linecap="round" stroke-linejoin="round"/>
<path d="M415.157 439.406C415.157 440.446 414.312 441.292 413.273 441.292C412.235 441.292 411.389 440.446 411.389 439.406C411.389 438.367 412.235 437.521 413.273 437.521C414.312 437.521 415.157 438.367 415.157 439.406Z" fill="black"/>
<path d="M448.378 539.748H383.047C382.538 539.748 382.125 539.335 382.125 538.825C382.125 538.315 382.538 537.903 383.047 537.903H448.378C448.887 537.903 449.299 538.315 449.299 538.825C449.299 539.335 448.887 539.748 448.378 539.748Z" fill="black" stroke="black" stroke-width="1.21956"/>
<path d="M450.66 535.279L459.418 494.135C459.997 491.414 457.919 488.843 455.136 488.843H378.809C376.057 488.843 373.98 491.36 374.515 494.071L382.363 533.843C382.759 535.857 384.504 537.325 386.56 537.368L446.281 538.739C448.38 538.782 450.221 537.336 450.66 535.279Z" fill="white" stroke="black" stroke-width="1.34152" stroke-linecap="round" stroke-linejoin="round"/>
<path d="M422.204 512.564C422.204 515.592 419.746 518.051 416.721 518.051C413.697 518.051 411.239 515.592 411.239 512.564C411.239 509.536 413.697 507.078 416.721 507.078C419.746 507.078 422.204 509.536 422.204 512.564Z" fill="black" stroke="black" stroke-width="1.21956"/>
<path d="M434.784 492.753H443.852" stroke="black" stroke-width="1.34152" stroke-linecap="round" stroke-linejoin="round"/>
<path d="M391.473 492.753H425.905" stroke="black" stroke-width="1.34152" stroke-linecap="round" stroke-linejoin="round"/>
<path d="M451.014 578.272L450.575 577.832L450.24 578.712L443.473 596.485C443.389 596.464 443.295 596.441 443.191 596.415C442.66 596.283 441.878 596.09 440.868 595.843C438.847 595.35 435.917 594.644 432.276 593.792C424.994 592.089 414.868 589.803 403.491 587.471C379.692 582.59 355.148 576.312 342.421 553.974L342.421 553.973C340.881 551.279 339.924 548.188 340.601 545.32C341.47 541.675 344.277 539.309 347.796 537.743C351.317 536.177 355.454 535.459 358.782 535.07L358.783 535.07C362.949 534.581 367.165 534.421 371.387 534.356C371.387 534.356 371.387 534.356 371.387 534.356L371.377 533.747M451.014 578.272L382.002 534.346L382.005 534.348L382.015 534.355L382.055 534.384C382.089 534.409 382.14 534.446 382.206 534.493C382.337 534.588 382.529 534.724 382.77 534.893C383.253 535.23 383.937 535.696 384.74 536.212C386.341 537.241 388.441 538.488 390.39 539.312M451.014 578.272C464.291 575.269 478.22 568.368 489.047 561.18C494.503 557.559 499.154 553.875 502.527 550.597C504.214 548.957 505.572 547.429 506.549 546.068C507.534 544.696 508.099 543.543 508.261 542.649C508.96 538.79 507.486 534.976 504.15 531.773C500.808 528.564 495.615 525.993 488.99 524.702M451.014 578.272L488.99 524.702M371.377 533.747C371.922 533.739 372.783 533.66 373.794 533.569C376.781 533.298 381.075 532.909 382.362 533.854M371.377 533.747C367.148 533.811 362.909 533.972 358.712 534.465L371.377 533.747ZM382.362 533.854C382.001 534.345 382.001 534.345 382.001 534.345L382.001 534.345L382.002 534.346L382.362 533.854ZM382.362 533.854C382.362 533.854 386.827 537.143 390.628 538.75M390.628 538.75L390.389 539.311C390.389 539.311 390.389 539.312 390.39 539.312M390.628 538.75C394.429 540.368 449.91 537.304 449.91 537.304M390.628 538.75L390.39 539.312C390.39 539.312 390.39 539.312 390.39 539.312M390.39 539.312L449.91 537.304M449.91 537.304L449.944 537.913L450.306 537.893L450.461 537.565L449.91 537.304ZM449.91 537.304C449.91 537.304 451.559 533.822 451.655 530.639M449.91 537.304C450.461 537.565 450.461 537.565 450.461 537.565L450.462 537.564L450.462 537.563L450.463 537.561L450.467 537.552L450.483 537.519C450.496 537.491 450.514 537.45 450.538 537.397C450.585 537.291 450.652 537.137 450.733 536.944C450.893 536.557 451.107 536.009 451.325 535.358C451.726 534.161 452.148 532.585 452.248 531.025M451.655 530.639L451.932 531.183C452.035 531.13 452.141 531.078 452.248 531.025M451.655 530.639L452.265 530.658C452.261 530.78 452.255 530.903 452.248 531.025M451.655 530.639C460.381 526.204 480.574 522.443 489.107 524.104C502.522 526.718 510.349 534.55 508.861 542.757C507.373 550.964 477.766 572.966 450.831 578.938L488.99 524.702M452.248 531.025C456.563 528.907 463.552 526.938 470.561 525.686C477.755 524.401 484.842 523.895 488.99 524.702M488.99 524.702L489.107 524.104L488.991 524.702C488.991 524.702 488.99 524.702 488.99 524.702Z" fill="#161616" stroke="black" stroke-width="1.21956"/>
<path d="M450.809 578.929C450.809 578.929 433.935 574.451 420.145 565.129C406.355 555.808 395.585 544.986 376.366 547.226" stroke="white" stroke-width="1.34152" stroke-linecap="round" stroke-linejoin="round"/>
<path d="M416.978 562.933C425.693 560.426 432.085 554.79 439.076 549.368C446.485 543.636 454.311 538.075 462.727 533.811" stroke="white" stroke-width="1.34152" stroke-linecap="round" stroke-linejoin="round"/>
<path d="M413.915 383.156H416.463" stroke="black" stroke-width="1.34152" stroke-linecap="round" stroke-linejoin="round"/>
<defs>
<clipPath id="clip0_7280_6438">
<rect width="121.986" height="121.956" fill="white" transform="translate(151.263 47.5627)"/>
</clipPath>
<clipPath id="clip1_7280_6438">
<rect width="148.823" height="148.786" fill="white" transform="translate(350.099)"/>
</clipPath>
<clipPath id="clip2_7280_6438">
<rect width="82.9504" height="82.9301" fill="white" transform="translate(39.0352 406.114)"/>
</clipPath>
</defs>
</svg>
