<svg width="832" height="614" viewBox="0 0 832 614" fill="none" xmlns="http://www.w3.org/2000/svg">
<path d="M407.976 613.999C586.16 613.999 730.607 605.558 730.607 595.146C730.607 584.734 586.16 576.293 407.976 576.293C229.792 576.293 85.3447 584.734 85.3447 595.146C85.3447 605.558 229.792 613.999 407.976 613.999Z" fill="#F5F5F5"/>
<path d="M486.973 107.708H447.065C444.451 107.708 442.075 109.651 441.518 112.246L441.248 113.497C439.885 119.832 434.081 124.579 427.698 124.579H389.759C383.376 124.579 378.402 119.832 378.147 113.497L378.098 112.246C377.993 109.652 375.958 107.708 373.343 107.708H333.436C320.125 107.708 308.393 118.504 307.228 131.822L275.121 499.025C273.956 512.343 283.802 523.139 297.112 523.139H450.651C463.962 523.139 475.694 512.343 476.859 499.025L508.966 131.822C510.131 118.504 500.285 107.708 486.975 107.708H486.973Z" fill="#407BFF"/>
<path opacity="0.7" d="M486.973 107.708H447.065C444.451 107.708 442.075 109.651 441.518 112.246L441.248 113.497C439.885 119.832 434.081 124.579 427.698 124.579H389.759C383.376 124.579 378.402 119.832 378.147 113.497L378.098 112.246C377.993 109.652 375.958 107.708 373.343 107.708H333.436C320.125 107.708 308.393 118.504 307.228 131.822L275.121 499.025C273.956 512.343 283.802 523.139 297.112 523.139H450.651C463.962 523.139 475.694 512.343 476.859 499.025L508.966 131.822C510.131 118.504 500.285 107.708 486.975 107.708H486.973Z" fill="white"/>
<path d="M471.411 276.6H389.883C386.925 276.6 384.738 274.201 384.996 271.24L391.138 200.996C391.396 198.036 394.005 195.636 396.962 195.636H478.49C481.448 195.636 483.637 198.036 483.377 200.996L477.235 271.24C476.976 274.201 474.368 276.6 471.411 276.6Z" fill="white"/>
<path d="M444.263 496.25H307.837C300.492 496.25 295.059 490.292 295.701 482.943C296.343 475.593 302.82 469.636 310.163 469.636H446.589C453.934 469.636 459.367 475.593 458.725 482.943C458.082 490.292 451.608 496.25 444.263 496.25Z" fill="white"/>
<path d="M455.161 176.326H329.978C325.854 176.326 322.803 172.981 323.164 168.855L324.184 157.183C324.545 153.057 328.181 149.712 332.304 149.712H457.489C461.612 149.712 464.664 153.057 464.303 157.183L463.283 168.855C462.921 172.981 459.286 176.326 455.162 176.326H455.161Z" fill="white"/>
<path d="M480.612 156.799C480.513 157.948 479.501 158.879 478.353 158.879C477.205 158.879 476.356 157.948 476.456 156.799C476.556 155.65 477.567 154.72 478.715 154.72C479.864 154.72 480.712 155.65 480.612 156.799Z" fill="white"/>
<path d="M480.07 163.018C479.971 164.167 478.959 165.098 477.811 165.098C476.663 165.098 475.814 164.167 475.914 163.018C476.014 161.869 477.025 160.938 478.173 160.938C479.322 160.938 480.17 161.869 480.07 163.018Z" fill="white"/>
<path d="M479.526 169.236C479.426 170.385 478.413 171.315 477.266 171.315C476.12 171.315 475.269 170.385 475.369 169.236C475.469 168.087 476.481 167.156 477.629 167.156C478.777 167.156 479.626 168.087 479.526 169.236Z" fill="white"/>
<path d="M461.278 392.496H308.965C306.006 392.496 303.82 390.096 304.078 387.136L311.088 306.956C311.346 303.996 313.955 301.597 316.912 301.597H469.225C472.183 301.597 474.37 303.996 474.112 306.956L467.102 387.136C466.842 390.096 464.234 392.496 461.278 392.496Z" fill="white"/>
<path d="M350.869 409.247H303.452C302.73 409.247 302.196 408.661 302.259 407.939C302.322 407.216 302.96 406.63 303.682 406.63H351.099C351.821 406.63 352.355 407.216 352.292 407.939C352.229 408.661 351.592 409.247 350.869 409.247Z" fill="white"/>
<path d="M410.139 409.247H359.234C358.512 409.247 357.978 408.661 358.041 407.939C358.104 407.216 358.742 406.63 359.464 406.63H410.369C411.091 406.63 411.625 407.216 411.562 407.939C411.499 408.661 410.862 409.247 410.139 409.247Z" fill="white"/>
<path d="M334.519 420.811H302.442C301.72 420.811 301.186 420.225 301.249 419.502C301.312 418.779 301.949 418.193 302.671 418.193H334.748C335.471 418.193 336.005 418.779 335.941 419.502C335.878 420.225 335.241 420.811 334.519 420.811Z" fill="white"/>
<path d="M395.428 420.811H342.882C342.16 420.811 341.625 420.225 341.689 419.502C341.752 418.779 342.389 418.193 343.111 418.193H395.657C396.379 418.193 396.914 418.779 396.85 419.502C396.787 420.225 396.15 420.811 395.428 420.811Z" fill="white"/>
<path d="M386.946 432.373H301.43C300.708 432.373 300.174 431.787 300.237 431.065C300.3 430.342 300.938 429.756 301.66 429.756H387.176C387.898 429.756 388.432 430.342 388.369 431.065C388.306 431.787 387.669 432.373 386.946 432.373Z" fill="white"/>
<path d="M400.957 432.373H395.311C394.589 432.373 394.055 431.787 394.118 431.065C394.181 430.342 394.818 429.756 395.541 429.756H401.187C401.909 429.756 402.443 430.342 402.38 431.065C402.316 431.787 401.679 432.373 400.957 432.373Z" fill="white"/>
<path d="M340.346 443.937H300.42C299.698 443.937 299.164 443.351 299.227 442.628C299.29 441.905 299.927 441.319 300.649 441.319H340.575C341.298 441.319 341.832 441.905 341.769 442.628C341.705 443.351 341.068 443.937 340.346 443.937Z" fill="white"/>
<path d="M398.419 443.937H348.709C347.987 443.937 347.453 443.351 347.516 442.628C347.579 441.905 348.216 441.319 348.939 441.319H398.649C399.371 441.319 399.905 441.905 399.842 442.628C399.779 443.351 399.141 443.937 398.419 443.937Z" fill="white"/>
<path d="M348.57 455.499H299.409C298.686 455.499 298.152 454.913 298.216 454.19C298.279 453.467 298.916 452.881 299.638 452.881H348.799C349.522 452.881 350.056 453.467 349.993 454.19C349.929 454.913 349.292 455.499 348.57 455.499Z" fill="white"/>
<path d="M396.537 455.499H356.934C356.212 455.499 355.678 454.913 355.741 454.19C355.804 453.467 356.441 452.881 357.164 452.881H396.767C397.489 452.881 398.023 453.467 397.96 454.19C397.897 454.913 397.259 455.499 396.537 455.499Z" fill="white"/>
<path d="M469.474 269.951C468.807 270.641 467.749 270.709 467.113 270.1L399.012 205.065C398.375 204.458 398.402 203.405 399.069 202.714C399.736 202.025 400.794 201.958 401.43 202.566L469.531 267.6C470.168 268.208 470.142 269.26 469.474 269.951Z" fill="#407BFF"/>
<path d="M392.986 269.925C392.438 269.236 392.596 268.182 393.34 267.574L428.078 239.149C428.82 238.541 429.866 238.607 430.414 239.297C430.961 239.986 430.803 241.04 430.06 241.648L395.322 270.073C394.58 270.681 393.533 270.614 392.986 269.925Z" fill="#407BFF"/>
<path d="M437.878 233.189C437.331 232.5 437.489 231.446 438.233 230.838L473.035 202.358C473.779 201.75 474.824 201.817 475.371 202.506C475.919 203.196 475.761 204.25 475.017 204.857L440.214 233.338C439.471 233.945 438.426 233.879 437.878 233.189Z" fill="#407BFF"/>
<g opacity="0.7">
<path d="M469.474 269.951C468.807 270.641 467.749 270.709 467.113 270.1L399.012 205.065C398.375 204.458 398.402 203.405 399.069 202.714C399.736 202.025 400.794 201.958 401.43 202.566L469.531 267.6C470.168 268.208 470.142 269.26 469.474 269.951Z" fill="white"/>
</g>
<g opacity="0.7">
<path d="M392.986 269.925C392.438 269.236 392.596 268.182 393.34 267.574L428.078 239.149C428.82 238.541 429.866 238.607 430.414 239.297C430.961 239.986 430.803 241.04 430.06 241.648L395.322 270.073C394.58 270.681 393.533 270.614 392.986 269.925Z" fill="white"/>
</g>
<g opacity="0.7">
<path d="M437.878 233.189C437.331 232.5 437.489 231.446 438.233 230.838L473.035 202.358C473.779 201.75 474.824 201.817 475.371 202.506C475.919 203.196 475.761 204.25 475.017 204.857L440.214 233.338C439.471 233.945 438.426 233.879 437.878 233.189Z" fill="white"/>
</g>
<path d="M275.796 99.7222H254.242C249.873 99.7222 246.33 103.267 246.33 107.639V129.207C246.33 133.579 249.873 137.124 254.242 137.124H275.796C280.166 137.124 283.709 133.579 283.709 129.207V107.639C283.709 103.267 280.166 99.7222 275.796 99.7222ZM265.018 107.378C268.272 107.378 270.02 110.017 270.02 113.272C270.02 116.527 268.272 119.166 265.018 119.166C261.765 119.166 260.016 116.527 260.016 113.272C260.016 110.017 261.765 107.378 265.018 107.378ZM278.029 129.471H252.009C251.793 129.471 251.595 129.383 251.454 129.24L253.121 124.683C254.194 121.749 256.985 119.797 260.106 119.797H269.932C273.054 119.797 275.844 121.749 276.918 124.683L278.585 129.24C278.442 129.383 278.246 129.471 278.029 129.471Z" fill="#407BFF"/>
<path opacity="0.7" d="M275.796 99.7222H254.242C249.873 99.7222 246.33 103.267 246.33 107.639V129.207C246.33 133.579 249.873 137.124 254.242 137.124H275.796C280.166 137.124 283.709 133.579 283.709 129.207V107.639C283.709 103.267 280.166 99.7222 275.796 99.7222ZM265.018 107.378C268.272 107.378 270.02 110.017 270.02 113.272C270.02 116.527 268.272 119.166 265.018 119.166C261.765 119.166 260.016 116.527 260.016 113.272C260.016 110.017 261.765 107.378 265.018 107.378ZM278.029 129.471H252.009C251.793 129.471 251.595 129.383 251.454 129.24L253.121 124.683C254.194 121.749 256.985 119.797 260.106 119.797H269.932C273.054 119.797 275.844 121.749 276.918 124.683L278.585 129.24C278.442 129.383 278.246 129.471 278.029 129.471Z" fill="white"/>
<path d="M199.111 188.422H182.734C176.847 188.422 172.074 193.198 172.074 199.089V215.476C172.074 221.367 176.847 226.142 182.734 226.142H199.111C204.998 226.142 209.77 221.367 209.77 215.476V199.089C209.77 193.198 204.998 188.422 199.111 188.422ZM190.922 216.225C190.922 216.225 184.195 208.902 184.195 205.184C184.195 201.466 187.207 198.453 190.922 198.453C194.638 198.453 197.65 201.466 197.65 205.184C197.65 208.902 190.922 216.225 190.922 216.225Z" fill="#407BFF"/>
<path d="M190.923 202.112C189.227 202.112 187.853 203.488 187.853 205.184C187.853 206.881 189.227 208.256 190.923 208.256C192.618 208.256 193.993 206.881 193.993 205.184C193.993 203.488 192.618 202.112 190.923 202.112Z" fill="#407BFF"/>
<g opacity="0.7">
<path d="M199.111 188.422H182.734C176.847 188.422 172.074 193.198 172.074 199.089V215.476C172.074 221.367 176.847 226.142 182.734 226.142H199.111C204.998 226.142 209.77 221.367 209.77 215.476V199.089C209.77 193.198 204.998 188.422 199.111 188.422ZM190.922 216.225C190.922 216.225 184.195 208.902 184.195 205.184C184.195 201.466 187.207 198.453 190.922 198.453C194.638 198.453 197.65 201.466 197.65 205.184C197.65 208.902 190.922 216.225 190.922 216.225Z" fill="white"/>
<path d="M190.923 202.112C189.227 202.112 187.853 203.488 187.853 205.184C187.853 206.881 189.227 208.256 190.923 208.256C192.618 208.256 193.993 206.881 193.993 205.184C193.993 203.488 192.618 202.112 190.923 202.112Z" fill="white"/>
</g>
<path d="M558.602 141.996L569.569 134.893L558.602 127.788V141.996Z" fill="#407BFF"/>
<path d="M572.734 115.529H551.841C546.922 115.529 542.937 119.518 542.937 124.438V145.345C542.937 150.265 546.923 154.254 551.841 154.254H572.734C577.653 154.254 581.64 150.265 581.64 145.345V124.438C581.64 119.517 577.653 115.529 572.734 115.529ZM562.287 148.819C554.599 148.819 548.368 142.584 548.368 134.891C548.368 127.199 554.599 120.963 562.287 120.963C569.975 120.963 576.207 127.199 576.207 134.891C576.207 142.584 569.975 148.819 562.287 148.819Z" fill="#407BFF"/>
<g opacity="0.7">
<path d="M558.602 141.996L569.569 134.893L558.602 127.788V141.996Z" fill="white"/>
<path d="M572.734 115.529H551.841C546.922 115.529 542.937 119.518 542.937 124.438V145.345C542.937 150.265 546.923 154.254 551.841 154.254H572.734C577.653 154.254 581.64 150.265 581.64 145.345V124.438C581.64 119.517 577.653 115.529 572.734 115.529ZM562.287 148.819C554.599 148.819 548.368 142.584 548.368 134.891C548.368 127.199 554.599 120.963 562.287 120.963C569.975 120.963 576.207 127.199 576.207 134.891C576.207 142.584 569.975 148.819 562.287 148.819Z" fill="white"/>
</g>
<path d="M593.246 195.738C593.246 195.305 593.222 194.879 593.186 194.456L595.697 193.061C595.507 191.852 595.189 190.687 594.763 189.576L591.895 189.624C591.532 188.843 591.101 188.101 590.61 187.403L592.086 184.941C591.327 184.003 590.472 183.147 589.535 182.388L587.074 183.865C586.377 183.374 585.635 182.944 584.854 182.579L584.902 179.709C583.793 179.281 582.628 178.963 581.42 178.775L580.024 181.287C579.601 181.251 579.175 181.227 578.742 181.227C578.31 181.227 577.884 181.251 577.461 181.287L576.067 178.775C574.859 178.965 573.694 179.283 572.584 179.709L572.632 182.579C571.852 182.942 571.11 183.374 570.412 183.865L567.951 182.388C567.014 183.147 566.159 184.003 565.4 184.941L566.876 187.403C566.385 188.101 565.954 188.843 565.592 189.624L562.723 189.576C562.295 190.687 561.978 191.852 561.79 193.061L564.3 194.456C564.264 194.879 564.241 195.305 564.241 195.738C564.241 196.171 564.264 196.597 564.3 197.02L561.79 198.416C561.979 199.624 562.297 200.79 562.723 201.901L565.592 201.854C565.954 202.635 566.385 203.376 566.876 204.075L565.4 206.538C566.159 207.475 567.014 208.331 567.951 209.09L570.412 207.613C571.11 208.104 571.852 208.536 572.632 208.899L572.584 211.769C573.694 212.197 574.859 212.515 576.067 212.703L577.461 210.191C577.884 210.227 578.31 210.251 578.742 210.251C579.175 210.251 579.601 210.227 580.024 210.191L581.42 212.703C582.628 212.513 583.793 212.195 584.902 211.769L584.854 208.899C585.635 208.536 586.377 208.104 587.074 207.613L589.535 209.09C590.472 208.331 591.327 207.475 592.086 206.538L590.61 204.075C591.101 203.377 591.532 202.635 591.895 201.854L594.763 201.901C595.191 200.79 595.509 199.624 595.697 198.416L593.186 197.02C593.222 196.597 593.246 196.171 593.246 195.738ZM578.744 205.59C573.306 205.59 568.9 201.18 568.9 195.74C568.9 190.3 573.308 185.89 578.744 185.89C584.18 185.89 588.588 190.3 588.588 195.74C588.588 201.18 584.18 205.59 578.744 205.59Z" fill="#407BFF"/>
<path opacity="0.7" d="M593.246 195.738C593.246 195.305 593.222 194.879 593.186 194.456L595.697 193.061C595.507 191.852 595.189 190.687 594.763 189.576L591.895 189.624C591.532 188.843 591.101 188.101 590.61 187.403L592.086 184.941C591.327 184.003 590.472 183.147 589.535 182.388L587.074 183.865C586.377 183.374 585.635 182.944 584.854 182.579L584.902 179.709C583.793 179.281 582.628 178.963 581.42 178.775L580.024 181.287C579.601 181.251 579.175 181.227 578.742 181.227C578.31 181.227 577.884 181.251 577.461 181.287L576.067 178.775C574.859 178.965 573.694 179.283 572.584 179.709L572.632 182.579C571.852 182.942 571.11 183.374 570.412 183.865L567.951 182.388C567.014 183.147 566.159 184.003 565.4 184.941L566.876 187.403C566.385 188.101 565.954 188.843 565.592 189.624L562.723 189.576C562.295 190.687 561.978 191.852 561.79 193.061L564.3 194.456C564.264 194.879 564.241 195.305 564.241 195.738C564.241 196.171 564.264 196.597 564.3 197.02L561.79 198.416C561.979 199.624 562.297 200.79 562.723 201.901L565.592 201.854C565.954 202.635 566.385 203.376 566.876 204.075L565.4 206.538C566.159 207.475 567.014 208.331 567.951 209.09L570.412 207.613C571.11 208.104 571.852 208.536 572.632 208.899L572.584 211.769C573.694 212.197 574.859 212.515 576.067 212.703L577.461 210.191C577.884 210.227 578.31 210.251 578.742 210.251C579.175 210.251 579.601 210.227 580.024 210.191L581.42 212.703C582.628 212.513 583.793 212.195 584.902 211.769L584.854 208.899C585.635 208.536 586.377 208.104 587.074 207.613L589.535 209.09C590.472 208.331 591.327 207.475 592.086 206.538L590.61 204.075C591.101 203.377 591.532 202.635 591.895 201.854L594.763 201.901C595.191 200.79 595.509 199.624 595.697 198.416L593.186 197.02C593.222 196.597 593.246 196.171 593.246 195.738ZM578.744 205.59C573.306 205.59 568.9 201.18 568.9 195.74C568.9 190.3 573.308 185.89 578.744 185.89C584.18 185.89 588.588 190.3 588.588 195.74C588.588 201.18 584.18 205.59 578.744 205.59Z" fill="white"/>
<path d="M555.333 245.241C555.333 244.594 555.3 243.956 555.245 243.323L559.002 241.235C558.719 239.427 558.243 237.686 557.604 236.022L553.315 236.094C552.772 234.927 552.126 233.816 551.393 232.772L553.601 229.089C552.466 227.687 551.186 226.407 549.785 225.271L546.104 227.479C545.061 226.745 543.953 226.1 542.785 225.556L542.856 221.263C541.196 220.624 539.453 220.148 537.646 219.865L535.56 223.624C534.927 223.569 534.29 223.534 533.643 223.534C532.995 223.534 532.358 223.568 531.726 223.624L529.639 219.865C527.832 220.148 526.091 220.624 524.429 221.263L524.501 225.556C523.334 226.1 522.224 226.745 521.181 227.479L517.5 225.271C516.099 226.407 514.82 227.687 513.685 229.089L515.891 232.772C515.157 233.816 514.513 234.927 513.971 236.094L509.679 236.022C509.041 237.684 508.565 239.427 508.282 241.235L512.039 243.323C511.984 243.956 511.951 244.594 511.951 245.241C511.951 245.889 511.984 246.527 512.039 247.16L508.282 249.248C508.565 251.056 509.041 252.799 509.679 254.461L513.971 254.389C514.513 255.556 515.159 256.667 515.891 257.711L513.685 261.394C514.82 262.796 516.099 264.076 517.5 265.212L521.181 263.004C522.224 263.738 523.333 264.383 524.501 264.927L524.429 269.22C526.09 269.859 527.832 270.335 529.639 270.618L531.726 266.859C532.358 266.914 532.995 266.947 533.643 266.947C534.29 266.947 534.927 266.914 535.56 266.859L537.646 270.618C539.453 270.335 541.196 269.859 542.856 269.22L542.785 264.927C543.951 264.383 545.061 263.738 546.104 263.004L549.785 265.212C551.186 264.076 552.466 262.796 553.601 261.394L551.393 257.711C552.126 256.667 552.77 255.558 553.315 254.389L557.604 254.461C558.243 252.799 558.719 251.056 559.002 249.248L555.245 247.16C555.3 246.527 555.333 245.889 555.333 245.241ZM533.641 253.796C528.919 253.796 525.091 249.967 525.091 245.241C525.091 240.516 528.919 236.687 533.641 236.687C538.364 236.687 542.191 240.518 542.191 245.241C542.191 249.965 538.364 253.796 533.641 253.796Z" fill="#407BFF"/>
<path opacity="0.7" d="M555.333 245.241C555.333 244.594 555.3 243.956 555.245 243.323L559.002 241.235C558.719 239.427 558.243 237.686 557.604 236.022L553.315 236.094C552.772 234.927 552.126 233.816 551.393 232.772L553.601 229.089C552.466 227.687 551.186 226.407 549.785 225.271L546.104 227.479C545.061 226.745 543.953 226.1 542.785 225.556L542.856 221.263C541.196 220.624 539.453 220.148 537.646 219.865L535.56 223.624C534.927 223.569 534.29 223.534 533.643 223.534C532.995 223.534 532.358 223.568 531.726 223.624L529.639 219.865C527.832 220.148 526.091 220.624 524.429 221.263L524.501 225.556C523.334 226.1 522.224 226.745 521.181 227.479L517.5 225.271C516.099 226.407 514.82 227.687 513.685 229.089L515.891 232.772C515.157 233.816 514.513 234.927 513.971 236.094L509.679 236.022C509.041 237.684 508.565 239.427 508.282 241.235L512.039 243.323C511.984 243.956 511.951 244.594 511.951 245.241C511.951 245.889 511.984 246.527 512.039 247.16L508.282 249.248C508.565 251.056 509.041 252.799 509.679 254.461L513.971 254.389C514.513 255.556 515.159 256.667 515.891 257.711L513.685 261.394C514.82 262.796 516.099 264.076 517.5 265.212L521.181 263.004C522.224 263.738 523.333 264.383 524.501 264.927L524.429 269.22C526.09 269.859 527.832 270.335 529.639 270.618L531.726 266.859C532.358 266.914 532.995 266.947 533.643 266.947C534.29 266.947 534.927 266.914 535.56 266.859L537.646 270.618C539.453 270.335 541.196 269.859 542.856 269.22L542.785 264.927C543.951 264.383 545.061 263.738 546.104 263.004L549.785 265.212C551.186 264.076 552.466 262.796 553.601 261.394L551.393 257.711C552.126 256.667 552.77 255.558 553.315 254.389L557.604 254.461C558.243 252.799 558.719 251.056 559.002 249.248L555.245 247.16C555.3 246.527 555.333 245.889 555.333 245.241ZM533.641 253.796C528.919 253.796 525.091 249.967 525.091 245.241C525.091 240.516 528.919 236.687 533.641 236.687C538.364 236.687 542.191 240.518 542.191 245.241C542.191 249.965 538.364 253.796 533.641 253.796Z" fill="white"/>
<path d="M494.153 148.7V157.423L485.858 161.802C484.42 162.562 484.42 164.621 485.858 165.381L494.153 169.76V178.483C494.153 180.429 495.73 182.008 497.675 182.008H527.436C529.381 182.008 530.959 180.429 530.959 178.483V148.704C530.959 146.757 529.381 145.179 527.436 145.179H497.675C495.73 145.179 494.153 146.757 494.153 148.704V148.7Z" fill="#407BFF"/>
<g opacity="0.9">
<path d="M504.398 157.787H521.307C522.455 157.787 523.386 156.856 523.386 155.708C523.386 154.559 522.455 153.628 521.307 153.628H504.398C503.25 153.628 502.319 154.559 502.319 155.708C502.319 156.856 503.25 157.787 504.398 157.787Z" fill="white"/>
<path d="M521.307 161.511H504.398C503.25 161.511 502.319 162.442 502.319 163.591C502.319 164.74 503.25 165.67 504.398 165.67H521.307C522.455 165.67 523.386 164.74 523.386 163.591C523.386 162.442 522.455 161.511 521.307 161.511Z" fill="white"/>
<path d="M521.307 169.395H504.398C503.25 169.395 502.319 170.325 502.319 171.474C502.319 172.623 503.25 173.554 504.398 173.554H521.307C522.455 173.554 523.386 172.623 523.386 171.474C523.386 170.325 522.455 169.395 521.307 169.395Z" fill="white"/>
</g>
<path d="M325.972 135.007H333.082L336.747 141.959C337.807 143.97 340.685 143.97 341.745 141.959L345.409 135.007H352.52C355.352 135.007 357.648 132.71 357.648 129.876V103.312C357.648 100.478 355.352 98.1802 352.52 98.1802H325.972C323.14 98.1802 320.844 100.478 320.844 103.312V129.876C320.844 132.71 323.14 135.007 325.972 135.007Z" fill="#407BFF"/>
<path opacity="0.9" d="M339.264 106.121L331.062 110.921V124.935H337.164V115.528H341.364V124.935H347.466V110.921L339.264 106.121Z" fill="white"/>
<path d="M405.683 515.888H399.285L395.2 508.137C394.318 506.465 391.925 506.465 391.045 508.137L386.959 515.888H380.561C377.337 515.888 374.721 518.505 374.721 521.732V546.872C374.721 550.101 377.335 552.717 380.561 552.717H405.686C408.911 552.717 411.527 550.101 411.527 546.872V521.732C411.527 518.505 408.911 515.888 405.686 515.888H405.683Z" fill="#407BFF"/>
<path opacity="0.9" d="M396.674 525.489C393.129 521.942 387.364 521.942 383.819 525.489C380.275 529.036 380.275 534.805 383.819 538.351C386.963 541.497 391.852 541.845 395.391 539.41C395.457 539.817 395.644 540.206 395.957 540.518L401.601 546.165C402.396 546.961 403.688 546.961 404.483 546.165C405.278 545.369 405.278 544.077 404.483 543.282L398.839 537.634C398.526 537.321 398.136 537.136 397.732 537.068C400.167 533.526 399.819 528.634 396.674 525.489ZM394.752 536.428C392.268 538.914 388.226 538.914 385.741 536.428C383.257 533.942 383.257 529.896 385.741 527.41C388.226 524.925 392.269 524.925 394.754 527.41C397.238 529.896 397.238 533.941 394.754 536.427L394.752 536.428Z" fill="white"/>
<path d="M674.402 348.453C674.402 348.453 660.834 382.086 647.562 385.724C634.29 389.363 614.258 386.407 614.258 386.407L608.068 388.1L602.001 387.198C601.933 387.188 601.863 387.181 601.792 387.18L594.938 387.022C593.771 386.995 593.126 385.854 593.773 384.962L596.234 381.565C596.425 381.3 596.711 381.097 597.043 380.991L603.561 378.89C603.817 378.806 604.091 378.785 604.354 378.826L614.318 380.408C614.318 380.408 642.026 375.866 644.844 373.293C647.663 370.723 656.016 343.834 656.016 343.834L674.402 348.453Z" fill="#EEC1BB"/>
<path opacity="0.1" d="M614.957 380.302C614.548 380.37 614.318 380.409 614.318 380.409L604.354 378.827C604.091 378.785 603.817 378.807 603.561 378.89L597.043 380.99C596.711 381.096 596.425 381.299 596.234 381.566L593.773 384.962C593.126 385.855 593.771 386.995 594.938 387.022L601.792 387.18C601.862 387.182 601.931 387.189 602.001 387.199L606.081 387.805C609.107 386.488 612.119 383.737 614.957 380.302Z" fill="black"/>
<path d="M682.585 315.145C672.732 311.91 658.871 319.316 653.562 350.357L674.017 356.329C674.017 356.329 696.669 319.77 682.583 315.145H682.585Z" fill="#407BFF"/>
<path d="M625.277 274.584C625.289 275.603 625.826 276.427 626.494 276.42C627.161 276.414 627.737 275.538 627.697 274.549C627.657 273.558 627.148 272.706 626.479 272.724C625.81 272.741 625.276 273.566 625.277 274.584Z" fill="#263238"/>
<path d="M629.314 275.591L624.474 283.601C624.474 283.601 626.148 285.496 629.78 284.098L629.314 275.591Z" fill="#D4827D"/>
<path d="M630.224 268.192C630.103 268.325 629.926 268.392 629.748 268.37C628.419 268.14 627.061 268.563 626.097 269.509C625.904 269.729 625.573 269.752 625.35 269.564C625.132 269.367 625.111 269.031 625.3 268.808C626.494 267.584 628.211 267.023 629.895 267.309C630.188 267.349 630.391 267.619 630.352 267.912C630.336 268.017 630.292 268.114 630.224 268.192Z" fill="#263238"/>
<path d="M664.428 267.32C665.185 280.855 665.799 286.577 659.83 294.273C650.292 302.517 634.046 303.832 629.264 290.785C624.954 279.048 624.442 258.935 636.963 251.958C645.891 246.99 657.151 250.205 662.116 259.136C663.513 261.647 664.305 264.448 664.431 267.318L664.428 267.32Z" fill="#EEC1BB"/>
<path d="M645.578 296.947L649.004 316.995L665.714 313.134L659.867 292.666L645.578 296.947Z" fill="#EEC1BB"/>
<path d="M633.544 268.32C634.394 259.524 631.377 269.679 627.304 258.077C623.23 246.475 642.433 237.043 645.501 239.206C648.571 241.37 646.809 244.695 656.963 246.565C667.117 248.435 666.686 258.3 666.686 258.3C666.686 258.3 672.526 261.011 670.448 273.565C668.371 286.12 660.446 295.615 660.446 295.615C660.446 295.615 656.604 291.651 650.523 295.312C650.523 295.312 647.533 293.637 644.589 289.238C641.849 285.144 641.005 281.256 637.256 280.918C629.387 280.21 633.264 271.206 633.542 268.319L633.544 268.32Z" fill="#263238"/>
<path d="M665.587 259.847C665.587 259.847 673.876 254.747 670.208 249.402C666.541 244.057 668.311 255.273 665.587 259.847Z" fill="#263238"/>
<path d="M635.933 273.426C634.085 275.488 633.135 278.202 633.289 280.967C633.524 284.634 637.11 285.286 639.944 283.283C642.513 281.47 645.45 277.384 643.814 274.169C642.178 270.954 638.221 270.931 635.933 273.426Z" fill="#FFC3BD"/>
<path opacity="0.1" d="M645.9 298.835L647.262 306.795C647.173 299.516 651.019 295.919 651.019 295.919C647.108 296.501 645.9 298.835 645.9 298.835Z" fill="black"/>
<path d="M528.434 350.591H523.657V378.786H528.434V350.591Z" fill="#407BFF"/>
<path opacity="0.7" d="M528.434 350.591H523.657V378.786H528.434V350.591Z" fill="white"/>
<path d="M495.614 294.615H483.718C479.26 294.615 475.646 298.231 475.646 302.692V357.838C475.646 362.298 479.26 365.915 483.718 365.915H495.614V294.615Z" fill="#407BFF"/>
<path d="M568.372 294.615H487.878C483.42 294.615 479.806 298.231 479.806 302.692V357.838C479.806 362.298 483.42 365.915 487.878 365.915H568.372C572.83 365.915 576.444 362.298 576.444 357.838V302.692C576.444 298.231 572.83 294.615 568.372 294.615Z" fill="#407BFF"/>
<path opacity="0.5" d="M568.372 294.615H487.878C483.42 294.615 479.806 298.231 479.806 302.692V357.838C479.806 362.298 483.42 365.915 487.878 365.915H568.372C572.83 365.915 576.444 362.298 576.444 357.838V302.692C576.444 298.231 572.83 294.615 568.372 294.615Z" fill="white"/>
<path d="M568.372 297.945H487.878C485.258 297.945 483.134 300.07 483.134 302.692V357.836C483.134 360.458 485.258 362.583 487.878 362.583H568.372C570.992 362.583 573.116 360.458 573.116 357.836V302.692C573.116 300.07 570.992 297.945 568.372 297.945Z" fill="#263238"/>
<path d="M508.666 390.597C508.666 380.993 516.447 373.207 526.045 373.207C535.643 373.207 543.423 380.993 543.423 390.597H508.664H508.666Z" fill="#407BFF"/>
<path d="M549.691 384.663H514.932V390.317H584.451V387.993L549.691 384.663Z" fill="#407BFF"/>
<path opacity="0.8" d="M549.691 384.663H514.932V390.317H584.451V387.993L549.691 384.663Z" fill="white"/>
<path d="M549.691 390.317H514.932V384.663L549.691 387.993V390.317Z" fill="#407BFF"/>
<path opacity="0.6" d="M549.691 390.317H514.932V384.663L549.691 387.993V390.317Z" fill="white"/>
<path d="M626.336 584.643H554.619C548.602 584.643 543.725 579.763 543.725 573.742V408.784C543.725 402.764 548.602 397.883 554.619 397.883H626.336C627.945 397.883 629.248 399.189 629.248 400.797C629.248 402.407 627.945 403.711 626.336 403.711H554.619C551.818 403.711 549.549 405.982 549.549 408.784V573.742C549.549 576.544 551.818 578.816 554.619 578.816H626.336C627.945 578.816 629.248 580.119 629.248 581.729C629.248 583.339 627.945 584.643 626.336 584.643Z" fill="#263238"/>
<g opacity="0.5">
<path d="M626.336 584.643H554.619C548.602 584.643 543.725 579.763 543.725 573.742V408.784C543.725 402.764 548.602 397.883 554.619 397.883H626.336C627.945 397.883 629.248 399.189 629.248 400.797C629.248 402.407 627.945 403.711 626.336 403.711H554.619C551.818 403.711 549.549 405.982 549.549 408.784V573.742C549.549 576.544 551.818 578.816 554.619 578.816H626.336C627.945 578.816 629.248 580.119 629.248 581.729C629.248 583.339 627.945 584.643 626.336 584.643Z" fill="white"/>
</g>
<path d="M554.327 390.317H452.516V398.855H554.327V390.317Z" fill="#407BFF"/>
<path opacity="0.2" d="M554.327 390.317H452.516V398.855H554.327V390.317Z" fill="white"/>
<path d="M636.527 390.317H549.691V398.855H636.527V390.317Z" fill="#407BFF"/>
<path opacity="0.5" d="M636.527 390.317H549.691V398.855H636.527V390.317Z" fill="white"/>
<path d="M606.071 524.119L610.89 572.761H599.367L587.842 525.377L606.071 524.119Z" fill="#EEC1BB"/>
<path d="M598.287 569.588L612.983 569.839C613.538 569.849 614.012 570.24 614.123 570.783L616.576 582.791C616.801 583.855 616.122 584.899 615.06 585.126C614.924 585.154 614.784 585.169 614.646 585.169C609.349 584.986 604.643 584.616 598.049 584.511C590.267 584.382 592.225 585.346 583.071 585.321C577.557 585.299 576.655 579.012 578.998 578.742C589.721 577.577 590.887 574.363 595.079 570.602C595.989 569.881 597.131 569.519 598.289 569.588H598.287Z" fill="#263238"/>
<path opacity="0.1" d="M609.632 560.065L606.071 524.119L587.842 525.377L596.278 560.065H609.632Z" fill="black"/>
<path d="M684.927 411.947L637.693 413.642C637.693 413.642 574.136 435.874 572.352 453.042C570.522 470.655 591.894 551.585 591.894 551.585H610.872C610.872 551.585 605.639 492.195 603.627 474.008C601.617 455.821 669.841 461.848 681.684 446.332C692.586 432.049 684.927 411.947 684.927 411.947Z" fill="#263238"/>
<path opacity="0.2" d="M684.927 411.947L637.693 413.642C637.693 413.642 574.136 435.874 572.352 453.042C570.522 470.655 591.894 551.585 591.894 551.585H610.872C610.872 551.585 605.639 492.195 603.627 474.008C601.617 455.821 669.841 461.848 681.684 446.332C692.586 432.049 684.927 411.947 684.927 411.947Z" fill="black"/>
<path d="M614.102 548.859L614.522 555.569H591.054L588.75 548.859H614.102Z" fill="#407BFF"/>
<path d="M562.139 526.425L563.397 572.761H552.081L545.375 526.425H562.139Z" fill="#EEC1BB"/>
<path d="M550.512 569.587L565.209 569.839C565.763 569.849 566.237 570.24 566.348 570.783L568.801 582.791C569.026 583.855 568.347 584.899 567.285 585.125C567.149 585.154 567.009 585.169 566.871 585.169C561.574 584.985 556.869 584.616 550.274 584.511C542.492 584.381 544.45 585.345 535.296 585.32C529.782 585.298 528.88 579.011 531.223 578.742C541.946 577.576 543.112 574.363 547.304 570.601C548.214 569.88 549.357 569.519 550.515 569.587H550.512Z" fill="#263238"/>
<path opacity="0.1" d="M563.051 560.027L562.139 526.426H545.375L550.243 560.063C553.887 560.075 558.91 560.052 563.051 560.027Z" fill="black"/>
<path d="M664.391 415.862C664.391 415.862 668.311 451.785 631.778 453.461C595.243 455.138 566.747 459.332 565.909 472.331C565.07 485.33 565.909 551.585 565.909 551.585H546.054C546.054 551.585 538.33 509.701 535.318 483.723C532.393 458.493 527.053 440.203 552.92 431.656C580.419 422.57 629.311 414.173 629.311 414.173L664.516 411.947L664.393 415.862H664.391Z" fill="#263238"/>
<path d="M568.843 548.859L567.586 555.569H545.795L543.488 548.859H568.843Z" fill="#407BFF"/>
<path d="M672.319 312.779C672.319 312.779 672.314 304.671 655.96 305.61C638.597 306.606 641.866 314.373 641.866 314.373L672.319 312.779Z" fill="#407BFF"/>
<path opacity="0.3" d="M672.319 312.779C672.319 312.779 672.314 304.671 655.96 305.61C638.597 306.606 641.866 314.373 641.866 314.373L672.319 312.779Z" fill="black"/>
<path d="M687.503 349.074C686.406 365.072 686.782 413.21 686.782 413.21C686.782 413.21 651.883 415.504 624.415 414.612L621.23 322.011C621.23 318.714 623.279 315.714 626.459 314.477C634.215 311.46 652.415 308.045 680.89 311.784C690.712 313.075 688.799 330.158 687.503 349.074Z" fill="#407BFF"/>
<path d="M626.84 348.453C626.84 348.453 613.272 382.086 600 385.724C586.729 389.363 566.697 386.407 566.697 386.407L560.507 388.1L554.44 387.198C554.371 387.188 554.301 387.181 554.23 387.18L547.376 387.022C546.209 386.995 545.565 385.854 546.211 384.962L548.672 381.565C548.865 381.3 549.15 381.097 549.481 380.991L555.999 378.89C556.255 378.806 556.53 378.785 556.792 378.826L566.757 380.408C566.757 380.408 594.464 375.866 597.283 373.293C600.101 370.723 608.455 343.834 608.455 343.834L626.84 348.453Z" fill="#EEC1BB"/>
<path opacity="0.1" d="M626.489 332.808C626.489 332.808 624.387 335.311 621.815 338.946L622.737 365.749C632.934 361.247 636.977 334.966 636.977 334.966L630.358 330.264L626.489 332.808Z" fill="black"/>
<path d="M635.025 315.145C625.172 311.91 611.311 319.316 606.001 350.357L626.457 356.329C626.457 356.329 649.109 319.77 635.025 315.145Z" fill="#407BFF"/>
<path d="M648.055 470.9H632.663V516.044H648.055V470.9Z" fill="#263238"/>
<path opacity="0.6" d="M648.055 470.9H632.663V516.044H648.055V470.9Z" fill="white"/>
<path d="M650.443 556.939V499.58H630.274V556.939L584.361 563.312V569.686L640.358 564.906L696.355 569.686V563.312L650.443 556.939Z" fill="#263238"/>
<path d="M583.696 585.319C587.048 585.319 589.766 582.6 589.766 579.245C589.766 575.89 587.048 573.171 583.696 573.171C580.343 573.171 577.625 575.89 577.625 579.245C577.625 582.6 580.343 585.319 583.696 585.319Z" fill="#407BFF"/>
<path d="M696.355 585.319C699.707 585.319 702.425 582.6 702.425 579.245C702.425 575.89 699.707 573.171 696.355 573.171C693.002 573.171 690.285 575.89 690.285 579.245C690.285 582.6 693.002 585.319 696.355 585.319Z" fill="#407BFF"/>
<path d="M640.357 585.319C643.71 585.319 646.428 582.6 646.428 579.245C646.428 575.89 643.71 573.171 640.357 573.171C637.005 573.171 634.287 575.89 634.287 579.245C634.287 582.6 637.005 585.319 640.357 585.319Z" fill="#407BFF"/>
<path opacity="0.3" d="M648.055 470.9H632.663V482.054H648.055V470.9Z" fill="black"/>
<path d="M701.211 368.586H651.058C642.889 368.586 636.063 374.809 635.303 382.947L631.068 428.294C630.103 438.624 621.705 446.676 611.351 447.202L562.952 449.657C557.068 449.955 552.451 454.817 552.451 460.711V461.733C552.451 466.797 556.552 470.903 561.614 470.903H709.03L716.967 385.894C717.834 376.609 710.532 368.588 701.212 368.588L701.211 368.586Z" fill="#407BFF"/>
<path opacity="0.3" d="M701.211 368.586H651.058C642.889 368.586 636.063 374.809 635.303 382.947L631.068 428.294C630.103 438.624 621.705 446.676 611.351 447.202L562.952 449.657C557.068 449.955 552.451 454.817 552.451 460.711V461.733C552.451 466.797 556.552 470.903 561.614 470.903H709.03L716.967 385.894C717.834 376.609 710.532 368.588 701.212 368.588L701.211 368.586Z" fill="white"/>
<path d="M586.087 419.743H592.988V455.889C592.988 457.726 591.498 459.216 589.663 459.216H589.412C587.576 459.216 586.087 457.726 586.087 455.889V419.743Z" fill="#263238"/>
<path opacity="0.2" d="M586.087 419.743H592.988V455.889C592.988 457.726 591.498 459.216 589.663 459.216H589.412C587.576 459.216 586.087 457.726 586.087 455.889V419.743Z" fill="white"/>
<path d="M619.393 409.291H604.001V422.037H619.393C622.911 422.037 625.763 419.183 625.763 415.663C625.763 412.143 622.911 409.291 619.393 409.291Z" fill="#407BFF"/>
<path opacity="0.5" d="M619.393 409.291H604.001V422.037H619.393C622.911 422.037 625.763 419.183 625.763 415.663C625.763 412.143 622.911 409.291 619.393 409.291Z" fill="white"/>
<path d="M613.255 409.291H559.448C556.059 409.291 553.311 412.04 553.311 415.432V415.896C553.311 419.288 556.059 422.037 559.448 422.037H613.255C616.644 422.037 619.392 419.288 619.392 415.896V415.432C619.392 412.04 616.644 409.291 613.255 409.291Z" fill="#407BFF"/>
<path opacity="0.3" d="M613.255 409.291H559.448C556.059 409.291 553.311 412.04 553.311 415.432V415.896C553.311 419.288 556.059 422.037 559.448 422.037H613.255C616.644 422.037 619.392 419.288 619.392 415.896V415.432C619.392 412.04 616.644 409.291 613.255 409.291Z" fill="white"/>
<path d="M712.495 470.899H638.766L646.98 382.946C647.74 374.807 654.566 368.585 662.734 368.585H712.887C722.207 368.585 729.509 376.605 728.642 385.891L721.469 462.719C721.036 467.355 717.147 470.899 712.495 470.899Z" fill="#407BFF"/>
<path opacity="0.5" d="M712.495 470.899H638.766L646.98 382.946C647.74 374.807 654.566 368.585 662.734 368.585H712.887C722.207 368.585 729.509 376.605 728.642 385.891L721.469 462.719C721.036 467.355 717.147 470.899 712.495 470.899Z" fill="white"/>
<path d="M540.256 584.643H468.54C462.523 584.643 457.646 579.763 457.646 573.742V408.784C457.646 402.764 462.523 397.883 468.54 397.883H540.256C541.866 397.883 543.168 399.189 543.168 400.797C543.168 402.407 541.866 403.711 540.256 403.711H468.54C465.739 403.711 463.47 405.982 463.47 408.784V573.742C463.47 576.544 465.739 578.816 468.54 578.816H540.256C541.866 578.816 543.168 580.119 543.168 581.729C543.168 583.339 541.866 584.643 540.256 584.643Z" fill="#263238"/>
<g opacity="0.5">
<path d="M540.256 584.643H468.54C462.523 584.643 457.646 579.763 457.646 573.742V408.784C457.646 402.764 462.523 397.883 468.54 397.883H540.256C541.866 397.883 543.168 399.189 543.168 400.797C543.168 402.407 541.866 403.711 540.256 403.711H468.54C465.739 403.711 463.47 405.982 463.47 408.784V573.742C463.47 576.544 465.739 578.816 468.54 578.816H540.256C541.866 578.816 543.168 580.119 543.168 581.729C543.168 583.339 541.866 584.643 540.256 584.643Z" fill="white"/>
</g>
<path d="M492.866 311.084L487.816 307.73C487.275 307.371 487.275 306.576 487.816 306.217L492.866 302.863C493.242 302.614 493.751 302.717 494.001 303.093C494.25 303.471 494.149 303.979 493.771 304.229L489.64 306.973L493.771 309.717C494.149 309.966 494.25 310.476 494.001 310.852C493.751 311.23 493.242 311.333 492.866 311.084Z" fill="white"/>
<path d="M503.901 310.854C503.652 310.477 503.753 309.968 504.131 309.718L508.263 306.974L504.131 304.23C503.753 303.98 503.652 303.471 503.901 303.095C504.151 302.718 504.66 302.615 505.036 302.865L510.086 306.218C510.627 306.578 510.627 307.372 510.086 307.732L505.036 311.085C504.66 311.335 504.151 311.232 503.901 310.854Z" fill="white"/>
<path d="M497.072 313.036C496.641 312.9 496.401 312.44 496.537 312.007L499.975 301.113C500.112 300.682 500.571 300.442 501.004 300.578C501.435 300.715 501.674 301.174 501.538 301.607L498.1 312.502C497.963 312.933 497.502 313.173 497.072 313.036Z" fill="white"/>
<path d="M525.324 321.43H488.274C487.796 321.43 487.41 321.044 487.41 320.566C487.41 320.088 487.796 319.702 488.274 319.702H525.324C525.8 319.702 526.188 320.088 526.188 320.566C526.188 321.044 525.802 321.43 525.324 321.43Z" fill="white"/>
<path d="M567.896 321.43H530.846C530.368 321.43 529.982 321.044 529.982 320.566C529.982 320.088 530.368 319.702 530.846 319.702H567.896C568.374 319.702 568.76 320.088 568.76 320.566C568.76 321.044 568.374 321.43 567.896 321.43Z" fill="white"/>
<path d="M509.445 329.062H488.274C487.796 329.062 487.41 328.676 487.41 328.198C487.41 327.722 487.796 327.334 488.274 327.334H509.445C509.922 327.334 510.308 327.72 510.308 328.198C510.308 328.676 509.922 329.062 509.445 329.062Z" fill="white"/>
<path d="M549.644 329.062H514.965C514.487 329.062 514.101 328.676 514.101 328.198C514.101 327.722 514.487 327.334 514.965 327.334H549.644C550.122 327.334 550.508 327.72 550.508 328.198C550.508 328.676 550.122 329.062 549.644 329.062Z" fill="white"/>
<path d="M544.715 336.693H488.276C487.798 336.693 487.412 336.307 487.412 335.829C487.412 335.351 487.798 334.965 488.276 334.965H544.715C545.193 334.965 545.579 335.351 545.579 335.829C545.579 336.307 545.193 336.693 544.715 336.693Z" fill="white"/>
<path d="M562.019 336.693H550.235C549.757 336.693 549.371 336.307 549.371 335.829C549.371 335.351 549.757 334.965 550.235 334.965H562.019C562.497 334.965 562.883 335.351 562.883 335.829C562.883 336.307 562.497 336.693 562.019 336.693Z" fill="white"/>
<path d="M514.625 344.326H488.274C487.796 344.326 487.41 343.94 487.41 343.462C487.41 342.984 487.796 342.598 488.274 342.598H514.625C515.102 342.598 515.488 342.984 515.488 343.462C515.488 343.94 515.102 344.326 514.625 344.326Z" fill="white"/>
<path d="M552.953 344.326H520.144C519.667 344.326 519.281 343.94 519.281 343.462C519.281 342.984 519.667 342.598 520.144 342.598H552.953C553.431 342.598 553.817 342.984 553.817 343.462C553.817 343.94 553.431 344.326 552.953 344.326Z" fill="white"/>
<path d="M525.324 351.956H488.274C487.796 351.956 487.41 351.57 487.41 351.092C487.41 350.614 487.796 350.228 488.274 350.228H525.324C525.8 350.228 526.188 350.614 526.188 351.092C526.188 351.57 525.802 351.956 525.324 351.956Z" fill="white"/>
<path d="M556.984 351.956H530.846C530.368 351.956 529.982 351.57 529.982 351.092C529.982 350.614 530.368 350.228 530.846 350.228H556.984C557.461 350.228 557.847 350.614 557.847 351.092C557.847 351.57 557.461 351.956 556.984 351.956Z" fill="white"/>
<path d="M235.412 202.913C236.086 210.754 234.391 224.961 228.479 229.504C238.125 232.979 248.327 238.981 254.866 246.883C261.334 237.459 253.969 232.086 253.969 232.086C245.633 229.117 246.541 222.814 248.684 217.003L235.412 202.913Z" fill="#B97964"/>
<path d="M266.907 196.156C266.812 197.135 267.271 197.986 267.917 198.049C268.563 198.113 269.158 197.352 269.252 196.373C269.346 195.394 268.885 194.533 268.241 194.47C267.596 194.406 267.022 195.164 266.907 196.156Z" fill="#263238"/>
<path d="M267.979 194.498L270.406 194.034C270.406 194.034 269.024 195.825 267.979 194.498Z" fill="#263238"/>
<path d="M267.238 197.203C267.913 199.539 268.903 201.77 270.181 203.838C269.095 204.474 267.782 204.598 266.595 204.176L267.236 197.203H267.238Z" fill="#A24E3F"/>
<path d="M269.699 190.969C269.85 190.951 269.99 190.878 270.093 190.764C270.298 190.518 270.271 190.153 270.034 189.94C268.646 188.678 266.732 188.167 264.898 188.568C264.624 188.736 264.537 189.096 264.705 189.371C264.812 189.546 265.003 189.652 265.21 189.65C266.667 189.364 268.173 189.787 269.268 190.791C269.38 190.911 269.538 190.976 269.701 190.969H269.699Z" fill="#263238"/>
<path d="M234.579 189.901C234.195 202.081 233.777 207.259 239.205 214.046C247.377 224.256 262.163 222.02 266.115 210.165C269.678 199.499 269.715 181.323 258.523 175.421C247.329 169.518 234.972 177.687 234.579 189.901Z" fill="#B97964"/>
<path d="M235.16 212.886C223.189 210.847 226.627 203.297 226.627 203.297C214.841 200.91 223.94 195.15 223.94 195.15C214.137 190.925 223.94 187.135 223.94 187.135C214.488 179.289 228.035 176.622 228.035 176.622C224.692 164.382 236.303 169.404 236.303 169.404C242.636 158.891 248.083 168.933 248.083 168.933C259.173 153.869 261.871 166.578 261.871 166.578C273.189 163.596 268.849 175.518 268.849 175.518C278.173 178.024 270.855 182.741 270.855 182.741C274.444 187.291 261.446 188.076 261.446 188.076C261.446 188.076 267.631 197.996 261.391 200.812L245.653 212.885C245.653 212.885 238.425 209.873 235.16 212.886Z" fill="#263238"/>
<path d="M246.918 203.062C246.918 203.062 255.16 183.127 248.735 166.027L254.231 164.144C254.231 164.144 261.401 188.941 246.918 203.062Z" fill="#407BFF"/>
<path d="M255.215 200.872C256.593 203.733 257.114 204.977 259.082 205.926C260.804 206.895 262.988 206.282 263.954 204.559C264.397 203.771 264.525 202.845 264.314 201.966C263.796 199.099 261.591 194.885 258.548 194.797C255.506 194.708 253.794 198.037 255.213 200.872H255.215Z" fill="#B97964"/>
<path d="M246.628 242.461C246.628 242.461 257.885 250.733 262.464 254.062L295.055 238.677C294.965 234.975 297.147 231.597 300.556 230.158L302.874 229.179L307.791 226.991C309.653 226.162 311.816 226.39 313.465 227.591C315.416 229.01 316.263 231.502 315.584 233.816C314.186 238.575 310.399 242.255 305.603 243.514L300.849 244.761C300.849 244.761 272.885 265.992 262.94 266.548C252.994 267.102 238.333 257.243 238.333 257.243L246.626 242.463L246.628 242.461Z" fill="#B97964"/>
<path d="M219.531 228.42C228.137 228.383 237.75 233.786 252.889 243.602C252.889 243.602 250.029 254.375 241.223 262.057C241.223 262.057 232.916 259.821 221.864 249.409C208.49 236.812 214.256 228.443 219.533 228.42H219.531Z" fill="#263238"/>
<path d="M382.941 253.368H301.413C298.455 253.368 296.268 250.968 296.526 248.008L302.668 177.764C302.926 174.803 305.535 172.404 308.492 172.404H390.02C392.978 172.404 395.165 174.803 394.907 177.764L388.765 248.008C388.507 250.968 385.898 253.368 382.941 253.368Z" fill="#407BFF"/>
<path opacity="0.4" d="M382.941 253.368H301.413C298.455 253.368 296.268 250.968 296.526 248.008L302.668 177.764C302.926 174.803 305.535 172.404 308.492 172.404H390.02C392.978 172.404 395.165 174.803 394.907 177.764L388.765 248.008C388.507 250.968 385.898 253.368 382.941 253.368Z" fill="white"/>
<path opacity="0.7" d="M383.233 250.038C384.351 250.038 385.341 249.128 385.437 248.01L391.579 177.764C391.677 176.645 390.847 175.734 389.729 175.734H308.201C307.083 175.734 306.093 176.645 305.996 177.764L299.855 248.01C299.756 249.128 300.587 250.038 301.705 250.038H383.233Z" fill="white"/>
<path d="M326.572 208.735L299.916 247.31L299.855 248.01C299.756 249.128 300.587 250.038 301.705 250.038H347.889L326.572 208.735Z" fill="#407BFF"/>
<path opacity="0.3" d="M326.572 208.735L299.916 247.31L299.855 248.01C299.756 249.128 300.587 250.038 301.705 250.038H347.889L326.572 208.735Z" fill="white"/>
<path d="M385.673 245.314L363.354 202.909L330.307 250.037H383.234C384.352 250.037 385.342 249.128 385.439 248.009L385.675 245.315L385.673 245.314Z" fill="#407BFF"/>
<path d="M354.736 195.413C354.373 199.552 350.726 202.909 346.589 202.909C342.452 202.909 339.391 199.552 339.753 195.413C340.114 191.272 343.764 187.917 347.9 187.917C352.037 187.917 355.099 191.274 354.736 195.413Z" fill="#407BFF"/>
<path opacity="0.4" d="M354.736 195.413C354.373 199.552 350.726 202.909 346.589 202.909C342.452 202.909 339.391 199.552 339.753 195.413C340.114 191.272 343.764 187.917 347.9 187.917C352.037 187.917 355.099 191.274 354.736 195.413Z" fill="white"/>
<path d="M151.251 536.836L142.972 561.415L155.667 566.6L165.603 543.921L151.251 536.836Z" fill="#B97964"/>
<path d="M160.225 565.984C160.092 565.909 160.017 565.764 160.032 565.615C160.05 565.463 160.161 565.338 160.31 565.305C160.574 565.245 166.57 563.906 168.803 565.331C169.22 565.59 169.523 566.002 169.643 566.479C169.833 567.025 169.658 567.633 169.205 567.992C168.363 568.587 166.382 568.34 164.566 567.779C163.068 567.31 161.616 566.708 160.225 565.984ZM161.489 565.866C164.105 567.043 167.798 568.157 168.768 567.416C168.902 567.328 169.057 567.148 168.932 566.638C168.871 566.339 168.676 566.082 168.403 565.944C168.207 565.818 167.992 565.719 167.768 565.654C165.681 565.33 163.551 565.401 161.489 565.868V565.866Z" fill="#407BFF"/>
<path d="M160.048 565.908C159.965 565.808 159.942 565.668 159.99 565.546C160.067 565.37 161.673 561.547 164.005 560.591C164.679 560.305 165.441 560.306 166.114 560.595C167.037 560.984 167.187 561.559 167.099 561.966C166.902 563.706 162.413 565.793 160.428 566.028C160.376 566.036 160.323 566.024 160.28 565.996C160.193 565.996 160.112 565.966 160.048 565.908ZM165.679 561.179C165.243 561.039 164.769 561.062 164.35 561.246C162.871 562.168 161.711 563.523 161.027 565.128C163.168 564.616 166.235 562.847 166.452 561.828C166.452 561.732 166.49 561.469 165.882 561.224L165.679 561.181V561.179Z" fill="#407BFF"/>
<path d="M159.364 563.477L143.415 558.55C142.814 558.364 142.163 558.62 141.852 559.166L134.963 571.259C134.344 572.327 134.709 573.695 135.775 574.315C135.912 574.395 136.057 574.459 136.208 574.508C141.989 576.183 147.197 577.448 154.352 579.669C162.799 582.282 160.343 582.63 170.23 585.84C176.189 587.768 179.384 581.299 176.951 580.181C165.791 575.131 165.667 571.251 162.471 565.708C161.744 564.609 160.637 563.815 159.364 563.479V563.477Z" fill="#263238"/>
<path opacity="0.2" d="M147.282 548.619L160.594 555.353L165.603 543.921L151.251 536.836L147.282 548.619Z" fill="#263238"/>
<path d="M207.539 309.524C207.539 309.524 189.649 323.203 193.481 366.019C193.835 369.98 195.117 374.128 195.133 378.663C195.145 381.672 194.306 383.785 193.321 390.558C191.887 400.423 189.255 437.174 186.487 441.953C183.747 446.683 182.577 445.894 174.769 459.076C166.37 473.257 155.637 498.134 147.273 540.306C147.273 540.306 154.538 545.984 165.968 548.138C165.968 548.138 211.685 476.012 221.403 449.159C230.097 425.132 240.459 348.458 240.459 348.458L241.296 315.214L207.539 309.524Z" fill="#407BFF"/>
<path opacity="0.1" d="M227.109 366.019H214.155C214.155 366.019 209.897 406.772 223.971 440.782C225.444 435.323 226.928 428.771 228.372 421.704L233.972 385.801C233.176 379.736 232.552 375.113 232.461 374.805C232.179 373.865 227.109 366.019 227.109 366.019Z" fill="black"/>
<path d="M224.973 546.725L225.058 572.847L239.786 571.862L242.046 546.725H224.973Z" fill="#B97964"/>
<path d="M241.483 571.424C241.334 571.397 241.215 571.284 241.181 571.137C241.147 570.988 241.212 570.834 241.342 570.754C241.572 570.611 246.793 567.373 249.371 567.984C249.852 568.09 250.271 568.38 250.541 568.791C250.9 569.244 250.933 569.875 250.624 570.365C250.023 571.204 248.073 571.622 246.173 571.69C244.603 571.739 243.036 571.649 241.483 571.424ZM242.638 570.896C245.494 571.146 249.347 570.984 250.021 569.964C250.12 569.837 250.206 569.616 249.921 569.174C249.765 568.911 249.496 568.735 249.193 568.693C248.965 568.638 248.732 568.615 248.497 568.628C246.419 569.008 244.432 569.777 242.638 570.896Z" fill="#407BFF"/>
<path d="M241.29 571.411C241.179 571.344 241.11 571.221 241.117 571.089C241.13 570.896 241.392 566.759 243.28 565.087C243.823 564.594 244.543 564.346 245.274 564.396C246.274 564.461 246.603 564.954 246.657 565.367C247.044 567.075 243.49 570.522 241.693 571.397C241.646 571.422 241.593 571.429 241.541 571.416C241.462 571.444 241.372 571.442 241.292 571.409L241.29 571.411ZM245.054 565.092C244.597 565.104 244.157 565.282 243.819 565.591C242.726 566.95 242.077 568.612 241.957 570.352C243.811 569.163 246.127 566.484 245.996 565.45C245.966 565.358 245.913 565.097 245.261 565.065L245.054 565.092Z" fill="#407BFF"/>
<path d="M239.845 569.339L223.165 569.935C222.536 569.957 222.007 570.413 221.892 571.033L219.361 584.719C219.128 585.931 219.922 587.103 221.134 587.337C221.288 587.367 221.448 587.38 221.606 587.377C227.615 587.057 232.951 586.536 240.438 586.279C249.272 585.966 247.069 587.103 257.46 586.88C263.722 586.739 264.612 579.581 261.946 579.324C249.748 578.229 248.355 574.606 243.514 570.423C242.466 569.624 241.161 569.239 239.847 569.339H239.845Z" fill="#263238"/>
<path opacity="0.2" d="M225.016 560.238L240.861 559.907L242.045 546.725H224.971L225.016 560.238Z" fill="#263238"/>
<path d="M217.496 304.732C217.496 304.732 199.649 328.389 212.868 374.719L227.793 442.291C227.793 442.291 213.589 473.034 221.087 554.119C221.087 554.119 232.365 555.926 243.126 553.626C243.126 553.626 259.745 467.989 262.274 439.059C265.058 407.2 263.391 311.139 263.391 311.139L217.496 304.732Z" fill="#407BFF"/>
<path d="M228.287 228.092C228.287 228.092 225.522 216.264 243.253 221.439C260.985 226.614 259.507 236.717 259.507 236.717L228.286 228.092H228.287Z" fill="#263238"/>
<path opacity="0.4" d="M228.287 228.092C228.287 228.092 225.522 216.264 243.253 221.439C260.985 226.614 259.507 236.717 259.507 236.717L228.286 228.092H228.287Z" fill="black"/>
<path d="M272.284 257.658C272.284 261.804 270.536 267.798 268.972 274.509C268.207 277.689 267.508 281.002 267.042 284.366C264.529 302.697 263.714 321.979 263.714 321.979C263.714 321.979 234.727 330.121 206.572 310.64C206.572 310.64 213.544 304.729 212.113 263.786C211.464 245.337 204.808 223.409 235.276 226.855C261.002 229.769 269.655 237.761 271.735 250.266C271.751 250.416 271.784 250.582 271.818 250.749C271.868 251.131 271.918 251.514 271.967 251.914C272.184 253.729 272.284 255.66 272.284 257.658Z" fill="#263238"/>
<path opacity="0.4" d="M272.283 257.659C272.283 261.805 270.536 267.799 268.972 274.509C262.017 266.134 255.044 250.449 255.044 250.449L260.785 241.991L270.902 246.703C271.252 247.852 271.518 249.034 271.734 250.266C271.751 250.416 271.784 250.582 271.818 250.749C271.867 251.132 271.917 251.515 271.967 251.914C272.184 253.729 272.283 255.661 272.283 257.659Z" fill="black"/>
<path d="M282.794 250.425C282.794 250.425 292.694 260.284 296.726 264.257L331.244 253.9C331.707 250.227 334.368 247.212 337.952 246.298L340.39 245.677L345.576 244.246C347.541 243.705 349.646 244.253 351.097 245.685C352.815 247.378 353.282 249.969 352.266 252.157C350.176 256.654 345.882 259.728 340.954 260.257L336.068 260.782C336.068 260.782 305.258 277.609 295.34 276.675C285.423 275.74 272.394 263.807 272.394 263.807L282.795 250.427L282.794 250.425Z" fill="#B97964"/>
<path d="M258.088 232.504C266.603 233.751 275.304 240.526 288.814 252.489C288.814 252.489 284.381 262.716 274.53 269C274.53 269 266.65 265.55 257.27 253.606C245.921 239.156 252.867 231.74 258.088 232.504Z" fill="#263238"/>
</svg>
