<svg width="250" height="200" viewBox="0 0 250 200" fill="none" xmlns="http://www.w3.org/2000/svg">
<g clip-path="url(#clip0_7500_8362)">
<path d="M125 199.994C194.036 199.994 250 196.722 250 192.686C250 188.65 194.036 185.378 125 185.378C55.9644 185.378 0 188.65 0 192.686C0 196.722 55.9644 199.994 125 199.994Z" fill="#F5F5F5"/>
<path d="M155.604 3.6928H140.131C139.627 3.70354 139.141 3.88292 138.751 4.20234C138.361 4.52177 138.088 4.96284 137.978 5.45523L137.874 5.93942C137.607 7.14063 136.944 8.217 135.993 8.99561C135.041 9.77421 133.855 10.2098 132.627 10.2325H117.928C116.762 10.2586 115.633 9.82179 114.787 9.0175C113.942 8.2132 113.448 7.10669 113.415 5.93942V5.45523C113.403 4.97692 113.202 4.52281 112.856 4.19244C112.511 3.86208 112.049 3.6824 111.571 3.6928H96.0981C93.5569 3.73806 91.1203 4.71428 89.2492 6.43682C87.3782 8.15937 86.2023 10.5088 85.9442 13.0408L73.5273 155.417C73.3962 156.607 73.5198 157.812 73.89 158.951C74.2602 160.089 74.8684 161.136 75.6742 162.021C76.4799 162.906 77.4648 163.609 78.5631 164.083C79.6614 164.558 80.8479 164.792 82.0438 164.771H141.53C144.072 164.724 146.508 163.747 148.379 162.023C150.25 160.299 151.426 157.949 151.684 155.417L164.126 13.0408C164.257 11.8503 164.132 10.6457 163.761 9.50718C163.39 8.36866 162.781 7.32236 161.975 6.43793C161.168 5.55349 160.183 4.85123 159.085 4.37789C157.986 3.90456 156.799 3.67101 155.604 3.6928Z" fill="#407BFF"/>
<path opacity="0.7" d="M155.604 3.6928H140.131C139.627 3.70354 139.141 3.88292 138.751 4.20234C138.361 4.52177 138.088 4.96284 137.978 5.45523L137.874 5.93942C137.607 7.14063 136.944 8.217 135.993 8.99561C135.041 9.77421 133.855 10.2098 132.627 10.2325H117.928C116.762 10.2586 115.633 9.82179 114.787 9.0175C113.942 8.2132 113.448 7.10669 113.415 5.93942V5.45523C113.403 4.97692 113.202 4.52281 112.856 4.19244C112.511 3.86208 112.049 3.6824 111.571 3.6928H96.0981C93.5569 3.73806 91.1203 4.71428 89.2492 6.43682C87.3782 8.15937 86.2023 10.5088 85.9442 13.0408L73.5273 155.417C73.3962 156.607 73.5198 157.812 73.89 158.951C74.2602 160.089 74.8684 161.136 75.6742 162.021C76.4799 162.906 77.4648 163.609 78.5631 164.083C79.6614 164.558 80.8479 164.792 82.0438 164.771H141.53C144.072 164.724 146.508 163.747 148.379 162.023C150.25 160.299 151.426 157.949 151.684 155.417L164.126 13.0408C164.257 11.8503 164.132 10.6457 163.761 9.50718C163.39 8.36866 162.781 7.32236 161.975 6.43793C161.168 5.55349 160.183 4.85123 159.085 4.37789C157.986 3.90456 156.799 3.67101 155.604 3.6928Z" fill="white"/>
<path d="M149.576 69.1802H117.986C117.72 69.1845 117.457 69.1322 117.213 69.0267C116.969 68.9212 116.75 68.7651 116.571 68.5685C116.391 68.372 116.256 68.1396 116.173 67.8866C116.091 67.6337 116.062 67.3661 116.091 67.1015L118.47 39.8645C118.526 39.3015 118.788 38.7789 119.203 38.3957C119.619 38.0126 120.161 37.7956 120.726 37.7858H152.316C152.582 37.7805 152.846 37.8321 153.091 37.9372C153.335 38.0423 153.555 38.1984 153.734 38.3952C153.914 38.592 154.049 38.8249 154.131 39.0783C154.214 39.3316 154.241 39.5997 154.212 39.8645L151.833 67.1015C151.775 67.664 151.513 68.1858 151.098 68.5687C150.682 68.9515 150.141 69.1691 149.576 69.1802Z" fill="white"/>
<path d="M139.066 154.345H86.2012C85.5406 154.357 84.8849 154.228 84.278 153.967C83.6711 153.705 83.1268 153.317 82.6815 152.829C82.2361 152.34 81.8999 151.762 81.6953 151.133C81.4907 150.503 81.4224 149.838 81.4949 149.18C81.638 147.782 82.2877 146.484 83.3211 145.533C84.3545 144.581 85.7001 144.041 87.1037 144.016H139.969C140.629 144.003 141.285 144.132 141.892 144.394C142.499 144.655 143.043 145.043 143.488 145.532C143.934 146.021 144.27 146.599 144.475 147.228C144.679 147.857 144.748 148.523 144.675 149.18C144.533 150.579 143.884 151.878 142.85 152.83C141.817 153.781 140.47 154.321 139.066 154.345Z" fill="white"/>
<path d="M143.278 30.2971H94.7775C94.4057 30.3083 94.0359 30.2389 93.6934 30.0935C93.3509 29.9481 93.0439 29.7303 92.7935 29.4549C92.543 29.1796 92.3549 28.8532 92.2423 28.4983C92.1296 28.1433 92.0949 27.7681 92.1407 27.3985L92.5339 22.8794C92.6156 22.096 92.9805 21.3695 93.56 20.8367C94.1395 20.304 94.8935 20.0019 95.68 19.9872H144.18C144.551 19.9806 144.918 20.0528 145.258 20.1992C145.598 20.3455 145.904 20.5627 146.154 20.8362C146.404 21.1097 146.593 21.4334 146.708 21.7856C146.824 22.1379 146.863 22.5108 146.824 22.8794L146.424 27.3985C146.344 28.1831 145.98 28.9112 145.4 29.4452C144.82 29.9792 144.065 30.2823 143.278 30.2971Z" fill="white"/>
<path d="M153.141 22.7245C153.119 22.9432 153.018 23.1462 152.856 23.295C152.694 23.4437 152.484 23.5279 152.264 23.5315C152.161 23.533 152.059 23.5126 151.965 23.4716C151.87 23.4306 151.785 23.3699 151.716 23.2937C151.646 23.2174 151.594 23.1272 151.562 23.0291C151.529 22.931 151.519 22.8272 151.53 22.7245C151.552 22.5065 151.653 22.3042 151.815 22.1565C151.977 22.0089 152.187 21.9261 152.406 21.924C152.509 21.9216 152.611 21.9412 152.706 21.9814C152.8 22.0217 152.885 22.0817 152.955 22.1575C153.025 22.2333 153.077 22.3231 153.109 22.4209C153.141 22.5187 153.152 22.6222 153.141 22.7245Z" fill="white"/>
<path d="M152.928 25.1388C152.907 25.357 152.807 25.5599 152.646 25.7088C152.486 25.8576 152.276 25.942 152.057 25.9458C151.954 25.9473 151.852 25.9269 151.758 25.8859C151.663 25.8449 151.578 25.7842 151.509 25.708C151.439 25.6317 151.387 25.5415 151.355 25.4434C151.322 25.3453 151.312 25.2415 151.322 25.1388C151.343 24.9207 151.443 24.7178 151.604 24.5689C151.764 24.4201 151.974 24.3357 152.193 24.3319C152.296 24.3304 152.398 24.3508 152.493 24.3918C152.587 24.4328 152.672 24.4934 152.742 24.5697C152.811 24.646 152.864 24.7362 152.896 24.8343C152.928 24.9324 152.939 25.0362 152.928 25.1388Z" fill="white"/>
<path d="M152.721 27.5468C152.699 27.7655 152.598 27.9685 152.436 28.1172C152.275 28.266 152.064 28.3501 151.845 28.3538C151.741 28.3553 151.639 28.3348 151.545 28.2938C151.45 28.2528 151.365 28.1922 151.296 28.1159C151.226 28.0396 151.174 27.9495 151.142 27.8514C151.11 27.7533 151.099 27.6494 151.11 27.5468C151.132 27.3281 151.233 27.1251 151.395 26.9764C151.556 26.8276 151.767 26.7435 151.986 26.7398C152.089 26.7383 152.192 26.7588 152.286 26.7998C152.381 26.8408 152.466 26.9014 152.535 26.9777C152.605 27.054 152.657 27.1441 152.689 27.2422C152.721 27.3403 152.732 27.4441 152.721 27.5468Z" fill="white"/>
<path d="M145.65 114.112H86.6412C86.3752 114.118 86.1111 114.066 85.8666 113.961C85.622 113.856 85.4027 113.7 85.2233 113.503C85.0439 113.306 84.9085 113.073 84.8261 112.82C84.7438 112.567 84.7164 112.299 84.7458 112.034L87.4922 80.9491C87.549 80.3861 87.81 79.8635 88.2259 79.4803C88.6418 79.0972 89.1836 78.8802 89.7487 78.8704H148.738C149.004 78.866 149.267 78.9183 149.511 79.0238C149.755 79.1293 149.973 79.2856 150.152 79.4823C150.331 79.679 150.465 79.9115 150.547 80.1644C150.629 80.4173 150.657 80.6849 150.627 80.9491L147.913 112.034C147.856 112.598 147.594 113.121 147.177 113.505C146.76 113.888 146.216 114.104 145.65 114.112Z" fill="white"/>
<path d="M102.874 120.607H84.4998C84.4354 120.608 84.3714 120.596 84.3122 120.57C84.253 120.545 84.2 120.507 84.1566 120.459C84.1133 120.412 84.0806 120.355 84.0608 120.294C84.0411 120.232 84.0347 120.167 84.042 120.103C84.0547 119.966 84.1176 119.838 84.2187 119.744C84.3198 119.649 84.452 119.596 84.59 119.593H102.964C103.029 119.592 103.093 119.605 103.153 119.63C103.213 119.656 103.266 119.695 103.31 119.743C103.353 119.792 103.386 119.849 103.405 119.911C103.424 119.973 103.43 120.039 103.422 120.103C103.407 120.24 103.344 120.366 103.243 120.459C103.142 120.552 103.011 120.604 102.874 120.607Z" fill="white"/>
<path d="M125.839 120.607H106.118C106.053 120.609 105.988 120.597 105.928 120.572C105.868 120.547 105.814 120.51 105.77 120.462C105.726 120.414 105.693 120.357 105.673 120.295C105.652 120.233 105.646 120.168 105.653 120.103C105.666 119.966 105.729 119.838 105.83 119.744C105.931 119.649 106.063 119.596 106.201 119.593H125.929C125.994 119.592 126.059 119.605 126.118 119.63C126.178 119.656 126.231 119.695 126.275 119.743C126.318 119.792 126.351 119.849 126.37 119.911C126.39 119.973 126.395 120.039 126.387 120.103C126.373 120.24 126.309 120.366 126.208 120.459C126.107 120.552 125.976 120.604 125.839 120.607Z" fill="white"/>
<path d="M96.5175 125.094H84.1136C84.0483 125.095 83.9836 125.082 83.9236 125.057C83.8636 125.031 83.8099 124.993 83.7659 124.944C83.722 124.896 83.6888 124.839 83.6687 124.777C83.6486 124.714 83.642 124.649 83.6494 124.584C83.6634 124.447 83.7267 124.319 83.8276 124.225C83.9284 124.132 84.0598 124.078 84.1974 124.074H96.6271C96.6921 124.073 96.7564 124.087 96.8158 124.113C96.8753 124.139 96.9287 124.177 96.9724 124.225C97.0162 124.274 97.0493 124.33 97.0698 124.392C97.0903 124.454 97.0976 124.519 97.0913 124.584C97.0768 124.725 97.0098 124.856 96.9036 124.951C96.7973 125.045 96.6596 125.096 96.5175 125.094Z" fill="white"/>
<path d="M120.139 125.094H99.7796C99.7144 125.095 99.6496 125.082 99.5896 125.057C99.5297 125.031 99.4759 124.992 99.4319 124.944C99.388 124.896 99.3548 124.839 99.3347 124.776C99.3146 124.714 99.3081 124.649 99.3154 124.584C99.3296 124.445 99.3938 124.317 99.496 124.223C99.5982 124.129 99.7312 124.076 99.8699 124.074H120.223C120.288 124.072 120.353 124.085 120.413 124.111C120.473 124.136 120.527 124.175 120.571 124.223C120.615 124.271 120.648 124.329 120.668 124.391C120.688 124.453 120.694 124.519 120.687 124.584C120.674 124.721 120.612 124.849 120.51 124.943C120.409 125.038 120.277 125.091 120.139 125.094Z" fill="white"/>
<path d="M116.85 129.574H83.7191C83.6542 129.576 83.5895 129.565 83.5295 129.54C83.4696 129.515 83.4157 129.477 83.3716 129.429C83.3276 129.381 83.2943 129.324 83.2742 129.263C83.254 129.201 83.2475 129.135 83.2549 129.071C83.2691 128.932 83.3334 128.804 83.4355 128.71C83.5377 128.616 83.6707 128.563 83.8094 128.561H116.94C117.005 128.56 117.07 128.574 117.129 128.6C117.188 128.626 117.242 128.664 117.286 128.712C117.329 128.76 117.362 128.817 117.383 128.879C117.403 128.94 117.411 129.006 117.404 129.071C117.389 129.208 117.324 129.334 117.222 129.427C117.12 129.52 116.988 129.572 116.85 129.574Z" fill="white"/>
<path d="M122.305 129.574H120.12C120.055 129.576 119.99 129.564 119.93 129.539C119.87 129.514 119.816 129.477 119.772 129.429C119.728 129.381 119.695 129.324 119.675 129.262C119.654 129.201 119.648 129.135 119.655 129.07C119.668 128.933 119.731 128.805 119.832 128.711C119.933 128.616 120.065 128.563 120.203 128.56H122.395C122.46 128.559 122.525 128.572 122.585 128.597C122.644 128.623 122.698 128.662 122.741 128.71C122.785 128.759 122.817 128.816 122.836 128.878C122.856 128.94 122.861 129.006 122.853 129.07C122.839 129.207 122.775 129.333 122.674 129.426C122.573 129.519 122.442 129.572 122.305 129.574Z" fill="white"/>
<path d="M98.7926 134.061H83.3199C83.2549 134.061 83.1907 134.048 83.1312 134.022C83.0717 133.996 83.0184 133.957 82.9746 133.909C82.9309 133.861 82.8977 133.804 82.8772 133.743C82.8567 133.681 82.8494 133.616 82.8557 133.551C82.8699 133.413 82.9341 133.284 83.0363 133.191C83.1384 133.097 83.2715 133.043 83.4102 133.041H98.8828C98.9481 133.04 99.0129 133.052 99.0728 133.078C99.1328 133.104 99.1866 133.142 99.2305 133.19C99.2745 133.239 99.3076 133.296 99.3277 133.358C99.3478 133.42 99.3544 133.486 99.347 133.551C99.3329 133.689 99.2686 133.817 99.1665 133.911C99.0643 134.005 98.9313 134.058 98.7926 134.061Z" fill="white"/>
<path d="M121.3 134.061H102.037C101.972 134.061 101.907 134.048 101.848 134.022C101.789 133.996 101.735 133.957 101.691 133.909C101.648 133.861 101.614 133.804 101.594 133.743C101.574 133.681 101.566 133.616 101.573 133.551C101.587 133.413 101.651 133.284 101.753 133.191C101.855 133.097 101.988 133.043 102.127 133.041H121.384C121.449 133.04 121.514 133.052 121.574 133.078C121.634 133.104 121.688 133.142 121.732 133.19C121.776 133.239 121.809 133.296 121.829 133.358C121.849 133.42 121.856 133.486 121.848 133.551C121.834 133.688 121.771 133.815 121.67 133.909C121.569 134.003 121.438 134.057 121.3 134.061Z" fill="white"/>
<path d="M101.985 138.541H82.9341C82.8691 138.543 82.8046 138.53 82.7449 138.504C82.6852 138.478 82.6318 138.44 82.5883 138.391C82.5448 138.343 82.5123 138.286 82.493 138.224C82.4737 138.161 82.468 138.096 82.4764 138.031C82.4906 137.895 82.5541 137.768 82.6551 137.675C82.756 137.583 82.8874 137.53 83.0244 137.528H102.069C102.134 137.525 102.198 137.537 102.258 137.562C102.318 137.587 102.372 137.625 102.416 137.673C102.46 137.721 102.494 137.777 102.514 137.839C102.534 137.901 102.54 137.967 102.533 138.031C102.52 138.169 102.457 138.297 102.356 138.391C102.255 138.485 102.123 138.539 101.985 138.541Z" fill="white"/>
<path d="M120.565 138.541H105.221C105.156 138.543 105.092 138.53 105.032 138.504C104.972 138.478 104.919 138.44 104.875 138.391C104.832 138.343 104.799 138.286 104.78 138.224C104.761 138.161 104.755 138.096 104.764 138.031C104.778 137.895 104.841 137.768 104.942 137.675C105.043 137.583 105.175 137.53 105.312 137.528H120.655C120.72 137.525 120.785 137.537 120.845 137.562C120.905 137.587 120.959 137.625 121.003 137.673C121.047 137.721 121.08 137.777 121.1 137.839C121.12 137.901 121.127 137.967 121.119 138.031C121.105 138.169 121.041 138.298 120.939 138.392C120.837 138.486 120.704 138.539 120.565 138.541Z" fill="white"/>
<path d="M148.828 66.5979C148.772 66.6624 148.704 66.7151 148.627 66.7529C148.551 66.7908 148.468 66.8131 148.383 66.8185C148.297 66.8239 148.212 66.8123 148.131 66.7844C148.051 66.7565 147.976 66.7129 147.913 66.656L121.525 41.4397C121.405 41.3188 121.338 41.1552 121.338 40.9846C121.338 40.814 121.405 40.6504 121.525 40.5295C121.581 40.465 121.65 40.4123 121.726 40.3745C121.803 40.3366 121.886 40.3143 121.971 40.3089C122.056 40.3035 122.142 40.3151 122.222 40.343C122.303 40.3709 122.377 40.4145 122.441 40.4714L148.828 65.6876C148.948 65.8086 149.016 65.9722 149.016 66.1428C149.016 66.3133 148.948 66.4769 148.828 66.5979Z" fill="#407BFF"/>
<path d="M119.192 66.5914C119.139 66.5228 119.101 66.4443 119.079 66.3607C119.058 66.277 119.053 66.1899 119.066 66.1044C119.078 66.0189 119.108 65.9368 119.153 65.863C119.198 65.7892 119.257 65.7251 119.327 65.6747L132.788 54.6547C132.916 54.5438 133.082 54.4878 133.251 54.4986C133.42 54.5095 133.578 54.5864 133.691 54.7128C133.742 54.7812 133.78 54.8592 133.801 54.9422C133.822 55.0252 133.826 55.1116 133.813 55.1963C133.801 55.281 133.772 55.3624 133.727 55.4356C133.683 55.5089 133.624 55.5726 133.555 55.623L120.094 66.6495C119.966 66.7604 119.8 66.8164 119.631 66.8055C119.462 66.7947 119.304 66.7178 119.192 66.5914Z" fill="#407BFF"/>
<path d="M136.585 52.3436C136.533 52.2752 136.496 52.1972 136.475 52.1142C136.454 52.0311 136.45 51.9448 136.462 51.86C136.475 51.7753 136.504 51.694 136.548 51.6207C136.593 51.5474 136.651 51.4837 136.72 51.4333L150.207 40.3939C150.335 40.2831 150.502 40.227 150.67 40.2379C150.839 40.2488 150.997 40.3257 151.11 40.452C151.161 40.5204 151.199 40.5984 151.22 40.6814C151.241 40.7645 151.245 40.8508 151.233 40.9356C151.22 41.0203 151.191 41.1016 151.146 41.1749C151.102 41.2482 151.044 41.3119 150.974 41.3623L137.487 52.4017C137.359 52.5125 137.193 52.5686 137.024 52.5577C136.855 52.5468 136.698 52.4699 136.585 52.3436Z" fill="#407BFF"/>
<g opacity="0.7">
<path d="M148.828 66.5979C148.772 66.6624 148.704 66.7151 148.627 66.7529C148.551 66.7908 148.468 66.8131 148.383 66.8185C148.297 66.8239 148.212 66.8123 148.131 66.7844C148.051 66.7565 147.976 66.7129 147.913 66.656L121.525 41.4397C121.405 41.3188 121.338 41.1552 121.338 40.9846C121.338 40.814 121.405 40.6504 121.525 40.5295C121.581 40.465 121.65 40.4123 121.726 40.3745C121.803 40.3366 121.886 40.3143 121.971 40.3089C122.056 40.3035 122.142 40.3151 122.222 40.343C122.303 40.3709 122.377 40.4145 122.441 40.4714L148.828 65.6876C148.948 65.8086 149.016 65.9722 149.016 66.1428C149.016 66.3133 148.948 66.4769 148.828 66.5979Z" fill="white"/>
</g>
<g opacity="0.7">
<path d="M119.192 66.5914C119.139 66.5228 119.101 66.4443 119.079 66.3607C119.058 66.277 119.053 66.1899 119.066 66.1044C119.078 66.0189 119.108 65.9368 119.153 65.863C119.198 65.7892 119.257 65.7251 119.327 65.6747L132.788 54.6547C132.916 54.5438 133.082 54.4878 133.251 54.4986C133.42 54.5095 133.578 54.5864 133.691 54.7128C133.742 54.7812 133.78 54.8592 133.801 54.9422C133.822 55.0252 133.826 55.1116 133.813 55.1963C133.801 55.281 133.772 55.3624 133.727 55.4356C133.683 55.5089 133.624 55.5726 133.555 55.623L120.094 66.6495C119.966 66.7604 119.8 66.8164 119.631 66.8055C119.462 66.7947 119.304 66.7178 119.192 66.5914Z" fill="white"/>
</g>
<g opacity="0.7">
<path d="M136.585 52.3436C136.533 52.2752 136.496 52.1972 136.475 52.1142C136.454 52.0311 136.45 51.9448 136.462 51.86C136.475 51.7753 136.504 51.694 136.548 51.6207C136.593 51.5474 136.651 51.4837 136.72 51.4333L150.207 40.3939C150.335 40.2831 150.502 40.227 150.67 40.2379C150.839 40.2488 150.997 40.3257 151.11 40.452C151.161 40.5204 151.199 40.5984 151.22 40.6814C151.241 40.7645 151.245 40.8508 151.233 40.9356C151.22 41.0203 151.191 41.1016 151.146 41.1749C151.102 41.2482 151.044 41.3119 150.974 41.3623L137.487 52.4017C137.359 52.5125 137.193 52.5686 137.024 52.5577C136.855 52.5468 136.698 52.4699 136.585 52.3436Z" fill="white"/>
</g>
<path d="M73.7846 0.594021H65.4035C64.5919 0.597436 63.8146 0.922704 63.2419 1.49862C62.6692 2.07454 62.3476 2.85421 62.3477 3.66697V12.0595C62.3477 12.8745 62.671 13.6561 63.2465 14.2324C63.822 14.8087 64.6025 15.1324 65.4164 15.1324H73.7974C74.6113 15.1324 75.3919 14.8087 75.9674 14.2324C76.5429 13.6561 76.8662 12.8745 76.8662 12.0595V3.66697C76.8662 3.26234 76.7864 2.86169 76.6314 2.48802C76.4764 2.11435 76.2492 1.77501 75.9628 1.48949C75.6765 1.20397 75.3367 0.977892 74.9629 0.824223C74.5891 0.670554 74.1886 0.592321 73.7846 0.594021ZM69.6134 3.56368C70.8705 3.56368 71.5475 4.59015 71.5475 5.84903C71.5475 7.10791 70.8705 8.13437 69.6134 8.13437C68.3562 8.13437 67.6793 7.11436 67.6793 5.84903C67.6793 4.5837 68.3498 3.56368 69.6134 3.56368ZM74.6484 12.1305H64.5719C64.5312 12.1306 64.4909 12.1227 64.4533 12.1072C64.4157 12.0916 64.3815 12.0689 64.3527 12.0401L64.9974 10.2777C65.1986 9.72189 65.5657 9.24159 66.049 8.90202C66.5323 8.56246 67.1083 8.38009 67.6986 8.37969H71.5088C72.1 8.37969 72.677 8.56181 73.1614 8.90134C73.6458 9.24087 74.0141 9.72138 74.2165 10.2777L74.8612 12.0401C74.8336 12.0687 74.8005 12.0914 74.764 12.1069C74.7274 12.1224 74.6881 12.1305 74.6484 12.1305Z" fill="#407BFF"/>
<path opacity="0.7" d="M73.7846 0.594021H65.4035C64.5919 0.597436 63.8146 0.922704 63.2419 1.49862C62.6692 2.07454 62.3476 2.85421 62.3477 3.66697V12.0595C62.3477 12.8745 62.671 13.6561 63.2465 14.2324C63.822 14.8087 64.6025 15.1324 65.4164 15.1324H73.7974C74.6113 15.1324 75.3919 14.8087 75.9674 14.2324C76.5429 13.6561 76.8662 12.8745 76.8662 12.0595V3.66697C76.8662 3.26234 76.7864 2.86169 76.6314 2.48802C76.4764 2.11435 76.2492 1.77501 75.9628 1.48949C75.6765 1.20397 75.3367 0.977892 74.9629 0.824223C74.5891 0.670554 74.1886 0.592321 73.7846 0.594021ZM69.6134 3.56368C70.8705 3.56368 71.5475 4.59015 71.5475 5.84903C71.5475 7.10791 70.8705 8.13437 69.6134 8.13437C68.3562 8.13437 67.6793 7.11436 67.6793 5.84903C67.6793 4.5837 68.3498 3.56368 69.6134 3.56368ZM74.6484 12.1305H64.5719C64.5312 12.1306 64.4909 12.1227 64.4533 12.1072C64.4157 12.0916 64.3815 12.0689 64.3527 12.0401L64.9974 10.2777C65.1986 9.72189 65.5657 9.24159 66.049 8.90202C66.5323 8.56246 67.1083 8.38009 67.6986 8.37969H71.5088C72.1 8.37969 72.677 8.56181 73.1614 8.90134C73.6458 9.24087 74.0141 9.72138 74.2165 10.2777L74.8612 12.0401C74.8336 12.0687 74.8005 12.0914 74.764 12.1069C74.7274 12.1224 74.6881 12.1305 74.6484 12.1305Z" fill="white"/>
<path d="M44.0779 34.9905H37.7341C37.1917 34.9896 36.6544 35.0959 36.1531 35.3031C35.6518 35.5104 35.1962 35.8146 34.8123 36.1984C34.4285 36.5821 34.124 37.0379 33.9163 37.5396C33.7085 38.0413 33.6016 38.5791 33.6016 39.1222V45.4747C33.6016 46.5722 34.0369 47.6247 34.8119 48.4008C35.5869 49.1768 36.6381 49.6128 37.7341 49.6128H44.0779C44.6202 49.6128 45.1573 49.5057 45.6583 49.2977C46.1593 49.0897 46.6145 48.7847 46.9977 48.4004C47.3809 48.0161 47.6847 47.5598 47.8917 47.0578C48.0987 46.5558 48.2048 46.0178 48.2039 45.4747V39.1222C48.2048 38.5794 48.0986 38.0417 47.8916 37.5401C47.6845 37.0384 47.3806 36.5826 46.9973 36.1987C46.614 35.8149 46.1588 35.5106 45.6578 35.3033C45.1569 35.0959 44.6199 34.9896 44.0779 34.9905ZM40.906 45.7652C40.906 45.7652 38.3272 42.9311 38.3272 41.485C38.3272 40.7924 38.6019 40.1282 39.091 39.6385C39.58 39.1488 40.2433 38.8736 40.935 38.8736C41.6266 38.8736 42.2899 39.1488 42.779 39.6385C43.268 40.1282 43.5428 40.7924 43.5428 41.485C43.5105 42.9311 40.906 45.7652 40.906 45.7652Z" fill="#407BFF"/>
<path d="M40.9061 40.2971C40.6697 40.2959 40.4382 40.365 40.2411 40.4957C40.044 40.6265 39.8901 40.8129 39.7991 41.0314C39.708 41.2499 39.6838 41.4906 39.7296 41.7229C39.7755 41.9551 39.8892 42.1685 40.0564 42.336C40.2235 42.5034 40.4367 42.6172 40.6686 42.6631C40.9006 42.709 41.1409 42.6848 41.3591 42.5936C41.5773 42.5024 41.7635 42.3483 41.8941 42.1509C42.0246 41.9536 42.0937 41.7218 42.0924 41.485C42.0924 41.17 41.9674 40.8678 41.7449 40.6451C41.5225 40.4223 41.2208 40.2971 40.9061 40.2971Z" fill="#407BFF"/>
<g opacity="0.7">
<path d="M44.0779 34.9905H37.7341C37.1917 34.9896 36.6544 35.0959 36.1531 35.3031C35.6518 35.5104 35.1962 35.8146 34.8123 36.1984C34.4285 36.5821 34.124 37.0379 33.9163 37.5396C33.7085 38.0413 33.6016 38.5791 33.6016 39.1222V45.4747C33.6016 46.5722 34.0369 47.6247 34.8119 48.4008C35.5869 49.1768 36.6381 49.6128 37.7341 49.6128H44.0779C44.6202 49.6128 45.1573 49.5057 45.6583 49.2977C46.1593 49.0897 46.6145 48.7847 46.9977 48.4004C47.3809 48.0161 47.6847 47.5598 47.8917 47.0578C48.0987 46.5558 48.2048 46.0178 48.2039 45.4747V39.1222C48.2048 38.5794 48.0986 38.0417 47.8916 37.5401C47.6845 37.0384 47.3806 36.5826 46.9973 36.1987C46.614 35.8149 46.1588 35.5106 45.6578 35.3033C45.1569 35.0959 44.6199 34.9896 44.0779 34.9905ZM40.906 45.7652C40.906 45.7652 38.3272 42.9311 38.3272 41.485C38.3272 40.7924 38.6019 40.1282 39.091 39.6385C39.58 39.1488 40.2433 38.8736 40.935 38.8736C41.6266 38.8736 42.2899 39.1488 42.779 39.6385C43.268 40.1282 43.5428 40.7924 43.5428 41.485C43.5105 42.9311 40.906 45.7652 40.906 45.7652Z" fill="white"/>
<path d="M40.9061 40.2971C40.6697 40.2959 40.4382 40.365 40.2411 40.4957C40.044 40.6265 39.8901 40.8129 39.7991 41.0314C39.708 41.2499 39.6838 41.4906 39.7296 41.7229C39.7755 41.9551 39.8892 42.1685 40.0564 42.336C40.2235 42.5034 40.4367 42.6172 40.6686 42.6631C40.9006 42.709 41.1409 42.6848 41.3591 42.5936C41.5773 42.5024 41.7635 42.3483 41.8941 42.1509C42.0246 41.9536 42.0937 41.7218 42.0924 41.485C42.0924 41.17 41.9674 40.8678 41.7449 40.6451C41.5225 40.4223 41.2208 40.2971 40.9061 40.2971Z" fill="white"/>
</g>
<path d="M183.357 16.9917L187.606 14.2351L183.357 11.4785V16.9917Z" fill="#407BFF"/>
<path d="M188.832 6.72706H180.734C179.82 6.72706 178.942 7.09095 178.295 7.73867C177.649 8.38639 177.285 9.26489 177.285 10.1809V18.2894C177.287 19.2049 177.651 20.0824 178.297 20.7297C178.944 21.3771 179.82 21.7415 180.734 21.7432H188.832C189.746 21.7432 190.624 21.3793 191.271 20.7316C191.917 20.0839 192.281 19.2054 192.281 18.2894V10.1809C192.282 9.7271 192.193 9.27759 192.02 8.85817C191.847 8.43874 191.593 8.05766 191.272 7.73677C190.952 7.41588 190.571 7.1615 190.153 6.98823C189.734 6.81496 189.285 6.72621 188.832 6.72706ZM184.783 19.6386C183.715 19.6386 182.672 19.3215 181.784 18.7275C180.897 18.1335 180.205 17.2892 179.797 16.3015C179.389 15.3137 179.282 14.2269 179.491 13.1786C179.7 12.1302 180.214 11.1674 180.97 10.412C181.725 9.65657 182.687 9.14245 183.734 8.93469C184.781 8.72692 185.867 8.83485 186.852 9.24482C187.838 9.65478 188.681 10.3484 189.273 11.2378C189.865 12.1273 190.18 13.1726 190.179 14.2416C190.178 14.9503 190.038 15.652 189.766 16.3064C189.495 16.9609 189.097 17.5554 188.596 18.056C188.095 18.5565 187.5 18.9534 186.846 19.2238C186.192 19.4943 185.491 19.633 184.783 19.6322V19.6386Z" fill="#407BFF"/>
<g opacity="0.7">
<path d="M183.357 16.9917L187.606 14.2351L183.357 11.4785V16.9917Z" fill="white"/>
<path d="M188.832 6.72706H180.734C179.82 6.72706 178.942 7.09095 178.295 7.73867C177.649 8.38639 177.285 9.26489 177.285 10.1809V18.2894C177.287 19.2049 177.651 20.0824 178.297 20.7297C178.944 21.3771 179.82 21.7415 180.734 21.7432H188.832C189.746 21.7432 190.624 21.3793 191.271 20.7316C191.917 20.0839 192.281 19.2054 192.281 18.2894V10.1809C192.282 9.7271 192.193 9.27759 192.02 8.85817C191.847 8.43874 191.593 8.05766 191.272 7.73677C190.952 7.41588 190.571 7.1615 190.153 6.98823C189.734 6.81496 189.285 6.72621 188.832 6.72706ZM184.783 19.6386C183.715 19.6386 182.672 19.3215 181.784 18.7275C180.897 18.1335 180.205 17.2892 179.797 16.3015C179.389 15.3137 179.282 14.2269 179.491 13.1786C179.7 12.1302 180.214 11.1674 180.97 10.412C181.725 9.65657 182.687 9.14245 183.734 8.93469C184.781 8.72692 185.867 8.83485 186.852 9.24482C187.838 9.65478 188.681 10.3484 189.273 11.2378C189.865 12.1273 190.18 13.1726 190.179 14.2416C190.178 14.9503 190.038 15.652 189.766 16.3064C189.495 16.9609 189.097 17.5554 188.596 18.056C188.095 18.5565 187.5 18.9534 186.846 19.2238C186.192 19.4943 185.491 19.633 184.783 19.6322V19.6386Z" fill="white"/>
</g>
<path d="M196.78 37.8244C196.78 37.6565 196.78 37.4887 196.78 37.3273L197.753 36.785C197.682 36.3234 197.561 35.871 197.392 35.4357H196.283C196.142 35.1327 195.974 34.8431 195.78 34.5707L196.354 33.6217C196.06 33.2574 195.73 32.9242 195.368 32.6275L194.414 33.202C194.143 33.0117 193.856 32.8454 193.556 32.7049V31.5881C193.12 31.4231 192.669 31.302 192.209 31.2266L191.667 32.2014C191.506 32.2014 191.338 32.2014 191.171 32.2014C191.003 32.2014 190.842 32.2014 190.674 32.2014L190.133 31.2266C189.673 31.3036 189.222 31.4247 188.785 31.5881V32.7049C188.485 32.844 188.198 33.0104 187.928 33.202L186.974 32.6275C186.608 32.9224 186.276 33.2557 185.981 33.6217L186.555 34.5707C186.366 34.8448 186.2 35.1341 186.058 35.4357H184.95C184.781 35.8717 184.658 36.3238 184.582 36.785L185.556 37.3273C185.556 37.4887 185.556 37.6565 185.556 37.8244C185.556 37.9922 185.556 38.1601 185.556 38.3215L184.582 38.8637C184.657 39.3251 184.78 39.7773 184.95 40.213H186.058C186.2 40.5146 186.366 40.804 186.555 41.0781L185.981 42.0335C186.277 42.3959 186.61 42.7269 186.974 43.0213L187.928 42.4467C188.196 42.6407 188.484 42.8073 188.785 42.9438V44.0607C189.221 44.227 189.673 44.3482 190.133 44.4222L190.674 43.4474C190.842 43.4474 191.003 43.4474 191.171 43.4474C191.338 43.4474 191.506 43.4474 191.667 43.4474L192.209 44.4222C192.669 44.3498 193.121 44.2287 193.556 44.0607V42.9438C193.857 42.8058 194.144 42.6394 194.414 42.4467L195.368 43.0213C195.728 42.7251 196.058 42.3943 196.354 42.0335L195.78 41.0781C195.974 40.8056 196.142 40.5161 196.283 40.213H197.392C197.562 39.7781 197.683 39.3255 197.753 38.8637L196.78 38.3215C196.767 38.1407 196.78 37.9922 196.78 37.8244ZM191.158 41.6462C190.403 41.6462 189.665 41.422 189.038 41.0021C188.41 40.5822 187.921 39.9853 187.632 39.2869C187.343 38.5886 187.267 37.8201 187.415 37.0788C187.562 36.3374 187.925 35.6564 188.459 35.1219C188.993 34.5874 189.673 34.2235 190.413 34.076C191.154 33.9285 191.921 34.0042 192.618 34.2935C193.316 34.5827 193.912 35.0726 194.331 35.7011C194.751 36.3296 194.975 37.0685 194.975 37.8244C194.975 38.838 194.572 39.8101 193.857 40.5268C193.141 41.2435 192.17 41.6462 191.158 41.6462Z" fill="#407BFF"/>
<path opacity="0.7" d="M196.78 37.8244C196.78 37.6565 196.78 37.4887 196.78 37.3273L197.753 36.785C197.682 36.3234 197.561 35.871 197.392 35.4357H196.283C196.142 35.1327 195.974 34.8431 195.78 34.5707L196.354 33.6217C196.06 33.2574 195.73 32.9242 195.368 32.6275L194.414 33.202C194.143 33.0117 193.856 32.8454 193.556 32.7049V31.5881C193.12 31.4231 192.669 31.302 192.209 31.2266L191.667 32.2014C191.506 32.2014 191.338 32.2014 191.171 32.2014C191.003 32.2014 190.842 32.2014 190.674 32.2014L190.133 31.2266C189.673 31.3036 189.222 31.4247 188.785 31.5881V32.7049C188.485 32.844 188.198 33.0104 187.928 33.202L186.974 32.6275C186.608 32.9224 186.276 33.2557 185.981 33.6217L186.555 34.5707C186.366 34.8448 186.2 35.1341 186.058 35.4357H184.95C184.781 35.8717 184.658 36.3238 184.582 36.785L185.556 37.3273C185.556 37.4887 185.556 37.6565 185.556 37.8244C185.556 37.9922 185.556 38.1601 185.556 38.3215L184.582 38.8637C184.657 39.3251 184.78 39.7773 184.95 40.213H186.058C186.2 40.5146 186.366 40.804 186.555 41.0781L185.981 42.0335C186.277 42.3959 186.61 42.7269 186.974 43.0213L187.928 42.4467C188.196 42.6407 188.484 42.8073 188.785 42.9438V44.0607C189.221 44.227 189.673 44.3482 190.133 44.4222L190.674 43.4474C190.842 43.4474 191.003 43.4474 191.171 43.4474C191.338 43.4474 191.506 43.4474 191.667 43.4474L192.209 44.4222C192.669 44.3498 193.121 44.2287 193.556 44.0607V42.9438C193.857 42.8058 194.144 42.6394 194.414 42.4467L195.368 43.0213C195.728 42.7251 196.058 42.3943 196.354 42.0335L195.78 41.0781C195.974 40.8056 196.142 40.5161 196.283 40.213H197.392C197.562 39.7781 197.683 39.3255 197.753 38.8637L196.78 38.3215C196.767 38.1407 196.78 37.9922 196.78 37.8244ZM191.158 41.6462C190.403 41.6462 189.665 41.422 189.038 41.0021C188.41 40.5822 187.921 39.9853 187.632 39.2869C187.343 38.5886 187.267 37.8201 187.415 37.0788C187.562 36.3374 187.925 35.6564 188.459 35.1219C188.993 34.5874 189.673 34.2235 190.413 34.076C191.154 33.9285 191.921 34.0042 192.618 34.2935C193.316 34.5827 193.912 35.0726 194.331 35.7011C194.751 36.3296 194.975 37.0685 194.975 37.8244C194.975 38.838 194.572 39.8101 193.857 40.5268C193.141 41.2435 192.17 41.6462 191.158 41.6462Z" fill="white"/>
<path d="M182.087 57.0173C182.087 56.7655 182.087 56.5202 182.055 56.2749L183.512 55.4679C183.402 54.7752 183.221 54.0958 182.97 53.4408L181.307 53.4731C181.097 53.0211 180.846 52.5889 180.559 52.1819L181.416 50.7552C180.977 50.2121 180.482 49.7166 179.94 49.2768L178.515 50.129C178.107 49.8455 177.676 49.5972 177.226 49.3866V47.721C176.574 47.4694 175.898 47.2877 175.208 47.1787L174.402 48.6377C174.157 48.6377 173.912 48.6377 173.661 48.6377C173.409 48.6377 173.164 48.6377 172.919 48.6377L172.133 47.1787C171.443 47.2893 170.767 47.471 170.115 47.721V49.3866C169.665 49.5969 169.233 49.8453 168.825 50.129L167.433 49.2768C166.889 49.7165 166.392 50.212 165.95 50.7552L166.808 52.1819C166.522 52.5891 166.274 53.0212 166.066 53.4731L164.403 53.4408C164.15 54.0949 163.968 54.7746 163.861 55.4679L165.318 56.2749C165.267 56.7685 165.267 57.2661 165.318 57.7597L163.861 58.5732C163.969 59.2643 164.15 59.9417 164.403 60.5938L166.066 60.5615C166.273 61.0141 166.521 61.4464 166.808 61.8527L165.95 63.2794C166.392 63.8226 166.889 64.3181 167.433 64.7578L168.858 63.9056C169.264 64.1918 169.696 64.4403 170.147 64.648V66.3136C170.798 66.5666 171.475 66.7484 172.165 66.8559L172.977 65.3969C173.47 65.4486 173.967 65.4486 174.46 65.3969L175.266 66.8559C175.956 66.75 176.633 66.5682 177.284 66.3136V64.648C177.735 64.4399 178.167 64.1915 178.573 63.9056L179.998 64.7578C180.54 64.318 181.035 63.8225 181.474 63.2794L180.617 61.8527C180.906 61.4465 181.156 61.0143 181.365 60.5615L183.028 60.5938C183.278 59.9408 183.459 59.2636 183.57 58.5732L182.113 57.7597C182.074 57.508 182.087 57.2691 182.087 57.0173ZM173.706 60.3356C173.05 60.3356 172.41 60.141 171.865 59.7764C171.32 59.4117 170.895 58.8935 170.644 58.2872C170.394 57.6808 170.328 57.0136 170.456 56.3699C170.584 55.7263 170.899 55.135 171.363 54.6709C171.826 54.2069 172.417 53.8908 173.059 53.7628C173.702 53.6348 174.368 53.7005 174.974 53.9516C175.579 54.2028 176.097 54.6281 176.461 55.1738C176.825 55.7195 177.02 56.361 177.02 57.0173C177.02 57.4547 176.933 57.8878 176.765 58.2917C176.598 58.6955 176.352 59.0622 176.042 59.3706C175.732 59.6789 175.365 59.923 174.961 60.0886C174.556 60.2542 174.123 60.3381 173.687 60.3356H173.706Z" fill="#407BFF"/>
<path opacity="0.7" d="M182.087 57.0173C182.087 56.7655 182.087 56.5202 182.055 56.2749L183.512 55.4679C183.402 54.7752 183.221 54.0958 182.97 53.4408L181.307 53.4731C181.097 53.0211 180.846 52.5889 180.559 52.1819L181.416 50.7552C180.977 50.2121 180.482 49.7166 179.94 49.2768L178.515 50.129C178.107 49.8455 177.676 49.5972 177.226 49.3866V47.721C176.574 47.4694 175.898 47.2877 175.208 47.1787L174.402 48.6377C174.157 48.6377 173.912 48.6377 173.661 48.6377C173.409 48.6377 173.164 48.6377 172.919 48.6377L172.133 47.1787C171.443 47.2893 170.767 47.471 170.115 47.721V49.3866C169.665 49.5969 169.233 49.8453 168.825 50.129L167.433 49.2768C166.889 49.7165 166.392 50.212 165.95 50.7552L166.808 52.1819C166.522 52.5891 166.274 53.0212 166.066 53.4731L164.403 53.4408C164.15 54.0949 163.968 54.7746 163.861 55.4679L165.318 56.2749C165.267 56.7685 165.267 57.2661 165.318 57.7597L163.861 58.5732C163.969 59.2643 164.15 59.9417 164.403 60.5938L166.066 60.5615C166.273 61.0141 166.521 61.4464 166.808 61.8527L165.95 63.2794C166.392 63.8226 166.889 64.3181 167.433 64.7578L168.858 63.9056C169.264 64.1918 169.696 64.4403 170.147 64.648V66.3136C170.798 66.5666 171.475 66.7484 172.165 66.8559L172.977 65.3969C173.47 65.4486 173.967 65.4486 174.46 65.3969L175.266 66.8559C175.956 66.75 176.633 66.5682 177.284 66.3136V64.648C177.735 64.4399 178.167 64.1915 178.573 63.9056L179.998 64.7578C180.54 64.318 181.035 63.8225 181.474 63.2794L180.617 61.8527C180.906 61.4465 181.156 61.0143 181.365 60.5615L183.028 60.5938C183.278 59.9408 183.459 59.2636 183.57 58.5732L182.113 57.7597C182.074 57.508 182.087 57.2691 182.087 57.0173ZM173.706 60.3356C173.05 60.3356 172.41 60.141 171.865 59.7764C171.32 59.4117 170.895 58.8935 170.644 58.2872C170.394 57.6808 170.328 57.0136 170.456 56.3699C170.584 55.7263 170.899 55.135 171.363 54.6709C171.826 54.2069 172.417 53.8908 173.059 53.7628C173.702 53.6348 174.368 53.7005 174.974 53.9516C175.579 54.2028 176.097 54.6281 176.461 55.1738C176.825 55.7195 177.02 56.361 177.02 57.0173C177.02 57.4547 176.933 57.8878 176.765 58.2917C176.598 58.6955 176.352 59.0622 176.042 59.3706C175.732 59.6789 175.365 59.923 174.961 60.0886C174.556 60.2542 174.123 60.3381 173.687 60.3356H173.706Z" fill="white"/>
<path d="M158.408 19.5869V22.9697L155.184 24.6676C155.059 24.7349 154.954 24.835 154.881 24.9572C154.808 25.0794 154.77 25.2192 154.77 25.3616C154.77 25.504 154.808 25.6437 154.881 25.7659C154.954 25.8881 155.059 25.9882 155.184 26.0556L158.408 27.7534V31.1363C158.408 31.4975 158.551 31.844 158.806 32.0995C159.061 32.3549 159.407 32.4984 159.768 32.4984H171.302C171.663 32.4984 172.01 32.3551 172.266 32.0999C172.522 31.8446 172.667 31.4981 172.668 31.1363V19.5869C172.668 19.2239 172.524 18.8758 172.268 18.6191C172.012 18.3625 171.664 18.2183 171.302 18.2183H159.749C159.39 18.2234 159.048 18.37 158.797 18.6263C158.546 18.8826 158.406 19.2278 158.408 19.5869Z" fill="#407BFF"/>
<g opacity="0.9">
<path d="M162.355 23.1117H168.911C169.125 23.1117 169.33 23.0267 169.481 22.8754C169.632 22.7241 169.717 22.5188 169.717 22.3048C169.717 22.0908 169.632 21.8855 169.481 21.7342C169.33 21.5828 169.125 21.4978 168.911 21.4978H162.355C162.141 21.4978 161.936 21.5828 161.785 21.7342C161.634 21.8855 161.549 22.0908 161.549 22.3048C161.549 22.5188 161.634 22.7241 161.785 22.8754C161.936 23.0267 162.141 23.1117 162.355 23.1117Z" fill="white"/>
<path d="M168.911 24.5837H162.355C162.141 24.5837 161.936 24.6688 161.785 24.8201C161.634 24.9714 161.549 25.1767 161.549 25.3907C161.549 25.6047 161.634 25.81 161.785 25.9613C161.936 26.1127 162.141 26.1977 162.355 26.1977H168.911C169.125 26.1977 169.33 26.1127 169.481 25.9613C169.632 25.81 169.717 25.6047 169.717 25.3907C169.717 25.1767 169.632 24.9714 169.481 24.8201C169.33 24.6688 169.125 24.5837 168.911 24.5837Z" fill="white"/>
<path d="M168.911 27.6113H162.355C162.141 27.6113 161.936 27.6964 161.785 27.8477C161.634 27.999 161.549 28.2043 161.549 28.4183C161.549 28.6323 161.634 28.8376 161.785 28.9889C161.936 29.1403 162.141 29.2253 162.355 29.2253H168.911C169.125 29.2253 169.33 29.1403 169.481 28.9889C169.632 28.8376 169.717 28.6323 169.717 28.4183C169.717 28.2043 169.632 27.999 169.481 27.8477C169.33 27.6964 169.125 27.6113 168.911 27.6113Z" fill="white"/>
</g>
<path d="M93.2298 14.2544H95.9827L97.401 16.9464C97.4945 17.1219 97.6338 17.2687 97.8042 17.3711C97.9745 17.4734 98.1694 17.5275 98.368 17.5275C98.5667 17.5275 98.7616 17.4734 98.9319 17.3711C99.1022 17.2687 99.2416 17.1219 99.3351 16.9464L100.753 14.2544H103.506C103.768 14.2544 104.026 14.2027 104.268 14.1024C104.509 14.0021 104.728 13.855 104.913 13.6697C105.097 13.4844 105.243 13.2644 105.343 13.0224C105.442 12.7804 105.493 12.5212 105.492 12.2595V1.98839C105.492 1.46104 105.283 0.955289 104.91 0.582396C104.538 0.209502 104.033 1.0549e-05 103.506 1.0549e-05H93.2298C92.9688 -0.000842172 92.7102 0.05001 92.4689 0.149633C92.2276 0.249257 92.0084 0.395687 91.8238 0.580495C91.6393 0.765303 91.493 0.984835 91.3936 1.22646C91.2941 1.46809 91.2433 1.72703 91.2442 1.98839V12.3176C91.2576 12.836 91.4727 13.3286 91.8437 13.6904C92.2146 14.0522 92.712 14.2545 93.2298 14.2544Z" fill="#407BFF"/>
<path opacity="0.9" d="M98.3815 3.07935L95.2031 4.93861V10.3744H97.5627V6.72686H99.1938V10.3744H101.56V4.93861L98.3815 3.07935Z" fill="white"/>
<path d="M124.111 161.956H121.661L120.082 158.948C120.003 158.802 119.887 158.68 119.745 158.595C119.603 158.511 119.441 158.466 119.276 158.466C119.111 158.466 118.948 158.511 118.807 158.595C118.665 158.68 118.548 158.802 118.47 158.948L116.89 161.956H114.376C113.776 161.956 113.2 162.195 112.776 162.62C112.352 163.045 112.113 163.621 112.113 164.222V173.97C112.113 174.571 112.352 175.148 112.776 175.572C113.2 175.997 113.776 176.236 114.376 176.236H124.111C124.711 176.236 125.287 175.997 125.711 175.572C126.136 175.148 126.374 174.571 126.374 173.97V164.222C126.374 163.621 126.136 163.045 125.711 162.62C125.287 162.195 124.711 161.956 124.111 161.956Z" fill="#407BFF"/>
<path opacity="0.9" d="M120.623 165.681C120.15 165.207 119.553 164.878 118.9 164.733C118.247 164.587 117.566 164.63 116.937 164.858C116.308 165.085 115.757 165.487 115.348 166.017C114.939 166.547 114.689 167.183 114.628 167.85C114.567 168.516 114.696 169.187 115.002 169.783C115.307 170.378 115.776 170.875 116.353 171.213C116.93 171.552 117.591 171.719 118.259 171.695C118.928 171.671 119.575 171.457 120.127 171.078C120.153 171.238 120.228 171.387 120.339 171.504L122.531 173.693C122.679 173.841 122.88 173.924 123.089 173.924C123.298 173.924 123.499 173.841 123.647 173.693C123.795 173.545 123.878 173.344 123.878 173.134C123.878 172.925 123.795 172.724 123.647 172.576L121.461 170.387C121.344 170.271 121.193 170.194 121.029 170.168C121.493 169.489 121.706 168.67 121.632 167.851C121.557 167.033 121.201 166.265 120.623 165.681ZM119.875 169.922C119.53 170.268 119.09 170.503 118.611 170.598C118.132 170.693 117.636 170.644 117.185 170.457C116.734 170.27 116.348 169.953 116.077 169.546C115.806 169.14 115.661 168.662 115.661 168.173C115.661 167.684 115.806 167.206 116.077 166.8C116.348 166.393 116.734 166.076 117.185 165.889C117.636 165.702 118.132 165.653 118.611 165.748C119.09 165.843 119.53 166.078 119.875 166.423C120.105 166.653 120.287 166.926 120.411 167.226C120.536 167.526 120.6 167.848 120.6 168.173C120.6 168.498 120.536 168.82 120.411 169.12C120.287 169.42 120.105 169.693 119.875 169.922Z" fill="white"/>
<path d="M228.221 97.037C228.221 97.037 222.967 110.078 217.822 111.485C212.677 112.892 204.928 111.75 204.928 111.75L202.53 112.395L200.177 112.047H200.093L197.443 111.982C197.347 111.99 197.252 111.971 197.167 111.926C197.082 111.881 197.012 111.813 196.964 111.729C196.917 111.646 196.894 111.551 196.899 111.455C196.904 111.359 196.936 111.266 196.992 111.188L197.939 109.897C198.019 109.791 198.129 109.712 198.255 109.671L200.783 108.858C200.882 108.835 200.986 108.835 201.086 108.858L204.954 109.471C204.954 109.471 215.688 107.708 216.784 106.714C217.88 105.72 221.11 95.2939 221.11 95.2939L228.221 97.037Z" fill="#EEC1BB"/>
<path opacity="0.1" d="M205.194 109.387L204.942 109.425L201.074 108.812C200.974 108.79 200.871 108.79 200.771 108.812L198.244 109.626C198.118 109.667 198.007 109.745 197.928 109.851L196.98 111.143C196.924 111.221 196.892 111.313 196.887 111.409C196.882 111.505 196.905 111.6 196.953 111.684C197 111.767 197.07 111.836 197.155 111.88C197.24 111.925 197.336 111.945 197.431 111.937L200.081 112.001H200.165L201.744 112.234C203.092 111.554 204.27 110.581 205.194 109.387Z" fill="black"/>
<path d="M231.394 84.119C227.577 82.8666 222.207 85.7394 220.15 97.773L228.074 100.116C228.074 100.116 236.848 85.9137 231.394 84.119Z" fill="#407BFF"/>
<path d="M209.189 68.3927C209.189 68.793 209.402 69.1093 209.66 69.1093C209.918 69.1093 210.144 68.7671 210.124 68.3798C210.105 67.9925 209.912 67.6697 209.654 67.6761C209.396 67.6826 209.189 67.9989 209.189 68.3927Z" fill="#263238"/>
<path d="M210.751 68.7864L208.875 71.8916C208.875 71.8916 209.52 72.6276 210.932 72.0853L210.751 68.7864Z" fill="#D4827D"/>
<path d="M211.105 65.9006C211.082 65.9266 211.053 65.9463 211.02 65.9576C210.987 65.9689 210.952 65.9715 210.918 65.9651C210.664 65.9215 210.404 65.9392 210.158 66.0167C209.913 66.0942 209.689 66.2292 209.506 66.4106C209.467 66.4473 209.415 66.4678 209.361 66.4678C209.307 66.4678 209.255 66.4473 209.216 66.4106C209.179 66.3701 209.158 66.3171 209.158 66.2621C209.158 66.2071 209.179 66.1541 209.216 66.1136C209.444 65.8803 209.725 65.706 210.035 65.6059C210.345 65.5058 210.674 65.4829 210.995 65.539C211.023 65.5422 211.049 65.5508 211.073 65.5642C211.096 65.5777 211.117 65.5958 211.134 65.6174C211.151 65.639 211.163 65.6638 211.17 65.6902C211.178 65.7167 211.179 65.7443 211.176 65.7714C211.166 65.8207 211.141 65.8658 211.105 65.9006Z" fill="#263238"/>
<path d="M224.36 65.578C224.65 70.8266 224.888 73.0473 222.574 76.0299C218.88 79.2255 212.587 79.7355 210.731 74.6807C209.061 70.1616 208.868 62.3307 213.716 59.6258C214.538 59.1669 215.443 58.8749 216.378 58.7664C217.313 58.6579 218.26 58.7351 219.166 58.9935C220.071 59.2519 220.916 59.6865 221.654 60.2725C222.391 60.8584 223.006 61.5841 223.463 62.4082C224 63.3825 224.306 64.4668 224.36 65.578Z" fill="#EEC1BB"/>
<path d="M217.055 77.0693L218.383 84.842L224.856 83.3443L222.593 75.4102L217.055 77.0693Z" fill="#EEC1BB"/>
<path d="M212.395 65.9652C212.724 62.5566 211.55 66.4946 209.977 61.9949C208.404 57.4953 215.838 53.8413 217.024 54.6805C218.21 55.5198 217.533 56.8045 221.466 57.534C222.539 57.7046 223.513 58.2608 224.206 59.0985C224.899 59.9362 225.263 60.998 225.231 62.0853C225.231 62.0853 227.494 63.1312 226.688 67.9988C226.097 71.1177 224.77 74.0502 222.82 76.5527C222.82 76.5527 221.33 75.0162 218.951 76.4301C218.023 75.8233 217.238 75.0214 216.65 74.0802C215.593 72.492 215.264 70.9814 213.813 70.8523C210.783 70.5747 212.285 67.0885 212.395 65.9652Z" fill="#263238"/>
<path d="M224.811 62.6727C224.811 62.6727 228.034 60.6973 226.603 58.625C225.172 56.5527 225.861 60.9103 224.811 62.6727Z" fill="#263238"/>
<path d="M213.316 67.9471C212.601 68.7475 212.233 69.7993 212.291 70.8716C212.381 72.2918 213.774 72.5436 214.87 71.7689C215.966 70.9942 217.004 69.4836 216.372 68.2376C216.232 67.9658 216.026 67.7335 215.773 67.5622C215.52 67.3908 215.228 67.2859 214.923 67.257C214.619 67.228 214.313 67.2761 214.032 67.3967C213.751 67.5173 213.505 67.7065 213.316 67.9471Z" fill="#FFC3BD"/>
<path opacity="0.1" d="M217.178 77.7987L217.706 80.8846C217.66 80.1204 217.765 79.3546 218.015 78.6312C218.265 77.9077 218.655 77.2409 219.163 76.6689C218.769 76.6943 218.385 76.8092 218.041 77.0049C217.697 77.2006 217.402 77.4721 217.178 77.7987Z" fill="black"/>
<path d="M171.669 97.8696H169.818V108.799H171.669V97.8696Z" fill="#407BFF"/>
<path opacity="0.7" d="M171.669 97.8696H169.818V108.799H171.669V97.8696Z" fill="white"/>
<path d="M158.955 76.1589H154.346C153.516 76.1589 152.721 76.4888 152.135 77.076C151.548 77.6632 151.219 78.4596 151.219 79.29V100.678C151.219 101.089 151.3 101.496 151.457 101.876C151.614 102.256 151.844 102.601 152.135 102.892C152.425 103.183 152.77 103.413 153.149 103.571C153.528 103.728 153.935 103.809 154.346 103.809H158.955V76.1589Z" fill="#407BFF"/>
<path d="M187.147 76.1653H155.957C154.23 76.1653 152.83 77.5671 152.83 79.2963V100.678C152.83 102.407 154.23 103.809 155.957 103.809H187.147C188.874 103.809 190.274 102.407 190.274 100.678V79.2963C190.274 77.5671 188.874 76.1653 187.147 76.1653Z" fill="#407BFF"/>
<path opacity="0.5" d="M187.147 76.1653H155.957C154.23 76.1653 152.83 77.5671 152.83 79.2963V100.678C152.83 102.407 154.23 103.809 155.957 103.809H187.147C188.874 103.809 190.274 102.407 190.274 100.678V79.2963C190.274 77.5671 188.874 76.1653 187.147 76.1653Z" fill="white"/>
<path d="M187.149 77.4565H155.958C154.944 77.4565 154.121 78.2803 154.121 79.2964V100.678C154.121 101.694 154.944 102.518 155.958 102.518H187.149C188.164 102.518 188.986 101.694 188.986 100.678V79.2964C188.986 78.2803 188.164 77.4565 187.149 77.4565Z" fill="#263238"/>
<path d="M164.01 113.376C164.064 111.624 164.797 109.962 166.054 108.742C167.311 107.521 168.993 106.839 170.744 106.839C172.494 106.839 174.176 107.521 175.433 108.742C176.69 109.962 177.423 111.624 177.477 113.376H164.01Z" fill="#407BFF"/>
<path d="M179.907 111.078H166.439V113.267H193.368V112.369L179.907 111.078Z" fill="#407BFF"/>
<path opacity="0.8" d="M179.907 111.078H166.439V113.267H193.368V112.369L179.907 111.078Z" fill="white"/>
<path d="M179.907 113.267H166.439V111.078L179.907 112.369V113.267Z" fill="#407BFF"/>
<path opacity="0.6" d="M179.907 113.267H166.439V111.078L179.907 112.369V113.267Z" fill="white"/>
<path d="M209.596 188.612H181.816C181.262 188.613 180.713 188.504 180.201 188.293C179.689 188.081 179.223 187.77 178.831 187.378C178.439 186.986 178.128 186.52 177.915 186.007C177.703 185.495 177.594 184.945 177.594 184.39V120.426C177.594 119.871 177.703 119.322 177.915 118.809C178.128 118.296 178.439 117.831 178.831 117.438C179.223 117.046 179.689 116.735 180.201 116.524C180.713 116.312 181.262 116.203 181.816 116.204H209.596C209.896 116.204 210.183 116.323 210.394 116.535C210.606 116.747 210.725 117.034 210.725 117.334C210.725 117.633 210.606 117.921 210.394 118.133C210.183 118.345 209.896 118.464 209.596 118.464H181.816C181.56 118.459 181.305 118.506 181.066 118.602C180.828 118.697 180.611 118.839 180.428 119.019C180.245 119.2 180.1 119.415 180 119.652C179.901 119.889 179.85 120.143 179.85 120.4V184.364C179.85 184.621 179.901 184.876 180 185.113C180.1 185.35 180.245 185.565 180.428 185.745C180.611 185.925 180.828 186.067 181.066 186.163C181.305 186.258 181.56 186.305 181.816 186.301H209.596C209.896 186.301 210.183 186.42 210.394 186.632C210.606 186.844 210.725 187.131 210.725 187.431C210.732 187.583 210.708 187.736 210.654 187.879C210.6 188.022 210.518 188.153 210.413 188.263C210.308 188.374 210.181 188.461 210.04 188.521C209.9 188.581 209.749 188.612 209.596 188.612Z" fill="#263238"/>
<g opacity="0.5">
<path d="M209.596 188.612H181.816C181.262 188.613 180.713 188.504 180.201 188.293C179.689 188.081 179.223 187.77 178.831 187.378C178.439 186.986 178.128 186.52 177.915 186.007C177.703 185.495 177.594 184.945 177.594 184.39V120.426C177.594 119.871 177.703 119.322 177.915 118.809C178.128 118.296 178.439 117.831 178.831 117.438C179.223 117.046 179.689 116.735 180.201 116.524C180.713 116.312 181.262 116.203 181.816 116.204H209.596C209.896 116.204 210.183 116.323 210.394 116.535C210.606 116.747 210.725 117.034 210.725 117.334C210.725 117.633 210.606 117.921 210.394 118.133C210.183 118.345 209.896 118.464 209.596 118.464H181.816C181.56 118.459 181.305 118.506 181.066 118.602C180.828 118.697 180.611 118.839 180.428 119.019C180.245 119.2 180.1 119.415 180 119.652C179.901 119.889 179.85 120.143 179.85 120.4V184.364C179.85 184.621 179.901 184.876 180 185.113C180.1 185.35 180.245 185.565 180.428 185.745C180.611 185.925 180.828 186.067 181.066 186.163C181.305 186.258 181.56 186.305 181.816 186.301H209.596C209.896 186.301 210.183 186.42 210.394 186.632C210.606 186.844 210.725 187.131 210.725 187.431C210.732 187.583 210.708 187.736 210.654 187.879C210.6 188.022 210.518 188.153 210.413 188.263C210.308 188.374 210.181 188.461 210.04 188.521C209.9 188.581 209.749 188.612 209.596 188.612Z" fill="white"/>
</g>
<path d="M181.707 113.267H142.258V116.578H181.707V113.267Z" fill="#407BFF"/>
<path opacity="0.2" d="M181.707 113.267H142.258V116.578H181.707V113.267Z" fill="white"/>
<path d="M213.549 113.267H179.902V116.578H213.549V113.267Z" fill="#407BFF"/>
<path opacity="0.5" d="M213.549 113.267H179.902V116.578H213.549V113.267Z" fill="white"/>
<path d="M201.749 165.145L203.613 184.009H199.151L194.684 165.636L201.749 165.145Z" fill="#EEC1BB"/>
<path d="M198.733 182.75L204.425 182.847C204.529 182.849 204.629 182.887 204.709 182.954C204.789 183.021 204.843 183.113 204.864 183.215L205.818 187.87C205.858 188.067 205.819 188.273 205.709 188.442C205.6 188.611 205.428 188.73 205.231 188.773H205.07C203.013 188.702 201.202 188.56 198.623 188.515C195.612 188.464 196.367 188.838 192.821 188.832C190.687 188.832 190.339 186.385 191.241 186.282C195.4 185.83 195.851 184.584 197.476 183.125C197.835 182.85 198.282 182.717 198.733 182.75Z" fill="#263238"/>
<path opacity="0.1" d="M203.129 179.083L201.749 165.145L194.684 165.636L197.952 179.083H203.129Z" fill="black"/>
<path d="M232.295 121.653L213.999 122.298C213.999 122.298 189.352 130.93 188.707 137.56C187.998 144.39 196.276 175.772 196.276 175.772H203.632C203.632 175.772 201.601 152.744 200.827 145.694C200.054 138.644 226.48 140.975 231.07 134.965C235.267 129.451 232.295 121.653 232.295 121.653Z" fill="#263238"/>
<path opacity="0.2" d="M232.295 121.653L213.999 122.298C213.999 122.298 189.352 130.93 188.707 137.56C187.998 144.39 196.276 175.772 196.276 175.772H203.632C203.632 175.772 201.601 152.744 200.827 145.694C200.054 138.644 226.48 140.975 231.07 134.965C235.267 129.451 232.295 121.653 232.295 121.653Z" fill="black"/>
<path d="M204.858 174.739L205.025 177.34H195.929L195.039 174.739H204.858Z" fill="#407BFF"/>
<path d="M184.731 166.043L185.214 184.009H180.831L178.232 166.043H184.731Z" fill="#EEC1BB"/>
<path d="M180.225 182.75L185.918 182.847C186.021 182.85 186.121 182.887 186.201 182.954C186.281 183.021 186.335 183.113 186.356 183.215L187.31 187.87C187.35 188.067 187.311 188.273 187.202 188.442C187.092 188.611 186.92 188.73 186.723 188.774H186.562C184.506 188.703 182.694 188.561 180.115 188.515C177.098 188.464 177.859 188.838 174.313 188.832C172.179 188.832 171.831 186.385 172.733 186.282C176.892 185.83 177.343 184.584 178.968 183.125C179.326 182.849 179.774 182.715 180.225 182.75Z" fill="#263238"/>
<path opacity="0.1" d="M185.079 179.07L184.725 166.043H178.232L180.121 179.083C181.533 179.09 183.474 179.077 185.079 179.07Z" fill="black"/>
<path d="M224.339 123.17C224.339 123.17 225.861 137.102 211.71 137.754C197.559 138.406 186.509 140.026 186.186 145.068C185.864 150.11 186.186 175.797 186.186 175.797H178.495C178.495 175.797 175.504 159.555 174.337 149.484C173.202 139.703 171.113 132.608 181.151 129.296C191.808 125.772 210.749 122.518 210.749 122.518L224.391 121.653L224.339 123.17Z" fill="#263238"/>
<path d="M187.323 174.739L186.839 177.34H178.394L177.504 174.739H187.323Z" fill="#407BFF"/>
<path d="M227.389 83.2022C227.389 83.2022 227.389 80.0647 221.052 80.4262C214.321 80.8136 215.591 83.822 215.591 83.822L227.389 83.2022Z" fill="#407BFF"/>
<path opacity="0.3" d="M227.389 83.2022C227.389 83.2022 227.389 80.0647 221.052 80.4262C214.321 80.8136 215.591 83.822 215.591 83.822L227.389 83.2022Z" fill="black"/>
<path d="M233.295 97.2758C232.869 103.48 233.018 122.143 233.018 122.143C233.018 122.143 219.479 123.034 208.854 122.686L207.623 86.7851C207.628 86.1504 207.823 85.5318 208.185 85.0101C208.546 84.4884 209.055 84.0878 209.647 83.8607C212.652 82.6922 219.705 81.3687 230.735 82.8213C234.539 83.3313 233.798 89.942 233.295 97.2758Z" fill="#407BFF"/>
<path d="M209.797 97.037C209.797 97.037 204.536 110.078 199.398 111.485C194.26 112.892 186.504 111.75 186.504 111.75L184.106 112.395L181.759 112.047H181.675L179.019 111.982C178.924 111.99 178.828 111.971 178.743 111.926C178.658 111.881 178.588 111.813 178.54 111.729C178.493 111.646 178.47 111.551 178.475 111.455C178.48 111.359 178.512 111.266 178.568 111.188L179.522 109.897C179.602 109.791 179.712 109.712 179.838 109.671L182.359 108.858C182.461 108.835 182.566 108.835 182.668 108.858L186.536 109.471C186.536 109.471 197.271 107.708 198.36 106.714C199.45 105.72 202.692 95.2939 202.692 95.2939L209.797 97.037Z" fill="#EEC1BB"/>
<path opacity="0.1" d="M209.661 90.9686C209.661 90.9686 208.842 91.9434 207.85 93.3508L208.204 103.745C212.156 101.995 213.723 91.8078 213.723 91.8078L211.144 89.9873L209.661 90.9686Z" fill="black"/>
<path d="M212.969 84.119C209.152 82.8666 203.775 85.7394 201.719 97.773L209.649 100.091C209.649 100.091 218.423 85.9137 212.969 84.119Z" fill="#407BFF"/>
<path d="M218.016 144.513H212.053V162.014H218.016V144.513Z" fill="#263238"/>
<path opacity="0.6" d="M218.016 144.513H212.053V162.014H218.016V144.513Z" fill="white"/>
<path d="M218.939 177.87V155.636H211.125V177.87L193.338 180.342V182.815L215.032 180.962L236.726 182.815V180.342L218.939 177.87Z" fill="#263238"/>
<path d="M193.08 188.877C194.379 188.877 195.433 187.822 195.433 186.52C195.433 185.219 194.379 184.164 193.08 184.164C191.78 184.164 190.727 185.219 190.727 186.52C190.727 187.822 191.78 188.877 193.08 188.877Z" fill="#407BFF"/>
<path d="M236.724 188.877C238.024 188.877 239.077 187.822 239.077 186.52C239.077 185.219 238.024 184.164 236.724 184.164C235.425 184.164 234.371 185.219 234.371 186.52C234.371 187.822 235.425 188.877 236.724 188.877Z" fill="#407BFF"/>
<path d="M215.031 188.877C216.33 188.877 217.384 187.822 217.384 186.52C217.384 185.219 216.33 184.164 215.031 184.164C213.731 184.164 212.678 185.219 212.678 186.52C212.678 187.822 213.731 188.877 215.031 188.877Z" fill="#407BFF"/>
<path opacity="0.3" d="M218.016 144.513H212.053V148.838H218.016V144.513Z" fill="black"/>
<path d="M238.608 104.842H219.177C217.65 104.843 216.178 105.415 215.049 106.445C213.92 107.476 213.215 108.89 213.072 110.413L211.435 127.992C211.253 129.93 210.381 131.737 208.978 133.084C207.575 134.43 205.736 135.226 203.795 135.326L185.041 136.269C183.943 136.325 182.909 136.801 182.152 137.599C181.395 138.397 180.973 139.455 180.973 140.555V140.949C180.973 141.893 181.347 142.797 182.013 143.464C182.679 144.132 183.583 144.506 184.525 144.506H241.639L244.714 111.582C244.796 110.729 244.7 109.868 244.431 109.055C244.162 108.241 243.726 107.493 243.151 106.859C242.576 106.224 241.875 105.717 241.093 105.37C240.31 105.022 239.464 104.843 238.608 104.842Z" fill="#407BFF"/>
<path opacity="0.3" d="M238.608 104.842H219.177C217.65 104.843 216.178 105.415 215.049 106.445C213.92 107.476 213.215 108.89 213.072 110.413L211.435 127.992C211.253 129.93 210.381 131.737 208.978 133.084C207.575 134.43 205.736 135.226 203.795 135.326L185.041 136.269C183.943 136.325 182.909 136.801 182.152 137.599C181.395 138.397 180.973 139.455 180.973 140.555V140.949C180.973 141.893 181.347 142.797 182.013 143.464C182.679 144.132 183.583 144.506 184.525 144.506H241.639L244.714 111.582C244.796 110.729 244.7 109.868 244.431 109.055C244.162 108.241 243.726 107.493 243.151 106.859C242.576 106.224 241.875 105.717 241.093 105.37C240.31 105.022 239.464 104.843 238.608 104.842Z" fill="white"/>
<path d="M194.008 124.681H196.683V138.696C196.683 139.039 196.547 139.367 196.306 139.609C196.064 139.851 195.736 139.987 195.394 139.987H195.297C194.955 139.987 194.627 139.851 194.385 139.609C194.144 139.367 194.008 139.039 194.008 138.696V124.681Z" fill="#263238"/>
<path opacity="0.2" d="M194.008 124.681H196.683V138.696C196.683 139.039 196.547 139.367 196.306 139.609C196.064 139.851 195.736 139.987 195.394 139.987H195.297C194.955 139.987 194.627 139.851 194.385 139.609C194.144 139.367 194.008 139.039 194.008 138.696V124.681Z" fill="white"/>
<path d="M206.908 120.626H200.957V125.565H206.92C207.255 125.582 207.589 125.531 207.903 125.415C208.217 125.298 208.505 125.119 208.747 124.888C208.99 124.657 209.183 124.379 209.316 124.071C209.448 123.763 209.516 123.431 209.516 123.096C209.516 122.76 209.448 122.428 209.316 122.12C209.183 121.812 208.99 121.534 208.747 121.303C208.505 121.072 208.217 120.893 207.903 120.777C207.589 120.66 207.255 120.609 206.92 120.626H206.908Z" fill="#407BFF"/>
<path opacity="0.5" d="M206.908 120.626H200.957V125.565H206.92C207.255 125.582 207.589 125.531 207.903 125.415C208.217 125.298 208.505 125.119 208.747 124.888C208.99 124.657 209.183 124.379 209.316 124.071C209.448 123.763 209.516 123.431 209.516 123.096C209.516 122.76 209.448 122.428 209.316 122.12C209.183 121.812 208.99 121.534 208.747 121.303C208.505 121.072 208.217 120.893 207.903 120.777C207.589 120.66 207.255 120.609 206.92 120.626H206.908Z" fill="white"/>
<path d="M204.529 120.626H183.686C182.372 120.626 181.307 121.693 181.307 123.008V123.189C181.307 124.505 182.372 125.571 183.686 125.571H204.529C205.842 125.571 206.907 124.505 206.907 123.189V123.008C206.907 121.693 205.842 120.626 204.529 120.626Z" fill="#407BFF"/>
<path opacity="0.3" d="M204.529 120.626H183.686C182.372 120.626 181.307 121.693 181.307 123.008V123.189C181.307 124.505 182.372 125.571 183.686 125.571H204.529C205.842 125.571 206.907 124.505 206.907 123.189V123.008C206.907 121.693 205.842 120.626 204.529 120.626Z" fill="white"/>
<path d="M242.979 144.513H214.412L217.597 110.446C217.74 108.923 218.444 107.508 219.574 106.478C220.703 105.447 222.175 104.876 223.702 104.874H243.133C243.987 104.875 244.83 105.054 245.611 105.4C246.391 105.746 247.091 106.25 247.665 106.882C248.24 107.514 248.677 108.259 248.947 109.069C249.218 109.879 249.317 110.737 249.239 111.588L246.46 141.375C246.369 142.236 245.963 143.034 245.32 143.613C244.678 144.192 243.843 144.513 242.979 144.513Z" fill="#407BFF"/>
<path opacity="0.5" d="M242.979 144.513H214.412L217.597 110.446C217.74 108.923 218.444 107.508 219.574 106.478C220.703 105.447 222.175 104.876 223.702 104.874H243.133C243.987 104.875 244.83 105.054 245.611 105.4C246.391 105.746 247.091 106.25 247.665 106.882C248.24 107.514 248.677 108.259 248.947 109.069C249.218 109.879 249.317 110.737 249.239 111.588L246.46 141.375C246.369 142.236 245.963 143.034 245.32 143.613C244.678 144.192 243.843 144.513 242.979 144.513Z" fill="white"/>
<path d="M176.247 188.612H148.467C147.913 188.613 147.364 188.504 146.851 188.293C146.339 188.081 145.874 187.77 145.481 187.378C145.089 186.986 144.778 186.52 144.566 186.007C144.353 185.495 144.244 184.945 144.244 184.39V120.426C144.244 119.871 144.353 119.322 144.566 118.809C144.778 118.296 145.089 117.831 145.481 117.438C145.874 117.046 146.339 116.735 146.851 116.524C147.364 116.312 147.913 116.203 148.467 116.204H176.247C176.546 116.204 176.833 116.323 177.045 116.535C177.256 116.747 177.375 117.034 177.375 117.334C177.375 117.633 177.256 117.921 177.045 118.133C176.833 118.345 176.546 118.464 176.247 118.464H148.467C148.21 118.459 147.955 118.506 147.717 118.602C147.478 118.697 147.261 118.839 147.078 119.019C146.895 119.2 146.75 119.415 146.651 119.652C146.552 119.889 146.501 120.143 146.501 120.4V184.364C146.501 184.621 146.552 184.876 146.651 185.113C146.75 185.35 146.895 185.565 147.078 185.745C147.261 185.925 147.478 186.067 147.717 186.163C147.955 186.258 148.21 186.305 148.467 186.301H176.247C176.546 186.301 176.833 186.42 177.045 186.632C177.256 186.844 177.375 187.131 177.375 187.431C177.382 187.583 177.358 187.736 177.304 187.879C177.251 188.022 177.169 188.153 177.063 188.263C176.958 188.374 176.831 188.461 176.691 188.521C176.55 188.581 176.399 188.612 176.247 188.612Z" fill="#263238"/>
<g opacity="0.5">
<path d="M176.247 188.612H148.467C147.913 188.613 147.364 188.504 146.851 188.293C146.339 188.081 145.874 187.77 145.481 187.378C145.089 186.986 144.778 186.52 144.566 186.007C144.353 185.495 144.244 184.945 144.244 184.39V120.426C144.244 119.871 144.353 119.322 144.566 118.809C144.778 118.296 145.089 117.831 145.481 117.438C145.874 117.046 146.339 116.735 146.851 116.524C147.364 116.312 147.913 116.203 148.467 116.204H176.247C176.546 116.204 176.833 116.323 177.045 116.535C177.256 116.747 177.375 117.034 177.375 117.334C177.375 117.633 177.256 117.921 177.045 118.133C176.833 118.345 176.546 118.464 176.247 118.464H148.467C148.21 118.459 147.955 118.506 147.717 118.602C147.478 118.697 147.261 118.839 147.078 119.019C146.895 119.2 146.75 119.415 146.651 119.652C146.552 119.889 146.501 120.143 146.501 120.4V184.364C146.501 184.621 146.552 184.876 146.651 185.113C146.75 185.35 146.895 185.565 147.078 185.745C147.261 185.925 147.478 186.067 147.717 186.163C147.955 186.258 148.21 186.305 148.467 186.301H176.247C176.546 186.301 176.833 186.42 177.045 186.632C177.256 186.844 177.375 187.131 177.375 187.431C177.382 187.583 177.358 187.736 177.304 187.879C177.251 188.022 177.169 188.153 177.063 188.263C176.958 188.374 176.831 188.461 176.691 188.521C176.55 188.581 176.399 188.612 176.247 188.612Z" fill="white"/>
</g>
<path d="M157.886 82.5501L155.952 81.259C155.902 81.2274 155.862 81.184 155.834 81.1327C155.806 81.0813 155.791 81.0238 155.791 80.9652C155.791 80.9067 155.806 80.8491 155.834 80.7978C155.862 80.7465 155.902 80.703 155.952 80.6715L157.886 79.3803C157.957 79.3336 158.043 79.3169 158.127 79.3338C158.21 79.3508 158.283 79.4 158.331 79.4707C158.375 79.5414 158.391 79.6266 158.374 79.7085C158.357 79.7903 158.309 79.8625 158.24 79.9097L156.635 80.9749L158.24 82.0401C158.309 82.0873 158.357 82.1595 158.374 82.2414C158.391 82.3233 158.375 82.4085 158.331 82.4791C158.279 82.5454 158.205 82.5897 158.122 82.6029C158.04 82.6161 157.955 82.5972 157.886 82.5501Z" fill="white"/>
<path d="M162.166 82.4598C162.127 82.3891 162.117 82.3062 162.137 82.2282C162.158 82.1503 162.207 82.083 162.275 82.0402L163.88 80.975L162.275 79.8904C162.206 79.8433 162.158 79.7706 162.143 79.6883C162.127 79.606 162.144 79.5208 162.191 79.4514C162.214 79.4166 162.244 79.3866 162.278 79.3633C162.312 79.3399 162.351 79.3235 162.392 79.3151C162.433 79.3067 162.475 79.3064 162.515 79.3143C162.556 79.3222 162.595 79.3381 162.63 79.3611L164.564 80.6522C164.613 80.6837 164.654 80.7272 164.682 80.7785C164.71 80.8298 164.724 80.8874 164.724 80.9459C164.724 81.0045 164.71 81.0621 164.682 81.1134C164.654 81.1647 164.613 81.2082 164.564 81.2397L162.63 82.5308C162.595 82.558 162.555 82.5778 162.513 82.5889C162.47 82.6001 162.426 82.6024 162.382 82.5958C162.339 82.5891 162.297 82.5736 162.26 82.5503C162.223 82.5269 162.191 82.4961 162.166 82.4598Z" fill="white"/>
<path d="M159.517 83.3312C159.477 83.3187 159.44 83.2984 159.408 83.2715C159.376 83.2446 159.349 83.2115 159.33 83.1743C159.311 83.137 159.299 83.0963 159.296 83.0546C159.293 83.0128 159.298 82.9708 159.311 82.9309L160.645 78.7089C160.657 78.6691 160.676 78.6321 160.703 78.6C160.729 78.568 160.761 78.5415 160.798 78.5223C160.835 78.503 160.875 78.4913 160.916 78.4879C160.957 78.4844 160.999 78.4893 161.038 78.5023C161.078 78.514 161.115 78.5336 161.147 78.56C161.179 78.5863 161.205 78.6188 161.225 78.6555C161.244 78.6922 161.256 78.7324 161.259 78.7738C161.262 78.8151 161.258 78.8567 161.245 78.8961L159.917 83.1246C159.904 83.1646 159.884 83.2018 159.857 83.2339C159.83 83.266 159.797 83.2924 159.76 83.3116C159.723 83.3308 159.682 83.3424 159.64 83.3458C159.599 83.3492 159.557 83.3442 159.517 83.3312Z" fill="white"/>
<path d="M170.464 86.5591H156.106C156.062 86.5591 156.019 86.5504 155.979 86.5334C155.939 86.5165 155.902 86.4916 155.871 86.4604C155.841 86.4291 155.817 86.3921 155.801 86.3514C155.784 86.3107 155.777 86.2672 155.777 86.2234C155.777 86.1796 155.784 86.1361 155.801 86.0954C155.817 86.0547 155.841 86.0177 155.871 85.9864C155.902 85.9551 155.939 85.9303 155.979 85.9134C156.019 85.8964 156.062 85.8877 156.106 85.8877H170.464C170.552 85.8877 170.638 85.9231 170.701 85.986C170.763 86.049 170.799 86.1344 170.799 86.2234C170.799 86.2675 170.79 86.3111 170.773 86.3519C170.756 86.3926 170.732 86.4296 170.701 86.4608C170.669 86.4919 170.633 86.5167 170.592 86.5335C170.551 86.5504 170.508 86.5591 170.464 86.5591Z" fill="white"/>
<path d="M186.955 86.5592H172.591C172.547 86.5592 172.503 86.5505 172.463 86.5336C172.422 86.5167 172.385 86.492 172.354 86.4608C172.323 86.4297 172.298 86.3927 172.281 86.3519C172.265 86.3112 172.256 86.2675 172.256 86.2235C172.262 86.139 172.301 86.0601 172.363 86.0026C172.425 85.9451 172.506 85.9133 172.591 85.9136H186.942C187.031 85.9136 187.116 85.9489 187.179 86.0119C187.242 86.0749 187.277 86.1602 187.277 86.2493C187.271 86.3316 187.235 86.4087 187.175 86.4658C187.116 86.523 187.037 86.5562 186.955 86.5592Z" fill="white"/>
<path d="M164.313 89.516H156.106C156.062 89.516 156.019 89.5073 155.979 89.4903C155.939 89.4734 155.902 89.4486 155.871 89.4173C155.841 89.3861 155.817 89.349 155.801 89.3083C155.784 89.2676 155.777 89.2241 155.777 89.1803C155.777 89.093 155.812 89.0092 155.874 88.9475C155.935 88.8858 156.019 88.8511 156.106 88.8511H164.313C164.401 88.8511 164.485 88.8855 164.548 88.9471C164.611 89.0087 164.647 89.0924 164.648 89.1803C164.648 89.2693 164.613 89.3547 164.55 89.4177C164.487 89.4806 164.402 89.516 164.313 89.516Z" fill="white"/>
<path d="M179.888 89.516H166.446C166.402 89.516 166.359 89.5073 166.319 89.4903C166.278 89.4734 166.242 89.4486 166.211 89.4173C166.181 89.3861 166.157 89.349 166.14 89.3083C166.124 89.2676 166.116 89.2241 166.117 89.1803C166.117 89.093 166.152 89.0092 166.214 88.9475C166.275 88.8858 166.359 88.8511 166.446 88.8511H179.888C179.975 88.8511 180.059 88.8858 180.12 88.9475C180.182 89.0092 180.217 89.093 180.217 89.1803C180.218 89.2241 180.21 89.2676 180.194 89.3083C180.177 89.349 180.153 89.3861 180.123 89.4173C180.092 89.4486 180.056 89.4734 180.015 89.4903C179.975 89.5073 179.932 89.516 179.888 89.516Z" fill="white"/>
<path d="M177.974 92.479H156.106C156.018 92.4773 155.935 92.4412 155.873 92.3784C155.812 92.3157 155.777 92.2312 155.777 92.1433C155.777 92.0995 155.784 92.056 155.801 92.0153C155.817 91.9746 155.841 91.9376 155.871 91.9063C155.902 91.8751 155.939 91.8502 155.979 91.8333C156.019 91.8163 156.062 91.8076 156.106 91.8076H177.974C178.063 91.8076 178.148 91.843 178.211 91.9059C178.274 91.9689 178.309 92.0543 178.309 92.1433C178.309 92.2323 178.274 92.3177 178.211 92.3807C178.148 92.4436 178.063 92.479 177.974 92.479Z" fill="white"/>
<path d="M184.679 92.479H180.115C180.026 92.479 179.94 92.4436 179.877 92.3807C179.815 92.3177 179.779 92.2323 179.779 92.1433C179.779 92.0543 179.815 91.9689 179.877 91.9059C179.94 91.843 180.026 91.8076 180.115 91.8076H184.679C184.768 91.8076 184.853 91.843 184.916 91.9059C184.979 91.9689 185.014 92.0543 185.014 92.1433C185.014 92.2323 184.979 92.3177 184.916 92.3807C184.853 92.4436 184.768 92.479 184.679 92.479Z" fill="white"/>
<path d="M166.318 95.4358H156.106C156.062 95.4358 156.019 95.4271 155.979 95.4101C155.939 95.3932 155.902 95.3684 155.871 95.3371C155.841 95.3058 155.817 95.2688 155.801 95.2281C155.784 95.1874 155.777 95.1439 155.777 95.1001C155.777 95.0563 155.784 95.0128 155.801 94.9721C155.817 94.9314 155.841 94.8944 155.871 94.8631C155.902 94.8318 155.939 94.807 155.979 94.7901C156.019 94.7731 156.062 94.7644 156.106 94.7644H166.318C166.407 94.7644 166.492 94.7998 166.555 94.8627C166.618 94.9257 166.653 95.0111 166.653 95.1001C166.653 95.1892 166.618 95.2745 166.555 95.3375C166.492 95.4004 166.407 95.4358 166.318 95.4358Z" fill="white"/>
<path d="M181.165 95.4358H168.458C168.369 95.4358 168.284 95.4004 168.221 95.3375C168.158 95.2745 168.123 95.1892 168.123 95.1001C168.123 95.0111 168.158 94.9257 168.221 94.8627C168.284 94.7998 168.369 94.7644 168.458 94.7644H181.165C181.254 94.7644 181.339 94.7998 181.402 94.8627C181.465 94.9257 181.5 95.0111 181.5 95.1001C181.5 95.1892 181.465 95.2745 181.402 95.3375C181.339 95.4004 181.254 95.4358 181.165 95.4358Z" fill="white"/>
<path d="M170.464 98.3925H156.106C156.062 98.3926 156.019 98.3838 155.979 98.3669C155.939 98.3499 155.902 98.3251 155.871 98.2938C155.841 98.2626 155.817 98.2255 155.801 98.1848C155.784 98.1441 155.777 98.1006 155.777 98.0569C155.777 97.9695 155.812 97.8858 155.874 97.824C155.935 97.7623 156.019 97.7276 156.106 97.7276H170.464C170.507 97.7267 170.551 97.7346 170.591 97.7508C170.632 97.767 170.669 97.7911 170.7 97.8217C170.731 97.8524 170.756 97.889 170.773 97.9293C170.79 97.9697 170.799 98.0131 170.799 98.0569C170.799 98.1459 170.763 98.2313 170.701 98.2942C170.638 98.3572 170.552 98.3925 170.464 98.3925Z" fill="white"/>
<path d="M182.732 98.3925H172.591C172.502 98.3925 172.417 98.3572 172.354 98.2942C172.291 98.2313 172.256 98.1459 172.256 98.0569C172.256 98.0131 172.265 97.9697 172.281 97.9293C172.298 97.889 172.323 97.8524 172.354 97.8217C172.386 97.7911 172.423 97.767 172.463 97.7508C172.504 97.7346 172.547 97.7267 172.591 97.7276H182.719C182.806 97.7276 182.89 97.7623 182.952 97.824C183.013 97.8858 183.048 97.9695 183.048 98.0569C183.05 98.1431 183.018 98.2266 182.959 98.2894C182.9 98.3521 182.818 98.3892 182.732 98.3925Z" fill="white"/>
<path d="M58.137 40.6069C58.4013 43.6476 57.7437 49.1544 55.4551 50.9362C59.1879 52.2854 63.1463 54.6095 65.6735 57.676C68.1814 54.022 65.3318 51.9368 65.3318 51.9368C62.1083 50.7877 62.45 48.3409 63.2817 46.0879L58.137 40.6069Z" fill="#B97964"/>
<path d="M70.3412 37.9858C70.3025 38.3667 70.483 38.6959 70.7344 38.7218C70.9859 38.7476 71.2115 38.4506 71.2502 38.0762C71.2889 37.7017 71.1084 37.366 70.8569 37.3402C70.6055 37.3144 70.3863 37.6049 70.3412 37.9858Z" fill="#263238"/>
<path d="M70.7617 37.3468L71.6965 37.166C71.6965 37.166 71.1614 37.8568 70.7617 37.3468Z" fill="#263238"/>
<path d="M70.4702 38.3926C70.7334 39.3006 71.1172 40.1691 71.6113 40.9749C71.4023 41.0959 71.1696 41.1702 70.9292 41.1925C70.6888 41.2148 70.4464 41.1846 70.2188 41.104L70.4702 38.3926Z" fill="#A24E3F"/>
<path d="M71.4248 35.9782C71.4844 35.9687 71.5391 35.9391 71.5795 35.8942C71.6194 35.8513 71.6416 35.7947 71.6416 35.7361C71.6416 35.6774 71.6194 35.6209 71.5795 35.5779C71.3145 35.3355 70.9953 35.1604 70.6486 35.0671C70.302 34.9739 69.9381 34.9653 69.5874 35.0421C69.538 35.0762 69.5033 35.1277 69.4902 35.1863C69.477 35.245 69.4864 35.3064 69.5165 35.3584C69.5364 35.3916 69.5648 35.4187 69.5989 35.4369C69.633 35.4551 69.6714 35.4637 69.7099 35.4617C69.9887 35.4083 70.276 35.4208 70.5491 35.4981C70.8221 35.5755 71.0734 35.7155 71.283 35.9071C71.3205 35.9468 71.3707 35.9719 71.4248 35.9782Z" fill="#263238"/>
<path d="M57.8341 35.5585C57.6859 40.2776 57.5247 42.2854 59.6264 44.9193C62.7918 48.8767 68.5232 48.0116 70.0576 43.4151C71.4372 39.277 71.4501 32.2273 67.1113 29.9419C62.7725 27.6566 57.9695 30.8264 57.8341 35.5585Z" fill="#B97964"/>
<path d="M58.0407 44.4739C53.4054 43.6798 54.7334 40.7554 54.7334 40.7554C50.169 39.8322 53.6955 37.5985 53.6955 37.5985C49.8982 35.9587 53.6955 34.4868 53.6955 34.4868C50.0336 31.4461 55.2556 30.3938 55.2556 30.3938C53.9663 25.6488 58.4791 27.5985 58.4791 27.5985C60.929 23.5184 63.0436 27.4113 63.0436 27.4113C67.3372 21.6011 68.3816 26.501 68.3816 26.501C72.772 25.3454 71.0894 29.9677 71.0894 29.9677C74.6997 30.9361 71.863 32.7696 71.863 32.7696C73.2555 34.532 68.2205 34.8354 68.2205 34.8354C68.2205 34.8354 70.6187 38.7089 68.2205 39.7741L62.1216 44.4545C62.1216 44.4545 59.3043 43.3054 58.0407 44.4739Z" fill="#263238"/>
<path d="M62.5996 40.665C62.5996 40.665 65.8231 32.9181 63.3023 26.3074L65.4298 25.5779C65.4298 25.5779 68.2085 35.1905 62.5996 40.665Z" fill="#407BFF"/>
<path d="M65.816 39.8127C66.3446 40.9231 66.5509 41.4073 67.3117 41.7495C67.5466 41.8845 67.816 41.9472 68.0863 41.9299C68.3566 41.9126 68.6159 41.8161 68.8317 41.6522C69.0476 41.4884 69.2105 41.2645 69.3002 41.0086C69.3899 40.7527 69.4023 40.476 69.336 40.213C69.1362 39.1026 68.2852 37.4693 67.1054 37.437C66.8295 37.4384 66.559 37.5139 66.3222 37.6557C66.0854 37.7975 65.891 38.0004 65.7593 38.2431C65.6275 38.4859 65.5633 38.7596 65.5733 39.0357C65.5832 39.3118 65.6671 39.5802 65.816 39.8127Z" fill="#B97964"/>
<path d="M62.4832 55.9394C62.4832 55.9394 66.8478 59.1673 68.6207 60.4585L81.2503 54.4933C81.2325 53.7921 81.4259 53.1019 81.8054 52.5123C82.1848 51.9228 82.7328 51.4613 83.3778 51.188L84.2804 50.8135L86.1822 49.9614C86.5367 49.8029 86.9266 49.7409 87.3126 49.7817C87.6987 49.8225 88.0671 49.9647 88.3807 50.1938C88.749 50.4626 89.0254 50.8389 89.1719 51.2711C89.3185 51.7033 89.3281 52.1703 89.1994 52.6082C88.9342 53.516 88.4384 54.3394 87.7604 54.998C87.0824 55.6565 86.2455 56.1277 85.3312 56.3655L83.4874 56.8497C83.4874 56.8497 72.663 65.0614 68.7948 65.2551C64.9266 65.4488 59.2598 61.6463 59.2598 61.6463L62.4832 55.9394Z" fill="#B97964"/>
<path d="M51.9866 50.4971C55.3197 50.4971 59.046 52.5758 64.8805 56.3847C64.0425 59.1305 62.484 61.6007 60.3676 63.5377C60.3676 63.5377 57.1442 62.6727 52.8634 58.6378C47.7058 53.7508 49.9429 50.5035 51.9866 50.4971Z" fill="#263238"/>
<path d="M115.297 60.1678H83.7069C83.4411 60.172 83.1775 60.1197 82.9335 60.0143C82.6895 59.9088 82.4706 59.7526 82.2914 59.5561C82.1122 59.3596 81.9767 59.1271 81.894 58.8742C81.8113 58.6213 81.7831 58.3537 81.8115 58.089L84.1904 30.8586C84.2472 30.2955 84.5082 29.7729 84.9241 29.3898C85.34 29.0066 85.8818 28.7896 86.4468 28.7798H118.037C118.302 28.7754 118.566 28.8277 118.81 28.9332C119.053 29.0388 119.272 29.195 119.451 29.3917C119.629 29.5884 119.764 29.8209 119.846 30.0738C119.928 30.3268 119.955 30.5943 119.926 30.8586L117.547 58.089C117.49 58.651 117.23 59.1727 116.816 59.5557C116.401 59.9387 115.861 60.1564 115.297 60.1678Z" fill="#407BFF"/>
<path opacity="0.4" d="M115.297 60.1678H83.7069C83.4411 60.172 83.1775 60.1197 82.9335 60.0143C82.6895 59.9088 82.4706 59.7526 82.2914 59.5561C82.1122 59.3596 81.9767 59.1271 81.894 58.8742C81.8113 58.6213 81.7831 58.3537 81.8115 58.089L84.1904 30.8586C84.2472 30.2955 84.5082 29.7729 84.9241 29.3898C85.34 29.0066 85.8818 28.7896 86.4468 28.7798H118.037C118.302 28.7754 118.566 28.8277 118.81 28.9332C119.053 29.0388 119.272 29.195 119.451 29.3917C119.629 29.5884 119.764 29.8209 119.846 30.0738C119.928 30.3268 119.955 30.5943 119.926 30.8586L117.547 58.089C117.49 58.651 117.23 59.1727 116.816 59.5557C116.401 59.9387 115.861 60.1564 115.297 60.1678Z" fill="white"/>
<path opacity="0.7" d="M115.413 58.8768C115.627 58.873 115.832 58.7907 115.989 58.6454C116.146 58.5002 116.244 58.3022 116.264 58.0892L118.643 30.8587C118.654 30.7586 118.644 30.6573 118.613 30.5616C118.582 30.4658 118.531 30.3778 118.463 30.3033C118.395 30.2288 118.313 30.1696 118.22 30.1296C118.128 30.0895 118.028 30.0696 117.928 30.0711H86.3377C86.1233 30.0747 85.9177 30.1569 85.7597 30.302C85.6017 30.4471 85.5023 30.6452 85.4802 30.8587L83.1078 58.0892C83.0968 58.1893 83.1072 58.2906 83.1383 58.3864C83.1694 58.4821 83.2205 58.5702 83.2881 58.6447C83.3558 58.7191 83.4385 58.7784 83.5308 58.8184C83.6231 58.8584 83.7228 58.8783 83.8234 58.8768H115.413Z" fill="white"/>
<path d="M93.46 42.8665L83.1449 57.818V58.0892C83.1339 58.1893 83.1443 58.2906 83.1754 58.3863C83.2065 58.4821 83.2576 58.5701 83.3253 58.6446C83.3929 58.7191 83.4756 58.7783 83.5679 58.8184C83.6602 58.8584 83.7599 58.8783 83.8605 58.8768H101.757L93.46 42.8665Z" fill="#407BFF"/>
<path opacity="0.3" d="M93.46 42.8665L83.1449 57.818V58.0892C83.1339 58.1893 83.1443 58.2906 83.1754 58.3863C83.2065 58.4821 83.2576 58.5701 83.3253 58.6446C83.3929 58.7191 83.4756 58.7783 83.5679 58.8184C83.6602 58.8584 83.7599 58.8783 83.8605 58.8768H101.757L93.46 42.8665Z" fill="white"/>
<path d="M116.353 57.0498L107.708 40.6069L94.9043 58.8768H115.412C115.626 58.873 115.831 58.7907 115.987 58.6454C116.144 58.5002 116.243 58.3022 116.263 58.0892L116.353 57.0498Z" fill="#407BFF"/>
<path d="M104.369 37.7018C104.29 38.4887 103.925 39.2192 103.344 39.7547C102.763 40.2902 102.006 40.5935 101.216 40.6069C100.844 40.6137 100.475 40.5411 100.134 40.394C99.7925 40.247 99.4863 40.0287 99.2356 39.7539C98.9849 39.479 98.7955 39.1539 98.6801 38.8001C98.5647 38.4462 98.5259 38.0718 98.5662 37.7018C98.6436 36.9138 99.0076 36.1817 99.5888 35.6449C100.17 35.108 100.928 34.8039 101.719 34.7902C102.091 34.7833 102.461 34.8561 102.802 35.0035C103.144 35.151 103.451 35.3698 103.702 35.6454C103.953 35.921 104.142 36.2469 104.257 36.6016C104.372 36.9562 104.41 37.3313 104.369 37.7018Z" fill="#407BFF"/>
<path opacity="0.4" d="M104.369 37.7018C104.29 38.4887 103.925 39.2192 103.344 39.7547C102.763 40.2902 102.006 40.5935 101.216 40.6069C100.844 40.6137 100.475 40.5411 100.134 40.394C99.7925 40.247 99.4863 40.0287 99.2356 39.7539C98.9849 39.479 98.7955 39.1539 98.6801 38.8001C98.5647 38.4462 98.5259 38.0718 98.5662 37.7018C98.6436 36.9138 99.0076 36.1817 99.5888 35.6449C100.17 35.108 100.928 34.8039 101.719 34.7902C102.091 34.7833 102.461 34.8561 102.802 35.0035C103.144 35.151 103.451 35.3698 103.702 35.6454C103.953 35.921 104.142 36.2469 104.257 36.6016C104.372 36.9562 104.41 37.3313 104.369 37.7018Z" fill="white"/>
<path d="M25.5348 170.077L22.3242 179.606L27.2432 181.62L31.0921 172.828L25.5348 170.077Z" fill="#B97964"/>
<path d="M29.0113 181.382C28.9861 181.366 28.9655 181.344 28.9519 181.318C28.9382 181.292 28.932 181.263 28.9339 181.233C28.9375 181.205 28.9501 181.178 28.9698 181.157C28.9895 181.136 29.0153 181.122 29.0435 181.117C29.1467 181.117 31.4676 180.575 32.3315 181.117C32.4948 181.217 32.6128 181.377 32.6603 181.562C32.6964 181.666 32.6997 181.778 32.6696 181.883C32.6396 181.988 32.5778 182.081 32.4927 182.15C32.1639 182.382 31.3967 182.285 30.694 182.066C30.1146 181.886 29.5516 181.658 29.0113 181.382ZM29.5013 181.336C30.5134 181.788 31.9447 182.221 32.3186 181.937C32.3702 181.898 32.4346 181.834 32.383 181.633C32.3731 181.575 32.3491 181.52 32.3131 181.473C32.2772 181.425 32.2304 181.387 32.1767 181.362C32.1007 181.314 32.0182 181.277 31.9318 181.253C31.1236 181.126 30.2988 181.154 29.5013 181.336Z" fill="#407BFF"/>
<path d="M28.9389 181.349C28.9265 181.328 28.9199 181.303 28.9199 181.278C28.9199 181.253 28.9265 181.229 28.9389 181.207C28.9389 181.143 29.5836 179.658 30.4926 179.271C30.6223 179.216 30.7615 179.188 30.902 179.188C31.0426 179.188 31.1817 179.216 31.3114 179.271C31.666 179.419 31.724 179.645 31.6918 179.8C31.6144 180.478 29.8737 181.285 29.113 181.375C29.104 181.38 29.0941 181.382 29.084 181.382C29.0739 181.382 29.064 181.38 29.055 181.375C29.035 181.381 29.0139 181.382 28.9936 181.377C28.9733 181.373 28.9545 181.363 28.9389 181.349ZM31.1244 179.522C30.958 179.461 30.7752 179.461 30.6087 179.522C30.0348 179.879 29.5846 180.404 29.3193 181.026C30.1509 180.826 31.3372 180.142 31.421 179.735C31.421 179.697 31.421 179.593 31.2018 179.503H31.1244V179.522Z" fill="#407BFF"/>
<path d="M28.6752 180.407L22.499 178.47C22.3859 178.435 22.2644 178.44 22.1543 178.483C22.0442 178.527 21.952 178.606 21.893 178.709L19.224 183.396C19.1663 183.495 19.1287 183.604 19.1133 183.717C19.098 183.83 19.1052 183.945 19.1346 184.056C19.1639 184.166 19.2149 184.27 19.2844 184.36C19.354 184.451 19.4408 184.527 19.5399 184.584C19.5925 184.616 19.6488 184.642 19.7075 184.661C21.9446 185.307 23.9625 185.797 26.7347 186.663C30.0097 187.67 29.0556 187.805 32.8851 189.051C35.1931 189.8 36.4309 187.289 35.4638 186.856C31.1379 184.919 31.0928 183.396 29.855 181.246C29.575 180.834 29.1563 180.536 28.6752 180.407Z" fill="#263238"/>
<path opacity="0.2" d="M23.9941 174.648L29.1517 177.256L31.0922 172.828L25.535 170.077L23.9941 174.648Z" fill="#263238"/>
<path d="M47.3388 81.9431C47.3388 81.9431 40.4083 87.2433 41.8911 103.848C42.0329 105.384 42.5358 106.992 42.5358 108.747C42.5358 109.916 42.2134 110.736 41.8331 113.363C41.2786 117.185 40.26 131.44 39.1834 133.292C38.1067 135.145 37.6683 134.816 34.6705 139.929C31.447 145.429 27.2565 155.074 24.0137 171.42C26.1789 172.951 28.6521 173.988 31.26 174.461C31.26 174.461 48.9698 146.494 52.7348 136.081C56.1066 126.766 60.1231 97.0367 60.1231 97.0367L60.4454 84.1252L47.3388 81.9431Z" fill="#407BFF"/>
<path opacity="0.1" d="M54.9203 103.848H49.9045C49.9045 103.848 48.2541 119.651 53.7082 132.834C54.2756 130.717 54.8493 128.179 55.4102 125.436L57.5828 111.517C57.2734 109.167 57.0349 107.373 56.9962 107.256C56.8866 106.888 54.9203 103.848 54.9203 103.848Z" fill="black"/>
<path d="M54.0957 173.912L54.1279 184.041L59.8335 183.661L60.7103 173.912H54.0957Z" fill="#B97964"/>
<path d="M60.4907 183.486C60.4622 183.482 60.4357 183.47 60.4148 183.45C60.394 183.43 60.3799 183.405 60.3747 183.376C60.368 183.348 60.3707 183.318 60.3823 183.291C60.3939 183.265 60.4139 183.242 60.4391 183.228C60.5294 183.176 62.5473 181.937 63.5466 182.156C63.7328 182.198 63.8963 182.308 64.0043 182.466C64.071 182.553 64.1097 182.658 64.1155 182.768C64.1212 182.877 64.0937 182.986 64.0365 183.079C63.5405 183.452 62.9272 183.633 62.3087 183.589C61.7009 183.61 61.0924 183.575 60.4907 183.486ZM60.942 183.286C62.0444 183.383 63.5208 183.318 63.798 182.924C63.8367 182.873 63.8689 182.789 63.7593 182.615C63.7294 182.564 63.6883 182.521 63.6391 182.488C63.5899 182.456 63.534 182.435 63.4756 182.427C63.388 182.414 63.2989 182.414 63.2113 182.427C62.4062 182.562 61.6352 182.854 60.942 183.286Z" fill="#407BFF"/>
<path d="M60.4127 183.486C60.3911 183.472 60.3733 183.453 60.361 183.431C60.3486 183.408 60.342 183.383 60.3418 183.357C60.3418 183.286 60.4514 181.678 61.1799 181.033C61.2837 180.937 61.4058 180.864 61.5389 180.818C61.6719 180.771 61.813 180.752 61.9535 180.762C62.3404 180.762 62.4693 180.981 62.4886 181.143C62.6369 181.788 61.2637 183.137 60.5545 183.48C60.5357 183.486 60.5153 183.486 60.4965 183.48C60.4702 183.492 60.4405 183.494 60.4127 183.486ZM61.8697 181.033C61.6923 181.037 61.5225 181.106 61.3927 181.227C60.9675 181.753 60.7153 182.398 60.6706 183.073C61.3862 182.615 62.2823 181.575 62.2308 181.175C62.2308 181.136 62.1985 181.033 61.9471 181.02H61.8697V181.033Z" fill="#407BFF"/>
<path d="M59.8584 182.679L53.4114 182.911C53.2937 182.917 53.1813 182.962 53.0923 183.039C53.0034 183.116 52.9432 183.222 52.9215 183.338L51.9415 188.644C51.898 188.869 51.9456 189.103 52.0737 189.293C52.2018 189.483 52.4001 189.614 52.6249 189.658C52.6871 189.664 52.7497 189.664 52.8119 189.658C55.1392 189.529 57.2022 189.329 60.1034 189.232C63.5267 189.109 62.6821 189.548 66.6986 189.464C69.1291 189.406 69.4708 186.63 68.4393 186.533C63.7137 186.107 63.1721 184.7 61.296 183.079C60.8829 182.772 60.3706 182.629 59.8584 182.679Z" fill="#263238"/>
<path opacity="0.2" d="M54.115 179.154L60.2525 179.025L60.7103 173.912H54.0957L54.115 179.154Z" fill="#263238"/>
<path d="M51.2008 80.1033C51.2008 80.1033 44.2832 89.2769 49.4085 107.218L55.2108 133.422C55.2108 133.422 49.7051 145.339 52.632 176.779C55.4689 177.178 58.3518 177.112 61.1678 176.585C61.1678 176.585 67.6147 143.383 68.5882 132.169C69.6648 119.813 69.0202 82.5694 69.0202 82.5694L51.2008 80.1033Z" fill="#407BFF"/>
<path d="M55.3787 50.3681C55.3787 50.3681 54.3085 45.7845 61.181 47.7858C68.0534 49.7871 67.4732 53.7058 67.4732 53.7058L55.3787 50.3681Z" fill="#263238"/>
<path opacity="0.4" d="M55.3787 50.3681C55.3787 50.3681 54.3085 45.7845 61.181 47.7858C68.0534 49.7871 67.4732 53.7058 67.4732 53.7058L55.3787 50.3681Z" fill="black"/>
<path d="M72.4245 61.8335C72.4245 63.441 71.7798 65.7651 71.1351 68.3668C70.8385 69.5998 70.5677 70.8845 70.3872 72.1886C69.4137 79.29 69.0978 86.7722 69.0978 86.7722C65.3039 87.6009 61.3803 87.6382 57.5714 86.8818C53.7625 86.1254 50.15 84.5916 46.959 82.3758C46.959 82.3758 49.6603 80.084 49.1058 64.2093C48.8544 57.0563 46.2756 48.554 58.08 49.8903C68.047 51.0201 71.3994 54.1189 72.2053 58.9672C72.2053 59.0253 72.2053 59.0898 72.2053 59.1544L72.2633 59.6063C72.3608 60.3449 72.4146 61.0886 72.4245 61.8335Z" fill="#263238"/>
<path opacity="0.4" d="M72.4238 61.8334C72.4238 63.4409 71.7791 65.765 71.1344 68.3667C68.4396 65.1388 65.7383 59.0381 65.7383 59.0381L67.9625 55.7585L71.8822 57.5855C72.0177 58.039 72.1253 58.5004 72.2046 58.9671C72.2046 59.0252 72.2046 59.0897 72.2046 59.1543L72.2626 59.6062C72.3601 60.3448 72.4139 61.0885 72.4238 61.8334Z" fill="black"/>
<path d="M76.5317 59.0316C76.5317 59.0316 80.3999 62.8535 81.9278 64.3899L95.2988 60.3744C95.3865 59.6822 95.6789 59.032 96.1384 58.5074C96.5979 57.9829 97.2036 57.6079 97.8776 57.4306L98.8188 57.1853L100.83 56.6301C101.205 56.5285 101.6 56.527 101.975 56.6255C102.351 56.724 102.694 56.9192 102.971 57.1917C103.295 57.5116 103.512 57.924 103.593 58.3725C103.674 58.8209 103.614 59.2835 103.422 59.6966C103.024 60.5546 102.411 61.295 101.643 61.8459C100.875 62.3968 99.9774 62.7394 99.038 62.8405L97.1426 63.0407C97.1426 63.0407 85.2093 69.5675 81.3669 69.2059C77.5245 68.8444 72.4766 64.2156 72.4766 64.2156L76.5317 59.0316Z" fill="#B97964"/>
<path d="M66.9242 52.0787C70.225 52.5629 73.5968 55.1904 78.8317 59.8257C77.5915 62.4183 75.679 64.63 73.2937 66.2298C73.2937 66.2298 70.2443 64.8935 66.6083 60.2647C62.2114 54.661 64.9256 51.7818 66.9242 52.0787Z" fill="#263238"/>
</g>
<defs>
<clipPath id="clip0_7500_8362">
<rect width="250" height="200" fill="white"/>
</clipPath>
</defs>
</svg>
