<svg width="250" height="200" viewBox="0 0 250 200" fill="none" xmlns="http://www.w3.org/2000/svg">
<path d="M125.5 199.996C184.871 199.996 233 197.182 233 193.712C233 190.242 184.871 187.429 125.5 187.429C66.1294 187.429 18 190.242 18 193.712C18 197.182 66.1294 199.996 125.5 199.996Z" fill="#F5F5F5"/>
<path d="M161.982 21.0992C162.459 21.0992 162.93 21.0992 163.401 21.1602C165.336 17.4805 168.358 14.4878 172.054 12.5905C175.75 10.6931 179.941 9.98346 184.055 10.5583C188.169 11.1331 192.006 12.9645 195.042 15.8025C198.078 18.6406 200.166 22.3471 201.02 26.4167C203.123 25.7166 205.352 25.4822 207.554 25.7296C209.756 25.9771 211.878 26.7005 213.773 27.8499C215.669 28.9992 217.292 30.5471 218.531 32.3863C219.769 34.2256 220.594 36.3123 220.948 38.5022C221.302 40.692 221.177 42.9327 220.58 45.0692C219.984 47.2057 218.931 49.187 217.495 50.8761C216.058 52.5651 214.272 53.9216 212.261 54.8516C210.249 55.7816 208.06 56.2629 205.844 56.2624H161.982C159.65 56.3039 157.332 55.8798 155.165 55.0148C152.998 54.1499 151.025 52.8615 149.361 51.2248C147.697 49.588 146.375 47.6358 145.473 45.4821C144.57 43.3284 144.105 41.0163 144.105 38.6808C144.105 36.3453 144.57 34.0332 145.473 31.8794C146.375 29.7257 147.697 27.7735 149.361 26.1368C151.025 24.5001 152.998 23.2116 155.165 22.3467C157.332 21.4818 159.65 21.0577 161.982 21.0992Z" fill="#407BFF"/>
<path opacity="0.3" d="M161.982 21.0992C162.459 21.0992 162.93 21.0992 163.401 21.1602C165.336 17.4805 168.358 14.4878 172.054 12.5905C175.75 10.6931 179.941 9.98346 184.055 10.5583C188.169 11.1331 192.006 12.9645 195.042 15.8025C198.078 18.6406 200.166 22.3471 201.02 26.4167C203.123 25.7166 205.352 25.4822 207.554 25.7296C209.756 25.9771 211.878 26.7005 213.773 27.8499C215.669 28.9992 217.292 30.5471 218.531 32.3863C219.769 34.2256 220.594 36.3123 220.948 38.5022C221.302 40.692 221.177 42.9327 220.58 45.0692C219.984 47.2057 218.931 49.187 217.495 50.8761C216.058 52.5651 214.272 53.9216 212.261 54.8516C210.249 55.7816 208.06 56.2629 205.844 56.2624H161.982C159.65 56.3039 157.332 55.8798 155.165 55.0148C152.998 54.1499 151.025 52.8615 149.361 51.2248C147.697 49.588 146.375 47.6358 145.473 45.4821C144.57 43.3284 144.105 41.0163 144.105 38.6808C144.105 36.3453 144.57 34.0332 145.473 31.8794C146.375 29.7257 147.697 27.7735 149.361 26.1368C151.025 24.5001 152.998 23.2116 155.165 22.3467C157.332 21.4818 159.65 21.0577 161.982 21.0992Z" fill="black"/>
<path d="M164.865 35.8471L168.081 30.2632C168.168 30.1122 168.294 29.9868 168.444 29.8997C168.595 29.8125 168.766 29.7666 168.941 29.7666C169.115 29.7666 169.286 29.8125 169.437 29.8997C169.588 29.9868 169.713 30.1122 169.8 30.2632L173.021 35.8471C173.108 35.9981 173.153 36.1691 173.153 36.3431C173.152 36.5171 173.106 36.688 173.019 36.8386C172.932 36.9892 172.807 37.1143 172.657 37.2013C172.506 37.2884 172.336 37.3344 172.162 37.3347H170.698C171.017 39.7291 172.111 41.9527 173.814 43.6643C175.517 45.3759 177.733 46.4808 180.124 46.8096C180.528 46.8599 180.9 47.0574 181.169 47.3644C181.438 47.6714 181.585 48.0665 181.582 48.4748C181.579 48.7117 181.526 48.9454 181.427 49.1603C181.327 49.3751 181.182 49.5662 181.003 49.7206C180.823 49.8751 180.613 49.9895 180.386 50.056C180.159 50.1226 179.92 50.1399 179.686 50.1067C176.496 49.6754 173.544 48.1814 171.306 45.8653C169.068 43.5493 167.674 40.5462 167.349 37.3402H165.686C165.515 37.3339 165.348 37.2832 165.202 37.1931C165.056 37.103 164.936 36.9767 164.853 36.8263C164.771 36.676 164.728 36.5067 164.731 36.3351C164.733 36.1635 164.779 35.9954 164.865 35.8471Z" fill="#FAFAFA"/>
<path d="M181.609 23.3305C181.607 23.0908 181.656 22.8533 181.754 22.6345C181.852 22.4156 181.996 22.2204 182.176 22.0623C182.356 21.9042 182.568 21.7869 182.797 21.7184C183.027 21.6498 183.268 21.6318 183.506 21.6653C186.695 22.0985 189.645 23.5931 191.883 25.9088C194.121 28.2245 195.515 31.2265 195.842 34.4318H197.505C197.68 34.4315 197.851 34.4774 198.003 34.5647C198.154 34.6521 198.279 34.7778 198.367 34.9293C198.454 35.0807 198.499 35.2526 198.499 35.4274C198.499 35.6022 198.452 35.7738 198.365 35.9249L195.143 41.4755C195.056 41.6265 194.931 41.7519 194.78 41.839C194.629 41.9262 194.458 41.9721 194.284 41.9721C194.11 41.9721 193.939 41.9262 193.788 41.839C193.637 41.7519 193.512 41.6265 193.425 41.4755L190.209 35.9249C190.121 35.7738 190.075 35.6022 190.074 35.4274C190.074 35.2526 190.12 35.0807 190.207 34.9293C190.294 34.7778 190.419 34.6521 190.571 34.5647C190.722 34.4774 190.894 34.4315 191.068 34.4318H192.526C192.208 32.0374 191.113 29.8137 189.411 28.1022C187.708 26.3906 185.491 25.2856 183.101 24.9569C182.697 24.9149 182.322 24.7263 182.047 24.4267C181.772 24.1271 181.617 23.7372 181.609 23.3305Z" fill="#FAFAFA"/>
<path d="M126.604 189.472L130.385 188.423L128.334 179.547L124.547 180.596L126.604 189.472Z" fill="#FF8B7B"/>
<path d="M81.3848 189.35L85.2603 189.966L86.979 181.101H83.0536L81.3848 189.35Z" fill="#FF8B7B"/>
<path d="M85.6091 189.555L81.2512 188.867C81.1745 188.854 81.0957 188.867 81.028 188.906C80.9603 188.944 80.908 189.005 80.8797 189.077L79.5713 192.408C79.5346 192.489 79.5178 192.577 79.5222 192.665C79.5266 192.754 79.5521 192.84 79.5966 192.917C79.6412 192.993 79.7034 193.058 79.778 193.106C79.8527 193.153 79.9377 193.182 80.0259 193.19C81.5506 193.401 82.3046 193.429 84.223 193.746C85.4039 193.934 86.5295 194.223 91.7356 194.223C93.349 194.223 93.5985 192.597 92.9277 192.447C89.9004 191.786 87.0229 190.915 86.2023 189.905C86.0543 189.719 85.8431 189.594 85.6091 189.555Z" fill="#263238"/>
<path d="M130.241 187.989L126.105 189.138C126.031 189.161 125.966 189.207 125.921 189.27C125.875 189.334 125.853 189.41 125.856 189.488L126.044 193.063C126.045 193.15 126.067 193.236 126.107 193.313C126.147 193.39 126.205 193.457 126.275 193.508C126.346 193.559 126.428 193.592 126.514 193.605C126.6 193.619 126.688 193.612 126.771 193.584C128.256 193.146 130.386 192.474 132.26 191.919C134.45 191.314 136.373 190.909 138.946 190.193C140.498 189.76 140.493 188.073 139.805 188.106C136.662 188.284 134.228 188.883 131.234 188.012C130.911 187.913 130.568 187.905 130.241 187.989Z" fill="#263238"/>
<path d="M128.334 179.547L129.393 184.126L125.606 185.175L124.547 180.602L128.334 179.547Z" fill="#EA7063"/>
<path d="M83.0477 181.101H86.9787L86.0694 185.797H82.0996L83.0477 181.101Z" fill="#EA7063"/>
<path d="M114.678 56.2289C114.678 56.2289 119.313 68.1017 114.91 90.2098H93.8972C93.753 86.9794 95.7823 71.2378 92.6719 56.0291C94.9933 55.579 97.3418 55.2823 99.7022 55.141C102.675 54.966 105.656 54.966 108.629 55.141C110.67 55.3455 112.693 55.7092 114.678 56.2289Z" fill="#407BFF"/>
<path opacity="0.1" d="M114.678 56.2289C114.678 56.2289 119.313 68.1017 114.91 90.2098H93.8972C93.753 86.9794 95.7823 71.2378 92.6719 56.0291C94.9933 55.579 97.3418 55.2823 99.7022 55.141C102.675 54.966 105.656 54.966 108.629 55.141C110.67 55.3455 112.693 55.7092 114.678 56.2289Z" fill="black"/>
<path d="M125.684 77.1547C125.601 76.8432 125.494 76.5388 125.363 76.2444L125.174 75.7837L124.803 74.8623L124.054 73.0084L122.546 69.2451C121.537 66.7473 120.495 64.2495 119.413 61.7961L113.686 64.194C114.695 66.7251 115.771 69.1896 116.913 71.6873C117.467 72.9251 118.061 74.1518 118.659 75.3841C118.959 76.0002 119.258 76.6163 119.574 77.2269L120.012 78.0872L119.89 78.1316C118.783 78.5197 117.639 78.7895 116.475 78.9365C113.974 79.3028 111.291 79.4915 108.674 79.6303L108.402 82.6998C111.171 83.2631 113.988 83.5531 116.813 83.5657C118.354 83.5875 119.891 83.4235 121.393 83.0772C121.841 82.9638 122.28 82.8172 122.707 82.6387C123.245 82.4138 123.748 82.1149 124.204 81.7506C124.861 81.2218 125.355 80.5174 125.629 79.7191C125.893 78.8875 125.913 77.997 125.684 77.1547Z" fill="#FF8B7B"/>
<path d="M110.016 58.9209C108.696 62.44 115.399 72.7975 115.399 72.7975L123.25 68.5291C122.071 65.3083 120.55 62.2231 118.715 59.3261C115.937 55.1798 111.468 55.0577 110.016 58.9209Z" fill="#407BFF"/>
<path opacity="0.1" d="M110.016 58.9209C108.696 62.44 115.399 72.7975 115.399 72.7975L123.25 68.5291C122.071 65.3083 120.55 62.2231 118.715 59.3261C115.937 55.1798 111.468 55.0577 110.016 58.9209Z" fill="black"/>
<path d="M102.243 77.4822L101.877 81.6229L105.608 82.117L106.235 77.5765L102.243 77.4822Z" fill="#FF8B7B"/>
<path d="M109.195 79.869L106.234 77.571L105.607 82.1059C105.607 82.1059 108.263 84.0264 110.093 82.2336L109.195 79.869Z" fill="#FF8B7B"/>
<path d="M100.596 45.0723C101.151 47.953 101.705 53.2206 99.7148 55.1411C99.7148 55.1411 100.868 58.0552 106.207 58.0552C111.086 58.0552 108.641 55.1411 108.641 55.1411C105.437 54.3751 105.675 50.3121 106.424 47.3369L100.596 45.0723Z" fill="#FF8B7B"/>
<path d="M101.106 49.0853L103.03 47.6865C103.135 47.9807 104.776 49.0853 104.527 49.6736C103.69 51.6608 102.137 52.3657 101.012 52.016C101.133 51.0441 101.165 50.063 101.106 49.0853Z" fill="#EA7063"/>
<path d="M100.34 39.0386L97.0467 36.8184C95.4943 38.145 95.2226 41.714 97.1964 43.9565C101.144 43.2182 100.34 39.0386 100.34 39.0386Z" fill="#263238"/>
<path d="M107.415 40.3818C107.415 44.5059 107.659 46.9204 105.752 49.1685C102.846 52.5488 97.6568 51.0057 96.4038 46.9482C95.2949 43.3125 95.428 37.1791 99.3368 35.2919C100.196 34.8741 101.147 34.6824 102.101 34.7348C103.055 34.7871 103.979 35.0819 104.788 35.5912C105.596 36.1006 106.261 36.8077 106.721 37.6458C107.181 38.484 107.42 39.4256 107.415 40.3818Z" fill="#FF8B7B"/>
<path d="M108.202 37.8007L104.271 37.168C103.422 39.0219 104.687 42.3744 107.42 43.5734C110.697 41.2477 108.202 37.8007 108.202 37.8007Z" fill="#263238"/>
<path d="M99.8254 38.2005C98.1343 38.3837 92.3793 38.2282 95.2845 32.3834C95.2845 33.0884 95.9443 35.0089 97.591 32.9385C98.9771 31.19 102.06 33.5435 101.749 31.8284C101.749 31.8284 102.858 32.3834 102.304 33.0717C101.749 33.76 105.946 31.6341 108.314 33.0051C107.111 33.1272 106.978 34.7924 108.73 35.9136C110.393 36.9793 109.19 39.7214 107.066 39.2052C104.943 38.6889 104.039 37.7398 99.8254 38.2005Z" fill="#263238"/>
<path d="M109.305 43.618C109.102 44.5034 108.56 45.2742 107.797 45.7661C106.788 46.4099 105.962 45.5829 105.979 44.4395C105.979 43.4126 106.533 41.8418 107.675 41.6641C108.817 41.4865 109.549 42.53 109.305 43.618Z" fill="#FF8B7B"/>
<path d="M114.911 90.2097C114.911 90.2097 122.751 121.476 124.336 133.366C126 145.727 129.975 182.378 129.975 182.378L123.837 184.348C123.837 184.348 115.072 148.347 112.715 136.33C110.126 123.225 101.105 90.2097 101.105 90.2097H114.911Z" fill="#407BFF"/>
<path opacity="0.6" d="M114.911 90.2097C114.911 90.2097 122.751 121.476 124.336 133.366C126 145.727 129.975 182.378 129.975 182.378L123.837 184.348C123.837 184.348 115.072 148.347 112.715 136.33C110.126 123.225 101.105 90.2097 101.105 90.2097H114.911Z" fill="#FAFAFA"/>
<path d="M123.527 184.787L130.413 182.622L130.319 180.063L122.801 182.522L123.527 184.787Z" fill="#407BFF"/>
<path opacity="0.2" d="M123.527 184.787L130.413 182.622L130.319 180.063L122.801 182.522L123.527 184.787Z" fill="black"/>
<path d="M105.486 92.5188L103.656 99.6791C105.353 106.073 107.626 114.743 109.544 122.542C109.727 112.386 108.358 102.261 105.486 92.5188Z" fill="#407BFF"/>
<path opacity="0.4" d="M105.486 92.5188L103.656 99.6791C105.353 106.073 107.626 114.743 109.544 122.542C109.727 112.386 108.358 102.261 105.486 92.5188Z" fill="#FAFAFA"/>
<path d="M107.465 90.2097C107.465 90.2097 105.68 122.342 103.235 133.593C100.552 145.921 87.7995 184.881 87.7995 184.881H80.5918C80.5918 184.881 89.923 146.915 91.4477 134.715C93.111 121.471 93.9039 90.2097 93.9039 90.2097H107.465Z" fill="#407BFF"/>
<path opacity="0.6" d="M107.465 90.2097C107.465 90.2097 105.68 122.342 103.235 133.593C100.552 145.921 87.7995 184.881 87.7995 184.881H80.5918C80.5918 184.881 89.923 146.915 91.4477 134.715C93.111 121.471 93.9039 90.2097 93.9039 90.2097H107.465Z" fill="#FAFAFA"/>
<path d="M80.0703 184.998H88.3148L89.0688 182.783H80.0703V184.998Z" fill="#407BFF"/>
<path opacity="0.2" d="M80.0703 184.998H88.3148L89.0688 182.783H80.0703V184.998Z" fill="black"/>
<path d="M83.496 180.63C83.4872 180.628 83.4787 180.625 83.4712 180.62C83.4636 180.616 83.457 180.61 83.4518 180.602C83.4467 180.595 83.443 180.587 83.4411 180.578C83.4391 180.57 83.4389 180.561 83.4405 180.552C83.5015 180.185 92.1785 146.138 93.5479 135.153C95.0394 123.258 95.5051 94.7836 95.5384 94.5227C95.541 94.5056 95.5498 94.49 95.563 94.4787C95.5763 94.4675 95.5931 94.4615 95.6104 94.4617C95.6197 94.4623 95.6288 94.4649 95.637 94.4693C95.6452 94.4736 95.6524 94.4797 95.6582 94.487C95.6639 94.4943 95.6681 94.5027 95.6703 94.5118C95.6726 94.5208 95.673 94.5302 95.6714 94.5394C95.6382 94.8003 95.1724 123.275 93.681 135.17C92.3115 146.132 83.6346 180.208 83.5736 180.574C83.5722 180.583 83.5692 180.591 83.5645 180.599C83.5598 180.606 83.5537 180.613 83.5465 180.618C83.5392 180.623 83.531 180.627 83.5224 180.629C83.5137 180.631 83.5047 180.631 83.496 180.63Z" fill="#407BFF"/>
<path opacity="0.4" d="M83.496 180.63C83.4872 180.628 83.4787 180.625 83.4712 180.62C83.4636 180.616 83.457 180.61 83.4518 180.602C83.4467 180.595 83.443 180.587 83.4411 180.578C83.4391 180.57 83.4389 180.561 83.4405 180.552C83.5015 180.185 92.1785 146.138 93.5479 135.153C95.0394 123.258 95.5051 94.7836 95.5384 94.5227C95.541 94.5056 95.5498 94.49 95.563 94.4787C95.5763 94.4675 95.5931 94.4615 95.6104 94.4617C95.6197 94.4623 95.6288 94.4649 95.637 94.4693C95.6452 94.4736 95.6524 94.4797 95.6582 94.487C95.6639 94.4943 95.6681 94.5027 95.6703 94.5118C95.6726 94.5208 95.673 94.5302 95.6714 94.5394C95.6382 94.8003 95.1724 123.275 93.681 135.17C92.3115 146.132 83.6346 180.208 83.5736 180.574C83.5722 180.583 83.5692 180.591 83.5645 180.599C83.5598 180.606 83.5537 180.613 83.5465 180.618C83.5392 180.623 83.531 180.627 83.5224 180.629C83.5137 180.631 83.5047 180.631 83.496 180.63Z" fill="#FAFAFA"/>
<path d="M101.266 41.9695C101.266 42.3025 101.127 42.5856 100.911 42.6022C100.695 42.6189 100.495 42.358 100.473 42.0194C100.451 41.6808 100.611 41.4033 100.828 41.3922C101.044 41.3811 101.243 41.6364 101.266 41.9695Z" fill="#263238"/>
<path d="M97.4902 42.2192C97.4902 42.5578 97.3516 42.8409 97.1354 42.852C96.9191 42.8631 96.7195 42.6078 96.6974 42.2969C96.6752 41.9861 96.836 41.6808 97.0522 41.6642C97.2684 41.6475 97.468 41.8862 97.4902 42.2192Z" fill="#263238"/>
<path d="M98.6996 42.3079C98.3688 43.3569 97.8969 44.3559 97.2969 45.2774C97.5358 45.4248 97.804 45.518 98.0827 45.5506C98.3614 45.5832 98.6439 45.5544 98.9103 45.4662L98.6996 42.3079Z" fill="#FF5652"/>
<path d="M99.9478 46.3265C99.9222 46.3281 99.897 46.3198 99.8774 46.3032C99.8578 46.2867 99.8453 46.2632 99.8425 46.2377C99.8409 46.2244 99.8421 46.211 99.8462 46.1982C99.8502 46.1854 99.8569 46.1737 99.8658 46.1637C99.8747 46.1537 99.8857 46.1458 99.8979 46.1403C99.9101 46.1349 99.9233 46.1322 99.9367 46.1323C100.353 46.1134 100.758 45.9965 101.12 45.791C101.483 45.5856 101.791 45.2974 102.021 44.95C102.034 44.9275 102.055 44.9109 102.08 44.9037C102.105 44.8964 102.132 44.8991 102.154 44.9111C102.166 44.9169 102.176 44.9251 102.185 44.9351C102.193 44.9451 102.199 44.9567 102.203 44.9692C102.207 44.9817 102.208 44.9949 102.206 45.0078C102.204 45.0207 102.2 45.0332 102.193 45.0443C101.949 45.4227 101.618 45.7366 101.227 45.9598C100.836 46.1829 100.397 46.3087 99.9478 46.3265Z" fill="#263238"/>
<path d="M102.32 40.676C102.29 40.6759 102.26 40.6694 102.232 40.657C102.204 40.6446 102.18 40.6264 102.159 40.6038C102.001 40.4166 101.801 40.269 101.576 40.1726C101.351 40.0763 101.106 40.0339 100.862 40.0487C100.836 40.0535 100.81 40.0528 100.785 40.0469C100.759 40.0409 100.735 40.0298 100.715 40.0141C100.694 39.9985 100.676 39.9787 100.664 39.956C100.651 39.9333 100.643 39.9082 100.64 39.8822C100.634 39.8308 100.648 39.779 100.679 39.7376C100.71 39.6962 100.755 39.6684 100.807 39.6602C101.12 39.6353 101.435 39.6864 101.724 39.8091C102.014 39.9318 102.27 40.1225 102.47 40.3651C102.488 40.3832 102.503 40.4048 102.513 40.4286C102.523 40.4525 102.528 40.478 102.528 40.5039C102.528 40.5297 102.523 40.5553 102.513 40.5791C102.503 40.603 102.488 40.6246 102.47 40.6427C102.426 40.6712 102.372 40.683 102.32 40.676Z" fill="#263238"/>
<path d="M95.7058 40.9924C95.6765 40.9982 95.6463 40.9982 95.617 40.9924C95.5702 40.9686 95.5347 40.9273 95.5181 40.8774C95.5015 40.8276 95.5051 40.7731 95.5283 40.726C95.6578 40.442 95.8531 40.1931 96.0981 40C96.343 39.8069 96.6305 39.6752 96.9366 39.6159C96.9621 39.6126 96.988 39.6144 97.0128 39.6211C97.0376 39.6278 97.0608 39.6394 97.0811 39.6551C97.1015 39.6708 97.1185 39.6904 97.1313 39.7127C97.1441 39.735 97.1523 39.7596 97.1556 39.7852C97.1589 39.8107 97.1571 39.8366 97.1504 39.8614C97.1437 39.8862 97.1321 39.9095 97.1164 39.9298C97.1007 39.9502 97.0812 39.9673 97.0589 39.9801C97.0366 39.9928 97.012 40.0011 96.9865 40.0044C96.7447 40.0561 96.5184 40.1639 96.3259 40.3191C96.1333 40.4743 95.9797 40.6726 95.8776 40.898C95.8604 40.928 95.8352 40.9527 95.8049 40.9694C95.7746 40.986 95.7403 40.994 95.7058 40.9924Z" fill="#263238"/>
<path d="M94.7634 62.5178C93.6989 65.4763 92.6011 68.4459 91.4978 71.3988C90.3944 74.3517 89.28 77.3213 88.2987 80.1632C87.4337 82.8941 86.8017 86.008 86.1696 89.0442C85.5376 92.0804 84.9055 95.2276 84.2457 98.3138L81.1797 98.014C81.1797 94.7947 81.2684 91.6031 81.5124 88.3893C81.6454 86.7907 81.7785 85.181 81.9947 83.5602C82.1929 81.8905 82.4872 80.2337 82.8763 78.598C83.2866 76.9605 83.7412 75.423 84.218 73.8855C84.6948 72.348 85.1827 70.8271 85.6928 69.3118C86.713 66.2811 87.7886 63.2949 88.9474 60.3142L94.7634 62.5178Z" fill="#FF8B7B"/>
<path d="M92.6838 56.029C88.969 56.5841 84.7109 69.4559 84.7109 69.4559L92.5174 73.8964C92.5174 73.8964 95.9494 67.7908 97.646 63.217C99.4424 58.4158 96.6702 55.4462 92.6838 56.029Z" fill="#407BFF"/>
<path opacity="0.1" d="M92.6838 56.029C88.969 56.5841 84.7109 69.4559 84.7109 69.4559L92.5174 73.8964C92.5174 73.8964 95.9494 67.7908 97.646 63.217C99.4424 58.4158 96.6702 55.4462 92.6838 56.029Z" fill="black"/>
<path d="M86.7842 190.437C87.0449 190.498 87.3186 190.469 87.5604 190.354C87.6401 190.307 87.7066 190.241 87.7541 190.161C87.8015 190.082 87.8283 189.991 87.8321 189.899C87.8399 189.846 87.8332 189.791 87.8127 189.741C87.7922 189.692 87.7587 189.648 87.7157 189.616C87.322 189.327 85.947 189.899 85.7918 189.965C85.776 189.973 85.7626 189.985 85.7529 190C85.7432 190.014 85.7374 190.031 85.7363 190.049C85.7365 190.067 85.7417 190.085 85.7515 190.101C85.7613 190.117 85.7752 190.129 85.7918 190.138C86.1105 190.274 86.4433 190.375 86.7842 190.437ZM87.4884 189.721C87.53 189.727 87.5698 189.742 87.6048 189.766C87.6048 189.766 87.6491 189.81 87.6436 189.882C87.643 189.946 87.6264 190.008 87.5953 190.063C87.5643 190.118 87.5199 190.165 87.4662 190.199C87.002 190.328 86.506 190.274 86.0801 190.049C86.5244 189.851 87.0024 189.74 87.4884 189.721Z" fill="#407BFF"/>
<path d="M85.8152 190.143H85.8596C86.2976 189.988 87.2069 189.261 87.1903 188.817C87.1884 188.746 87.1619 188.679 87.1152 188.626C87.0686 188.573 87.0048 188.538 86.9352 188.528C86.8677 188.508 86.7967 188.503 86.7269 188.512C86.6572 188.522 86.5902 188.546 86.5305 188.584C86.0204 188.883 85.7487 189.988 85.7376 190.032C85.7351 190.049 85.7363 190.066 85.7411 190.083C85.7458 190.099 85.7541 190.114 85.7653 190.127L85.8152 190.143ZM86.8465 188.695H86.8853C87.0017 188.728 87.0073 188.789 87.0073 188.811C87.0073 189.072 86.4196 189.638 85.9705 189.877C86.0705 189.439 86.2983 189.041 86.6247 188.733C86.6573 188.713 86.6937 188.699 86.7318 188.692C86.7698 188.685 86.8088 188.686 86.8465 188.695Z" fill="#407BFF"/>
<path d="M131.998 188.212C132.329 188.152 132.63 187.982 132.852 187.729C132.899 187.657 132.927 187.575 132.935 187.49C132.943 187.405 132.93 187.319 132.896 187.24C132.881 187.193 132.853 187.15 132.816 187.116C132.78 187.082 132.735 187.058 132.686 187.046C132.131 186.913 130.845 188.112 130.701 188.245C130.69 188.26 130.684 188.279 130.684 188.298C130.684 188.317 130.69 188.335 130.701 188.35C130.707 188.369 130.719 188.385 130.735 188.396C130.751 188.407 130.77 188.412 130.79 188.411C131.198 188.38 131.602 188.314 131.998 188.212ZM132.464 187.24C132.522 187.224 132.583 187.224 132.641 187.24C132.661 187.246 132.679 187.257 132.694 187.271C132.708 187.286 132.719 187.304 132.725 187.323C132.749 187.373 132.762 187.427 132.762 187.482C132.762 187.537 132.749 187.591 132.725 187.64C132.547 187.912 131.932 188.123 131.061 188.195C131.472 187.801 131.947 187.478 132.464 187.24Z" fill="#407BFF"/>
<path d="M130.785 188.406H130.824C131.223 188.073 131.899 187.001 131.711 186.591C131.667 186.496 131.561 186.391 131.312 186.435C131.22 186.448 131.132 186.481 131.053 186.531C130.975 186.58 130.908 186.646 130.857 186.724C130.625 187.233 130.559 187.802 130.669 188.35C130.679 188.381 130.701 188.407 130.73 188.422L130.785 188.406ZM131.284 186.613H131.339C131.506 186.585 131.533 186.646 131.545 186.663C131.655 186.913 131.217 187.723 130.829 188.134C130.753 187.691 130.815 187.235 131.007 186.829C131.07 186.726 131.169 186.649 131.284 186.613Z" fill="#407BFF"/>
<path d="M84.3737 97.8697L83.6197 100.884L80.2598 98.8466C80.2598 98.8466 80.7477 95.6051 83.3092 95.5496L84.3737 97.8697Z" fill="#FF8B7B"/>
<path d="M81.024 102.332L78.5234 100.867L80.2588 98.8687L83.6187 100.9L81.024 102.332Z" fill="#FF8B7B"/>
<path d="M136.451 83.8378C136.23 83.8378 136.019 83.7501 135.863 83.594C135.707 83.4378 135.619 83.2261 135.619 83.0053V79.6749C135.619 79.4541 135.707 79.2423 135.863 79.0861C136.019 78.93 136.23 78.8423 136.451 78.8423C136.671 78.8423 136.883 78.93 137.039 79.0861C137.195 79.2423 137.282 79.4541 137.282 79.6749V83.0053C137.282 83.2261 137.195 83.4378 137.039 83.594C136.883 83.7501 136.671 83.8378 136.451 83.8378Z" fill="#407BFF"/>
<path d="M136.451 72.7753C136.23 72.7753 136.019 72.6876 135.863 72.5315C135.707 72.3753 135.619 72.1636 135.619 71.9427V65.3153C135.619 65.0945 135.707 64.8827 135.863 64.7266C136.019 64.5704 136.23 64.4827 136.451 64.4827C136.672 64.4827 136.883 64.5704 137.039 64.7266C137.195 64.8827 137.283 65.0945 137.283 65.3153V71.9427C137.283 72.0521 137.261 72.1604 137.219 72.2614C137.178 72.3624 137.116 72.4542 137.039 72.5315C136.962 72.6088 136.87 72.6701 136.769 72.712C136.668 72.7538 136.56 72.7753 136.451 72.7753ZM136.451 58.4103C136.23 58.4103 136.019 58.3226 135.863 58.1665C135.707 58.0103 135.619 57.7986 135.619 57.5777V50.9281C135.619 50.7073 135.707 50.4955 135.863 50.3394C136.019 50.1832 136.23 50.0955 136.451 50.0955C136.672 50.0955 136.883 50.1832 137.039 50.3394C137.195 50.4955 137.283 50.7073 137.283 50.9281V57.5888C137.28 57.8077 137.191 58.0167 137.035 58.1704C136.88 58.3242 136.67 58.4104 136.451 58.4103ZM69.1422 56.6952C68.9216 56.6952 68.7101 56.6075 68.5541 56.4513C68.3982 56.2952 68.3105 56.0834 68.3105 55.8626V49.2296C68.3105 49.0088 68.3982 48.797 68.5541 48.6409C68.7101 48.4847 68.9216 48.397 69.1422 48.397C69.3628 48.397 69.5743 48.4847 69.7303 48.6409C69.8862 48.797 69.9739 49.0088 69.9739 49.2296V55.8626C69.9739 56.0834 69.8862 56.2952 69.7303 56.4513C69.5743 56.6075 69.3628 56.6952 69.1422 56.6952ZM136.451 44.0453C136.23 44.0453 136.019 43.9576 135.863 43.8015C135.707 43.6453 135.619 43.4336 135.619 43.2127V36.5853C135.619 36.3645 135.707 36.1527 135.863 35.9966C136.019 35.8404 136.23 35.7527 136.451 35.7527C136.672 35.7527 136.883 35.8404 137.039 35.9966C137.195 36.1527 137.283 36.3645 137.283 36.5853V43.2127C137.283 43.4336 137.195 43.6453 137.039 43.8015C136.883 43.9576 136.672 44.0453 136.451 44.0453ZM69.1422 42.3302C68.9216 42.3302 68.7101 42.2425 68.5541 42.0863C68.3982 41.9302 68.3105 41.7184 68.3105 41.4976V34.8646C68.3105 34.6438 68.3982 34.432 68.5541 34.2759C68.7101 34.1197 68.9216 34.032 69.1422 34.032C69.3628 34.032 69.5743 34.1197 69.7303 34.2759C69.8862 34.432 69.9739 34.6438 69.9739 34.8646V41.492C69.9746 41.6018 69.9536 41.7107 69.9122 41.8124C69.8707 41.914 69.8095 42.0065 69.7322 42.0844C69.6549 42.1623 69.563 42.2241 69.4617 42.2663C69.3605 42.3085 69.2519 42.3302 69.1422 42.3302ZM135.98 29.7081C135.784 29.708 135.594 29.6382 135.445 29.5111C135.296 29.384 135.196 29.2079 135.165 29.0142C134.803 26.888 134.235 24.8022 133.468 22.7864C133.4 22.5827 133.413 22.3604 133.504 22.1661C133.596 21.9717 133.759 21.8203 133.96 21.7436C134.16 21.6669 134.383 21.6708 134.58 21.7544C134.778 21.8381 134.936 21.9951 135.021 22.1925C135.828 24.3061 136.424 26.4944 136.8 28.7256C136.837 28.9427 136.787 29.1656 136.66 29.3456C136.533 29.5255 136.341 29.6479 136.124 29.6859L135.98 29.7081ZM69.9461 28.0429C69.8853 28.0483 69.824 28.0483 69.7632 28.0429C69.6565 28.0192 69.5555 27.9748 69.466 27.912C69.3765 27.8493 69.3002 27.7695 69.2415 27.6772C69.1828 27.585 69.1428 27.482 69.1239 27.3743C69.1049 27.2665 69.1074 27.1561 69.1311 27.0493C69.6222 24.8363 70.3316 22.6776 71.2491 20.6051C71.2922 20.5028 71.3556 20.4104 71.4354 20.3334C71.5152 20.2563 71.6098 20.1963 71.7135 20.1569C71.8171 20.1174 71.9276 20.0995 72.0384 20.104C72.1492 20.1085 72.2579 20.1355 72.3579 20.1832C72.4595 20.2271 72.5514 20.2909 72.628 20.3708C72.7047 20.4507 72.7647 20.5451 72.8044 20.6485C72.8442 20.7518 72.8629 20.8621 72.8596 20.9729C72.8562 21.0836 72.8308 21.1925 72.7849 21.2933C71.9147 23.2572 71.2405 25.3024 70.7722 27.399C70.7249 27.5813 70.6177 27.7423 70.4678 27.8561C70.318 27.9698 70.1342 28.0298 69.9461 28.0262V28.0429ZM130.679 16.4976C130.543 16.4978 130.41 16.4645 130.29 16.4006C130.17 16.3367 130.067 16.2442 129.992 16.1312C128.785 14.3438 127.403 12.6814 125.867 11.169C125.709 11.0137 125.62 10.8022 125.619 10.581C125.617 10.3598 125.703 10.147 125.858 9.98949C126.014 9.83197 126.225 9.7426 126.446 9.74104C126.667 9.73948 126.879 9.82585 127.037 9.98116C128.646 11.5749 130.097 13.3224 131.367 15.1987C131.428 15.2889 131.472 15.3905 131.494 15.4975C131.516 15.6046 131.517 15.715 131.497 15.8223C131.476 15.9297 131.434 16.0319 131.374 16.123C131.314 16.2142 131.236 16.2924 131.145 16.3533C131.007 16.4429 130.844 16.4875 130.679 16.4809V16.4976ZM75.9119 15.1044C75.7574 15.1044 75.606 15.0613 75.4747 14.98C75.3433 14.8987 75.2371 14.7824 75.168 14.6441C75.099 14.5058 75.0697 14.351 75.0836 14.197C75.0975 14.043 75.1539 13.8959 75.2466 13.7722C76.6098 11.9606 78.1474 10.2874 79.8373 8.77667C79.9172 8.69659 80.0126 8.63366 80.1176 8.59173C80.2226 8.54979 80.335 8.52973 80.4481 8.53277C80.5611 8.53581 80.6723 8.56189 80.7749 8.60941C80.8775 8.65693 80.9694 8.72491 81.0449 8.80917C81.1203 8.89343 81.1779 8.99221 81.2139 9.09948C81.25 9.20675 81.2638 9.32026 81.2546 9.43307C81.2454 9.54588 81.2133 9.65561 81.1602 9.75558C81.1072 9.85554 81.0344 9.94363 80.9462 10.0145C79.3387 11.452 77.8755 13.0433 76.5772 14.7658C76.4983 14.8668 76.3973 14.9484 76.282 15.0042C76.1666 15.06 76.04 15.0886 75.9119 15.0877V15.1044ZM120.389 6.64524C120.236 6.6462 120.086 6.60387 119.956 6.52312C118.121 5.39168 116.179 4.44529 114.157 3.69786C114.043 3.67073 113.937 3.61996 113.844 3.54887C113.752 3.47777 113.675 3.38794 113.619 3.28521C113.563 3.18249 113.53 3.06917 113.521 2.95264C113.512 2.83611 113.527 2.71897 113.567 2.60885C113.606 2.49873 113.668 2.3981 113.748 2.3135C113.829 2.2289 113.926 2.16223 114.034 2.11782C114.142 2.07342 114.258 2.05228 114.375 2.05578C114.492 2.05928 114.606 2.08734 114.711 2.13813C116.837 2.92254 118.88 3.91538 120.81 5.10216C120.965 5.19699 121.085 5.34004 121.151 5.50944C121.217 5.67884 121.226 5.86528 121.177 6.04024C121.127 6.21521 121.021 6.36908 120.876 6.47833C120.731 6.58758 120.554 6.6462 120.372 6.64524H120.389ZM86.6902 5.76824C86.5047 5.76918 86.3242 5.70801 86.1775 5.59448C86.0307 5.48094 85.926 5.32154 85.8802 5.14162C85.8343 4.96171 85.8498 4.7716 85.9242 4.60152C85.9987 4.43144 86.1277 4.29115 86.291 4.20296C88.2783 3.11757 90.3675 2.23074 92.5284 1.55532C92.7345 1.5036 92.9526 1.53282 93.1379 1.637C93.3231 1.74118 93.4615 1.91241 93.5247 2.11553C93.5878 2.31866 93.5709 2.53828 93.4774 2.72931C93.3839 2.92034 93.2209 3.06829 93.0218 3.1428C90.9667 3.78621 88.9796 4.63025 87.0894 5.66277C86.9676 5.73188 86.8301 5.76822 86.6902 5.76824ZM106.955 1.9161H106.855C104.716 1.65434 102.556 1.60044 100.407 1.75514C100.186 1.77133 99.9684 1.69914 99.801 1.55445C99.6336 1.40976 99.5305 1.20442 99.5143 0.9836C99.4981 0.762782 99.5703 0.544579 99.7148 0.376988C99.8593 0.209396 100.064 0.106147 100.285 0.0899536C102.542 -0.0713694 104.809 -0.0156103 107.055 0.25647C107.275 0.269719 107.482 0.370147 107.628 0.535657C107.775 0.701167 107.85 0.918203 107.836 1.13902C107.823 1.35984 107.723 1.56635 107.558 1.71312C107.392 1.85989 107.175 1.93491 106.955 1.92166V1.9161Z" fill="#407BFF"/>
<path d="M69.1422 67.8242C68.9216 67.8242 68.7101 67.7364 68.5541 67.5803C68.3982 67.4242 68.3105 67.2124 68.3105 66.9916V63.6612C68.3105 63.4404 68.3982 63.2286 68.5541 63.0725C68.7101 62.9163 68.9216 62.8286 69.1422 62.8286C69.3628 62.8286 69.5743 62.9163 69.7303 63.0725C69.8862 63.2286 69.9739 63.4404 69.9739 63.6612V66.9916C69.9739 67.2124 69.8862 67.4242 69.7303 67.5803C69.5743 67.7364 69.3628 67.8242 69.1422 67.8242Z" fill="#407BFF"/>
<g opacity="0.6">
<path d="M136.451 83.8378C136.23 83.8378 136.019 83.7501 135.863 83.594C135.707 83.4378 135.619 83.2261 135.619 83.0053V79.6749C135.619 79.4541 135.707 79.2423 135.863 79.0861C136.019 78.93 136.23 78.8423 136.451 78.8423C136.671 78.8423 136.883 78.93 137.039 79.0861C137.195 79.2423 137.282 79.4541 137.282 79.6749V83.0053C137.282 83.2261 137.195 83.4378 137.039 83.594C136.883 83.7501 136.671 83.8378 136.451 83.8378Z" fill="#FAFAFA"/>
<path d="M136.451 72.7753C136.23 72.7753 136.019 72.6876 135.863 72.5315C135.707 72.3753 135.619 72.1636 135.619 71.9427V65.3153C135.619 65.0945 135.707 64.8827 135.863 64.7266C136.019 64.5704 136.23 64.4827 136.451 64.4827C136.672 64.4827 136.883 64.5704 137.039 64.7266C137.195 64.8827 137.283 65.0945 137.283 65.3153V71.9427C137.283 72.0521 137.261 72.1604 137.219 72.2614C137.178 72.3624 137.116 72.4542 137.039 72.5315C136.962 72.6088 136.87 72.6701 136.769 72.712C136.668 72.7538 136.56 72.7753 136.451 72.7753ZM136.451 58.4103C136.23 58.4103 136.019 58.3226 135.863 58.1665C135.707 58.0103 135.619 57.7986 135.619 57.5777V50.9281C135.619 50.7073 135.707 50.4955 135.863 50.3394C136.019 50.1832 136.23 50.0955 136.451 50.0955C136.672 50.0955 136.883 50.1832 137.039 50.3394C137.195 50.4955 137.283 50.7073 137.283 50.9281V57.5888C137.28 57.8077 137.191 58.0167 137.035 58.1704C136.88 58.3242 136.67 58.4104 136.451 58.4103ZM69.1422 56.6952C68.9216 56.6952 68.7101 56.6075 68.5541 56.4513C68.3982 56.2952 68.3105 56.0834 68.3105 55.8626V49.2296C68.3105 49.0088 68.3982 48.797 68.5541 48.6409C68.7101 48.4847 68.9216 48.397 69.1422 48.397C69.3628 48.397 69.5743 48.4847 69.7303 48.6409C69.8862 48.797 69.9739 49.0088 69.9739 49.2296V55.8626C69.9739 56.0834 69.8862 56.2952 69.7303 56.4513C69.5743 56.6075 69.3628 56.6952 69.1422 56.6952ZM136.451 44.0453C136.23 44.0453 136.019 43.9576 135.863 43.8015C135.707 43.6453 135.619 43.4336 135.619 43.2127V36.5853C135.619 36.3645 135.707 36.1527 135.863 35.9966C136.019 35.8404 136.23 35.7527 136.451 35.7527C136.672 35.7527 136.883 35.8404 137.039 35.9966C137.195 36.1527 137.283 36.3645 137.283 36.5853V43.2127C137.283 43.4336 137.195 43.6453 137.039 43.8015C136.883 43.9576 136.672 44.0453 136.451 44.0453ZM69.1422 42.3302C68.9216 42.3302 68.7101 42.2425 68.5541 42.0863C68.3982 41.9302 68.3105 41.7184 68.3105 41.4976V34.8646C68.3105 34.6438 68.3982 34.432 68.5541 34.2759C68.7101 34.1197 68.9216 34.032 69.1422 34.032C69.3628 34.032 69.5743 34.1197 69.7303 34.2759C69.8862 34.432 69.9739 34.6438 69.9739 34.8646V41.492C69.9746 41.6018 69.9536 41.7107 69.9122 41.8124C69.8707 41.914 69.8095 42.0065 69.7322 42.0844C69.6549 42.1623 69.563 42.2241 69.4617 42.2663C69.3605 42.3085 69.2519 42.3302 69.1422 42.3302ZM135.98 29.7081C135.784 29.708 135.594 29.6382 135.445 29.5111C135.296 29.384 135.196 29.2079 135.165 29.0142C134.803 26.888 134.235 24.8022 133.468 22.7864C133.4 22.5827 133.413 22.3604 133.504 22.1661C133.596 21.9717 133.759 21.8203 133.96 21.7436C134.16 21.6669 134.383 21.6708 134.58 21.7544C134.778 21.8381 134.936 21.9951 135.021 22.1925C135.828 24.3061 136.424 26.4944 136.8 28.7256C136.837 28.9427 136.787 29.1656 136.66 29.3456C136.533 29.5255 136.341 29.6479 136.124 29.6859L135.98 29.7081ZM69.9461 28.0429C69.8853 28.0483 69.824 28.0483 69.7632 28.0429C69.6565 28.0192 69.5555 27.9748 69.466 27.912C69.3765 27.8493 69.3002 27.7695 69.2415 27.6772C69.1828 27.585 69.1428 27.482 69.1239 27.3743C69.1049 27.2665 69.1074 27.1561 69.1311 27.0493C69.6222 24.8363 70.3316 22.6776 71.2491 20.6051C71.2922 20.5028 71.3556 20.4104 71.4354 20.3334C71.5152 20.2563 71.6098 20.1963 71.7135 20.1569C71.8171 20.1174 71.9276 20.0995 72.0384 20.104C72.1492 20.1085 72.2579 20.1355 72.3579 20.1832C72.4595 20.2271 72.5514 20.2909 72.628 20.3708C72.7047 20.4507 72.7647 20.5451 72.8044 20.6485C72.8442 20.7518 72.8629 20.8621 72.8596 20.9729C72.8562 21.0836 72.8308 21.1925 72.7849 21.2933C71.9147 23.2572 71.2405 25.3024 70.7722 27.399C70.7249 27.5813 70.6177 27.7423 70.4678 27.8561C70.318 27.9698 70.1342 28.0298 69.9461 28.0262V28.0429ZM130.679 16.4976C130.543 16.4978 130.41 16.4645 130.29 16.4006C130.17 16.3367 130.067 16.2442 129.992 16.1312C128.785 14.3438 127.403 12.6814 125.867 11.169C125.709 11.0137 125.62 10.8022 125.619 10.581C125.617 10.3598 125.703 10.147 125.858 9.98949C126.014 9.83197 126.225 9.7426 126.446 9.74104C126.667 9.73948 126.879 9.82585 127.037 9.98116C128.646 11.5749 130.097 13.3224 131.367 15.1987C131.428 15.2889 131.472 15.3905 131.494 15.4975C131.516 15.6046 131.517 15.715 131.497 15.8223C131.476 15.9297 131.434 16.0319 131.374 16.123C131.314 16.2142 131.236 16.2924 131.145 16.3533C131.007 16.4429 130.844 16.4875 130.679 16.4809V16.4976ZM75.9119 15.1044C75.7574 15.1044 75.606 15.0613 75.4747 14.98C75.3433 14.8987 75.2371 14.7824 75.168 14.6441C75.099 14.5058 75.0697 14.351 75.0836 14.197C75.0975 14.043 75.1539 13.8959 75.2466 13.7722C76.6098 11.9606 78.1474 10.2874 79.8373 8.77667C79.9172 8.69659 80.0126 8.63366 80.1176 8.59173C80.2226 8.54979 80.335 8.52973 80.4481 8.53277C80.5611 8.53581 80.6723 8.56189 80.7749 8.60941C80.8775 8.65693 80.9694 8.72491 81.0449 8.80917C81.1203 8.89343 81.1779 8.99221 81.2139 9.09948C81.25 9.20675 81.2638 9.32026 81.2546 9.43307C81.2454 9.54588 81.2133 9.65561 81.1602 9.75558C81.1072 9.85554 81.0344 9.94363 80.9462 10.0145C79.3387 11.452 77.8755 13.0433 76.5772 14.7658C76.4983 14.8668 76.3973 14.9484 76.282 15.0042C76.1666 15.06 76.04 15.0886 75.9119 15.0877V15.1044ZM120.389 6.64524C120.236 6.6462 120.086 6.60387 119.956 6.52312C118.121 5.39168 116.179 4.44529 114.157 3.69786C114.043 3.67073 113.937 3.61996 113.844 3.54887C113.752 3.47777 113.675 3.38794 113.619 3.28521C113.563 3.18249 113.53 3.06917 113.521 2.95264C113.512 2.83611 113.527 2.71897 113.567 2.60885C113.606 2.49873 113.668 2.3981 113.748 2.3135C113.829 2.2289 113.926 2.16223 114.034 2.11782C114.142 2.07342 114.258 2.05228 114.375 2.05578C114.492 2.05928 114.606 2.08734 114.711 2.13813C116.837 2.92254 118.88 3.91538 120.81 5.10216C120.965 5.19699 121.085 5.34004 121.151 5.50944C121.217 5.67884 121.226 5.86528 121.177 6.04024C121.127 6.21521 121.021 6.36908 120.876 6.47833C120.731 6.58758 120.554 6.6462 120.372 6.64524H120.389ZM86.6902 5.76824C86.5047 5.76918 86.3242 5.70801 86.1775 5.59448C86.0307 5.48094 85.926 5.32154 85.8802 5.14162C85.8343 4.96171 85.8498 4.7716 85.9242 4.60152C85.9987 4.43144 86.1277 4.29115 86.291 4.20296C88.2783 3.11757 90.3675 2.23074 92.5284 1.55532C92.7345 1.5036 92.9526 1.53282 93.1379 1.637C93.3231 1.74118 93.4615 1.91241 93.5247 2.11553C93.5878 2.31866 93.5709 2.53828 93.4774 2.72931C93.3839 2.92034 93.2209 3.06829 93.0218 3.1428C90.9667 3.78621 88.9796 4.63025 87.0894 5.66277C86.9676 5.73188 86.8301 5.76822 86.6902 5.76824ZM106.955 1.9161H106.855C104.716 1.65434 102.556 1.60044 100.407 1.75514C100.186 1.77133 99.9684 1.69914 99.801 1.55445C99.6336 1.40976 99.5305 1.20442 99.5143 0.9836C99.4981 0.762782 99.5703 0.544579 99.7148 0.376988C99.8593 0.209396 100.064 0.106147 100.285 0.0899536C102.542 -0.0713694 104.809 -0.0156103 107.055 0.25647C107.275 0.269719 107.482 0.370147 107.628 0.535657C107.775 0.701167 107.85 0.918203 107.836 1.13902C107.823 1.35984 107.723 1.56635 107.558 1.71312C107.392 1.85989 107.175 1.93491 106.955 1.92166V1.9161Z" fill="#FAFAFA"/>
<path d="M69.1422 67.8242C68.9216 67.8242 68.7101 67.7364 68.5541 67.5803C68.3982 67.4242 68.3105 67.2124 68.3105 66.9916V63.6612C68.3105 63.4404 68.3982 63.2286 68.5541 63.0725C68.7101 62.9163 68.9216 62.8286 69.1422 62.8286C69.3628 62.8286 69.5743 62.9163 69.7303 63.0725C69.8862 63.2286 69.9739 63.4404 69.9739 63.6612V66.9916C69.9739 67.2124 69.8862 67.4242 69.7303 67.5803C69.5743 67.7364 69.3628 67.8242 69.1422 67.8242Z" fill="#FAFAFA"/>
</g>
<path d="M159.615 134.271C153.254 134.262 147.155 131.728 142.657 127.225C138.159 122.721 135.628 116.616 135.619 110.247V89.2273C135.619 89.0064 135.707 88.7947 135.863 88.6385C136.019 88.4824 136.23 88.3947 136.451 88.3947C136.671 88.3947 136.883 88.4824 137.039 88.6385C137.195 88.7947 137.282 89.0064 137.282 89.2273V110.247C137.282 116.177 139.635 121.864 143.824 126.057C148.012 130.25 153.692 132.605 159.615 132.605C165.538 132.605 171.219 130.25 175.407 126.057C179.595 121.864 181.948 116.177 181.948 110.247V52.3267C181.948 52.1059 182.036 51.8941 182.192 51.738C182.348 51.5819 182.559 51.4941 182.78 51.4941C183 51.4941 183.212 51.5819 183.368 51.738C183.524 51.8941 183.611 52.1059 183.611 52.3267V110.247C183.603 116.616 181.072 122.721 176.573 127.225C172.075 131.728 165.977 134.262 159.615 134.271Z" fill="#407BFF"/>
<path opacity="0.3" d="M159.615 134.271C153.254 134.262 147.155 131.728 142.657 127.225C138.159 122.721 135.628 116.616 135.619 110.247V89.2273C135.619 89.0064 135.707 88.7947 135.863 88.6385C136.019 88.4824 136.23 88.3947 136.451 88.3947C136.671 88.3947 136.883 88.4824 137.039 88.6385C137.195 88.7947 137.282 89.0064 137.282 89.2273V110.247C137.282 116.177 139.635 121.864 143.824 126.057C148.012 130.25 153.692 132.605 159.615 132.605C165.538 132.605 171.219 130.25 175.407 126.057C179.595 121.864 181.948 116.177 181.948 110.247V52.3267C181.948 52.1059 182.036 51.8941 182.192 51.738C182.348 51.5819 182.559 51.4941 182.78 51.4941C183 51.4941 183.212 51.5819 183.368 51.738C183.524 51.8941 183.611 52.1059 183.611 52.3267V110.247C183.603 116.616 181.072 122.721 176.573 127.225C172.075 131.728 165.977 134.262 159.615 134.271Z" fill="black"/>
<path d="M53.1356 194.689H94.0753C94.8599 194.697 95.6375 194.541 96.3585 194.232C97.0796 193.922 97.7284 193.466 98.2636 192.891C98.7987 192.317 99.2085 191.637 99.4668 190.896C99.7251 190.154 99.8263 189.367 99.7639 188.584L91.6802 73.1307C91.534 71.4833 90.7843 69.9483 89.5754 68.8211C88.3666 67.6939 86.784 67.0541 85.1322 67.025H44.2147C43.4299 67.0163 42.652 67.1715 41.9305 67.4807C41.209 67.79 40.5599 68.2465 40.0245 68.8211C39.4892 69.3956 39.0795 70.0757 38.8215 70.8177C38.5635 71.5598 38.4629 72.3475 38.5262 73.1307L46.5877 188.584C46.7339 190.231 47.4836 191.766 48.6924 192.893C49.9013 194.02 51.4839 194.66 53.1356 194.689Z" fill="#407BFF"/>
<path opacity="0.3" d="M53.1356 194.689H94.0753C94.8599 194.697 95.6375 194.541 96.3585 194.232C97.0796 193.922 97.7284 193.466 98.2636 192.891C98.7987 192.317 99.2085 191.637 99.4668 190.896C99.7251 190.154 99.8263 189.367 99.7639 188.584L91.6802 73.1307C91.534 71.4833 90.7843 69.9483 89.5754 68.8211C88.3666 67.6939 86.784 67.0541 85.1322 67.025H44.2147C43.4299 67.0163 42.652 67.1715 41.9305 67.4807C41.209 67.79 40.5599 68.2465 40.0245 68.8211C39.4892 69.3956 39.0795 70.0757 38.8215 70.8177C38.5635 71.5598 38.4629 72.3475 38.5262 73.1307L46.5877 188.584C46.7339 190.231 47.4836 191.766 48.6924 192.893C49.9013 194.02 51.4839 194.66 53.1356 194.689Z" fill="#FAFAFA"/>
<path d="M57.5481 194.689H98.4933C99.2778 194.697 100.055 194.541 100.777 194.232C101.498 193.922 102.146 193.466 102.682 192.891C103.217 192.317 103.626 191.637 103.885 190.896C104.143 190.154 104.244 189.367 104.182 188.584L96.1148 73.1307C95.9711 71.4833 95.2229 69.9477 94.0147 68.8201C92.8065 67.6926 91.2239 67.053 89.5724 67.025H48.6327C47.8479 67.0163 47.0699 67.1715 46.3484 67.4807C45.627 67.79 44.9778 68.2465 44.4425 68.8211C43.9072 69.3956 43.4974 70.0757 43.2395 70.8177C42.9815 71.5598 42.8809 72.3475 42.9442 73.1307L51.0057 188.584C51.1506 190.231 51.8991 191.765 53.107 192.893C54.315 194.02 55.8969 194.66 57.5481 194.689Z" fill="#407BFF"/>
<path opacity="0.6" d="M57.5481 194.689H98.4933C99.2778 194.697 100.055 194.541 100.777 194.232C101.498 193.922 102.146 193.466 102.682 192.891C103.217 192.317 103.626 191.637 103.885 190.896C104.143 190.154 104.244 189.367 104.182 188.584L96.1148 73.1307C95.9711 71.4833 95.2229 69.9477 94.0147 68.8201C92.8065 67.6926 91.2239 67.053 89.5724 67.025H48.6327C47.8479 67.0163 47.0699 67.1715 46.3484 67.4807C45.627 67.79 44.9778 68.2465 44.4425 68.8211C43.9072 69.3956 43.4974 70.0757 43.2395 70.8177C42.9815 71.5598 42.8809 72.3475 42.9442 73.1307L51.0057 188.584C51.1506 190.231 51.8991 191.765 53.107 192.893C54.315 194.02 55.8969 194.66 57.5481 194.689Z" fill="#FAFAFA"/>
<path d="M52.4979 188.056H102.547C102.654 188.056 102.759 188.035 102.857 187.992C102.955 187.95 103.044 187.887 103.116 187.809C103.189 187.731 103.245 187.639 103.281 187.538C103.316 187.437 103.331 187.33 103.323 187.224L95.4668 74.7569C95.4541 74.5596 95.3668 74.3746 95.2225 74.2395C95.0783 74.1044 94.8881 74.0294 94.6906 74.0298H44.6415C44.5344 74.0303 44.4286 74.0528 44.3306 74.0959C44.2327 74.139 44.1445 74.2017 44.0718 74.2803C43.999 74.3589 43.9431 74.4516 43.9076 74.5527C43.8721 74.6537 43.8577 74.7611 43.8653 74.8679L51.7216 187.329C51.7343 187.526 51.8217 187.711 51.9659 187.847C52.1101 187.982 52.3003 188.057 52.4979 188.056Z" fill="#FAFAFA"/>
<path d="M49.1166 124.602L52.7814 115.449C53.2194 114.366 54.7829 114.366 55.6035 115.449L62.4952 124.602C63.3102 125.712 62.7668 127.05 61.5138 127.05H59.1186C61.597 135.109 69.0985 141.514 77.3319 142.591C78.0299 142.69 78.6805 143.002 79.1945 143.485C79.7086 143.968 80.0612 144.598 80.2039 145.289C80.2909 145.655 80.2835 146.037 80.1824 146.4C80.0812 146.762 79.8898 147.093 79.6259 147.361C79.3621 147.629 79.0345 147.826 78.6739 147.932C78.3134 148.039 77.9317 148.052 77.5648 147.97C66.6146 146.549 56.6403 137.873 53.6463 127.061H50.9573C49.7043 127.05 48.6786 125.69 49.1166 124.602Z" fill="#407BFF"/>
<path d="M72.9466 104.075C72.86 103.71 72.8674 103.328 72.9683 102.966C73.0692 102.604 73.2601 102.274 73.5232 102.006C73.7864 101.738 74.1131 101.542 74.4729 101.435C74.8326 101.328 75.2136 101.314 75.5802 101.394C86.5303 102.815 96.5047 111.491 99.4986 122.304H102.215C103.468 122.304 104.494 123.664 104.056 124.746L100.391 133.899C99.9588 135.009 98.3897 135.009 97.5692 133.899L90.6498 124.751C89.8348 123.669 90.3781 122.309 91.6311 122.309H94.0319C91.548 114.25 84.052 107.844 75.813 106.767C75.1168 106.668 74.468 106.356 73.9551 105.875C73.4422 105.393 73.09 104.765 72.9466 104.075Z" fill="#407BFF"/>
<g opacity="0.3">
<path d="M49.1166 124.601L52.7814 115.448C53.2194 114.366 54.7829 114.366 55.6035 115.448L62.4952 124.601C63.3102 125.712 62.7668 127.049 61.5138 127.049H59.1186C61.597 135.109 69.0985 141.514 77.3319 142.591C78.0299 142.69 78.6805 143.002 79.1945 143.485C79.7086 143.967 80.0612 144.598 80.2039 145.289C80.2909 145.655 80.2835 146.037 80.1824 146.399C80.0812 146.762 79.8898 147.093 79.6259 147.361C79.3621 147.629 79.0345 147.825 78.6739 147.932C78.3134 148.038 77.9317 148.051 77.5648 147.97C66.6146 146.549 56.6403 137.873 53.6463 127.06H50.9573C49.7043 127.049 48.6786 125.689 49.1166 124.601Z" fill="black"/>
<path d="M72.9466 104.075C72.86 103.71 72.8674 103.328 72.9683 102.966C73.0692 102.604 73.2601 102.274 73.5232 102.006C73.7864 101.738 74.1131 101.542 74.4729 101.435C74.8326 101.328 75.2136 101.314 75.5802 101.394C86.5303 102.815 96.5047 111.491 99.4986 122.304H102.215C103.468 122.304 104.494 123.664 104.056 124.746L100.391 133.899C99.9588 135.009 98.3897 135.009 97.5692 133.899L90.6498 124.751C89.8348 123.669 90.3781 122.309 91.6311 122.309H94.0319C91.548 114.25 84.052 107.844 75.813 106.767C75.1168 106.668 74.468 106.356 73.9551 105.875C73.4422 105.393 73.09 104.765 72.9466 104.075Z" fill="black"/>
</g>
<path d="M60.6821 70.2333C60.7015 70.4935 60.8176 70.737 61.0074 70.9158C61.1973 71.0946 61.4472 71.1957 61.7078 71.1991C61.8321 71.2011 61.9554 71.177 62.0697 71.1283C62.1841 71.0796 62.2869 71.0074 62.3716 70.9163C62.4563 70.8252 62.5209 70.7174 62.5613 70.5997C62.6017 70.4821 62.6169 70.3572 62.606 70.2333C62.5894 69.9691 62.4741 69.7208 62.283 69.5378C62.092 69.3548 61.8392 69.2503 61.5748 69.2453C61.4486 69.2428 61.3235 69.2674 61.2077 69.3175C61.0919 69.3676 60.9882 69.442 60.9035 69.5357C60.8189 69.6293 60.7554 69.7401 60.7172 69.8604C60.679 69.9808 60.667 70.1079 60.6821 70.2333Z" fill="#407BFF"/>
<path opacity="0.4" d="M60.6821 70.2333C60.7015 70.4935 60.8176 70.737 61.0074 70.9158C61.1973 71.0946 61.4472 71.1957 61.7078 71.1991C61.8321 71.2011 61.9554 71.177 62.0697 71.1283C62.1841 71.0796 62.2869 71.0074 62.3716 70.9163C62.4563 70.8252 62.5209 70.7174 62.5613 70.5997C62.6017 70.4821 62.6169 70.3572 62.606 70.2333C62.5894 69.9691 62.4741 69.7208 62.283 69.5378C62.092 69.3548 61.8392 69.2503 61.5748 69.2453C61.4486 69.2428 61.3235 69.2674 61.2077 69.3175C61.0919 69.3676 60.9882 69.442 60.9035 69.5357C60.8189 69.6293 60.7554 69.7401 60.7172 69.8604C60.679 69.9808 60.667 70.1079 60.6821 70.2333Z" fill="#FAFAFA"/>
<path d="M65.6214 71.199H76.2777C76.4012 71.1994 76.5235 71.1741 76.6368 71.1248C76.7501 71.0754 76.8519 71.003 76.9358 70.9123C77.0197 70.8215 77.0839 70.7142 77.1242 70.5974C77.1646 70.4805 77.1803 70.3564 77.1703 70.2332C77.1552 69.9713 77.0426 69.7246 76.8548 69.5417C76.667 69.3589 76.4176 69.253 76.1557 69.2452H65.5105C65.3865 69.244 65.2636 69.2687 65.1496 69.3177C65.0357 69.3667 64.9332 69.439 64.8487 69.5298C64.7642 69.6207 64.6995 69.7282 64.6588 69.8455C64.6181 69.9627 64.6023 70.0872 64.6123 70.211C64.6298 70.471 64.7423 70.7156 64.9284 70.8978C65.1146 71.0801 65.3613 71.1873 65.6214 71.199Z" fill="#407BFF"/>
<path opacity="0.4" d="M65.6214 71.199H76.2777C76.4012 71.1994 76.5235 71.1741 76.6368 71.1248C76.7501 71.0754 76.8519 71.003 76.9358 70.9123C77.0197 70.8215 77.0839 70.7142 77.1242 70.5974C77.1646 70.4805 77.1803 70.3564 77.1703 70.2332C77.1552 69.9713 77.0426 69.7246 76.8548 69.5417C76.667 69.3589 76.4176 69.253 76.1557 69.2452H65.5105C65.3865 69.244 65.2636 69.2687 65.1496 69.3177C65.0357 69.3667 64.9332 69.439 64.8487 69.5298C64.7642 69.6207 64.6995 69.7282 64.6588 69.8455C64.6181 69.9627 64.6023 70.0872 64.6123 70.211C64.6298 70.471 64.7423 70.7156 64.9284 70.8978C65.1146 71.0801 65.3613 71.1873 65.6214 71.199Z" fill="#FAFAFA"/>
</svg>
