<svg width="250" height="200" viewBox="0 0 250 200" fill="none" xmlns="http://www.w3.org/2000/svg">
<path d="M50.7748 80.4547C50.2733 81.9698 49.466 83.3653 48.4029 84.5545C47.4542 85.6541 46.4512 85.9392 45.123 85.3464C44.4877 85.0338 43.7912 84.866 43.0835 84.855C42.3758 84.8441 41.6745 84.9902 41.0298 85.283C39.5254 85.9346 38.8071 85.6631 37.7047 84.3418C35.7241 82.0384 34.6836 79.0717 34.7907 76.0337C34.8449 74.0789 35.5542 72.3322 37.2575 71.1919C37.8723 70.7583 38.5937 70.5013 39.3438 70.4486C40.0939 70.396 40.8441 70.5497 41.5133 70.8932C41.9447 71.115 42.4213 71.2345 42.9063 71.2423C43.3912 71.2502 43.8714 71.1462 44.3098 70.9384C45.0353 70.5729 45.8399 70.3927 46.6518 70.414C47.4637 70.4354 48.2577 70.6575 48.9631 71.0606C49.0915 71.1311 49.2153 71.2097 49.3336 71.2959C50.3953 72.0788 50.4043 72.201 49.4782 73.106C49.0146 73.5683 48.6574 74.1264 48.4317 74.7414C48.206 75.3564 48.1171 76.0133 48.1713 76.6663C48.2255 77.3193 48.4215 77.9525 48.7456 78.5217C49.0697 79.0909 49.514 79.5823 50.0474 79.9615L50.7748 80.4547Z" fill="#E0E0E0"/>
<path d="M46.7604 65.6759C47.1219 67.7031 44.881 70.382 42.979 70.0155C42.5408 67.6624 45.247 65.4225 46.7604 65.6759Z" fill="#E0E0E0"/>
<path d="M56.7651 93.1841C57.218 93.1701 57.6648 93.0751 58.0843 92.9035C58.684 92.6543 59.2026 92.2431 59.5824 91.7157C59.9621 91.1883 60.188 90.5655 60.2348 89.9169C60.2348 86.5186 60.2348 81.6088 60.2348 75.5407C60.2348 72.5043 60.2348 69.1784 60.2348 65.6081V62.893C60.2348 62.4405 60.2348 61.9609 60.2348 61.4993C60.2154 61.0381 60.1032 60.5856 59.905 60.1689C59.7015 59.7419 59.413 59.361 59.0572 59.0497C58.7013 58.7385 58.2857 58.5034 57.8358 58.3589C57.3709 58.225 56.8864 58.173 56.4037 58.205H28.845C27.9997 58.2068 27.1848 58.5207 26.5562 59.0868C25.9277 59.6529 25.5297 60.4313 25.4385 61.273C25.4024 61.8206 25.4385 62.3998 25.4385 62.9609V69.6309C25.4385 74.0022 25.4385 78.2286 25.4385 82.2288V88.1114C25.4385 88.5866 25.4385 89.0572 25.4385 89.5232C25.4251 89.9854 25.4987 90.4459 25.6554 90.8808C25.9643 91.7239 26.5902 92.4125 27.3993 92.7994C27.7886 92.9871 28.2104 93.0977 28.6417 93.1252C29.0709 93.1524 29.5091 93.1252 29.9383 93.1252H37.1442L51.5019 93.1569H55.4053H56.4218H56.7651C56.7651 93.1569 56.6477 93.1569 56.4218 93.1569H55.4053H51.5019L37.1442 93.1886H29.857C29.4052 93.1886 28.9986 93.1886 28.5513 93.1886C28.1004 93.1571 27.6592 93.042 27.2502 92.8492C26.4036 92.4442 25.7475 91.7253 25.4204 90.8446C25.2593 90.3965 25.1827 89.9224 25.1946 89.4463C25.1946 88.9938 25.1946 88.5096 25.1946 88.0345C25.1946 86.1279 25.1946 84.167 25.1946 82.1519C25.1946 78.1381 25.1946 73.9252 25.1946 69.554V62.1328C25.1946 61.8477 25.1946 61.5626 25.1946 61.273C25.2887 60.3803 25.7106 59.5543 26.3785 58.9556C27.0464 58.3569 27.9125 58.0281 28.8088 58.0331H54.8857H56.3766C56.878 58.0028 57.3808 58.0594 57.8629 58.2005C58.3336 58.3509 58.7684 58.5964 59.1406 58.9217C59.5128 59.247 59.8145 59.6453 60.027 60.092C60.2365 60.5294 60.3534 61.0054 60.3703 61.4902C60.3703 61.9428 60.3703 62.4224 60.3703 62.8885C60.3703 63.7935 60.3703 64.6985 60.3703 65.6036C60.3703 69.1739 60.3703 72.4998 60.3703 75.5362C60.3703 81.6089 60.3703 86.5186 60.3252 89.9169C60.266 90.7511 59.912 91.5369 59.3266 92.1332C58.7412 92.7295 57.9628 93.0972 57.1311 93.1705L56.7651 93.1841Z" fill="#E0E0E0"/>
<path d="M65.4191 18.9733C65.42 19.2043 65.3524 19.4305 65.2248 19.6231C65.0973 19.8157 64.9156 19.966 64.7027 20.0551C64.4898 20.1441 64.2553 20.1679 64.0289 20.1234C63.8025 20.0788 63.5944 19.968 63.4309 19.8049C63.2674 19.6418 63.156 19.4338 63.1106 19.2072C63.0653 18.9806 63.0881 18.7456 63.1762 18.5321C63.2643 18.3185 63.4137 18.1359 63.6054 18.0074C63.7972 17.8789 64.0228 17.8103 64.2535 17.8103C64.5618 17.8103 64.8576 17.9327 65.0761 18.1506C65.2946 18.3686 65.4179 18.6644 65.4191 18.9733Z" fill="#E0E0E0"/>
<path d="M89.8398 180.913V193.592H108.349H128.77V180.913H89.8398Z" fill="#F5F5F5"/>
<path d="M88.2031 177.37V180.913H130.129V177.37H108.348H88.2031Z" fill="#E0E0E0"/>
<path d="M109.167 193.592H128.77V180.913H130.13V177.37H108.35V180.587L109.167 193.592Z" fill="#E0E0E0"/>
<path d="M103.18 182.958H95.2832V184.868H103.18V182.958Z" fill="#E0E0E0"/>
<path d="M104.404 187.253H94.2656V191.285H104.404V187.253Z" fill="white"/>
<path d="M216.714 114.132H176.641V190.004H216.714V114.132Z" fill="#E0E0E0"/>
<path d="M204.817 114.132H164.744V190.004H204.817V114.132Z" fill="#F5F5F5"/>
<path d="M201.869 129.752H167.475V117.725H201.869V129.752ZM167.895 129.327H201.449V118.145H167.895V129.327Z" fill="#E0E0E0"/>
<path d="M178.376 117.933H191.45V118.091C191.45 118.685 191.215 119.255 190.795 119.675C190.376 120.095 189.807 120.331 189.214 120.331H180.607C180.014 120.331 179.445 120.095 179.026 119.675C178.607 119.255 178.371 118.685 178.371 118.091V117.933H178.376Z" fill="#EBEBEB"/>
<path d="M201.869 145.029H167.475V133.001H201.869V145.029ZM167.895 144.604H201.449V133.422H167.895V144.604Z" fill="#E0E0E0"/>
<path d="M178.376 133.214H191.45V133.372C191.45 133.967 191.215 134.536 190.795 134.956C190.376 135.376 189.807 135.612 189.214 135.612H180.607C180.014 135.612 179.445 135.376 179.026 134.956C178.607 134.536 178.371 133.967 178.371 133.372V133.214H178.376Z" fill="#EBEBEB"/>
<path d="M201.869 160.306H167.475V148.278H201.869V160.306ZM167.895 159.88H201.449V148.703H167.895V159.88Z" fill="#E0E0E0"/>
<path d="M178.376 148.491H191.45V148.649C191.45 149.243 191.215 149.813 190.795 150.233C190.376 150.653 189.807 150.889 189.214 150.889H180.607C180.014 150.889 179.445 150.653 179.026 150.233C178.607 149.813 178.371 149.243 178.371 148.649V148.491H178.376Z" fill="#EBEBEB"/>
<path d="M201.869 175.569H167.475V163.555H201.869V175.569ZM167.895 175.143H201.449V163.966H167.895V175.143Z" fill="#E0E0E0"/>
<path d="M178.376 163.768H191.45V163.912C191.453 164.21 191.397 164.506 191.284 164.782C191.172 165.058 191.006 165.308 190.795 165.519C190.585 165.73 190.335 165.896 190.059 166.009C189.784 166.122 189.489 166.178 189.191 166.175H180.607C180.014 166.175 179.445 165.939 179.026 165.519C178.607 165.099 178.371 164.529 178.371 163.935V163.777L178.376 163.768Z" fill="#EBEBEB"/>
<path d="M206.493 111.294H162.969V115.073H206.493V111.294Z" fill="#EBEBEB"/>
<path d="M219.582 111.294H206.494V115.073H219.582V111.294Z" fill="#E0E0E0"/>
<path d="M166.849 190.004H164.744V193.878H166.849V190.004Z" fill="#E0E0E0"/>
<path d="M179.861 190.004H177.756V193.878H179.861V190.004Z" fill="#E0E0E0"/>
<path d="M203.631 190.004H201.525V193.878H203.631V190.004Z" fill="#E0E0E0"/>
<path d="M215.517 190.004H213.412V193.878H215.517V190.004Z" fill="#E0E0E0"/>
<path d="M215.216 41.5671L208.354 36.0012L215.216 41.5671Z" fill="white"/>
<path d="M216.739 193.882C216.739 193.945 172.916 194 118.874 194C64.8319 194 21 193.945 21 193.882C21 193.819 64.8229 193.764 118.874 193.764C172.925 193.764 216.739 193.814 216.739 193.882Z" fill="#263238"/>
<path d="M131.625 168.876L76.3722 168.84C74.7922 168.84 73.2279 168.527 71.7684 167.921C70.309 167.315 68.9831 166.427 67.8663 165.308C66.7495 164.188 65.8638 162.859 65.2598 161.397C64.6557 159.935 64.3451 158.368 64.3457 156.785L64.3728 18.0503C64.374 14.8548 65.6419 11.7904 67.8979 9.53079C70.1539 7.27117 73.2133 6.0012 76.4038 6L131.652 6.03168C133.234 6.03168 134.8 6.34375 136.261 6.95008C137.722 7.5564 139.049 8.44509 140.167 9.56539C141.286 10.6857 142.172 12.0156 142.777 13.4793C143.382 14.9429 143.693 16.5116 143.692 18.0956L143.665 156.826C143.665 158.409 143.353 159.977 142.747 161.439C142.142 162.901 141.255 164.23 140.137 165.349C139.019 166.468 137.692 167.355 136.231 167.961C134.771 168.566 133.206 168.877 131.625 168.876Z" fill="#263238"/>
<path d="M131.48 10.982H120.768C120.065 10.9986 119.397 11.2936 118.91 11.8024C118.423 12.3112 118.157 12.9924 118.171 13.697V15.6428C118.184 16.3474 117.918 17.0287 117.431 17.5375C116.945 18.0463 116.276 18.3413 115.573 18.3579H94.6916C93.9878 18.3413 93.3191 18.0464 92.8316 17.5377C92.344 17.0291 92.0772 16.3479 92.0893 15.6428V13.6789C92.1027 12.9743 91.8368 12.2931 91.35 11.7843C90.8632 11.2755 90.195 10.9805 89.4916 10.9639H76.3447C74.1108 10.9615 71.9674 11.8477 70.3857 13.4277C68.804 15.0077 67.9135 17.1522 67.9099 19.3896L67.8828 154.803C67.884 157.042 68.772 159.188 70.3517 160.771C71.9315 162.354 74.0739 163.245 76.3086 163.247L131.426 163.279C132.533 163.28 133.63 163.063 134.653 162.639C135.676 162.215 136.606 161.594 137.39 160.81C138.173 160.026 138.795 159.096 139.219 158.071C139.643 157.047 139.861 155.949 139.861 154.839L139.888 19.4258C139.888 17.1903 139.003 15.046 137.427 13.4631C135.851 11.8802 133.712 10.988 131.48 10.982Z" fill="white"/>
<path d="M139.706 33.5806C139.706 33.6168 123.632 33.6484 103.807 33.6484C83.9832 33.6484 67.9043 33.6168 67.9043 33.5806C67.9043 33.5444 83.9742 33.5127 103.807 33.5127C123.641 33.5127 139.706 33.5398 139.706 33.5806Z" fill="#EBEBEB"/>
<path d="M77.9042 27.1459C77.8498 27.1457 77.797 27.1265 77.7551 27.0916L75.6543 25.2454C75.6316 25.2238 75.6134 25.1979 75.601 25.1691C75.5886 25.1403 75.5821 25.1093 75.5821 25.0779C75.5815 25.046 75.5881 25.0144 75.6014 24.9854C75.6147 24.9565 75.6344 24.9308 75.6589 24.9105L77.7597 23.1638C77.7822 23.1454 77.8081 23.1315 77.836 23.1232C77.8639 23.1148 77.8931 23.112 77.9221 23.1149C77.951 23.1178 77.9791 23.1265 78.0047 23.1403C78.0304 23.1541 78.053 23.1729 78.0714 23.1955C78.0905 23.2171 78.1051 23.2424 78.1141 23.2699C78.1231 23.2974 78.1265 23.3264 78.1239 23.3552C78.1214 23.384 78.113 23.412 78.0993 23.4374C78.0856 23.4629 78.0669 23.4852 78.0443 23.5032L76.1423 25.087L78.0488 26.7613C78.0923 26.8011 78.1189 26.8562 78.1231 26.9151C78.1273 26.9741 78.1088 27.0324 78.0714 27.078C78.0497 27.1002 78.0236 27.1177 77.9949 27.1294C77.9661 27.1411 77.9353 27.1467 77.9042 27.1459Z" fill="#263238"/>
<path d="M119.998 25.648C119.998 25.7114 113.93 25.7657 106.444 25.7657C98.9581 25.7657 92.8906 25.7114 92.8906 25.648C92.8906 25.5847 98.9535 25.5349 106.444 25.5349C113.935 25.5349 119.998 25.5847 119.998 25.648Z" fill="#263238"/>
<path d="M92.9844 94.3843L93.1425 94.0675C93.4975 94.3695 93.9509 94.5305 94.4165 94.52C95.1394 94.52 95.4556 94.2168 95.4556 93.8367C95.4556 92.7733 93.0793 93.4249 93.0793 91.995C93.0793 91.4248 93.531 90.9361 94.5024 90.9361C94.9256 90.9323 95.3411 91.0501 95.6996 91.2755L95.5595 91.6013C95.2436 91.3988 94.8774 91.2891 94.5024 91.2846C93.7976 91.2846 93.4813 91.5968 93.4813 91.9859C93.4813 93.0448 95.8577 92.4023 95.8577 93.796C95.8577 94.3616 95.4059 94.8503 94.4165 94.8503C93.8979 94.8784 93.3874 94.7123 92.9844 94.3843Z" fill="#263238"/>
<path d="M97.9862 93.5154V94.8729H97.5842V93.5154L96.0391 90.9858H96.4908L97.8146 93.1579L99.1383 90.9858H99.5449L97.9862 93.5154Z" fill="#263238"/>
<path d="M99.7109 94.3843L99.8691 94.0675C100.224 94.3695 100.677 94.5305 101.143 94.52C101.866 94.52 102.182 94.2168 102.182 93.8367C102.182 92.7733 99.8058 93.4249 99.8058 91.995C99.8058 91.4248 100.258 90.9361 101.229 90.9361C101.652 90.9323 102.068 91.0501 102.426 91.2755L102.286 91.6013C101.97 91.3988 101.604 91.2891 101.229 91.2846C100.524 91.2846 100.208 91.5968 100.208 91.9859C100.208 93.0448 102.584 92.4023 102.584 93.796C102.584 94.3616 102.132 94.8503 101.143 94.8503C100.624 94.8784 100.114 94.7123 99.7109 94.3843Z" fill="#263238"/>
<path d="M104.166 91.3388H102.811V90.9858H105.932V91.3388H104.577V94.8548H104.166V91.3388Z" fill="#263238"/>
<path d="M109.312 94.4973V94.8548H106.602V90.9858H109.249V91.3388H106.99V92.6963H108.987V93.0448H106.99V94.4792L109.312 94.4973Z" fill="#263238"/>
<path d="M114.281 90.9858V94.8548H113.901V91.7596L112.383 94.3616H112.194L110.676 91.7777V94.8548H110.287V90.9858H110.626L112.302 93.8548L113.96 90.9858H114.281Z" fill="#263238"/>
<path d="M89.791 99.8233V97.5608H90.7262V99.7962C90.7262 100.57 91.0605 100.887 91.6298 100.887C92.199 100.887 92.5333 100.57 92.5333 99.7962V97.5608H93.4595V99.8233C93.4595 101.018 92.7773 101.679 91.6253 101.679C90.4732 101.679 89.791 101.018 89.791 99.8233Z" fill="#263238"/>
<path d="M97.8912 99.0225C97.8912 99.9275 97.2135 100.489 96.1338 100.489H95.3161V101.606H94.3809V97.5337H96.1338C97.2135 97.5518 97.8912 98.1129 97.8912 99.0225ZM96.9425 99.0225C96.9425 98.5699 96.6533 98.3165 96.0796 98.3165H95.3161V99.7239H96.0796C96.6533 99.7239 96.9425 99.4659 96.9425 99.0225Z" fill="#263238"/>
<path d="M101.348 99.5156H102.206V101.163C101.728 101.502 101.156 101.682 100.571 101.679C100.287 101.692 100.004 101.647 99.7389 101.548C99.4734 101.448 99.2308 101.296 99.0257 101.1C98.8207 100.904 98.6575 100.668 98.546 100.407C98.4344 100.146 98.377 99.8652 98.377 99.5813C98.377 99.2973 98.4344 99.0163 98.546 98.7553C98.6575 98.4943 98.8207 98.2586 99.0257 98.0625C99.2308 97.8665 99.4734 97.7141 99.7389 97.6146C100.004 97.5152 100.287 97.4707 100.571 97.4839C100.887 97.4688 101.203 97.5239 101.496 97.6451C101.789 97.7664 102.051 97.9508 102.265 98.1853L101.664 98.7418C101.533 98.5952 101.372 98.4788 101.192 98.4007C101.011 98.3225 100.817 98.2845 100.62 98.2893C100.276 98.2893 99.9465 98.4262 99.7034 98.6697C99.4602 98.9133 99.3236 99.2436 99.3236 99.588C99.3236 99.9325 99.4602 100.263 99.7034 100.506C99.9465 100.75 100.276 100.887 100.62 100.887C100.873 100.892 101.124 100.833 101.348 100.715V99.5156Z" fill="#263238"/>
<path d="M105.652 101.606L104.866 100.48H104.007V101.606H103.059V97.5337H104.812C105.891 97.5337 106.569 98.0948 106.569 99.0043C106.58 99.2784 106.506 99.5491 106.356 99.7787C106.206 100.008 105.988 100.185 105.733 100.285L106.637 101.588L105.652 101.606ZM104.748 98.3165H104.007V99.7329H104.771C105.345 99.7329 105.634 99.4659 105.634 99.0225C105.634 98.579 105.345 98.3165 104.771 98.3165H104.748Z" fill="#263238"/>
<path d="M109.99 100.737H108.11L107.749 101.606H106.791L108.598 97.5337H109.524L111.331 101.606H110.347L109.99 100.737ZM109.691 100.027L109.05 98.4749L108.408 100.027H109.691Z" fill="#263238"/>
<path d="M111.75 97.552H113.589C114.912 97.552 115.821 98.3529 115.821 99.5793C115.821 100.806 114.917 101.606 113.589 101.606H111.75V97.552ZM113.557 100.837C113.89 100.837 114.21 100.705 114.445 100.469C114.681 100.233 114.813 99.9129 114.813 99.5793C114.813 99.2456 114.681 98.9256 114.445 98.6897C114.21 98.4538 113.89 98.3213 113.557 98.3213H112.699V100.837H113.557Z" fill="#263238"/>
<path d="M119.663 100.855V101.606H116.527V97.5337H119.586V98.2894H117.458V99.1673H119.324V99.8958H117.444V100.837L119.663 100.855Z" fill="#263238"/>
<path d="M92.3654 130.029C92.3627 129.836 92.3993 129.645 92.473 129.468C92.5467 129.29 92.6558 129.129 92.7937 128.995C92.9317 128.861 93.0954 128.757 93.275 128.689C93.4547 128.621 93.6463 128.59 93.8382 128.599C94.0284 128.591 94.2181 128.624 94.3948 128.695C94.5715 128.766 94.7312 128.873 94.8637 129.01L94.6785 129.196C94.5698 129.087 94.44 129.001 94.297 128.944C94.1541 128.888 94.001 128.861 93.8472 128.866C93.6883 128.856 93.5291 128.878 93.3794 128.932C93.2296 128.987 93.0925 129.071 92.9765 129.18C92.8605 129.289 92.7681 129.421 92.7049 129.567C92.6417 129.714 92.6091 129.871 92.6091 130.031C92.6091 130.19 92.6417 130.348 92.7049 130.494C92.7681 130.641 92.8605 130.772 92.9765 130.882C93.0925 130.991 93.2296 131.075 93.3794 131.129C93.5291 131.183 93.6883 131.206 93.8472 131.196C94.0018 131.201 94.1558 131.174 94.2991 131.115C94.4423 131.057 94.5716 130.969 94.6785 130.857L94.8637 131.047C94.7307 131.184 94.5702 131.292 94.3927 131.363C94.2151 131.434 94.0246 131.466 93.8337 131.458C93.6421 131.466 93.451 131.435 93.2719 131.367C93.0929 131.298 92.9296 131.194 92.7922 131.06C92.6547 130.926 92.546 130.766 92.4726 130.588C92.3992 130.411 92.3627 130.22 92.3654 130.029Z" fill="#263238"/>
<path d="M97.8448 128.621V131.436H97.5511V130.137H95.7937V131.436H95.5V128.621H95.7937V129.866H97.5511V128.608L97.8448 128.621Z" fill="#263238"/>
<path d="M100.748 131.178V131.436H98.7598V128.621H100.689V128.879H99.0579V129.866H100.513V130.119H99.0579V131.164L100.748 131.178Z" fill="#263238"/>
<path d="M101.18 130.029C101.177 129.836 101.214 129.645 101.288 129.468C101.361 129.29 101.47 129.129 101.608 128.995C101.746 128.861 101.91 128.757 102.09 128.689C102.269 128.621 102.461 128.59 102.653 128.599C102.843 128.591 103.033 128.624 103.209 128.695C103.386 128.766 103.546 128.873 103.678 129.01L103.489 129.196C103.381 129.087 103.252 129.001 103.11 128.944C102.967 128.887 102.815 128.86 102.662 128.866C102.503 128.856 102.344 128.878 102.194 128.932C102.044 128.987 101.907 129.071 101.791 129.18C101.675 129.289 101.583 129.421 101.519 129.567C101.456 129.714 101.424 129.871 101.424 130.031C101.424 130.19 101.456 130.348 101.519 130.494C101.583 130.641 101.675 130.772 101.791 130.882C101.907 130.991 102.044 131.075 102.194 131.129C102.344 131.183 102.503 131.206 102.662 131.196C102.816 131.202 102.969 131.175 103.112 131.116C103.254 131.057 103.383 130.969 103.489 130.857L103.678 131.047C103.545 131.184 103.385 131.292 103.207 131.363C103.03 131.434 102.839 131.466 102.648 131.458C102.457 131.467 102.265 131.436 102.086 131.368C101.906 131.3 101.743 131.196 101.605 131.062C101.468 130.928 101.359 130.767 101.286 130.589C101.213 130.411 101.177 130.221 101.18 130.029Z" fill="#263238"/>
<path d="M105.182 130.115L104.609 130.698V131.436H104.311V128.621H104.609V130.318L106.258 128.617H106.597L105.381 129.893L106.682 131.431H106.33L105.182 130.115Z" fill="#263238"/>
<path d="M107.166 128.621H107.46V131.436H107.166V128.621Z" fill="#263238"/>
<path d="M110.739 128.621V131.436H110.495L108.688 129.173V131.436H108.395V128.621H108.638L110.446 130.907V128.621H110.739Z" fill="#263238"/>
<path d="M113.612 130.029H113.901V131.101C113.613 131.343 113.247 131.47 112.871 131.459C112.492 131.459 112.129 131.308 111.862 131.04C111.594 130.772 111.443 130.408 111.443 130.029C111.443 129.649 111.594 129.286 111.862 129.018C112.129 128.749 112.492 128.599 112.871 128.599C113.064 128.59 113.256 128.621 113.436 128.691C113.616 128.761 113.779 128.869 113.915 129.006L113.729 129.196C113.619 129.086 113.487 129 113.341 128.943C113.196 128.886 113.04 128.86 112.885 128.866C112.726 128.856 112.566 128.879 112.417 128.933C112.267 128.987 112.13 129.071 112.014 129.18C111.898 129.289 111.805 129.421 111.742 129.567C111.679 129.714 111.646 129.871 111.646 130.031C111.646 130.19 111.679 130.348 111.742 130.494C111.805 130.641 111.898 130.773 112.014 130.882C112.13 130.991 112.267 131.075 112.417 131.129C112.566 131.183 112.726 131.206 112.885 131.196C113.146 131.205 113.403 131.129 113.616 130.979L113.612 130.029Z" fill="#263238"/>
<path d="M114.529 131.223C114.529 131.18 114.542 131.138 114.566 131.102C114.59 131.067 114.624 131.039 114.663 131.022C114.703 131.006 114.747 131.002 114.789 131.01C114.831 131.018 114.87 131.039 114.9 131.069C114.93 131.1 114.951 131.139 114.96 131.181C114.968 131.223 114.964 131.266 114.947 131.306C114.931 131.346 114.903 131.38 114.867 131.404C114.831 131.428 114.789 131.44 114.746 131.44C114.689 131.44 114.634 131.417 114.593 131.377C114.552 131.336 114.529 131.281 114.529 131.223Z" fill="#263238"/>
<path d="M115.383 131.223C115.382 131.195 115.387 131.166 115.398 131.14C115.408 131.114 115.424 131.09 115.444 131.07C115.463 131.049 115.487 131.033 115.513 131.022C115.539 131.011 115.567 131.006 115.596 131.006C115.624 131.005 115.653 131.01 115.679 131.021C115.706 131.032 115.73 131.048 115.751 131.068C115.771 131.088 115.787 131.112 115.797 131.139C115.808 131.166 115.813 131.194 115.813 131.223C115.813 131.28 115.79 131.336 115.749 131.376C115.708 131.417 115.653 131.44 115.596 131.44C115.567 131.44 115.539 131.434 115.513 131.423C115.487 131.413 115.463 131.396 115.444 131.376C115.424 131.356 115.408 131.332 115.398 131.306C115.387 131.279 115.382 131.251 115.383 131.223Z" fill="#263238"/>
<path d="M116.232 131.223C116.232 131.195 116.237 131.166 116.247 131.14C116.258 131.114 116.273 131.09 116.293 131.07C116.313 131.049 116.337 131.033 116.363 131.022C116.389 131.011 116.417 131.006 116.445 131.006C116.474 131.005 116.502 131.01 116.529 131.021C116.556 131.032 116.58 131.048 116.6 131.068C116.62 131.088 116.636 131.112 116.647 131.139C116.658 131.166 116.663 131.194 116.662 131.223C116.662 131.28 116.639 131.336 116.599 131.376C116.558 131.417 116.503 131.44 116.445 131.44C116.417 131.44 116.389 131.434 116.363 131.423C116.337 131.413 116.313 131.396 116.293 131.376C116.273 131.356 116.258 131.332 116.247 131.306C116.237 131.279 116.232 131.251 116.232 131.223Z" fill="#263238"/>
<path d="M97.9438 56.7399C98.8262 56.2068 99.7759 55.7944 100.767 55.5136L101.35 52.7126L106.071 52.6311L106.749 55.4095C107.75 55.6539 108.714 56.0329 109.613 56.5363L112.003 54.9706L115.396 58.2558L113.919 60.6994C114.453 61.5826 114.867 62.5339 115.148 63.5275L117.94 64.1068L118.021 68.8355L115.256 69.5188C115.01 70.5215 114.63 71.4865 114.127 72.3877L115.694 74.7769L112.414 78.1798L109.975 76.6956C109.093 77.2301 108.143 77.644 107.151 77.9264L106.568 80.7275L101.847 80.8089L101.17 78.0305C100.169 77.7841 99.2058 77.4052 98.3053 76.9037L95.9198 78.4694L92.5224 75.1842L93.9998 72.7407C93.4672 71.8565 93.054 70.9054 92.7709 69.9125L89.9563 69.3287L89.875 64.6045L92.6444 63.9212C92.8907 62.9185 93.2706 61.9536 93.7739 61.0523L92.2152 58.6631L95.4952 55.2602L97.9348 56.7399H97.9438ZM100.46 63.0388C99.7632 63.7607 99.2955 64.6735 99.1164 65.6617C98.9373 66.6498 99.0549 67.669 99.4541 68.5902C99.8534 69.5115 100.517 70.2934 101.36 70.8372C102.203 71.3809 103.188 71.662 104.19 71.6449C105.193 71.6278 106.168 71.3133 106.992 70.7411C107.816 70.169 108.452 69.3649 108.82 68.4305C109.187 67.4962 109.27 66.4736 109.058 65.4922C108.845 64.5107 108.347 63.6144 107.626 62.9167C106.659 61.9816 105.361 61.4692 104.018 61.4921C102.674 61.515 101.394 62.0713 100.46 63.0388Z" fill="#3999FF"/>
<path d="M120.307 43.7394C120.754 43.6608 121.21 43.6441 121.662 43.6896L122.358 42.6262L124.328 43.3683L124.156 44.6263C124.543 44.89 124.893 45.2051 125.195 45.563L126.438 45.3051L127.305 47.2237L126.298 47.9885C126.372 48.4371 126.387 48.8934 126.343 49.346L127.404 50.0429L126.645 52.0339L125.385 51.8574C125.12 52.2334 124.806 52.5714 124.45 52.862L124.707 54.1064L122.796 54.9797L122.028 53.9661C121.58 54.0408 121.125 54.056 120.673 54.0114L119.973 55.0748L118.007 54.3372L118.179 53.0792C117.806 52.8117 117.469 52.4968 117.176 52.1425L115.934 52.4004L115.062 50.4818L116.074 49.7125C115.999 49.264 115.984 48.8075 116.028 48.355L114.967 47.6581L115.703 45.6852L116.964 45.8571C117.228 45.4837 117.541 45.1474 117.894 44.8571L117.641 43.6082L119.552 42.7393L120.32 43.753L120.307 43.7394ZM120.307 46.7576C119.9 46.9422 119.556 47.2437 119.32 47.624C119.084 48.0042 118.966 48.4461 118.98 48.8936C118.995 49.3412 119.142 49.7743 119.403 50.1381C119.663 50.5019 120.026 50.7801 120.445 50.9374C120.863 51.0947 121.319 51.124 121.754 51.0217C122.189 50.9194 122.585 50.69 122.89 50.3627C123.195 50.0353 123.396 49.6246 123.468 49.1826C123.539 48.7406 123.479 48.2873 123.293 47.8799C123.045 47.3385 122.594 46.917 122.037 46.7069C121.48 46.4968 120.864 46.515 120.32 46.7576H120.307Z" fill="#3999FF"/>
<path d="M85.3501 49.4181C85.6339 49.1374 85.9546 48.8968 86.3034 48.7031L86.2718 47.599L88.0382 47.1465L88.5397 48.1284C88.9387 48.132 89.3354 48.1898 89.7189 48.3004L90.4778 47.4949L92.0455 48.4271L91.7067 49.4769C91.9842 49.7635 92.2241 50.0844 92.4205 50.4317L93.5229 50.4L93.9746 52.1739L92.9943 52.6762C92.9904 53.074 92.9342 53.4696 92.8271 53.8527L93.6268 54.6129L92.6961 56.1831L91.648 55.8437C91.3642 56.1244 91.0435 56.365 90.6947 56.5587L90.7263 57.6628L88.9599 58.1153L88.4584 57.1334C88.0594 57.1298 87.6627 57.072 87.2792 56.9614L86.5202 57.7669L84.9526 56.8347L85.2914 55.7849C85.0139 55.4983 84.774 55.1775 84.5776 54.8301L83.4752 54.8618L83.0234 53.0879L84.0083 52.5857C84.0122 52.1878 84.0684 51.7922 84.1755 51.4091L83.3758 50.6489L84.3065 49.0787L85.3546 49.4181H85.3501ZM86.8546 51.5585C86.6572 51.8916 86.5628 52.2759 86.5834 52.6627C86.604 53.0495 86.7386 53.4216 86.9702 53.7318C87.2018 54.042 87.52 54.2765 87.8847 54.4057C88.2493 54.5348 88.644 54.5528 89.0188 54.4574C89.3936 54.3619 89.7318 54.1574 89.9906 53.8695C90.2494 53.5816 90.4172 53.2233 90.4728 52.84C90.5283 52.4566 90.4692 52.0654 90.3029 51.7156C90.1365 51.3659 89.8704 51.0735 89.5381 50.8752C89.3157 50.7449 89.0698 50.6598 88.8145 50.6247C88.5592 50.5897 88.2995 50.6054 88.0503 50.671C87.801 50.7365 87.5671 50.8507 87.362 51.0068C87.1568 51.163 86.9844 51.3581 86.8546 51.5811V51.5585Z" fill="#3999FF"/>
<path d="M126.498 113.865H82.526C79.7265 113.865 77.457 116.138 77.457 118.942V119.553C77.457 122.357 79.7265 124.63 82.526 124.63H126.498C129.298 124.63 131.567 122.357 131.567 119.553V118.942C131.567 116.138 129.298 113.865 126.498 113.865Z" fill="#F5F5F5"/>
<path d="M102.468 113.865H82.526C79.7265 113.865 77.457 116.138 77.457 118.942V119.553C77.457 122.357 79.7265 124.63 82.526 124.63H102.468C105.267 124.63 107.537 122.357 107.537 119.553V118.942C107.537 116.138 105.267 113.865 102.468 113.865Z" fill="#3999FF"/>
<path d="M120.476 120.032C120.476 120.594 120.092 121.019 119.311 121.019C119.095 121.026 118.881 120.99 118.68 120.912C118.479 120.834 118.295 120.717 118.141 120.566L118.267 120.381C118.403 120.518 118.565 120.625 118.744 120.696C118.922 120.767 119.114 120.8 119.306 120.793C119.921 120.793 120.237 120.48 120.237 120.037C120.237 119.593 119.943 119.272 119.04 119.272H118.367L118.543 117.657H120.309V117.874H118.746L118.62 119.05H119.094C120.106 119.055 120.476 119.458 120.476 120.032Z" fill="#3999FF"/>
<path d="M123.111 120.032C123.111 120.594 122.727 121.019 121.946 121.019C121.73 121.026 121.515 120.99 121.314 120.912C121.113 120.834 120.93 120.717 120.775 120.566L120.897 120.381C121.034 120.517 121.197 120.624 121.377 120.695C121.556 120.766 121.748 120.799 121.941 120.793C122.555 120.793 122.845 120.48 122.845 120.037C122.845 119.593 122.555 119.272 121.652 119.272H120.979L121.155 117.657H122.939V117.874H121.381L121.25 119.05H121.729C122.741 119.055 123.111 119.458 123.111 120.032Z" fill="#3999FF"/>
<path d="M123.471 118.553C123.471 118.01 123.773 117.648 124.207 117.648C124.641 117.648 124.944 118.005 124.944 118.553C124.944 119.101 124.636 119.458 124.207 119.458C123.778 119.458 123.471 119.087 123.471 118.553ZM124.763 118.553C124.763 118.1 124.537 117.815 124.207 117.815C123.877 117.815 123.651 118.096 123.651 118.553C123.651 119.01 123.877 119.291 124.207 119.291C124.537 119.291 124.745 119.005 124.745 118.553H124.763ZM126.236 117.648H126.439L124.18 120.983H123.977L126.236 117.648ZM125.463 120.101C125.463 119.558 125.766 119.196 126.199 119.196C126.633 119.196 126.931 119.553 126.931 120.101C126.931 120.648 126.633 121.006 126.199 121.006C125.766 121.006 125.463 120.657 125.463 120.114V120.101ZM126.751 120.101C126.751 119.648 126.525 119.363 126.199 119.363C125.874 119.363 125.639 119.639 125.639 120.101C125.639 120.562 125.865 120.838 126.199 120.838C126.534 120.838 126.751 120.571 126.751 120.114V120.101Z" fill="#3999FF"/>
<g opacity="0.2">
<path d="M90.5396 113.865L86.4961 124.499H89.4688L93.2367 113.865H90.5396Z" fill="white"/>
</g>
<g opacity="0.2">
<path d="M97.8351 113.865L93.7871 124.499H96.7598L100.532 113.865H97.8351Z" fill="white"/>
</g>
<g opacity="0.2">
<path d="M104.98 114.666L101.217 124.566H102.988C103.454 124.464 103.909 124.312 104.343 124.114L106.941 116.792C106.48 115.927 105.805 115.195 104.98 114.666Z" fill="white"/>
</g>
<g opacity="0.2">
<path d="M83.4571 113.865L79.7344 123.644C80.5254 124.16 81.4389 124.457 82.3818 124.503L86.1497 113.865H83.4571Z" fill="white"/>
</g>
<path d="M126.496 124.63C126.904 124.603 127.308 124.544 127.707 124.454C128.848 124.163 129.852 123.481 130.544 122.526C131.037 121.841 131.348 121.043 131.447 120.205C131.497 119.724 131.507 119.239 131.479 118.757C131.463 118.237 131.362 117.723 131.181 117.236C130.878 116.398 130.356 115.657 129.669 115.091C128.982 114.524 128.157 114.152 127.278 114.014C126.617 113.943 125.953 113.921 125.29 113.946L82.5104 113.983C82.0019 113.99 81.4969 114.069 81.0105 114.218C80.527 114.372 80.0699 114.599 79.6551 114.892C78.8255 115.47 78.1943 116.29 77.848 117.241C77.2516 119.105 77.4459 121.354 78.7515 122.802C79.3805 123.528 80.2059 124.056 81.1279 124.323C82.0315 124.599 83.0028 124.499 83.9516 124.517H89.5085L108.741 124.544L121.707 124.58L125.231 124.603H121.707L108.741 124.639L89.5085 124.666H82.5556C82.0636 124.666 81.574 124.598 81.1008 124.463C80.1267 124.184 79.2556 123.625 78.5955 122.855C77.9354 122.086 77.5153 121.139 77.3872 120.132C77.3345 119.624 77.3224 119.113 77.351 118.603C77.3742 118.083 77.4778 117.57 77.6582 117.082C78.0213 116.089 78.6786 115.23 79.5422 114.621C79.9768 114.318 80.4531 114.08 80.9562 113.915C81.4666 113.761 81.9957 113.679 82.5284 113.67L125.308 113.707C125.979 113.681 126.651 113.705 127.318 113.779C127.957 113.884 128.57 114.108 129.125 114.44C130.148 115.047 130.926 115.993 131.325 117.114C131.972 119.223 131.592 121.282 130.625 122.503C129.915 123.466 128.887 124.146 127.725 124.422C127.553 124.467 127.378 124.499 127.201 124.517C127.074 124.539 126.945 124.55 126.817 124.549C126.604 124.635 126.496 124.63 126.496 124.63Z" fill="#263238"/>
<path d="M84.5972 152.663V156.283C84.5977 156.355 84.5789 156.425 84.543 156.487C84.507 156.549 84.4551 156.599 84.3927 156.634C84.3303 156.669 84.2598 156.686 84.1884 156.684C84.1171 156.682 84.0476 156.661 83.9873 156.623L81.141 154.813C81.0841 154.777 81.0372 154.727 81.0047 154.668C80.9721 154.609 80.9551 154.543 80.9551 154.476C80.9551 154.408 80.9721 154.342 81.0047 154.283C81.0372 154.224 81.0841 154.174 81.141 154.138L83.9873 152.328C84.0473 152.29 84.1163 152.269 84.1873 152.267C84.2582 152.265 84.3285 152.282 84.3907 152.316C84.453 152.35 84.5049 152.4 84.5412 152.461C84.5775 152.522 84.5969 152.592 84.5972 152.663Z" fill="#E0E0E0"/>
<path d="M107.978 154.437C107.978 154.931 107.832 155.414 107.558 155.825C107.284 156.235 106.894 156.555 106.438 156.745C105.983 156.934 105.481 156.983 104.998 156.887C104.514 156.79 104.069 156.552 103.721 156.203C103.372 155.854 103.134 155.409 103.038 154.924C102.942 154.44 102.991 153.937 103.18 153.481C103.369 153.025 103.688 152.634 104.099 152.36C104.509 152.085 104.991 151.939 105.484 151.939C106.145 151.94 106.779 152.204 107.246 152.672C107.714 153.14 107.977 153.775 107.978 154.437Z" fill="#E0E0E0"/>
<path d="M129.649 152.265H126.735C126.269 152.265 125.891 152.644 125.891 153.111V156.03C125.891 156.497 126.269 156.876 126.735 156.876H129.649C130.116 156.876 130.494 156.497 130.494 156.03V153.111C130.494 152.644 130.116 152.265 129.649 152.265Z" fill="#E0E0E0"/>
<path d="M132.985 24.2632C132.827 24.2632 132.674 24.2165 132.543 24.129C132.412 24.0415 132.31 23.9171 132.25 23.7716C132.19 23.6261 132.174 23.4659 132.205 23.3115C132.235 23.157 132.311 23.0151 132.422 22.9037C132.534 22.7923 132.675 22.7164 132.829 22.6857C132.984 22.655 133.144 22.6708 133.289 22.731C133.434 22.7913 133.558 22.8934 133.646 23.0244C133.733 23.1553 133.78 23.3093 133.78 23.4668C133.78 23.6781 133.696 23.8806 133.547 24.03C133.398 24.1793 133.195 24.2632 132.985 24.2632Z" fill="#263238"/>
<path d="M132.984 26.5621C132.826 26.562 132.671 26.5147 132.54 26.4261C132.409 26.3376 132.307 26.2118 132.248 26.065C132.188 25.9181 132.174 25.7568 132.206 25.6018C132.239 25.4467 132.317 25.3049 132.43 25.1944C132.544 25.084 132.688 25.01 132.843 24.9819C132.999 24.9538 133.16 24.9728 133.305 25.0366C133.449 25.1003 133.572 25.2059 133.657 25.3398C133.741 25.4737 133.784 25.6299 133.779 25.7883C133.774 25.9956 133.687 26.1924 133.539 26.3369C133.39 26.4814 133.191 26.5622 132.984 26.5621Z" fill="#263238"/>
<path d="M132.985 28.8563C132.828 28.8563 132.674 28.8098 132.544 28.7226C132.413 28.6355 132.311 28.5117 132.251 28.3667C132.19 28.2217 132.174 28.062 132.204 27.9078C132.234 27.7535 132.309 27.6116 132.419 27.4999C132.529 27.3881 132.67 27.3116 132.824 27.2799C132.978 27.2481 133.137 27.2626 133.283 27.3215C133.428 27.3804 133.553 27.481 133.641 27.6108C133.73 27.7406 133.778 27.8937 133.78 28.0508C133.781 28.1561 133.761 28.2607 133.722 28.3584C133.682 28.456 133.624 28.5449 133.55 28.6198C133.476 28.6947 133.388 28.7542 133.291 28.7948C133.194 28.8354 133.09 28.8563 132.985 28.8563Z" fill="#263238"/>
<path d="M165.893 155.423C165.893 156.328 179.975 193.887 179.975 193.887H185.64L171.599 155.423H165.893Z" fill="#455A64"/>
<path d="M151.378 153.613H145.73V193.882H151.378V153.613Z" fill="#455A64"/>
<path d="M182.598 167.569H164.621V171.578H182.598V167.569Z" fill="#455A64"/>
<path d="M176.989 152.898H145.73V156.908H176.989V152.898Z" fill="#455A64"/>
<path d="M188.208 182.235H169.604V186.244H188.208V182.235Z" fill="#455A64"/>
<path d="M177.176 157.039C177.176 157.102 170.124 157.157 161.427 157.157C152.73 157.157 145.678 157.102 145.678 157.039C145.678 156.976 152.726 156.921 161.427 156.921C170.128 156.921 177.176 156.971 177.176 157.039Z" fill="#263238"/>
<path d="M151.491 193.882C151.427 193.882 151.373 185.633 151.373 175.461C151.373 165.288 151.427 157.039 151.491 157.039C151.554 157.039 151.608 165.284 151.608 175.461C151.608 185.638 151.559 193.882 151.491 193.882Z" fill="#263238"/>
<path d="M179.977 193.882C179.914 193.882 176.814 185.633 173.047 175.406C169.279 165.18 166.27 156.876 166.333 156.854C166.396 156.831 169.495 165.098 173.268 175.325C177.04 185.552 180.036 193.86 179.977 193.882Z" fill="#263238"/>
<path d="M185.731 193.882C185.672 193.882 182.568 185.633 178.8 175.406C175.033 165.18 172.024 156.876 172.087 156.854C172.15 156.831 175.249 165.098 179.022 175.325C182.794 185.552 185.789 193.86 185.731 193.882Z" fill="#263238"/>
<path d="M203.433 70.1342C203.012 68.3241 201.991 66.6996 200.984 65.1294C199.364 66.1319 197.618 66.9155 195.793 67.4598L196.326 76.8811C198.422 76.9444 200.745 76.8313 202.24 75.3606C203.568 74.0619 203.857 71.9668 203.433 70.1342Z" fill="#FFBE9D"/>
<path d="M196.772 53.5547L192.195 63.9624C193.882 65.6223 195.204 67.6167 196.076 69.8179C198.817 68.4692 201.311 66.6671 203.454 64.4873C201.208 61.3514 198.611 55.0163 196.772 53.5547Z" fill="#3999FF"/>
<path d="M190.432 30.5443L188.588 48.5134C188.272 51.5679 187.188 55.9934 182.39 55.2739C178.27 54.3372 177.619 50.2556 177.917 47.4048C178.057 46.0473 178.17 44.925 178.175 44.7847C178.175 44.7847 173.657 43.8797 173.788 39.3229C173.851 37.1192 174.357 32.5896 174.859 28.4989C175.119 26.3783 176.168 24.4337 177.795 23.0525C179.423 21.6714 181.51 20.955 183.641 21.0461H184.093C188.801 21.5438 191.037 25.8291 190.432 30.5443Z" fill="#FFBE9D"/>
<path d="M178.168 44.7168C180.268 44.8459 182.358 44.3449 184.172 43.2778C184.172 43.2778 182.632 46.4997 178.109 45.8979L178.168 44.7168Z" fill="#EB996E"/>
<path d="M175.44 30.7977C175.517 30.8927 176.163 30.7977 176.967 31.0285C177.771 31.2592 178.286 31.7479 178.39 31.7072C178.494 31.6665 178.39 31.5353 178.164 31.3226C177.841 31.0343 177.459 30.8211 177.044 30.6981C176.645 30.5643 176.22 30.5301 175.806 30.5986C175.521 30.6529 175.404 30.766 175.44 30.7977Z" fill="#263238"/>
<path d="M182.426 31.8476C182.535 31.9019 183.063 31.5127 183.89 31.3951C184.717 31.2774 185.386 31.4494 185.462 31.3634C185.539 31.2774 185.377 31.2186 185.087 31.1281C184.672 31.0158 184.237 30.9958 183.813 31.0693C183.4 31.1267 183.007 31.2818 182.666 31.5218C182.435 31.6711 182.372 31.825 182.426 31.8476Z" fill="#263238"/>
<path d="M182.454 33.3408C182.448 33.4694 182.492 33.5952 182.576 33.6927C182.66 33.7902 182.778 33.852 182.905 33.8657C182.969 33.8739 183.033 33.8691 183.095 33.8517C183.156 33.8343 183.214 33.8047 183.263 33.7645C183.313 33.7244 183.354 33.6746 183.384 33.6181C183.415 33.5616 183.433 33.4996 183.438 33.4358C183.446 33.3062 183.403 33.1786 183.319 33.0799C183.235 32.9812 183.116 32.919 182.987 32.9064C182.923 32.8995 182.859 32.9053 182.798 32.9235C182.736 32.9416 182.679 32.9718 182.63 33.0122C182.58 33.0526 182.539 33.1024 182.509 33.1588C182.479 33.2152 182.46 33.2771 182.454 33.3408Z" fill="#263238"/>
<path d="M175.792 32.8069C175.784 32.936 175.827 33.0631 175.912 33.161C175.996 33.259 176.115 33.3203 176.244 33.3318C176.309 33.34 176.375 33.3345 176.439 33.3158C176.502 33.2971 176.561 33.2655 176.611 33.2231C176.662 33.1806 176.703 33.1281 176.732 33.069C176.761 33.0098 176.778 32.9452 176.781 32.8793C176.789 32.7497 176.746 32.6221 176.662 32.5234C176.578 32.4247 176.459 32.3625 176.329 32.3499C176.264 32.3417 176.197 32.3472 176.133 32.3662C176.07 32.3852 176.011 32.4172 175.961 32.4602C175.91 32.5031 175.869 32.5561 175.84 32.6158C175.811 32.6755 175.794 32.7406 175.792 32.8069Z" fill="#263238"/>
<path d="M179.858 36.2822C179.494 36.1546 179.117 36.071 178.733 36.0333C178.553 36.0062 178.385 35.9609 178.363 35.8387C178.353 35.6533 178.402 35.4696 178.503 35.3138L179.086 33.9563C179.903 32.0467 180.5 30.4765 180.441 30.4448C180.382 30.4131 179.641 31.9336 178.828 33.8386C178.629 34.2912 178.444 34.7437 178.263 35.1962C178.141 35.4082 178.098 35.6567 178.141 35.8976C178.165 35.9609 178.202 36.0182 178.251 36.0651C178.299 36.1121 178.358 36.1476 178.421 36.1691C178.52 36.1998 178.621 36.218 178.724 36.2234C179.098 36.2907 179.479 36.3104 179.858 36.2822Z" fill="#263238"/>
<path d="M183.021 28.431C183.075 28.6075 183.694 28.5487 184.412 28.6709C185.13 28.7931 185.709 29.0193 185.813 28.87C185.858 28.7976 185.763 28.6301 185.537 28.4491C185.232 28.228 184.879 28.0836 184.507 28.0283C184.139 27.9649 183.762 27.9961 183.409 28.1188C183.12 28.2184 182.98 28.3451 183.021 28.431Z" fill="#263238"/>
<path d="M175.666 29.0058C175.729 29.1506 176.334 29.0646 177.053 29.1279C177.771 29.1913 178.354 29.3451 178.444 29.2139C178.485 29.1506 178.381 29.0103 178.146 28.8745C177.822 28.7045 177.467 28.6028 177.103 28.5755C176.739 28.5483 176.372 28.5962 176.027 28.7161C175.765 28.8157 175.639 28.956 175.666 29.0058Z" fill="#263238"/>
<path d="M189.916 33.9021C189.997 33.875 193.079 33.1103 192.853 36.2235C192.627 39.3368 189.55 38.4589 189.555 38.3729C189.559 38.287 189.916 33.9021 189.916 33.9021Z" fill="#FFBE9D"/>
<path d="M190.589 37.2641C190.589 37.2641 190.638 37.3048 190.729 37.3546C190.853 37.4181 190.997 37.431 191.131 37.3908C191.34 37.2772 191.516 37.1103 191.641 36.9069C191.765 36.7035 191.834 36.4709 191.84 36.2324C191.87 35.9661 191.837 35.6966 191.745 35.445C191.725 35.3442 191.681 35.25 191.615 35.171C191.55 35.092 191.465 35.0306 191.37 34.9925C191.31 34.9693 191.243 34.9689 191.182 34.9914C191.122 35.0139 191.071 35.0577 191.04 35.1147C190.991 35.2007 191.009 35.264 190.991 35.2685C190.973 35.2731 190.927 35.2097 190.964 35.083C190.985 35.0071 191.034 34.9414 191.099 34.8975C191.189 34.8402 191.297 34.8191 191.402 34.8387C191.528 34.8738 191.643 34.9404 191.736 35.0322C191.829 35.124 191.898 35.238 191.935 35.3636C192.045 35.6437 192.087 35.9463 192.057 36.246C191.989 36.8704 191.628 37.4361 191.153 37.5311C191.068 37.5494 190.98 37.5484 190.896 37.528C190.811 37.5077 190.733 37.4685 190.665 37.4134C190.589 37.3365 190.575 37.2686 190.589 37.2641Z" fill="#EB996E"/>
<path d="M180.335 38.513C180.308 38.4316 180.936 38.3184 181.428 37.7981C181.634 37.569 181.809 37.3133 181.948 37.0378C182.065 36.8252 182.151 36.6939 182.183 36.7075C182.214 36.7211 182.183 36.8704 182.11 37.1102C182.006 37.4294 181.835 37.7226 181.609 37.97C181.372 38.2162 181.074 38.3943 180.746 38.4859C180.502 38.5537 180.339 38.5402 180.335 38.513Z" fill="#263238"/>
<path d="M171.326 25.2317C171.184 25.2746 171.056 25.3539 170.955 25.462C170.853 25.57 170.782 25.7028 170.748 25.8471C170.715 26.0627 170.754 26.2831 170.86 26.4738C170.965 26.6646 171.131 26.815 171.33 26.9015C171.533 26.9827 171.754 27.0096 171.97 26.9794C172.186 26.9492 172.391 26.8631 172.564 26.7295C172.396 26.8201 172.244 26.9361 172.112 27.0735C171.988 27.2195 171.92 27.4055 171.921 27.5974C171.922 27.7894 171.992 27.9746 172.117 28.1194C172.243 28.2641 172.417 28.3588 172.607 28.3861C172.796 28.4134 172.99 28.3715 173.151 28.2681C173.255 28.5181 173.345 28.7733 173.422 29.0328V29.0826C173.476 29.241 173.531 29.3994 173.603 29.5351L174.439 31.6981C174.651 30.4311 174.75 28.621 174.963 27.3585C175.921 27.4411 176.886 27.3285 177.8 27.0275C178.714 26.7266 179.558 26.2435 180.28 25.6073C181.062 24.9195 181.717 24.019 182.697 23.666C183.962 23.2135 185.336 23.8063 186.546 24.3901L186.501 24.3358C187.123 24.7171 187.666 25.2149 188.101 25.8019C187.528 28.2817 187.494 30.8557 188.001 33.3498C188.078 33.7253 188.317 34.5037 188.656 34.7073C189.32 35.0557 189.587 34.3679 190.048 34.0376C190.448 33.8274 190.91 33.7695 191.349 33.8747C191.815 32.8599 192.223 31.8189 192.569 30.7569L193.124 29.7116V28.4627C192.605 27.2952 194.028 26.8879 193.825 25.6299C193.621 24.372 193.079 23.028 191.936 22.4624H191.905C190.884 21.9058 189.564 21.7474 188.598 22.3945C188.566 20.7564 187.305 19.3174 185.783 18.7246C183.956 18.144 182.005 18.0736 180.14 18.521C178.925 18.8559 177.687 19.684 176.16 20.9374C175.514 21.4669 174.687 23.4081 174.14 24.0326L171.326 25.2317Z" fill="#263238"/>
<path d="M187.872 17.1907C188.089 17.254 193.294 19.2722 194.044 23.4851C194.794 27.698 194.22 28.8745 194.22 28.8745C194.409 29.0383 194.574 29.2289 194.708 29.4401C194.893 29.7388 194.383 30.9561 193.7 30.7072C188.79 27.5984 182.6 26.44 175.629 25.63L170.334 24.7748C168.821 24.7295 168.36 24.2544 169.042 23.9738C169.562 23.7611 174.012 22.6887 174.012 22.6887L174.915 22.209L177.558 19.494C177.558 19.494 177.35 19.0415 177.938 18.7564C178.525 18.4713 183.572 15.9418 187.872 17.1907Z" fill="#3999FF"/>
<path d="M174.955 22.2224L175.163 22.2541L175.759 22.3265C176.274 22.3808 177.02 22.4984 177.937 22.6568C180.318 23.0972 182.657 23.7453 184.926 24.5936C187.192 25.4466 189.408 26.4286 191.563 27.5349C192.394 27.9512 193.063 28.3041 193.523 28.5395C193.736 28.6526 193.907 28.7431 194.056 28.8155L194.242 28.906L194.061 28.8019L193.537 28.5123C193.085 28.2634 192.421 27.9014 191.594 27.4761C189.443 26.3514 187.225 25.36 184.953 24.5076C182.681 23.6537 180.336 23.0129 177.946 22.5935C176.107 22.2858 174.955 22.2224 174.955 22.2224Z" fill="#263238"/>
<g opacity="0.3">
<path d="M192.436 20.2996C192.436 20.2996 186.776 18.4896 183.997 19.3674L184.322 19.2588L181.707 19.9783C181.497 20.0696 181.269 20.1133 181.04 20.1063C180.811 20.0992 180.587 20.0416 180.383 19.9376C181.628 19.2112 182.995 18.7204 184.417 18.4896C186.961 18.028 190.869 18.2452 192.436 20.2996Z" fill="black"/>
</g>
<path d="M192.509 20.3582C192.37 20.2066 192.219 20.0659 192.058 19.9374C191.608 19.5802 191.118 19.2765 190.598 19.0324C189.827 18.6747 189.009 18.4308 188.168 18.3084C187.138 18.133 186.082 18.1824 185.073 18.4532C184.553 18.6037 184.043 18.7866 183.546 19.0007C183.067 19.2043 182.602 19.3808 182.168 19.5935C181.773 19.8094 181.36 19.9925 180.935 20.141C180.56 20.2495 180.166 20.2697 179.783 20.1998C178.355 20.0098 177.524 19.5844 177.601 19.503C177.618 19.5569 177.653 19.6033 177.7 19.6342C177.83 19.721 177.969 19.7923 178.116 19.8469C178.651 20.0462 179.207 20.1858 179.774 20.2632C180.167 20.3385 180.572 20.3214 180.957 20.2134C181.388 20.0667 181.805 19.8835 182.204 19.6659C182.629 19.4623 183.108 19.2858 183.56 19.0821C184.057 18.8725 184.567 18.6941 185.087 18.5482C186.084 18.2827 187.127 18.2318 188.145 18.3989C188.98 18.5165 189.794 18.7526 190.562 19.1002C191.082 19.3318 191.574 19.6233 192.026 19.9691C192.189 20.0867 192.311 20.1863 192.392 20.2587L192.509 20.3582Z" fill="#263238"/>
<g opacity="0.3">
<path d="M194.315 25.25C193.355 25.053 192.42 24.7494 191.528 24.345C190.466 23.9423 189.404 23.5893 188.365 23.1368C187.57 22.7929 186.626 22.449 186.174 21.7793C186.104 21.9771 186.086 22.1896 186.121 22.3965C186.157 22.6034 186.245 22.7976 186.377 22.9603C186.855 23.387 187.4 23.7311 187.99 23.9785C190.03 24.9663 192.172 25.7251 194.378 26.241C194.369 25.9164 194.338 25.5928 194.284 25.2727" fill="black"/>
</g>
<path d="M193.942 23.0371C194.561 23.4172 194.936 23.6706 194.873 24.2362C194.819 24.6887 194.638 25.2634 194.168 25.277C194.023 25.2724 193.881 25.2401 193.748 25.182L186.786 22.6751C186.541 22.6168 186.323 22.4744 186.172 22.2723C186.1 22.0932 186.102 21.8934 186.175 21.7152C186.248 21.537 186.388 21.3944 186.565 21.3175C186.927 21.1817 187.321 21.1534 187.699 21.2361C189.852 21.5524 191.953 22.1613 193.942 23.0461" fill="#3999FF"/>
<path d="M186.264 22.3945C186.187 22.2938 186.136 22.1757 186.115 22.0506C186.098 21.8806 186.129 21.7093 186.205 21.5563C186.281 21.4034 186.398 21.2751 186.544 21.1863C187.015 20.9832 187.541 20.9465 188.035 21.0822C188.609 21.1953 189.237 21.3266 189.887 21.4895C191.005 21.7568 192.096 22.1232 193.149 22.5845C193.551 22.761 193.867 22.9239 194.084 23.037L194.337 23.1728C194.396 23.2 194.423 23.2181 194.428 23.2135L194.346 23.1547L194.102 23.0054C193.89 22.8832 193.578 22.7067 193.199 22.5212C192.15 22.0401 191.055 21.6642 189.932 21.399C189.277 21.2361 188.649 21.1048 188.076 20.9962C187.562 20.8594 187.018 20.9058 186.535 21.1275C186.381 21.2196 186.257 21.3537 186.177 21.514C186.097 21.6743 186.065 21.8542 186.083 22.0325C186.098 22.1288 186.135 22.2202 186.192 22.2995L186.264 22.3945Z" fill="#263238"/>
<path d="M176.769 20.3582L181.3 20.9283L180.731 22.1456L175.838 21.3175L176.769 20.3582Z" fill="white"/>
<path d="M183.021 25.3766C183.021 25.3766 181.06 24.7702 178.62 24.0733C176.181 23.3765 174.202 22.8244 174.197 22.8515C174.193 22.8787 176.158 23.4579 178.598 24.1593C181.037 24.8607 183.021 25.4037 183.021 25.3766Z" fill="#263238"/>
<path d="M214.989 87.1532L217.298 81.1439L223.171 78.5329L227.712 82.0715L228.999 80.7774C228.444 78.3808 227.261 76.1758 225.572 74.3894C223.883 72.603 221.749 71.2998 219.39 70.6139C217.031 69.928 214.532 69.8843 212.15 70.4872C209.769 71.0901 207.591 72.3178 205.841 74.044L144.986 50.7397C144.841 48.2848 144.046 45.9128 142.683 43.8675C141.319 41.8223 139.437 40.1776 137.228 39.1026C135.02 38.0275 132.566 37.561 130.118 37.7508C127.67 37.9406 125.317 38.78 123.3 40.1827L122.013 41.4723L129.133 42.4316L131.739 48.3143L129.431 54.3191L123.558 56.9346L117.364 55.0476L116.438 55.9798C117.739 59.6678 122.311 62.9575 126.228 64.4734C128.702 65.428 131.398 65.6492 133.994 65.1108C136.591 64.5724 138.977 63.2971 140.87 61.4371L201.734 84.7504C201.897 87.4019 202.817 89.9506 204.385 92.0927C205.954 94.2349 208.104 95.8802 210.58 96.8324C215.025 98.5429 220.361 98.0542 223.998 95.5292L217.61 93.0313L214.989 87.1532Z" fill="#E0E0E0"/>
<g opacity="0.3">
<path d="M214.989 87.1535L217.298 81.1441L223.171 78.5331L227.712 82.0718L228.999 80.7776C228.444 78.381 227.261 76.176 225.572 74.3896C223.883 72.6033 221.749 71.3 219.39 70.6142C217.031 69.9283 214.532 69.8845 212.15 70.4874C209.769 71.0903 207.591 72.3181 205.841 74.0442L144.986 50.74C144.841 48.285 144.046 45.913 142.683 43.8678C141.319 41.8225 139.437 40.1778 137.228 39.1028C135.02 38.0278 132.566 37.5612 130.118 37.751C127.67 37.9409 125.317 38.7803 123.3 40.1829L122.013 41.4726L129.133 42.4319L131.739 48.3145L129.431 54.3193L123.558 56.9348L117.364 55.0479L116.438 55.98C117.712 59.7359 122.243 62.9396 126.228 64.4737C128.702 65.4282 131.398 65.6495 133.994 65.1111C136.591 64.5727 138.977 63.2974 140.87 61.4373L201.734 84.7506C201.897 87.4021 202.817 89.9508 204.385 92.093C205.954 94.2352 208.104 95.8804 210.58 96.8327C215.025 98.5431 220.361 98.0544 223.998 95.5294L217.61 93.0316L214.989 87.1535Z" fill="black"/>
</g>
<path d="M213.701 88.443L216.001 82.4337L221.874 79.8227L227.702 82.0852C227.146 79.6892 225.963 77.4847 224.274 75.6987C222.585 73.9127 220.451 72.6096 218.093 71.9234C215.734 71.2372 213.236 71.1927 210.855 71.7944C208.473 72.3962 206.295 73.6226 204.544 75.3474L143.716 52.034C143.569 49.5798 142.774 47.2087 141.41 45.1643C140.046 43.1199 138.164 41.4759 135.956 40.4011C133.749 39.3263 131.295 38.8595 128.848 39.0486C126.4 39.2377 124.047 40.0758 122.03 41.477L127.858 43.7395L130.469 49.6222L128.161 55.6315L122.288 58.2425L116.455 55.9799C117.011 58.3744 118.193 60.5776 119.88 62.3631C121.567 64.1485 123.699 65.4519 126.055 66.1393C128.412 66.8267 130.908 66.8733 133.289 66.2744C135.669 65.6755 137.847 64.4526 139.6 62.7314L200.473 86.0402C200.622 88.4932 201.419 90.8624 202.784 92.9046C204.149 94.9467 206.032 96.5883 208.239 97.6607C210.447 98.7331 212.9 99.1977 215.346 99.0069C217.792 98.816 220.143 97.9765 222.159 96.5746L216.331 94.3121L213.701 88.443Z" fill="#E0E0E0"/>
<path d="M143.266 54.7217C143.285 54.8446 143.285 54.9698 143.266 55.0927C143.259 55.4321 143.23 55.7707 143.18 56.1064C143.014 57.2164 142.682 58.295 142.195 59.3056C141.711 60.3167 141.076 61.2476 140.311 62.0659C140.082 62.3165 139.836 62.5509 139.575 62.7673C139.389 62.9166 139.285 62.9981 139.272 62.9845C139.258 62.9709 139.638 62.5999 140.175 61.9573C141.614 60.2766 142.589 58.2488 143.004 56.0747C143.207 55.2466 143.266 54.7217 143.266 54.7217Z" fill="#263238"/>
<path d="M213.701 88.4431L213.873 88.8187C213.991 89.0721 214.158 89.4431 214.379 89.9364L216.34 94.3121L222.172 96.5475L222.254 96.5792L222.181 96.629C220.575 97.7447 218.755 98.5151 216.837 98.8915C214.4 99.3554 211.884 99.1573 209.55 98.3177C207.216 97.4782 205.149 96.0279 203.563 94.1176C201.679 91.8321 200.56 89.0112 200.365 86.0538L200.419 86.1262L139.532 62.8355L139.65 62.8129C137.93 64.4856 135.815 65.6924 133.501 66.3199C131.135 66.9692 128.638 66.9692 126.272 66.3199C123.859 65.672 121.663 64.3856 119.916 62.5957C118.14 60.7664 116.891 58.4897 116.302 56.0072L116.252 55.7945L116.46 55.8714L122.288 58.134H122.197L128.071 55.523L128.007 55.5863L130.316 49.5815V49.663L127.714 43.7803L127.777 43.8392L121.949 41.5766L121.741 41.4952L121.922 41.3685C123.991 39.9257 126.412 39.0731 128.928 38.9018C131.443 38.7304 133.958 39.2467 136.203 40.3956C138.402 41.4984 140.263 43.1741 141.592 45.2465C142.897 47.2828 143.661 49.6192 143.811 52.0341L143.734 51.9391L204.58 75.266H204.494C206.568 73.2442 209.213 71.9121 212.071 71.4513C214.514 71.0642 217.017 71.3374 219.32 72.2426C221.623 73.1479 223.643 74.6524 225.172 76.6009C226.42 78.2027 227.309 80.0547 227.779 82.031V82.1306L227.684 82.0944L221.856 79.8318H221.892L216.019 82.4337C215.224 84.4881 214.641 85.986 214.257 86.9588C214.067 87.4521 213.923 87.8141 213.828 88.0585C213.733 88.3028 213.683 88.4159 213.683 88.4159C213.683 88.4159 213.72 88.2983 213.81 88.0585C213.9 87.8186 214.04 87.4476 214.226 86.9588C214.6 85.9678 215.174 84.461 215.96 82.3976L221.834 79.773L227.747 82.0174L227.675 82.0808C227.207 80.1152 226.321 78.2739 225.077 76.6823C223.561 74.7597 221.56 73.2764 219.281 72.3848C217.002 71.4933 214.527 71.2258 212.111 71.6097C209.289 72.0732 206.678 73.3937 204.63 75.3927L204.589 75.4334L204.539 75.4108L143.657 52.1337L143.585 52.111V52.0341C143.443 49.5985 142.655 47.2449 141.303 45.2157C139.95 43.1865 138.082 41.555 135.891 40.4892C133.7 39.4235 131.265 38.962 128.837 39.1523C126.408 39.3427 124.074 40.1779 122.075 41.5721L122.048 41.3639L127.881 43.6265H127.926V43.6672C128.79 45.619 129.659 47.5799 130.533 49.5498V49.5906V49.6358C129.742 51.6947 128.956 53.7446 128.224 55.6451V55.6904L128.179 55.713L122.306 58.324H122.261H122.215L116.387 56.0615L116.546 55.9257C117.104 58.3471 118.311 60.5704 120.036 62.357C121.76 64.1436 123.938 65.426 126.336 66.0665C128.661 66.7069 131.117 66.7069 133.442 66.0665C135.72 65.4504 137.803 64.2637 139.496 62.6183L139.546 62.5686L139.614 62.5957L200.473 85.9724H200.523V86.0222C200.718 88.9486 201.824 91.7402 203.685 94.0044C205.255 95.8925 207.299 97.3269 209.607 98.1597C211.915 98.9926 214.403 99.1936 216.814 98.7422C218.717 98.3744 220.524 97.6181 222.123 96.5204V96.6018L216.295 94.3393C215.445 92.4071 214.799 90.9319 214.361 89.9409L213.878 88.8187C213.742 88.5698 213.701 88.4431 213.701 88.4431Z" fill="#263238"/>
<path d="M172.793 51.2784L168.465 85.8955C168.364 86.7088 168.563 87.531 169.025 88.2077C169.487 88.8843 170.179 89.3687 170.973 89.5698L193.286 93.4388C193.598 93.4932 193.918 93.4791 194.224 93.3974C194.53 93.3158 194.815 93.1685 195.058 92.9658C195.302 92.7631 195.499 92.5099 195.635 92.2235C195.771 91.9372 195.844 91.6246 195.848 91.3075C195.902 86.5425 196.096 76.2298 196.774 69.8042C197.519 62.7179 199.412 56.9348 196.774 53.5546C194.135 50.1743 189.545 47.8212 189.545 47.8212L189.044 45.699C189.044 45.699 179.412 45.699 177.749 47.1561L176.728 48.9254L172.793 51.2784Z" fill="#3999FF"/>
<path d="M197.72 59.2468C197.734 59.3201 197.734 59.3953 197.72 59.4686C197.72 59.6405 197.72 59.8532 197.688 60.1066C197.648 60.6949 197.589 61.4641 197.521 62.4461C197.372 64.419 197.151 67.1431 196.889 70.1387C196.627 73.1344 196.374 75.872 196.184 77.8314C196.085 78.7862 196.003 79.5736 195.94 80.1618L195.863 80.7954C195.861 80.8695 195.847 80.9428 195.823 81.0126C195.812 80.939 195.812 80.8643 195.823 80.7908C195.823 80.6144 195.823 80.4062 195.854 80.1528C195.895 79.5645 195.954 78.7953 196.021 77.8133C196.17 75.8404 196.396 73.1117 196.658 70.1206C196.92 67.1296 197.169 64.3919 197.363 62.428C197.463 61.4687 197.539 60.6813 197.603 60.093C197.634 59.8441 197.657 59.6405 197.679 59.4595C197.685 59.3873 197.698 59.3159 197.72 59.2468Z" fill="#263238"/>
<path d="M189.525 47.8211C189.361 47.858 189.192 47.8747 189.024 47.8709L187.668 47.9387C186.507 47.9976 184.908 48.0971 183.151 48.26C181.393 48.4229 179.798 48.6085 178.633 48.7397L177.277 48.8935C177.111 48.9263 176.941 48.9355 176.771 48.9207C176.931 48.8643 177.096 48.8249 177.264 48.803C177.585 48.7442 178.046 48.6673 178.619 48.5768C179.771 48.4003 181.362 48.1876 183.137 48.0247C184.913 47.8618 186.507 47.7849 187.655 47.7713C188.233 47.7713 188.703 47.7713 189.01 47.7713C189.183 47.7643 189.357 47.7811 189.525 47.8211Z" fill="#263238"/>
<path d="M154.163 138.916L157.958 147.387C157.958 147.387 147.974 151.297 147.893 153.161L167.319 152.808L167.297 151.184L163.009 137.215L154.163 138.916Z" fill="#3999FF"/>
<path d="M163.65 145.844C163.839 145.898 164.002 146.021 164.106 146.188C164.21 146.355 164.249 146.555 164.215 146.749C164.168 146.938 164.051 147.103 163.887 147.208C163.723 147.313 163.525 147.352 163.334 147.315C163.135 147.258 162.964 147.13 162.854 146.954C162.745 146.778 162.705 146.568 162.742 146.364C162.81 146.171 162.95 146.012 163.133 145.921C163.316 145.83 163.528 145.813 163.722 145.876" fill="#E0E0E0"/>
<path d="M167.323 152.79L167.3 151.165L148.646 152.138C148.646 152.138 147.788 152.532 147.896 153.143L167.323 152.79Z" fill="#263238"/>
<path d="M157.639 147.274C157.639 147.369 158.122 147.4 158.592 147.699C159.062 147.998 159.32 148.391 159.406 148.351C159.491 148.31 159.342 147.767 158.764 147.419C158.186 147.07 157.621 147.188 157.639 147.274Z" fill="#263238"/>
<path d="M155.62 148.156C155.597 148.247 156.013 148.401 156.343 148.799C156.673 149.197 156.772 149.618 156.867 149.609C156.962 149.6 157.012 149.066 156.591 148.582C156.171 148.097 155.62 148.066 155.62 148.156Z" fill="#263238"/>
<path d="M154.506 150.618C154.597 150.618 154.719 150.165 154.466 149.645C154.213 149.125 153.765 148.93 153.725 149.007C153.684 149.084 153.969 149.36 154.176 149.79C154.384 150.22 154.416 150.609 154.506 150.618Z" fill="#263238"/>
<path d="M156.935 145.065C156.976 145.151 157.41 145.011 157.947 145.038C158.485 145.065 158.905 145.228 158.95 145.147C158.996 145.065 158.589 144.731 157.956 144.694C157.324 144.658 156.886 144.993 156.935 145.065Z" fill="#263238"/>
<path d="M187.693 166.279L188.127 182.429L179.647 182.407L179.195 166.646L187.693 166.279Z" fill="#3999FF"/>
<path d="M183.926 181.61C183.858 181.61 183.75 178.167 183.691 173.918C183.632 169.669 183.637 166.225 183.691 166.225C183.745 166.225 183.867 169.664 183.926 173.918C183.985 178.171 183.99 181.61 183.926 181.61Z" fill="#263238"/>
<path d="M179.502 177.379C179.551 177.252 179.621 177.134 179.71 177.031C179.93 176.732 180.178 176.455 180.451 176.203C180.853 175.821 181.31 175.501 181.806 175.252C182.665 174.809 183.643 174.654 184.597 174.808C185.551 174.963 186.43 175.42 187.105 176.112C187.361 176.382 187.577 176.686 187.747 177.017C187.817 177.135 187.866 177.263 187.892 177.397C187.623 176.985 187.321 176.596 186.988 176.234C186.122 175.417 184.97 174.975 183.78 175.004C182.595 175.069 181.468 175.538 180.586 176.334C179.859 176.927 179.538 177.379 179.502 177.379Z" fill="#263238"/>
<path d="M188.094 182.443L179.655 182.407L179.592 180.497L188.103 180.538L188.094 182.443Z" fill="#263238"/>
<path d="M188.997 92.597L170.451 89.3887L170.37 91.4023C165.893 94.9953 153.961 105.267 146.755 112.304C146.755 112.304 144.085 115.851 145.142 119.123L155.145 144.799L166.615 142.147L159.617 120.426L181.145 110.353C185.333 108.806 189.101 103.512 189.991 100.48C190.754 97.8778 189.11 95.9274 188.997 92.597Z" fill="#263238"/>
<path d="M174.234 112.973L178.648 172.279L189.609 172.555C189.609 172.555 191.492 155.043 191.258 143.857C191.023 132.671 191.009 105.249 191.009 105.249L174.234 112.973Z" fill="#263238"/>
<path d="M189 92.5969L194.791 93.6648C194.791 93.6648 195.004 107.892 194.593 109.322C194.182 110.752 190.73 114.842 190.73 114.842L174.646 117.919V105.172L189 92.5969Z" fill="#263238"/>
<path d="M190.725 100.149L191.145 104.154H195.545L194.795 100.149H190.725Z" fill="#263238"/>
<path d="M187.513 104.154C187.475 104.259 187.428 104.36 187.373 104.457C187.238 104.746 187.087 105.027 186.921 105.299C186.308 106.312 185.546 107.227 184.662 108.014C183.349 109.17 181.893 110.151 180.329 110.933C178.586 111.838 176.598 112.688 174.547 113.648L164.011 118.485L160.803 119.924L159.927 120.304C159.828 120.356 159.723 120.395 159.615 120.422C159.71 120.363 159.808 120.31 159.909 120.263L160.767 119.843L163.93 118.331L174.438 113.426C176.489 112.467 178.477 111.616 180.217 110.734C181.769 109.969 183.22 109.013 184.536 107.887C185.416 107.12 186.184 106.232 186.817 105.249C187.282 104.557 187.486 104.141 187.513 104.154Z" fill="#455A64"/>
<path d="M191.259 114.028C190.16 114.854 189.015 115.617 187.83 116.313C186.683 117.075 185.495 117.772 184.27 118.399C185.371 117.575 186.518 116.812 187.703 116.114C188.848 115.352 190.035 114.656 191.259 114.028Z" fill="#455A64"/>
<path d="M194.795 100.149C194.92 100.512 195.013 100.884 195.075 101.263C195.224 101.964 195.427 102.964 195.653 104.136L195.68 104.263H195.545H193.367H191.144H191.045V104.168C190.932 102.991 190.842 101.991 190.788 101.281C190.736 100.906 190.719 100.527 190.738 100.149C190.827 100.517 190.888 100.89 190.919 101.267C191.013 101.973 191.131 102.973 191.262 104.141L191.153 104.046H193.376H195.554L195.445 104.177C195.233 103 195.061 101.996 194.948 101.285C194.868 100.911 194.817 100.531 194.795 100.149Z" fill="#455A64"/>
<path d="M173.832 97.4344L174.026 97.457L174.605 97.5565L176.8 97.9502L184.422 99.3892H184.526V99.4978C184.341 100.756 184.137 102.104 183.929 103.503V103.629L183.803 103.602L183.681 103.575C179.285 102.566 175.346 101.647 172.73 101.023L172.648 101L172.676 100.923C173.037 99.8327 173.331 98.9548 173.543 98.3213C173.638 98.0407 173.715 97.8145 173.778 97.638C173.801 97.5619 173.829 97.4878 173.864 97.4163C173.85 97.5038 173.829 97.5901 173.8 97.6742C173.746 97.8597 173.679 98.0905 173.597 98.3801L172.82 100.968L172.766 100.869C175.391 101.448 179.335 102.335 183.735 103.344L183.857 103.371L183.713 103.471C183.925 102.073 184.128 100.72 184.318 99.4661L184.408 99.5928L176.877 98.0679L174.672 97.6154L174.076 97.4841C173.993 97.4779 173.911 97.4612 173.832 97.4344Z" fill="#455A64"/>
<path d="M152.154 119.458C152.548 119.328 152.956 119.249 153.37 119.223C154.363 119.111 155.367 119.111 156.36 119.223C157.356 119.332 158.334 119.562 159.274 119.906C159.67 120.03 160.046 120.209 160.39 120.44C159.994 120.336 159.603 120.21 159.22 120.065C158.279 119.772 157.313 119.569 156.333 119.458C155.355 119.352 154.37 119.331 153.388 119.395C152.978 119.441 152.566 119.462 152.154 119.458Z" fill="#455A64"/>
<path d="M173.502 91.5609C173.439 91.5609 173.434 91.2396 173.502 90.864C173.57 90.4884 173.665 90.1943 173.729 90.2033C173.792 90.2124 173.796 90.5291 173.729 90.9002C173.661 91.2712 173.566 91.5744 173.502 91.5609Z" fill="#455A64"/>
<path d="M174.405 91.8547C174.342 91.8547 174.351 91.4791 174.428 91.0402C174.505 90.6012 174.622 90.2573 174.686 90.2709C174.749 90.2845 174.74 90.6465 174.663 91.0854C174.586 91.5244 174.469 91.8547 174.405 91.8547Z" fill="#455A64"/>
<path d="M181.905 93.0904C181.841 93.0904 181.837 92.7419 181.905 92.3347C181.973 91.9274 182.068 91.6061 182.131 91.6152C182.194 91.6242 182.199 91.9636 182.131 92.3709C182.063 92.7781 181.968 93.0994 181.905 93.0904Z" fill="#455A64"/>
<path d="M182.76 93.4842C182.697 93.4842 182.692 93.0769 182.76 92.5792C182.828 92.0814 182.923 91.7104 182.991 91.7194C183.059 91.7285 183.054 92.1267 182.991 92.6244C182.928 93.1222 182.824 93.4932 182.76 93.4842Z" fill="#455A64"/>
<path d="M189.99 94.7327C189.927 94.7327 189.913 94.339 189.958 93.8684C190.004 93.3978 190.099 93.0268 190.162 93.0358C190.225 93.0449 190.243 93.425 190.194 93.8956C190.144 94.3662 190.058 94.7372 189.99 94.7327Z" fill="#455A64"/>
<path d="M191.088 95.0226C191.02 95.0226 190.993 94.5701 191.025 94.0542C191.057 93.5383 191.133 93.0949 191.201 93.0994C191.318 93.7403 191.279 94.3998 191.088 95.0226Z" fill="#455A64"/>
<path d="M164.656 70.1346L178.418 74.1167C178.418 74.1167 180.518 66.338 181.526 61.7541C182.633 56.7358 181.747 54.1248 178.409 51.7989C177.654 51.2699 176.783 50.9329 175.869 50.8169C174.58 50.6689 173.278 50.9411 172.156 51.5932C171.033 52.2454 170.151 53.2427 169.639 54.437C168.764 56.4995 168.02 58.6154 167.412 60.7722C166.097 65.2475 164.656 70.1346 164.656 70.1346Z" fill="#3999FF"/>
<path d="M181.526 61.7631C181.526 61.8426 181.515 61.9217 181.494 61.9984L181.354 62.6817C181.228 63.2745 181.038 64.1388 180.78 65.2339C180.265 67.4195 179.488 70.5147 178.521 74.1528L178.494 74.2614L178.39 74.2298L169.725 71.7319L164.625 70.2522L164.512 70.2205L164.548 70.1119C165.903 65.5868 167.046 61.6183 167.945 58.8263C168.397 57.4326 168.817 56.3375 169.124 55.5909C169.278 55.2198 169.405 54.9393 169.49 54.7447C169.528 54.6454 169.579 54.5512 169.639 54.4641C169.61 54.5658 169.573 54.6656 169.531 54.7628L169.197 55.6225C168.917 56.3737 168.524 57.4733 168.085 58.8716C167.227 61.6681 166.111 65.6366 164.765 70.1843L164.688 70.044L169.789 71.4921L178.449 74.008L178.318 74.085C179.303 70.4649 180.125 67.3652 180.654 65.1886C180.925 64.1162 181.137 63.2609 181.291 62.65C181.359 62.3695 181.417 62.1477 181.458 61.9758C181.476 61.9035 181.499 61.8325 181.526 61.7631Z" fill="#263238"/>
<path d="M180.602 54.188C180.566 54.2106 180.295 53.7988 179.73 53.2513C179 52.5335 178.127 51.977 177.169 51.6177C176.209 51.262 175.186 51.108 174.165 51.1652C173.383 51.215 172.904 51.3507 172.895 51.3145C172.886 51.2783 173.008 51.2466 173.22 51.1833C173.525 51.0969 173.836 51.0364 174.151 51.0023C175.202 50.8834 176.267 51.0144 177.258 51.3847C178.25 51.755 179.14 52.3542 179.857 53.1336C180.074 53.3654 180.27 53.6151 180.444 53.8803C180.512 53.9743 180.565 54.078 180.602 54.188Z" fill="#263238"/>
<path d="M166.035 70.5869L165.339 72.8993L152.174 67.1931L149.328 71.5734C149.328 71.5734 159.665 79.2661 162.904 81.7142C166.143 84.1622 169.893 83.3115 172.071 80.4426C174.307 77.4968 175.175 73.2703 175.175 73.2703L166.035 70.5869Z" fill="#FFBE9D"/>
<path d="M166.756 75.7907C166.689 75.7907 166.53 75.0983 166.137 74.311C165.744 73.5236 165.288 72.9534 165.342 72.9172C165.763 73.2726 166.106 73.7113 166.349 74.2058C166.593 74.7003 166.731 75.2399 166.756 75.7907Z" fill="#EB996E"/>
<path d="M154.222 68.2519L152.483 67.0482C151.579 64.2924 149.84 59.3012 149.32 59.4505C148.801 59.5999 148.53 60.1067 148.688 61.1701C149.072 63.7087 148.444 64.8309 146.962 64.496C146.451 64.3784 142.015 63.6679 142.015 63.6679C142.015 63.6679 140.791 64.3693 142.015 65.573C142.015 65.573 141.414 67.1387 143.049 67.5143C143.049 67.5143 143.253 69.2881 144.477 69.3605C145.791 70.0385 147.149 70.6252 148.543 71.1163L150.752 72.4421L154.222 68.2519Z" fill="#FFBE9D"/>
<path d="M145.388 66.5506C145.388 66.6366 144.507 66.442 143.499 66.0981C143.138 65.9805 142.799 65.8673 142.519 65.7995L142.555 65.6049L142.722 65.6411L142.686 65.8176C142.444 65.7723 142.213 65.6817 142.004 65.5506C142.25 65.5409 142.495 65.5715 142.731 65.6411L142.695 65.8221H142.523L142.56 65.6275C142.905 65.6924 143.245 65.7832 143.576 65.899C144.194 66.0764 144.799 66.294 145.388 66.5506Z" fill="#EB996E"/>
<path d="M145.723 68.5503C145.237 68.5267 144.762 68.4019 144.327 68.1838C143.86 68.0453 143.427 67.8128 143.053 67.5005C143.52 67.5982 143.975 67.7501 144.408 67.953C144.868 68.1015 145.309 68.3019 145.723 68.5503Z" fill="#EB996E"/>
</svg>
