<svg width="250" height="200" viewBox="0 0 250 200" fill="none" xmlns="http://www.w3.org/2000/svg">
<path d="M125.425 197.999C188.068 197.999 238.85 195.031 238.85 191.37C238.85 187.708 188.068 184.74 125.425 184.74C62.782 184.74 12 187.708 12 191.37C12 195.031 62.782 197.999 125.425 197.999Z" fill="#F5F5F5"/>
<path d="M170.288 82.4561L164.075 82.7724L161.694 80.7402C161.42 80.5099 161.076 80.3798 160.718 80.3712L158.512 80.3126C158.271 80.3058 158.031 80.3551 157.812 80.4567C157.592 80.5583 157.4 80.7095 157.249 80.8983L156.623 81.6948C156.406 81.9681 156.289 82.3066 156.289 82.6552V83.6918C156.286 83.9968 156.373 84.2958 156.538 84.5519C156.704 84.808 156.94 85.0099 157.219 85.1325L160.7 86.6611C160.974 86.7797 161.276 86.8182 161.572 86.7724L164.239 86.3507L171.628 86.7548L170.288 82.4561Z" fill="#B25B52"/>
<path d="M168.083 86.2805C168.088 86.6319 168.216 86.9704 168.445 87.237C168.674 87.5035 168.989 87.6811 169.335 87.7387C171.242 88.0667 174.934 88.3244 178.174 86.4327C182.796 83.7329 181.784 68.2073 180.83 64.1253C180.213 61.5545 179.821 58.9344 179.66 56.2952C176.887 56.834 173.541 59.5514 173.389 64.8398C173.237 70.1282 174.524 78.6084 174.267 80.0023C174.103 80.8983 171.143 81.1736 169.048 81.2556C168.823 81.2638 168.602 81.3228 168.402 81.4282C168.202 81.5336 168.029 81.6827 167.894 81.8645C167.76 82.0462 167.668 82.2559 167.626 82.478C167.584 82.7 167.592 82.9288 167.65 83.1472C167.924 84.1696 168.07 85.2221 168.083 86.2805Z" fill="#263238"/>
<path opacity="0.5" d="M168.083 86.2805C168.088 86.6319 168.216 86.9704 168.445 87.237C168.674 87.5035 168.989 87.6811 169.335 87.7387C171.242 88.0667 174.934 88.3244 178.174 86.4327C182.796 83.7329 181.784 68.2073 180.83 64.1253C180.213 61.5545 179.821 58.9344 179.66 56.2952C177.373 56.5763 173.541 59.5514 173.389 64.8398C173.237 70.1282 174.524 78.6084 174.267 80.0023C174.103 80.8983 171.143 81.1736 169.048 81.2556C168.823 81.2638 168.602 81.3228 168.402 81.4282C168.202 81.5336 168.029 81.6827 167.894 81.8645C167.76 82.0462 167.668 82.2559 167.626 82.478C167.584 82.7 167.592 82.9288 167.65 83.1472C167.924 84.1696 168.07 85.2221 168.083 86.2805Z" fill="white"/>
<path d="M182.661 188.828H178.22L178.033 178.544H182.467L182.661 188.828Z" fill="#B25B52"/>
<path d="M178.266 188.318H183.116C183.203 188.316 183.288 188.344 183.356 188.399C183.423 188.454 183.469 188.531 183.484 188.617L184.268 192.553C184.299 192.728 184.26 192.908 184.16 193.055C184.059 193.202 183.905 193.303 183.73 193.337C183.689 193.343 183.648 193.343 183.607 193.337C181.852 193.308 179.337 193.203 177.137 193.203C174.575 193.203 174.364 193.343 171.352 193.343C169.532 193.343 169.076 191.504 169.837 191.34C173.346 190.579 174.154 190.497 177.19 188.64C177.512 188.436 177.885 188.325 178.266 188.318Z" fill="#263238"/>
<path opacity="0.2" d="M178.033 178.55L178.133 183.85H182.567L182.467 178.55H178.033Z" fill="black"/>
<path d="M176.32 188.33C175.946 188.364 175.572 188.267 175.261 188.055C175.19 187.993 175.136 187.915 175.104 187.827C175.073 187.738 175.064 187.644 175.08 187.551C175.083 187.495 175.101 187.44 175.132 187.393C175.162 187.346 175.205 187.307 175.255 187.282C175.788 186.977 177.525 187.867 177.724 187.979C177.736 187.984 177.747 187.992 177.756 188.002C177.765 188.012 177.772 188.023 177.776 188.036C177.78 188.049 177.782 188.062 177.781 188.075C177.78 188.088 177.777 188.101 177.771 188.113C177.764 188.128 177.754 188.141 177.74 188.15C177.727 188.16 177.711 188.165 177.695 188.166C177.243 188.264 176.783 188.319 176.32 188.33ZM175.565 187.416C175.499 187.416 175.433 187.43 175.372 187.457C175.352 187.468 175.336 187.484 175.325 187.504C175.313 187.524 175.307 187.546 175.308 187.569C175.297 187.63 175.302 187.693 175.322 187.751C175.343 187.81 175.378 187.862 175.425 187.902C175.682 188.143 176.402 188.184 177.373 188.02C176.804 187.715 176.186 187.511 175.548 187.416H175.565Z" fill="#407BFF"/>
<path d="M177.677 188.172H177.63C177.103 187.932 176.091 187 176.179 186.491C176.179 186.38 176.29 186.233 176.577 186.204C176.681 186.19 176.787 186.199 176.888 186.229C176.989 186.259 177.082 186.311 177.162 186.38C177.694 186.837 177.794 188.02 177.8 188.066C177.803 188.081 177.803 188.096 177.798 188.11C177.794 188.125 177.787 188.138 177.776 188.148C177.766 188.159 177.753 188.167 177.738 188.171C177.724 188.175 177.709 188.175 177.694 188.172H177.677ZM176.641 186.415H176.577C176.39 186.415 176.372 186.503 176.366 186.532C176.314 186.825 177.004 187.569 177.536 187.891C177.503 187.395 177.317 186.923 177.004 186.538C176.901 186.456 176.772 186.415 176.641 186.421V186.415Z" fill="#407BFF"/>
<path d="M215.099 185.917L210.864 187.241L207.623 177.484L211.853 176.16L215.099 185.917Z" fill="#B25B52"/>
<path d="M210.754 186.737L215.381 185.29C215.465 185.265 215.555 185.269 215.636 185.302C215.717 185.335 215.784 185.395 215.826 185.472L217.739 188.986C217.78 189.063 217.807 189.148 217.815 189.236C217.824 189.324 217.816 189.413 217.79 189.497C217.765 189.581 217.722 189.66 217.666 189.728C217.61 189.796 217.541 189.852 217.464 189.893L217.347 189.94C215.673 190.432 213.252 191.112 211.134 191.744C208.683 192.505 208.525 192.705 205.653 193.601C203.898 194.145 202.932 192.529 203.611 192.136C206.711 190.38 207.478 190.046 209.824 187.369C210.072 187.079 210.393 186.861 210.754 186.737Z" fill="#263238"/>
<path opacity="0.2" d="M207.623 177.49L209.507 183.153L213.742 181.829L211.858 176.166L207.623 177.49Z" fill="black"/>
<path d="M208.881 187.334C208.534 187.482 208.147 187.503 207.787 187.393C207.703 187.352 207.63 187.292 207.574 187.218C207.518 187.144 207.481 187.057 207.465 186.965C207.451 186.91 207.452 186.853 207.467 186.798C207.483 186.744 207.512 186.694 207.553 186.655C207.968 186.21 209.893 186.538 210.115 186.585C210.141 186.589 210.164 186.603 210.18 186.623C210.197 186.644 210.205 186.67 210.203 186.696C210.199 186.713 210.192 186.729 210.182 186.743C210.172 186.757 210.159 186.769 210.144 186.778C209.741 187.001 209.318 187.187 208.881 187.334ZM207.91 186.696C207.844 186.711 207.784 186.744 207.734 186.79C207.717 186.805 207.706 186.825 207.7 186.847C207.695 186.868 207.697 186.892 207.705 186.913C207.712 186.974 207.736 187.033 207.773 187.084C207.809 187.134 207.859 187.174 207.915 187.2C208.237 187.352 208.933 187.2 209.811 186.731C209.184 186.608 208.541 186.596 207.91 186.696Z" fill="#407BFF"/>
<path d="M210.145 186.778H210.104C209.519 186.708 208.285 186.11 208.22 185.607C208.185 185.496 208.22 185.326 208.507 185.214C208.599 185.174 208.699 185.153 208.799 185.153C208.9 185.153 209 185.174 209.092 185.214C209.735 185.496 210.18 186.591 210.203 186.638C210.211 186.653 210.214 186.67 210.214 186.687C210.214 186.705 210.211 186.722 210.203 186.737C210.188 186.756 210.168 186.77 210.145 186.778ZM208.636 185.414H208.571C208.396 185.472 208.407 185.56 208.407 185.589C208.448 185.882 209.326 186.392 209.928 186.538C209.75 186.076 209.433 185.681 209.022 185.408C208.896 185.363 208.759 185.365 208.636 185.414Z" fill="#407BFF"/>
<path d="M175.186 96.1719L176.186 148.295L176.455 180.078C176.44 180.492 176.587 180.895 176.865 181.202C177.142 181.51 177.528 181.697 177.941 181.724H183.206C183.598 181.703 183.968 181.536 184.242 181.255C184.516 180.974 184.675 180.6 184.686 180.207C185.318 173.074 187.839 161.765 186.71 148.441C186.71 148.441 190.501 113.466 190.729 102.79L189.875 93.2905L175.186 96.1719Z" fill="#263238"/>
<path opacity="0.1" d="M175.186 96.1719L176.186 148.295L176.455 180.078C176.44 180.492 176.587 180.895 176.865 181.202C177.142 181.51 177.528 181.697 177.941 181.724H183.206C183.598 181.703 183.968 181.536 184.242 181.255C184.516 180.974 184.675 180.6 184.686 180.207C185.318 173.074 187.839 161.765 186.71 148.441C186.71 148.441 190.501 113.466 190.729 102.79L189.875 93.2905L175.186 96.1719Z" fill="white"/>
<path opacity="0.1" d="M187.434 106.228C187.139 115.208 187.44 124.198 188.335 133.138C188.335 133.138 189.61 118.796 190.318 113.051L187.434 106.228Z" fill="black"/>
<path d="M184.369 96.5408L195.537 149.683L206.283 180.646C206.336 180.832 206.426 181.005 206.549 181.154C206.671 181.303 206.823 181.425 206.995 181.513C207.167 181.6 207.355 181.651 207.548 181.662C207.74 181.673 207.933 181.644 208.114 181.577L213.619 179.551C213.978 179.384 214.267 179.096 214.434 178.737C214.602 178.378 214.639 177.972 214.537 177.589C212.981 170.795 211.612 159.522 206.482 147.879C206.482 147.879 203.405 114.169 199.263 96.1426L184.369 96.5408Z" fill="#263238"/>
<path opacity="0.1" d="M184.369 96.5408L195.537 149.683L206.283 180.646C206.336 180.832 206.426 181.005 206.549 181.154C206.671 181.303 206.823 181.425 206.995 181.513C207.167 181.6 207.355 181.651 207.548 181.662C207.74 181.673 207.933 181.644 208.114 181.577L213.619 179.551C213.978 179.384 214.267 179.096 214.434 178.737C214.602 178.378 214.639 177.972 214.537 177.589C212.981 170.795 211.612 159.522 206.482 147.879C206.482 147.879 203.405 114.169 199.263 96.1426L184.369 96.5408Z" fill="white"/>
<path d="M191.156 54.2806C190.249 51.4753 190.442 47.4577 190.74 44.9102L184.674 50.9189C185.058 51.9869 185.189 53.1299 185.054 54.2571C185.015 54.519 184.892 54.7609 184.703 54.946C184.514 55.1311 184.269 55.2491 184.007 55.282L181.421 56.0902L181.117 58.0931L182.679 58.4972L184.773 60.6407L189.828 58.4972L195.239 55.9731C194.422 55.7077 193.575 55.5502 192.718 55.5046C192.379 55.4382 192.062 55.2927 191.79 55.08C191.519 54.8672 191.301 54.5933 191.156 54.2806Z" fill="#B25B52"/>
<path opacity="0.2" d="M188.27 47.8499L184.76 51.2818C184.95 51.916 185.064 52.5707 185.099 53.232C186.521 52.904 188.27 51.5629 188.72 49.9406C189.024 48.945 188.65 47.9377 188.27 47.8499Z" fill="black"/>
<path d="M191.658 40.3947C191.401 45.0096 191.477 47.7212 189.154 50.0989C185.674 53.6772 179.97 51.5747 178.858 46.9832C177.846 42.8193 178.455 35.9906 182.953 34.1399C183.944 33.7252 185.024 33.5714 186.091 33.693C187.158 33.8147 188.176 34.2078 189.048 34.8348C189.92 35.4619 190.617 36.3021 191.073 37.2753C191.529 38.2485 191.728 39.3224 191.652 40.3947H191.658Z" fill="#B25B52"/>
<path d="M184.333 41.6243C184.298 41.9991 184.076 42.2861 183.83 42.2627C183.584 42.2392 183.415 41.9171 183.45 41.5423C183.485 41.1675 183.713 40.8864 183.959 40.9098C184.205 40.9332 184.368 41.2378 184.333 41.6243Z" fill="#263238"/>
<path d="M180.117 41.2966C180.076 41.6715 179.853 41.9584 179.608 41.9291C179.362 41.8999 179.198 41.5895 179.233 41.2146C179.268 40.8398 179.491 40.5529 179.736 40.5763C179.982 40.5997 180.152 40.9218 180.117 41.2966Z" fill="#263238"/>
<path d="M185.984 39.8676C186.021 39.8569 186.056 39.8412 186.089 39.8207C186.129 39.7775 186.151 39.7211 186.151 39.6626C186.151 39.6041 186.129 39.5477 186.089 39.5045C185.829 39.2705 185.518 39.1013 185.181 39.0108C184.843 38.9202 184.489 38.9107 184.147 38.9832C184.09 38.9996 184.043 39.0377 184.014 39.0893C183.986 39.141 183.979 39.2018 183.995 39.2585C184.002 39.287 184.015 39.3137 184.033 39.3369C184.051 39.3602 184.074 39.3796 184.1 39.3938C184.125 39.4081 184.154 39.4169 184.183 39.4198C184.212 39.4227 184.242 39.4197 184.27 39.4108C184.54 39.3549 184.82 39.3652 185.086 39.4406C185.352 39.516 185.596 39.6545 185.797 39.8441C185.824 39.8612 185.856 39.8721 185.888 39.8761C185.92 39.8802 185.953 39.8773 185.984 39.8676Z" fill="#263238"/>
<path d="M178.515 39.5632C178.547 39.5817 178.583 39.5914 178.62 39.5914C178.657 39.5914 178.694 39.5817 178.726 39.5632C178.96 39.4192 179.226 39.3325 179.5 39.3101C179.774 39.2877 180.05 39.3303 180.305 39.4343C180.331 39.4473 180.359 39.455 180.387 39.457C180.416 39.459 180.445 39.4553 180.472 39.446C180.499 39.4367 180.525 39.4221 180.546 39.403C180.568 39.3839 180.585 39.3607 180.598 39.3348C180.624 39.2827 180.63 39.2221 180.612 39.1662C180.595 39.1102 180.556 39.0635 180.504 39.0361C180.181 38.897 179.83 38.8377 179.48 38.8632C179.13 38.8887 178.791 38.9982 178.492 39.1825C178.467 39.1953 178.445 39.2131 178.427 39.2347C178.409 39.2564 178.396 39.2814 178.389 39.3083C178.381 39.3352 178.379 39.3633 178.383 39.391C178.386 39.4188 178.395 39.4455 178.41 39.4695C178.433 39.5122 178.47 39.5454 178.515 39.5632Z" fill="#263238"/>
<path d="M191.594 42.4152C191.261 42.0822 190.867 41.8182 190.432 41.6383C189.997 41.4584 189.531 41.3661 189.061 41.3668H186.943C186.908 40.7971 186.661 40.2613 186.25 39.8654C185.839 39.4696 185.295 39.2426 184.725 39.2293C184.155 39.2161 183.601 39.4175 183.172 39.7939C182.743 40.1702 182.471 40.6939 182.41 41.2614C182.248 41.1969 182.068 41.1969 181.906 41.2614C181.863 40.6795 181.597 40.137 181.162 39.7479C180.728 39.3588 180.16 39.1535 179.577 39.1751C178.995 39.1967 178.443 39.4436 178.039 39.8638C177.634 40.284 177.408 40.8448 177.408 41.4283C177.408 42.0119 177.634 42.5727 178.039 42.9929C178.443 43.4131 178.995 43.6599 179.577 43.6815C180.16 43.7032 180.728 43.4979 181.162 43.1088C181.597 42.7197 181.863 42.1772 181.906 41.5952C181.972 41.541 182.055 41.5113 182.14 41.5113C182.226 41.5113 182.309 41.541 182.374 41.5952C182.366 42.1995 182.598 42.7823 183.018 43.2156C183.439 43.6489 184.014 43.8971 184.618 43.9056C185.221 43.9142 185.804 43.6824 186.236 43.2612C186.669 42.84 186.917 42.2639 186.926 41.6597H189.043C189.478 41.6567 189.909 41.7406 190.311 41.9065C190.713 42.0725 191.077 42.3171 191.383 42.626L192.068 43.3112L192.273 43.1004L191.594 42.4152ZM179.648 43.5103C179.254 43.5103 178.868 43.3932 178.54 43.1738C178.212 42.9543 177.956 42.6424 177.805 42.2775C177.654 41.9126 177.615 41.511 177.692 41.1237C177.769 40.7363 177.959 40.3804 178.238 40.1011C178.517 39.8218 178.872 39.6316 179.259 39.5546C179.646 39.4775 180.047 39.5171 180.412 39.6682C180.776 39.8194 181.088 40.0753 181.307 40.4038C181.526 40.7322 181.643 41.1183 181.643 41.5133C181.643 42.0429 181.433 42.5509 181.059 42.9254C180.685 43.2999 180.177 43.5103 179.648 43.5103ZM184.668 43.5103C184.273 43.5103 183.887 43.3932 183.559 43.1738C183.231 42.9543 182.976 42.6424 182.825 42.2775C182.674 41.9126 182.634 41.511 182.711 41.1237C182.788 40.7363 182.978 40.3804 183.257 40.1011C183.536 39.8218 183.892 39.6316 184.278 39.5546C184.665 39.4775 185.067 39.5171 185.431 39.6682C185.796 39.8194 186.107 40.0753 186.326 40.4038C186.546 40.7322 186.663 41.1183 186.663 41.5133C186.663 41.7755 186.611 42.0352 186.511 42.2775C186.41 42.5198 186.263 42.74 186.078 42.9254C185.893 43.1108 185.673 43.2579 185.431 43.3583C185.189 43.4587 184.93 43.5103 184.668 43.5103Z" fill="#263238"/>
<path d="M190.091 39.2817C189.678 40.4368 189.678 41.6992 190.091 42.8542C190.303 42.7461 190.537 42.6862 190.775 42.6785C190.92 42.6601 191.067 42.6796 191.203 42.735C191.338 42.7904 191.457 42.8799 191.547 42.9948C191.62 43.1477 191.66 43.3139 191.666 43.4831C191.672 43.6523 191.644 43.8209 191.582 43.9787C191.224 45.4428 190.834 46.8952 190.412 48.3359C192.737 45.992 194.168 42.9062 194.455 39.6156C193.068 39.4926 191.459 39.4164 190.091 39.2817Z" fill="#263238"/>
<path d="M193.926 44.6872C193.307 45.6692 192.328 46.3693 191.2 46.6375C189.697 46.9654 189.024 45.6067 189.509 44.2304C189.948 42.9947 191.264 41.3022 192.727 41.6009C194.189 41.8996 194.669 43.4632 193.926 44.6872Z" fill="#B25B52"/>
<path d="M181.924 41.5251C181.325 42.5669 180.583 43.5191 179.719 44.3538C179.938 44.5807 180.204 44.7573 180.497 44.8716C180.791 44.9858 181.106 45.035 181.421 45.0156L181.924 41.5251Z" fill="#9D2724"/>
<path d="M195.672 55.7444C195.672 55.7444 195.49 55.6799 195.122 55.5862L194.338 55.5042L193.168 55.229C192.782 55.5042 187.178 59.3637 185.364 60.1367L184.808 60.2363C183.824 58.7414 183.266 57.0061 183.194 55.2173L182.55 55.2641C182.344 55.4571 182.089 55.5906 181.813 55.6507L181.269 55.7327L179.602 56.9742C179.602 56.9742 176.092 64.6697 175.22 83.7912L174.939 98.2509H202.06L195.672 55.7444Z" fill="#407BFF"/>
<g opacity="0.4">
<path d="M183.959 58.749C183.964 58.7726 183.974 58.7947 183.988 58.8138L183.959 58.7549V58.749Z" fill="black"/>
</g>
<path d="M183.959 58.749C183.964 58.7726 183.974 58.7947 183.988 58.8138L183.959 58.7549V58.749Z" fill="#407BFF"/>
<path d="M183.158 55.229C183.158 55.229 179.315 56.8571 177.893 67.2524C176.472 77.6477 175.916 97.1499 176.355 106.257C176.53 110.005 177.138 113.73 174.319 113.349C174.319 113.349 174.172 106.257 174.43 89.9639C174.687 73.6711 173.032 55.5335 183.158 55.229Z" fill="#263238"/>
<g opacity="0.6">
<path d="M183.158 55.2292C183.158 55.2292 179.315 56.8574 177.893 67.2527C176.472 77.648 176.518 87.5981 176.197 98.4971C175.927 107.616 177.823 113.806 174.319 113.349C174.319 113.349 174.172 106.257 174.43 89.9642C174.687 73.6714 173.032 55.5338 183.158 55.2292Z" fill="white"/>
</g>
<path d="M194.692 55.229C194.692 55.229 190.077 57.8 189.562 74.0518C189.047 90.3036 188.281 113.73 193.751 114.245C199.22 114.76 205.199 111.68 205.199 111.68C205.199 111.68 205.755 113.156 204.731 105.683C203.877 99.4456 202.432 92.1133 201.87 86.1982C201.221 79.3578 204.947 60.535 202.555 58.6726C200.162 56.8103 194.692 55.229 194.692 55.229Z" fill="#263238"/>
<path opacity="0.6" d="M194.692 55.229C194.692 55.229 190.077 57.8 189.562 74.0518C189.047 90.3036 188.281 113.73 193.751 114.245C199.22 114.76 205.199 111.68 205.199 111.68C205.199 111.68 205.755 113.156 204.731 105.683C203.877 99.4456 202.432 92.1133 201.87 86.1982C201.221 79.3578 204.947 60.535 202.555 58.6726C200.162 56.8103 194.692 55.229 194.692 55.229Z" fill="white"/>
<g opacity="0.3">
<path d="M192.154 99.0906L199.769 97.9948L199.874 98.7252C199.946 99.228 199.816 99.7388 199.511 100.145C199.207 100.552 198.754 100.821 198.252 100.893L194.431 101.443C193.928 101.516 193.418 101.385 193.012 101.081C192.606 100.776 192.337 100.323 192.265 99.8201L192.161 99.0955L192.154 99.0906Z" fill="black"/>
</g>
<path d="M196.841 82.3566L190.675 83.2058L188.136 81.3786C187.845 81.1708 187.492 81.0695 187.136 81.0916L184.936 81.2204C184.694 81.2346 184.459 81.3049 184.248 81.4258C184.038 81.5468 183.859 81.7151 183.725 81.9174L183.14 82.7666C182.953 83.0591 182.865 83.404 182.888 83.7505L182.97 84.7871C182.995 85.0907 183.108 85.3806 183.295 85.6209C183.482 85.8612 183.735 86.0416 184.023 86.1399L187.621 87.3698C187.901 87.468 188.204 87.4823 188.493 87.4108L191.119 86.7666L198.514 86.544L196.841 82.3566Z" fill="#B25B52"/>
<path d="M194.962 86.3565C194.999 86.7061 195.157 87.0318 195.408 87.2777C195.659 87.5236 195.987 87.6741 196.337 87.7035C198.268 87.8675 201.965 87.8207 205.036 85.6596C209.406 82.5732 207.095 67.1882 205.802 63.2058C204.357 58.7431 201.035 57.5015 201.035 57.5015C196.905 55.1589 196.747 59.3756 197.045 64.6582C197.343 69.9408 200.725 78.1691 200.584 79.5806C200.496 80.4825 197.571 81.0095 195.489 81.2672C195.265 81.2944 195.049 81.3718 194.859 81.4937C194.669 81.6155 194.509 81.7787 194.39 81.9712C194.271 82.1636 194.198 82.3803 194.174 82.6052C194.151 82.8301 194.178 83.0574 194.254 83.2702C194.62 84.2648 194.858 85.3019 194.962 86.3565Z" fill="#263238"/>
<path opacity="0.2" d="M197.045 64.658L198.548 80.7283C198.548 80.7283 203.129 82.1514 202.462 77.6478C201.795 73.1441 196.992 63.3228 196.992 63.3228L197.045 64.658Z" fill="black"/>
<path opacity="0.6" d="M194.962 86.3565C194.999 86.7061 195.157 87.0318 195.408 87.2777C195.659 87.5236 195.987 87.6741 196.337 87.7035C198.268 87.8675 201.965 87.8207 205.036 85.6596C209.406 82.5732 207.095 67.1882 205.802 63.2058C204.357 58.7431 201.035 57.5015 201.035 57.5015C196.905 55.1589 196.747 59.3756 197.045 64.6582C197.343 69.9408 200.725 78.1691 200.584 79.5806C200.496 80.4825 197.571 81.0095 195.489 81.2672C195.265 81.2944 195.049 81.3718 194.859 81.4937C194.669 81.6155 194.509 81.7787 194.39 81.9712C194.271 82.1636 194.198 82.3803 194.174 82.6052C194.151 82.8301 194.178 83.0574 194.254 83.2702C194.62 84.2648 194.858 85.3019 194.962 86.3565Z" fill="white"/>
<path d="M183.035 47.03C183.448 46.9365 183.838 46.7601 184.181 46.5114C184.523 46.2628 184.812 45.9471 185.03 45.5834C185.037 45.5712 185.042 45.5576 185.043 45.5435C185.045 45.5295 185.044 45.5151 185.04 45.5015C185.037 45.4878 185.03 45.475 185.021 45.464C185.012 45.4529 185.001 45.4437 184.989 45.437C184.963 45.4245 184.934 45.4224 184.906 45.4311C184.879 45.4398 184.856 45.4587 184.843 45.4838C184.6 45.875 184.27 46.2052 183.88 46.4489C183.489 46.6925 183.048 46.8433 182.59 46.8894C182.576 46.8893 182.562 46.8922 182.549 46.8979C182.537 46.9037 182.525 46.9121 182.516 46.9226C182.506 46.9331 182.499 46.9455 182.495 46.959C182.491 46.9724 182.489 46.9867 182.491 47.0007C182.491 47.015 182.494 47.0292 182.499 47.0424C182.505 47.0556 182.513 47.0675 182.524 47.0774C182.534 47.0872 182.547 47.0949 182.56 47.0998C182.573 47.1048 182.588 47.1069 182.602 47.1061C182.748 47.0898 182.892 47.0644 183.035 47.03Z" fill="#263238"/>
<path d="M193.132 55.2407L184.591 63.3227L184.263 62.7371C183.026 60.4524 182.635 57.8038 183.158 55.2583C183.207 56.469 183.478 57.6602 183.959 58.7722L184.971 56.3183C185.014 56.9764 185.125 57.6281 185.305 58.2627L185.89 57.677L187.563 58.9537C189.885 57.4838 192.857 55.434 193.132 55.2407Z" fill="#407BFF"/>
<path opacity="0.2" d="M193.132 55.2407L184.591 63.3227L184.263 62.7371C183.026 60.4524 182.635 57.8038 183.158 55.2583C183.207 56.469 183.478 57.6602 183.959 58.7722L184.971 56.3183C185.014 56.9764 185.125 57.6281 185.305 58.2627L185.89 57.677L187.563 58.9537C189.885 57.4838 192.857 55.434 193.132 55.2407Z" fill="white"/>
<path d="M185.305 58.2334C184.028 58.9451 182.833 59.7955 181.742 60.7693C181.836 59.8615 181.924 58.9479 182.017 58.0402C182.051 57.069 182.249 56.1107 182.602 55.2056C182.787 54.7524 183.083 54.3534 183.464 54.0462C183.844 53.7389 184.297 53.5333 184.778 53.4487C184.86 53.4487 185.018 53.2788 185.1 53.2788C184.797 54.9249 184.867 56.618 185.305 58.2334Z" fill="#407BFF"/>
<path opacity="0.6" d="M185.305 58.2334C184.028 58.9451 182.833 59.7955 181.742 60.7693C181.836 59.8615 181.924 58.9479 182.017 58.0402C182.051 57.069 182.249 56.1107 182.602 55.2056C182.787 54.7524 183.083 54.3534 183.464 54.0462C183.844 53.7389 184.297 53.5333 184.778 53.4487C184.86 53.4487 185.018 53.2788 185.1 53.2788C184.797 54.9249 184.867 56.618 185.305 58.2334Z" fill="white"/>
<path d="M185.305 58.2335L188.481 61.3785C188.481 61.3785 193.231 55.9612 193.161 54.4561L190.769 52.5586L185.305 58.2335Z" fill="#407BFF"/>
<path opacity="0.6" d="M185.305 58.2335L188.481 61.3785C188.481 61.3785 193.231 55.9612 193.161 54.4561L190.769 52.5586L185.305 58.2335Z" fill="white"/>
<path d="M190.211 39.7738C190.08 39.818 189.94 39.8255 189.805 39.7955C189.67 39.7656 189.545 39.6994 189.445 39.604C189.257 39.3573 189.139 39.0636 189.106 38.7548C188.947 37.9081 188.854 37.0506 188.825 36.1897C188.82 35.7646 188.648 35.3585 188.346 35.0601C188.043 34.7617 187.635 34.5951 187.21 34.5967C186.254 34.6174 185.331 34.9575 184.59 35.563C184.303 35.358 182.87 35.563 182.542 35.4517C182.542 35.4517 182.928 34.5616 182.144 34.6435C181.302 34.9012 181.267 35.1238 180.618 35.8851C180.454 36.0842 179.997 36.91 179.816 37.0857C179.705 37.1917 179.633 37.332 179.611 37.4839C179.609 36.7484 179.771 36.0217 180.087 35.3577C180.403 34.6936 180.864 34.1093 181.437 33.6479C182.174 33.1384 182.332 31.9261 183.156 31.563C185.333 30.6084 187.924 31.8207 190.27 32.1487C197.998 33.2673 194.95 40.7226 194.277 40.5703C192.938 40.828 190.211 39.7738 190.211 39.7738Z" fill="#263238"/>
<path d="M131.578 90.585H155.493V184.096C155.493 184.933 155.161 185.736 154.569 186.328C153.978 186.92 153.176 187.252 152.34 187.252H134.731C133.895 187.252 133.093 186.92 132.502 186.328C131.91 185.736 131.578 184.933 131.578 184.096V90.585Z" stroke="#407BFF" stroke-width="2.05491" stroke-miterlimit="10"/>
<path d="M139.161 190.485C139.161 191.055 138.992 191.612 138.676 192.086C138.359 192.56 137.91 192.929 137.384 193.147C136.858 193.365 136.279 193.422 135.721 193.311C135.163 193.2 134.65 192.926 134.247 192.523C133.845 192.12 133.571 191.606 133.46 191.047C133.349 190.488 133.406 189.909 133.623 189.383C133.841 188.856 134.21 188.406 134.683 188.089C135.157 187.773 135.713 187.604 136.282 187.604C136.661 187.603 137.035 187.677 137.385 187.822C137.734 187.966 138.052 188.178 138.319 188.446C138.587 188.714 138.799 189.032 138.943 189.382C139.088 189.732 139.161 190.107 139.161 190.485Z" fill="#263238"/>
<path d="M153.786 190.485C153.786 191.055 153.617 191.613 153.3 192.087C152.984 192.561 152.534 192.93 152.008 193.148C151.481 193.366 150.902 193.422 150.344 193.311C149.785 193.199 149.273 192.924 148.87 192.521C148.468 192.117 148.194 191.603 148.084 191.044C147.973 190.484 148.031 189.905 148.25 189.378C148.469 188.852 148.839 188.402 149.313 188.087C149.787 187.771 150.344 187.603 150.913 187.604C151.291 187.604 151.665 187.678 152.014 187.823C152.363 187.968 152.68 188.18 152.946 188.448C153.213 188.716 153.425 189.033 153.569 189.383C153.713 189.732 153.786 190.107 153.786 190.485Z" fill="#263238"/>
<path d="M168.566 90.585H192.481V184.102C192.481 184.939 192.149 185.742 191.557 186.334C190.966 186.926 190.164 187.258 189.328 187.258H171.702C170.866 187.258 170.064 186.926 169.472 186.334C168.881 185.742 168.549 184.939 168.549 184.102V90.585H168.566Z" stroke="#407BFF" stroke-width="2.05491" stroke-miterlimit="10"/>
<path d="M176.155 190.485C176.155 191.055 175.986 191.613 175.669 192.087C175.353 192.561 174.903 192.93 174.377 193.148C173.85 193.366 173.271 193.422 172.713 193.311C172.154 193.199 171.642 192.924 171.239 192.521C170.837 192.117 170.563 191.603 170.453 191.044C170.343 190.484 170.4 189.905 170.619 189.378C170.838 188.852 171.208 188.402 171.682 188.087C172.156 187.771 172.713 187.603 173.282 187.604C173.66 187.604 174.034 187.678 174.383 187.823C174.732 187.968 175.049 188.18 175.316 188.448C175.582 188.716 175.794 189.033 175.938 189.383C176.082 189.732 176.156 190.107 176.155 190.485Z" fill="#263238"/>
<path d="M190.78 190.485C190.779 191.054 190.609 191.609 190.293 192.081C189.977 192.553 189.528 192.921 189.003 193.138C188.478 193.354 187.9 193.41 187.344 193.299C186.787 193.187 186.276 192.913 185.874 192.511C185.473 192.108 185.2 191.596 185.09 191.038C184.98 190.48 185.037 189.903 185.254 189.378C185.472 188.852 185.84 188.404 186.312 188.088C186.785 187.772 187.34 187.604 187.907 187.604C188.285 187.604 188.659 187.678 189.008 187.823C189.357 187.968 189.674 188.18 189.941 188.448C190.207 188.716 190.419 189.033 190.563 189.383C190.707 189.732 190.781 190.107 190.78 190.485Z" fill="#263238"/>
<path d="M197.712 91.7034C197.713 92.15 197.626 92.5923 197.455 93.0051C197.285 93.4179 197.035 93.793 196.72 94.1091C196.405 94.4251 196.031 94.6758 195.619 94.8469C195.207 95.018 194.765 95.106 194.319 95.106H129.004C128.104 95.1045 127.241 94.7453 126.605 94.1074C125.969 93.4694 125.611 92.6048 125.611 91.7034C125.611 90.8025 125.969 89.9385 126.605 89.3015C127.241 88.6645 128.104 88.3066 129.004 88.3066H194.319C194.765 88.3066 195.206 88.3945 195.618 88.5652C196.029 88.7359 196.403 88.9861 196.718 89.3015C197.033 89.6169 197.283 89.9914 197.454 90.4035C197.624 90.8156 197.712 91.2573 197.712 91.7034Z" fill="#263238"/>
<path opacity="0.2" d="M197.711 91.7034C197.711 92.15 197.624 92.5923 197.454 93.0051C197.284 93.4179 197.034 93.793 196.719 94.1091C196.404 94.4251 196.029 94.6759 195.617 94.8469C195.205 95.018 194.764 95.106 194.318 95.106H166.875C165.974 95.106 165.109 94.7476 164.472 94.1094C163.835 93.4713 163.477 92.6058 163.477 91.7034C163.477 91.2568 163.565 90.8147 163.735 90.4022C163.906 89.9897 164.157 89.615 164.472 89.2995C164.788 88.984 165.163 88.7339 165.575 88.5635C165.987 88.3932 166.429 88.3059 166.875 88.3066H194.318C194.763 88.3066 195.204 88.3945 195.616 88.5652C196.028 88.7359 196.402 88.9861 196.717 89.3015C197.032 89.617 197.282 89.9914 197.452 90.4035C197.623 90.8156 197.711 91.2573 197.711 91.7034Z" fill="white"/>
<path d="M170.669 88.4769L135.499 88.2368C135.294 88.2337 135.1 88.1503 134.956 88.0045C134.813 87.8588 134.732 87.6624 134.732 87.4579C134.734 87.2523 134.817 87.0557 134.962 86.9109C135.108 86.7661 135.305 86.6848 135.51 86.6848L170.675 86.9308C170.776 86.9308 170.877 86.951 170.971 86.9903C171.064 87.0296 171.149 87.0871 171.221 87.1596C171.292 87.2321 171.348 87.3181 171.386 87.4125C171.424 87.5069 171.442 87.608 171.441 87.7097C171.441 87.8109 171.421 87.9112 171.382 88.0047C171.343 88.0981 171.286 88.183 171.214 88.2543C171.143 88.3256 171.057 88.382 170.964 88.4202C170.87 88.4584 170.77 88.4777 170.669 88.4769Z" fill="#407BFF"/>
<path opacity="0.2" d="M170.669 88.4769L135.499 88.2368C135.294 88.2337 135.1 88.1503 134.956 88.0045C134.813 87.8588 134.732 87.6624 134.732 87.4579C134.734 87.2523 134.817 87.0557 134.962 86.9109C135.108 86.7661 135.305 86.6848 135.51 86.6848L170.675 86.9308C170.776 86.9308 170.877 86.951 170.971 86.9903C171.064 87.0296 171.149 87.0871 171.221 87.1596C171.292 87.2321 171.348 87.3181 171.386 87.4125C171.424 87.5069 171.442 87.608 171.441 87.7097C171.441 87.8109 171.421 87.9112 171.382 88.0047C171.343 88.0981 171.286 88.183 171.214 88.2543C171.143 88.3256 171.057 88.382 170.964 88.4202C170.87 88.4584 170.77 88.4777 170.669 88.4769Z" fill="black"/>
<path d="M168.433 86.9131H167.966L135.984 86.7198H135.89C135.704 86.7115 135.52 86.682 135.34 86.6319C134.781 86.4818 134.276 86.1778 133.881 85.7544C133.486 85.3309 133.217 84.8051 133.106 84.2366L129.795 64.7872C129.734 64.5157 129.73 64.2344 129.784 63.9615C129.838 63.6885 129.949 63.4299 130.108 63.2021C130.268 62.9744 130.474 62.7826 130.712 62.639C130.95 62.4955 131.215 62.4033 131.491 62.3684C131.605 62.3468 131.72 62.337 131.836 62.3392L163.754 62.5676H164.245C164.934 62.5956 165.593 62.8553 166.117 63.3048C166.64 63.7543 166.997 64.3674 167.129 65.0449L170.434 84.4943C170.496 84.7896 170.49 85.0951 170.418 85.3879C170.345 85.6807 170.208 85.9534 170.015 86.1858C169.823 86.4182 169.581 86.6042 169.307 86.7301C169.033 86.856 168.735 86.9185 168.433 86.9131Z" fill="#407BFF"/>
<g opacity="0.6">
<path d="M169.586 84.4945L166.275 65.0509C166.164 64.4834 165.895 63.9588 165.5 63.5372C165.105 63.1155 164.599 62.8141 164.04 62.6673C163.831 62.608 163.614 62.5765 163.397 62.5736L131.491 62.3511C131.215 62.3859 130.95 62.4781 130.712 62.6217C130.474 62.7652 130.268 62.957 130.108 63.1848C129.949 63.4125 129.838 63.6711 129.784 63.9441C129.73 64.2171 129.734 64.4983 129.795 64.7698L133.106 84.2193C133.221 84.7893 133.495 85.3151 133.896 85.7367C134.296 86.1582 134.807 86.4584 135.37 86.6029C135.549 86.653 135.733 86.6824 135.919 86.6907H136.013L167.995 86.9133C168.26 86.864 168.513 86.7615 168.738 86.6119C168.963 86.4624 169.156 86.2689 169.305 86.043C169.453 85.8172 169.555 85.5636 169.603 85.2975C169.651 85.0314 169.646 84.7583 169.586 84.4945Z" fill="white"/>
</g>
<path d="M147.577 75.4755C147.964 75.4834 148.334 75.6324 148.618 75.8945C148.903 76.1566 149.082 76.5137 149.122 76.8986C149.145 77.1227 149.108 77.3489 149.016 77.5545C149.162 77.4214 149.28 77.26 149.362 77.0801C149.507 76.78 149.567 76.4459 149.537 76.1138C149.484 75.587 149.24 75.098 148.85 74.7396C148.461 74.3811 147.954 74.1783 147.425 74.1695C147.178 74.1681 146.933 74.2189 146.707 74.3187C146.481 74.4184 146.279 74.5649 146.113 74.7484C145.947 74.932 145.822 75.1485 145.746 75.3838C145.67 75.6191 145.644 75.8678 145.67 76.1138C145.706 76.459 145.824 76.7906 146.015 77.0801C146.172 77.3102 146.371 77.5088 146.6 77.6658L146.565 77.6131C146.419 77.4034 146.33 77.1591 146.308 76.9044C146.287 76.7251 146.305 76.5435 146.359 76.3714C146.413 76.1993 146.503 76.0406 146.623 75.9057C146.743 75.7708 146.89 75.6628 147.054 75.5886C147.219 75.5145 147.397 75.4759 147.577 75.4755Z" fill="white"/>
<path d="M169.178 87.5984C169.178 87.6336 169.178 87.6687 169.178 87.7038C169.181 87.9094 169.265 88.1054 169.412 88.2491C169.559 88.3929 169.756 88.4726 169.962 88.4711L189.746 88.2251C189.934 88.2236 190.114 88.1539 190.254 88.0288C190.394 87.9038 190.484 87.7321 190.507 87.5457C190.507 87.5457 190.507 87.4813 190.507 87.4462C190.504 87.2873 190.452 87.1331 190.359 87.0043C190.266 86.8755 190.136 86.7784 189.986 86.7258C189.907 86.6995 189.824 86.6876 189.74 86.6907L169.95 86.9249C169.811 86.9263 169.676 86.9658 169.558 87.0391C169.441 87.1125 169.345 87.2168 169.283 87.3407C169.23 87.4183 169.194 87.5061 169.178 87.5984Z" fill="#407BFF"/>
<path opacity="0.6" d="M169.178 87.5984C169.178 87.6336 169.178 87.6687 169.178 87.7038C169.181 87.9094 169.265 88.1054 169.412 88.2491C169.559 88.3929 169.756 88.4726 169.962 88.4711L189.746 88.2251C189.934 88.2236 190.114 88.1539 190.254 88.0288C190.394 87.9038 190.484 87.7321 190.507 87.5457C190.507 87.5457 190.507 87.4813 190.507 87.4462C190.504 87.2873 190.452 87.1331 190.359 87.0043C190.266 86.8755 190.136 86.7784 189.986 86.7258C189.907 86.6995 189.824 86.6876 189.74 86.6907L169.95 86.9249C169.811 86.9263 169.676 86.9658 169.558 87.0391C169.441 87.1125 169.345 87.2168 169.283 87.3407C169.23 87.4183 169.194 87.5061 169.178 87.5984Z" fill="white"/>
<path d="M77.1214 146.819C77.1214 146.819 75.8578 189.495 97.3798 190.831C97.3798 190.831 105.57 192.465 110.396 183.615C111.098 182.333 114.895 176.916 118.235 148.939C120.522 129.747 121.16 100.424 121.16 100.424C122.078 90.5907 127.185 87.9201 134.164 87.8792L141.834 87.9319" stroke="#263238" stroke-width="1.28432" stroke-miterlimit="10"/>
<path d="M83.8487 168.15C83.8673 168.392 83.8357 168.635 83.7558 168.864C83.676 169.093 83.5496 169.303 83.3848 169.48C83.2199 169.658 83.0201 169.8 82.7979 169.896C82.5757 169.993 82.336 170.042 82.0937 170.042H76.1268C75.6799 170.042 75.2496 169.873 74.9235 169.567C74.5974 169.261 74.4001 168.842 74.3718 168.396L73.582 157.122H83.0882L83.8487 168.15Z" fill="#263238"/>
<path d="M36.369 2.00085H40.9262C39.8546 1.98487 38.7917 2.19475 37.8065 2.61686C36.8213 3.03896 35.9358 3.66384 35.2075 4.4509C34.4793 5.23796 33.9246 6.1696 33.5794 7.18529C33.2343 8.20098 33.1064 9.27799 33.2042 10.3464L42.8742 148.835C43.0658 151.077 44.0834 153.166 45.7291 154.698C47.3748 156.23 49.5309 157.094 51.7778 157.122H47.2207C44.9702 157.092 42.8117 156.223 41.1665 154.685C39.5213 153.148 38.5075 151.052 38.3229 148.806L28.6471 10.3464C28.5493 9.27799 28.6772 8.20098 29.0223 7.18529C29.3674 6.1696 29.9222 5.23796 30.6504 4.4509C31.3787 3.66384 32.2642 3.03896 33.2494 2.61686C34.2346 2.19475 35.2975 1.98487 36.369 2.00085Z" fill="#407BFF"/>
<path d="M36.3656 2.00085H40.9227C39.8512 1.98487 38.7883 2.19475 37.8031 2.61686C36.8179 3.03896 35.9323 3.66384 35.2041 4.4509C34.4758 5.23796 33.9211 6.1696 33.576 7.18529C33.2309 8.20098 33.103 9.27799 33.2008 10.3464L42.8708 148.835C43.0623 151.077 44.08 153.166 45.7257 154.698C47.3714 156.23 49.5275 157.094 51.7744 157.122H47.2173C42.6309 157.122 38.0094 153.397 37.6877 148.806L28.0002 10.3464C27.6784 5.72559 31.7792 2.00085 36.3656 2.00085Z" fill="#263238"/>
<path d="M48.5599 157.122H104.363C105.432 157.138 106.492 156.929 107.475 156.508C108.458 156.088 109.342 155.466 110.07 154.682C110.797 153.898 111.353 152.97 111.7 151.958C112.047 150.946 112.178 149.872 112.085 148.806L102.415 10.3465C102.23 8.10186 101.217 6.00645 99.5732 4.46893C97.9293 2.9314 95.7722 2.06201 93.5227 2.03029H37.7375C36.6677 2.01306 35.6062 2.22099 34.6217 2.6406C33.6373 3.06021 32.7519 3.68215 32.0228 4.46614C31.2937 5.25013 30.7373 6.17868 30.3895 7.19167C30.0417 8.20465 29.9103 9.27947 30.0039 10.3465L39.6738 148.835C39.8651 151.074 40.8802 153.161 42.5223 154.692C44.1643 156.224 46.3161 157.09 48.5599 157.122Z" fill="#407BFF"/>
<g opacity="0.6">
<path d="M93.3756 4.67138C94.9389 4.69656 96.437 5.30276 97.5787 6.37215C98.7205 7.44153 99.4242 8.8977 99.5532 10.4576L109.229 148.946C109.294 149.653 109.21 150.365 108.981 151.037C108.752 151.708 108.385 152.324 107.902 152.844C107.42 153.363 106.833 153.775 106.181 154.052C105.528 154.329 104.825 154.465 104.116 154.452H48.3193C46.7549 154.428 45.2554 153.822 44.1125 152.753C42.9695 151.683 42.265 150.226 42.1359 148.665L32.4717 10.1765C32.4047 9.46963 32.4879 8.75656 32.7158 8.08418C32.9437 7.41179 33.3112 6.79533 33.7942 6.27533C34.2771 5.75533 34.8646 5.34357 35.5179 5.06712C36.1712 4.79067 36.8755 4.6558 37.5846 4.67138H93.3756Z" fill="white"/>
</g>
<path d="M105.263 117.292H41.8493L35.5605 27.2893H98.9799L105.263 117.292Z" fill="#407BFF"/>
<path opacity="0.8" d="M105.263 117.292H41.8493L35.5605 27.2893H98.9799L105.263 117.292Z" fill="white"/>
<path d="M54.3503 104.279C54.3372 104.151 54.3521 104.022 54.3941 103.901C54.4361 103.78 54.504 103.669 54.5932 103.577C54.6825 103.485 54.7907 103.414 54.9105 103.368C55.0302 103.322 55.1585 103.303 55.2863 103.313C55.4281 103.309 55.5691 103.335 55.7002 103.39C55.8312 103.444 55.9493 103.526 56.0468 103.629L55.8362 103.84C55.77 103.77 55.6901 103.715 55.6015 103.677C55.5129 103.64 55.4175 103.622 55.3214 103.623C55.2354 103.617 55.1492 103.63 55.0689 103.662C54.9887 103.693 54.9163 103.742 54.8571 103.805C54.7978 103.867 54.7531 103.942 54.7262 104.024C54.6993 104.106 54.6908 104.193 54.7013 104.279C54.7104 104.461 54.7902 104.632 54.9236 104.755C55.0569 104.879 55.2333 104.946 55.415 104.941C55.5078 104.945 55.6002 104.927 55.6846 104.888C55.7691 104.849 55.8431 104.791 55.9006 104.718L56.1404 104.935C56.0512 105.039 55.9395 105.121 55.8137 105.174C55.688 105.228 55.5516 105.252 55.415 105.245C55.1467 105.255 54.8853 105.159 54.6864 104.979C54.4875 104.798 54.3669 104.547 54.3503 104.279Z" fill="#263238"/>
<path d="M58.0305 103.342L58.1592 105.222H57.8141L57.7556 104.414H56.7845L56.843 105.222H56.492L56.3633 103.342H56.7143L56.7669 104.115H57.738L57.6795 103.342H58.0305Z" fill="#263238"/>
<path d="M60.0464 104.929V105.222H58.6424L58.5137 103.342H59.8826V103.635H58.8647V104.121H59.7714V104.408H58.8647L58.8998 104.929H60.0464Z" fill="#263238"/>
<path d="M60.2462 104.279C60.234 104.152 60.2497 104.023 60.292 103.902C60.3344 103.781 60.4024 103.671 60.4914 103.579C60.5804 103.488 60.6882 103.416 60.8075 103.37C60.9268 103.324 61.0546 103.304 61.1822 103.313C61.325 103.308 61.4671 103.334 61.5992 103.389C61.7312 103.443 61.8503 103.525 61.9485 103.629L61.7379 103.84C61.6713 103.771 61.5913 103.716 61.5028 103.678C61.4143 103.641 61.3191 103.622 61.2231 103.623C61.1366 103.616 61.0498 103.629 60.9687 103.66C60.8877 103.691 60.8146 103.74 60.7547 103.802C60.6948 103.865 60.6496 103.94 60.6223 104.023C60.5951 104.105 60.5865 104.193 60.5972 104.279C60.6077 104.461 60.6888 104.632 60.8231 104.756C60.9574 104.879 61.1344 104.946 61.3167 104.941C61.4085 104.944 61.4998 104.925 61.5831 104.887C61.6664 104.848 61.7395 104.79 61.7964 104.718L62.0362 104.935C61.9482 105.039 61.8375 105.12 61.7127 105.174C61.5879 105.228 61.4524 105.252 61.3167 105.245C61.0482 105.254 60.7869 105.158 60.5874 104.978C60.3879 104.797 60.2657 104.547 60.2462 104.279Z" fill="#263238"/>
<path d="M62.9832 104.431L62.7083 104.742L62.7434 105.222H62.3924L62.2637 103.342H62.6088L62.679 104.302L63.5331 103.342H63.9251L63.1997 104.179L64.1064 105.222H63.6969L62.9832 104.431Z" fill="#263238"/>
<path d="M64.2129 103.342H64.5639L64.6926 105.222H64.3474L64.2129 103.342Z" fill="#263238"/>
<path d="M66.7337 103.342L66.8624 105.222H66.5757L65.4526 103.951L65.5461 105.222H65.2302L65.0957 103.342H65.3823L66.5055 104.613L66.4178 103.342H66.7337Z" fill="#263238"/>
<path d="M68.5832 104.261H68.9108L68.9634 105.005C68.7599 105.168 68.5047 105.254 68.2439 105.245C67.9744 105.255 67.7116 105.16 67.5109 104.979C67.3101 104.799 67.187 104.548 67.1675 104.279C67.1562 104.151 67.1728 104.021 67.2162 103.9C67.2596 103.779 67.3287 103.669 67.4188 103.577C67.5088 103.485 67.6178 103.414 67.738 103.368C67.8582 103.322 67.9869 103.303 68.1152 103.312C68.2585 103.306 68.4015 103.331 68.5346 103.385C68.6678 103.438 68.788 103.519 68.8874 103.623L68.6826 103.834C68.6133 103.765 68.5311 103.711 68.4406 103.675C68.3502 103.639 68.2535 103.621 68.1562 103.623C68.0688 103.614 67.9805 103.625 67.8981 103.656C67.8156 103.686 67.741 103.734 67.6797 103.797C67.6185 103.86 67.5722 103.936 67.5443 104.02C67.5163 104.103 67.5075 104.192 67.5185 104.279C67.5305 104.462 67.6128 104.633 67.748 104.756C67.8833 104.879 68.061 104.946 68.2439 104.941C68.3766 104.942 68.5075 104.91 68.6242 104.847L68.5832 104.261Z" fill="#263238"/>
<path d="M70.4076 103.635L70.4485 104.22H71.3553V104.519H70.4953V105.222H70.1502L70.0156 103.342H71.3845V103.635H70.4076Z" fill="#263238"/>
<path d="M71.6642 104.279C71.6519 104.151 71.6677 104.022 71.7104 103.901C71.7531 103.779 71.8216 103.669 71.9113 103.577C72.0009 103.485 72.1095 103.414 72.2295 103.368C72.3495 103.322 72.478 103.303 72.606 103.313C72.8751 103.304 73.1371 103.4 73.3375 103.58C73.538 103.76 73.6615 104.01 73.6824 104.279C73.6946 104.407 73.6789 104.536 73.6362 104.657C73.5935 104.778 73.525 104.889 73.4353 104.981C73.3457 105.073 73.2371 105.144 73.1171 105.19C72.9971 105.235 72.8686 105.254 72.7406 105.245C72.4711 105.255 72.2083 105.16 72.0075 104.98C71.8068 104.799 71.6837 104.548 71.6642 104.279ZM73.3314 104.279C73.3209 104.099 73.2413 103.931 73.1093 103.808C72.9774 103.686 72.8033 103.62 72.6236 103.623C72.5405 103.622 72.4582 103.639 72.3822 103.673C72.3062 103.707 72.2383 103.756 72.183 103.818C72.1276 103.881 72.0861 103.954 72.0612 104.033C72.0363 104.112 72.0286 104.196 72.0386 104.279C72.0462 104.459 72.1239 104.629 72.255 104.753C72.3862 104.876 72.5604 104.944 72.7406 104.941C72.8242 104.941 72.9071 104.924 72.9835 104.89C73.0599 104.856 73.1282 104.806 73.1836 104.743C73.2391 104.68 73.2804 104.606 73.3049 104.526C73.3294 104.446 73.3364 104.362 73.3256 104.279H73.3314Z" fill="#263238"/>
<path d="M75.3396 105.222L74.9184 104.671H74.4212L74.4621 105.222H74.1111L73.9824 103.342H74.7488C75.246 103.342 75.5678 103.594 75.597 104.009C75.6066 104.132 75.5773 104.255 75.5132 104.36C75.4491 104.465 75.3536 104.547 75.2402 104.595L75.714 105.216L75.3396 105.222ZM74.7546 103.635H74.351L74.4036 104.384H74.8073C75.1115 104.384 75.2636 104.244 75.246 104.009C75.2285 103.775 75.0588 103.635 74.7546 103.635Z" fill="#263238"/>
<path d="M76.7304 104.402L76.6602 103.342H77.0053L77.0814 104.39C77.0814 104.777 77.292 104.941 77.5962 104.941C77.9004 104.941 78.0583 104.777 78.0291 104.39L77.9588 103.342H78.2981L78.3742 104.402C78.3969 104.51 78.3938 104.622 78.3649 104.729C78.3361 104.836 78.2824 104.935 78.2082 105.017C78.1341 105.099 78.0416 105.163 77.9383 105.203C77.835 105.242 77.7237 105.257 77.6137 105.245C77.4991 105.253 77.384 105.237 77.2758 105.199C77.1677 105.16 77.0689 105.098 76.9857 105.019C76.9025 104.94 76.8369 104.844 76.7929 104.737C76.7489 104.631 76.7276 104.517 76.7304 104.402Z" fill="#263238"/>
<path d="M80.4056 104.009C80.4349 104.425 80.1482 104.677 79.651 104.677H79.2298L79.2649 105.222H78.9197L78.791 103.342H79.5574C80.0546 103.342 80.3764 103.594 80.4056 104.009ZM80.0546 104.009C80.0546 103.775 79.8674 103.635 79.5632 103.635H79.1596L79.2122 104.384H79.6159C79.9201 104.384 80.0722 104.244 80.0546 104.009Z" fill="#263238"/>
<path d="M80.7031 103.342H81.5221C81.6553 103.33 81.7893 103.346 81.9164 103.387C82.0435 103.428 82.1611 103.495 82.2624 103.582C82.3637 103.669 82.4466 103.776 82.5063 103.895C82.566 104.015 82.6014 104.145 82.6102 104.279C82.6244 104.407 82.6095 104.537 82.5664 104.659C82.5233 104.78 82.4533 104.891 82.3615 104.981C82.2698 105.072 82.1587 105.141 82.0366 105.182C81.9146 105.224 81.7847 105.237 81.6567 105.222H80.8377L80.7031 103.342ZM81.6157 104.923C81.7025 104.932 81.7902 104.922 81.8725 104.893C81.9547 104.864 82.0294 104.816 82.0911 104.755C82.1528 104.693 82.2 104.618 82.229 104.536C82.2581 104.453 82.2684 104.366 82.2592 104.279C82.2548 104.188 82.2322 104.099 82.1928 104.017C82.1534 103.935 82.0979 103.862 82.0297 103.802C81.9615 103.742 81.882 103.696 81.7958 103.667C81.7096 103.638 81.6185 103.627 81.528 103.634H81.0717L81.1653 104.923H81.6157Z" fill="#263238"/>
<path d="M84.2067 104.783H83.2707L83.1127 105.222H82.7793L83.493 103.342H83.8323L84.8092 105.222H84.4465L84.2067 104.783ZM84.0721 104.513L83.6626 103.687L83.3643 104.513H84.0721Z" fill="#263238"/>
<path d="M85.2021 103.635H84.582V103.342H86.1732V103.635H85.5473L85.6584 105.222H85.3133L85.2021 103.635Z" fill="#263238"/>
<path d="M87.9292 104.929V105.222H86.5193L86.3906 103.342H87.7595V103.635H86.7416L86.7767 104.121H87.6776V104.408H86.7709L86.806 104.929H87.9292Z" fill="#263238"/>
<path d="M88.1699 105.023L88.2693 104.753C88.4546 104.884 88.6747 104.955 88.9011 104.958C89.1936 104.958 89.3106 104.853 89.2989 104.712C89.2989 104.308 88.1757 104.572 88.1289 103.875C88.1289 103.57 88.3278 103.289 88.8426 103.289C89.0668 103.285 89.2876 103.344 89.4802 103.459L89.3866 103.728C89.2264 103.636 89.0452 103.585 88.8602 103.582C88.5735 103.582 88.4624 103.693 88.4741 103.834C88.4741 104.238 89.5914 103.974 89.644 104.666C89.644 104.964 89.4334 105.222 88.9245 105.222C88.6583 105.236 88.3943 105.167 88.1699 105.023Z" fill="#263238"/>
<path d="M95.0656 104.162C95.1058 104.627 95.0479 105.096 94.8958 105.537C94.7437 105.979 94.5008 106.383 94.1826 106.725C93.8645 107.067 93.4783 107.338 93.0489 107.521C92.6196 107.704 92.1567 107.794 91.6902 107.787H54.1159C53.1361 107.771 52.1972 107.392 51.4814 106.722C50.7657 106.052 50.3244 105.139 50.2432 104.162C50.206 103.695 50.2652 103.226 50.4172 102.784C50.5692 102.341 50.8107 101.935 51.1266 101.591C51.445 101.251 51.8305 100.982 52.2585 100.799C52.6864 100.617 53.1476 100.525 53.6128 100.53H91.1695C92.1543 100.54 93.0998 100.918 93.8206 101.59C94.5414 102.262 94.9854 103.179 95.0656 104.162Z" stroke="#407BFF" stroke-width="0.513728" stroke-miterlimit="10"/>
<path d="M58.5687 79.0197C58.5504 78.8349 58.5726 78.6483 58.6337 78.4729C58.6949 78.2976 58.7935 78.1377 58.9227 78.0044C59.0519 77.8711 59.2087 77.7677 59.3819 77.7013C59.5552 77.6349 59.7408 77.6072 59.9259 77.62C60.1323 77.6141 60.3376 77.6511 60.5289 77.7287C60.7202 77.8063 60.8934 77.9229 61.0374 78.0709L60.7332 78.3813C60.6369 78.2795 60.5208 78.1983 60.392 78.143C60.2632 78.0876 60.1246 78.0591 59.9844 78.0592C59.8585 78.0504 59.7322 78.0697 59.6146 78.1156C59.4969 78.1616 59.391 78.233 59.3043 78.3249C59.2176 78.4167 59.1523 78.5267 59.1131 78.6468C59.0739 78.767 59.0618 78.8943 59.0777 79.0197C59.0898 79.2838 59.2052 79.5325 59.3989 79.7122C59.5926 79.8919 59.8492 79.9881 60.1131 79.9802C60.2478 79.9841 60.3817 79.9571 60.5043 79.9013C60.627 79.8454 60.7353 79.7623 60.821 79.6581L61.172 79.9685C61.0428 80.1199 60.8808 80.2398 60.6983 80.319C60.5158 80.3982 60.3177 80.4345 60.119 80.4253C59.7293 80.4368 59.3502 80.2969 59.0612 80.0349C58.7723 79.7729 58.5958 79.4091 58.5687 79.0197Z" fill="#263238"/>
<path d="M63.9141 77.6553L64.1013 80.3844H63.5982L63.5163 79.2131H62.1064L62.1883 80.3844H61.6794L61.4922 77.6553H61.9953L62.0772 78.7797H63.4753L63.3934 77.6553H63.9141Z" fill="#263238"/>
<path d="M66.8461 79.9569L66.8753 80.3844H64.8337L64.6406 77.6553H66.6296L66.6589 78.0828H65.1788L65.2256 78.7914H66.5419V79.2073H65.2315L65.2841 79.9569H66.8461Z" fill="#263238"/>
<path d="M67.1391 79.0196C67.1207 78.8343 67.143 78.6471 67.2044 78.4713C67.2659 78.2955 67.3651 78.1353 67.4949 78.0019C67.6248 77.8686 67.7823 77.7653 67.9563 77.6993C68.1303 77.6333 68.3166 77.6062 68.5021 77.6199C68.7076 77.6141 68.912 77.6512 69.1024 77.7288C69.2927 77.8065 69.4649 77.923 69.6078 78.0709L69.3036 78.3813C69.2079 78.2786 69.0919 78.1969 68.963 78.1414C68.8341 78.086 68.6951 78.058 68.5548 78.0592C68.4288 78.0504 68.3025 78.0696 68.1849 78.1156C68.0673 78.1615 67.9613 78.233 67.8746 78.3248C67.7879 78.4167 67.7226 78.5266 67.6834 78.6468C67.6443 78.7669 67.6322 78.8943 67.648 79.0196C67.6617 79.2842 67.7783 79.533 67.973 79.7125C68.1676 79.8921 68.4248 79.9881 68.6893 79.9801C68.8231 79.9836 68.9559 79.9563 69.0776 79.9005C69.1993 79.8447 69.3066 79.7617 69.3913 79.658L69.7423 79.9684C69.6132 80.1199 69.4512 80.2398 69.2687 80.3189C69.0862 80.3981 68.888 80.4345 68.6893 80.4252C68.2996 80.4367 67.9206 80.2968 67.6316 80.0348C67.3426 79.7728 67.1661 79.409 67.1391 79.0196Z" fill="#263238"/>
<path d="M71.1155 79.2424L70.7118 79.6875L70.7586 80.3844H70.2555L70.0625 77.6553H70.5715L70.665 79.055L71.9169 77.6553H72.5019L71.4255 78.8676L72.7476 80.3786H72.1626L71.1155 79.2424Z" fill="#263238"/>
<path d="M72.9004 77.6553H73.421L73.6141 80.3844H73.111L72.9004 77.6553Z" fill="#263238"/>
<path d="M76.5625 77.6553L76.7497 80.3844H76.3461L74.7139 78.5396L74.8426 80.3844H74.3454L74.1523 77.6553H74.5677L76.1998 79.5059L76.0711 77.6553H76.5625Z" fill="#263238"/>
<path d="M79.27 78.9903H79.7438L79.8199 80.0737C79.525 80.31 79.1562 80.4345 78.7786 80.4251C78.3869 80.4397 78.0049 80.3012 77.7134 80.0389C77.4219 79.7766 77.2437 79.411 77.2167 79.0195C77.199 78.8333 77.2223 78.6456 77.2848 78.4693C77.3473 78.2931 77.4476 78.1327 77.5786 77.9993C77.7095 77.866 77.8681 77.7629 78.043 77.6973C78.218 77.6318 78.4051 77.6053 78.5914 77.6198C78.7987 77.6122 79.0053 77.6472 79.1985 77.7228C79.3917 77.7983 79.5674 77.9128 79.7146 78.0591L79.4162 78.3753C79.315 78.2738 79.1946 78.1936 79.062 78.1392C78.9294 78.0849 78.7873 78.0577 78.644 78.0591C78.5174 78.0495 78.3903 78.0682 78.2717 78.1137C78.1531 78.1592 78.0461 78.2304 77.9583 78.3222C77.8705 78.414 77.8041 78.5242 77.7639 78.6448C77.7236 78.7653 77.7106 78.8933 77.7256 79.0195C77.7407 79.2857 77.8595 79.5353 78.0563 79.7149C78.2532 79.8945 78.5125 79.9896 78.7786 79.98C78.9712 79.9835 79.1612 79.935 79.3285 79.8394L79.27 78.9903Z" fill="#263238"/>
<path d="M80.2941 80.0857C80.2879 80.0445 80.291 80.0024 80.3031 79.9626C80.3152 79.9227 80.336 79.886 80.364 79.8552C80.392 79.8244 80.4265 79.8002 80.465 79.7843C80.5035 79.7685 80.545 79.7614 80.5866 79.7636C80.6742 79.7634 80.7586 79.7965 80.8227 79.8564C80.8868 79.9162 80.9258 79.9982 80.9317 80.0857C80.9358 80.1273 80.9311 80.1693 80.918 80.209C80.9048 80.2487 80.8835 80.2852 80.8554 80.3161C80.8273 80.347 80.793 80.3717 80.7547 80.3885C80.7165 80.4053 80.6751 80.4138 80.6334 80.4136C80.5458 80.4123 80.462 80.3776 80.399 80.3167C80.336 80.2558 80.2985 80.1732 80.2941 80.0857Z" fill="#263238"/>
<path d="M81.2424 80.0856C81.2373 80.0441 81.2412 80.0019 81.2541 79.9621C81.2669 79.9223 81.2883 79.8857 81.3167 79.855C81.3451 79.8243 81.3799 79.8002 81.4186 79.7844C81.4573 79.7686 81.499 79.7615 81.5408 79.7635C81.6278 79.7634 81.7116 79.7968 81.7747 79.8567C81.8379 79.9167 81.8756 79.9986 81.8801 80.0856C81.8842 80.1272 81.8795 80.1693 81.8663 80.2089C81.8532 80.2486 81.8319 80.2851 81.8038 80.316C81.7756 80.3469 81.7413 80.3716 81.7031 80.3884C81.6648 80.4052 81.6235 80.4138 81.5817 80.4136C81.4942 80.4122 81.4104 80.3776 81.3474 80.3167C81.2844 80.2558 81.2469 80.1732 81.2424 80.0856Z" fill="#263238"/>
<path d="M82.1956 80.0856C82.1904 80.0441 82.1944 80.0019 82.2072 79.9621C82.22 79.9223 82.2414 79.8857 82.2698 79.855C82.2982 79.8243 82.333 79.8002 82.3717 79.7844C82.4105 79.7686 82.4521 79.7615 82.4939 79.7635C82.5814 79.7619 82.6659 79.7948 82.7294 79.8551C82.7929 79.9153 82.8301 79.9981 82.8332 80.0856C82.8373 80.1272 82.8326 80.1693 82.8195 80.2089C82.8063 80.2486 82.785 80.2851 82.7569 80.316C82.7287 80.3469 82.6945 80.3716 82.6562 80.3884C82.618 80.4052 82.5766 80.4138 82.5349 80.4136C82.4477 80.4109 82.3647 80.3758 82.302 80.3152C82.2393 80.2545 82.2013 80.1727 82.1956 80.0856Z" fill="#263238"/>
<path d="M92.8133 72.2906C92.8543 72.7559 92.7972 73.2247 92.6459 73.6665C92.4945 74.1084 92.2522 74.5136 91.9346 74.8558C91.617 75.1981 91.2312 75.4698 90.8021 75.6533C90.3731 75.8369 89.9103 75.9283 89.4437 75.9216H51.887C50.9053 75.9074 49.9641 75.5276 49.247 74.8562C48.5299 74.1849 48.0884 73.2702 48.0085 72.2906C47.9684 71.8257 48.026 71.3576 48.1778 70.9164C48.3295 70.4752 48.572 70.0708 48.8895 69.7292C49.207 69.3876 49.5925 69.1164 50.0211 68.9332C50.4498 68.75 50.912 68.6587 51.378 68.6654H88.9348C89.9159 68.6781 90.8571 69.0567 91.5743 69.7271C92.2915 70.3975 92.7333 71.3115 92.8133 72.2906Z" fill="#407BFF"/>
<path opacity="0.4" d="M78.1465 69.0871L78.5853 75.4239H51.8977C51.0417 75.4107 50.2212 75.0789 49.5961 74.4932C48.971 73.9075 48.5861 73.1098 48.5165 72.2555C48.4817 71.8484 48.5325 71.4385 48.6655 71.0522C48.7985 70.6659 49.0108 70.3117 49.2887 70.0125C49.5664 69.7158 49.9029 69.4804 50.2765 69.3211C50.6502 69.1617 51.0529 69.0821 51.459 69.0871H78.1465Z" fill="black"/>
<path d="M88.852 57.7256C88.9334 57.2869 88.9804 56.8424 88.9924 56.3962L91.0106 55.8691C91.0106 55.6056 91.0106 55.3479 90.958 55.0902L88.852 54.5866C88.6858 53.6824 88.3861 52.808 87.9628 51.9921L89.3726 50.5046C89.2323 50.2762 89.086 50.0536 88.9339 49.8311L86.9332 50.4167C86.3502 49.69 85.662 49.0544 84.8916 48.5309L85.3186 46.4812C85.0905 46.3406 84.8565 46.2176 84.6166 46.0946L83.2594 47.6349C82.8364 47.4553 82.4003 47.3085 81.9549 47.1957C81.5136 47.0794 81.0636 46.9991 80.6094 46.9555L79.9367 44.8999C79.6793 44.8999 79.416 44.8999 79.1586 44.8999L78.8018 46.9672C77.9222 47.0652 77.0646 47.3066 76.2629 47.6817L74.6717 46.1649C74.4494 46.2879 74.2329 46.4167 74.0282 46.5573L74.7653 48.6012C74.0766 49.1336 73.4832 49.7792 73.0103 50.5104L70.9219 49.9248C70.8049 50.1415 70.6937 50.3699 70.5884 50.5983L72.2264 52.0683C72.0745 52.4834 71.9571 52.9104 71.8754 53.345C71.7949 53.7821 71.7461 54.2244 71.7292 54.6685L69.7109 55.2015C69.7109 55.4592 69.7402 55.7227 69.7694 55.9804L71.8696 56.4841C72.0351 57.3874 72.3369 58.2602 72.7646 59.0726L71.3548 60.5602C71.4893 60.7886 71.6356 61.017 71.7935 61.2337L73.7884 60.648C74.3742 61.3739 75.0618 62.0111 75.83 62.5397L75.4029 64.5895C75.6311 64.7242 75.8709 64.853 76.1108 64.9701L77.468 63.4357C77.8916 63.6136 78.3276 63.7604 78.7725 63.875C79.2124 63.9885 79.6602 64.0687 80.1122 64.1151L80.7849 66.1707C81.0482 66.1707 81.3056 66.1707 81.563 66.1707L81.9256 64.0975C82.8049 64.0015 83.6625 63.7622 84.4645 63.3889L86.0557 64.9057C86.2722 64.7827 86.4886 64.648 86.6992 64.5075L85.9621 62.4694C86.6513 61.9352 87.2447 61.2876 87.7171 60.5543L89.8055 61.14C89.9284 60.9195 90.0397 60.6927 90.139 60.4606L88.501 58.9965C88.6511 58.5828 88.7685 58.1578 88.852 57.7256Z" fill="#407BFF"/>
<path opacity="0.2" d="M88.852 57.7256C88.9334 57.2869 88.9804 56.8424 88.9924 56.3962L91.0106 55.8691C91.0106 55.6056 91.0106 55.3479 90.958 55.0902L88.852 54.5866C88.6858 53.6824 88.3861 52.808 87.9628 51.9921L89.3726 50.5046C89.2323 50.2762 89.086 50.0536 88.9339 49.8311L86.9332 50.4167C86.3502 49.69 85.662 49.0544 84.8916 48.5309L85.3186 46.4812C85.0905 46.3406 84.8565 46.2176 84.6166 46.0946L83.2594 47.6349C82.8364 47.4553 82.4003 47.3085 81.9549 47.1957C81.5136 47.0794 81.0636 46.9991 80.6094 46.9555L79.9367 44.8999C79.6793 44.8999 79.416 44.8999 79.1586 44.8999L78.8018 46.9672C77.9222 47.0652 77.0646 47.3066 76.2629 47.6817L74.6717 46.1649C74.4494 46.2879 74.2329 46.4167 74.0282 46.5573L74.7653 48.6012C74.0766 49.1336 73.4832 49.7792 73.0103 50.5104L70.9219 49.9248C70.8049 50.1415 70.6937 50.3699 70.5884 50.5983L72.2264 52.0683C72.0745 52.4834 71.9571 52.9104 71.8754 53.345C71.7949 53.7821 71.7461 54.2244 71.7292 54.6685L69.7109 55.2015C69.7109 55.4592 69.7402 55.7227 69.7694 55.9804L71.8696 56.4841C72.0351 57.3874 72.3369 58.2602 72.7646 59.0726L71.3548 60.5602C71.4893 60.7886 71.6356 61.017 71.7935 61.2337L73.7884 60.648C74.3742 61.3739 75.0618 62.0111 75.83 62.5397L75.4029 64.5895C75.6311 64.7242 75.8709 64.853 76.1108 64.9701L77.468 63.4357C77.8916 63.6136 78.3276 63.7604 78.7725 63.875C79.2124 63.9885 79.6602 64.0687 80.1122 64.1151L80.7849 66.1707C81.0482 66.1707 81.3056 66.1707 81.563 66.1707L81.9256 64.0975C82.8049 64.0015 83.6625 63.7622 84.4645 63.3889L86.0557 64.9057C86.2722 64.7827 86.4886 64.648 86.6992 64.5075L85.9621 62.4694C86.6513 61.9352 87.2447 61.2876 87.7171 60.5543L89.8055 61.14C89.9284 60.9195 90.0397 60.6927 90.139 60.4606L88.501 58.9965C88.6511 58.5828 88.7685 58.1578 88.852 57.7256Z" fill="white"/>
<path opacity="0.3" d="M84.4262 59.4824C86.4484 57.386 86.2677 53.9271 84.0226 51.7567C81.7776 49.5862 78.3183 49.5261 76.2962 51.6225C74.274 53.7188 74.4547 57.1777 76.6998 59.3482C78.9448 61.5186 82.4041 61.5787 84.4262 59.4824Z" fill="black"/>
<path d="M70.0048 45.4386L67.9339 45.4737C67.6331 44.9083 67.2847 44.3695 66.8926 43.8632L67.8345 42.1062C67.2383 41.4273 66.5781 40.8075 65.8631 40.2556L64.1549 41.3273C63.6263 40.9705 63.0685 40.659 62.4876 40.3961L62.3765 38.317C61.5462 38.0038 60.6855 37.778 59.8083 37.6436L58.925 39.4591C58.615 39.4591 58.3049 39.4181 57.9949 39.4181C57.6848 39.4181 57.3748 39.4181 57.0706 39.4591L55.9357 37.6436C55.0884 37.7751 54.2584 38.001 53.4611 38.317L53.6425 40.3961C53.1003 40.6585 52.5833 40.9702 52.0981 41.3273L50.2437 40.2146C49.6058 40.7662 49.031 41.3869 48.5296 42.0652L49.6996 43.8222C49.3748 44.331 49.1005 44.8704 48.8806 45.4327L46.8039 45.3976C46.5447 46.2158 46.3779 47.0605 46.3066 47.9159L48.1903 48.929C48.1903 49.2336 48.1903 49.544 48.1903 49.8544C48.1903 50.1648 48.2488 50.481 48.2956 50.7856L46.5406 51.7929C46.7376 52.6608 47.0218 53.5064 47.3889 54.317L49.4656 54.2819C49.7644 54.8486 50.1129 55.3875 50.5069 55.8924L49.5651 57.6494C50.1612 58.3283 50.8214 58.948 51.5365 59.5L53.2447 58.4283C53.7733 58.7851 54.331 59.0966 54.9119 59.3595L55.0231 61.4385C55.8622 61.7762 56.7349 62.0235 57.6263 62.1765L58.5097 60.3609C58.8138 60.3609 59.0947 60.4019 59.4398 60.4019C59.7849 60.4019 60.0599 60.4019 60.3641 60.3609L61.499 62.1765C62.3463 62.0449 63.1763 61.819 63.9735 61.503L63.7922 59.4239C64.3332 59.1628 64.8483 58.851 65.3307 58.4927L67.1851 59.5645C67.8263 59.0145 68.4033 58.3937 68.905 57.7138L67.735 55.9569C68.0599 55.448 68.3342 54.9086 68.554 54.3463L70.6308 54.3814C70.8877 53.5607 71.0545 52.7143 71.128 51.8573L69.2443 50.85C69.2443 50.5454 69.2443 50.235 69.2443 49.9188C69.2443 49.6025 69.1858 49.298 69.139 48.9935L70.894 47.9803C70.6871 47.1043 70.3891 46.2524 70.0048 45.4386Z" fill="#407BFF"/>
<path opacity="0.3" d="M70.0048 45.4386L67.9339 45.4737C67.6331 44.9083 67.2847 44.3695 66.8926 43.8632L67.8345 42.1062C67.2383 41.4273 66.5781 40.8075 65.8631 40.2556L64.1549 41.3273C63.6263 40.9705 63.0685 40.659 62.4876 40.3961L62.3765 38.317C61.5462 38.0038 60.6855 37.778 59.8083 37.6436L58.925 39.4591C58.615 39.4591 58.3049 39.4181 57.9949 39.4181C57.6848 39.4181 57.3748 39.4181 57.0706 39.4591L55.9357 37.6436C55.0884 37.7751 54.2584 38.001 53.4611 38.317L53.6425 40.3961C53.1003 40.6585 52.5833 40.9702 52.0981 41.3273L50.2437 40.2146C49.6058 40.7662 49.031 41.3869 48.5296 42.0652L49.6996 43.8222C49.3748 44.331 49.1005 44.8704 48.8806 45.4327L46.8039 45.3976C46.5447 46.2158 46.3779 47.0605 46.3066 47.9159L48.1903 48.929C48.1903 49.2336 48.1903 49.544 48.1903 49.8544C48.1903 50.1648 48.2488 50.481 48.2956 50.7856L46.5406 51.7929C46.7376 52.6608 47.0218 53.5064 47.3889 54.317L49.4656 54.2819C49.7644 54.8486 50.1129 55.3875 50.5069 55.8924L49.5651 57.6494C50.1612 58.3283 50.8214 58.948 51.5365 59.5L53.2447 58.4283C53.7733 58.7851 54.331 59.0966 54.9119 59.3595L55.0231 61.4385C55.8622 61.7762 56.7349 62.0235 57.6263 62.1765L58.5097 60.3609C58.8138 60.3609 59.0947 60.4019 59.4398 60.4019C59.7849 60.4019 60.0599 60.4019 60.3641 60.3609L61.499 62.1765C62.3463 62.0449 63.1763 61.819 63.9735 61.503L63.7922 59.4239C64.3332 59.1628 64.8483 58.851 65.3307 58.4927L67.1851 59.5645C67.8263 59.0145 68.4033 58.3937 68.905 57.7138L67.735 55.9569C68.0599 55.448 68.3342 54.9086 68.554 54.3463L70.6308 54.3814C70.8877 53.5607 71.0545 52.7143 71.128 51.8573L69.2443 50.85C69.2443 50.5454 69.2443 50.235 69.2443 49.9188C69.2443 49.6025 69.1858 49.298 69.139 48.9935L70.894 47.9803C70.6871 47.1043 70.3891 46.2524 70.0048 45.4386Z" fill="white"/>
<path opacity="0.4" d="M67.2662 49.8954C67.3629 50.9915 67.2287 52.0958 66.8722 53.1367C66.5156 54.1776 65.9447 55.132 65.1964 55.938C64.448 56.744 63.539 57.3838 62.5281 57.8158C61.5171 58.2478 60.4268 58.4625 59.3278 58.4459C57.0151 58.4142 54.7973 57.5204 53.1076 55.9393C51.4179 54.3582 50.3777 52.2032 50.1901 49.8954C50.0942 48.7997 50.2291 47.6961 50.586 46.6559C50.943 45.6156 51.514 44.662 52.2623 43.8566C53.0105 43.0513 53.9192 42.4121 54.9297 41.9804C55.9402 41.5488 57.03 41.3342 58.1285 41.3507C60.4403 41.3823 62.6573 42.2752 64.3468 43.8551C66.0364 45.435 67.0772 47.5886 67.2662 49.8954Z" fill="black"/>
<path d="M60.4044 49.8953C60.4286 50.1195 60.4047 50.3463 60.3345 50.5606C60.2642 50.7749 60.1491 50.9717 59.9969 51.1379C59.8447 51.3042 59.6588 51.4361 59.4517 51.5247C59.2446 51.6134 59.0209 51.6569 58.7957 51.6523C58.3233 51.6459 57.8707 51.4615 57.528 51.1359C57.1854 50.8102 56.978 50.3673 56.9471 49.8953C56.9283 49.6736 56.9561 49.4504 57.0287 49.2401C57.1013 49.0298 57.2171 48.837 57.3687 48.6742C57.5203 48.5115 57.7042 48.3823 57.9087 48.295C58.1131 48.2078 58.3336 48.1644 58.5559 48.1677C59.0236 48.1734 59.4723 48.3537 59.8142 48.6732C60.1561 48.9928 60.3666 49.4286 60.4044 49.8953Z" fill="#263238"/>
<path d="M82.0908 55.547C82.115 55.7712 82.0911 55.998 82.0208 56.2123C81.9505 56.4265 81.8355 56.6233 81.6832 56.7896C81.531 56.9558 81.3452 57.0877 81.138 57.1764C80.9309 57.2651 80.7073 57.3085 80.4821 57.3039C80.0097 57.2976 79.557 57.1132 79.2144 56.7875C78.8718 56.4619 78.6643 56.0189 78.6335 55.547C78.6103 55.3229 78.6348 55.0965 78.7054 54.8827C78.7761 54.6688 78.8912 54.4724 79.0432 54.3064C79.1953 54.1403 79.3807 54.0085 79.5874 53.9195C79.7941 53.8304 80.0173 53.7863 80.2422 53.79C80.7146 53.7964 81.1673 53.9808 81.5099 54.3064C81.8525 54.632 82.0599 55.075 82.0908 55.547Z" fill="#263238"/>
<path opacity="0.2" d="M79.7318 154.452H57.502L75.8299 4.67139H93.7425C94.5084 4.67048 95.2666 4.8258 95.9706 5.12787C96.6746 5.42994 97.3098 5.87243 97.8374 6.42834L79.7318 154.452Z" fill="white"/>
<path opacity="0.2" d="M51.367 154.452H46.3652L64.7166 4.66577H69.7241L51.367 154.452Z" fill="white"/>
<path d="M91.5723 22.3696H97.2233" stroke="#263238" stroke-width="0.513728" stroke-miterlimit="10"/>
<path d="M91.6914 24.0388H97.3425" stroke="#263238" stroke-width="0.513728" stroke-miterlimit="10"/>
<path d="M91.8066 25.708H97.4577" stroke="#263238" stroke-width="0.513728" stroke-miterlimit="10"/>
<path d="M94.9494 151.611H89.392L89.0059 146.047H94.5633L94.9494 151.611Z" stroke="white" stroke-width="0.513728" stroke-miterlimit="10"/>
<path d="M64.4162 151.892L59.6953 149.11L64.0301 146.328L64.4162 151.892Z" stroke="white" stroke-width="0.513728" stroke-miterlimit="10"/>
<path d="M80.4807 148.829C80.5119 149.186 80.4678 149.546 80.3515 149.884C80.2352 150.223 80.0492 150.534 79.8055 150.796C79.5618 151.058 79.2658 151.266 78.9367 151.406C78.6076 151.547 78.2527 151.617 77.895 151.611C77.1428 151.601 76.4215 151.31 75.8721 150.795C75.3226 150.281 74.9843 149.58 74.9232 148.829C74.893 148.473 74.9377 148.114 75.0543 147.776C75.171 147.437 75.357 147.127 75.6005 146.865C75.8441 146.603 76.1397 146.395 76.4683 146.254C76.797 146.113 77.1515 146.043 77.5089 146.048C78.2611 146.058 78.9824 146.349 79.5319 146.863C80.0814 147.378 80.4197 148.079 80.4807 148.829Z" stroke="white" stroke-width="0.513728" stroke-miterlimit="10"/>
<path d="M28.3867 22.071L29.8141 41.5029" stroke="#407BFF" stroke-width="0.513728" stroke-linecap="round" stroke-linejoin="round"/>
<path d="M27.7441 13.2219L28.1185 18.3522" stroke="#407BFF" stroke-width="0.513728" stroke-linecap="round" stroke-linejoin="round"/>
<path d="M44.8026 25.1632L44.9372 24.7943C45.1928 24.9737 45.4966 25.0717 45.8088 25.0754C46.2066 25.0754 46.3938 24.9348 46.3529 24.7416C46.3119 24.1559 44.8143 24.5483 44.7441 23.5703C44.7441 23.1603 45.0249 22.8031 45.7269 22.8031C46.0326 22.8 46.3336 22.8789 46.5986 23.0315L46.4757 23.4063C46.2554 23.2769 46.0057 23.2063 45.7503 23.2013C45.3525 23.2013 45.2063 23.3536 45.218 23.5527C45.2531 24.0974 46.7507 23.7401 46.8209 24.683C46.8209 25.0988 46.5401 25.4502 45.8322 25.4502C45.4672 25.4673 45.1063 25.3667 44.8026 25.1632Z" fill="#263238"/>
<path d="M48.3373 24.5307L48.4016 25.4384H47.9219L47.8576 24.5365L46.7344 22.8674H47.2433L48.0857 24.1207L48.7585 22.8674H49.2265L48.3373 24.5307Z" fill="#263238"/>
<path d="M49.4355 25.1634L49.5759 24.7944C49.8292 24.9741 50.1312 25.0722 50.4417 25.0756C50.8453 25.0756 51.0267 24.935 50.9916 24.7417C50.9506 24.1561 49.453 24.5485 49.3828 23.5704C49.3828 23.1605 49.6578 22.8032 50.3656 22.8032C50.6711 22.8021 50.9715 22.8809 51.2372 23.0316L51.1085 23.4065C50.8907 23.2763 50.6426 23.2057 50.389 23.2015C49.9912 23.2015 49.8391 23.3537 49.8567 23.5529C49.8918 24.0975 51.3893 23.7403 51.4595 24.6832C51.4595 25.099 51.1787 25.4504 50.4709 25.4504C50.1043 25.4654 49.7422 25.3651 49.4355 25.1634Z" fill="#263238"/>
<path d="M52.3014 23.2715H51.4531V22.8674H53.6352V23.2715H52.7869L52.939 25.4384H52.4593L52.3014 23.2715Z" fill="#263238"/>
<path d="M56.0396 25.0343L56.0689 25.4384H54.1442L53.9629 22.8674H55.87V23.2657H54.4718L54.5186 23.9333H55.7588V24.3257H54.5186L54.5713 25.0343H56.0396Z" fill="#263238"/>
<path d="M58.9647 25.4384L58.8418 23.7342L58.093 25.1398H57.8824L56.9406 23.7518L57.0576 25.4384H56.6013L56.4258 22.8674H56.8177L57.9585 24.5717L58.836 22.8674H59.2338L59.4151 25.4384H58.9647Z" fill="#263238"/>
<path d="M61.0252 24.314L60.9258 22.8674H61.3996L61.4991 24.2964C61.54 24.8294 61.7916 25.0519 62.2069 25.0519C62.6223 25.0519 62.8387 24.8294 62.7919 24.2964L62.6925 22.8674H63.1605L63.2599 24.314C63.2945 24.4636 63.2928 24.6194 63.2549 24.7682C63.217 24.917 63.1439 25.0546 63.0419 25.1693C62.9399 25.2841 62.8119 25.3726 62.6687 25.4276C62.5254 25.4826 62.3711 25.5024 62.2186 25.4853C62.0615 25.4944 61.9043 25.4705 61.7569 25.4152C61.6096 25.3598 61.4754 25.2743 61.363 25.164C61.2507 25.0537 61.1626 24.9211 61.1044 24.7747C61.0462 24.6284 61.0193 24.4714 61.0252 24.314Z" fill="#263238"/>
<path d="M66.055 23.781C66.096 24.3667 65.6982 24.6947 65.0254 24.6947H64.4404L64.4931 25.4384H64.0134L63.8379 22.8674H64.8909C65.5753 22.8674 66.0141 23.2305 66.055 23.781ZM65.5753 23.781C65.5753 23.4589 65.3238 23.2715 64.9026 23.2715H64.3468L64.417 24.2906H64.9728C65.394 24.2906 65.5987 24.1032 65.5753 23.781Z" fill="#263238"/>
<path d="M66.4707 22.8675H67.5705C67.7528 22.8524 67.9364 22.8736 68.1104 22.9301C68.2845 22.9865 68.4456 23.0771 68.5844 23.1964C68.7232 23.3157 68.8369 23.4615 68.9189 23.6252C69.001 23.789 69.0497 23.9674 69.0622 24.1501C69.0813 24.326 69.0603 24.504 69.0009 24.6706C68.9414 24.8373 68.845 24.9882 68.7189 25.1122C68.5928 25.2362 68.4403 25.33 68.2728 25.3865C68.1053 25.443 67.9272 25.4608 67.7518 25.4386H66.6287L66.4707 22.8675ZM67.7226 25.0345C67.842 25.0486 67.963 25.0354 68.0766 24.9959C68.1902 24.9565 68.2934 24.8918 68.3784 24.8067C68.4634 24.7215 68.5281 24.6183 68.5675 24.5045C68.6069 24.3908 68.62 24.2697 68.6059 24.1501C68.5993 24.0257 68.5678 23.9038 68.5133 23.7917C68.4587 23.6797 68.3823 23.5797 68.2885 23.4978C68.1946 23.4159 68.0853 23.3537 67.967 23.3148C67.8487 23.276 67.7238 23.2613 67.5997 23.2716H66.9855L67.1084 25.0286L67.7226 25.0345Z" fill="#263238"/>
<path d="M71.2683 24.8411H69.9872L69.7766 25.4267H69.2852L70.2621 22.8557H70.7301L72.0697 25.4267H71.5666L71.2683 24.8411ZM71.0869 24.4663L70.5019 23.3418L70.0983 24.4663H71.0869Z" fill="#263238"/>
<path d="M72.6373 23.2715H71.789L71.7598 22.8674H73.936L73.9652 23.2715H73.117L73.2632 25.4384H72.7894L72.6373 23.2715Z" fill="#263238"/>
<path d="M76.3736 25.0343V25.4384H74.4489L74.2676 22.8674H76.1396L76.1688 23.2657H74.7707L74.8175 23.9333H76.0577L76.0869 24.3257H74.8467L74.8935 25.0343H76.3736Z" fill="#263238"/>
<path d="M38.6181 25.8895L36.7695 24.0389L38.6181 22.1941" stroke="#263238" stroke-width="0.513728" stroke-miterlimit="10"/>
<path d="M36.7754 24.0388H42.8886" stroke="#263238" stroke-width="0.513728" stroke-miterlimit="10"/>
<path d="M81.61 11.904C81.6335 12.0757 81.6199 12.2504 81.5699 12.4162C81.52 12.5821 81.435 12.7352 81.3206 12.8653C81.2063 12.9953 81.0653 13.0991 80.9073 13.1697C80.7493 13.2404 80.578 13.2761 80.4049 13.2745C80.0407 13.2665 79.6919 13.126 79.4238 12.8791C79.1557 12.6322 78.9866 12.296 78.9483 11.9333C78.93 11.7626 78.9482 11.59 79.0016 11.4269C79.055 11.2638 79.1423 11.1139 79.2579 10.9871C79.3735 10.8603 79.5147 10.7596 79.6721 10.6915C79.8294 10.6234 79.9995 10.5896 80.1709 10.5922C80.5283 10.601 80.8705 10.7384 81.1349 10.9794C81.3992 11.2204 81.5679 11.5486 81.61 11.904Z" fill="white"/>
<path d="M82.162 11.2074C82.094 11.2061 82.0288 11.1797 81.9791 11.1332C81.9294 11.0867 81.8987 11.0234 81.8929 10.9555C81.8344 10.3406 81.0564 9.86621 80.1379 9.86621C79.2195 9.86621 78.5175 10.5924 78.5526 10.9555C78.5559 10.9874 78.5524 11.0197 78.5424 11.0501C78.5324 11.0806 78.5162 11.1086 78.4946 11.1324C78.4731 11.1561 78.4468 11.1751 78.4175 11.188C78.3882 11.2009 78.3565 11.2075 78.3244 11.2074C78.2558 11.2063 78.1899 11.1801 78.1392 11.1337C78.0886 11.0873 78.0566 11.0239 78.0495 10.9555C77.991 10.241 78.9211 9.36841 80.0911 9.36841C81.2611 9.36841 82.3317 10.0653 82.4311 10.9555C82.4354 10.9912 82.4313 11.0274 82.419 11.0611C82.4067 11.0949 82.3866 11.1253 82.3604 11.1498C82.3342 11.1744 82.3026 11.1924 82.2681 11.2024C82.2336 11.2123 82.1973 11.2141 82.162 11.2074Z" fill="white"/>
<path d="M82.582 10.0479C82.5133 10.0469 82.4474 10.0207 82.3967 9.97426C82.3461 9.92785 82.3141 9.86447 82.307 9.7961C82.2544 9.21045 81.2131 8.70679 79.967 8.70679C78.721 8.70679 77.8025 9.47399 77.8318 9.7961C77.8361 9.82818 77.8333 9.86082 77.8237 9.89172C77.8141 9.92262 77.7978 9.95105 77.7761 9.97503C77.7544 9.999 77.7277 10.018 77.6979 10.0305C77.6681 10.0431 77.6359 10.0491 77.6036 10.0479C77.5356 10.0467 77.4704 10.0203 77.4207 9.9738C77.371 9.92728 77.3403 9.86397 77.3345 9.7961C77.2702 9.0816 78.4519 8.20898 79.9261 8.20898C81.4003 8.20898 82.7165 8.89419 82.7926 9.7961C82.7966 9.82672 82.7943 9.85786 82.7857 9.88753C82.7771 9.91721 82.7625 9.94477 82.7427 9.96846C82.7229 9.99214 82.6983 10.0114 82.6707 10.0251C82.643 10.0388 82.6128 10.0466 82.582 10.0479Z" fill="white"/>
<path d="M83.0032 8.88801C82.9355 8.88713 82.8703 8.86174 82.8198 8.81654C82.7693 8.77133 82.7368 8.70935 82.7283 8.64204C82.6873 8.11495 81.5174 7.54687 79.8501 7.54687C78.1829 7.54687 77.1357 8.36093 77.1591 8.64204C77.1625 8.67367 77.159 8.70566 77.149 8.73584C77.139 8.76602 77.1226 8.7937 77.101 8.81701C77.0794 8.84032 77.053 8.85872 77.0237 8.87097C76.9944 8.88322 76.9627 8.88903 76.931 8.88801C76.8639 8.88697 76.7995 8.86137 76.7499 8.81606C76.7003 8.77075 76.669 8.70886 76.6619 8.64204C76.6034 7.92754 78.0366 7.04907 79.8092 7.04907C81.7104 7.04907 83.1495 7.71671 83.2255 8.64204C83.2288 8.67317 83.2255 8.70465 83.2158 8.73441C83.2062 8.76418 83.1903 8.79157 83.1693 8.81478C83.1483 8.838 83.1227 8.85652 83.0941 8.86914C83.0655 8.88176 83.0345 8.88819 83.0032 8.88801Z" fill="white"/>
<path d="M85.8461 13.2396H85.0563L84.8574 10.9556H85.6413L85.8461 13.2396Z" fill="white"/>
<path d="M86.9299 13.2394H86.1402L85.8594 10.0417H86.6491L86.9299 13.2394Z" fill="white"/>
<path d="M88.0099 13.2394H87.2201L86.8633 9.12231H87.653L88.0099 13.2394Z" fill="white"/>
<path d="M89.0937 13.2397H88.304L87.8652 8.20898H88.655L89.0937 13.2397Z" fill="white"/>
<path d="M90.1756 13.2395H89.3917L88.8711 7.29517H89.6608L90.1756 13.2395Z" fill="white"/>
<path d="M96.1078 13.2394H93.1535L92.6914 7.96851H95.6456L96.1078 13.2394Z" fill="white"/>
<path d="M95.1024 7.9688H93.2363L93.207 7.58228H95.0673L95.1024 7.9688Z" fill="white"/>
</svg>
