<svg width="56" height="61" viewBox="0 0 56 61" fill="none" xmlns="http://www.w3.org/2000/svg">
<path d="M50.4037 8.11903H49.6918C51.0488 5.90974 50.5477 2.94366 48.3698 1.3278C46.0232 -0.413108 42.6884 0.147272 41.0508 2.59457L37.3541 8.11915H5.59721C2.98691 8.11915 0.863281 10.2428 0.863281 12.8531V43.119C0.863281 45.7293 2.98691 47.8529 5.59721 47.8529H23.9852L22.5959 53.6884H19.5972C17.6429 53.6884 16.0529 55.2782 16.0529 57.2325V57.9725H12.3563C11.7091 57.9725 11.1845 58.4973 11.1845 59.1444C11.1845 59.7915 11.7091 60.3162 12.3563 60.3162H43.6447C44.2919 60.3162 44.8165 59.7915 44.8165 59.1444C44.8165 58.4973 44.2919 57.9725 43.6447 57.9725H39.9481V57.2325C39.9481 55.2782 38.3581 53.6884 36.4038 53.6884H33.4051L32.0158 47.8529H50.4038C53.0141 47.8529 55.1377 45.7293 55.1377 43.119V36.4593V12.853C55.1377 10.2427 53.0141 8.11903 50.4037 8.11903ZM33.6131 28.7201C31.781 30.0027 28.3485 28.2593 25.0706 30.0084C24.2708 25.8536 24.775 21.9461 28.938 21.0836C29.476 20.9714 30.0553 20.9207 30.5484 20.9305C31.9574 21.9759 33.3826 23.0333 34.7877 24.0759C35.4028 25.8651 35.1719 27.629 33.6131 28.7201ZM34.7941 16.1592L38.1113 18.6203L35.5603 21.7306C34.5101 20.9514 33.6073 20.2816 32.5571 19.5023C32.7752 19.1764 34.5948 16.457 34.7941 16.1592ZM42.9987 3.89802C43.8863 2.57136 45.6965 2.2627 46.9733 3.21014C48.2506 4.1577 48.4794 5.97946 47.4673 7.21354C45.6714 9.40291 41.4019 14.6084 39.5992 16.8062L36.0989 14.2091L42.9987 3.89802ZM37.6042 57.2325V57.9725H18.3966V57.2325C18.3966 56.5707 18.9352 56.0321 19.5972 56.0321H36.4037C37.0657 56.0321 37.6042 56.5707 37.6042 57.2325ZM30.9958 53.6884H25.0051L26.3944 47.8529H29.6065L30.9958 53.6884ZM52.794 43.119C52.794 44.437 51.7218 45.5092 50.4038 45.5092C48.5436 45.5092 7.68885 45.5092 5.59733 45.5092C4.27935 45.5092 3.2071 44.437 3.2071 43.119V37.6312H6.55579C7.203 37.6312 7.72764 37.1064 7.72764 36.4593C7.72764 35.8122 7.203 35.2875 6.55579 35.2875H3.20687V12.853C3.20687 11.535 4.27911 10.4627 5.59709 10.4627H35.7858C34.6631 12.1405 31.3879 17.0351 30.3505 18.5853C28.054 18.6061 25.7613 19.4061 24.2604 21.1582C22.2179 23.5424 21.8591 27.2885 23.1939 32.2926C23.422 33.1483 24.4897 33.4548 25.1357 32.8377C28.1658 29.9424 31.9396 33.1006 35.3191 30.3652C37.3821 28.6953 37.8703 26.0406 37.0924 23.5582C38.1439 22.2762 46.7794 11.7478 47.8333 10.4627H50.4036C51.7215 10.4627 52.7938 11.535 52.7938 12.853V35.2874H15.9304C15.2832 35.2874 14.7585 35.8121 14.7585 36.4592C14.7585 37.1063 15.2832 37.6311 15.9304 37.6311H52.794V43.119Z" fill="white"/>
<path d="M11.0164 35.3081C10.4523 35.4234 10.0742 35.911 10.0742 36.4578C10.0742 37.1908 10.7444 37.7522 11.4746 37.6063C12.1235 37.4745 12.5187 36.8492 12.3945 36.2281C12.2641 35.5871 11.6423 35.1821 11.0164 35.3081Z" fill="white"/>
</svg>
