<svg width="60" height="76" viewBox="0 0 60 76" fill="none" xmlns="http://www.w3.org/2000/svg">
<path d="M60.0023 41.2274C58.0015 41.2829 56.3341 41.7826 55.0002 42.7266C53.6663 43.6705 52.7215 45.0586 52.1657 46.891C51.6377 48.6955 51.3737 51.916 51.3737 56.5523C51.3737 62.5213 51.0402 66.6718 50.3733 69.0038C49.7063 71.3636 48.428 73.1127 46.5383 74.2509C44.6487 75.417 41.8697 76 38.2015 76H35.8672V69.8367H37.1594C39.9383 69.8367 41.828 69.3647 42.8284 68.4208C43.8289 67.5047 44.3291 65.2975 44.3291 61.7994C44.3291 55.6084 44.468 51.2774 44.7459 48.8066C45.0238 46.3357 45.788 44.2396 47.0385 42.5184C48.2891 40.7693 50.3691 39.2493 53.1202 38C50.2023 36.8895 47.9417 35.1058 46.4967 32.6071C45.0516 30.1085 44.3291 26.0413 44.3291 20.4055C44.3291 15.1861 44.2457 11.8824 44.079 10.4942C43.9122 9.07836 43.3703 8.0095 42.4533 7.28767C41.564 6.56584 39.7994 6.20493 37.1594 6.20493H35.8672V0H38.2015C40.9249 0 43.0647 0.263744 44.6209 0.791233C46.1771 1.31872 47.5249 2.31817 48.6642 3.78959C49.8314 5.23324 50.5678 7.03781 50.8735 9.20329C51.207 11.341 51.3737 14.7558 51.3737 19.4477C51.3737 24.1118 51.6377 27.3461 52.1657 29.1507C52.6937 30.9552 53.6385 32.3434 55.0002 33.3151C56.3619 34.259 58.0293 34.7448 60.0023 34.7726V41.2274Z" fill="black"/>
<path d="M-0.00231934 41.2274C1.99852 41.2829 3.66589 41.7826 4.99978 42.7266C6.33368 43.6705 7.27851 45.0586 7.8343 46.891C8.3623 48.6955 8.6263 51.916 8.6263 56.5523C8.6263 62.5213 8.95978 66.6718 9.62672 69.0038C10.2937 71.3636 11.572 73.1127 13.4617 74.2509C15.3513 75.417 18.1303 76 21.7985 76H24.1328V69.8367H22.8406C20.0617 69.8367 18.172 69.3647 17.1716 68.4208C16.1711 67.5047 15.6709 65.2975 15.6709 61.7994C15.6709 55.6084 15.532 51.2774 15.2541 48.8066C14.9762 46.3357 14.212 44.2396 12.9615 42.5184C11.7109 40.7693 9.63095 39.2493 6.8798 38C9.79769 36.8895 12.0583 35.1058 13.5034 32.6071C14.9484 30.1085 15.6709 26.0413 15.6709 20.4055C15.6709 15.1861 15.7543 11.8824 15.921 10.4942C16.0878 9.07836 16.6297 8.0095 17.5467 7.28767C18.436 6.56584 20.2006 6.20493 22.8406 6.20493H24.1328V0H21.7985C19.0751 0 16.9353 0.263744 15.3791 0.791233C13.8229 1.31872 12.4751 2.31817 11.3358 3.78959C10.1686 5.23324 9.4322 7.03781 9.12651 9.20329C8.79304 11.341 8.6263 14.7558 8.6263 19.4477C8.6263 24.1118 8.3623 27.3461 7.8343 29.1507C7.3063 30.9552 6.36146 32.3434 4.99978 33.3151C3.6381 34.259 1.97073 34.7448 -0.00231934 34.7726V41.2274Z" fill="black"/>
<path d="M33.7963 22.0613V53.9387C33.7963 55.6299 32.0989 57 30.0036 57C27.9083 57 26.2109 55.6299 26.2109 53.9387V22.0613C26.2109 20.373 27.9083 19 30.0036 19C32.0989 19 33.7963 20.3701 33.7963 22.0613Z" fill="#0075F2"/>
</svg>
