<svg width="236" height="187" viewBox="0 0 236 187" fill="none" xmlns="http://www.w3.org/2000/svg">
<mask id="mask0_63_1160" style="mask-type:luminance" maskUnits="userSpaceOnUse" x="89" y="0" width="147" height="187">
<path d="M89.0026 158.985L130.383 0L235.868 27.4555L194.488 186.441L89.0026 158.985Z" fill="white"/>
</mask>
<g mask="url(#mask0_63_1160)">
<path d="M229.414 26.2904C234.565 46.9158 226.454 68.7548 211.341 83.1534C204.068 90.0819 195.484 95.4426 186.325 99.3806C176.976 103.401 165.894 107.142 155.654 105.873C148.513 104.989 137.772 99.109 141.052 90.0831C143.938 82.142 154.839 76.6589 162.774 78.2003C171.661 79.9275 176.147 89.4238 175.676 97.9231C175.114 108.065 169.083 117.783 162.735 125.365C148.84 141.961 127.641 152.014 106.238 151.644C104.197 151.608 103.912 148.386 105.982 148.403C121.517 148.526 136.684 143.353 149.143 133.843C155.493 128.995 161.077 123.022 165.403 116.252C170.357 108.499 175.025 98.3964 171.238 89.2548C167.058 79.1677 155.95 79.3092 148.332 85.502C143.883 89.1181 141.52 94.1934 146.268 98.7659C150.122 102.478 156.042 103.322 161.164 103.026C177.577 102.084 195.34 93.5264 207.636 82.62C223.057 68.9433 232.251 47.6352 227.423 27.0214C227.114 25.6989 229.08 24.95 229.414 26.2904Z" fill="#151531"/>
<path d="M126.865 138.262C115.841 142.751 104.792 147.185 93.8169 151.8C93.884 150.659 93.95 149.519 94.0164 148.377C98.6986 151.406 103.386 154.39 108.277 157.068C112.776 159.533 118.043 161.293 122.122 164.4C123.41 165.382 122.261 167.492 120.776 167.211C115.575 166.229 110.487 162.856 105.916 160.278C101.137 157.583 96.4556 154.678 91.9997 151.463C90.8547 150.637 91.386 148.741 92.5945 148.305C103.773 144.258 114.888 140.025 126.021 135.85C127.56 135.273 128.375 137.647 126.865 138.262Z" fill="#151531"/>
</g>
<path d="M6.53104 57.1515C5.49114 57.3348 4.52304 57.2077 3.62671 56.77C2.74487 56.3298 1.99093 55.6436 1.36489 54.7115C0.7533 53.7768 0.33289 52.6595 0.10367 51.3596C-0.0160299 50.6807 -0.0320695 49.9985 0.0555305 49.3128C0.15503 48.6102 0.31273 47.942 0.52862 47.3082C0.74197 46.66 0.97399 46.0755 1.2247 45.5547C1.07859 45.4018 0.9737 45.1447 0.91003 44.7836C0.84636 44.4225 0.92671 43.9914 1.15107 43.4901C1.37544 42.9889 1.71791 42.4817 2.17847 41.9686C2.63904 41.4555 3.199 40.9993 3.85836 40.6001C4.51774 40.2009 5.24464 39.9312 6.03904 39.7912C7.35344 39.5594 8.51524 39.6449 9.52454 40.0478C10.5338 40.4507 11.351 41.0735 11.9762 41.9164C12.6133 42.7424 13.0274 43.697 13.2184 44.7803C13.4935 46.3402 13.5013 47.8207 13.242 49.2216C12.9827 50.6226 12.5207 51.8881 11.8562 53.018C11.206 54.1453 10.4166 55.0738 9.48794 55.8035C8.57114 56.5162 7.58544 56.9655 6.53104 57.1515ZM3.74966 43.2777C3.82017 43.3397 3.86179 43.4068 3.87452 43.479C3.89235 43.5801 3.87407 43.6876 3.81968 43.8015C3.77973 43.9128 3.72789 44.041 3.66414 44.1863C3.45084 44.5814 3.23496 45.0886 3.01652 45.7079C2.81253 46.3247 2.63317 46.9967 2.47844 47.724C2.33815 48.4487 2.24501 49.1874 2.19903 49.9401C2.1505 50.6785 2.18354 51.3726 2.29814 52.0226C2.49425 53.1347 2.9062 53.9929 3.53398 54.5971C4.15921 55.1868 4.97014 55.3938 5.96674 55.2181C6.71784 55.0856 7.40094 54.779 8.01614 54.2982C8.64584 53.8149 9.18884 53.2202 9.64514 52.5142C10.1133 51.7913 10.4907 51.0173 10.7771 50.1924C11.061 49.353 11.2472 48.5085 11.3357 47.6589C11.4241 46.8093 11.4034 46.0162 11.2735 45.2796C11.1386 44.514 10.8608 43.8258 10.4404 43.2149C10.0199 42.6039 9.48514 42.1472 8.83614 41.8446C8.18704 41.5421 7.45084 41.4634 6.62754 41.6086C5.93424 41.7308 5.35524 41.9521 4.89044 42.2723C4.43754 42.5756 4.05727 42.9107 3.74966 43.2777ZM25.7877 53.89C25.5422 53.9333 25.3137 53.8619 25.1021 53.6758C24.8906 53.4897 24.7479 53.1872 24.674 52.7684C24.5875 52.2773 24.5362 51.564 24.5201 50.6286C24.5186 49.6906 24.537 48.4438 24.5755 46.8881C24.3485 47.8813 24.0692 48.8316 23.7378 49.7389C23.4207 50.6437 23.0481 51.4019 22.6198 52.0136C22.1915 52.6253 21.7029 52.9795 21.154 53.0763C20.6196 53.1705 20.106 53.0451 19.6133 52.7001C19.135 52.3525 18.8029 51.6516 18.617 50.5972C18.5126 50.005 18.446 49.3316 18.4172 48.5772C18.3859 47.8083 18.3847 47.0415 18.4137 46.2768C18.4427 45.5122 18.4857 44.827 18.5427 44.2212C18.5972 43.601 18.6652 43.1422 18.7468 42.8449C18.8072 42.5959 18.8815 42.4264 18.9699 42.3364C19.0557 42.2319 19.1853 42.1644 19.3586 42.1338C19.5608 42.0982 19.7928 42.1466 20.0544 42.2792C20.3161 42.4118 20.4826 42.6803 20.5539 43.0847C20.5717 43.1858 20.5632 43.433 20.5283 43.8264C20.5053 44.2028 20.4687 44.6709 20.4185 45.2308C20.3802 45.7737 20.3423 46.3612 20.3048 46.9933C20.2674 47.6254 20.2516 48.2537 20.2574 48.8782C20.2777 49.5001 20.3325 50.0638 20.4216 50.5694C20.47 50.8438 20.5383 51.0626 20.6267 51.2257C20.715 51.3889 20.8747 51.4501 21.1058 51.4093C21.3081 51.3737 21.5252 51.1269 21.7572 50.669C22.0036 50.2085 22.2488 49.6142 22.4928 48.8862C22.7486 48.1411 22.9989 47.3225 23.2438 46.4304C23.503 45.5358 23.744 44.6221 23.9667 43.6893C24.2039 42.7539 24.4126 41.8682 24.5928 41.0322C24.6626 40.7518 24.7573 40.5713 24.8771 40.4906C24.9944 40.3954 25.1325 40.3339 25.2913 40.3058C25.5513 40.26 25.8015 40.3276 26.0419 40.5086C26.2943 40.6726 26.4497 40.9207 26.5083 41.2529C26.5465 41.4696 26.5694 41.8527 26.5769 42.4024C26.5989 42.9496 26.6014 43.597 26.5843 44.3447C26.5791 45.0753 26.5599 45.8532 26.5266 46.6781C26.5078 47.5006 26.4878 48.3158 26.4664 49.1238C26.4425 49.9173 26.4144 50.6446 26.382 51.3056C26.364 51.964 26.3461 52.4959 26.3282 52.9011C26.3197 53.275 26.2593 53.5239 26.1472 53.6479C26.052 53.7838 25.9322 53.8645 25.7877 53.89ZM32.2469 52.6394C32.0158 52.6801 31.8042 52.6206 31.6122 52.4609C31.4202 52.3011 31.295 52.0551 31.2364 51.7229C31.1931 51.4774 31.1723 51.0641 31.1741 50.4829C31.1878 49.8848 31.1921 49.1915 31.1871 48.4031C31.1966 47.6121 31.1793 46.796 31.1352 45.9549C31.0886 45.0993 30.9978 44.2888 30.8628 43.5232C30.7966 43.1477 30.8421 42.8567 30.9993 42.6503C31.1684 42.4268 31.3758 42.2935 31.6213 42.2502C31.8524 42.2094 32.0512 42.3233 32.2177 42.5918C32.3842 42.8603 32.5077 43.4343 32.5883 44.3136C32.9929 42.7232 33.5135 41.4102 34.15 40.3746C34.7984 39.322 35.4855 38.5307 36.2111 38.0006C36.9342 37.4561 37.6135 37.1278 38.249 37.0158C38.6679 36.9419 38.9865 36.9751 39.2049 37.1153C39.4351 37.2385 39.568 37.4013 39.6037 37.6035C39.6521 37.8779 39.5747 38.1149 39.3716 38.3146C39.1804 38.4972 38.8282 38.738 38.315 39.037C37.7228 39.3946 37.1888 39.7866 36.7129 40.2131C36.249 40.6225 35.8245 41.1293 35.4396 41.7333C35.069 42.3348 34.7312 43.0794 34.4261 43.9672C34.1184 44.8406 33.8438 45.9017 33.6024 47.1506C33.3609 48.3995 33.1326 49.8919 32.9174 51.6276C32.8867 51.9606 32.8107 52.2049 32.6891 52.3604C32.5821 52.5133 32.4346 52.6063 32.2469 52.6394ZM59.4538 37.7894C59.5353 38.2516 59.471 38.732 59.2611 39.2307C59.0486 39.715 58.7397 40.2013 58.3344 40.6898C57.9265 41.1638 57.4643 41.6251 56.9476 42.0736C56.431 42.5222 55.9067 42.9274 55.3748 43.2892C54.8429 43.6511 54.3526 43.9535 53.904 44.1964C53.8878 44.7801 53.9179 45.2886 53.9943 45.7219C54.0427 45.9963 54.1421 46.1799 54.2924 46.2725C54.4428 46.3651 54.6552 46.3872 54.9296 46.3389C55.5363 46.2319 56.1599 46.0102 56.8006 45.6739C57.4412 45.3375 58.0849 44.9336 58.7315 44.4622C59.3781 43.9907 59.992 43.5027 60.5733 42.9981C61.1545 42.4935 61.6817 42.0208 62.155 41.5799C62.6428 41.1364 63.0481 40.7746 63.371 40.4942C63.6939 40.2139 63.9131 40.0636 64.0286 40.0432C64.202 40.0126 64.3421 40.0475 64.4492 40.1477C64.5681 40.231 64.6403 40.3449 64.6658 40.4893C64.6862 40.6049 64.5451 40.8606 64.2426 41.2565C63.9545 41.6498 63.5538 42.1226 63.0406 42.6747C62.5248 43.2125 61.9393 43.7774 61.2842 44.3695C60.6291 44.9616 59.9399 45.5299 59.2168 46.0744C58.5082 46.6163 57.8072 47.075 57.1138 47.4505C56.4349 47.8233 55.8066 48.0607 55.2289 48.1626C54.4778 48.295 53.8431 48.1165 53.325 47.6271C52.8068 47.1376 52.4432 46.3007 52.2344 45.1163C52.0943 44.3219 52.0541 43.5024 52.1137 42.6579C52.1877 41.8109 52.3403 40.9872 52.5715 40.1869C52.8146 39.3696 53.1091 38.6326 53.455 37.9759C53.8128 37.3022 54.2152 36.7546 54.6621 36.3333C55.1065 35.8975 55.5671 35.6376 56.0437 35.5535C56.9537 35.3931 57.7132 35.5198 58.3223 35.9336C58.9314 36.3475 59.3086 36.9661 59.4538 37.7894ZM54.0648 42.4479C54.4642 42.0945 54.8755 41.7242 55.2986 41.3368C55.7218 40.9494 56.1076 40.5612 56.456 40.1721C56.8044 39.783 57.0708 39.3935 57.2552 39.0036C57.4515 38.5966 57.5166 38.2054 57.4504 37.8299C57.3561 37.2954 57.0201 37.0792 56.4424 37.181C56.0813 37.2447 55.7393 37.5433 55.4163 38.0768C55.1053 38.5933 54.8329 39.2445 54.5992 40.0304C54.3654 40.8163 54.1873 41.6221 54.0648 42.4479ZM65.6943 46.8981C65.1454 46.9949 64.6458 46.8223 64.1956 46.3805C63.7573 45.9216 63.4655 45.2805 63.3203 44.4572C63.1854 43.6917 63.2394 42.9003 63.4825 42.083C63.7401 41.2632 64.1255 40.4506 64.6388 39.6452C65.152 38.8398 65.7333 38.082 66.3825 37.3719C67.0292 36.6472 67.6898 36.002 68.3645 35.4363C69.0536 34.868 69.6943 34.405 70.2865 34.0474C70.8788 33.6898 71.3626 33.4779 71.7382 33.4117C71.9404 33.376 72.1141 33.3901 72.2594 33.4538C72.4021 33.5031 72.4913 33.6289 72.527 33.8311C72.5499 33.9611 72.521 34.0928 72.4403 34.2261C72.4547 34.2236 72.4692 34.221 72.4836 34.2185C72.8014 34.1625 72.9934 34.3222 73.0596 34.6978C73.0825 34.8278 73.0791 35.1039 73.0493 35.5261C73.0169 35.934 72.988 36.4454 72.9624 37.0605C72.9368 37.6757 72.9372 38.3532 72.9634 39.0932C72.9871 39.8188 73.0639 40.5499 73.1938 41.2866C73.3033 41.9077 73.5963 42.1762 74.073 42.0921C74.6074 41.9979 75.1274 41.7796 75.633 41.4373C76.1386 41.095 76.6208 40.7046 77.0796 40.2663C77.5359 39.8135 77.9502 39.3756 78.3224 38.9525C78.692 38.515 79.0068 38.1468 79.2669 37.8477C79.5269 37.5487 79.7219 37.3877 79.8519 37.3648C79.9675 37.3444 80.0749 37.3627 80.1743 37.4197C80.2737 37.4766 80.3374 37.5845 80.3654 37.7434C80.3909 37.8878 80.2923 38.1733 80.0697 38.5998C79.847 39.0262 79.5394 39.5198 79.1468 40.0805C78.7542 40.6412 78.3012 41.1976 77.788 41.7498C77.2747 42.302 76.7331 42.7773 76.1629 43.1757C75.5928 43.5741 75.026 43.8229 74.4627 43.9223C74.0294 43.9987 73.6093 43.9387 73.2023 43.7424C72.8073 43.5291 72.4441 43.1165 72.1129 42.5048C71.796 41.8904 71.537 41.0128 71.3358 39.8717L71.2403 39.3301C70.7389 40.6248 70.1835 41.8248 69.5742 42.9301C68.9793 44.0328 68.35 44.9405 67.6864 45.6533C67.0371 46.3634 66.3731 46.7784 65.6943 46.8981ZM71.6016 35.0442C71.5345 35.0858 71.441 35.147 71.3212 35.2277C70.7103 35.6482 70.0832 36.1459 69.4399 36.7211C68.8111 37.2936 68.2057 37.9142 67.6236 38.5827C67.056 39.2488 66.5572 39.925 66.1272 40.6114C65.6972 41.2978 65.3768 41.9724 65.166 42.6351C64.9552 43.2977 64.9007 43.918 65.0026 44.4957C65.0357 44.6835 65.0973 44.8215 65.1873 44.9099C65.2918 44.9957 65.4451 45.0208 65.6474 44.9852C65.9362 44.9342 66.2799 44.6875 66.6785 44.2449C67.0745 43.7878 67.4934 43.2076 67.9353 42.5042C68.3916 41.7982 68.8365 41.0273 69.2699 40.1913C69.7034 39.3553 70.1066 38.5172 70.4797 37.677C70.8673 36.8342 71.1928 36.062 71.4563 35.3602C71.4962 35.2489 71.5447 35.1436 71.6016 35.0442ZM82.9931 43.7585C82.6754 43.8145 82.4133 43.7639 82.2068 43.6067C82.0174 43.4614 81.9023 43.2732 81.8615 43.0421C81.8259 42.8399 81.8794 42.6368 82.0222 42.4329C82.1769 42.2121 82.4003 42.0014 82.6926 41.8009C83.2169 41.3957 83.7051 40.9969 84.1571 40.6044C84.6236 40.2094 84.9852 39.8106 85.2418 39.4079C85.4985 39.0052 85.5924 38.6089 85.5236 38.2189C85.4651 37.8867 85.3122 37.653 85.0649 37.5179C84.8152 37.3683 84.5025 37.3267 84.127 37.3929C83.9103 37.4311 83.6146 37.5279 83.2399 37.6833C82.8627 37.8243 82.4519 37.9861 82.0075 38.1687C81.575 38.3343 81.1498 38.4987 80.7317 38.6617C80.3112 38.8104 79.9492 38.9114 79.6459 38.9649C79.097 39.0617 78.6624 39.0043 78.3422 38.7927C78.0194 38.5666 77.8172 38.2225 77.7357 37.7603C77.6949 37.5292 77.771 37.1583 77.964 36.6478C78.1569 36.1372 78.4276 35.5607 78.776 34.9185C79.1363 34.2592 79.54 33.5923 79.987 32.9178C80.434 32.2433 80.8958 31.6108 81.3726 31.0204C81.8637 30.4274 82.3281 29.936 82.7657 29.546C83.2178 29.1536 83.6099 28.9281 83.9421 28.8695C84.2743 28.8109 84.5462 28.8747 84.7577 29.0608C84.9692 29.2469 85.1043 29.506 85.1629 29.8382C85.2087 30.0982 85.2049 30.3297 85.1513 30.5328C85.0952 30.7214 84.9389 30.8904 84.6822 31.0399C84.4401 31.1869 84.0458 31.316 83.4995 31.4272C83.0152 31.9743 82.5062 32.5927 81.9725 33.2826C81.4507 33.9554 80.9834 34.641 80.5704 35.3393C80.1692 36.0206 79.9015 36.6561 79.7672 37.2457C80.2158 37.0028 80.7694 36.7637 81.4279 36.5284C82.0983 36.2762 82.7873 36.0877 83.4951 35.9629C84.6072 35.7668 85.4751 35.8744 86.0987 36.2857C86.7341 36.68 87.1232 37.2816 87.2658 38.0904C87.3575 38.6104 87.2869 39.1813 87.054 39.8032C86.833 40.4081 86.5046 40.9947 86.0686 41.5631C85.6327 42.1314 85.1441 42.6122 84.6028 43.0055C84.0641 43.4133 83.5276 43.6642 82.9931 43.7585ZM94.2069 47.031C93.4847 47.1583 92.8113 47.2249 92.1869 47.2308C91.5794 47.2485 90.9689 47.2072 90.3555 47.1069C89.7447 47.021 89.0731 46.8862 88.3407 46.7026C88.1207 46.6372 87.9185 46.5462 87.7341 46.4298C87.5523 46.3278 87.4461 46.1902 87.4156 46.0168C87.3774 45.8002 87.4738 45.5449 87.705 45.2509C87.9242 44.974 88.1494 44.8152 88.3805 44.7744C88.626 44.7311 88.9446 44.7643 89.3363 44.8739C89.7424 44.9811 90.2114 45.1069 90.7432 45.2514C91.2776 45.4103 91.8562 45.5243 92.4789 45.5932C93.1161 45.6595 93.7814 45.6316 94.4744 45.5093C95.2254 45.3769 95.8784 44.9415 96.4334 44.2033C96.9884 43.4651 97.3724 42.474 97.5844 41.2302C97.8004 40.0009 97.7634 38.5701 97.4754 36.938C97.3894 36.4469 97.2794 35.9078 97.1464 35.3207C97.0244 34.7166 96.8834 34.0861 96.7234 33.4294C96.5094 34.2416 96.2504 35.0542 95.9464 35.8672C95.6574 36.6777 95.3344 37.4198 94.9764 38.0935C94.6334 38.7647 94.2474 39.3241 93.8204 39.7718C93.4049 40.2025 92.9516 40.4611 92.4605 40.5477C91.8394 40.6572 91.3637 40.5773 91.0332 40.3079C90.7027 40.0385 90.4789 39.5716 90.3618 38.9072C90.2395 38.2139 90.1576 37.4539 90.1161 36.6272C90.0746 35.8006 90.0607 34.9616 90.0744 34.1102C90.1 33.2419 90.1622 32.4119 90.2608 31.62C90.3595 30.8282 90.4904 30.1349 90.6536 29.5402C90.7471 29.2259 90.9383 29.0432 91.2272 28.9923C91.4294 28.9567 91.6435 29.0306 91.8695 29.2142C92.1074 29.3807 92.2556 29.6301 92.3142 29.9623C92.36 30.2223 92.3672 30.6008 92.3357 31.0978C92.3042 31.5948 92.2552 32.162 92.1889 32.7992C92.1225 33.4364 92.0612 34.1025 92.0051 34.7974C91.9464 35.478 91.9152 36.1462 91.9118 36.8021C91.9057 37.4435 91.9485 38.0243 92.0402 38.5442C92.0784 38.7609 92.242 38.8438 92.5309 38.7928C92.6897 38.7648 92.8881 38.5809 93.1261 38.2411C93.3759 37.8843 93.6394 37.4357 93.9164 36.8954C94.2054 36.3381 94.4864 35.7375 94.7604 35.0935C95.0464 34.4325 95.3184 33.7813 95.5774 33.1399C95.8344 32.484 96.0494 31.8876 96.2224 31.3507C96.1874 31.2377 96.1614 31.1306 96.1434 31.0295C96.1254 30.9284 96.1094 30.8345 96.0944 30.7479C95.9694 30.0401 95.9634 29.5869 96.0774 29.3881C96.2034 29.1723 96.3894 29.0427 96.6344 28.9994C97.0534 28.9256 97.3664 28.9673 97.5724 29.1245C97.7794 29.2817 97.9234 29.5914 98.0044 30.0536C98.0354 30.2269 98.0464 30.4185 98.0384 30.6283C98.0284 30.8238 98.0044 31.1109 97.9674 31.4899C98.2844 32.6105 98.5584 33.6195 98.7914 34.5167C99.0384 35.4114 99.2434 36.321 99.4064 37.2454C99.7144 38.9931 99.7004 40.5593 99.3634 41.9442C99.0414 43.3264 98.4374 44.4606 97.5514 45.3466C96.6794 46.2301 95.5644 46.7915 94.2069 47.031ZM111.2 31.1448C110.804 31.1847 110.579 30.9637 110.524 30.482C110.518 30.3639 110.574 30.2127 110.69 30.0283C110.804 29.8295 110.953 29.7063 111.139 29.6588C111.579 29.5365 112.116 29.3747 112.751 29.1735C113.397 28.9552 114.106 28.711 114.878 28.441C114.898 27.7077 114.94 26.9333 115.004 26.1177C115.069 25.3021 115.159 24.5043 115.275 23.7244C115.388 22.93 115.528 22.2053 115.696 21.5503C115.863 20.8952 116.068 20.3676 116.31 19.9675C116.441 19.7806 116.566 19.6468 116.686 19.5661C116.804 19.471 116.913 19.4145 117.014 19.3967C117.216 19.361 117.39 19.4197 117.536 19.5726C117.697 19.723 117.796 19.9065 117.834 20.1232C117.855 20.2387 117.854 20.3581 117.831 20.4813C117.684 21.3411 117.55 22.3925 117.426 23.6355C117.303 24.8784 117.177 26.2336 117.048 27.7008C118.339 27.2499 119.627 26.7844 120.913 26.3046C122.198 25.8247 123.3 25.3997 124.217 25.0294C124.471 24.8654 124.685 24.8501 124.857 24.9836C125.044 25.1144 125.152 25.2593 125.18 25.4182C125.215 25.6204 125.184 25.7822 125.086 25.9037C125.003 26.0227 124.91 26.1284 124.807 26.221L124.789 26.2465C124.521 26.413 124.112 26.6266 123.562 26.8874C123.01 27.1337 122.373 27.4097 121.653 27.7155C120.93 28.0068 120.156 28.307 119.332 28.6162C118.522 28.9228 117.717 29.2137 116.917 29.4888C116.809 30.8185 116.7 32.1855 116.59 33.5899C116.492 34.9773 116.39 36.343 116.285 37.6871C116.232 38.2326 116.123 38.5868 115.958 38.7499C115.811 38.9249 115.636 39.0303 115.433 39.0659C115.202 39.1067 114.985 39.0557 114.781 38.9129C114.591 38.7676 114.507 38.4175 114.529 37.8627L114.808 30.1958C113.964 30.4786 113.215 30.7075 112.561 30.8824C111.921 31.0548 111.467 31.1423 111.2 31.1448ZM127.53 35.6373C126.677 35.7876 125.949 35.5811 125.343 35.0177C124.737 34.4543 124.343 33.6526 124.159 32.6127C124.093 32.2371 124.073 31.831 124.101 31.3943C124.14 30.9406 124.216 30.5252 124.328 30.1479C124.209 30.0647 124.105 29.9415 124.017 29.7783C123.926 29.6007 123.856 29.3747 123.808 29.1003C123.658 28.2481 123.665 27.4427 123.829 26.684C123.993 25.9253 124.267 25.2439 124.652 24.6399C125.035 24.0215 125.489 23.5168 126.016 23.1261C126.557 22.7328 127.131 22.4827 127.738 22.3757C128.735 22.2 129.607 22.4184 130.356 23.0311C131.101 23.6294 131.603 24.6579 131.86 26.1167C131.995 26.8822 132.017 27.6826 131.926 28.5177C131.85 29.3504 131.681 30.1694 131.421 30.9748C131.175 31.7776 130.851 32.5125 130.447 33.1794C130.058 33.8437 129.612 34.3989 129.11 34.8449C128.62 35.2739 128.093 35.538 127.53 35.6373ZM125.628 29.1592C125.735 29.2594 125.805 29.4035 125.838 29.5912C125.876 29.8079 125.871 30.0322 125.823 30.2641C125.789 30.4935 125.761 30.8036 125.741 31.1944C125.721 31.5853 125.771 32.1273 125.894 32.8206C126.016 33.5139 126.351 33.8122 126.9 33.7154C127.507 33.6085 128.028 33.2708 128.464 32.7025C128.898 32.1197 129.249 31.4099 129.518 30.5731C129.788 29.7362 129.955 28.8654 130.018 27.9606C130.094 27.0387 130.063 26.1878 129.926 25.4079C129.837 24.9023 129.68 24.565 129.457 24.3959C129.231 24.2124 128.872 24.1639 128.381 24.2505C127.876 24.3396 127.379 24.6059 126.891 25.0493C126.415 25.4758 126.048 26.0097 125.789 26.6511C125.53 27.2926 125.464 27.9744 125.591 28.6966C125.619 28.8554 125.631 29.0096 125.628 29.1592ZM148.231 32.3445C147.682 32.4413 147.183 32.2688 146.732 31.8269C146.294 31.3681 146.002 30.727 145.857 29.9037C145.722 29.1382 145.776 28.3468 146.019 27.5295C146.277 26.7096 146.662 25.897 147.176 25.0916C147.689 24.2863 148.27 23.5285 148.919 22.8183C149.566 22.0937 150.227 21.4485 150.901 20.8827C151.59 20.3144 152.231 19.8515 152.823 19.4939C153.416 19.1363 153.9 18.9244 154.275 18.8581C154.477 18.8225 154.651 18.8365 154.796 18.9003C154.939 18.9496 155.028 19.0753 155.064 19.2775C155.087 19.4075 155.058 19.5392 154.977 19.6726C154.992 19.67 155.006 19.6675 155.02 19.665C155.338 19.6089 155.53 19.7687 155.596 20.1442C155.619 20.2742 155.616 20.5503 155.586 20.9726C155.554 21.3804 155.525 21.8919 155.499 22.507C155.474 23.1221 155.474 23.7997 155.5 24.5397C155.524 25.2653 155.601 25.9964 155.731 26.733C155.84 27.3541 156.133 27.6226 156.61 27.5386C157.144 27.4443 157.664 27.2261 158.17 26.8837C158.675 26.5414 159.158 26.1511 159.616 25.7127C160.073 25.26 160.487 24.822 160.859 24.399C161.229 23.9615 161.544 23.5932 161.804 23.2942C162.064 22.9952 162.259 22.8342 162.389 22.8113C162.504 22.7909 162.612 22.8092 162.711 22.8661C162.811 22.923 162.874 23.031 162.902 23.1898C162.928 23.3343 162.829 23.6197 162.607 24.0462C162.384 24.4727 162.076 24.9663 161.684 25.527C161.291 26.0877 160.838 26.6441 160.325 27.1963C159.812 27.7485 159.27 28.2237 158.7 28.6221C158.13 29.0205 157.563 29.2694 157 29.3687C156.566 29.4451 156.146 29.3852 155.739 29.1888C155.344 28.9755 154.981 28.563 154.65 27.9512C154.333 27.3369 154.074 26.4592 153.873 25.3181L153.777 24.7765C153.276 26.0712 152.72 27.2713 152.111 28.3765C151.516 29.4792 150.887 30.387 150.223 31.0997C149.574 31.8099 148.91 32.2248 148.231 32.3445ZM154.138 20.4907C154.071 20.5323 153.978 20.5934 153.858 20.6741C153.247 21.0946 152.62 21.5924 151.977 22.1675C151.348 22.7401 150.743 23.3606 150.16 24.0292C149.593 24.6952 149.094 25.3714 148.664 26.0579C148.234 26.7443 147.914 27.4188 147.703 28.0815C147.492 28.7442 147.438 29.3644 147.539 29.9422C147.573 30.1299 147.634 30.268 147.724 30.3564C147.829 30.4422 147.982 30.4673 148.184 30.4316C148.473 30.3807 148.817 30.1339 149.215 29.6913C149.611 29.2343 150.03 28.6541 150.472 27.9506C150.929 27.2447 151.373 26.4737 151.807 25.6377C152.24 24.8018 152.644 23.9637 153.017 23.1235C153.404 22.2807 153.73 21.5084 153.993 20.8067C154.033 20.6954 154.082 20.5901 154.138 20.4907ZM168.931 16.8771C169.155 15.8695 169.353 14.8368 169.524 13.7791C169.709 12.7188 169.854 11.6432 169.96 10.5523C169.996 10.2481 170.085 9.99407 170.228 9.79017C170.382 9.56927 170.583 9.43727 170.828 9.39397C171.001 9.36337 171.157 9.40286 171.296 9.51246C171.449 9.61956 171.544 9.78146 171.582 9.99806C171.631 10.2726 171.607 10.7683 171.51 11.4854C171.427 12.1999 171.319 13.1052 171.184 14.2011C171.064 15.2946 170.965 16.5482 170.887 17.9619C170.82 19.3587 170.823 20.8923 170.894 22.5626C170.979 24.2304 171.185 25.9887 171.511 27.8375C171.582 28.242 171.554 28.5895 171.427 28.88C171.302 29.185 171.117 29.3592 170.871 29.4024C170.727 29.4279 170.583 29.416 170.44 29.3667C170.298 29.3174 170.152 29.1645 170.002 28.9079C169.87 28.6631 169.725 28.2642 169.568 27.7111C169.408 27.1435 169.242 26.3687 169.068 25.3865C168.936 24.6354 168.835 23.8117 168.767 22.9153C168.314 24.2313 167.776 25.4058 167.154 26.4389C166.544 27.4549 165.92 28.265 165.282 28.869C164.658 29.4704 164.093 29.8157 163.588 29.9048C162.967 30.0143 162.424 29.8941 161.96 29.5439C161.513 29.2057 161.219 28.6322 161.076 27.8233C160.951 27.1156 160.989 26.3569 161.189 25.5472C161.388 24.7376 161.699 23.9233 162.121 23.1043C162.54 22.2709 163.024 21.4706 163.574 20.7035C164.124 19.9363 164.687 19.2487 165.265 18.6404C165.855 18.0152 166.414 17.5144 166.944 17.1381C167.471 16.7474 167.915 16.5201 168.276 16.4565C168.42 16.431 168.559 16.4586 168.692 16.5394C168.826 16.6201 168.905 16.7327 168.931 16.8771ZM168.767 17.5984C168.684 17.7174 168.579 17.8401 168.453 17.9667C168.326 18.0933 168.186 18.2296 168.033 18.3757C167.477 18.9355 166.868 19.579 166.207 20.3062C165.558 21.0164 164.947 21.7793 164.376 22.5948C163.817 23.3934 163.387 24.2064 163.086 25.0339C162.785 25.8614 162.705 26.6723 162.845 27.4668C162.906 27.8134 163.11 27.9562 163.457 27.895C163.933 27.811 164.414 27.4954 164.898 26.9483C165.395 26.3843 165.875 25.6443 166.339 24.7285C166.8 23.7982 167.237 22.7307 167.65 21.526C168.061 20.3069 168.433 18.9977 168.767 17.5984ZM182.451 14.4932C182.675 13.4856 182.873 12.4529 183.044 11.3951C183.229 10.3348 183.374 9.25927 183.48 8.16837C183.516 7.86417 183.605 7.61017 183.748 7.40627C183.902 7.18537 184.102 7.05327 184.348 7.00997C184.521 6.97947 184.677 7.01896 184.816 7.12856C184.969 7.23567 185.064 7.39757 185.102 7.61417C185.151 7.88857 185.126 8.38437 185.03 9.10147C184.947 9.81597 184.839 10.7212 184.704 11.8172C184.584 12.9107 184.485 14.1642 184.407 15.578C184.34 16.9748 184.343 18.5083 184.414 20.1787C184.499 21.8465 184.705 23.6048 185.031 25.4536C185.102 25.858 185.074 26.2055 184.947 26.4961C184.822 26.8011 184.637 26.9752 184.391 27.0185C184.247 27.044 184.103 27.0321 183.96 26.9828C183.818 26.9335 183.671 26.7805 183.522 26.5239C183.389 26.2792 183.245 25.8803 183.088 25.3272C182.928 24.7596 182.762 23.9847 182.588 23.0026C182.456 22.2515 182.355 21.4278 182.287 20.5314C181.834 21.8474 181.296 23.0219 180.674 24.055C180.064 25.071 179.44 25.881 178.802 26.485C178.178 27.0865 177.613 27.4318 177.108 27.5209C176.487 27.6304 175.944 27.5101 175.48 27.16C175.033 26.8218 174.739 26.2483 174.596 25.4394C174.471 24.7317 174.509 23.973 174.709 23.1633C174.908 22.3536 175.219 21.5393 175.64 20.7204C176.059 19.8869 176.544 19.0867 177.094 18.3195C177.643 17.5524 178.207 16.8647 178.785 16.2565C179.375 15.6312 179.934 15.1305 180.464 14.7542C180.991 14.3634 181.435 14.1362 181.796 14.0725C181.94 14.0471 182.079 14.0747 182.212 14.1554C182.346 14.2362 182.425 14.3488 182.451 14.4932ZM182.287 15.2145C182.204 15.3334 182.099 15.4562 181.973 15.5828C181.846 15.7093 181.706 15.8457 181.553 15.9918C180.997 16.5516 180.388 17.1951 179.727 17.9223C179.077 18.6325 178.467 19.3954 177.896 20.2109C177.337 21.0095 176.907 21.8225 176.606 22.65C176.305 23.4775 176.225 24.2884 176.365 25.0828C176.426 25.4295 176.63 25.5722 176.977 25.5111C177.453 25.4271 177.934 25.1115 178.418 24.5644C178.914 24.0003 179.395 23.2604 179.859 22.3446C180.32 21.4143 180.757 20.3468 181.17 19.1421C181.581 17.923 181.953 16.6138 182.287 15.2145ZM10.2194 93.1456C9.90174 93.2016 9.63964 93.1516 9.43314 92.9936C9.24374 92.8486 9.12864 92.6606 9.08784 92.4296C9.05224 92.2276 9.10574 92.0246 9.24854 91.8206C9.40324 91.5996 9.62664 91.3886 9.91894 91.1886C10.4432 90.7826 10.9314 90.3846 11.3834 89.9916C11.8499 89.5966 12.2115 89.1976 12.4681 88.7956C12.7248 88.3926 12.8187 87.9966 12.7499 87.6066C12.6914 87.2736 12.5385 87.0406 12.2912 86.9056C12.0415 86.7556 11.7288 86.7136 11.3533 86.7806C11.1366 86.8186 10.8409 86.9156 10.4662 87.0706C10.089 87.2116 9.67824 87.3736 9.23384 87.5556C8.80134 87.7216 8.37614 87.8856 7.95804 88.0486C7.53744 88.1976 7.17554 88.2986 6.87224 88.3526C6.32334 88.4486 5.88874 88.3916 5.56854 88.1796C5.24564 87.9536 5.04354 87.6096 4.96204 87.1476C4.92124 86.9166 4.99734 86.5456 5.19034 86.0346C5.38324 85.5246 5.65394 84.9476 6.00234 84.3056C6.36264 83.6466 6.76634 82.9796 7.21334 82.3056C7.66034 81.6306 8.12214 80.9986 8.59894 80.4076C9.09004 79.8146 9.55444 79.3236 9.99204 78.9336C10.4441 78.5406 10.8362 78.3156 11.1684 78.2566C11.5006 78.1986 11.7725 78.2616 11.984 78.4476C12.1955 78.6346 12.3306 78.8936 12.3892 79.2256C12.435 79.4856 12.4311 79.7166 12.3776 79.9206C12.3215 80.1086 12.1651 80.2776 11.9085 80.4276C11.6664 80.5746 11.2721 80.7036 10.7258 80.8146C10.2415 81.3616 9.73244 81.9796 9.19884 82.6696C8.67704 83.3426 8.20964 84.0286 7.79664 84.7266C7.39554 85.4076 7.12784 86.0436 6.99354 86.6326C7.44214 86.3906 7.99574 86.1506 8.65424 85.9156C9.32454 85.6636 10.0136 85.4746 10.7214 85.3506C11.8335 85.1546 12.7014 85.2616 13.325 85.6726C13.9604 86.0676 14.3495 86.6686 14.4921 87.4776C14.5838 87.9976 14.5132 88.5686 14.2803 89.1906C14.0593 89.7956 13.7308 90.3816 13.2949 90.9506C12.859 91.5186 12.3704 91.9996 11.8291 92.3926C11.2904 92.8006 10.7538 93.0516 10.2194 93.1456ZM19.2912 90.5406C18.8723 90.6146 18.4547 90.4426 18.0385 90.0246C17.6222 89.6066 17.3479 89.0216 17.2155 88.2706C17.0703 87.4476 17.0233 86.5476 17.0744 85.5706C17.1399 84.5906 17.2535 83.5876 17.4151 82.5616C17.5741 81.5206 17.7322 80.5176 17.8896 79.5516C17.9287 79.3506 18.0056 79.1956 18.1203 79.0866C18.2469 78.9596 18.4547 78.8706 18.7435 78.8196C19.2635 78.7286 19.5681 78.9356 19.6572 79.4406C19.6776 79.5566 19.6656 79.8266 19.6214 80.2516C19.5772 80.6756 19.5134 81.2016 19.43 81.8266C19.3611 82.4496 19.2939 83.1236 19.2284 83.8506C19.1603 84.5626 19.1152 85.2776 19.093 85.9966C19.0708 86.7146 19.083 87.3756 19.1297 87.9776C19.3175 87.6916 19.5113 87.2706 19.711 86.7136C19.9252 86.1546 20.1496 85.5266 20.3842 84.8306C20.6162 84.1196 20.8627 83.4056 21.1236 82.6896C21.382 81.9586 21.6506 81.2856 21.9293 80.6706C22.22 80.0386 22.5166 79.5246 22.8191 79.1286C23.1335 78.7156 23.4496 78.4816 23.7674 78.4256C24.2296 78.3436 24.645 78.4196 25.0137 78.6526C25.3943 78.8686 25.7337 79.3146 26.0318 79.9926C26.3418 80.6526 26.6089 81.6176 26.833 82.8886C26.9527 83.5676 27.1298 84.1916 27.3642 84.7616C27.6131 85.3276 27.921 85.7656 28.288 86.0726C28.6669 86.3636 29.1018 86.4656 29.5929 86.3786C30.3296 86.2486 30.9638 86.0026 31.4958 85.6416C32.0251 85.2646 32.47 84.8736 32.8302 84.4676C33.2024 84.0446 33.5101 83.6776 33.7531 83.3666C33.9936 83.0416 34.1933 82.8646 34.3521 82.8366C34.6843 82.7776 34.881 82.9216 34.9421 83.2686C34.9676 83.4136 34.9 83.6636 34.7394 84.0196C34.5907 84.3586 34.3629 84.7556 34.0561 85.2116C33.7613 85.6516 33.4073 86.0936 32.9944 86.5386C32.5933 86.9666 32.1459 87.3436 31.6522 87.6686C31.173 87.9916 30.6662 88.2006 30.1318 88.2946C29.1351 88.4696 28.2847 88.4186 27.5804 88.1406C26.8905 87.8606 26.315 87.2996 25.8538 86.4576C25.407 85.6126 25.0512 84.4396 24.7863 82.9376C24.6411 82.1136 24.4849 81.5236 24.3175 81.1656C24.1621 80.7906 23.9502 80.5606 23.6817 80.4736C23.5619 80.8076 23.4144 81.2806 23.2393 81.8916C23.0616 82.4896 22.8521 83.1596 22.6107 83.9016C22.3838 84.6416 22.1364 85.3926 21.8687 86.1546C21.6128 86.8996 21.3409 87.5956 21.0528 88.2426C20.7646 88.8886 20.4719 89.4246 20.1744 89.8486C19.8745 90.2596 19.5801 90.4896 19.2912 90.5406ZM35.1143 88.3766C34.8399 88.4246 34.5765 88.3666 34.3242 88.2026C34.0693 88.0246 33.9024 87.7116 33.8235 87.2636C33.7674 86.9456 33.7331 86.4976 33.7204 85.9196C33.7052 85.3256 33.71 84.6776 33.7347 83.9726C33.7594 83.2686 33.7927 82.5706 33.8344 81.8776C33.888 81.1686 33.9544 80.5316 34.0335 79.9666C34.1126 79.4016 34.1942 78.9776 34.2783 78.6946C34.3582 78.4716 34.4436 78.3226 34.5346 78.2476C34.6399 78.1686 34.7432 78.1206 34.8443 78.1036C35.0465 78.0676 35.2313 78.1016 35.3986 78.2066C35.5804 78.3086 35.7044 78.5476 35.7707 78.9226C35.8089 79.1396 35.8292 79.5086 35.8317 80.0286C35.8461 80.5326 35.8468 81.1286 35.834 81.8156C35.833 82.4856 35.8215 83.1806 35.7993 83.8996C35.789 84.6016 35.7736 85.2746 35.7531 85.9186C35.7326 86.5626 35.7232 87.0996 35.7249 87.5316C35.7078 87.7726 35.6386 87.9716 35.517 88.1266C35.4074 88.2656 35.2732 88.3486 35.1143 88.3766ZM35.1249 76.0208C34.7927 76.0794 34.4571 76.0343 34.1182 75.8856C33.7936 75.7343 33.5919 75.4348 33.5129 74.9871C33.4467 74.6115 33.4799 74.2929 33.6125 74.0312C33.7595 73.767 33.9469 73.5627 34.1746 73.4183C34.4142 73.2569 34.6279 73.1597 34.8156 73.1266C35.0034 73.0935 35.2205 73.0999 35.4669 73.1458C35.7252 73.1747 35.9601 73.2822 36.1716 73.4683C36.3806 73.64 36.5207 73.928 36.592 74.3324C36.6404 74.6069 36.5898 74.869 36.4403 75.1187C36.2881 75.3541 36.0851 75.5537 35.831 75.7176C35.5914 75.879 35.356 75.9801 35.1249 76.0208ZM41.6175 93.7526C41.3719 93.7966 41.1617 93.7436 40.9867 93.5956C40.8261 93.4456 40.7025 93.1246 40.6159 92.6336C40.4911 91.9256 40.3965 91.0936 40.3321 90.1366C40.2676 89.1806 40.2291 88.1596 40.2165 87.0746C40.2184 85.9876 40.2347 84.8966 40.2654 83.8046C40.3106 82.7096 40.3719 81.6636 40.4494 80.6666C40.5413 79.6676 40.645 78.7786 40.7607 77.9986C40.8738 77.2039 40.9933 76.5722 41.1191 76.1032C41.2593 75.6317 41.4089 75.3819 41.5678 75.3539C41.8422 75.3055 42.0729 75.3468 42.2598 75.4776C42.4611 75.606 42.5898 75.829 42.6458 76.1468C42.7171 76.5512 42.7103 77.23 42.6252 78.1836C42.5375 79.1226 42.4261 80.3476 42.2908 81.8616C42.5347 81.1336 42.8024 80.3706 43.094 79.5746C43.3855 78.7786 43.7025 78.0006 44.045 77.2404C44.385 76.4656 44.7376 75.763 45.1031 75.1327C45.4829 74.4997 45.8675 73.9777 46.2566 73.5666C46.6458 73.1554 47.0499 72.9129 47.4687 72.839C47.9165 72.7601 48.3392 72.8345 48.7367 73.0622C49.1318 73.2755 49.4652 73.604 49.737 74.0475C50.0207 74.474 50.2135 74.9762 50.3154 75.5539C50.5268 76.7528 50.5296 77.9516 50.3238 79.1496C50.1155 80.3326 49.7292 81.4356 49.1649 82.4586C48.6125 83.4646 47.8983 84.3126 47.0223 85.0036C46.1606 85.6916 45.1738 86.1336 44.0616 86.3296C43.6427 86.4036 43.2633 86.4476 42.9235 86.4636C42.5837 86.4786 42.2859 86.4786 42.0301 86.4646C42.0249 87.4486 42.032 88.4596 42.0514 89.4986C42.0708 90.5376 42.1016 91.6416 42.1439 92.8106C42.1541 93.1216 42.1188 93.3446 42.0381 93.4776C41.9599 93.6256 41.8197 93.7176 41.6175 93.7526ZM48.149 74.4169C47.8457 74.4703 47.5152 74.7073 47.1574 75.1278C46.8141 75.5458 46.4551 76.0857 46.0803 76.7475C45.7175 77.3923 45.3588 78.1036 45.0044 78.8806C44.6475 79.6436 44.3075 80.4186 43.9846 81.2056C43.6616 81.9916 43.3658 82.7216 43.0972 83.3946C42.8431 84.0646 42.6362 84.6226 42.4764 85.0676C43.5979 84.8406 44.5478 84.4416 45.3262 83.8726C46.1019 83.2896 46.7346 82.6116 47.2241 81.8406C47.711 81.0546 48.0735 80.2386 48.3115 79.3926C48.5614 78.5286 48.7081 77.7136 48.7515 76.9467C48.7924 76.165 48.7644 75.4998 48.6677 74.9509C48.5964 74.5465 48.4235 74.3685 48.149 74.4169ZM55.3913 91.3246C55.1458 91.3676 54.9355 91.3156 54.7605 91.1676C54.5999 91.0166 54.4764 90.6966 54.3898 90.2046C54.265 89.4976 54.1704 88.6646 54.1059 87.7086C54.0415 86.7516 54.003 85.7306 53.9904 84.6456C53.9922 83.5586 54.0085 82.4686 54.0393 81.3756C54.0844 80.2806 54.1458 79.2346 54.2232 78.2386C54.3151 77.239 54.4189 76.3495 54.5345 75.5695C54.6477 74.7752 54.7671 74.1435 54.8929 73.6745C55.0332 73.203 55.1827 72.9532 55.3416 72.9252C55.6161 72.8768 55.8467 72.9181 56.0336 73.0489C56.235 73.1773 56.3637 73.4003 56.4197 73.7181C56.491 74.1225 56.4841 74.8013 56.399 75.7546C56.3114 76.6934 56.1999 77.9196 56.0646 79.4326C56.3085 78.7046 56.5763 77.9426 56.8678 77.1463C57.1593 76.3503 57.4763 75.5721 57.8188 74.8117C58.1588 74.0369 58.5115 73.3343 58.8769 72.704C59.2568 72.071 59.6413 71.549 60.0305 71.1378C60.4197 70.7267 60.8237 70.4842 61.2426 70.4103C61.6903 70.3314 62.113 70.4058 62.5106 70.6335C62.9056 70.8468 63.2391 71.1753 63.5109 71.6188C63.7946 72.0453 63.9874 72.5475 64.0893 73.1252C64.3006 74.3241 64.3035 75.5225 64.0977 76.7204C63.8894 77.9036 63.5031 79.0066 62.9388 80.0296C62.3864 81.0356 61.6722 81.8836 60.7961 82.5746C59.9345 83.2626 58.9476 83.7046 57.8354 83.9006C57.4166 83.9746 57.0372 84.0196 56.6973 84.0346C56.3575 84.0496 56.0597 84.0506 55.804 84.0356C55.7987 85.0196 55.8058 86.0306 55.8252 87.0706C55.8446 88.1096 55.8755 89.2136 55.9178 90.3826C55.9279 90.6936 55.8926 90.9156 55.8119 91.0486C55.7337 91.1966 55.5935 91.2886 55.3913 91.3246ZM61.9229 71.9882C61.6196 72.0416 61.289 72.2786 60.9313 72.6991C60.588 73.1171 60.2289 73.657 59.8542 74.3188C59.4913 74.9636 59.1327 75.6747 58.7783 76.452C58.4213 77.2149 58.0814 77.9896 57.7584 78.7766C57.4354 79.5636 57.1397 80.2926 56.8711 80.9656C56.617 81.6356 56.41 82.1936 56.2502 82.6386C57.3717 82.4116 58.3217 82.0136 59.1 81.4436C59.8758 80.8606 60.5084 80.1826 60.9979 79.4116C61.4848 78.6256 61.8473 77.8096 62.0853 76.9635C62.3352 76.1004 62.4819 75.2852 62.5253 74.518C62.5662 73.7363 62.5383 73.0711 62.4415 72.5222C62.3702 72.1178 62.1973 71.9398 61.9229 71.9882ZM92.5177 67.7775C92.5483 67.9508 92.3299 68.1903 91.8625 68.4961C91.4097 68.7994 90.7847 69.1404 89.9877 69.5192C89.1882 69.8836 88.2875 70.2658 87.2858 70.6658C86.2985 71.0633 85.2785 71.4442 84.2257 71.8086C84.0726 73.2206 83.9292 74.6458 83.7957 76.0842C83.6595 77.5082 83.5599 78.8436 83.4969 80.0906C83.4799 80.3326 83.3936 80.5186 83.2381 80.6506C83.0996 80.7936 82.9292 80.8836 82.727 80.9196C82.4959 80.9596 82.2895 80.9296 82.1077 80.8276C81.9284 80.7396 81.8209 80.5946 81.7853 80.3926C81.7216 80.0316 81.7021 79.4986 81.7269 78.7946C81.7516 78.0906 81.8006 77.27 81.8738 76.3337C81.9614 75.3949 82.0461 74.3971 82.1278 73.3401C81.6655 74.4344 81.1279 75.4823 80.5152 76.4839C79.9025 77.4855 79.2359 78.3926 78.5153 79.2046C77.7947 80.0166 77.027 80.6886 76.2121 81.2186C75.4117 81.7476 74.5709 82.0896 73.6899 82.2446C72.3177 82.4866 71.2502 82.3026 70.4873 81.6926C69.7244 81.0826 69.2157 80.0546 68.961 78.6106C68.8184 77.8016 68.7696 76.9763 68.8148 76.1344C68.8718 75.2754 69.0015 74.4483 69.2038 73.6531C69.4206 72.8554 69.6887 72.1379 70.0083 71.5007C70.3253 70.8491 70.6784 70.3177 71.0675 69.9066C71.4712 69.4929 71.8824 69.2491 72.3013 69.1752C73.1101 69.0326 73.749 69.1508 74.218 69.5298C74.6869 69.9088 74.98 70.4305 75.0971 71.0949C75.2194 71.7882 75.1764 72.4734 74.9681 73.1505C74.7599 73.8277 74.4331 74.4661 73.9878 75.0659C73.5425 75.6656 73.034 76.2021 72.4621 76.6752C71.8877 77.134 71.3014 77.4831 70.7032 77.7226C70.7117 77.8556 70.7274 77.9866 70.7503 78.1166C70.9312 79.1416 71.2437 79.8166 71.688 80.1406C72.1442 80.4466 72.7912 80.5266 73.629 80.3786C74.4378 80.2366 75.2467 79.8406 76.0556 79.1916C76.879 78.5396 77.6667 77.6866 78.4188 76.6302C79.1853 75.5717 79.8817 74.3691 80.5081 73.0226C79.8997 73.2043 79.3321 73.364 78.8054 73.5015C78.2905 73.6221 77.838 73.7168 77.4481 73.7855C77.0436 73.8569 76.7518 73.8487 76.5725 73.7612C76.4077 73.6711 76.3011 73.4889 76.2527 73.2144C76.2323 73.0989 76.2791 72.9417 76.393 72.7429C76.5213 72.5416 76.6781 72.4171 76.8633 72.3696C77.6883 72.1496 78.4687 71.9301 79.2045 71.711C79.9547 71.4894 80.6676 71.2669 81.3431 71.0435C81.6066 70.3418 81.8505 69.6137 82.0749 68.8593C82.2968 68.0904 82.4944 67.3109 82.6678 66.5208C82.7716 65.5046 82.8933 64.5896 83.0327 63.7757C83.1866 62.9592 83.377 62.3076 83.6039 61.8208C83.8427 61.317 84.1355 61.0346 84.4821 60.9734C84.641 60.9454 84.791 60.9935 84.932 61.1175C85.0874 61.239 85.1881 61.4298 85.2339 61.6898C85.267 61.8776 85.25 62.372 85.1828 63.1732C85.113 63.9599 85.0054 64.9544 84.8599 66.1566C84.7264 67.3418 84.5817 68.6332 84.4261 70.0308C86.6445 69.2673 88.3494 68.6316 89.5406 68.1237C90.7318 67.6158 91.4936 67.3325 91.8258 67.274C92.0135 67.2408 92.1694 67.2804 92.2935 67.3925C92.4149 67.4903 92.4897 67.6186 92.5177 67.7775ZM70.6551 76.0556C71.1649 75.653 71.6378 75.1675 72.0737 74.5992C72.5096 74.0308 72.8478 73.4574 73.0884 72.8788C73.3433 72.2977 73.4313 71.7833 73.3524 71.3355C73.2811 70.9311 73.0577 70.762 72.6821 70.8282C72.3788 70.8817 72.0801 71.1727 71.7861 71.7011C71.5039 72.2125 71.2604 72.8586 71.0556 73.6394C70.8507 74.4201 70.7172 75.2256 70.6551 76.0556Z" fill="#151531"/>
</svg>
