<svg width="45" height="49" viewBox="0 0 45 49" fill="none" xmlns="http://www.w3.org/2000/svg">
<path d="M43.5615 12.1598L23.5646 1.07639C23.0142 0.724536 22.2803 0.724536 21.73 1.07639C21.73 1.07639 20.0788 1.95603 20.0788 2.13196C17.8773 3.36345 16.96 5.82644 19.8954 7.23386C23.3811 8.99314 27.2337 10.9283 27.2337 10.9283C32.1871 13.3913 31.8202 14.9747 31.8202 17.7895V19.7247L19.8954 13.5673C18.9781 13.2154 18.4277 13.5673 18.4277 14.4469V17.2617C18.4277 18.1414 19.1615 19.3729 19.8954 19.7247L24.8488 22.3636C27.4172 23.7711 31.8202 25.3544 31.8202 28.1693V43.475L43.5615 37.3175C44.1119 36.9656 44.4788 36.4379 44.4788 35.9101V13.5673C44.4788 13.0395 44.1119 12.5117 43.5615 12.1598Z" fill="#ED4F2E"/>
<path d="M1.37446 36.9714L21.3714 48.0548C21.9218 48.4067 22.6557 48.4067 23.206 48.0548C23.206 48.0548 24.8572 47.1752 24.8572 46.9993C27.0587 45.7678 27.9759 43.3048 25.0406 41.8974C21.5549 40.1381 17.7023 38.2029 17.7023 38.2029C12.7489 35.9158 13.1158 34.1565 13.1158 31.3417V29.4065L25.0406 35.564C25.9579 36.0917 26.5083 35.564 26.5083 34.6843V31.8695C26.5083 30.9898 25.7744 29.7583 25.0406 29.4065L20.0872 26.7676C17.5188 25.3602 13.1158 23.7768 13.1158 20.962V5.65625L1.37446 11.8137C1.00754 12.1656 0.640625 12.8693 0.640625 13.3971V35.564C0.640625 36.0917 1.00754 36.6195 1.37446 36.9714Z" fill="#ED4F2E"/>
</svg>
