<svg width="169" height="50" viewBox="0 0 169 50" fill="none" xmlns="http://www.w3.org/2000/svg">
<g clip-path="url(#clip0_7366_9660)">
<path d="M137.823 0.00589379H11.9329C11.4726 0.00589379 11.0212 0.00589379 10.5639 0.00884069C10.1803 0.0117876 9.79968 0.0176814 9.41316 0.0235752C8.57226 0.0324159 7.73432 0.106088 6.90522 0.244592C6.07612 0.386043 5.27653 0.648317 4.5271 1.02847C3.77767 1.41156 3.09609 1.90959 2.50009 2.50192C1.90408 3.09424 1.40545 3.77792 1.02483 4.52938C0.644211 5.27789 0.381615 6.07945 0.24294 6.90753C0.104266 7.7356 0.0275521 8.56958 0.0187005 9.40944C0.00689844 9.79254 0.00394792 10.1756 -0.00195312 10.5617V39.4501C0.00394792 39.8391 0.00689844 40.2134 0.0187005 40.6023C0.0275521 41.4393 0.104266 42.2762 0.24294 43.1043C0.381615 43.9323 0.644211 44.7368 1.02483 45.4854C1.40545 46.2309 1.90113 46.9146 2.50009 47.501C3.09314 48.0963 3.77472 48.5943 4.52415 48.9745C5.27358 49.3546 6.07612 49.6198 6.90227 49.7642C7.73136 49.8998 8.56931 49.9735 9.41021 49.9853C9.79673 49.9941 10.1773 49.9971 10.5609 49.9971C11.0182 50 11.4726 50 11.93 50H157.072C157.521 50 157.978 50 158.429 49.9971C158.81 49.9971 159.202 49.9912 159.583 49.9823C160.421 49.9735 161.259 49.8998 162.085 49.7613C162.917 49.6198 163.72 49.3517 164.472 48.9715C165.221 48.5914 165.906 48.0934 166.496 47.4981C167.092 46.9087 167.591 46.225 167.974 45.4824C168.352 44.7339 168.614 43.9294 168.75 43.1013C168.889 42.2732 168.966 41.4393 168.983 40.5994C168.989 40.2104 168.989 39.8362 168.989 39.4472C168.998 38.9933 168.998 38.5425 168.998 38.0798V11.9231C168.998 11.4664 168.998 11.0126 168.989 10.5587C168.989 10.1756 168.989 9.79254 168.983 9.4065C168.969 8.56958 168.892 7.73266 168.75 6.90458C168.614 6.0765 168.352 5.27495 167.974 4.52643C167.201 3.02352 165.977 1.79761 164.472 1.02552C163.72 0.64537 162.914 0.383097 162.085 0.241646C161.256 0.103141 160.421 0.029469 159.583 0.0206283C159.202 0.0147345 158.81 0.00589379 158.429 0.0029469C157.981 0 157.523 0 157.072 0H137.823V0.00589379Z" fill="#CCCED3"/>
<path d="M10.5698 48.9071C10.1892 48.9071 9.81745 48.9012 9.43978 48.8953C8.65494 48.8835 7.87305 48.8157 7.10002 48.692C6.37714 48.5682 5.68081 48.3354 5.0258 48.0053C4.37963 47.6782 3.78953 47.2509 3.27909 46.7352C2.7598 46.2254 2.32902 45.636 2.00151 44.9907C1.67105 44.3394 1.44091 43.641 1.32289 42.919C1.19602 42.144 1.12521 41.3601 1.11636 40.5762C1.10751 40.3139 1.0957 39.4358 1.0957 39.4358V10.565C1.0957 10.565 1.10751 9.69862 1.11636 9.44813C1.12521 8.66426 1.19602 7.88038 1.32289 7.1083C1.44091 6.38631 1.67105 5.68495 2.00446 5.03074C2.33197 4.38242 2.7598 3.79304 3.27614 3.28323C3.78953 2.76752 4.38258 2.33727 5.02875 2.00427C5.68081 1.67717 6.37714 1.44731 7.09707 1.32649C7.87305 1.19977 8.65789 1.12904 9.44273 1.1202L10.5728 1.10547H158.426L159.568 1.12315C160.347 1.13199 161.126 1.19977 161.893 1.32649C162.619 1.45026 163.324 1.68011 163.985 2.01311C165.283 2.68206 166.34 3.73999 167.007 5.03663C167.331 5.68789 167.558 6.38041 167.676 7.09651C167.806 7.87744 167.88 8.66426 167.895 9.45403C167.898 9.80766 167.898 10.1878 167.898 10.568C167.906 11.0365 167.906 11.4815 167.906 11.9324V38.089C167.906 38.5429 167.906 38.9849 167.898 39.4328C167.898 39.8395 167.898 40.2108 167.892 40.5939C167.877 41.3689 167.806 42.144 167.679 42.9101C167.564 43.6351 167.334 44.3394 167.004 44.9966C166.673 45.636 166.245 46.2225 165.732 46.7293C165.221 47.245 164.628 47.6782 163.979 48.0083C163.321 48.3413 162.619 48.5741 161.893 48.6949C161.12 48.8187 160.338 48.8894 159.553 48.8982C159.188 48.9071 158.804 48.913 158.429 48.913L157.072 48.9159L10.5698 48.9071Z" fill="#FBFBFB"/>
<path d="M40.9069 24.8657C40.9364 22.6615 42.093 20.6252 43.9725 19.47C42.7805 17.7696 40.8567 16.7294 38.7795 16.6645C36.5932 16.4347 34.4777 17.97 33.3624 17.97C32.2264 17.97 30.5122 16.6852 28.6681 16.7235C26.2398 16.803 24.0299 18.1498 22.8467 20.2686C20.3299 24.6211 22.2065 31.0159 24.617 34.5345C25.8238 36.2584 27.2342 38.1798 29.0782 38.112C30.8839 38.0384 31.5567 36.9628 33.7371 36.9628C35.8939 36.9628 36.5283 38.112 38.4107 38.0678C40.3463 38.0384 41.5678 36.338 42.7303 34.5993C43.5977 33.3705 44.2646 32.0149 44.7071 30.5798C42.4057 29.6102 40.9098 27.3588 40.9069 24.8657ZM37.3544 14.3512C38.4107 13.084 38.93 11.4574 38.8061 9.81299C37.1922 9.98096 35.7021 10.753 34.6311 11.9701C33.5748 13.1725 33.0378 14.7431 33.144 16.3374C34.7757 16.3551 36.3277 15.6213 37.3544 14.3512Z" fill="#010202"/>
<path d="M62.5637 33.928H56.642L55.2169 38.1214H52.709L58.3179 22.6001H60.9232L66.5351 38.1214H63.9829L62.5637 33.928ZM57.2528 31.9919H61.9471L59.6309 25.1846H59.566C59.5689 25.1846 57.2528 31.9919 57.2528 31.9919ZM78.6529 32.4634C78.6529 35.979 76.7675 38.2393 73.9232 38.2393C72.4539 38.3159 71.0701 37.5468 70.359 36.259H70.3059V41.864H67.9809V26.8054H70.2321V28.6884H70.2734C71.014 27.4095 72.4008 26.6403 73.8819 26.6875C76.7587 26.6904 78.6529 28.9595 78.6529 32.4634ZM76.263 32.4634C76.263 30.1737 75.0769 28.6678 73.2682 28.6678C71.492 28.6678 70.297 30.2061 70.297 32.4663C70.297 34.7472 71.492 36.2737 73.2682 36.2737C75.0769 36.2737 76.263 34.7767 76.263 32.4634ZM91.1218 32.4634C91.1218 35.979 89.2365 38.2393 86.3921 38.2393C84.9228 38.3159 83.539 37.5468 82.8279 36.259H82.7748V41.864H80.4498V26.8054H82.701V28.6884H82.7423C83.4859 27.4095 84.8697 26.6403 86.3508 26.6875C89.2276 26.6904 91.1218 28.9595 91.1218 32.4634ZM88.7319 32.4634C88.7319 30.1737 87.5458 28.6678 85.7371 28.6678C83.9609 28.6678 82.766 30.2061 82.766 32.4663C82.766 34.7472 83.9609 36.2737 85.7371 36.2737C87.5458 36.2737 88.7319 34.7767 88.7319 32.4634ZM99.3626 33.7983C99.5367 35.3366 101.033 36.3474 103.077 36.3474C105.036 36.3474 106.447 35.3366 106.447 33.9486C106.447 32.7433 105.597 32.0243 103.582 31.5292L101.567 31.0459C98.7135 30.3564 97.3887 29.0244 97.3887 26.8613C97.3887 24.1826 99.7256 22.3438 103.042 22.3438C106.326 22.3438 108.577 24.1826 108.654 26.8613H106.305C106.164 25.3113 104.883 24.3771 103.009 24.3771C101.136 24.3771 99.8554 25.3231 99.8554 26.6993C99.8554 27.7985 100.676 28.4409 102.679 28.936L104.39 29.3574C107.58 30.1088 108.902 31.3907 108.902 33.6598C108.902 36.5625 106.586 38.3837 102.903 38.3837C99.4571 38.3837 97.1291 36.6067 96.9786 33.8013C96.9816 33.7983 99.3626 33.7983 99.3626 33.7983ZM113.926 24.1296V26.8083H116.08V28.6472H113.926V34.8857C113.926 35.8553 114.357 36.3061 115.304 36.3061C115.561 36.3003 115.815 36.2826 116.068 36.2531V38.0802C115.641 38.1597 115.21 38.1951 114.776 38.1892C112.484 38.1892 111.587 37.3287 111.587 35.1362V28.6501H109.937V26.8112H111.587V24.1296H113.926ZM117.325 32.4634C117.325 28.9035 119.426 26.6668 122.698 26.6668C125.982 26.6668 128.074 28.9035 128.074 32.4634C128.074 36.035 125.994 38.2599 122.698 38.2599C119.406 38.2629 117.325 36.035 117.325 32.4634ZM125.705 32.4634C125.705 30.0204 124.584 28.5794 122.698 28.5794C120.816 28.5794 119.695 30.0322 119.695 32.4634C119.695 34.9152 120.816 36.3445 122.698 36.3445C124.584 36.3474 125.705 34.9182 125.705 32.4634ZM129.992 26.8054H132.211V28.7297H132.264C132.574 27.489 133.71 26.6374 134.987 26.6845C135.256 26.6845 135.524 26.714 135.784 26.77V28.9419C135.445 28.8387 135.093 28.7916 134.739 28.8004C134.055 28.7739 133.394 29.045 132.928 29.546C132.462 30.0469 132.237 30.7247 132.317 31.4055V38.1155H129.989V26.8054H129.992ZM146.509 34.7973C146.196 36.8513 144.193 38.2599 141.632 38.2599C138.336 38.2599 136.291 36.0557 136.291 32.5164C136.291 28.9684 138.348 26.6639 141.534 26.6639C144.668 26.6639 146.639 28.8151 146.639 32.2453V33.041H138.637V33.1824C138.563 34.0252 138.852 34.8592 139.437 35.4722C140.021 36.0851 140.838 36.4181 141.685 36.3887C142.815 36.4947 143.877 35.8464 144.302 34.7973H146.509ZM138.646 31.4202H144.311C144.352 30.6628 144.078 29.9232 143.55 29.378C143.022 28.8328 142.29 28.5322 141.531 28.547C140.767 28.5411 140.033 28.8417 139.49 29.3839C138.95 29.9232 138.643 30.6569 138.646 31.4202Z" fill="#010202"/>
<path d="M56.9624 10.9182C57.9508 10.8474 58.9156 11.2217 59.5972 11.9407C60.2788 12.6568 60.6004 13.6411 60.4765 14.6224C60.4765 17.0065 59.1871 18.3738 56.9624 18.3738H54.2656V10.9152H56.9624V10.9182ZM55.4252 17.3218H56.8326C57.5378 17.363 58.2252 17.086 58.7032 16.5674C59.1812 16.0487 59.3995 15.3385 59.2963 14.6401C59.3907 13.9446 59.1723 13.2433 58.6944 12.7276C58.2164 12.2119 57.5348 11.9348 56.8326 11.9732H55.4252V17.3218ZM61.7836 15.5595C61.6862 14.5487 62.1701 13.5733 63.0316 13.0399C63.8932 12.5036 64.9849 12.5036 65.8464 13.0399C66.708 13.5733 67.1919 14.5487 67.0945 15.5595C67.1919 16.5703 66.7109 17.5457 65.8464 18.0821C64.9849 18.6184 63.8932 18.6184 63.0287 18.0821C62.1701 17.5487 61.6862 16.5703 61.7836 15.5595ZM65.9556 15.5595C65.9556 14.3395 65.4068 13.6264 64.4449 13.6264C63.4772 13.6264 62.9343 14.3395 62.9343 15.5595C62.9343 16.7913 63.4772 17.4986 64.4449 17.4986C65.4068 17.4986 65.9556 16.7854 65.9556 15.5595ZM74.1639 18.3768H73.0103L71.8448 14.2334H71.7563L70.5968 18.3768H69.4549L67.9 12.7482H69.0271L70.0362 17.0418H70.1188L71.2754 12.7482H72.3435L73.5001 17.0418H73.5886L74.5918 12.7482H75.7041L74.1639 18.3768ZM77.0171 12.7482H78.0881V13.6411H78.1708C78.4599 12.9839 79.1356 12.5802 79.8526 12.6392C80.4072 12.5979 80.9531 12.8101 81.3308 13.2167C81.7114 13.6234 81.8855 14.1804 81.8028 14.7315V18.3738H80.6905V15.0085C80.6905 14.1038 80.2981 13.6558 79.4749 13.6558C79.0972 13.6382 78.7314 13.7855 78.4747 14.0596C78.215 14.3336 78.0911 14.7079 78.1294 15.0821V18.3738H77.0171V12.7482ZM83.5761 10.5498H84.6885V18.3738H83.5761V10.5498ZM86.2316 15.5595C86.1342 14.5487 86.6181 13.5733 87.4826 13.0399C88.3442 12.5036 89.4358 12.5036 90.2974 13.0399C91.1589 13.5733 91.6458 14.5487 91.5484 15.5595C91.6458 16.5703 91.1649 17.5457 90.3004 18.0821C89.4358 18.6184 88.3442 18.6184 87.4826 18.0821C86.6181 17.5487 86.1342 16.5703 86.2316 15.5595ZM90.4036 15.5595C90.4036 14.3395 89.8548 13.6264 88.8929 13.6264C87.9252 13.6264 87.3823 14.3395 87.3823 15.5595C87.3823 16.7913 87.9252 17.4986 88.8929 17.4986C89.8548 17.4986 90.4036 16.7854 90.4036 15.5595ZM92.7198 16.7854C92.7198 15.7717 93.4751 15.1882 94.8146 15.1057L96.3401 15.0173V14.5311C96.3401 13.9358 95.9476 13.6028 95.1864 13.6028C94.5668 13.6028 94.136 13.8297 94.0121 14.2275H92.9352C93.0473 13.2609 93.959 12.6421 95.2366 12.6421C96.6499 12.6421 97.4465 13.3435 97.4465 14.534V18.3797H96.3755V17.587H96.287C95.924 18.1646 95.2749 18.5035 94.5934 18.4711C94.1154 18.5212 93.6374 18.365 93.2804 18.0438C92.9263 17.7226 92.7198 17.2658 92.7198 16.7854ZM96.3401 16.3051V15.8336L94.9622 15.922C94.1862 15.975 93.8351 16.2373 93.8351 16.7353C93.8351 17.2422 94.2747 17.5369 94.8796 17.5369C95.2366 17.5723 95.5965 17.4632 95.8709 17.2304C96.1483 16.9947 96.3165 16.6617 96.3401 16.3051ZM98.91 15.5595C98.91 13.7796 99.8246 12.6539 101.25 12.6539C101.967 12.6215 102.642 13.0046 102.979 13.6411H103.061V10.5498H104.174V18.3768H103.109V17.4868H103.02C102.66 18.1174 101.976 18.4976 101.25 18.4681C99.8158 18.4681 98.91 17.3424 98.91 15.5595ZM100.058 15.5595C100.058 16.753 100.621 17.4721 101.562 17.4721C102.501 17.4721 103.079 16.7442 103.079 15.5654C103.079 14.3926 102.492 13.6529 101.562 13.6529C100.63 13.6529 100.058 14.3749 100.058 15.5595ZM108.774 15.5595C108.676 14.5487 109.16 13.5733 110.022 13.0399C110.883 12.5036 111.975 12.5036 112.836 13.0399C113.698 13.5733 114.182 14.5487 114.085 15.5595C114.182 16.5703 113.701 17.5457 112.836 18.0821C111.975 18.6184 110.883 18.6184 110.019 18.0821C109.157 17.5487 108.673 16.5703 108.774 15.5595ZM112.946 15.5595C112.946 14.3395 112.397 13.6264 111.435 13.6264C110.467 13.6264 109.924 14.3395 109.924 15.5595C109.924 16.7913 110.467 17.4986 111.435 17.4986C112.397 17.4986 112.946 16.7854 112.946 15.5595ZM115.58 12.7482H116.651V13.6411H116.734C117.023 12.9839 117.699 12.5802 118.416 12.6392C118.971 12.5979 119.516 12.8101 119.894 13.2167C120.275 13.6234 120.446 14.1804 120.366 14.7315V18.3738H119.254V15.0085C119.254 14.1038 118.861 13.6558 118.038 13.6558C117.661 13.6382 117.298 13.7855 117.038 14.0596C116.781 14.3336 116.654 14.7079 116.696 15.0821V18.3738H115.583V12.7482H115.58ZM126.651 11.3484V12.7747H127.872V13.7089H126.651V16.6027C126.651 17.1921 126.893 17.4514 127.447 17.4514C127.589 17.4514 127.731 17.4426 127.872 17.4249V18.3502C127.672 18.3856 127.471 18.4062 127.267 18.4092C126.031 18.4092 125.538 17.973 125.538 16.8886V13.7089H124.641V12.7747H125.535V11.3484H126.651ZM129.389 10.5498H130.492V13.6499H130.581C130.882 12.9869 131.569 12.5832 132.298 12.6421C132.85 12.6126 133.387 12.8307 133.764 13.2344C134.139 13.6411 134.313 14.1922 134.24 14.7403V18.3738H133.127V15.0114C133.127 14.1126 132.708 13.6558 131.923 13.6558C131.537 13.6234 131.156 13.7649 130.882 14.0419C130.607 14.3159 130.472 14.699 130.504 15.0851V18.3738H129.392V10.5498H129.389ZM140.722 16.8562C140.409 17.917 139.382 18.6037 138.279 18.4829C137.529 18.5035 136.806 18.1911 136.305 17.6312C135.803 17.0713 135.573 16.3198 135.676 15.5772C135.576 14.8316 135.806 14.0772 136.305 13.5144C136.804 12.9486 137.52 12.6303 138.276 12.6362C139.843 12.6362 140.79 13.7059 140.79 15.4741V15.8601H136.812V15.922C136.777 16.3405 136.922 16.753 137.205 17.0595C137.491 17.366 137.892 17.5398 138.311 17.5339C138.857 17.5988 139.385 17.3306 139.654 16.8503L140.722 16.8562ZM136.812 15.0438H139.66C139.686 14.6607 139.553 14.2865 139.288 14.0095C139.025 13.7295 138.653 13.5792 138.27 13.5851C137.88 13.5792 137.506 13.7325 137.231 14.0095C136.957 14.2806 136.806 14.6548 136.812 15.0438Z" fill="#010202"/>
</g>
<defs>
<clipPath id="clip0_7366_9660">
<rect width="169" height="50" fill="white"/>
</clipPath>
</defs>
</svg>
