<svg width="46" height="46" viewBox="0 0 46 46" fill="none" xmlns="http://www.w3.org/2000/svg">
<g clip-path="url(#clip0_7366_9560)">
<path d="M12.9634 20.6318C12.9634 21.2039 13.0248 21.6668 13.1321 22.007C13.2548 22.3472 13.4071 22.7181 13.6218 23.1196C13.6985 23.2433 13.7291 23.3669 13.7291 23.4752C13.7291 23.6295 13.6371 23.7838 13.4388 23.939L12.4747 24.5878C12.3367 24.6808 12.1996 24.7268 12.077 24.7268C11.9236 24.7268 11.7713 24.6491 11.6179 24.5102C11.4033 24.2783 11.2202 24.031 11.0669 23.7838C10.9136 23.5212 10.7612 23.2279 10.5925 22.8724C9.39939 24.2936 7.89959 25.0047 6.09409 25.0047C4.80897 25.0047 3.78355 24.6338 3.03414 23.892C2.28472 23.1503 1.90234 22.1613 1.90234 20.925C1.90234 19.6121 2.36139 18.5455 3.2948 17.7424C4.22822 16.9393 5.46734 16.5368 7.04284 16.5368C7.56322 16.5368 8.09893 16.5828 8.66434 16.6605C9.22976 16.7381 9.81147 16.8617 10.4238 17.0007V15.8727C10.4238 14.6988 10.1795 13.8794 9.70509 13.4002C9.21539 12.921 8.3893 12.6891 7.21151 12.6891C6.6758 12.6891 6.12572 12.7505 5.55934 12.8904C4.99297 13.0293 4.44289 13.199 3.90718 13.4155C3.6628 13.5238 3.4788 13.5852 3.37147 13.6168C3.26414 13.6475 3.18747 13.6628 3.12709 13.6628C2.91243 13.6628 2.80605 13.5085 2.80605 13.1836V12.4265C2.80605 12.1793 2.83672 11.9943 2.91339 11.886C2.99005 11.7778 3.12805 11.6695 3.34176 11.5612C3.87747 11.2833 4.51955 11.0513 5.26993 10.8654C6.01934 10.6642 6.81476 10.5722 7.65618 10.5722C9.47701 10.5722 10.8081 10.989 11.6649 11.8238C12.5063 12.6585 12.9347 13.9254 12.9347 15.6245V20.6308L12.9634 20.6318ZM6.75151 22.9797C7.25655 22.9797 7.77693 22.8868 8.32701 22.7018C8.87805 22.5168 9.36776 22.1766 9.7808 21.7128C10.0252 21.4195 10.2092 21.0947 10.3012 20.7238C10.3932 20.3529 10.4545 19.9044 10.4545 19.3793V18.7305C10.0108 18.6222 9.53643 18.5292 9.04672 18.4679C8.55701 18.4065 8.08263 18.3749 7.60826 18.3749C6.58284 18.3749 5.83343 18.5762 5.32839 18.993C4.82334 19.4099 4.57897 19.9974 4.57897 20.7698C4.57897 21.4962 4.76297 22.0367 5.14534 22.4076C5.51239 22.7948 6.04809 22.9797 6.75151 22.9797ZM19.0373 24.6491C18.7623 24.6491 18.5783 24.6031 18.4556 24.4948C18.333 24.4019 18.2266 24.1863 18.1346 23.892L14.5389 11.9483C14.4469 11.6398 14.4009 11.4385 14.4009 11.3302C14.4009 11.083 14.5236 10.944 14.768 10.944H16.2678C16.5581 10.944 16.7575 10.99 16.8648 11.0983C16.9875 11.1913 17.0785 11.4069 17.1705 11.7011L19.7408 21.9303L22.127 11.7011C22.2037 11.3925 22.2957 11.1913 22.4174 11.0983C22.5401 11.0053 22.7538 10.944 23.0298 10.944H24.2536C24.5439 10.944 24.7433 10.99 24.8659 11.0983C24.9886 11.1913 25.095 11.4069 25.1563 11.7011L27.5732 22.054L30.2201 11.7011C30.3121 11.3925 30.4195 11.1913 30.5258 11.0983C30.6485 11.0053 30.8469 10.944 31.1229 10.944H32.546C32.7904 10.944 32.9284 11.0676 32.9284 11.3302C32.9284 11.4078 32.913 11.4845 32.8977 11.5775C32.8824 11.6704 32.8517 11.794 32.7904 11.9637L29.1037 23.9074C29.0117 24.216 28.9043 24.4172 28.7826 24.5102C28.6609 24.6031 28.4616 24.6645 28.2009 24.6645H26.8851C26.5948 24.6645 26.3954 24.6185 26.2728 24.5102C26.1501 24.4019 26.0437 24.2016 25.9824 23.892L23.6115 13.9254L21.2559 23.8767C21.1792 24.1853 21.0872 24.3865 20.9655 24.4948C20.8428 24.6031 20.6291 24.6491 20.3531 24.6491H19.0373ZM38.6966 25.066C37.9012 25.066 37.1058 24.973 36.341 24.7881C35.5763 24.6031 34.9792 24.4019 34.5815 24.17C34.3371 24.031 34.1685 23.8767 34.1071 23.7378C34.0458 23.5988 34.0151 23.4445 34.0151 23.3055V22.5178C34.0151 22.1929 34.1378 22.0386 34.3668 22.0386C34.4588 22.0386 34.5508 22.054 34.6419 22.0846C34.7339 22.1153 34.8709 22.1776 35.0243 22.2389C35.5446 22.4708 36.1101 22.6558 36.7071 22.7794C37.3195 22.903 37.9156 22.9644 38.5279 22.9644C39.492 22.9644 40.2414 22.7948 40.7618 22.4545C41.2822 22.1143 41.5572 21.6198 41.5572 20.9864C41.5572 20.5542 41.4192 20.1986 41.1442 19.9044C40.8691 19.6112 40.3488 19.3486 39.5993 19.1013L37.3808 18.4056C36.2643 18.05 35.4383 17.5249 34.9332 16.8291C34.4282 16.1497 34.1685 15.3926 34.1685 14.5885C34.1685 13.9398 34.3065 13.3676 34.5815 12.8731C34.8566 12.3786 35.2246 11.9464 35.6826 11.6062C36.1417 11.2507 36.6621 10.9881 37.2735 10.8031C37.8858 10.6191 38.5279 10.5415 39.2016 10.5415C39.538 10.5415 39.8897 10.5568 40.2271 10.6028C40.5788 10.6488 40.8998 10.7111 41.2218 10.7725C41.5275 10.8501 41.8188 10.9268 42.0939 11.0197C42.3689 11.1127 42.5836 11.2047 42.7369 11.2976C42.9516 11.4213 43.104 11.5449 43.196 11.6838C43.288 11.8075 43.334 11.9771 43.334 12.1937V12.9201C43.334 13.245 43.2113 13.4146 42.9823 13.4146C42.8596 13.4146 42.6612 13.3533 42.4006 13.2296C41.5285 12.8281 40.5491 12.6268 39.4633 12.6268C38.5912 12.6268 37.9031 12.7658 37.4287 13.059C36.9543 13.3523 36.71 13.8008 36.71 14.4343C36.71 14.8665 36.8633 15.2373 37.169 15.5315C37.4747 15.8248 38.0411 16.119 38.8518 16.3816L41.0244 17.0773C42.1255 17.4329 42.9219 17.9274 43.3953 18.5608C43.8687 19.1943 44.0987 19.9207 44.0987 20.7238C44.0987 21.3879 43.9607 21.9907 43.701 22.5159C43.426 23.041 43.058 23.5049 42.5846 23.8758C42.1102 24.262 41.5438 24.5399 40.8864 24.7411C40.1954 24.9577 39.4767 25.066 38.6966 25.066Z" fill="#252F3E"/>
<path d="M41.5875 32.5759C36.5544 36.3306 29.2413 38.3239 22.9527 38.3239C14.1409 38.3239 6.20012 35.033 0.202869 29.5629C-0.271506 29.1306 0.156869 28.5432 0.723244 28.8834C7.2102 32.6841 15.2113 34.987 23.4885 34.987C29.0727 34.987 35.2079 33.8131 40.8525 31.4019C41.6949 31.0157 42.4136 31.9577 41.5875 32.5759ZM43.6834 30.1656C43.0404 29.3309 39.4303 29.7641 37.7935 29.9644C37.3038 30.0257 37.2271 29.5935 37.6708 29.2686C40.5468 27.2293 45.2742 27.8158 45.8253 28.4962C46.3763 29.192 45.672 33.9664 42.98 36.253C42.567 36.6085 42.1692 36.4226 42.3523 35.9597C42.9647 34.4302 44.3265 30.9841 43.6834 30.1656Z" fill="#FF9900"/>
</g>
<defs>
<clipPath id="clip0_7366_9560">
<rect width="46" height="46" fill="white"/>
</clipPath>
</defs>
</svg>
