<svg width="60" height="60" viewBox="0 0 60 60" fill="none" xmlns="http://www.w3.org/2000/svg">
<path d="M39.2553 55.8681C39.2553 56.2427 38.9513 56.5467 38.5767 56.5467H21.4247C21.05 56.5467 20.746 56.2427 20.746 55.8681C20.746 55.4934 21.05 55.1894 21.4247 55.1894H25.722C26.6287 52.9534 26.6233 50.7134 25.7047 48.3934H34.2967C33.378 50.7121 33.3727 52.9534 34.2793 55.1894H38.5767C38.9513 55.1881 39.2553 55.4934 39.2553 55.8681ZM55.8087 9.80007V24.4241C55.8087 28.3267 49.1807 31.3841 40.7193 31.3841C32.258 31.3841 25.63 28.3267 25.63 24.4241V9.7334H4.87132C2.92065 9.7334 1.33398 11.3214 1.33398 13.2734V43.4974C1.33398 45.4481 2.92065 47.0347 4.87132 47.0347H55.1287C57.0793 47.0347 58.666 45.4481 58.666 43.4974V13.2734C58.6673 11.5547 57.4367 10.1174 55.8087 9.80007ZM32.322 35.3867H36.3433C36.718 35.3867 37.022 35.6907 37.022 36.0654C37.022 36.4401 36.718 36.7441 36.3433 36.7441H32.322C31.9473 36.7441 31.6433 36.4401 31.6433 36.0654C31.6433 35.6907 31.9473 35.3867 32.322 35.3867ZM25.5887 36.0667C25.5887 36.4414 25.2847 36.7454 24.91 36.7454H20.8887C20.514 36.7454 20.21 36.4414 20.21 36.0667C20.21 35.6921 20.514 35.3881 20.8887 35.3881H24.91C25.2847 35.3867 25.5887 35.6907 25.5887 36.0667ZM24.3607 25.6067C24.3607 25.8107 24.27 26.0041 24.1127 26.1321L19.374 30.0107C19.3049 30.0672 19.2254 30.1096 19.14 30.1353C19.0545 30.1611 18.9649 30.1697 18.8761 30.1608C18.7873 30.1519 18.7012 30.1256 18.6226 30.0833C18.544 30.0411 18.4744 29.9838 18.418 29.9147C18.3043 29.7753 18.2505 29.5965 18.2685 29.4175C18.2865 29.2386 18.3748 29.074 18.514 28.9601L22.61 25.6067L18.514 22.2547C18.4449 22.1984 18.3877 22.129 18.3455 22.0505C18.3033 21.972 18.2769 21.886 18.268 21.7973C18.2591 21.7086 18.2678 21.6191 18.2935 21.5338C18.3192 21.4484 18.3615 21.369 18.418 21.3001C18.4744 21.2308 18.5438 21.1734 18.6224 21.1311C18.701 21.0888 18.7872 21.0625 18.8761 21.0536C18.9649 21.0446 19.0546 21.0533 19.14 21.0792C19.2255 21.105 19.305 21.1474 19.374 21.2041L24.1127 25.0814C24.1903 25.1452 24.2528 25.2253 24.2957 25.3162C24.3386 25.407 24.3608 25.5063 24.3607 25.6067ZM14.2447 15.0307H21.9993C22.374 15.0307 22.678 15.3347 22.678 15.7094C22.678 16.0841 22.374 16.3881 21.9993 16.3881H14.2447C13.87 16.3881 13.566 16.0841 13.566 15.7094C13.566 15.3347 13.87 15.0307 14.2447 15.0307ZM12.7967 29.9481L15.218 20.9134C15.314 20.5507 15.6873 20.3361 16.05 20.4321C16.4127 20.5294 16.6273 20.9027 16.5313 21.2654L14.11 30.3001C14.0711 30.4444 13.9858 30.572 13.8673 30.6631C13.7487 30.7542 13.6035 30.8037 13.454 30.8041C13.3953 30.8041 13.3367 30.7961 13.278 30.7801C13.1917 30.7571 13.1108 30.7174 13.0399 30.6631C12.969 30.6089 12.9095 30.5412 12.8647 30.4639C12.82 30.3866 12.791 30.3013 12.7793 30.2128C12.7676 30.1243 12.7735 30.0343 12.7967 29.9481ZM5.93665 15.0307H10.022C10.3967 15.0307 10.7007 15.3347 10.7007 15.7094C10.7007 16.0841 10.3967 16.3881 10.022 16.3881H5.93665C5.56198 16.3881 5.25798 16.0841 5.25798 15.7094C5.25798 15.3347 5.56198 15.0307 5.93665 15.0307ZM4.96465 25.6067C4.96465 25.4041 5.05532 25.2094 5.21265 25.0814L9.95132 21.2041C10.0204 21.1476 10.0999 21.1053 10.1853 21.0795C10.2708 21.0538 10.3604 21.0451 10.4492 21.054C10.538 21.063 10.6241 21.0893 10.7027 21.1315C10.7813 21.1737 10.8509 21.231 10.9073 21.3001C11.0212 21.4393 11.0752 21.618 11.0575 21.797C11.0397 21.976 10.9517 22.1406 10.8127 22.2547L6.71665 25.6067L10.8127 28.9601C11.102 29.1974 11.146 29.6254 10.9073 29.9147C10.8436 29.9925 10.7635 30.0552 10.6726 30.0983C10.5818 30.1414 10.4825 30.1639 10.382 30.1641C10.23 30.1641 10.078 30.1134 9.95132 30.0107L5.21265 26.1321C5.13501 26.0683 5.07249 25.9881 5.0296 25.8973C4.98671 25.8064 4.96453 25.7072 4.96465 25.6067ZM13.8687 41.7387H5.93665C5.56198 41.7387 5.25798 41.4347 5.25798 41.0601C5.25798 40.6854 5.56198 40.3814 5.93665 40.3814H13.8687C14.2433 40.3814 14.5473 40.6854 14.5473 41.0601C14.5473 41.4347 14.2433 41.7387 13.8687 41.7387ZM5.93665 36.7454C5.56198 36.7454 5.25798 36.4414 5.25798 36.0667C5.25798 35.6921 5.56198 35.3881 5.93665 35.3881H16.994C17.3687 35.3881 17.6727 35.6921 17.6727 36.0667C17.6727 36.4414 17.3687 36.7454 16.994 36.7454H5.93665ZM37.4927 41.7387H18.09C17.714 41.7387 17.4113 41.4347 17.4113 41.0601C17.4113 40.6854 17.714 40.3814 18.09 40.3814H37.4927C37.8673 40.3814 38.1713 40.6854 38.1713 41.0601C38.1713 41.4347 37.8673 41.7387 37.4927 41.7387ZM39.5593 36.0667C39.5593 35.6921 39.862 35.3881 40.238 35.3881H54.3087C54.6833 35.3881 54.9873 35.6921 54.9873 36.0667C54.9873 36.4414 54.6833 36.7454 54.3087 36.7454H40.2393C39.8633 36.7454 39.5593 36.4414 39.5593 36.0667ZM46.0687 41.7387H42.5633C42.1873 41.7387 41.8847 41.4347 41.8847 41.0601C41.8847 40.6854 42.1873 40.3814 42.5633 40.3814H46.0687C46.4433 40.3814 46.7473 40.6854 46.7473 41.0601C46.7487 41.4347 46.4433 41.7387 46.0687 41.7387ZM54.358 41.7387H50.8513C50.4767 41.7387 50.1727 41.4347 50.1727 41.0601C50.1727 40.6854 50.4767 40.3814 50.8513 40.3814H54.358C54.7327 40.3814 55.0367 40.6854 55.0367 41.0601C55.0367 41.4347 54.7327 41.7387 54.358 41.7387Z" fill="#0075F2"/>
<path d="M54.4496 19.6747V24.424C54.4496 27.1294 48.9323 30.0254 40.719 30.0254C32.5056 30.0254 26.9883 27.1294 26.9883 24.424V19.6747C29.3456 22.0707 34.5429 23.7 40.719 23.7C46.895 23.7 52.0923 22.0707 54.4496 19.6747ZM54.4496 9.0547C54.4496 10.4214 53.0576 11.8107 50.6296 12.8694C47.9856 14.0214 44.4669 14.656 40.7203 14.656C36.9736 14.656 33.4549 14.0214 30.8109 12.8694C28.3829 11.8107 26.9909 10.4214 26.9909 9.0547C26.9909 7.68937 28.3829 6.2987 30.8109 5.24004C33.4549 4.08804 36.9736 3.45337 40.7203 3.45337C44.4669 3.45337 47.9856 4.08804 50.6296 5.24004C53.0576 6.29737 54.4496 7.68937 54.4496 9.0547Z" fill="#0075F2"/>
<path d="M54.4496 11.9893V16.7399C54.4496 19.4453 48.9323 22.3413 40.719 22.3413C32.5056 22.3413 26.9883 19.4453 26.9883 16.7399V11.9893C29.3456 14.3866 34.5429 16.0146 40.719 16.0146C46.895 16.0146 52.0923 14.3866 54.4496 11.9893Z" fill="#0075F2"/>
</svg>
