<svg width="60" height="60" viewBox="0 0 60 60" fill="none" xmlns="http://www.w3.org/2000/svg">
<path d="M20.625 11.25L24.375 3.75H22.5L18.75 11.25H20.625ZM16.875 11.25L20.625 3.75H5.625C5.12772 3.75 4.65081 3.94754 4.29917 4.29917C3.94754 4.65081 3.75 5.12772 3.75 5.625V11.25H16.875ZM13.125 5.625C13.6223 5.625 14.0992 5.82254 14.4508 6.17417C14.8025 6.52581 15 7.00272 15 7.5C15 7.99728 14.8025 8.47419 14.4508 8.82582C14.0992 9.17746 13.6223 9.375 13.125 9.375C12.6277 9.375 12.1508 9.17746 11.7992 8.82582C11.4475 8.47419 11.25 7.99728 11.25 7.5C11.25 7.00272 11.4475 6.52581 11.7992 6.17417C12.1508 5.82254 12.6277 5.625 13.125 5.625ZM7.5 5.625C7.99728 5.625 8.47419 5.82254 8.82582 6.17417C9.17746 6.52581 9.375 7.00272 9.375 7.5C9.375 7.99728 9.17746 8.47419 8.82582 8.82582C8.47419 9.17746 7.99728 9.375 7.5 9.375C7.00272 9.375 6.52581 9.17746 6.17417 8.82582C5.82254 8.47419 5.625 7.99728 5.625 7.5C5.625 7.00272 5.82254 6.52581 6.17417 6.17417C6.52581 5.82254 7.00272 5.625 7.5 5.625ZM56.25 11.25V5.625C56.25 5.12772 56.0525 4.65081 55.7008 4.29917C55.3492 3.94754 54.8723 3.75 54.375 3.75H26.25L22.5 11.25H56.25ZM3.75 13.125V54.375C3.75 54.8723 3.94754 55.3492 4.29917 55.7008C4.65081 56.0525 5.12772 56.25 5.625 56.25H54.375C54.8723 56.25 55.3492 56.0525 55.7008 55.7008C56.0525 55.3492 56.25 54.8723 56.25 54.375V13.125H3.75ZM50.625 41.25C50.625 42.7418 50.0324 44.1726 48.9775 45.2275C47.9226 46.2824 46.4918 46.875 45 46.875H15C13.5082 46.875 12.0774 46.2824 11.0225 45.2275C9.96763 44.1726 9.375 42.7418 9.375 41.25V28.125C9.375 26.6332 9.96763 25.2024 11.0225 24.1475C12.0774 23.0926 13.5082 22.5 15 22.5H45C46.4918 22.5 47.9226 23.0926 48.9775 24.1475C50.0324 25.2024 50.625 26.6332 50.625 28.125V41.25Z" fill="#0075F2"/>
<path d="M45 24.375H15C14.0054 24.375 13.0516 24.7701 12.3483 25.4734C11.6451 26.1766 11.25 27.1304 11.25 28.125V33.75H48.75V28.125C48.75 27.1304 48.3549 26.1766 47.6516 25.4734C46.9484 24.7701 45.9946 24.375 45 24.375ZM30.9375 30H19.6875C19.4389 30 19.2004 29.9012 19.0246 29.7254C18.8488 29.5496 18.75 29.3111 18.75 29.0625C18.75 28.8139 18.8488 28.5754 19.0246 28.3996C19.2004 28.2238 19.4389 28.125 19.6875 28.125H30.9375C31.1861 28.125 31.4246 28.2238 31.6004 28.3996C31.7762 28.5754 31.875 28.8139 31.875 29.0625C31.875 29.3111 31.7762 29.5496 31.6004 29.7254C31.4246 29.9012 31.1861 30 30.9375 30ZM36.5625 31.875C35.8166 31.875 35.1012 31.5787 34.5738 31.0512C34.0463 30.5238 33.75 29.8084 33.75 29.0625C33.75 28.3166 34.0463 27.6012 34.5738 27.0738C35.1012 26.5463 35.8166 26.25 36.5625 26.25C37.3084 26.25 38.0238 26.5463 38.5512 27.0738C39.0787 27.6012 39.375 28.3166 39.375 29.0625C39.375 29.8084 39.0787 30.5238 38.5512 31.0512C38.0238 31.5787 37.3084 31.875 36.5625 31.875ZM44.0625 31.875C43.3166 31.875 42.6012 31.5787 42.0738 31.0512C41.5463 30.5238 41.25 29.8084 41.25 29.0625C41.25 28.3166 41.5463 27.6012 42.0738 27.0738C42.6012 26.5463 43.3166 26.25 44.0625 26.25C44.8084 26.25 45.5238 26.5463 46.0512 27.0738C46.5787 27.6012 46.875 28.3166 46.875 29.0625C46.875 29.8084 46.5787 30.5238 46.0512 31.0512C45.5238 31.5787 44.8084 31.875 44.0625 31.875ZM11.25 35.625V41.25C11.25 42.2446 11.6451 43.1984 12.3483 43.9016C13.0516 44.6049 14.0054 45 15 45H45C45.9946 45 46.9484 44.6049 47.6516 43.9016C48.3549 43.1984 48.75 42.2446 48.75 41.25V35.625H11.25ZM30.9375 41.25H19.6875C19.4389 41.25 19.2004 41.1512 19.0246 40.9754C18.8488 40.7996 18.75 40.5611 18.75 40.3125C18.75 40.0639 18.8488 39.8254 19.0246 39.6496C19.2004 39.4738 19.4389 39.375 19.6875 39.375H30.9375C31.1861 39.375 31.4246 39.4738 31.6004 39.6496C31.7762 39.8254 31.875 40.0639 31.875 40.3125C31.875 40.5611 31.7762 40.7996 31.6004 40.9754C31.4246 41.1512 31.1861 41.25 30.9375 41.25ZM36.5625 43.125C35.8166 43.125 35.1012 42.8287 34.5738 42.3012C34.0463 41.7738 33.75 41.0584 33.75 40.3125C33.75 39.5666 34.0463 38.8512 34.5738 38.3238C35.1012 37.7963 35.8166 37.5 36.5625 37.5C37.3084 37.5 38.0238 37.7963 38.5512 38.3238C39.0787 38.8512 39.375 39.5666 39.375 40.3125C39.375 41.0584 39.0787 41.7738 38.5512 42.3012C38.0238 42.8287 37.3084 43.125 36.5625 43.125ZM44.0625 43.125C43.3166 43.125 42.6012 42.8287 42.0738 42.3012C41.5463 41.7738 41.25 41.0584 41.25 40.3125C41.25 39.5666 41.5463 38.8512 42.0738 38.3238C42.6012 37.7963 43.3166 37.5 44.0625 37.5C44.8084 37.5 45.5238 37.7963 46.0512 38.3238C46.5787 38.8512 46.875 39.5666 46.875 40.3125C46.875 41.0584 46.5787 41.7738 46.0512 42.3012C45.5238 42.8287 44.8084 43.125 44.0625 43.125Z" fill="#0075F2"/>
</svg>
