<svg width="60" height="60" viewBox="0 0 60 60" fill="none" xmlns="http://www.w3.org/2000/svg">
<path fill-rule="evenodd" clip-rule="evenodd" d="M10.4567 18.8945C11.1619 18.895 11.8568 18.7263 12.4833 18.4026C13.1098 18.079 13.6496 17.6099 14.0573 17.0346C14.4651 16.4592 14.7289 15.7945 14.8267 15.0962C14.9245 14.3979 14.8534 13.6863 14.6193 13.0211L20.5479 8.69746C21.0358 9.15237 21.6206 9.49053 22.2583 9.68641C22.896 9.8823 23.5698 9.9308 24.229 9.82825C24.8881 9.7257 25.5154 9.47478 26.0634 9.09443C26.6114 8.71407 27.0659 8.21421 27.3925 7.63257L31.782 9.8166C31.8559 10.4178 32.0528 10.9973 32.3604 11.5191C32.668 12.0409 33.0798 12.4937 33.57 12.8494C34.0603 13.2051 34.6185 13.4561 35.21 13.5866C35.8015 13.7172 36.4135 13.7246 37.0079 13.6083C37.6023 13.492 38.1665 13.2546 38.6652 12.9108C39.1638 12.567 39.5864 12.1242 39.9065 11.61C40.2266 11.0958 40.4373 10.5212 40.5257 9.92192C40.614 9.3227 40.578 8.7117 40.4199 8.12699L44.8342 5.0098L44.6628 5.64554C44.6051 5.86183 44.6355 6.09219 44.7474 6.28608C44.8594 6.47996 45.0436 6.62153 45.2598 6.67972C45.3314 6.69876 45.4052 6.70849 45.4794 6.70867C45.665 6.70841 45.8454 6.64695 45.9925 6.53379C46.1397 6.42064 46.2454 6.26211 46.2934 6.08277L47.0677 3.19539C47.0714 3.18214 47.0737 3.1689 47.0762 3.15566C47.0782 3.14932 47.0798 3.14287 47.081 3.13632C47.0882 3.09929 47.093 3.06183 47.0954 3.02418V3.00496C47.0967 2.97472 47.0954 2.94636 47.0942 2.91683L47.0906 2.87347C47.0871 2.84543 47.0819 2.81764 47.0749 2.79027C47.0744 2.78172 47.0732 2.77322 47.0714 2.76484C47.0677 2.75031 47.0617 2.73718 47.0569 2.72265C47.0536 2.71117 47.0497 2.6999 47.0451 2.6889C46.9925 2.54122 46.8997 2.41117 46.7772 2.31336C46.6547 2.21556 46.5073 2.15389 46.3516 2.13531L43.4922 1.79875C43.271 1.77506 43.0494 1.8396 42.8755 1.97833C42.7016 2.11706 42.5895 2.31879 42.5634 2.53972C42.5374 2.76065 42.5995 2.98293 42.7364 3.15831C42.8733 3.33368 43.0738 3.44799 43.2944 3.4764L43.9663 3.5548L39.6614 6.59523C39.1677 5.94985 38.5052 5.45342 37.7472 5.16072C36.9891 4.86803 36.165 4.79045 35.3656 4.93656C34.5663 5.08266 33.8229 5.44676 33.2174 5.98868C32.6119 6.5306 32.1679 7.22927 31.9344 8.00757L27.9275 6.01281C28.0027 5.41466 27.9545 4.80744 27.7859 4.22864C27.6173 3.64983 27.3319 3.11171 26.9473 2.64749C26.5627 2.18327 26.087 1.8028 25.5496 1.52955C25.0122 1.2563 24.4246 1.09607 23.8229 1.05875C23.2212 1.02144 22.6182 1.10782 22.0512 1.31258C21.4841 1.51733 20.9651 1.83611 20.5261 2.24925C20.087 2.66239 19.7373 3.16111 19.4985 3.71465C19.2597 4.26819 19.1368 4.86479 19.1375 5.46765C19.137 6.11256 19.2788 6.74964 19.5529 7.33339L13.7586 11.5594C13.2702 11.0077 12.6514 10.5871 11.9586 10.3361C11.2659 10.0851 10.5213 10.0115 9.79286 10.1223C9.06441 10.233 8.37529 10.5244 7.78843 10.97C7.20157 11.4155 6.73566 12.0009 6.43324 12.6728C6.13081 13.3447 6.00152 14.0817 6.05715 14.8164C6.11278 15.5511 6.35157 16.2602 6.75171 16.8789C7.15185 17.4976 7.7006 18.0062 8.34786 18.3583C8.99512 18.7104 9.72026 18.8948 10.4571 18.8945H10.4567ZM47.5417 11.6559L50.113 13.6277V32.0164L47.5923 28.0641C47.3213 27.64 46.9144 27.3203 46.4381 27.1573C45.9619 26.9943 45.4445 26.9977 44.9704 27.1669V13.6277L47.5417 11.6559ZM46.8699 45.5181C46.8168 45.4818 46.7629 45.4466 46.7083 45.4127C46.1029 45.0351 45.1886 44.3839 44.1302 43.6301C38.5378 39.6457 34.4402 36.9414 32.6493 38.4525C27.157 43.085 25.2583 42.5459 25.0598 42.4698C24.9286 42.4192 24.8014 42.3299 24.76 42.0201C24.5867 40.7227 26.2135 37.5235 30.3681 34.4575C33.7946 32.4831 34.6537 32.9041 35.8407 33.4854C36.5197 33.8182 37.3642 34.232 38.6519 34.302C39.1561 34.3326 39.6619 34.3221 40.1643 34.2706L47.1825 45.2709C47.0949 45.3722 46.9887 45.4561 46.8699 45.5181ZM33.4637 19.9009L36.0348 17.9286L38.6061 19.9003V32.6062C37.7413 32.5359 37.1764 32.2601 36.5834 31.9694C35.6138 31.4953 34.7395 31.1662 33.4631 31.37V19.9003L33.4637 19.9009ZM23.0447 15.125L25.6156 17.0977V31.8101C25.3752 31.8668 25.1359 31.926 24.9008 31.9839C23.4956 32.3324 22.051 32.6907 20.7245 32.3903C20.839 32.0635 20.876 31.7146 20.8323 31.3711C20.7886 31.0276 20.6656 30.6989 20.4729 30.4112V17.0977L23.0445 15.1245L23.0447 15.125ZM8.22419 25.8476L10.7959 23.8758L13.3674 25.8476V26.8584C12.9745 27.0347 12.6418 27.3224 12.4105 27.6858L8.22419 34.2483V25.8474V25.8476ZM10.2331 45.8077L19.0796 31.9404C19.1541 31.8199 19.1786 31.6751 19.148 31.5369C19.1173 31.3986 19.0339 31.2777 18.9156 31.1999L14.5729 28.4297C14.4883 28.3759 14.3899 28.3474 14.2896 28.3477C14.199 28.3473 14.1099 28.3697 14.0302 28.4126C13.9505 28.4556 13.8829 28.5179 13.8335 28.5938L4.98677 42.4608C4.91142 42.5809 4.88639 42.7258 4.9171 42.8641C4.94781 43.0025 5.03178 43.1232 5.15083 43.2001L9.49298 45.9705C9.613 46.0458 9.75781 46.0709 9.89619 46.0405C10.0346 46.01 10.1555 45.9264 10.2328 45.8077H10.2331ZM12.794 50.7296C12.4991 50.5137 12.3227 50.0941 12.2702 49.4826C12.1729 48.3536 13.0664 47.4034 14.0122 46.3988C14.2027 46.196 14.3995 45.9875 14.585 45.7789C14.7563 45.581 14.979 45.4344 15.2285 45.3554C15.4781 45.2764 15.7446 45.2681 15.9985 45.3313C16.2892 45.4031 16.5577 45.5455 16.7801 45.746C17.0025 45.9466 17.1719 46.1989 17.2732 46.4807C17.0086 47.2816 16.3204 48.7637 14.5363 50.8961C13.7394 51.0396 13.1395 50.9829 12.794 50.7296ZM15.8464 51.961C17.8837 49.5211 18.642 47.7736 18.9222 46.8654C19.6349 46.1406 20.885 45.8138 21.7465 46.1527C22.3487 46.3902 22.6572 46.9162 22.6678 47.7133L18.1787 54.0401C17.3902 54.0293 16.8047 53.8485 16.4366 53.5023C16.0923 53.178 15.8943 52.6593 15.8463 51.961H15.8464ZM20.1029 56.0917C20.5466 56.3993 21.3034 56.4536 22.2999 56.2546C22.5198 55.988 22.9419 55.4754 23.4974 54.8001C24.1519 54.0053 25.0397 52.9275 26.1607 51.5666C26.5377 50.5258 26.5256 49.6646 26.1214 49.1919C25.7464 48.7541 24.9818 48.6009 23.9973 48.7584L19.5131 55.0782C19.6186 55.5558 19.8123 55.8911 20.1029 56.0912V56.0917ZM25.6204 58.3748C24.5963 58.4049 24.015 58.0636 23.7003 57.2098C23.9039 56.9624 24.24 56.5548 24.8011 55.8739L27.2097 52.9492C27.9004 53.1639 28.5875 53.516 28.734 54.0794C28.8404 54.4881 28.4897 55.5422 27.6302 56.6917C26.7734 57.8362 25.9392 58.3656 25.6204 58.3752V58.3748ZM47.0164 50.5956C47.4529 49.9143 47.611 49.3171 47.4969 48.7734C47.357 48.1112 46.7901 47.4609 45.8121 46.8412C45.1668 46.4397 44.2322 45.7748 43.1519 45.0044C41.3839 43.744 39.1829 42.1773 37.2652 41.0703C34.3428 39.3828 33.7435 39.7388 33.7379 39.7436C30.8128 42.2112 26.8258 44.9622 24.4524 44.0444C23.6879 43.7489 23.2032 43.1084 23.0877 42.2425C22.7815 39.9462 25.0899 36.4486 28.7624 33.5615C28.1619 32.9945 27.192 33.1548 25.309 33.6229C23.6941 34.0233 21.7271 34.5116 19.8374 33.8942L13.1081 44.4425C13.1733 44.5205 13.2428 44.5948 13.3163 44.6651C13.3196 44.6622 13.3225 44.659 13.3251 44.6555C13.6974 44.2315 14.1783 43.9171 14.7159 43.746C15.2536 43.575 15.8277 43.5537 16.3766 43.6846C17.2129 43.883 17.9456 44.3853 18.4323 45.0938C19.6003 44.3232 21.1276 44.0939 22.3658 44.5824C23.4261 45.0009 24.1002 45.8656 24.2967 47.0235C25.6375 46.9258 26.7212 47.2948 27.405 48.0957C28.1053 48.9146 28.2967 50.0746 27.9683 51.4219C29.2988 51.8923 30.1046 52.6412 30.3681 53.6543C30.7264 55.0316 29.6342 56.7876 29.1159 57.5185C31.3375 59.0068 32.5797 59.0754 33.2409 58.8476C33.7565 58.6703 34.1667 58.2107 34.4642 57.481L31.1142 55.1004C31.0238 55.0362 30.947 54.9548 30.8881 54.8609C30.8292 54.7669 30.7894 54.6623 30.7709 54.553C30.7524 54.4437 30.7556 54.3318 30.7804 54.2237C30.8052 54.1157 30.851 54.0135 30.9152 53.9232C30.9794 53.8328 31.0608 53.756 31.1548 53.6971C31.2487 53.6381 31.3533 53.5983 31.4626 53.5798C31.5719 53.5614 31.6838 53.5646 31.7919 53.5894C31.9 53.6141 32.0021 53.6599 32.0925 53.7242L35.8822 56.4185C36.808 56.8214 37.5393 56.8973 38.0543 56.6412C38.5162 56.4109 38.8817 55.8802 39.1434 55.0613L33.0965 51.1163C32.9089 50.9939 32.7776 50.802 32.7315 50.5829C32.6854 50.3637 32.7282 50.1352 32.8506 49.9476C32.9729 49.76 33.1648 49.6287 33.384 49.5825C33.6031 49.5364 33.8317 49.5792 34.0193 49.7016L40.44 53.8915C41.2661 54.0459 41.8814 53.9794 42.2647 53.6888C42.5892 53.444 42.8027 52.9974 42.9028 52.3596L34.854 46.9207L35.7996 45.5218L44.1297 51.1524C45.3406 51.3948 46.2874 51.2127 47.0158 50.5951L47.0164 50.5956ZM55.0843 43.2422C55.1001 43.1739 55.1021 43.103 55.0903 43.0339C55.0785 42.9647 55.0531 42.8986 55.0155 42.8393L46.1679 28.9723C46.1302 28.9131 46.0812 28.8619 46.0236 28.8216C45.9661 28.7814 45.9012 28.753 45.8326 28.7379C45.7934 28.7293 45.7533 28.7249 45.7132 28.7247C45.6124 28.7249 45.5137 28.7538 45.4286 28.8079L41.0856 31.5782C40.9673 31.6561 40.8841 31.7769 40.8534 31.9151C40.8228 32.0534 40.8472 32.1981 40.9215 32.3186L49.7692 46.1859C49.8462 46.3048 49.967 46.3886 50.1054 46.4192C50.2438 46.4497 50.3886 46.4246 50.5086 46.3491L54.8516 43.5788C54.9109 43.5411 54.962 43.4919 55.002 43.4341C55.042 43.3763 55.07 43.311 55.0843 43.2422ZM16.4154 31.9308L16.2719 32.1528C16.1504 32.3408 15.9591 32.4728 15.7402 32.5199C15.5213 32.5669 15.2927 32.525 15.1046 32.4034C14.9166 32.2819 14.7845 32.0906 14.7375 31.8717C14.6905 31.6528 14.7324 31.4242 14.854 31.2361L14.9974 31.0143C15.0576 30.9212 15.1355 30.8408 15.2267 30.7779C15.318 30.7149 15.4207 30.6705 15.5291 30.6472C15.6375 30.6239 15.7494 30.6222 15.8584 30.6422C15.9675 30.6621 16.0715 30.7034 16.1646 30.7636C16.2577 30.8237 16.3381 30.9017 16.4011 30.9929C16.4641 31.0841 16.5085 31.1869 16.5317 31.2953C16.555 31.4037 16.5567 31.5156 16.5368 31.6246C16.5168 31.7337 16.4755 31.8377 16.4154 31.9308ZM44.9161 31.236L44.7738 31.0143C44.6503 30.8307 44.4597 30.703 44.243 30.6585C44.0262 30.614 43.8007 30.6564 43.6149 30.7765C43.4291 30.8966 43.2978 31.0848 43.2494 31.3007C43.2009 31.5166 43.2392 31.7428 43.3558 31.9308L43.4994 32.1528C43.621 32.3407 43.8122 32.4726 44.031 32.5195C44.2499 32.5664 44.4784 32.5245 44.6663 32.4029C44.8542 32.2813 44.9861 32.0901 45.033 31.8713C45.0799 31.6524 45.038 31.4239 44.9164 31.236H44.9161Z" fill="white"/>
</svg>
