<svg width="60" height="60" viewBox="0 0 60 60" fill="none" xmlns="http://www.w3.org/2000/svg">
<path d="M30 28.125C33.1066 28.125 35.625 25.6066 35.625 22.5C35.625 19.3934 33.1066 16.875 30 16.875C26.8934 16.875 24.375 19.3934 24.375 22.5C24.375 25.6066 26.8934 28.125 30 28.125Z" fill="#0075F2"/>
<path d="M50.625 45C49.4654 45.0034 48.3354 45.3658 47.39 46.0372C46.4446 46.7086 45.7302 47.6563 45.345 48.75H35.625C35.625 48.2527 35.4275 47.7758 35.0758 47.4242C34.7242 47.0725 34.2473 46.875 33.75 46.875H31.875V43.125H28.125V46.875H26.25C25.7527 46.875 25.2758 47.0725 24.9242 47.4242C24.5725 47.7758 24.375 48.2527 24.375 48.75H14.655C14.2698 47.6563 13.5554 46.7086 12.61 46.0372C11.6646 45.3658 10.5346 45.0034 9.375 45C6.27375 45 3.75 47.5238 3.75 50.625C3.75 53.7262 6.27375 56.25 9.375 56.25C10.5346 56.2466 11.6646 55.8842 12.61 55.2128C13.5554 54.5414 14.2698 53.5937 14.655 52.5H24.375C24.375 52.9973 24.5725 53.4742 24.9242 53.8258C25.2758 54.1775 25.7527 54.375 26.25 54.375H33.75C34.2473 54.375 34.7242 54.1775 35.0758 53.8258C35.4275 53.4742 35.625 52.9973 35.625 52.5H45.345C45.7302 53.5937 46.4446 54.5414 47.39 55.2128C48.3354 55.8842 49.4654 56.2466 50.625 56.25C53.7262 56.25 56.25 53.7262 56.25 50.625C56.25 47.5238 53.7262 45 50.625 45ZM48.0394 20.4469L42.6656 19.1044C42.3708 17.9978 41.9314 16.9349 41.3587 15.9431L44.2087 11.1956C44.3162 11.0161 44.3606 10.8059 44.3348 10.5983C44.3089 10.3907 44.2144 10.1977 44.0662 10.05L42.45 8.43375C42.3022 8.28632 42.1095 8.19243 41.9023 8.16696C41.6951 8.14148 41.4853 8.18589 41.3063 8.29312L36.5569 11.1431C35.5652 10.5698 34.5023 10.1298 33.3956 9.83437L32.0531 4.46062C32.0025 4.25772 31.8855 4.07756 31.7207 3.9488C31.556 3.82003 31.3529 3.75006 31.1438 3.75H28.8563C28.6471 3.75006 28.444 3.82003 28.2793 3.9488C28.1145 4.07756 27.9975 4.25772 27.9469 4.46062L26.6044 9.83437C25.4978 10.1292 24.4349 10.5686 23.4431 11.1412L18.6956 8.29125C18.5161 8.18378 18.3059 8.13942 18.0983 8.16525C17.8907 8.19107 17.6977 8.28558 17.55 8.43375L15.9338 10.05C15.7863 10.1978 15.6924 10.3905 15.667 10.5977C15.6415 10.8049 15.6859 11.0147 15.7931 11.1937L18.6431 15.9431C18.0698 16.9348 17.6298 17.9977 17.3344 19.1044L11.9606 20.4469C11.7577 20.4975 11.5776 20.6145 11.4488 20.7793C11.32 20.944 11.2501 21.1471 11.25 21.3563V23.6437C11.2501 23.8529 11.32 24.056 11.4488 24.2207C11.5776 24.3855 11.7577 24.5025 11.9606 24.5531L17.3344 25.8956C17.5425 26.6737 17.8425 27.4106 18.1819 28.125H25.0875C24.2781 27.4278 23.6281 26.5646 23.1817 25.5941C22.7352 24.6235 22.5027 23.5683 22.5 22.5C22.5 20.5109 23.2902 18.6032 24.6967 17.1967C26.1032 15.7902 28.0109 15 30 15C31.9891 15 33.8968 15.7902 35.3033 17.1967C36.7098 18.6032 37.5 20.5109 37.5 22.5C37.5 24.7537 36.4875 26.7506 34.9125 28.125H41.8181C42.1575 27.4125 42.4556 26.6737 42.6656 25.8956L48.0394 24.5531C48.2423 24.5025 48.4224 24.3855 48.5512 24.2207C48.68 24.056 48.7499 23.8529 48.75 23.6437V21.3563C48.7499 21.1471 48.68 20.944 48.5512 20.7793C48.4224 20.6145 48.2423 20.4975 48.0394 20.4469ZM13.125 31.875V39.375C13.125 39.8723 13.3225 40.3492 13.6742 40.7008C14.0258 41.0525 14.5027 41.25 15 41.25H45C45.4973 41.25 45.9742 41.0525 46.3258 40.7008C46.6775 40.3492 46.875 39.8723 46.875 39.375V31.875C46.875 31.3777 46.6775 30.9008 46.3258 30.5492C45.9742 30.1975 45.4973 30 45 30H15C14.5027 30 14.0258 30.1975 13.6742 30.5492C13.3225 30.9008 13.125 31.3777 13.125 31.875ZM25.3125 36.5625H17.8125C17.5639 36.5625 17.3254 36.4637 17.1496 36.2879C16.9738 36.1121 16.875 35.8736 16.875 35.625C16.875 35.3764 16.9738 35.1379 17.1496 34.9621C17.3254 34.7863 17.5639 34.6875 17.8125 34.6875H25.3125C25.5611 34.6875 25.7996 34.7863 25.9754 34.9621C26.1512 35.1379 26.25 35.3764 26.25 35.625C26.25 35.8736 26.1512 36.1121 25.9754 36.2879C25.7996 36.4637 25.5611 36.5625 25.3125 36.5625ZM35.625 37.5C35.1277 37.5 34.6508 37.3025 34.2992 36.9508C33.9475 36.5992 33.75 36.1223 33.75 35.625C33.75 35.1277 33.9475 34.6508 34.2992 34.2992C34.6508 33.9475 35.1277 33.75 35.625 33.75C36.1223 33.75 36.5992 33.9475 36.9508 34.2992C37.3025 34.6508 37.5 35.1277 37.5 35.625C37.5 36.1223 37.3025 36.5992 36.9508 36.9508C36.5992 37.3025 36.1223 37.5 35.625 37.5ZM41.25 37.5C40.7527 37.5 40.2758 37.3025 39.9242 36.9508C39.5725 36.5992 39.375 36.1223 39.375 35.625C39.375 35.1277 39.5725 34.6508 39.9242 34.2992C40.2758 33.9475 40.7527 33.75 41.25 33.75C41.7473 33.75 42.2242 33.9475 42.5758 34.2992C42.9275 34.6508 43.125 35.1277 43.125 35.625C43.125 36.1223 42.9275 36.5992 42.5758 36.9508C42.2242 37.3025 41.7473 37.5 41.25 37.5Z" fill="#0075F2"/>
</svg>
