<svg width="60" height="60" viewBox="0 0 60 60" fill="none" xmlns="http://www.w3.org/2000/svg">
<path d="M15.7031 24.6469H19.9219L17.8125 21.0657L15.7031 24.6469ZM15 26.5219H20.625V37.0313H15V26.5219ZM40.3125 19.2188C39.5712 19.22 38.8468 19.4407 38.2308 19.853C37.6147 20.2653 37.1345 20.8508 36.8507 21.5357C36.567 22.2205 36.4923 22.974 36.6362 23.7013C36.7802 24.4285 37.1362 25.0968 37.6594 25.6219C38.3719 26.3251 39.3094 26.7188 40.3125 26.7188C42.3844 26.7188 44.0625 25.0407 44.0625 22.9688C44.0625 21.9469 43.6594 20.9719 42.9469 20.2876C42.2442 19.5975 41.2973 19.2134 40.3125 19.2188Z" fill="white"/>
<path d="M47.6156 21.3C47.4295 20.4798 47.1062 19.6969 46.6594 18.9844C46.425 18.6094 46.4812 18.1313 46.7906 17.8219L47.6062 17.0062L46.275 15.675L45.4594 16.4906C45.15 16.8 44.6719 16.8562 44.2969 16.6219C43.5844 16.1719 42.7969 15.8437 41.9812 15.6656C41.55 15.5625 41.25 15.1875 41.25 14.7469V13.5938H39.375V14.7469C39.375 15.1875 39.075 15.5625 38.6438 15.6656C37.8281 15.8437 37.0406 16.1719 36.3281 16.6219C35.9531 16.8562 35.475 16.8 35.1656 16.4906L34.35 15.675L33.0188 17.0062L33.8344 17.8219C34.1438 18.1313 34.2 18.6094 33.9656 18.9844C33.5156 19.6969 33.1969 20.4844 33.0094 21.3C32.9062 21.7312 32.5312 22.0312 32.0906 22.0312H30.9375V23.9062H32.0906C32.5312 23.9062 32.9062 24.2063 33.0094 24.6375C33.1969 25.4531 33.5156 26.2406 33.9656 26.9531C34.2 27.3281 34.1438 27.8062 33.8344 28.1156L33.0188 28.9313L34.35 30.2625L35.1656 29.4469C35.3437 29.2594 35.5875 29.1656 35.8219 29.1656C36 29.1656 36.1687 29.2125 36.3281 29.3156C37.0406 29.7656 37.8281 30.0844 38.6438 30.2719C39.075 30.375 39.375 30.75 39.375 31.1906V32.3438H41.25V31.1906C41.25 30.75 41.55 30.375 41.9812 30.2719C42.8062 30.0844 43.5844 29.7656 44.2969 29.3156C44.6719 29.0813 45.15 29.1375 45.4594 29.4469L46.275 30.2625L47.6062 28.9313L46.7906 28.1156C46.6399 27.9656 46.5448 27.7687 46.5209 27.5574C46.497 27.3461 46.5459 27.133 46.6594 26.9531C47.1094 26.2406 47.4281 25.4531 47.6156 24.6375C47.7188 24.2063 48.0938 23.9062 48.5344 23.9062H49.6875V22.0312H48.5344C48.0938 22.0312 47.7188 21.7312 47.6156 21.3ZM40.3125 28.5938C38.8125 28.5938 37.3969 28.0125 36.3375 26.9437C35.812 26.4242 35.3954 25.805 35.1121 25.1225C34.8288 24.4399 34.6844 23.7077 34.6875 22.9688C34.6875 19.8656 37.2094 17.3438 40.3125 17.3438C41.7937 17.3438 43.2281 17.925 44.2594 18.9469C45.3187 19.9687 45.9375 21.4406 45.9375 22.9688C45.9375 26.0719 43.4156 28.5938 40.3125 28.5938Z" fill="white"/>
<path d="M51.5625 7.03125H8.4375C5.85 7.03125 3.75 9.13125 3.75 11.7188V37.0312H13.125V25.5844C13.125 25.4719 13.1531 25.3594 13.1906 25.2563C13.2 25.2375 13.2094 25.2188 13.2188 25.1906C13.2281 25.1625 13.2375 25.1344 13.2563 25.1063L17.0062 18.7406C17.3437 18.1687 18.2813 18.1687 18.6188 18.7406L22.3688 25.1063C22.3875 25.1344 22.3969 25.1625 22.4062 25.1906C22.4156 25.2188 22.425 25.2375 22.4344 25.2563C22.4719 25.3594 22.5 25.4719 22.5 25.5844V37.0312H56.25V11.7188C56.25 9.13125 54.15 7.03125 51.5625 7.03125ZM51.5625 23.9062C51.5625 24.9375 50.7188 25.7812 49.6875 25.7812H49.2469C49.0875 26.3062 48.8719 26.8125 48.6188 27.3L48.9281 27.6094C49.6594 28.3406 49.6594 29.5312 48.9281 30.2625L47.6062 31.5844C46.875 32.3156 45.6844 32.3156 44.9531 31.5844L44.6437 31.275C44.1562 31.5281 43.65 31.7437 43.125 31.9031V32.3438C43.125 33.375 42.2812 34.2188 41.25 34.2188H39.375C38.3438 34.2188 37.5 33.375 37.5 32.3438V31.9031C36.975 31.7437 36.4688 31.5281 35.9813 31.275L35.6719 31.5844C34.9406 32.3156 33.75 32.3156 33.0188 31.5844L31.6969 30.2625C30.9656 29.5312 30.9656 28.3406 31.6969 27.6094L32.0062 27.3C31.7531 26.8125 31.5375 26.3062 31.3781 25.7812H30.9375C29.9062 25.7812 29.0625 24.9375 29.0625 23.9062V22.0312C29.0625 21 29.9062 20.1562 30.9375 20.1562H31.3781C31.5375 19.6313 31.7531 19.125 32.0062 18.6375L31.6969 18.3281C30.9656 17.5969 30.9656 16.4062 31.6969 15.675L33.0188 14.3531C33.75 13.6219 34.9406 13.6219 35.6719 14.3531L35.9813 14.6625C36.4688 14.4094 36.975 14.1938 37.5 14.0344V13.5938C37.5 12.5625 38.3438 11.7188 39.375 11.7188H41.25C42.2812 11.7188 43.125 12.5625 43.125 13.5938V14.0344C43.65 14.1938 44.1562 14.4094 44.6437 14.6625L44.9531 14.3531C45.6844 13.6219 46.875 13.6219 47.6062 14.3531L48.9281 15.675C49.6594 16.4062 49.6594 17.5969 48.9281 18.3281L48.6188 18.6375C48.8719 19.125 49.0875 19.6313 49.2469 20.1562H49.6875C50.7188 20.1562 51.5625 21 51.5625 22.0312V23.9062ZM3.75 40.7812C3.75 43.3688 5.85 45.4688 8.4375 45.4688H51.5625C54.15 45.4688 56.25 43.3688 56.25 40.7812V38.9062H3.75V40.7812ZM38.4375 51.0938H36.3562L35.4187 47.3438H24.5812L23.6437 51.0938H21.5625C21.0469 51.0938 20.625 51.5156 20.625 52.0312C20.625 52.5469 21.0469 52.9688 21.5625 52.9688H38.4375C38.9531 52.9688 39.375 52.5469 39.375 52.0312C39.375 51.5156 38.9531 51.0938 38.4375 51.0938Z" fill="white"/>
</svg>
