<svg width="60" height="60" viewBox="0 0 60 60" fill="none" xmlns="http://www.w3.org/2000/svg">
<path fill-rule="evenodd" clip-rule="evenodd" d="M38.1006 32.5H19.3506L20.7173 42.15C20.8 42.6757 21.0665 43.1551 21.4692 43.503C21.872 43.8508 22.3851 44.0446 22.9173 44.05H37.0839C37.6151 44.0475 38.1278 43.8542 38.5285 43.5055C38.9292 43.1568 39.1914 42.6758 39.2673 42.15L40.6506 32.5H38.1006Z" fill="#0075F2"/>
<path fill-rule="evenodd" clip-rule="evenodd" d="M49.584 3.33325C51.4605 3.33967 53.2581 4.08869 54.584 5.41659C55.2455 6.0771 55.7701 6.86175 56.1276 7.7255C56.4851 8.58925 56.6685 9.5151 56.6673 10.4499V49.5499C56.6673 51.4374 55.9175 53.2475 54.5829 54.5822C53.2483 55.9168 51.4381 56.6666 49.5506 56.6666H10.4507C8.56319 56.6666 6.75304 55.9168 5.41841 54.5822C4.08377 53.2475 3.33398 51.4374 3.33398 49.5499V10.4499C3.33398 8.56246 4.08377 6.75231 5.41841 5.41768C6.75304 4.08304 8.56319 3.33325 10.4507 3.33325H49.584ZM16.85 10.2341C16.5912 10.2858 16.3537 10.4131 16.1673 10.5999C15.918 10.8499 15.7779 11.1885 15.7779 11.5416C15.7779 11.8946 15.918 12.2333 16.1673 12.4833C16.3537 12.67 16.5912 12.7974 16.85 12.8491C17.1087 12.9008 17.3769 12.8746 17.6208 12.7737C17.8646 12.6729 18.073 12.502 18.2197 12.2827C18.3663 12.0633 18.4446 11.8054 18.4446 11.5416C18.4446 11.2777 18.3663 11.0198 18.2197 10.8005C18.073 10.5812 17.8646 10.4103 17.6208 10.3094C17.3769 10.2086 17.1087 10.1824 16.85 10.2341ZM12.0347 12.8491C12.2934 12.7974 12.531 12.67 12.7173 12.4833C12.9667 12.2333 13.1067 11.8946 13.1067 11.5416C13.1067 11.1885 12.9667 10.8499 12.7173 10.5999C12.531 10.4131 12.2934 10.2858 12.0347 10.2341C11.7759 10.1824 11.5077 10.2086 11.2639 10.3094C11.02 10.4103 10.8116 10.5812 10.665 10.8005C10.5183 11.0198 10.44 11.2777 10.44 11.5416C10.44 11.8054 10.5183 12.0633 10.665 12.2827C10.8116 12.502 11.02 12.6729 11.2639 12.7737C11.5077 12.8746 11.7759 12.9008 12.0347 12.8491ZM43.334 32.4833H44.2173V32.4999C44.5709 32.4999 44.9101 32.3594 45.1601 32.1094C45.4102 31.8593 45.5507 31.5202 45.5507 31.1666C45.5507 30.813 45.4102 30.4738 45.1601 30.2238C44.9101 29.9737 44.5709 29.8333 44.2173 29.8333H38.9507L35.2507 22.4333C35.0932 22.1177 34.8171 21.8775 34.4829 21.765C34.1486 21.6526 33.7835 21.6771 33.4673 21.8333C33.1537 21.9972 32.916 22.2764 32.8041 22.6122C32.6922 22.9479 32.7148 23.3139 32.8673 23.6333L35.9673 29.8333H24.034L27.134 23.5999C27.2865 23.2806 27.3092 22.9145 27.1972 22.5788C27.0853 22.2431 26.8476 21.9639 26.534 21.7999C26.2178 21.6438 25.8527 21.6193 25.5184 21.7317C25.1842 21.8441 24.9081 22.0844 24.7507 22.3999L21.0507 29.7999H15.784C15.4304 29.7999 15.0912 29.9404 14.8412 30.1904C14.5911 30.4405 14.4507 30.7796 14.4507 31.1333C14.4507 31.4869 14.5911 31.826 14.8412 32.0761C15.0912 32.3261 15.4304 32.4666 15.784 32.4666H16.6507L18.084 42.4666C18.2709 43.6215 18.857 44.6744 19.7401 45.4418C20.6233 46.2092 21.7476 46.6426 22.9173 46.6666H37.084C38.2484 46.6395 39.3668 46.2067 40.2462 45.4429C41.1256 44.6792 41.7107 43.6324 41.9007 42.4832L43.334 32.4833ZM22.25 10C21.5596 10 21 10.5596 21 11.25C21 11.9404 21.5596 12.5 22.25 12.5H51.75C52.4404 12.5 53 11.9404 53 11.25C53 10.5596 52.4404 10 51.75 10H22.25Z" fill="#0075F2"/>
</svg>
