<svg width="60" height="60" viewBox="0 0 60 60" fill="none" xmlns="http://www.w3.org/2000/svg">
<path d="M49.4937 39.9751C49.2957 39.9537 49.1096 39.8698 48.9625 39.7355C48.8154 39.6012 48.7148 39.4236 48.6755 39.2284C48.6361 39.0331 48.6599 38.8304 48.7435 38.6497C48.827 38.4689 48.966 38.3194 49.1402 38.2229C51.0284 37.1795 52.2002 35.2173 52.2002 33.1023C52.2002 29.8548 49.5584 27.2129 46.3109 27.2129C43.0634 27.2129 40.4215 29.8548 40.4215 33.1023C40.4215 35.2163 41.5915 37.1785 43.4749 38.2229C43.6488 38.3197 43.7874 38.4693 43.8706 38.6501C43.9538 38.8309 43.9773 39.0334 43.9378 39.2285C43.8982 39.4235 43.7976 39.6009 43.6505 39.735C43.5034 39.869 43.3175 39.9528 43.1196 39.9741C42.0599 40.0889 41.0365 40.4268 40.1168 40.9655C39.197 41.5042 38.4018 42.2316 37.7834 43.0998C39.0299 43.9681 40.0478 45.1253 40.75 46.4725C41.4521 47.8197 41.8177 49.3168 41.8155 50.836V52.2882H53.5493C54.2654 52.2875 54.952 52.0027 55.4583 51.4963C55.9647 50.9899 56.2495 50.3034 56.2502 49.5873V47.4985C56.2537 45.631 55.5649 43.8284 54.3171 42.4389C53.0693 41.0495 51.3508 40.1717 49.4937 39.9751ZM24.5355 41.9157C23.6384 41.0276 22.9713 39.9342 22.5921 38.7301C21.7959 38.2298 21.0515 37.6513 20.3702 37.0032C20.0335 37.5766 19.6249 38.1046 19.1543 38.5745C21.0687 39.2399 22.7185 40.5029 23.8605 42.1773C24.0809 42.0816 24.3059 41.9945 24.5355 41.9157Z" fill="white"/>
<path d="M6.45095 52.2882H18.1866V50.836C18.1844 49.3172 18.5498 47.8203 19.2517 46.4733C19.9535 45.1263 20.9708 43.9692 22.2169 43.1007C21.5987 42.2322 20.8035 41.5046 19.8837 40.9657C18.964 40.4268 17.9405 40.0888 16.8806 39.9741C16.6828 39.9528 16.4968 39.869 16.3498 39.735C16.2027 39.6009 16.102 39.4235 16.0625 39.2285C16.0229 39.0334 16.0464 38.8309 16.1296 38.6501C16.2128 38.4693 16.3514 38.3197 16.5253 38.2229C18.4088 37.1776 19.5788 35.2154 19.5788 33.1023C19.5788 29.8548 16.9369 27.2129 13.6894 27.2129C10.4419 27.2129 7.80845 29.8548 7.80845 33.1023C7.80845 35.2201 8.97845 37.1823 10.86 38.2229C11.0342 38.3194 11.1732 38.4689 11.2568 38.6497C11.3404 38.8304 11.3642 39.0331 11.3248 39.2284C11.2854 39.4236 11.1849 39.6012 11.0378 39.7355C10.8906 39.8698 10.7046 39.9537 10.5066 39.9751C8.64949 40.1719 6.93117 41.0497 5.68338 42.4392C4.43558 43.8286 3.7468 45.631 3.75001 47.4985V49.5873C3.75076 50.3034 4.03556 50.9899 4.54192 51.4963C5.04828 52.0027 5.73484 52.2875 6.45095 52.2882Z" fill="white"/>
<path d="M20.0615 52.9256C20.0622 53.642 20.3471 54.3288 20.8537 54.8353C21.3602 55.3419 22.047 55.6268 22.7634 55.6275H37.2384C37.9547 55.6268 38.6415 55.3419 39.1481 54.8353C39.6546 54.3288 39.9395 53.642 39.9402 52.9256V50.8369C39.9423 49.4881 39.5825 48.1636 38.8983 47.0012C38.2142 45.8389 37.2307 44.8813 36.0506 44.2284C36.0459 44.2256 36.0393 44.2266 36.0346 44.2238C36.0281 44.22 36.0252 44.2144 36.0187 44.2106C35.1435 43.7296 34.1814 43.4272 33.1884 43.3209C32.9895 43.3011 32.8021 43.218 32.6539 43.0839C32.5056 42.9499 32.4042 42.7718 32.3645 42.5759C32.3247 42.38 32.3488 42.1765 32.4331 41.9953C32.5174 41.814 32.6576 41.6646 32.8331 41.5688C34.7165 40.5244 35.8865 38.5613 35.8865 36.4434C35.8865 33.1978 33.2456 30.5569 29.9999 30.5569C26.7543 30.5569 24.1134 33.1978 24.1134 36.4434C24.1134 38.5603 25.2834 40.5253 27.1668 41.5688C27.3411 41.6654 27.4801 41.815 27.5635 41.9959C27.647 42.1769 27.6707 42.3797 27.6311 42.575C27.5915 42.7703 27.4907 42.9479 27.3433 43.0821C27.1959 43.2162 27.0097 43.2999 26.8115 43.3209C25.8167 43.4272 24.853 43.7303 23.9765 44.2125L23.9643 44.2228L23.9512 44.2266C22.7706 44.8793 21.7867 45.8369 21.1024 46.9994C20.4181 48.162 20.0583 49.4869 20.0606 50.8359V52.9247L20.0615 52.9256Z" fill="white"/>
<path d="M42.0567 26.6157C41.8561 20.0607 36.532 14.8445 30.0005 14.8445C23.4689 14.8445 18.1055 20.0973 17.9414 26.6129C20.0536 28.0023 21.4542 30.3901 21.4542 33.1014C21.4542 33.7998 21.3502 34.4832 21.1673 35.1414C21.5133 35.5098 21.8723 35.8595 22.2539 36.1792C22.3945 32.0223 25.8108 28.681 30.0023 28.681C34.1939 28.681 37.6102 32.0223 37.7508 36.1792C38.1327 35.8552 38.4949 35.5086 38.8355 35.1414C38.6478 34.4778 38.5513 33.7918 38.5486 33.1023C38.5496 31.8149 38.8708 30.5479 39.4834 29.4156C40.096 28.2832 40.9797 27.321 42.0567 26.6157Z" fill="white"/>
<path d="M46.3106 25.3379C48.8662 25.3379 51.1303 26.5847 52.5459 28.4963V22.9163H49.1428C48.935 22.9163 48.7331 22.8472 48.5688 22.7199C48.4045 22.5926 48.2872 22.4144 48.2353 22.2132C47.7966 20.5047 47.1203 18.8662 46.2262 17.3457C46.1209 17.1668 46.0778 16.9581 46.1038 16.7522C46.1297 16.5462 46.2232 16.3547 46.3696 16.2076L48.765 13.8047L43.1137 8.1535L40.7109 10.5488C40.564 10.6956 40.3725 10.7894 40.1664 10.8154C39.9603 10.8414 39.7515 10.798 39.5728 10.6922C38.0523 9.79802 36.4138 9.12173 34.7053 8.68318C34.5041 8.63123 34.3258 8.51391 34.1986 8.34964C34.0713 8.18538 34.0022 7.98348 34.0021 7.77568V4.37256H25.9959V7.77568C25.9958 7.98348 25.9268 8.18538 25.7995 8.34964C25.6722 8.51391 25.494 8.63123 25.2928 8.68318C23.5843 9.12189 21.9458 9.79817 20.4253 10.6922C20.2464 10.7976 20.0377 10.8406 19.8317 10.8147C19.6258 10.7887 19.4343 10.6952 19.2871 10.5488L16.8843 8.1535L11.2331 13.8047L13.6284 16.2076C13.7752 16.3544 13.869 16.546 13.895 16.7521C13.921 16.9581 13.8776 17.167 13.7718 17.3457C12.8776 18.8661 12.2013 20.5046 11.7628 22.2132C11.7108 22.4144 11.5935 22.5926 11.4292 22.7199C11.265 22.8472 11.0631 22.9163 10.8553 22.9163H7.45215V28.5047C8.8659 26.5885 11.1309 25.3379 13.6875 25.3379C14.5331 25.3379 15.3459 25.4785 16.109 25.7297C16.7156 18.5935 22.7081 12.9694 29.999 12.9694C37.29 12.9694 43.2815 18.5935 43.889 25.7297C44.6702 25.4709 45.4877 25.3386 46.3106 25.3379ZM39.63 37.0032C38.9493 37.651 38.2056 38.2292 37.41 38.7291C37.0308 39.9337 36.3634 41.0275 35.4656 41.9157C35.6943 41.9944 35.9193 42.0816 36.1396 42.1772C37.2812 40.5025 38.9312 39.2393 40.8459 38.5744C40.375 38.1049 39.9664 37.5768 39.63 37.0032Z" fill="white"/>
</svg>
