<svg width="60" height="60" viewBox="0 0 60 60" fill="none" xmlns="http://www.w3.org/2000/svg">
<path d="M40.8374 53.9531C40.3124 54.8062 39.403 55.3125 38.3905 55.3125H21.6092C20.5967 55.3125 19.6874 54.8062 19.1624 53.9531C18.6561 53.1187 18.6092 52.1063 19.0592 51.2344L20.803 47.8125H39.1967L40.9405 51.2344C41.3905 52.1063 41.3436 53.1187 40.8374 53.9531Z" fill="#0075F2"/>
<path d="M29.0625 9.375H8.4375C7.40197 9.375 6.5625 10.2145 6.5625 11.25V20.625C6.5625 21.6605 7.40197 22.5 8.4375 22.5H29.0625C30.098 22.5 30.9375 21.6605 30.9375 20.625V11.25C30.9375 10.2145 30.098 9.375 29.0625 9.375Z" fill="#0075F2"/>
<path d="M15.9375 24.375H8.4375C7.40197 24.375 6.5625 25.2145 6.5625 26.25V33.75C6.5625 34.7855 7.40197 35.625 8.4375 35.625H15.9375C16.973 35.625 17.8125 34.7855 17.8125 33.75V26.25C17.8125 25.2145 16.973 24.375 15.9375 24.375Z" fill="#0075F2"/>
<path d="M29.0625 24.375H21.5625C20.527 24.375 19.6875 25.2145 19.6875 26.25V33.75C19.6875 34.7855 20.527 35.625 21.5625 35.625H29.0625C30.098 35.625 30.9375 34.7855 30.9375 33.75V26.25C30.9375 25.2145 30.098 24.375 29.0625 24.375Z" fill="#0075F2"/>
<path d="M52.5 35.625H38.4375C37.9219 35.625 37.5 35.2031 37.5 34.6875C37.5 34.1719 37.9219 33.75 38.4375 33.75H52.5C53.0156 33.75 53.4375 34.1719 53.4375 34.6875C53.4375 35.2031 53.0156 35.625 52.5 35.625ZM52.5 30.9375H38.4375C37.9219 30.9375 37.5 30.5156 37.5 30C37.5 29.4844 37.9219 29.0625 38.4375 29.0625H52.5C53.0156 29.0625 53.4375 29.4844 53.4375 30C53.4375 30.5156 53.0156 30.9375 52.5 30.9375ZM52.5 26.25H38.4375C37.9219 26.25 37.5 25.8281 37.5 25.3125C37.5 24.7969 37.9219 24.375 38.4375 24.375H52.5C53.0156 24.375 53.4375 24.7969 53.4375 25.3125C53.4375 25.8281 53.0156 26.25 52.5 26.25Z" fill="#0075F2"/>
<path d="M53.4375 4.6875H6.5625C3.975 4.6875 1.875 6.7875 1.875 9.375V41.25C1.875 43.8375 3.975 45.9375 6.5625 45.9375H53.4375C56.025 45.9375 58.125 43.8375 58.125 41.25V9.375C58.125 6.7875 56.025 4.6875 53.4375 4.6875ZM3.75 38.4375V9.375C3.75 7.82812 5.01562 6.5625 6.5625 6.5625H32.8125V38.4375H3.75ZM56.25 38.4375H34.6875V6.5625H53.4375C54.9844 6.5625 56.25 7.82812 56.25 9.375V38.4375Z" fill="#0075F2"/>
<path d="M49.6879 19.6875C49.491 19.6875 49.2942 19.6218 49.1254 19.5C48.7129 19.1906 48.6286 18.6 48.9379 18.1875L51.3286 15L48.9379 11.8125C48.6286 11.4 48.7129 10.8094 49.1254 10.5C49.5379 10.1906 50.1285 10.275 50.4379 10.6875L53.2504 14.4375C53.5035 14.775 53.5035 15.225 53.2504 15.5625L50.4379 19.3125C50.2504 19.5562 49.9692 19.6875 49.6879 19.6875ZM40.3129 19.6875C40.0317 19.6875 39.7504 19.5562 39.5629 19.3125L36.7504 15.5625C36.6273 15.4008 36.5605 15.2032 36.5605 15C36.5605 14.7967 36.6273 14.5991 36.7504 14.4375L39.5629 10.6875C39.8723 10.275 40.4629 10.1906 40.8754 10.5C41.2879 10.8094 41.3723 11.4 41.0629 11.8125L38.6723 15L41.0629 18.1875C41.3723 18.6 41.2879 19.1906 40.8754 19.5C40.7067 19.6218 40.5098 19.6875 40.3129 19.6875ZM44.0629 19.6875C43.9879 19.6875 43.9129 19.6875 43.8379 19.6593C43.5968 19.5995 43.3894 19.4464 43.261 19.2338C43.1327 19.0211 43.0941 18.7661 43.1535 18.525L45.0285 11.025C45.0958 10.7921 45.2507 10.5944 45.4606 10.4733C45.6705 10.3521 45.9191 10.317 46.1544 10.3752C46.3896 10.4334 46.5932 10.5804 46.7224 10.7855C46.8516 10.9905 46.8964 11.2376 46.8473 11.475L44.9723 18.975C44.8692 19.4062 44.4848 19.6875 44.0629 19.6875Z" fill="#0075F2"/>
</svg>
