<svg width="60" height="60" viewBox="0 0 60 60" fill="none" xmlns="http://www.w3.org/2000/svg">
<path fill-rule="evenodd" clip-rule="evenodd" d="M30.5639 51.3118C32.0903 50.3492 34.0908 50.6188 35.344 51.9338C35.3574 51.9483 35.3744 51.9589 35.3933 51.9645C35.4123 51.9702 35.4323 51.9706 35.4515 51.9658L41.5453 50.5281C41.5641 50.524 41.5815 50.5149 41.5958 50.5019C41.61 50.4889 41.6206 50.4724 41.6264 50.4541C41.9186 49.579 42.5172 48.8372 43.3136 48.374H43.3134C43.6047 48.2045 43.9176 48.0752 44.2435 47.9895C45.3136 47.7082 46.4686 47.9202 47.3789 48.5513C47.3993 48.5658 47.424 48.5729 47.4489 48.5717C47.4739 48.5704 47.4977 48.5608 47.5165 48.5444C48.3936 47.7939 48.9828 46.7606 49.2091 45.5646L51.4313 33.82C51.7374 32.2023 50.2891 30.7681 48.6848 31.1464L20.49 37.7984C20.4675 37.8039 20.4439 37.8023 20.4224 37.7938C20.4009 37.7853 20.3826 37.7703 20.37 37.7509L18.3721 34.7304C17.518 33.4392 15.9954 32.8154 14.4922 33.1906L11.1101 34.0348C11.0016 34.0605 10.8992 34.1075 10.809 34.1729C10.7187 34.2384 10.6423 34.3211 10.5841 34.4162C10.526 34.5114 10.4873 34.6171 10.4702 34.7273C10.4531 34.8375 10.4581 34.95 10.4847 35.0583C10.5113 35.1665 10.5592 35.2685 10.6254 35.3582C10.6916 35.4479 10.775 35.5236 10.8707 35.5809C10.9663 35.6382 11.0724 35.676 11.1827 35.6921C11.293 35.7082 11.4055 35.7023 11.5135 35.6748L14.8956 34.8306C15.7138 34.6263 16.4974 34.9576 16.9638 35.6628L27.2063 51.1482C27.6946 51.8864 28.3662 52.4268 29.1347 52.7292C29.1601 52.7393 29.1884 52.7397 29.2142 52.7305C29.24 52.7212 29.2615 52.7029 29.2747 52.6789C29.5826 52.122 30.026 51.6518 30.5639 51.3118ZM28.2336 34.445C28.2338 34.4704 28.2253 34.4952 28.2095 34.5152C28.1937 34.5351 28.1715 34.5491 28.1467 34.5548L23.9806 35.5377C23.964 35.5418 23.9467 35.5421 23.9301 35.5384C23.9135 35.5347 23.8979 35.5271 23.8847 35.5163C23.8711 35.506 23.8602 35.4926 23.8528 35.4772C23.8454 35.4618 23.8416 35.445 23.8418 35.4279V29.9679C23.8418 29.9058 23.8925 29.8551 23.9546 29.8551H28.1208C28.183 29.8551 28.2336 29.9058 28.2336 29.9679V34.445ZM36.9511 32.3882C36.9513 32.4136 36.9428 32.4384 36.927 32.4584C36.9112 32.4783 36.8891 32.4923 36.8642 32.498L32.6981 33.4809C32.6634 33.4891 32.6302 33.4816 32.6022 33.4596C32.5742 33.4375 32.5594 33.4068 32.5594 33.3711V26.1874C32.5594 26.1253 32.61 26.0746 32.6722 26.0746H36.8383C36.9005 26.0746 36.9511 26.1253 36.9511 26.1874V32.3882ZM45.6688 30.3315C45.6689 30.357 45.6604 30.3817 45.6446 30.4017C45.6288 30.4217 45.6067 30.4356 45.5819 30.4413L41.4157 31.4242C41.3992 31.4284 41.3819 31.4286 41.3653 31.4249C41.3486 31.4212 41.3331 31.4136 41.3198 31.4029C41.3063 31.3925 41.2954 31.3791 41.2879 31.3637C41.2805 31.3484 41.2768 31.3315 41.277 31.3144V21.0527C41.277 20.9906 41.3276 20.9399 41.3898 20.9399H45.556C45.6181 20.9399 45.6688 20.9906 45.6688 21.0527V30.3315ZM44.6958 49.4541C45.9301 49.1685 47.1431 49.962 47.4578 51.1723C47.7845 52.4287 47.0426 53.7376 45.7962 54.0118C44.5384 54.2886 43.3481 53.5054 43.0331 52.2939C42.7033 51.0259 43.4719 49.7096 44.6934 49.4546C44.6942 49.4545 44.695 49.4543 44.6958 49.4541ZM33.7855 52.6189C35.5057 53.7029 35.1581 56.3578 33.2236 56.8668C31.2272 57.3919 29.5885 55.133 30.6473 53.3581C31.3007 52.2626 32.7094 51.9406 33.7855 52.6189ZM34.5961 22.1499C34.5767 22.168 34.5516 22.1786 34.5251 22.1798C34.4986 22.1811 34.4725 22.1729 34.4515 22.1568L29.4709 18.376C29.452 18.3614 29.429 18.3532 29.4051 18.3527C29.3812 18.3522 29.3578 18.3594 29.3383 18.3733L7.37592 33.6204C7.32756 33.654 7.26192 33.6448 7.22448 33.5993C7.18704 33.5539 7.19076 33.4876 7.23312 33.4466L28.5592 12.7899C28.5773 12.772 28.6011 12.7609 28.6265 12.7584C28.6519 12.7558 28.6774 12.7621 28.6987 12.7761L34.7854 16.6922C34.827 16.719 34.8788 16.7162 34.9174 16.6851L46.1797 7.58719C46.1945 7.57561 46.206 7.56044 46.2133 7.54313C46.2205 7.52583 46.2232 7.50695 46.2211 7.48831C46.2195 7.4696 46.2132 7.45161 46.2027 7.43606C46.1921 7.42051 46.1778 7.40793 46.161 7.39951L41.8672 5.15827C41.846 5.14752 41.8289 5.13028 41.8182 5.10907C41.8076 5.08787 41.804 5.06381 41.808 5.04043C41.8115 5.01695 41.8225 4.99521 41.8392 4.97839C41.856 4.96157 41.8777 4.95056 41.9011 4.94695L53.3815 3.05803C53.4199 3.05167 53.4559 3.06403 53.4824 3.09247C53.509 3.12091 53.5187 3.15763 53.5097 3.19555L51.0509 13.508C51.0458 13.5303 51.0341 13.5504 51.0171 13.5657C51.0002 13.581 50.979 13.5908 50.9563 13.5936C50.9337 13.5969 50.9107 13.5932 50.8903 13.5829C50.8699 13.5727 50.8531 13.5564 50.8423 13.5363L48.5936 9.46027C48.5856 9.44515 48.5741 9.43213 48.5601 9.42225C48.5461 9.41237 48.53 9.40591 48.513 9.40339C48.4961 9.40038 48.4788 9.40138 48.4624 9.4063C48.4459 9.41122 48.4309 9.41992 48.4184 9.43171L34.5961 22.1499ZM13.2725 47.7456C13.048 47.7456 12.8327 47.6564 12.674 47.4977C12.5153 47.3389 12.4261 47.1237 12.4261 46.8992C12.4261 46.6747 12.5153 46.4594 12.674 46.3007C12.8327 46.142 13.048 46.0528 13.2725 46.0528H20.1239C20.3484 46.0528 20.5636 46.142 20.7223 46.3007C20.8811 46.4594 20.9702 46.6747 20.9702 46.8992C20.9702 47.1237 20.8811 47.3389 20.7223 47.4977C20.5636 47.6564 20.3484 47.7456 20.1239 47.7456H13.2725ZM7.33464 52.3132C7.11017 52.3132 6.8949 52.2241 6.73617 52.0653C6.57745 51.9066 6.48828 51.6913 6.48828 51.4669C6.48828 51.2424 6.57745 51.0271 6.73617 50.8684C6.8949 50.7097 7.11017 50.6205 7.33464 50.6205H22.1033C22.3278 50.6205 22.543 50.7097 22.7017 50.8684C22.8605 51.0271 22.9496 51.2424 22.9496 51.4669C22.9496 51.6913 22.8605 51.9066 22.7017 52.0653C22.543 52.2241 22.3278 52.3132 22.1033 52.3132H7.33464Z" fill="white"/>
</svg>
