<svg width="35" height="47" viewBox="0 0 35 47" fill="none" xmlns="http://www.w3.org/2000/svg">
<path d="M16.9545 8.58551C14.8133 10.0915 12.3865 11.7985 11.0862 14.6225C8.82772 19.5491 15.7077 24.9233 16.0017 25.1497C16.0703 25.2024 16.1547 25.2302 16.2412 25.2285C16.3277 25.2267 16.4109 25.1955 16.4773 25.14C16.5436 25.0845 16.589 25.008 16.6059 24.9232C16.6229 24.8384 16.6104 24.7504 16.5706 24.6736C16.5457 24.6256 14.0761 19.8288 14.1679 16.3873C14.2004 15.1889 15.8778 13.8292 17.6536 12.3896C19.28 11.0712 21.1236 9.57673 22.2023 7.82858C24.5704 3.98055 21.9384 0.196786 21.9115 0.159106C21.8608 0.0880846 21.7871 0.0366945 21.703 0.0135741C21.6188 -0.00954634 21.5292 -0.00298736 21.4493 0.0321485C21.3694 0.0672843 21.3041 0.128855 21.2642 0.206511C21.2244 0.284166 21.2125 0.373172 21.2305 0.458568C21.2359 0.483485 21.7477 2.98569 20.3235 5.56355C19.7366 6.62876 18.4474 7.53565 16.9545 8.58551Z" fill="#FF0404"/>
<path d="M25.9751 10.2825C26.0483 10.2275 26.0991 10.1479 26.1182 10.0584C26.1373 9.96889 26.1235 9.87548 26.0793 9.79536C26.035 9.71524 25.9634 9.65378 25.8774 9.6223C25.7915 9.59082 25.6971 9.59142 25.6115 9.62401C25.2478 9.76227 16.7041 13.0554 16.7041 17.0347C16.7041 19.7776 17.8758 21.2267 18.7314 22.285C19.067 22.6999 19.3567 23.0583 19.4521 23.3643C19.7209 24.2461 19.0841 25.8399 18.8164 26.3796C18.779 26.4551 18.7677 26.5409 18.7844 26.6235C18.8011 26.7061 18.8447 26.7808 18.9085 26.8359C18.9723 26.891 19.0526 26.9233 19.1368 26.9277C19.221 26.9321 19.3042 26.9084 19.3734 26.8603C19.5203 26.7581 22.9636 24.3236 22.346 21.3905C22.116 20.2758 21.5681 19.4611 21.0847 18.7423C20.3358 17.6288 19.7949 16.8243 20.6155 15.3386C21.5772 13.6059 25.9312 10.3155 25.9751 10.2825Z" fill="#FF0404"/>
<path d="M3.73606 26.9919C3.58959 27.4302 3.65872 27.8655 3.93585 28.2504C4.86204 29.536 8.1426 30.2442 13.1737 30.2442H13.1743C13.8561 30.2442 14.5758 30.2308 15.313 30.2044C23.3568 29.9163 26.3403 27.4105 26.4634 27.304C26.5285 27.2476 26.5725 27.1708 26.5882 27.0862C26.6039 27.0015 26.5905 26.914 26.5499 26.8381C26.5094 26.7621 26.4443 26.7022 26.3653 26.668C26.2862 26.6339 26.1979 26.6277 26.1149 26.6503C23.2821 27.4238 17.992 27.6984 14.3228 27.6984C10.2171 27.6984 8.12619 27.4027 7.61432 27.1844C7.87702 26.8237 9.49709 26.1796 11.5046 25.7848C11.5975 25.7669 11.6804 25.715 11.737 25.6392C11.7936 25.5635 11.8199 25.4693 11.8108 25.3751C11.8016 25.281 11.7576 25.1937 11.6875 25.1302C11.6173 25.0668 11.526 25.0319 11.4314 25.0322C10.2545 25.0324 4.35291 25.1269 3.73606 26.9919ZM30.6524 24.4111C28.9933 24.4111 27.42 25.2425 27.3537 25.2779C27.2794 25.318 27.2205 25.3818 27.1864 25.4591C27.1523 25.5364 27.1449 25.6229 27.1655 25.7048C27.186 25.7868 27.2332 25.8596 27.2997 25.9117C27.3662 25.9638 27.4482 25.9923 27.5327 25.9926C27.568 25.9928 31.0717 26.0213 31.3891 28.0232C31.6702 29.7502 28.0739 32.5486 26.6644 33.4811C26.5908 33.53 26.5365 33.603 26.5108 33.6876C26.4852 33.7722 26.4899 33.8631 26.5241 33.9446C26.5583 34.0261 26.6199 34.0931 26.6982 34.1341C26.7765 34.1751 26.8666 34.1876 26.9531 34.1692C27.2876 34.0978 35.1355 32.3685 34.3058 27.7991C33.7995 24.9988 32.0395 24.4111 30.6524 24.4111ZM25.2704 32.922C25.2838 32.8503 25.2762 32.7763 25.2487 32.7088C25.2211 32.6413 25.1747 32.5831 25.115 32.5413L23.2333 31.2232C23.1879 31.1916 23.1362 31.1702 23.0817 31.1605C23.0273 31.1508 22.9713 31.1532 22.9179 31.1673C22.8983 31.1725 20.9304 31.6897 18.0735 32.0069C16.9396 32.1341 15.6696 32.2012 14.4005 32.2012C11.5442 32.2012 9.67668 31.8656 9.40471 31.6195C9.36871 31.5504 9.3801 31.5189 9.38648 31.5014C9.43586 31.3639 9.70068 31.2006 9.87146 31.136C9.96235 31.1024 10.037 31.0354 10.08 30.9486C10.1231 30.8618 10.1314 30.7618 10.1031 30.6691C10.0749 30.5764 10.0123 30.498 9.92819 30.4499C9.84406 30.4019 9.74473 30.3878 9.65054 30.4105C7.76292 30.866 6.83992 31.5031 6.90707 32.3038C7.02634 33.7233 10.3146 34.452 13.0946 34.6448C13.4943 34.6721 13.9267 34.6861 14.3793 34.6861H14.3801C19.0027 34.6861 24.9287 33.2358 24.988 33.221C25.0588 33.2035 25.1231 33.1661 25.1731 33.113C25.2232 33.06 25.257 32.9937 25.2704 32.922ZM11.0837 35.9691C11.153 35.9239 11.2057 35.8573 11.2337 35.7795C11.2617 35.7017 11.2635 35.6168 11.2389 35.5379C11.1884 35.3756 11.0366 35.2691 10.8662 35.2712C10.6132 35.2779 8.39086 35.3782 8.23528 36.7931C8.18818 37.216 8.30927 37.6022 8.59536 37.9412C9.39332 38.8868 11.5471 39.4488 15.179 39.6595C15.6086 39.6852 16.045 39.6981 16.4763 39.6981C21.0936 39.6981 24.2032 38.2525 24.3334 38.1909C24.3954 38.1617 24.4483 38.1162 24.4865 38.0593C24.5247 38.0024 24.5468 37.9362 24.5505 37.8678C24.5541 37.7994 24.5392 37.7312 24.5073 37.6706C24.4754 37.6099 24.4276 37.5591 24.3691 37.5233L21.9911 36.0716C21.9086 36.0215 21.8102 36.0045 21.7156 36.0239C21.7006 36.0271 20.1907 36.3402 17.912 36.6497C17.4808 36.7082 16.9408 36.738 16.3072 36.738C14.031 36.738 11.4991 36.3661 11.0135 36.1227C11.0066 36.0769 11.0155 36.0192 11.0837 35.9691Z" fill="#73A1FB"/>
<path d="M14.3244 44.0626C24.9005 44.0537 30.5769 42.1729 31.6704 40.9893C32.0575 40.5704 32.0993 40.174 32.0663 39.9151C31.985 39.2779 31.4048 38.8879 31.3388 38.8455C31.1801 38.7434 30.9671 38.7702 30.8432 38.913C30.7197 39.056 30.7168 39.2646 30.8408 39.4072C30.9075 39.4931 30.9461 39.6366 30.751 39.8319C30.3139 40.2401 25.9048 41.4795 18.5636 41.8517C17.558 41.9041 16.5032 41.9305 15.4288 41.9307C8.8558 41.9307 4.04542 41.0305 3.41398 40.5057C3.65753 40.1561 5.35889 39.5973 7.16842 39.2814C7.26712 39.2651 7.35539 39.2105 7.41405 39.1294C7.47272 39.0484 7.49706 38.9475 7.48177 38.8486C7.46648 38.7498 7.41281 38.6609 7.33241 38.6014C7.25201 38.5419 7.15137 38.5165 7.05235 38.5307C7.0013 38.5376 6.82824 38.5482 6.62754 38.5603C3.64189 38.7427 0.191617 39.1491 0.0115753 40.6873C-0.043121 41.1561 0.0962022 41.5816 0.425747 41.952C1.23206 42.858 3.54981 44.0625 14.3239 44.0625L14.3244 44.0626Z" fill="#73A1FB"/>
<path d="M33.7479 41.3233C33.6752 41.2896 33.5937 41.2798 33.515 41.2952C33.4364 41.3107 33.3647 41.3507 33.3102 41.4094C33.2945 41.4261 31.7045 43.0889 26.9236 44.0652C25.0933 44.432 21.6576 44.618 16.712 44.618C11.7571 44.618 7.04244 44.423 6.99535 44.421C6.90086 44.4166 6.80814 44.4478 6.73553 44.5084C6.66291 44.569 6.61569 44.6547 6.6032 44.7485C6.59025 44.842 6.61259 44.937 6.66588 45.0149C6.71916 45.0929 6.79957 45.1482 6.89142 45.1701C6.9405 45.1818 11.8815 46.3394 18.6374 46.3394C21.8777 46.3394 25.0308 46.0761 28.0093 45.5567C33.563 44.5832 33.9518 41.8294 33.9656 41.7127C33.975 41.6331 33.959 41.5526 33.9199 41.4826C33.8808 41.4127 33.8206 41.3569 33.7479 41.3233Z" fill="#73A1FB"/>
</svg>
