<svg width="169" height="50" viewBox="0 0 169 50" fill="none" xmlns="http://www.w3.org/2000/svg">
<g clip-path="url(#clip0_7366_9616)">
<path fill-rule="evenodd" clip-rule="evenodd" d="M162.734 49.9941H6.25449C2.81292 49.9941 -0.00585938 47.1828 -0.00585938 43.7437V6.25037C-0.00585938 2.81429 2.80997 0 6.25449 0H162.734C166.175 0 168.994 2.81134 168.994 6.25037V43.7467C168.994 47.1828 166.178 49.9941 162.734 49.9941Z" fill="#FBFBFB"/>
<path d="M70.5299 38.4859C73.4821 38.4859 75.8753 36.1058 75.8753 33.1697C75.8753 30.2337 73.4821 27.8535 70.5299 27.8535C67.5778 27.8535 65.1846 30.2337 65.1846 33.1697C65.1846 36.1058 67.5778 38.4859 70.5299 38.4859Z" fill="black"/>
<path d="M82.1872 38.4859C85.1393 38.4859 87.5325 36.1058 87.5325 33.1697C87.5325 30.2337 85.1393 27.8535 82.1872 27.8535C79.235 27.8535 76.8418 30.2337 76.8418 33.1697C76.8418 36.1058 79.235 38.4859 82.1872 38.4859Z" fill="black"/>
<path fill-rule="evenodd" clip-rule="evenodd" d="M162.734 0.00292969H6.25449C2.81292 0.00292969 -0.00585938 2.81427 -0.00585938 6.2533V43.7496C-0.00585938 47.1857 2.80997 50 6.25449 50H162.734C166.175 50 168.994 47.1886 168.994 43.7496V6.25035C168.994 2.81427 166.178 0.00292969 162.734 0.00292969ZM162.734 1.00193C165.632 1.00193 167.991 3.3565 167.991 6.25035V43.7467C167.991 46.6405 165.632 48.9951 162.734 48.9951H6.25449C3.35602 48.9951 0.997686 46.6405 0.997686 43.7467V6.25035C0.997686 3.3565 3.35602 1.00193 6.25449 1.00193H162.734Z" fill="#CCCED3"/>
<path fill-rule="evenodd" clip-rule="evenodd" d="M59.3562 12.8044C59.3562 13.8535 59.0463 14.6845 58.4235 15.3093C57.7151 16.049 56.7972 16.4173 55.6637 16.4173C54.5805 16.4173 53.6566 16.0431 52.901 15.2916C52.1395 14.5431 51.7617 13.6089 51.7617 12.5009C51.7617 11.3899 52.1395 10.4587 52.901 9.71019C53.6566 8.96168 54.5805 8.58447 55.6637 8.58447C56.2009 8.58447 56.7175 8.69056 57.2045 8.89684C57.6944 9.10607 58.087 9.38603 58.3792 9.73376L57.7181 10.3939C57.2222 9.80154 56.5374 9.5039 55.6608 9.5039C54.8698 9.5039 54.1879 9.78091 53.6094 10.3379C53.0309 10.8948 52.7446 11.6139 52.7446 12.5009C52.7446 13.3879 53.0339 14.107 53.6094 14.6639C54.185 15.2209 54.8698 15.4949 55.6608 15.4949C56.499 15.4949 57.1986 15.215 57.7594 14.658C58.1224 14.2926 58.332 13.7887 58.3881 13.1404H55.6608V12.2386H59.3001C59.3385 12.4331 59.3562 12.6217 59.3562 12.8044Z" fill="#010202"/>
<path fill-rule="evenodd" clip-rule="evenodd" d="M59.3562 12.8044C59.3562 13.8535 59.0463 14.6845 58.4235 15.3093C57.7151 16.049 56.7972 16.4173 55.6637 16.4173C54.5805 16.4173 53.6566 16.0431 52.901 15.2916C52.1395 14.5431 51.7617 13.6089 51.7617 12.5009C51.7617 11.3899 52.1395 10.4587 52.901 9.71019C53.6566 8.96168 54.5805 8.58447 55.6637 8.58447C56.2009 8.58447 56.7175 8.69056 57.2045 8.89684C57.6944 9.10607 58.087 9.38603 58.3792 9.73376L57.7181 10.3939C57.2222 9.80154 56.5374 9.5039 55.6608 9.5039C54.8698 9.5039 54.1879 9.78091 53.6094 10.3379C53.0309 10.8948 52.7446 11.6139 52.7446 12.5009C52.7446 13.3879 53.0339 14.107 53.6094 14.6639C54.185 15.2209 54.8698 15.4949 55.6608 15.4949C56.499 15.4949 57.1986 15.215 57.7594 14.658C58.1224 14.2926 58.332 13.7887 58.3881 13.1404H55.6608V12.2386H59.3001C59.3385 12.4331 59.3562 12.6217 59.3562 12.8044Z" stroke="#010202" stroke-width="0.70529"/>
<path fill-rule="evenodd" clip-rule="evenodd" d="M65.1283 9.67187H61.7074V12.05H64.7888V12.9518H61.7074V15.3299H65.1283V16.2523H60.7422V8.75244H65.1283V9.67187Z" fill="#010202"/>
<path fill-rule="evenodd" clip-rule="evenodd" d="M65.1283 9.67187H61.7074V12.05H64.7888V12.9518H61.7074V15.3299H65.1283V16.2523H60.7422V8.75244H65.1283V9.67187Z" stroke="#010202" stroke-width="0.70529"/>
<path fill-rule="evenodd" clip-rule="evenodd" d="M69.1946 16.2489H68.2295V9.6714H66.1309V8.74902H71.2932V9.6714H69.1946V16.2489Z" fill="#010202"/>
<path fill-rule="evenodd" clip-rule="evenodd" d="M69.1946 16.2489H68.2295V9.6714H66.1309V8.74902H71.2932V9.6714H69.1946V16.2489Z" stroke="#010202" stroke-width="0.70529"/>
<path fill-rule="evenodd" clip-rule="evenodd" d="M75.0264 16.2489H75.9915V8.74902H75.0264V16.2489Z" fill="#010202"/>
<path fill-rule="evenodd" clip-rule="evenodd" d="M75.0264 16.2489H75.9915V8.74902H75.0264V16.2489Z" stroke="#010202" stroke-width="0.70529"/>
<path fill-rule="evenodd" clip-rule="evenodd" d="M80.2737 16.2489H79.3086V9.6714H77.21V8.74902H82.3723V9.6714H80.2737V16.2489Z" fill="#010202"/>
<path fill-rule="evenodd" clip-rule="evenodd" d="M80.2737 16.2489H79.3086V9.6714H77.21V8.74902H82.3723V9.6714H80.2737V16.2489Z" stroke="#010202" stroke-width="0.70529"/>
<path fill-rule="evenodd" clip-rule="evenodd" d="M87.3465 14.6522C87.9014 15.215 88.5832 15.495 89.389 15.495C90.1919 15.495 90.8707 15.215 91.4286 14.6522C91.9835 14.0893 92.2639 13.3732 92.2639 12.5009C92.2639 11.6286 91.9835 10.9096 91.4286 10.3497C90.8737 9.78682 90.1919 9.50687 89.389 9.50687C88.5832 9.50687 87.9044 9.78977 87.3495 10.3497C86.7946 10.9096 86.5142 11.6286 86.5142 12.5009C86.5142 13.3732 86.7916 14.0893 87.3465 14.6522ZM92.1429 15.2798C91.402 16.0401 90.487 16.4173 89.389 16.4173C88.291 16.4173 87.3731 16.0401 86.6352 15.2798C85.8973 14.5225 85.5283 13.5972 85.5283 12.5009C85.5283 11.4047 85.8973 10.4764 86.6352 9.71905C87.3731 8.96169 88.2881 8.58154 89.3861 8.58154C90.4782 8.58154 91.3932 8.96169 92.134 9.72199C92.8749 10.4823 93.2439 11.4076 93.2439 12.498C93.2497 13.5972 92.8808 14.5225 92.1429 15.2798Z" fill="#010202"/>
<path fill-rule="evenodd" clip-rule="evenodd" d="M87.3465 14.6522C87.9014 15.215 88.5832 15.495 89.389 15.495C90.1919 15.495 90.8707 15.215 91.4286 14.6522C91.9835 14.0893 92.2639 13.3732 92.2639 12.5009C92.2639 11.6286 91.9835 10.9096 91.4286 10.3497C90.8737 9.78682 90.1919 9.50687 89.389 9.50687C88.5832 9.50687 87.9044 9.78977 87.3495 10.3497C86.7946 10.9096 86.5142 11.6286 86.5142 12.5009C86.5142 13.3732 86.7916 14.0893 87.3465 14.6522ZM92.1429 15.2798C91.402 16.0401 90.487 16.4173 89.389 16.4173C88.291 16.4173 87.3731 16.0401 86.6352 15.2798C85.8973 14.5225 85.5283 13.5972 85.5283 12.5009C85.5283 11.4047 85.8973 10.4764 86.6352 9.71905C87.3731 8.96169 88.2881 8.58154 89.3861 8.58154C90.4782 8.58154 91.3932 8.96169 92.134 9.72199C92.8749 10.4823 93.2439 11.4076 93.2439 12.498C93.2497 13.5972 92.8808 14.5225 92.1429 15.2798Z" stroke="#010202" stroke-width="0.70529"/>
<path fill-rule="evenodd" clip-rule="evenodd" d="M94.6055 16.2489V8.74902H95.7802L99.4313 14.5809H99.4727L99.4313 13.137V8.74902H100.399V16.2489H99.39L95.5706 10.1311H95.5293L95.5706 11.578V16.2489H94.6055Z" fill="#010202"/>
<path fill-rule="evenodd" clip-rule="evenodd" d="M94.6055 16.2489V8.74902H95.7802L99.4313 14.5809H99.4727L99.4313 13.137V8.74902H100.399V16.2489H99.39L95.5706 10.1311H95.5293L95.5706 11.578V16.2489H94.6055Z" stroke="#010202" stroke-width="0.70529"/>
<path d="M133.097 22.541H130.763V38.1655H133.097V22.541Z" fill="black"/>
<path d="M151.801 28.1689L149.124 34.9439H149.041L146.264 28.1689H143.746L147.914 37.6344L145.538 42.9034H147.973L154.395 28.1689H151.801Z" fill="black"/>
<path d="M138.834 27.8271C137.143 27.8271 135.392 28.5698 134.666 30.22L136.738 31.0835C137.181 30.22 138.007 29.9371 138.872 29.9371C140.079 29.9371 141.307 30.6621 141.328 31.9469V32.109C140.903 31.8673 140 31.5078 138.893 31.5078C136.656 31.5078 134.383 32.7337 134.383 35.0235C134.383 37.1158 136.216 38.4625 138.27 38.4625C139.837 38.4625 140.705 37.7582 141.248 36.9331H141.328V38.1383H143.583V32.1473C143.586 29.3743 141.511 27.8271 138.834 27.8271Z" fill="black"/>
<path d="M124.338 22.541H118.742V38.1655H121.077V32.2451H124.338C126.927 32.2451 129.471 30.3739 129.471 27.3916C129.471 24.4123 126.927 22.541 124.338 22.541Z" fill="black"/>
<path d="M96.4968 29.0416H96.4171C95.8917 28.4169 94.8823 27.8511 93.616 27.8511C90.9537 27.8511 88.5127 30.188 88.5127 33.1879C88.5127 36.1672 90.9537 38.4835 93.616 38.4835C94.8852 38.4835 95.8947 37.9206 96.4171 37.2782H96.4968V38.0414C96.4968 40.0748 95.4076 41.1622 93.6544 41.1622C92.2229 41.1622 91.3344 40.1367 90.9714 39.2703L88.9348 40.1161C89.5192 41.5247 91.0717 43.2574 93.6544 43.2574C96.3994 43.2574 98.7164 41.6455 98.7164 37.7202V28.1752H96.4968V29.0416Z" fill="black"/>
<path d="M100.33 38.1655H102.671V22.541H100.33V38.1655Z" fill="black"/>
<path d="M113.379 31.2366C112.936 30.049 111.584 27.8535 108.821 27.8535C106.079 27.8535 103.801 30.0106 103.801 33.1697C103.801 36.149 106.059 38.4859 109.084 38.4859C111.525 38.4859 112.936 36.9948 113.523 36.1284L111.708 34.9202C111.1 35.8072 110.277 36.3907 109.084 36.3907C107.895 36.3907 107.048 35.8455 106.504 34.7787L113.624 31.8377L113.379 31.2366Z" fill="black"/>
<path d="M56.6619 29.4868V31.7411H62.0692C61.9069 33.0112 61.4819 33.9366 60.8384 34.579C60.0503 35.3658 58.8195 36.2293 56.6619 36.2293C53.3325 36.2293 50.7321 33.5505 50.7321 30.2294C50.7321 26.9082 53.3354 24.2295 56.6619 24.2295C58.4565 24.2295 59.767 24.9338 60.7351 25.8385L62.329 24.2472C60.9771 22.9594 59.1826 21.9722 56.6619 21.9722C52.1046 21.9722 48.2734 25.6794 48.2734 30.2294C48.2734 34.7794 52.1046 38.4836 56.6619 38.4836C59.1235 38.4836 60.9771 37.6791 62.4293 36.1674C63.9199 34.6762 64.3862 32.5839 64.3862 30.8924C64.3862 30.3708 64.3479 29.8875 64.2652 29.4838L56.6619 29.4868Z" fill="black"/>
<path d="M27.9193 24.9959L12.7569 9.88721C12.5828 10.2379 12.4795 10.6681 12.4795 11.1897V38.8081C12.4795 39.3356 12.5857 39.7746 12.7658 40.1253L27.9193 24.9959Z" fill="black"/>
<path d="M12.8008 9.79009C12.8066 9.77525 12.8154 9.76338 12.8242 9.74854C12.8154 9.76338 12.8096 9.77821 12.8008 9.79009Z" fill="black"/>
<path d="M28.795 24.1204L33.4644 19.4584L15.6604 9.35941C15.1556 9.07062 14.6804 8.93506 14.2554 8.93506C14.0399 8.93506 13.8422 8.97337 13.6592 9.04115L28.795 24.1204Z" fill="black"/>
<path d="M40.0506 23.1948L34.5931 20.0977L29.6816 25.0013L34.5931 29.8931L40.0506 26.796C41.798 25.8087 41.798 24.185 40.0506 23.1948Z" fill="black"/>
<path d="M28.8065 25.8794L13.7031 40.9646C14.2433 41.1473 14.9192 41.0589 15.66 40.6404L33.4759 30.5296L28.8065 25.8794Z" fill="black"/>
<path d="M12.7871 40.1719C12.8579 40.3015 12.9376 40.4194 13.0291 40.5196C12.9376 40.4135 12.852 40.3015 12.7871 40.1719Z" fill="black"/>
<path d="M70.5272 29.9492C68.9156 29.9492 67.5225 31.2576 67.5225 33.1702C67.5225 35.0621 68.9127 36.3941 70.5272 36.3941C72.1417 36.3941 73.5319 35.065 73.5319 33.1702C73.5319 31.2576 72.1417 29.9492 70.5272 29.9492Z" fill="white"/>
<path d="M85.1921 33.1702C85.1921 31.2576 83.8019 29.9492 82.1873 29.9492C80.5758 29.9492 79.1826 31.2576 79.1826 33.1702C79.1826 35.0621 80.5728 36.3941 82.1873 36.3941C83.8019 36.3941 85.1921 35.0621 85.1921 33.1702Z" fill="white"/>
<path fill-rule="evenodd" clip-rule="evenodd" d="M93.8169 36.3941C92.2054 36.3941 90.8535 35.0444 90.8535 33.1937C90.8535 31.3195 92.2054 29.9521 93.8199 29.9521C95.4108 29.9521 96.6623 31.3225 96.6623 33.1937C96.6593 35.0444 95.4078 36.3911 93.8169 36.3941Z" fill="#FBFBFB"/>
<path fill-rule="evenodd" clip-rule="evenodd" d="M124.399 30.0712H121.075V24.7158H124.399C126.146 24.7158 127.138 26.16 127.138 27.392C127.135 28.6034 126.143 30.0712 124.399 30.0712Z" fill="white"/>
<path fill-rule="evenodd" clip-rule="evenodd" d="M106.119 33.0118C106.06 30.9575 107.713 29.9111 108.905 29.9111C109.832 29.9111 110.62 30.3768 110.88 31.04L106.119 33.0118Z" fill="white"/>
<path fill-rule="evenodd" clip-rule="evenodd" d="M138.551 36.3905C137.786 36.3905 136.718 36.0075 136.718 35.0646C136.718 33.8596 138.046 33.397 139.194 33.397C140.218 33.397 140.705 33.618 141.328 33.9185C141.148 35.3652 139.9 36.3905 138.551 36.3905Z" fill="#FBFBFB"/>
</g>
<defs>
<clipPath id="clip0_7366_9616">
<rect width="169" height="50" fill="white"/>
</clipPath>
</defs>
</svg>
