<svg width="60" height="60" viewBox="0 0 60 60" fill="none" xmlns="http://www.w3.org/2000/svg">
<path d="M49.6289 5H10.3711C7.40947 5 5 7.40947 5 10.3711V16.7188H55V10.3711C55 7.40947 52.5905 5 49.6289 5ZM35.8594 12.3242C35.0504 12.3242 34.3945 11.6684 34.3945 10.8594C34.3945 10.0504 35.0504 9.39453 35.8594 9.39453C36.6684 9.39453 37.3242 10.0504 37.3242 10.8594C37.3242 11.6684 36.6684 12.3242 35.8594 12.3242ZM41.7188 12.3242C40.9098 12.3242 40.2539 11.6684 40.2539 10.8594C40.2539 10.0504 40.9098 9.39453 41.7188 9.39453C42.5277 9.39453 43.1836 10.0504 43.1836 10.8594C43.1836 11.6684 42.5277 12.3242 41.7188 12.3242ZM47.5781 12.3242C46.7691 12.3242 46.1133 11.6684 46.1133 10.8594C46.1133 10.0504 46.7691 9.39453 47.5781 9.39453C48.3871 9.39453 49.043 10.0504 49.043 10.8594C49.043 11.6684 48.3871 12.3242 47.5781 12.3242ZM5 19.6484V49.6289C5 52.5905 7.40947 55 10.3711 55H49.6289C52.5905 55 55 52.5905 55 49.6289V19.6484H5ZM40.9527 26.3379C44.9913 26.3379 48.277 29.6235 48.277 33.6621C48.277 37.7007 44.9913 40.9863 40.9527 40.9863C36.9142 40.9863 33.6285 37.7007 33.6285 33.6621C33.6285 29.6235 36.9142 26.3379 40.9527 26.3379ZM24.4256 27.8027C24.4256 26.9937 25.0814 26.3379 25.8904 26.3379H30.8282C31.6372 26.3379 32.2931 26.9937 32.2931 27.8027C32.2931 28.6117 31.6372 29.2676 30.8282 29.2676H27.3553V32.1973H30.4642C31.2731 32.1973 31.929 32.8531 31.929 33.6621C31.929 34.4711 31.2731 35.127 30.4642 35.127H27.3553V38.0566H30.8282C31.6372 38.0566 32.2931 38.7125 32.2931 39.5215C32.2931 40.3305 31.6372 40.9863 30.8282 40.9863H25.8904C25.0814 40.9863 24.4256 40.3305 24.4256 39.5215V27.8027ZM12.2042 36.7028C12.8037 36.1598 13.7301 36.2051 14.2733 36.8047C14.9837 37.5886 16.1012 38.0566 17.2623 38.0566C18.3904 38.0566 19.1851 37.3821 19.3015 36.73C19.4562 35.8633 18.2824 35.3307 17.7706 35.1418C15.9571 34.4729 14.3468 33.7562 14.2792 33.7259C14.2087 33.6944 14.1408 33.6574 14.0761 33.6152C12.8422 32.8108 12.2063 31.3999 12.4169 29.9333C12.6412 28.3702 13.7841 27.097 15.3995 26.6104C18.3874 25.7104 21.1196 27.2812 21.686 28.3405C22.0675 29.054 21.7983 29.9416 21.0849 30.323C20.44 30.6676 19.6529 30.4811 19.2259 29.9151C18.931 29.6654 17.727 28.9689 16.2445 29.4155C15.4959 29.6411 15.3464 30.1439 15.3168 30.3496C15.2956 30.4976 15.2849 30.8522 15.6015 31.1071C16.0123 31.287 17.3489 31.8637 18.7845 32.3932C21.7364 33.4819 22.4769 35.6134 22.1855 37.2449C21.7984 39.4129 19.7278 40.9864 17.2622 40.9864C15.2878 40.9864 13.3588 40.1586 12.1022 38.772C11.5592 38.1725 11.6048 37.2461 12.2042 36.7028ZM47.5781 48.3105H12.4219C11.6129 48.3105 10.957 47.6547 10.957 46.8457C10.957 46.0367 11.6129 45.3809 12.4219 45.3809H47.5781C48.3871 45.3809 49.043 46.0367 49.043 46.8457C49.043 47.6547 48.3871 48.3105 47.5781 48.3105Z" fill="white"/>
<path d="M40.9521 38.0566C43.3792 38.0566 45.3467 36.0891 45.3467 33.6621C45.3467 31.2351 43.3792 29.2676 40.9521 29.2676C38.5251 29.2676 36.5576 31.2351 36.5576 33.6621C36.5576 36.0891 38.5251 38.0566 40.9521 38.0566Z" fill="white"/>
</svg>
