<svg width="60" height="60" viewBox="0 0 60 60" fill="none" xmlns="http://www.w3.org/2000/svg">
<path d="M48.7266 10.5H11.2734C10.4389 10.5014 9.63889 10.8336 9.04875 11.4238C8.45862 12.0139 8.12645 12.8139 8.125 13.6484V34.2266H51.875V13.6484C51.8736 12.8139 51.5414 12.0139 50.9512 11.4238C50.3611 10.8336 49.5611 10.5014 48.7266 10.5ZM20.5078 24.8516C20.4344 28.9672 14.0664 28.9836 13.9922 24.8594V19.875C13.9922 19.6678 14.0745 19.4691 14.221 19.3226C14.3675 19.1761 14.5662 19.0938 14.7734 19.0938C14.9806 19.0938 15.1794 19.1761 15.3259 19.3226C15.4724 19.4691 15.5547 19.6678 15.5547 19.875V24.8594C15.5484 26.9062 18.9531 26.9 18.9453 24.8516V19.8516C18.9453 19.6444 19.0276 19.4456 19.1741 19.2991C19.3206 19.1526 19.5194 19.0703 19.7266 19.0703C19.9338 19.0703 20.1325 19.1526 20.279 19.2991C20.4255 19.4456 20.5078 19.6444 20.5078 19.8516V24.8516ZM28.1875 20.3047L25.7656 23.6484L27.8516 26.7266C27.9676 26.8985 28.0106 27.1096 27.971 27.3132C27.9314 27.5169 27.8126 27.6965 27.6406 27.8125C27.4686 27.9285 27.2576 27.9715 27.054 27.9319C26.8503 27.8924 26.6707 27.7735 26.5547 27.6016L24.7891 24.9922L22.8828 27.625C22.7601 27.7922 22.5762 27.904 22.3713 27.9362C22.1665 27.9684 21.9572 27.9183 21.7891 27.7969C21.7054 27.7367 21.6346 27.6606 21.5806 27.5729C21.5266 27.4852 21.4906 27.3876 21.4746 27.2859C21.4586 27.1842 21.463 27.0803 21.4875 26.9802C21.512 26.8802 21.556 26.786 21.6172 26.7031L23.8594 23.6172L21.6016 20.2891C21.4845 20.1171 21.4405 19.9056 21.4794 19.7013C21.5182 19.4969 21.6366 19.3163 21.8086 19.1992C21.9806 19.0821 22.192 19.0382 22.3964 19.077C22.6008 19.1158 22.7814 19.2343 22.8984 19.4062L24.8359 22.2656L26.9219 19.3906C27.0465 19.2321 27.2277 19.1279 27.4274 19.0999C27.6271 19.0719 27.8299 19.1222 27.9934 19.2402C28.1569 19.3583 28.2684 19.535 28.3045 19.7334C28.3407 19.9318 28.2988 20.1365 28.1875 20.3047ZM35.5625 17.9062L29.8438 29.8828C29.7535 30.0685 29.5936 30.2109 29.3988 30.2793C29.2041 30.3476 28.9902 30.3362 28.8037 30.2477C28.6173 30.1591 28.4734 30.0004 28.4034 29.8063C28.3333 29.6121 28.3428 29.3982 28.4297 29.2109L34.1484 17.2344C34.2387 17.0487 34.3986 16.9062 34.5933 16.8379C34.7881 16.7696 35.002 16.7809 35.1884 16.8695C35.3749 16.9581 35.5188 17.1167 35.5888 17.3109C35.6589 17.5051 35.6494 17.719 35.5625 17.9062ZM43.0156 24.8516C42.9422 28.9672 36.5742 28.9836 36.5 24.8594V19.875C36.5 19.6678 36.5823 19.4691 36.7288 19.3226C36.8753 19.1761 37.074 19.0938 37.2812 19.0938C37.4885 19.0938 37.6872 19.1761 37.8337 19.3226C37.9802 19.4691 38.0625 19.6678 38.0625 19.875V24.8594C38.0625 26.9062 41.4609 26.8992 41.4531 24.8516V19.8516C41.4531 19.6444 41.5354 19.4456 41.6819 19.2991C41.8285 19.1526 42.0272 19.0703 42.2344 19.0703C42.4416 19.0703 42.6403 19.1526 42.7868 19.2991C42.9333 19.4456 43.0156 19.6444 43.0156 19.8516V24.8516ZM46.0078 27.1641C46.0078 27.3713 45.9255 27.57 45.779 27.7165C45.6325 27.863 45.4338 27.9453 45.2266 27.9453C45.0194 27.9453 44.8206 27.863 44.6741 27.7165C44.5276 27.57 44.4453 27.3713 44.4453 27.1641V19.8516C44.4453 19.6444 44.5276 19.4456 44.6741 19.2991C44.8206 19.1526 45.0194 19.0703 45.2266 19.0703C45.4338 19.0703 45.6325 19.1526 45.779 19.2991C45.9255 19.4456 46.0078 19.6444 46.0078 19.8516V27.1641ZM9.6875 35.7891H8.125V37.9141C8.12645 38.7486 8.45862 39.5486 9.04875 40.1387C9.63889 40.7289 10.4389 41.0611 11.2734 41.0625H26.5781C26.6641 42.9219 23.5547 46.1875 21.0859 48.1016C20.956 48.2006 20.8605 48.3379 20.8129 48.4942C20.7653 48.6505 20.7681 48.8177 20.8207 48.9724C20.8734 49.127 20.9734 49.2611 21.1065 49.3558C21.2396 49.4505 21.3991 49.5009 21.5625 49.5H38.4375C38.6016 49.4958 38.7602 49.4406 38.8915 49.3421C39.0227 49.2435 39.12 49.1066 39.1698 48.9502C39.2197 48.7939 39.2195 48.6259 39.1695 48.4696C39.1195 48.3133 39.022 48.1765 38.8906 48.0781C38.8359 48.0391 34.0078 44.5625 33.6172 41.0625H48.7266C49.5611 41.0611 50.3611 40.7289 50.9512 40.1387C51.5414 39.5486 51.8736 38.7486 51.875 37.9141V35.7891H9.6875ZM28.0312 36.6406H31.7344C31.9416 36.6406 32.1403 36.7229 32.2868 36.8694C32.4333 37.016 32.5156 37.2147 32.5156 37.4219C32.5156 37.6291 32.4333 37.8278 32.2868 37.9743C32.1403 38.1208 31.9416 38.2031 31.7344 38.2031H28.0312C27.824 38.2031 27.6253 38.1208 27.4788 37.9743C27.3323 37.8278 27.25 37.6291 27.25 37.4219C27.25 37.2147 27.3323 37.016 27.4788 36.8694C27.6253 36.7229 27.824 36.6406 28.0312 36.6406Z" fill="#0075F2"/>
</svg>
