<svg width="60" height="60" viewBox="0 0 60 60" fill="none" xmlns="http://www.w3.org/2000/svg">
<path fill-rule="evenodd" clip-rule="evenodd" d="M45.9427 43.8342L39.2701 39.9546C37.9735 39.2007 36.3005 39.6498 35.5523 40.9569L35.2891 41.4169C34.6224 42.5818 33.5967 43.324 32.2892 43.5938C30.9869 43.8625 29.7448 43.5812 28.6815 42.7779C26.4991 41.1289 24.4374 39.3081 22.5085 37.3654C20.58 35.4231 18.7722 33.347 17.1353 31.1491C16.3376 30.0779 16.0574 28.827 16.3242 27.5149C16.592 26.1983 17.3307 25.1668 18.4864 24.4949L18.9428 24.2298C19.5757 23.8619 20.0187 23.2735 20.208 22.5633C20.3964 21.8562 20.3028 21.1198 19.9392 20.4856L16.0867 13.7654C15.4026 12.572 13.991 12.0984 12.721 12.5893L12.6381 12.6214C11.3291 13.1271 7.72137 14.4543 6.75184 15.4308C3.88475 18.3185 5.11151 23.5425 6.39061 26.8668C8.63075 32.6888 12.8801 38.2924 17.2348 42.6777C21.5889 47.0624 27.1524 51.3434 32.9325 53.5994C34.938 54.3821 37.1947 55 39.3597 55C41.1716 55 42.9751 54.5582 44.2883 53.2356C45.2125 52.3048 46.5833 48.5575 47.0856 47.285L47.118 47.203C47.6193 45.9327 47.1145 44.5155 45.9427 43.8342ZM43.8874 17.4718C44.1953 17.5831 44.4615 17.7874 44.6497 18.0568C44.8379 18.3262 44.939 18.6476 44.939 18.977V26.629H45.2348C46.1108 26.629 46.8223 27.3456 46.8223 28.2279C46.8223 29.1112 46.1118 29.8267 45.2348 29.8267H44.939V31.5967C44.939 32.4801 44.2276 33.1951 43.3515 33.1951C42.4749 33.1951 41.7645 32.4801 41.7645 31.5967V29.8267H35.7921C35.4913 29.8267 35.1967 29.7407 34.9426 29.5786C34.6885 29.4166 34.4853 29.1852 34.3566 28.9114C34.2282 28.6374 34.1797 28.3323 34.2167 28.0316C34.2537 27.7309 34.3748 27.447 34.5658 27.213L42.1253 17.9606C42.3333 17.7063 42.6142 17.523 42.9296 17.4355C43.245 17.348 43.5795 17.3607 43.8874 17.4718ZM41.7645 26.6291H39.1548L41.7645 23.4357V26.6291ZM31.0052 23.4724C31.2968 22.3963 31.1255 21.5949 30.4932 21.091C29.7579 20.5056 28.5336 20.4018 27.7052 20.8562C27.1089 21.1834 26.8566 21.7348 26.9329 22.5432C27.0176 23.4223 26.3783 24.2038 25.5055 24.2877C24.6321 24.373 23.8576 23.7282 23.7733 22.8501C23.5725 20.7492 24.4519 18.9985 26.1859 18.0473C28.1408 16.9764 30.7225 17.1961 32.4635 18.5842C34.1137 19.8988 34.6987 21.9884 34.0679 24.3146C33.6383 25.8997 32.1518 27.0669 30.5797 28.3037C29.9086 28.8307 29.1953 29.3912 28.5485 29.9979H33.1613C34.038 29.9979 34.7484 30.7143 34.7484 31.5967C34.7484 32.4801 34.038 33.1951 33.1613 33.1951H25.3169C25.0479 33.1952 24.7834 33.1265 24.548 32.9954C24.3127 32.8643 24.1142 32.6751 23.9714 32.4456C23.8286 32.216 23.7461 31.9537 23.7316 31.6831C23.7171 31.4126 23.7711 31.1428 23.8886 30.8991C24.9687 28.6578 26.9967 27.0636 28.6259 25.7829C29.618 25.0025 30.853 24.0319 31.0052 23.4724ZM55 25.823C55 31.3847 52.849 36.613 48.9443 40.5461C48.797 40.6947 48.6219 40.8126 48.4293 40.893C48.2366 40.9734 48.0301 41.0148 47.8216 41.0147C47.6131 41.0148 47.4067 40.9734 47.2141 40.893C47.0215 40.8126 46.8466 40.6947 46.6993 40.5461C46.0792 39.9216 46.0792 38.909 46.6993 38.2845C50.004 34.9562 51.825 30.5301 51.825 25.823C51.825 16.1039 43.9749 8.1977 34.3248 8.1977C29.6507 8.1977 25.2564 10.0313 21.9514 13.3596C21.3312 13.9842 20.3264 13.9842 19.7062 13.3596C19.0861 12.7351 19.0861 11.723 19.7062 11.0985C23.6114 7.16636 28.8026 5 34.3248 5C45.7248 5.0001 55 14.3411 55 25.823Z" fill="white"/>
</svg>
