<svg width="710" height="710" viewBox="0 0 710 710" fill="none" xmlns="http://www.w3.org/2000/svg">
<g style="mix-blend-mode:multiply" opacity="0.3">
<path d="M493.646 375.609L178.769 557.413L178.581 557.447L147.894 563.939C143.993 563.24 140.261 565.847 139.562 569.749C138.864 573.651 141.471 577.383 145.373 578.081L180.609 570.635L318.01 649.968L298.058 654.194C294.156 653.495 290.424 656.102 289.726 660.004C289.027 663.906 291.634 667.637 295.536 668.336L335.27 659.936L346.584 666.462V666.564L419.153 623.251C418.965 625.023 418.897 626.812 418.999 628.618C420.516 655.795 456.008 675.901 498.247 673.55C540.486 671.181 573.507 647.242 571.991 620.065C570.594 595.069 540.452 576.054 502.745 575.014L661.615 484.708V472.713L661.683 472.662L493.629 375.643L493.646 375.609Z" fill="#828BA4"/>
</g>
<g opacity="0.8">
<path d="M240.738 207.078L121.466 277.465L120.035 276.75V189.647L240.738 119.958L242.135 120.691L240.738 207.078Z" fill="#454C61"/>
<path d="M242.169 207.793L121.466 277.465V190.363L242.169 120.691V207.793Z" fill="#30384F"/>
<path d="M132.797 199.888L129.44 201.83V199.087L132.797 197.145V199.888Z" fill="white"/>
<path d="M181.903 171.552L136.546 197.741V194.98L181.903 168.809V171.552Z" fill="#F5D533"/>
<path d="M132.797 206.328L129.44 208.271V205.527L132.797 203.585V206.328Z" fill="white"/>
<path d="M157.487 192.084L136.546 204.182V201.438L157.487 189.341V192.084Z" fill="#F5D533"/>
<path d="M132.797 212.769L129.44 214.711V211.968L132.797 210.026V212.769Z" fill="white"/>
<path d="M168.34 192.271L136.546 210.622V207.879L168.34 189.511V192.271Z" fill="#F5D533"/>
<path d="M132.797 219.21L129.44 221.152V218.409L132.797 216.466V219.21Z" fill="white"/>
<path d="M174.491 195.151L136.546 217.063V214.32L174.491 192.408V195.151Z" fill="#F5D533"/>
<path d="M132.797 228.581L129.44 230.523V227.78L132.797 225.837V228.581Z" fill="white"/>
<path d="M160.571 212.547L136.546 226.434V223.674L160.571 209.804V212.547Z" fill="#FF6469"/>
<path d="M132.797 235.022L129.44 236.964V234.221L132.797 232.278V235.022Z" fill="white"/>
<path d="M180.642 207.402L136.546 232.875V230.114L180.642 204.658V207.402Z" fill="#FF6469"/>
<path d="M132.797 241.462L129.44 243.405V240.661L132.797 238.719V241.462Z" fill="white"/>
<path d="M153.926 229.28L136.546 239.316V236.555L153.926 226.536V229.28Z" fill="#FF6469"/>
<path d="M132.797 247.903L129.44 249.845V247.102L132.797 245.16V247.903Z" fill="white"/>
<path d="M167.642 227.797L136.546 245.756V242.996L167.642 225.054V227.797Z" fill="#FF6469"/>
<path d="M204.29 157.972L206.846 156.49V154.394L204.29 155.876V157.972Z" fill="white"/>
<path d="M227.515 142.467L209.692 152.758V154.854L227.515 144.563V142.467Z" fill="white"/>
<path d="M204.29 162.879L206.846 161.414V159.318L204.29 160.8V162.879Z" fill="white"/>
<path d="M217.922 152.912L209.692 157.665V159.761L217.922 155.007V152.912Z" fill="white"/>
<path d="M204.29 167.804L206.846 166.321V164.226L204.29 165.708V167.804Z" fill="white"/>
<path d="M222.182 155.382L209.692 162.573V164.668L222.182 157.461V155.382Z" fill="white"/>
<path d="M204.29 172.711L206.846 171.228V169.133L204.29 170.615V172.711Z" fill="white"/>
<path d="M224.601 158.892L209.692 167.497V169.592L224.601 160.988V158.892Z" fill="white"/>
<path d="M204.29 179.85L206.846 178.385V176.289L204.29 177.755V179.85Z" fill="white"/>
<path d="M221.313 167.94L209.692 174.636V176.732L221.313 170.036V167.94Z" fill="white"/>
<path d="M204.29 184.774L206.846 183.292V181.196L204.29 182.678V184.774Z" fill="white"/>
<path d="M209.692 179.543V181.639L231.008 169.337V167.241L209.692 179.543Z" fill="white"/>
<path d="M204.29 189.682L206.846 188.199V186.104L204.29 187.586V189.682Z" fill="white"/>
<path d="M218.093 179.612L209.692 184.468V186.563L218.093 181.707V179.612Z" fill="white"/>
<path d="M204.29 194.588L206.846 193.123V191.027L204.29 192.493V194.588Z" fill="white"/>
<path d="M209.692 191.47L224.721 182.798V180.702L209.692 189.375V191.47Z" fill="white"/>
</g>
<g opacity="0.8">
<path d="M305.69 205.169L186.436 275.557L184.987 274.841V187.739L305.69 118.067L307.105 118.783L305.69 205.169Z" fill="#666666"/>
<path d="M307.193 206.004L186.49 275.676V188.573L307.193 118.902V206.004Z" fill="#B8DFFB"/>
<path d="M284.873 196.292L208.812 240.201V199.495L284.873 155.586V196.292Z" fill="#E4E2DF"/>
<path d="M278.737 168.877L214.961 205.698V203.943L278.737 167.122V168.877Z" fill="white"/>
<path d="M278.737 175.028L214.961 211.849V210.094L278.737 173.273V175.028Z" fill="white"/>
<path d="M278.737 181.179L214.961 217.982V216.227L278.737 179.424V181.179Z" fill="white"/>
<path d="M307.193 127.302L186.49 196.974V188.573L307.193 118.902V127.302Z" fill="#E4E2DF"/>
</g>
<path d="M326.849 84.5859C325.502 86.9203 324.685 89.5272 324.685 91.8956V132.499C324.685 137.253 334.448 143.932 338.554 141.564L370.706 118.204C372.802 116.994 374.694 114.898 376.057 112.496C360.858 103.891 342.916 91.8956 326.866 84.5859H326.849Z" fill="#F5D533"/>
<path d="M370.69 118.203L338.538 141.564C334.431 143.932 324.668 137.253 324.668 132.499V91.8954C324.668 87.1415 327.991 81.3824 332.114 78.997L367.282 58.7037C371.388 56.3353 381.646 61.2084 381.697 65.417L378.136 105.305C378.136 110.059 374.796 115.818 370.69 118.203Z" fill="#E4E2DF"/>
<path d="M326.849 84.5859C325.502 86.9203 324.685 89.5272 324.685 91.8956V132.499C324.685 137.253 334.448 143.932 338.554 141.564L370.706 118.204C372.802 116.994 374.694 114.898 376.057 112.496C360.858 103.891 342.916 91.8956 326.866 84.5859H326.849Z" fill="#E4E2DF"/>
<g style="mix-blend-mode:multiply">
<path d="M326.849 84.5859C325.502 86.9203 324.685 89.5272 324.685 91.8956V132.499C324.685 137.253 334.448 143.932 338.554 141.564L370.706 118.204C372.802 116.994 374.694 114.898 376.057 112.496C360.858 103.891 342.916 91.8956 326.866 84.5859H326.849Z" fill="#E4E2DF"/>
</g>
<path d="M374.643 120.844L339.475 141.137C335.369 143.506 332.029 141.58 332.029 136.844V96.2401C332.029 91.4863 335.352 85.7272 339.475 83.3417L374.643 63.0485C378.75 60.6801 382.089 62.6055 382.089 67.3423V107.946C382.089 112.7 378.767 118.459 374.643 120.844Z" fill="white"/>
<path d="M351.61 109.161L340.501 108.962C340.106 108.963 339.815 108.802 339.627 108.477C339.472 108.208 339.478 107.875 339.644 107.478L345.026 97.7578C345.221 97.4756 345.489 97.3206 345.831 97.2928C346.179 97.2427 346.447 97.3801 346.635 97.7051C346.822 98.0301 346.831 98.3549 346.66 98.6795L341.462 107.983L340.936 107.072L351.604 107.243C351.979 107.271 352.252 107.434 352.423 107.731C352.553 107.957 352.589 108.181 352.529 108.404C352.484 108.619 352.374 108.805 352.201 108.961C352.041 109.11 351.844 109.176 351.61 109.161ZM357.286 110.434C356.99 110.605 356.687 110.62 356.379 110.477C356.093 110.341 355.924 110.081 355.872 109.696L352.945 89.2573C352.912 89.0693 352.942 88.892 353.034 88.7257C353.126 88.5593 353.257 88.4272 353.427 88.3293C353.738 88.1498 354.037 88.1464 354.325 88.3192C354.605 88.4778 354.777 88.727 354.842 89.0667L357.78 109.527C357.808 109.737 357.771 109.918 357.67 110.071C357.57 110.223 357.442 110.344 357.286 110.434ZM365.676 101.04C365.571 101.251 365.408 101.392 365.186 101.464C364.978 101.528 364.762 101.53 364.539 101.47C364.33 101.402 364.161 101.255 364.03 101.029C363.859 100.732 363.855 100.415 364.017 100.076L369.224 90.7392L369.75 91.6506L359.073 91.5129C358.707 91.4984 358.43 91.3286 358.242 91.0036C358.054 90.6786 358.062 90.3821 358.265 90.114C358.475 89.8237 358.75 89.6646 359.092 89.6368L370.201 89.8362C370.628 89.891 370.919 90.0526 371.074 90.3211C371.262 90.6461 371.256 90.979 371.057 91.3199L365.676 101.04Z" fill="#0075F2"/>
<path style="mix-blend-mode:overlay" opacity="0.7" d="M382.089 78.1791V67.3424C382.089 62.5886 378.75 60.6802 374.643 63.0486L339.475 83.3419C335.369 85.7103 332.029 91.4864 332.029 96.2403V124.917C346.137 104.112 363.636 87.2778 382.072 78.1791H382.089Z" fill="url(#paint0_linear_7366_9137)"/>
<path d="M143.667 150.645L111.515 174.006C107.409 176.374 97.6455 169.695 97.6455 164.941V124.338C97.6455 119.584 100.968 113.825 105.091 111.439L140.26 91.1459C144.366 88.7775 154.623 93.6506 154.674 97.8592L151.113 137.747C151.113 142.501 147.774 148.26 143.667 150.645Z" fill="#444444"/>
<path d="M99.826 117.028C98.48 119.362 97.6621 121.969 97.6621 124.338V164.941C97.6621 169.695 107.425 176.374 111.532 174.006L143.684 150.646C145.78 149.436 147.671 147.34 149.034 144.938C133.836 136.333 115.894 124.338 99.8431 117.028H99.826Z" fill="#E4E2DF"/>
<path d="M99.826 117.028C98.48 119.362 97.6621 121.969 97.6621 124.338V164.941C97.6621 169.695 107.425 176.374 111.532 174.006L143.684 150.646C145.78 149.436 147.671 147.34 149.034 144.938C133.836 136.333 115.894 124.338 99.8431 117.028H99.826Z" fill="#E4E2DF"/>
<g style="mix-blend-mode:multiply">
<path d="M99.826 117.028C98.48 119.362 97.6621 121.969 97.6621 124.338V164.941C97.6621 169.695 107.425 176.374 111.532 174.006L143.684 150.646C145.78 149.436 147.671 147.34 149.034 144.938C133.836 136.333 115.894 124.338 99.8431 117.028H99.826Z" fill="#444444"/>
</g>
<path d="M147.621 153.269L112.453 173.563C108.346 175.931 105.007 174.006 105.007 169.269V128.665C105.007 123.911 108.329 118.152 112.453 115.767L147.621 95.4735C151.727 93.1051 155.067 95.0305 155.067 99.7673V140.371C155.067 145.125 151.744 150.884 147.621 153.269Z" fill="#E4E2DF"/>
<path d="M127.012 144.727C125.068 145.849 123.534 145.438 122.412 143.494L120.005 139.325C119.584 138.597 119.017 138.44 118.301 138.853C118.038 139.005 117.77 139.049 117.494 138.985C117.231 138.915 117.023 138.748 116.872 138.486C116.713 138.211 116.67 137.942 116.74 137.679C116.823 137.409 116.995 137.198 117.257 137.046C117.973 136.633 118.121 136.063 117.701 135.335L115.294 131.166C114.171 129.222 114.582 127.688 116.527 126.566C116.789 126.414 117.055 126.38 117.326 126.462C117.596 126.545 117.807 126.717 117.958 126.98C118.11 127.242 118.15 127.505 118.08 127.768C118.009 128.032 117.843 128.239 117.58 128.391C116.853 128.811 116.699 129.385 117.119 130.112L119.526 134.281C119.767 134.699 119.936 135.102 120.034 135.491C120.131 135.88 120.157 136.255 120.11 136.616C120.774 136.885 121.348 137.436 121.83 138.271L124.237 142.44C124.657 143.168 125.231 143.322 125.958 142.902C126.221 142.75 126.484 142.71 126.747 142.78C127.01 142.851 127.221 143.023 127.38 143.298C127.531 143.56 127.572 143.823 127.501 144.086C127.437 144.362 127.274 144.575 127.012 144.727ZM128.332 138.764C127.998 138.957 127.637 139.006 127.248 138.912C126.865 138.8 126.577 138.576 126.384 138.242C126.185 137.896 126.135 137.535 126.236 137.159C126.342 136.764 126.562 136.47 126.896 136.277C127.242 136.077 127.606 136.034 127.989 136.146C128.366 136.247 128.654 136.471 128.853 136.817C129.046 137.151 129.096 137.512 129.002 137.9C128.901 138.276 128.678 138.564 128.332 138.764ZM132.595 136.302C132.261 136.495 131.9 136.545 131.512 136.451C131.129 136.338 130.841 136.115 130.648 135.781C130.448 135.435 130.399 135.074 130.499 134.697C130.605 134.302 130.825 134.008 131.159 133.815C131.505 133.616 131.87 133.572 132.253 133.685C132.629 133.786 132.917 134.009 133.117 134.355C133.31 134.689 133.359 135.05 133.265 135.438C133.164 135.815 132.941 136.103 132.595 136.302ZM136.859 133.841C136.525 134.034 136.163 134.083 135.775 133.989C135.392 133.877 135.104 133.653 134.911 133.319C134.711 132.973 134.662 132.612 134.763 132.236C134.869 131.841 135.089 131.547 135.423 131.354C135.769 131.154 136.133 131.111 136.516 131.223C136.893 131.324 137.181 131.548 137.38 131.894C137.573 132.228 137.623 132.589 137.529 132.977C137.428 133.353 137.205 133.641 136.859 133.841ZM142.694 135.673C142.432 135.824 142.165 135.859 141.895 135.776C141.632 135.705 141.424 135.539 141.273 135.277C141.114 135.002 141.07 134.733 141.141 134.47C141.212 134.206 141.378 133.999 141.64 133.848C142.368 133.427 142.522 132.854 142.102 132.126L139.695 127.957C139.213 127.122 139.021 126.35 139.121 125.64C138.785 125.5 138.473 125.29 138.185 125.011C137.897 124.733 137.632 124.384 137.391 123.967L134.984 119.798C134.564 119.07 133.99 118.917 133.263 119.337C133 119.488 132.737 119.529 132.474 119.458C132.21 119.387 132.003 119.221 131.851 118.958C131.7 118.696 131.656 118.427 131.72 118.152C131.783 117.877 131.946 117.663 132.209 117.512C134.153 116.389 135.687 116.8 136.809 118.744L139.216 122.913C139.636 123.641 140.204 123.798 140.92 123.385C141.182 123.233 141.445 123.193 141.709 123.263C141.984 123.327 142.201 123.496 142.359 123.771C142.511 124.033 142.545 124.299 142.463 124.57C142.392 124.833 142.226 125.04 141.963 125.192C141.248 125.605 141.1 126.176 141.52 126.903L143.927 131.072C145.049 133.017 144.638 134.55 142.694 135.673Z" fill="#0075F2"/>
<path style="mix-blend-mode:overlay" opacity="0.7" d="M155.05 110.604V99.7677C155.05 95.0139 151.711 93.1055 147.604 95.4739L112.436 115.767C108.33 118.136 104.99 123.912 104.99 128.666V157.342C119.098 136.538 136.597 119.703 155.033 110.604H155.05Z" fill="url(#paint1_linear_7366_9137)"/>
<path d="M262.58 96.1208L230.427 119.481C226.321 121.849 216.558 115.17 216.558 110.416V69.8129C216.558 65.059 219.88 59.2999 224.004 56.9145L259.172 36.6212C263.278 34.2528 273.535 39.1259 273.587 43.3345L270.025 83.2224C270.025 87.9762 266.686 93.7354 262.58 96.1208Z" fill="#E4E2DF"/>
<path d="M218.738 62.5034C217.392 64.8377 216.574 67.4447 216.574 69.8131V110.417C216.574 115.17 226.337 121.85 230.444 119.481L262.596 96.121C264.692 94.9113 266.583 92.8155 267.946 90.413C252.748 81.8084 234.806 69.8131 218.755 62.5034H218.738Z" fill="#E4E2DF"/>
<g style="mix-blend-mode:multiply">
<path d="M218.738 62.5034C217.392 64.8377 216.574 67.4447 216.574 69.8131V110.417C216.574 115.17 226.337 121.85 230.444 119.481L262.596 96.121C264.692 94.9113 266.583 92.8155 267.946 90.413C252.748 81.8084 234.806 69.8131 218.755 62.5034H218.738Z" fill="#E7E7E7"/>
</g>
<path d="M266.533 98.7449L231.365 119.038C227.259 121.407 223.919 119.481 223.919 114.744V74.1408C223.919 69.3869 227.242 63.6278 231.365 61.2424L266.533 40.9491C270.639 38.5807 273.979 40.5061 273.979 45.2429V85.8465C273.979 90.6003 270.656 96.3594 266.533 98.7449Z" fill="white"/>
<path d="M243.055 90.4609C242.066 91.032 241.06 91.3299 240.038 91.3547C239.022 91.3572 238.075 91.1034 237.196 90.5932C236.324 90.0608 235.602 89.3 235.031 88.3109C234.843 87.9858 234.798 87.6632 234.896 87.343C234.986 87.0087 235.186 86.7518 235.497 86.5723C235.822 86.3847 236.144 86.3397 236.464 86.4375C236.791 86.5129 237.048 86.7132 237.235 87.0382C237.586 87.6458 238.016 88.1134 238.526 88.441C239.049 88.7605 239.6 88.9321 240.179 88.9558C240.764 88.9572 241.339 88.7948 241.904 88.4685C242.47 88.1421 242.898 87.7253 243.189 87.2181C243.472 86.6967 243.599 86.1335 243.57 85.5285C243.555 84.9153 243.372 84.305 243.022 83.6973L236.915 73.1206C236.728 72.7956 236.676 72.4771 236.759 72.165C236.849 71.8307 237.049 71.5738 237.36 71.3943C237.685 71.2067 238.014 71.1576 238.349 71.2472C238.675 71.3227 238.932 71.5229 239.12 71.8479L245.226 82.4246C245.797 83.4138 246.088 84.4234 246.099 85.4535C246.101 86.4694 245.847 87.4167 245.337 88.2953C244.819 89.1598 244.058 89.8816 243.055 90.4609ZM257.658 82.0296C256.754 82.5517 255.81 82.908 254.828 83.0986C253.845 83.2892 252.903 83.3055 252.002 83.1476C251.1 82.9897 250.317 82.6603 249.65 82.1593C249.338 81.9442 249.179 81.6686 249.173 81.3327C249.182 80.9886 249.342 80.6793 249.655 80.4046C249.877 80.2013 250.148 80.1009 250.47 80.1035C250.798 80.0838 251.103 80.1715 251.385 80.3666C251.759 80.6219 252.222 80.7879 252.775 80.8643C253.342 80.9326 253.954 80.8996 254.611 80.7651C255.268 80.6306 255.9 80.388 256.508 80.0372C257.186 79.6456 257.747 79.1806 258.19 78.6423C258.647 78.0959 258.937 77.5228 259.062 76.9232C259.179 76.3095 259.066 75.7059 258.723 75.1124C258.291 74.3635 257.607 73.8636 256.671 73.6128C255.749 73.3538 254.576 73.5411 253.152 74.1749C251.301 75.0169 249.626 75.2966 248.125 75.0139C246.624 74.7311 245.507 73.9539 244.772 72.6822C244.234 71.7495 244.038 70.8073 244.186 69.8554C244.334 68.9036 244.754 68.0011 245.449 67.148C246.157 66.2867 247.063 65.5379 248.165 64.9016C249.027 64.4039 249.845 64.0916 250.62 63.9647C251.409 63.8297 252.165 63.8354 252.891 63.9819C253.616 64.1285 254.322 64.3894 255.01 64.7648C255.387 64.9615 255.636 65.2134 255.757 65.5204C255.884 65.8052 255.872 66.0947 255.722 66.3888C255.551 66.7134 255.282 66.916 254.914 66.9965C254.546 67.0771 254.207 67.028 253.896 66.8493C253.433 66.57 252.958 66.3829 252.47 66.288C251.982 66.193 251.474 66.1942 250.946 66.2917C250.41 66.375 249.845 66.588 249.252 66.9307C248.198 67.5203 247.436 68.2239 246.966 69.0416C246.488 69.8452 246.49 70.6638 246.971 71.4975C247.216 71.9214 247.558 72.27 247.999 72.5433C248.445 72.7943 249.04 72.8939 249.782 72.842C250.539 72.782 251.501 72.4903 252.668 71.967C254.448 71.1657 256.052 70.9268 257.483 71.2504C258.919 71.5516 260.041 72.4017 260.849 73.8006C261.314 74.606 261.548 75.4034 261.551 76.1927C261.569 76.9738 261.414 77.7324 261.085 78.4685C260.762 79.1824 260.298 79.8462 259.691 80.4601C259.099 81.0659 258.421 81.589 257.658 82.0296Z" fill="#0075F2"/>
<path style="mix-blend-mode:overlay" opacity="0.7" d="M273.979 56.0798V45.2431C273.979 40.4892 270.639 38.5809 266.533 40.9493L231.365 61.2425C227.259 63.6109 223.919 69.3871 223.919 74.1409V102.817C238.027 82.0129 255.526 65.1785 273.962 56.0798H273.979Z" fill="url(#paint2_linear_7366_9137)"/>
<path d="M51.1639 248.636C49.8179 250.97 49 253.577 49 255.945V296.549C49 301.303 58.7633 307.982 62.8696 305.614L95.0219 282.253C97.1177 281.044 99.009 278.948 100.372 276.545C85.1734 267.941 67.2315 255.945 51.181 248.636H51.1639Z" fill="#F5D533"/>
<path d="M95.0219 282.253L62.8696 305.613C58.7633 307.982 49 301.303 49 296.549V255.945C49 251.191 52.3226 245.432 56.446 243.047L91.6141 222.754C95.7205 220.385 105.978 225.258 106.029 229.467L102.468 269.355C102.468 274.109 99.1283 279.868 95.0219 282.253Z" fill="#E4E2DF"/>
<path d="M51.1639 248.636C49.8179 250.97 49 253.577 49 255.945V296.549C49 301.303 58.7633 307.982 62.8696 305.614L95.0219 282.253C97.1177 281.044 99.009 278.948 100.372 276.545C85.1734 267.941 67.2315 255.945 51.181 248.636H51.1639Z" fill="#E4E2DF"/>
<g style="mix-blend-mode:multiply">
<path d="M51.1639 248.636C49.8179 250.97 49 253.577 49 255.945V296.549C49 301.303 58.7633 307.982 62.8696 305.614L95.0219 282.253C97.1177 281.044 99.009 278.948 100.372 276.545C85.1734 267.941 67.2315 255.945 51.181 248.636H51.1639Z" fill="#E4E2DF"/>
</g>
<path d="M98.9755 284.877L63.8073 305.17C59.7009 307.539 56.3613 305.613 56.3613 300.877V260.273C56.3613 255.519 59.6839 249.76 63.8073 247.375L98.9755 227.081C103.082 224.713 106.421 226.638 106.421 231.375V271.979C106.421 276.733 103.099 282.492 98.9755 284.877Z" fill="white"/>
<path d="M68.8149 277.614C68.6562 277.705 68.5032 277.731 68.356 277.692C68.218 277.647 68.104 277.557 68.0138 277.423C67.9237 277.288 67.8902 277.133 67.9135 276.958L68.6901 269.863L68.9597 269.166L69.6574 262.808C69.6846 262.618 69.7869 262.472 69.9643 262.369C70.1136 262.283 70.26 262.267 70.4033 262.321C70.5505 262.361 70.6692 262.448 70.7594 262.582C70.8442 262.708 70.8789 262.843 70.8635 262.989L70.1191 269.654L69.8693 270.321L69.1099 277.219C69.0719 277.391 68.9735 277.522 68.8149 277.614ZM76.39 273.24C76.3153 273.283 76.2326 273.312 76.1417 273.328C76.0455 273.333 75.9505 273.32 75.8568 273.287L69.5812 270.469L68.9612 270.397L62.8262 267.629C62.6775 267.566 62.5701 267.466 62.504 267.33C62.4325 267.184 62.4118 267.041 62.4419 266.899C62.4814 266.752 62.5758 266.635 62.7252 266.549C62.9025 266.446 63.0803 266.431 63.2584 266.502L69.1763 269.153L69.7219 269.193L76.2728 272.132C76.4215 272.195 76.5316 272.3 76.6031 272.445C76.6839 272.585 76.7073 272.733 76.6732 272.89C76.6431 273.032 76.5487 273.149 76.39 273.24ZM79.4849 271.453C79.3356 271.54 79.1753 271.564 79.004 271.526C78.8366 271.473 78.7098 271.372 78.6236 271.223L72.9404 261.379C72.8488 261.22 72.8247 261.06 72.8681 260.898C72.9208 260.731 73.0219 260.604 73.1712 260.518C73.3953 260.388 73.6125 260.387 73.823 260.515L83.9581 267.172L83.482 267.447L82.7004 255.389C82.7046 255.138 82.814 254.95 83.0287 254.826C83.1781 254.74 83.3338 254.719 83.4957 254.762C83.6577 254.806 83.7845 254.907 83.8761 255.065L89.5593 264.909C89.6455 265.058 89.6696 265.219 89.6316 265.39C89.5882 265.552 89.4918 265.676 89.3425 265.762C89.1838 265.854 89.0188 265.881 88.8475 265.843C88.6801 265.79 88.5533 265.689 88.4671 265.539L83.6004 257.11L83.8466 256.987L84.5907 267.815C84.5904 268.051 84.4829 268.232 84.2682 268.356C84.0348 268.49 83.8021 268.475 83.5701 268.311L74.6095 262.394L74.8491 262.163L79.7157 270.592C79.802 270.741 79.8214 270.904 79.7741 271.081C79.7307 271.243 79.6343 271.367 79.4849 271.453ZM93.2273 263.519C93.0779 263.605 92.9176 263.63 92.7463 263.592C92.5844 263.548 92.4576 263.447 92.3659 263.288L86.6828 253.445C86.5965 253.296 86.5751 253.14 86.6185 252.978C86.6659 252.801 86.7642 252.67 86.9136 252.584C87.0629 252.497 87.2213 252.481 87.3886 252.533C87.5599 252.571 87.6887 252.665 87.7749 252.814L93.1752 262.168L98.65 259.007C98.7994 258.921 98.955 258.899 99.117 258.943C99.2829 258.971 99.409 259.06 99.4952 259.21C99.5814 259.359 99.5982 259.517 99.5455 259.685C99.4967 259.837 99.3976 259.957 99.2482 260.043L93.2273 263.519Z" fill="#0075F2"/>
<path style="mix-blend-mode:overlay" opacity="0.7" d="M106.405 242.229V231.392C106.405 226.638 103.065 224.73 98.9588 227.098L63.7907 247.392C59.6843 249.76 56.3447 255.536 56.3447 260.29V288.966C70.4529 268.162 87.9518 251.328 106.388 242.229H106.405Z" fill="url(#paint3_linear_7366_9137)"/>
<path d="M437.688 539.624L438.693 553.358C438.693 553.358 440.431 561.281 433.616 567.04C426.8 572.799 416.611 570.618 409.148 567.04C403.236 564.211 385.515 556.203 378.052 544.191C376.212 541.226 371.918 534.53 379.79 530.338C384.868 527.646 395.466 531.804 402.997 533.525C407.615 534.581 415.095 535.74 415.095 535.74C415.095 535.74 421.791 531.241 428.572 534.036C435.354 536.83 438.165 534.002 437.688 539.624Z" fill="#30384F"/>
<path d="M409.026 525.602C409.026 525.602 407.305 539.625 420.562 542.573C433.818 545.52 443.053 541.755 444.62 534.292C445.592 529.674 450.056 486.293 452.782 461.996L418.006 435.006L409.043 525.602H409.026Z" fill="#4F5669"/>
<path d="M545.711 470.856C544.075 458.656 539.509 446.95 538.129 434.751L507.016 444.173C507.016 444.173 458.779 423.028 445.233 421.188C437.429 420.131 430.665 419.756 423.475 426.316C414.546 434.478 416.08 444.19 416.08 444.19L416.693 449.915L469.241 478.029C469.241 477.927 489.04 488.883 499.008 491.78C514.258 496.21 534.602 492.597 542.474 488.167C543.547 487.554 544.979 486.804 546.631 485.918C546.597 480.858 546.376 475.831 545.694 470.822L545.711 470.856Z" fill="#4F5669"/>
<path d="M394.578 568.574L395.583 582.307C395.583 582.307 397.321 590.23 390.506 595.989C383.69 601.748 373.501 599.567 366.038 595.989C360.125 593.161 342.405 585.152 334.942 573.14C333.102 570.175 328.808 563.479 336.68 559.288C341.757 556.595 352.356 560.753 359.887 562.474C364.504 563.53 371.984 564.689 371.984 564.689C371.984 564.689 378.681 560.191 385.462 562.985C392.243 565.779 395.055 562.951 394.578 568.574Z" fill="#3A4258"/>
<path d="M551.318 644.618C549.393 643.51 547.689 643.629 546.633 644.703L546.53 644.55L536.972 649.934L544.503 664.042L555.254 658.777C556.328 658.061 556.924 656.715 556.924 653.989C556.924 650.326 554.488 646.441 551.301 644.601L551.318 644.618Z" fill="#30384F"/>
<path d="M546.549 660.31C546.549 663.974 543.976 665.456 540.807 663.633C537.637 661.793 535.064 657.346 535.064 653.682C535.064 650.019 537.637 648.537 540.807 650.36C543.976 652.2 546.549 656.647 546.549 660.31Z" fill="#30384F"/>
<path d="M435.474 647.48C437.399 646.373 439.103 646.492 440.16 647.566L440.262 647.412L449.821 652.797L442.289 666.905L431.538 661.64C430.464 660.924 429.868 659.578 429.868 656.852C429.868 653.188 432.305 649.304 435.491 647.463L435.474 647.48Z" fill="#30384F"/>
<path d="M440.245 663.173C440.245 666.836 442.818 668.319 445.987 666.496C449.156 664.656 451.729 660.208 451.729 656.545C451.729 652.882 449.156 651.399 445.987 653.222C442.818 655.063 440.245 659.51 440.245 663.173Z" fill="#30384F"/>
<path d="M542.592 596.79C544.517 595.682 546.221 595.801 547.278 596.875L547.38 596.722L556.939 602.106L549.408 616.214L538.656 610.949C537.583 610.233 536.986 608.887 536.986 606.161C536.986 602.498 539.423 598.613 542.609 596.773L542.592 596.79Z" fill="#30384F"/>
<path d="M547.363 612.482C547.363 616.146 549.936 617.628 553.105 615.805C556.275 613.982 558.847 609.518 558.847 605.854C558.847 602.191 556.275 600.709 553.105 602.532C549.936 604.372 547.363 608.819 547.363 612.482Z" fill="#30384F"/>
<path d="M452.818 596.79C450.893 595.682 449.189 595.801 448.133 596.875L448.03 596.722L438.472 602.106L446.003 616.214L456.754 610.949C457.828 610.233 458.424 608.887 458.424 606.161C458.424 602.498 455.988 598.613 452.801 596.773L452.818 596.79Z" fill="#30384F"/>
<path d="M448.049 612.482C448.049 616.146 445.476 617.628 442.307 615.805C439.137 613.965 436.564 609.518 436.564 605.854C436.564 602.191 439.137 600.709 442.307 602.532C445.476 604.372 448.049 608.819 448.049 612.482Z" fill="#30384F"/>
<path d="M497.287 614.749L447.96 590.758C447.96 590.758 445.404 589.207 441.894 591.116C438.384 593.024 438.061 595.614 438.061 595.614V599.124L488.956 624.631L497.287 614.749Z" fill="#7F8492"/>
<path d="M491.07 616.657L543.277 590.758C543.277 590.758 545.561 589.207 549.071 591.116C552.581 593.024 552.632 595.614 552.632 595.614V599.124L499.147 626.54L491.087 616.657H491.07Z" fill="#7F8492"/>
<path d="M492.67 599.754H494.885C500.44 599.754 504.938 604.253 504.938 609.807V630.049H482.617V609.807C482.617 604.253 487.115 599.754 492.67 599.754Z" fill="#454C61"/>
<path d="M488.87 574.52V602.958C488.87 602.958 488.938 608.7 494.68 608.7C500.422 608.7 499.213 603.605 499.213 603.605V574.537H488.87V574.52Z" fill="#30384F"/>
<path d="M482.84 548.485V575.27C482.84 575.27 486.588 580.058 493.285 580.058C499.981 580.058 504.377 575.27 504.377 575.27V544.668L482.84 548.502V548.485Z" fill="#454C61"/>
<path d="M364.487 556.63C364.487 556.63 362.817 570.261 375.698 573.123C388.563 575.986 397.559 572.322 399.076 565.081C400.013 560.6 404.358 518.446 406.999 494.847L373.211 468.624L364.504 556.647L364.487 556.63Z" fill="#6E7484"/>
<path d="M452.816 483.924C466.516 475.166 475.853 470.276 487.252 468.623C503.677 466.238 525.351 473.565 537.465 478.659C545.269 481.948 568.391 491.728 562.972 504.49C559.122 513.555 540.174 520.115 526.305 526.811C512.435 533.507 494.425 545.298 479.124 546.252C463.823 547.207 447.091 539.079 433.222 529.997C419.352 520.916 420.783 507.847 429.882 499.719C437.226 493.142 440.872 491.592 452.833 483.941L452.816 483.924Z" fill="#E4E2DF"/>
<path d="M547.588 447.768L463.927 473.122C463.927 473.122 415.69 451.977 402.144 450.137C394.341 449.08 387.576 448.705 380.386 455.265C371.457 463.427 372.991 473.139 372.991 473.139L373.604 478.864L426.152 506.978C426.152 506.876 445.951 517.832 455.919 520.729C471.169 525.159 491.513 521.546 499.385 517.116C507.257 512.686 532.832 500.384 542.664 489.564C552.495 478.745 547.571 447.751 547.571 447.751L547.588 447.768Z" fill="#6E7484"/>
<path d="M422.539 512.141V525.533C422.539 525.533 424.839 539.25 439.186 546.9C453.533 554.55 475.888 560.923 486.724 556.783C497.561 552.642 538.386 531.599 547.314 526.811C556.243 522.023 560.707 519.485 562.309 515.327C563.91 511.17 562.632 498.425 562.632 498.425C562.632 498.425 539.357 516.912 512.589 525.84C485.804 534.768 475.547 539.863 462.461 536.677C449.392 533.491 422.539 512.124 422.539 512.124V512.141Z" fill="#30384F"/>
<path d="M481.033 554.227C477.063 547.872 479.687 540.869 483.964 535.399C475.666 537.733 469.447 538.398 462.461 536.694C449.392 533.508 422.539 512.141 422.539 512.141V525.534C422.539 525.534 424.839 539.25 439.186 546.9C452.493 554.006 472.701 559.986 484.203 557.516C483.078 556.544 482.056 555.471 481.033 554.227Z" fill="#454C61"/>
<path d="M435.608 650.138C435.608 650.138 431.058 642.812 438.078 640.256C445.098 637.7 484.1 618.259 484.1 618.259C484.1 618.259 492.5 619.537 492.5 622.723C492.5 625.909 493.455 629.743 493.455 629.743C493.455 629.743 451.062 649.508 446.905 651.74C442.764 653.972 439.254 652.371 435.591 650.138H435.608Z" fill="#7F8492"/>
<path d="M554.709 650.139C554.709 650.139 558.287 642.812 551.284 640.256C544.264 637.7 505.586 617.305 505.586 617.305C505.586 617.305 497.492 618.583 497.492 621.769V628.789C497.492 628.789 539.578 649.508 543.718 651.74C547.859 653.972 551.045 652.371 554.709 650.139Z" fill="#7F8492"/>
<path d="M296.896 667.859C292.926 667.859 289.706 664.639 289.706 660.669V498.357H304.07V660.669C304.07 664.639 300.849 667.859 296.879 667.859H296.896Z" fill="#EAECF0"/>
<path d="M296.488 498.356V667.807C296.625 667.807 296.744 667.841 296.88 667.841C300.85 667.841 304.071 664.621 304.071 660.651V498.339H296.488V498.356Z" fill="#C8CCD7"/>
<path d="M146.512 577.416C142.542 577.416 139.321 574.196 139.321 570.226V407.914H153.685V570.226C153.685 574.196 150.465 577.416 146.495 577.416H146.512Z" fill="#EAECF0"/>
<path d="M146.104 407.914V577.365C146.24 577.365 146.359 577.399 146.495 577.399C150.465 577.399 153.686 574.179 153.686 570.209V407.897H146.104V407.914Z" fill="#C8CCD7"/>
<path d="M575.43 325.975H589.794V488.286C589.794 492.257 586.574 495.477 582.603 495.477C578.633 495.477 575.413 492.257 575.413 488.286V325.975H575.43Z" fill="#EAECF0"/>
<path d="M582.212 325.974V495.426C582.348 495.426 582.468 495.46 582.604 495.46C586.574 495.46 589.794 492.239 589.794 488.269V325.957H582.212V325.974Z" fill="#C8CCD7"/>
<path d="M432.219 405.035C428.249 405.035 425.028 401.814 425.028 397.844V235.532H439.392V397.844C439.392 401.814 436.172 405.035 432.202 405.035H432.219Z" fill="#DFE2E8"/>
<path d="M431.827 235.532V404.984C431.963 404.984 432.083 405.018 432.219 405.018C436.189 405.018 439.409 401.797 439.409 397.827V235.515H431.827V235.532Z" fill="#D0D3DC"/>
<path d="M603.882 321.289L288.834 503.161L120.797 406.142L435.828 224.252L603.882 321.289Z" fill="#FCFCFD"/>
<path d="M288.802 515.122V503.127L120.748 406.091V418.103L288.802 515.122Z" fill="#C0C4D1"/>
<path d="M603.815 333.335V321.323L288.767 503.212V515.225L603.815 333.335Z" fill="#A7ADBF"/>
<g style="mix-blend-mode:multiply" opacity="0.3">
<path d="M440.331 330.013L333.498 392.784L288.532 369.253L289.589 378.676L334.043 398.271L440.706 336.471L440.331 330.013Z" fill="#616C8C"/>
</g>
<path d="M288.532 367.549L289.589 376.972L334.043 396.566L333.498 391.08L288.532 367.549Z" fill="#B0B5C5"/>
<path d="M398.774 305.085L440.365 328.513L333.498 391.08L288.532 367.549L398.774 305.085Z" fill="white"/>
<path d="M440.333 328.309L333.499 391.08L334.044 396.567L440.707 334.767L440.333 328.309Z" fill="#9098AE"/>
<path fill-rule="evenodd" clip-rule="evenodd" d="M303.832 368.418L299.76 366.084L304.019 363.613L308.075 365.948L303.832 368.418Z" fill="#616C8C"/>
<path fill-rule="evenodd" clip-rule="evenodd" d="M312.111 363.613L308.056 361.279L312.298 358.808L316.371 361.142L312.111 363.613Z" fill="#616C8C"/>
<path fill-rule="evenodd" clip-rule="evenodd" d="M317.43 360.53L313.357 358.195L317.617 355.725L321.689 358.076L317.43 360.53Z" fill="#616C8C"/>
<path fill-rule="evenodd" clip-rule="evenodd" d="M322.745 357.445L318.673 355.111L322.933 352.657L326.988 354.992L322.745 357.445Z" fill="#616C8C"/>
<path fill-rule="evenodd" clip-rule="evenodd" d="M331.026 352.657L326.971 350.323L331.213 347.852L335.286 350.187L331.026 352.657Z" fill="#616C8C"/>
<path fill-rule="evenodd" clip-rule="evenodd" d="M336.341 349.573L332.286 347.239L336.529 344.768L340.601 347.103L336.341 349.573Z" fill="#616C8C"/>
<path fill-rule="evenodd" clip-rule="evenodd" d="M341.657 346.489L337.585 344.155L341.845 341.701L345.917 344.035L341.657 346.489Z" fill="#616C8C"/>
<path fill-rule="evenodd" clip-rule="evenodd" d="M349.956 341.684L345.884 339.35L350.126 336.896L354.199 339.231L349.956 341.684Z" fill="#616C8C"/>
<path fill-rule="evenodd" clip-rule="evenodd" d="M355.254 338.617L351.199 336.283L355.442 333.812L359.514 336.147L355.254 338.617Z" fill="#616C8C"/>
<path fill-rule="evenodd" clip-rule="evenodd" d="M360.572 335.533L356.517 333.199L360.759 330.728L364.832 333.079L360.572 335.533Z" fill="#616C8C"/>
<path fill-rule="evenodd" clip-rule="evenodd" d="M369.075 330.609L365.02 328.275L369.262 325.804L373.334 328.156L369.075 330.609Z" fill="#616C8C"/>
<path fill-rule="evenodd" clip-rule="evenodd" d="M374.152 327.542L370.147 325.139L374.509 322.72L378.514 325.122L374.152 327.542Z" fill="#616C8C"/>
<path fill-rule="evenodd" clip-rule="evenodd" d="M379.703 324.458L375.631 322.123L379.891 319.653L383.946 321.987L379.703 324.458Z" fill="#616C8C"/>
<path fill-rule="evenodd" clip-rule="evenodd" d="M386.505 320.505L382.433 318.17L386.692 315.717L390.765 318.051L386.505 320.505Z" fill="#616C8C"/>
<path fill-rule="evenodd" clip-rule="evenodd" d="M391.822 317.438L387.75 315.104L392.01 312.633L396.065 314.968L391.822 317.438Z" fill="#616C8C"/>
<path fill-rule="evenodd" clip-rule="evenodd" d="M397.135 314.354L393.062 312.02L397.322 309.549L401.377 311.9L397.135 314.354Z" fill="#616C8C"/>
<path fill-rule="evenodd" clip-rule="evenodd" d="M404.65 318.682L400.595 316.348L404.837 313.877L408.91 316.212L404.65 318.682Z" fill="#616C8C"/>
<path fill-rule="evenodd" clip-rule="evenodd" d="M409.746 321.595L405.674 319.261L409.934 316.807L413.989 319.142L409.746 321.595Z" fill="#616C8C"/>
<path fill-rule="evenodd" clip-rule="evenodd" d="M399.353 321.766L395.28 319.415L399.523 316.961L403.595 319.295L399.353 321.766Z" fill="#616C8C"/>
<path fill-rule="evenodd" clip-rule="evenodd" d="M404.429 324.68L400.356 322.345L404.616 319.875L408.671 322.209L404.429 324.68Z" fill="#616C8C"/>
<path fill-rule="evenodd" clip-rule="evenodd" d="M394.034 324.833L389.962 322.498L394.222 320.028L398.277 322.379L394.034 324.833Z" fill="#616C8C"/>
<path fill-rule="evenodd" clip-rule="evenodd" d="M399.113 327.763L395.041 325.412L399.301 322.958L403.373 325.293L399.113 327.763Z" fill="#616C8C"/>
<path fill-rule="evenodd" clip-rule="evenodd" d="M424.792 330.251L420.72 327.917L424.979 325.447L429.035 327.781L424.792 330.251Z" fill="#616C8C"/>
<path fill-rule="evenodd" clip-rule="evenodd" d="M419.474 333.318L415.401 330.984L419.661 328.53L423.716 330.864L419.474 333.318Z" fill="#616C8C"/>
<path fill-rule="evenodd" clip-rule="evenodd" d="M414.159 336.402L410.087 334.068L414.347 331.597L418.419 333.949L414.159 336.402Z" fill="#616C8C"/>
<path fill-rule="evenodd" clip-rule="evenodd" d="M414.397 330.404L410.325 328.07L414.568 325.599L418.64 327.934L414.397 330.404Z" fill="#616C8C"/>
<path fill-rule="evenodd" clip-rule="evenodd" d="M380.217 332.841L376.145 330.507L380.404 328.036L384.459 330.371L380.217 332.841Z" fill="#616C8C"/>
<path fill-rule="evenodd" clip-rule="evenodd" d="M374.901 335.925L370.829 333.574L375.089 331.12L379.161 333.454L374.901 335.925Z" fill="#616C8C"/>
<path fill-rule="evenodd" clip-rule="evenodd" d="M369.584 338.992L365.528 336.658L369.771 334.204L373.843 336.538L369.584 338.992Z" fill="#616C8C"/>
<path fill-rule="evenodd" clip-rule="evenodd" d="M364.27 342.076L360.215 339.742L364.457 337.271L368.53 339.606L364.27 342.076Z" fill="#616C8C"/>
<path fill-rule="evenodd" clip-rule="evenodd" d="M358.951 345.16L354.896 342.809L359.138 340.355L363.21 342.69L358.951 345.16Z" fill="#616C8C"/>
<path fill-rule="evenodd" clip-rule="evenodd" d="M353.654 348.227L349.582 345.893L353.825 343.439L357.897 345.774L353.654 348.227Z" fill="#616C8C"/>
<path fill-rule="evenodd" clip-rule="evenodd" d="M348.337 351.311L344.265 348.977L348.524 346.506L352.58 348.841L348.337 351.311Z" fill="#616C8C"/>
<path fill-rule="evenodd" clip-rule="evenodd" d="M343.021 354.395L338.949 352.044L343.209 349.59L347.264 351.924L343.021 354.395Z" fill="#616C8C"/>
<path fill-rule="evenodd" clip-rule="evenodd" d="M337.706 357.462L333.634 355.128L337.893 352.674L341.966 355.009L337.706 357.462Z" fill="#616C8C"/>
<path fill-rule="evenodd" clip-rule="evenodd" d="M332.388 360.546L328.333 358.212L332.797 355.622L336.852 357.956L332.388 360.546Z" fill="#616C8C"/>
<path fill-rule="evenodd" clip-rule="evenodd" d="M327.073 363.63L323.018 361.279L327.482 358.706L331.537 361.04L327.073 363.63Z" fill="#616C8C"/>
<path fill-rule="evenodd" clip-rule="evenodd" d="M321.772 366.697L317.7 364.363L322.164 361.773L326.237 364.124L321.772 366.697Z" fill="#616C8C"/>
<path fill-rule="evenodd" clip-rule="evenodd" d="M316.66 369.662L312.604 367.328L316.847 364.857L320.919 367.191L316.66 369.662Z" fill="#616C8C"/>
<path fill-rule="evenodd" clip-rule="evenodd" d="M311.345 372.729L307.29 370.395L311.533 367.941L315.605 370.276L311.345 372.729Z" fill="#616C8C"/>
<path fill-rule="evenodd" clip-rule="evenodd" d="M324.295 371.093L320.24 368.759L324.483 366.305L328.555 368.64L324.295 371.093Z" fill="#616C8C"/>
<path fill-rule="evenodd" clip-rule="evenodd" d="M329.614 368.026L325.542 365.692L329.802 363.221L333.874 365.556L329.614 368.026Z" fill="#616C8C"/>
<path fill-rule="evenodd" clip-rule="evenodd" d="M334.927 364.942L330.854 362.608L335.114 360.137L339.169 362.489L334.927 364.942Z" fill="#616C8C"/>
<path fill-rule="evenodd" clip-rule="evenodd" d="M340.242 361.858L336.17 359.524L340.43 357.07L344.485 359.404L340.242 361.858Z" fill="#616C8C"/>
<path fill-rule="evenodd" clip-rule="evenodd" d="M345.56 358.792L341.487 356.457L345.73 353.987L349.802 356.321L345.56 358.792Z" fill="#616C8C"/>
<path fill-rule="evenodd" clip-rule="evenodd" d="M350.858 355.707L346.803 353.373L351.045 350.902L355.118 353.254L350.858 355.707Z" fill="#616C8C"/>
<path fill-rule="evenodd" clip-rule="evenodd" d="M356.175 352.623L352.12 350.289L356.363 347.835L360.435 350.17L356.175 352.623Z" fill="#616C8C"/>
<path fill-rule="evenodd" clip-rule="evenodd" d="M361.287 349.675L357.215 347.341L361.679 344.751L365.751 347.086L361.287 349.675Z" fill="#616C8C"/>
<path fill-rule="evenodd" clip-rule="evenodd" d="M366.603 346.592L362.53 344.257L366.994 341.667L371.05 344.019L366.603 346.592Z" fill="#616C8C"/>
<path fill-rule="evenodd" clip-rule="evenodd" d="M371.903 343.524L367.848 341.173L372.312 338.6L376.367 340.934L371.903 343.524Z" fill="#616C8C"/>
<path fill-rule="evenodd" clip-rule="evenodd" d="M377.218 340.44L373.163 338.106L377.406 335.635L381.478 337.97L377.218 340.44Z" fill="#616C8C"/>
<path fill-rule="evenodd" clip-rule="evenodd" d="M382.534 337.356L378.462 335.022L382.722 332.568L386.794 334.903L382.534 337.356Z" fill="#616C8C"/>
<path fill-rule="evenodd" clip-rule="evenodd" d="M383.999 342.382L379.739 339.929L383.982 337.458L388.259 339.912L383.999 342.382Z" fill="#616C8C"/>
<path fill-rule="evenodd" clip-rule="evenodd" d="M378.701 345.45L374.424 342.996L378.666 340.542L382.943 342.996L378.701 345.45Z" fill="#616C8C"/>
<path fill-rule="evenodd" clip-rule="evenodd" d="M373.383 348.534L369.106 346.08L373.366 343.61L377.626 346.063L373.383 348.534Z" fill="#616C8C"/>
<path fill-rule="evenodd" clip-rule="evenodd" d="M368.068 351.618L363.791 349.164L368.051 346.694L372.31 349.147L368.068 351.618Z" fill="#616C8C"/>
<path fill-rule="evenodd" clip-rule="evenodd" d="M362.752 354.685L358.476 352.232L362.735 349.778L366.995 352.232L362.752 354.685Z" fill="#616C8C"/>
<path fill-rule="evenodd" clip-rule="evenodd" d="M357.435 357.769L353.175 355.315L357.417 352.844L361.694 355.298L357.435 357.769Z" fill="#616C8C"/>
<path fill-rule="evenodd" clip-rule="evenodd" d="M352.122 360.853L347.862 358.399L352.105 355.929L356.382 358.382L352.122 360.853Z" fill="#616C8C"/>
<path fill-rule="evenodd" clip-rule="evenodd" d="M346.802 363.92L342.542 361.467L346.785 359.013L351.061 361.467L346.802 363.92Z" fill="#616C8C"/>
<path fill-rule="evenodd" clip-rule="evenodd" d="M341.506 367.004L337.229 364.55L341.694 361.96L345.97 364.414L341.506 367.004Z" fill="#616C8C"/>
<path fill-rule="evenodd" clip-rule="evenodd" d="M336.188 370.088L331.911 367.635L336.375 365.045L340.652 367.498L336.188 370.088Z" fill="#616C8C"/>
<path fill-rule="evenodd" clip-rule="evenodd" d="M330.873 373.155L326.597 370.701L331.061 368.128L335.338 370.582L330.873 373.155Z" fill="#616C8C"/>
<path fill-rule="evenodd" clip-rule="evenodd" d="M338.504 374.365L334.449 372.03L338.692 369.56L342.764 371.894L338.504 374.365Z" fill="#616C8C"/>
<path fill-rule="evenodd" clip-rule="evenodd" d="M343.823 371.281L339.768 368.946L344.01 366.493L348.083 368.827L343.823 371.281Z" fill="#616C8C"/>
<path fill-rule="evenodd" clip-rule="evenodd" d="M349.139 368.214L345.066 365.863L349.326 363.409L353.398 365.743L349.139 368.214Z" fill="#616C8C"/>
<path fill-rule="evenodd" clip-rule="evenodd" d="M354.456 365.13L350.384 362.795L354.643 360.325L358.699 362.659L354.456 365.13Z" fill="#616C8C"/>
<path fill-rule="evenodd" clip-rule="evenodd" d="M359.771 362.046L355.699 359.711L359.959 357.258L364.014 359.592L359.771 362.046Z" fill="#616C8C"/>
<path fill-rule="evenodd" clip-rule="evenodd" d="M365.084 358.979L361.012 356.627L365.254 354.174L369.327 356.508L365.084 358.979Z" fill="#616C8C"/>
<path fill-rule="evenodd" clip-rule="evenodd" d="M370.404 355.895L366.332 353.56L370.575 351.09L374.647 353.424L370.404 355.895Z" fill="#616C8C"/>
<path fill-rule="evenodd" clip-rule="evenodd" d="M375.7 352.811L371.645 350.477L375.887 348.023L379.959 350.357L375.7 352.811Z" fill="#616C8C"/>
<path fill-rule="evenodd" clip-rule="evenodd" d="M381.017 349.744L376.962 347.392L381.205 344.939L385.277 347.273L381.017 349.744Z" fill="#616C8C"/>
<path fill-rule="evenodd" clip-rule="evenodd" d="M386.333 346.659L382.261 344.325L386.52 341.854L390.593 344.189L386.333 346.659Z" fill="#616C8C"/>
<path fill-rule="evenodd" clip-rule="evenodd" d="M402.281 337.425L398.209 335.09L402.452 332.62L406.524 334.954L402.281 337.425Z" fill="#616C8C"/>
<path fill-rule="evenodd" clip-rule="evenodd" d="M404.602 341.94L400.529 339.606L407.549 335.55L411.605 337.885L404.602 341.94Z" fill="#616C8C"/>
<path fill-rule="evenodd" clip-rule="evenodd" d="M396.726 346.506L392.671 344.172L399.469 340.219L403.525 342.553L396.726 346.506Z" fill="#616C8C"/>
<path fill-rule="evenodd" clip-rule="evenodd" d="M388.874 351.055L384.802 348.721L391.6 344.785L395.673 347.119L388.874 351.055Z" fill="#616C8C"/>
<path fill-rule="evenodd" clip-rule="evenodd" d="M347.214 375.2L343.142 372.849L349.94 368.913L354.012 371.247L347.214 375.2Z" fill="#616C8C"/>
<path fill-rule="evenodd" clip-rule="evenodd" d="M339.339 379.749L335.284 377.415L342.083 373.479L346.138 375.813L339.339 379.749Z" fill="#616C8C"/>
<path fill-rule="evenodd" clip-rule="evenodd" d="M331.486 384.298L327.414 381.964L334.213 378.028L338.285 380.362L331.486 384.298Z" fill="#616C8C"/>
<path fill-rule="evenodd" clip-rule="evenodd" d="M391.648 343.575L387.576 341.241L396.93 335.823L401.003 338.157L391.648 343.575Z" fill="#616C8C"/>
<path fill-rule="evenodd" clip-rule="evenodd" d="M385.532 329.757L381.46 327.423L387.406 323.981L391.479 326.315L385.532 329.757Z" fill="#616C8C"/>
<path fill-rule="evenodd" clip-rule="evenodd" d="M316.44 375.66L312.368 373.325L319.167 369.372L323.239 371.724L316.44 375.66Z" fill="#616C8C"/>
<path fill-rule="evenodd" clip-rule="evenodd" d="M326.391 381.385L322.336 379.05L333.377 372.644L337.449 374.978L326.391 381.385Z" fill="#616C8C"/>
<path fill-rule="evenodd" clip-rule="evenodd" d="M321.517 378.573L317.24 376.12L325.743 371.196L330.019 373.649L321.517 378.573Z" fill="#616C8C"/>
<path fill-rule="evenodd" clip-rule="evenodd" d="M355.067 370.634L351.012 368.299L383.743 349.335L387.799 351.669L355.067 370.634Z" fill="#616C8C"/>
<path fill-rule="evenodd" clip-rule="evenodd" d="M389.111 339.18L385.039 336.845L387.936 335.158C388.208 335.005 388.157 334.852 388.106 334.664C388.106 334.63 387.902 334.63 387.902 334.63C387.902 334.528 388.021 334.46 387.902 334.392L383.71 331.921L392.434 326.895L401.413 332.04L389.111 339.18Z" fill="#616C8C"/>
<g style="mix-blend-mode:multiply" opacity="0.3">
<path d="M313.216 367.839C313.216 367.839 318.327 370.31 319.384 373.121C320.44 375.95 323.269 380.346 327.665 382.646C332.078 384.929 335.946 385.475 335.946 385.475C335.946 385.475 340.171 389.172 343.34 391.472C346.51 393.772 383.535 414.918 390.231 417.201C396.928 419.484 414.375 419.671 425.127 417.559C435.878 415.446 445.931 411.919 445.931 411.919C445.931 411.919 445.761 403.11 435.18 399.583C424.599 396.056 392.344 394.113 387.948 391.302C383.535 388.473 345.113 372.968 345.113 372.968C345.113 372.968 319.725 357.105 316.913 359.218C314.085 361.331 313.216 367.856 313.216 367.856V367.839Z" fill="#616C8C"/>
</g>
<g style="mix-blend-mode:multiply" opacity="0.3">
<path d="M387.609 322.022C387.609 322.022 389.193 323.964 393.078 325.191C396.963 326.418 398.888 326.605 399.417 328.718C399.945 330.831 388.836 330.132 388.836 330.132C388.836 330.132 389.722 332.415 392.363 333.131C395.004 333.847 396.418 335.414 398.531 337.016C400.644 338.6 405.755 339.844 408.055 339.657C410.339 339.487 412.162 340.185 412.162 340.185L412.741 343.354L457.741 364.5L466.737 357.803C466.737 357.803 441.537 336.828 432.012 334.886C422.487 332.944 406.454 324.663 405.568 324.305C404.682 323.947 392.669 316.723 391.8 317.438C390.931 318.137 387.592 322.022 387.592 322.022H387.609Z" fill="#616C8C"/>
</g>
<path d="M495.381 481.539C488.685 470.055 489.639 455.708 496.335 446.149C510.682 427.986 533.633 426.061 552.768 413.639C556.806 411.22 563.554 410.18 566.706 413.35C565.053 405.376 560.93 403.893 558.186 403.757C552.138 403.433 547.469 407.488 525.352 418.427C498.891 431.496 494.427 430.218 488.378 435.33C482.329 440.424 478.819 452.539 479.774 465.608C480.728 478.677 490.287 489.207 497.937 488.883C499.777 488.815 501.396 488.525 503.134 487.997C499.675 486.804 496.812 484.419 495.381 481.556V481.539Z" fill="#4D4D4D"/>
<path d="M552.766 413.64C533.631 426.078 510.68 427.986 496.333 446.15C489.637 455.708 488.683 470.055 495.379 481.539C496.81 484.402 499.673 486.787 503.132 487.98C508.652 486.31 515.451 482.119 534.603 473.889C549.29 467.567 557.077 462.098 561.388 454.124C564.455 448.416 565.613 441.6 566.806 431.496C567.777 423.266 567.573 417.456 566.721 413.367C563.551 410.181 556.821 411.237 552.783 413.657L552.766 413.64Z" fill="#333333"/>
<path d="M420.495 332.722C420.495 332.722 414.174 319.312 411.414 317.421C408.653 315.529 401.991 315.546 397.459 315.103C394.051 314.78 386.946 316.296 386.486 319.329C386.026 322.362 388.309 322.873 391.325 323.878C394.358 324.901 398.583 325.787 399.93 326.877C401.276 327.968 401.088 329.876 398.72 329.399C396.368 328.939 392.995 326.434 390.286 327.133C388.156 327.678 387.662 330.916 392.211 332.125C396.743 333.335 395.602 334.374 398.362 335.601C401.122 336.828 404.547 338.975 407.665 338.668C411.311 338.293 418.502 343.32 418.502 343.32L427.362 336.249L420.495 332.705V332.722Z" fill="#FFC1C3"/>
<path d="M516.762 329.604L479.856 338.583L432.249 326.912C432.249 326.912 422.691 323.01 415.517 331.137C409.826 339.384 412.416 342.178 412.416 342.178L474.659 369.952C474.659 369.952 483.485 375.08 498.224 372.695C511.787 370.497 551.896 380.669 551.896 380.669C551.896 380.669 557.042 364.533 549.102 346.745C540.719 327.985 522.521 327.031 516.779 329.587L516.762 329.604Z" fill="#E4E2DF"/>
<path d="M507.187 329.809C507.187 329.809 481.646 335.602 466.09 347.563C452.51 358.008 444.433 382.288 445.745 425.379C446.648 455.385 445.081 456.22 446.938 466.085C448.08 472.151 453.685 481.096 462.495 485.646C472.956 491.03 482.549 495.204 497.22 492.035C511.992 488.849 545.099 472.083 545.099 472.083C545.099 472.083 555.203 449.506 555.203 438.039C555.203 426.572 556.89 384.878 552.272 364.346C544.485 329.621 517.547 327.542 507.187 329.826V329.809Z" fill="white"/>
<path d="M510.525 316.177L513.115 339.895C513.115 339.895 512.246 349.59 498.546 352.01C484.506 354.481 481.899 344.956 481.899 344.956L482.257 339.282L480.451 326.23L510.525 316.194V316.177Z" fill="#FFC1C3"/>
<path d="M456.939 272.933C456.939 272.933 454.366 297.571 454.792 305.783C455.167 313.264 458.608 328.326 469.053 332.143C477.726 335.312 488 329.91 498.718 322.362C509.452 314.814 512.877 312.974 514.462 306.618C516.046 300.263 526.968 269.746 526.968 269.746L456.922 272.933H456.939Z" fill="#FFC1C3"/>
<path d="M528.074 265.18C526.08 254.905 519.657 247.92 512.824 244.29C499.312 237.134 485.8 237.492 473.533 241.308C461.98 244.904 456.477 250.237 454.142 254.905C452.864 257.461 452.2 259.813 451.944 261.942C451.893 264.941 452.507 267.923 453.904 270.666C455.88 274.517 459.612 277.056 462.355 280.31C464.587 282.951 465.95 285.916 466.291 289.358C466.598 292.425 466.836 295.85 466.632 299.138L470.312 300.484C470.312 300.484 469.614 291.658 474.674 291.011C482.427 290.022 482.989 301.217 481.83 304.523C476.872 318.631 484.471 321.204 484.471 321.204C493.298 324.833 502.703 325.77 510.711 319.857C517.356 314.95 521.974 307.624 524.666 299.888C528.364 289.29 530.204 276.204 528.074 265.163V265.18Z" fill="#30384F"/>
<path d="M345.284 387.808L336.577 383.157C336.577 383.157 333.987 384.929 328.5 381.828C321.906 378.096 322.23 374.467 319.657 372.269C316.318 369.407 314.443 368.742 311.053 366.288C307.134 363.46 311.291 356.253 317.272 356.014C319.214 355.929 322.009 356.099 327.785 358.399C331.363 359.831 336.083 364.942 336.083 364.942C336.083 364.942 333.391 360.631 332.096 359.354C330.801 358.093 332.59 355.349 335.214 357.53C337.821 359.711 341.825 364.857 341.961 366.68C342.097 368.503 344.142 373.871 344.142 373.871L352.423 378.659L345.301 387.808H345.284Z" fill="#FFC1C3"/>
<path d="M455.507 359.132L401.647 387.808L354.347 369.117C354.347 369.117 345.095 364.278 338.28 375.131C334.787 380.686 337.786 386.462 337.786 386.462C337.786 386.462 378.474 411.39 392.719 415.854C399.756 418.069 407.321 418.853 422.196 417.592C438.758 416.195 452.099 410.197 463.106 404.626C470.705 400.775 480.503 388.643 477.538 373.785C474.488 358.536 465.1 355.315 455.524 359.149L455.507 359.132Z" fill="#E4E2DF"/>
<path d="M519.285 411.408C504.785 416.979 489.638 422.892 483.896 424.476C478.153 426.078 471.15 437.869 471.781 451.261C472.411 464.654 474.643 476.445 479.755 481.233C484.85 486.021 494.102 491.115 508.772 484.095C523.443 477.075 543.514 468.471 549.256 464.33C554.999 460.19 560.281 455.146 562.325 449.029C564.557 442.333 566.789 428.634 566.159 415.548C565.58 403.655 558.832 392.597 547.672 397.691C536.511 402.786 531.724 406.62 519.302 411.408H519.285Z" fill="#E4E2DF"/>
<path d="M488.357 435.313C494.406 430.218 498.87 431.479 525.331 418.41C547.448 407.488 552.116 403.433 558.165 403.74C562.323 403.961 569.649 407.25 566.77 431.479C565.577 441.583 564.418 448.398 561.351 454.106C557.058 462.081 549.254 467.55 534.566 473.872C509.383 484.708 505.549 488.542 497.899 488.849C490.248 489.172 480.69 478.642 479.735 465.574C478.781 452.505 482.291 440.39 488.34 435.296L488.357 435.313Z" fill="#30384F"/>
<path d="M524.685 447.904L540.054 440.118C540.054 440.118 544.194 437.596 547.943 450.324C549.391 455.214 548.948 469.782 548.982 485.083C549.033 509.551 548.88 536.915 548.88 536.915L533.511 544.702C533.511 544.702 532.454 534.7 532.369 521.836C532.182 495.426 531.994 454.703 524.685 447.904Z" fill="#596072"/>
<path d="M524.685 447.904L524.617 529.043L516.421 526.487V536.694L533.511 544.702V464.994C533.511 464.994 533.136 457.173 529.967 452.13C524.651 443.679 524.668 447.921 524.668 447.921L524.685 447.904Z" fill="#454C61"/>
<g opacity="0.8">
<path d="M219.71 319.619L100.438 390.007L99.0068 389.291V302.188L219.71 232.517L221.107 233.232L219.71 319.619Z" fill="#666666"/>
<path d="M221.142 320.317L100.438 390.006V302.904L221.142 233.215V320.317Z" fill="white"/>
<path d="M221.142 241.615L100.438 311.304V302.904L221.142 233.215V241.615Z" fill="#E4E2DF"/>
<path d="M158.473 291.403L111.479 318.546V316.671L158.473 289.529V291.403Z" fill="#898E9B"/>
<path d="M158.473 299.496L111.479 326.622V324.748L158.473 297.622V299.496Z" fill="#898E9B"/>
<path d="M158.473 307.572L111.479 334.698V332.824L158.473 305.698V307.572Z" fill="#898E9B"/>
<path d="M158.473 315.649L111.479 342.792V340.918L158.473 313.775V315.649Z" fill="#898E9B"/>
<path d="M158.473 323.725L111.479 350.868V348.994L158.473 321.851V323.725Z" fill="#898E9B"/>
<path d="M210.661 312.531L171.199 335.295V280.055L210.661 257.274V312.531Z" fill="#A9D8FA"/>
<path d="M158.473 331.819L111.479 358.945V357.07L158.473 329.945V331.819Z" fill="#898E9B"/>
</g>
<g style="mix-blend-mode:multiply" opacity="0.3">
<path d="M268.528 334.494V334.682L268.562 334.699C268.699 335.261 269.142 335.823 269.891 336.266L293.643 349.983C294.615 350.545 295.91 350.817 297.205 350.783C297.784 350.783 298.363 350.698 298.908 350.562C298.96 350.562 299.028 350.528 299.079 350.511C299.283 350.46 299.505 350.392 299.692 350.323C299.948 350.221 300.186 350.119 300.425 349.983L364.968 312.719C365.428 312.446 365.769 312.139 365.99 311.816C366.024 311.782 366.041 311.747 366.058 311.696C366.178 311.509 366.28 311.321 366.314 311.117C366.314 311.083 366.314 311.049 366.314 311.032C366.348 310.878 366.348 310.742 366.348 310.64C366.348 310.231 366.28 305.733 366.28 305.733L362.634 307.471L341.199 295.1C339.325 294.027 336.292 294.027 334.434 295.1L286.76 322.635L273.163 330.49C273.163 330.49 273.112 330.439 273.095 330.405C271.817 329.127 268.494 330.03 268.494 330.03L268.528 334.153C268.528 334.273 268.528 334.392 268.528 334.511V334.494Z" fill="#616C8C"/>
</g>
<path d="M379.146 141.564C379.146 141.564 377.357 140.064 376.147 139.366C375.38 138.923 374.852 138.65 374.494 138.48C374.409 138.429 374.324 138.395 374.238 138.36C374.017 138.258 373.898 138.224 373.898 138.224C373.25 138.088 372.484 138.224 371.649 138.718L233.924 218.239C231.743 219.499 229.971 222.566 229.971 225.088V325.958C229.971 327.202 230.414 328.071 231.095 328.497C231.095 328.497 234.929 331.598 236.088 331.547C237.229 331.496 237.229 327.56 237.229 327.56L236.905 326.52L371.649 248.738C373.83 247.477 375.602 244.41 375.602 241.888V150.645C375.704 150.577 375.806 150.509 375.891 150.424C377.731 148.771 379.129 141.598 379.129 141.598L379.146 141.564Z" fill="#B0B5C5"/>
<path d="M375.599 161.925V150.594C375.702 150.526 375.804 150.458 375.906 150.373C377.746 148.72 379.143 141.547 379.143 141.547C379.143 141.547 377.354 140.047 376.145 139.349C375.378 138.906 374.85 138.633 374.492 138.463C374.407 138.412 374.321 138.377 374.236 138.343C374.015 138.241 373.895 138.207 373.895 138.207C373.248 138.071 372.481 138.207 371.646 138.701L233.921 218.221C232.848 218.835 231.877 219.891 231.161 221.118L247.399 231.853L375.497 162.027C375.497 162.027 375.531 161.993 375.599 161.942V161.925Z" fill="#F3F3F4"/>
<path d="M366.315 309.413C366.315 309.413 366.315 309.345 366.315 309.328C366.35 309.175 366.35 309.038 366.35 308.936C366.35 308.527 366.281 304.029 366.281 304.029L362.635 305.767L341.2 293.397C339.326 292.323 336.293 292.323 334.419 293.397L273.147 328.786C273.147 328.786 273.096 328.735 273.079 328.701C271.801 327.423 268.479 328.326 268.479 328.326L268.513 332.45C268.513 332.569 268.513 332.688 268.513 332.807V332.995L268.547 333.012C268.683 333.574 269.126 334.136 269.876 334.579L293.628 348.296C295.502 349.369 298.535 349.369 300.392 348.296L364.935 311.032C365.395 310.759 365.736 310.453 365.958 310.129C365.992 310.095 366.009 310.061 366.026 310.01C366.145 309.822 366.247 309.635 366.281 309.43L366.315 309.413Z" fill="#A7ADBF"/>
<path d="M366.281 304.029L362.635 305.767L341.2 293.397C339.326 292.323 336.293 292.323 334.419 293.397L286.744 320.931L297.189 335.414V349.097C298.365 349.08 299.523 348.807 300.409 348.296L364.952 311.032C365.412 310.759 365.753 310.453 365.975 310.129C366.009 310.095 366.026 310.061 366.043 310.009C366.162 309.822 366.264 309.635 366.298 309.43C366.298 309.396 366.298 309.362 366.298 309.345C366.333 309.192 366.333 309.055 366.333 308.953C366.333 308.544 366.264 304.046 366.264 304.046L366.281 304.029Z" fill="#8189A3"/>
<path d="M364.953 306.67L300.41 343.934C298.535 345.007 295.502 345.007 293.645 343.934L269.893 330.217C268.019 329.144 268.019 327.389 269.893 326.299L334.436 289.035C336.31 287.961 339.343 287.961 341.218 289.035L364.97 302.751C366.844 303.824 366.844 305.579 364.97 306.67H364.953Z" fill="#E2E3E6"/>
<path d="M326.153 311.799L308.961 321.733V284.809L326.153 274.893V311.799Z" fill="#8189A3"/>
<path d="M308.977 321.341L302.996 317.882V280.976L308.977 284.418V321.341Z" fill="#A7ADBF"/>
<path d="M374.308 246.046L239.957 323.607V226.656L374.308 149.095V246.046Z" fill="#444444"/>
<path d="M270.998 269.999C269.382 270.933 268.106 270.591 267.173 268.974L265.172 265.508C264.822 264.903 264.35 264.772 263.755 265.115C263.537 265.241 263.313 265.278 263.084 265.225C262.865 265.166 262.693 265.028 262.567 264.81C262.435 264.581 262.398 264.358 262.457 264.139C262.526 263.914 262.669 263.739 262.887 263.613C263.482 263.269 263.605 262.795 263.256 262.19L261.254 258.723C260.321 257.106 260.663 255.831 262.279 254.898C262.498 254.772 262.719 254.743 262.944 254.812C263.169 254.88 263.344 255.024 263.47 255.242C263.596 255.46 263.63 255.679 263.571 255.898C263.512 256.117 263.374 256.289 263.156 256.415C262.551 256.765 262.423 257.242 262.772 257.847L264.774 261.314C264.974 261.661 265.115 261.996 265.196 262.32C265.277 262.643 265.298 262.955 265.26 263.255C265.812 263.478 266.288 263.937 266.689 264.631L268.691 268.098C269.04 268.703 269.517 268.831 270.122 268.482C270.34 268.356 270.559 268.322 270.778 268.381C270.997 268.439 271.172 268.583 271.304 268.811C271.43 269.029 271.464 269.248 271.405 269.467C271.352 269.696 271.217 269.873 270.998 269.999ZM272.096 265.041C271.818 265.201 271.518 265.242 271.195 265.164C270.876 265.071 270.637 264.885 270.476 264.607C270.31 264.319 270.269 264.019 270.353 263.706C270.441 263.378 270.624 263.133 270.902 262.973C271.189 262.807 271.493 262.771 271.811 262.864C272.124 262.948 272.364 263.134 272.53 263.422C272.69 263.699 272.731 264 272.653 264.322C272.569 264.635 272.383 264.875 272.096 265.041ZM281.003 259.794C280.142 260.291 279.242 260.598 278.302 260.715C277.368 260.815 276.453 260.741 275.558 260.492C274.667 260.226 273.838 259.797 273.071 259.205C272.314 258.607 271.675 257.856 271.153 256.952C270.637 256.059 270.313 255.14 270.179 254.196C270.05 253.236 270.096 252.309 270.317 251.415C270.543 250.505 270.933 249.67 271.487 248.911C272.041 248.151 272.754 247.52 273.626 247.017C274.445 246.544 275.209 246.245 275.916 246.12C276.635 245.989 277.433 245.996 278.311 246.141C278.433 246.156 278.536 246.188 278.622 246.238C278.712 246.271 278.784 246.322 278.837 246.39C278.895 246.442 278.952 246.515 279.007 246.611C279.124 246.813 279.148 247.026 279.079 247.25C279.014 247.458 278.887 247.631 278.697 247.768C278.501 247.896 278.265 247.94 277.987 247.902C277.397 247.789 276.837 247.765 276.308 247.829C275.789 247.888 275.183 248.117 274.492 248.516C273.865 248.878 273.348 249.347 272.943 249.921C272.537 250.496 272.25 251.129 272.083 251.821C271.926 252.507 271.903 253.216 272.012 253.946C272.116 254.666 272.361 255.361 272.748 256.031C273.141 256.712 273.626 257.282 274.204 257.743C274.776 258.192 275.398 258.521 276.071 258.728C276.754 258.929 277.446 258.998 278.146 258.934C278.84 258.859 279.501 258.64 280.128 258.278C280.671 257.965 281.129 257.58 281.503 257.123C281.882 256.649 282.199 256.118 282.456 255.531C282.567 255.282 282.72 255.116 282.913 255.033C283.11 254.933 283.313 254.915 283.52 254.98C283.721 255.034 283.89 255.178 284.025 255.412C284.086 255.518 284.126 255.637 284.145 255.768C284.158 255.888 284.146 256.015 284.11 256.149C283.8 256.938 283.383 257.64 282.858 258.255C282.345 258.863 281.726 259.376 281.003 259.794ZM293.578 252.533C292.643 253.074 291.697 253.414 290.743 253.553C289.783 253.683 288.858 253.628 287.969 253.39C287.084 253.135 286.264 252.708 285.507 252.11C284.745 251.501 284.093 250.729 283.553 249.793C283.012 248.857 282.672 247.912 282.533 246.958C282.393 246.003 282.437 245.085 282.664 244.202C282.896 243.302 283.311 242.474 283.91 241.718C284.502 240.95 285.266 240.297 286.202 239.756C287.137 239.216 288.08 238.884 289.03 238.761C289.984 238.622 290.909 238.676 291.804 238.925C292.693 239.163 293.516 239.581 294.273 240.18C295.029 240.778 295.678 241.545 296.218 242.481C296.758 243.416 297.101 244.367 297.247 245.332C297.387 246.286 297.341 247.213 297.109 248.113C296.871 249.002 296.456 249.83 295.864 250.597C295.276 251.348 294.514 251.993 293.578 252.533ZM292.713 251.034C293.404 250.635 293.966 250.147 294.399 249.571C294.837 248.978 295.142 248.341 295.316 247.659C295.483 246.967 295.507 246.259 295.386 245.534C295.276 244.804 295.022 244.093 294.623 243.402C294.224 242.71 293.735 242.135 293.158 241.674C292.59 241.208 291.968 240.879 291.291 240.689C290.608 240.488 289.903 240.434 289.177 240.527C288.462 240.614 287.758 240.857 287.067 241.256C286.376 241.655 285.809 242.145 285.365 242.728C284.932 243.304 284.632 243.938 284.464 244.63C284.301 245.306 284.275 246.009 284.384 246.739C284.494 247.47 284.749 248.181 285.148 248.872C285.547 249.563 286.035 250.139 286.613 250.6C287.191 251.06 287.816 251.394 288.489 251.601C289.166 251.791 289.865 251.848 290.587 251.772C291.313 251.679 292.021 251.433 292.713 251.034ZM303.247 246.739C303.013 246.874 302.77 246.907 302.519 246.84C302.267 246.773 302.074 246.622 301.939 246.388L295.704 235.589C295.562 235.344 295.529 235.102 295.602 234.861C295.67 234.609 295.82 234.416 296.054 234.281L298.941 232.614C299.856 232.086 300.774 231.761 301.697 231.64C302.624 231.501 303.527 231.554 304.405 231.799C305.277 232.033 306.08 232.441 306.814 233.024C307.547 233.607 308.178 234.356 308.706 235.271C309.234 236.185 309.57 237.111 309.715 238.049C309.853 238.976 309.808 239.881 309.581 240.763C309.347 241.636 308.942 242.444 308.365 243.188C307.792 243.916 307.049 244.544 306.134 245.072L303.247 246.739ZM303.229 244.792L305.287 243.604C306.18 243.088 306.85 242.432 307.298 241.635C307.749 240.821 307.966 239.944 307.948 239.005C307.924 238.054 307.645 237.117 307.111 236.192C306.571 235.256 305.898 234.545 305.093 234.06C304.289 233.574 303.424 233.329 302.499 233.324C301.586 233.313 300.682 233.565 299.789 234.081L297.731 235.269L303.229 244.792ZM315.74 239.526C315.506 239.661 315.263 239.695 315.012 239.627C314.76 239.56 314.567 239.409 314.432 239.175L308.197 228.376C308.056 228.131 308.022 227.889 308.095 227.648C308.163 227.396 308.313 227.203 308.547 227.068L315.757 222.905C316.002 222.764 316.242 222.725 316.476 222.788C316.705 222.84 316.887 222.983 317.022 223.217C317.151 223.44 317.181 223.664 317.112 223.888C317.043 224.112 316.886 224.295 316.641 224.436L310.261 228.12L312.499 231.996L317.077 229.353C317.321 229.212 317.561 229.173 317.796 229.236C318.025 229.288 318.204 229.426 318.332 229.649C318.461 229.872 318.494 230.101 318.431 230.336C318.362 230.561 318.206 230.743 317.961 230.884L313.383 233.528L315.685 237.515L322.066 233.832C322.31 233.69 322.547 233.646 322.776 233.698C323.004 233.75 323.183 233.888 323.312 234.112C323.447 234.346 323.483 234.58 323.42 234.815C323.351 235.039 323.195 235.222 322.95 235.363L315.74 239.526ZM327.931 237.464C327.698 237.599 327.46 237.629 327.219 237.556C326.984 237.493 326.799 237.345 326.664 237.111C326.523 236.866 326.484 236.626 326.547 236.391C326.61 236.157 326.758 235.972 326.992 235.837C327.641 235.462 327.778 234.95 327.403 234.302L325.258 230.585C324.828 229.841 324.657 229.152 324.746 228.52C324.447 228.395 324.169 228.208 323.912 227.959C323.655 227.711 323.419 227.4 323.204 227.028L321.058 223.311C320.684 222.663 320.172 222.526 319.523 222.9C319.289 223.035 319.055 223.071 318.82 223.008C318.585 222.945 318.4 222.797 318.265 222.563C318.13 222.329 318.091 222.089 318.148 221.844C318.205 221.598 318.35 221.408 318.584 221.273C320.317 220.272 321.684 220.639 322.685 222.372L324.831 226.089C325.205 226.737 325.712 226.877 326.35 226.509C326.584 226.374 326.818 226.338 327.053 226.401C327.298 226.458 327.492 226.608 327.633 226.853C327.768 227.087 327.799 227.324 327.725 227.565C327.662 227.8 327.514 227.985 327.28 228.12C326.642 228.489 326.51 228.997 326.885 229.646L329.03 233.362C330.031 235.096 329.665 236.463 327.931 237.464ZM333.601 232.893C333.473 232.967 333.347 232.983 333.224 232.941C333.111 232.892 333.024 232.815 332.962 232.709C332.84 232.496 332.791 232.276 332.816 232.049C332.857 231.827 332.884 231.591 332.897 231.343C332.92 231.088 332.858 230.833 332.711 230.578C332.606 230.397 332.478 230.273 332.325 230.205C332.173 230.137 332.016 230.086 331.854 230.052C331.686 230.007 331.523 229.945 331.364 229.867C331.206 229.788 331.071 229.653 330.96 229.462C330.795 229.175 330.752 228.88 330.833 228.578C330.914 228.276 331.119 228.03 331.449 227.84C331.853 227.607 332.236 227.57 332.598 227.73C332.97 227.884 333.296 228.191 333.577 228.653C333.774 228.993 333.921 229.383 334.019 229.823C334.127 230.257 334.178 230.688 334.171 231.118C334.174 231.541 334.128 231.915 334.032 232.24C333.936 232.565 333.792 232.783 333.601 232.893ZM328.521 223.469C328.223 223.641 327.901 223.685 327.555 223.601C327.214 223.501 326.957 223.301 326.785 223.004C326.607 222.695 326.563 222.373 326.653 222.038C326.747 221.686 326.943 221.424 327.241 221.252C327.549 221.074 327.874 221.035 328.216 221.135C328.552 221.225 328.808 221.424 328.986 221.733C329.158 222.031 329.202 222.352 329.119 222.699C329.029 223.034 328.83 223.291 328.521 223.469Z" fill="white"/>
<path d="M374.41 245.961L240.076 323.539L238.951 322.891L373.285 245.313L374.41 245.961Z" fill="#F3F3F4"/>
<path d="M374.667 246.131L373.27 245.33V148.379L374.684 149.18L374.667 246.131Z" fill="#9FA5B9"/>
<path d="M379.946 143.881C379.946 141.359 378.174 140.337 375.993 141.598L238.268 221.118C236.087 222.379 234.315 225.446 234.315 227.967V328.837C234.315 331.359 236.087 332.381 238.268 331.121L375.993 251.6C378.174 250.339 379.946 247.272 379.946 244.751V143.881ZM239.955 323.606V226.655L374.289 149.095V246.046L239.955 323.606Z" fill="#D0D3DC"/>
<g opacity="0.8">
<path d="M474.321 228.649L355.049 299.054L353.618 298.338V211.235L474.304 141.547L475.718 142.262L474.321 228.649Z" fill="#454C61"/>
<path d="M475.751 229.364L355.048 299.053V211.951L475.751 142.262V229.364Z" fill="#30384F"/>
<path d="M366.377 221.475L363.021 223.418V220.675L366.377 218.732V221.475Z" fill="white"/>
<path d="M415.485 193.123L370.11 219.312V216.568L415.485 190.38V193.123Z" fill="#E4E2DF"/>
<path d="M366.377 227.916L363.021 229.859V227.115L366.377 225.173V227.916Z" fill="white"/>
<path d="M391.068 213.655L370.127 225.752L370.11 223.009L391.068 210.912V213.655Z" fill="#E4E2DF"/>
<path d="M366.377 234.357L363.021 236.299V233.556L366.377 231.614V234.357Z" fill="white"/>
<path d="M401.903 213.842L370.126 232.193V229.45L401.903 211.099V213.842Z" fill="#E4E2DF"/>
<path d="M366.377 240.798L363.021 242.74V239.997L366.377 238.054V240.798Z" fill="white"/>
<path d="M408.071 216.739L370.126 238.634V235.891L408.071 213.979V216.739Z" fill="#E4E2DF"/>
<path d="M366.377 250.169L363.021 252.112V249.351L366.377 247.426V250.169Z" fill="white"/>
<path d="M394.151 234.136L370.126 248.005V245.262L394.151 231.393V234.136Z" fill="#F5D533"/>
<path d="M366.377 256.61L363.021 258.552V255.809L366.377 253.866V256.61Z" fill="white"/>
<path d="M414.222 228.99L370.126 254.446V251.703L414.222 226.247V228.99Z" fill="#F5D533"/>
<path d="M366.377 263.05L363.021 264.993V262.25L366.377 260.307V263.05Z" fill="white"/>
<path d="M387.506 250.851L370.126 260.887V258.144L387.506 248.108V250.851Z" fill="#F5D533"/>
<path d="M366.377 269.491L363.021 271.434V268.69L366.377 266.748V269.491Z" fill="white"/>
<path d="M401.205 249.385L370.126 267.327V264.584L401.205 246.642V249.385Z" fill="#F5D533"/>
<path d="M437.855 179.56L440.428 178.078V175.982L437.855 177.464V179.56Z" fill="white"/>
<path d="M461.079 164.055L443.273 174.329V176.425L461.079 166.151V164.055Z" fill="white"/>
<path d="M437.855 184.467L440.428 182.985V180.889L437.855 182.372V184.467Z" fill="white"/>
<path d="M451.503 174.5L443.273 179.253V181.349L451.503 176.595V174.5Z" fill="white"/>
<path d="M437.855 189.375L440.428 187.91V185.814L437.855 187.279V189.375Z" fill="white"/>
<path d="M455.763 176.953L443.273 184.161V186.257L455.763 179.049V176.953Z" fill="white"/>
<path d="M437.855 194.299L440.428 192.816V190.721L437.855 192.203V194.299Z" fill="white"/>
<path d="M458.165 180.463L443.273 189.068V191.163L458.165 182.559V180.463Z" fill="white"/>
<path d="M437.855 201.438L440.428 199.956V197.86L437.855 199.342V201.438Z" fill="white"/>
<path d="M454.877 189.511L443.273 196.224V198.32L454.877 191.607V189.511Z" fill="white"/>
<path d="M437.855 206.345L440.428 204.863V202.784L437.855 204.25V206.345Z" fill="white"/>
<path d="M443.273 201.132V203.227L464.589 190.925V188.83L443.273 201.132Z" fill="white"/>
<path d="M437.855 211.27L440.428 209.787V207.692L437.855 209.174V211.27Z" fill="white"/>
<path d="M451.674 201.2L443.273 206.039V208.135L451.674 203.296V201.2Z" fill="white"/>
<path d="M437.855 216.177L440.428 214.694V212.599L437.855 214.081V216.177Z" fill="white"/>
<path d="M443.273 213.042L458.302 204.386V202.29L443.273 210.963V213.042Z" fill="white"/>
</g>
<g style="mix-blend-mode:multiply" opacity="0.3">
<path d="M325.741 418.479L263.838 384.248C261.555 382.936 257.858 382.936 255.575 384.248L215.005 406.245C212.722 407.557 213.097 410.914 215.38 412.226L276.805 447.701C279.088 449.013 282.786 449.013 285.069 447.701L325.263 424.494C327.547 423.182 328.024 419.791 325.741 418.479Z" fill="#878FA8"/>
</g>
<path d="M325.248 422.79L285.053 445.997C282.77 447.309 279.073 447.309 276.789 445.997L215.364 410.522C213.081 409.21 212.706 405.853 214.99 404.541L255.559 382.544C257.842 381.232 261.54 381.232 263.823 382.544L325.725 416.775C328.008 418.087 327.531 421.478 325.248 422.79Z" fill="#626879"/>
<path d="M325.249 421.086L285.055 444.293C282.771 445.605 279.074 445.605 276.791 444.293L215.366 408.818C213.083 407.506 213.083 405.359 215.366 404.047L255.56 380.84C257.844 379.528 261.541 379.528 263.824 380.84L325.249 416.315C327.532 417.627 327.532 419.774 325.249 421.086Z" fill="#CBCED9"/>
<path opacity="0.6" d="M278.377 440.425L219.508 406.45L259.702 383.243L318.555 417.218L278.377 440.425Z" fill="#E4E2DF"/>
<path style="mix-blend-mode:overlay" d="M285.482 398.135L259.702 383.243L219.508 406.45L260.043 429.844C260.111 429.486 260.179 429.128 260.282 428.77C263.434 417.406 271.391 405.7 285.499 398.135H285.482Z" fill="url(#paint4_linear_7366_9137)"/>
<path d="M303.457 429.725C304.394 430.27 304.394 431.156 303.457 431.701C302.52 432.247 300.987 432.247 300.032 431.701C299.078 431.156 299.095 430.27 300.032 429.725C300.97 429.18 302.503 429.18 303.457 429.725Z" fill="#666C7D"/>
<g style="mix-blend-mode:multiply" opacity="0.3">
<path d="M447.246 312.19C447.075 311.407 446.82 310.521 446.496 309.618C446.462 309.498 446.411 309.396 446.377 309.277C446.292 309.055 446.206 308.834 446.104 308.595C446.036 308.442 445.985 308.306 445.917 308.152C445.832 307.931 445.729 307.726 445.627 307.505C445.542 307.334 445.474 307.164 445.389 306.994C445.286 306.789 445.184 306.585 445.082 306.38C444.98 306.193 444.877 306.005 444.775 305.818C444.673 305.63 444.571 305.426 444.451 305.239C444.332 305.017 444.196 304.796 444.059 304.574C443.957 304.421 443.872 304.25 443.77 304.097C443.531 303.722 443.293 303.364 443.037 302.989C442.952 302.87 442.867 302.768 442.799 302.666C442.611 302.41 442.424 302.155 442.219 301.899C442.117 301.763 441.998 301.626 441.896 301.49C441.708 301.268 441.538 301.047 441.35 300.843C441.231 300.706 441.112 300.57 440.993 300.434C440.805 300.229 440.618 300.025 440.413 299.837C440.294 299.701 440.158 299.582 440.021 299.462C439.817 299.275 439.612 299.088 439.408 298.9C439.272 298.781 439.152 298.679 439.016 298.559C438.777 298.372 438.556 298.184 438.317 298.014C438.198 297.929 438.096 297.844 437.977 297.758C437.619 297.503 437.261 297.264 436.886 297.043C435.472 296.208 434.16 295.543 432.933 294.998C432.933 294.998 432.933 294.998 432.933 294.981C432.882 294.964 432.848 294.947 432.797 294.93C432.524 294.811 432.269 294.709 431.996 294.606C431.655 294.47 431.314 294.351 430.974 294.231C430.837 294.18 430.684 294.112 430.548 294.078C430.428 294.044 430.326 294.027 430.224 293.993C429.866 293.891 429.525 293.823 429.168 293.737C428.963 293.703 428.759 293.635 428.554 293.618C428.026 293.533 427.515 293.499 427.004 293.499C426.97 293.499 426.935 293.499 426.901 293.499C426.782 293.499 426.663 293.533 426.544 293.533C426.169 293.533 425.794 293.584 425.402 293.635C425.215 293.669 425.027 293.703 424.84 293.737C424.482 293.823 424.107 293.925 423.749 294.044C423.579 294.095 423.408 294.146 423.238 294.214C422.71 294.419 422.182 294.657 421.653 294.947C421.245 295.186 420.836 295.424 420.461 295.697C420.375 295.748 420.29 295.816 420.205 295.867C420.171 295.884 420.137 295.918 420.103 295.935C420.086 295.935 420.052 295.969 420.035 295.986C419.711 296.225 419.404 296.464 419.098 296.719C419.081 296.736 419.046 296.77 419.029 296.787C418.893 296.907 418.774 297.009 418.655 297.128C418.655 297.128 418.655 297.128 418.638 297.145C418.433 297.333 418.246 297.52 418.058 297.724C418.024 297.759 417.99 297.793 417.956 297.827C417.632 298.184 417.326 298.542 417.053 298.934C417.053 298.934 417.036 298.968 417.019 298.968C415.247 301.473 414.838 304.438 416.116 307.948C416.116 307.948 427.447 316.995 434.296 319.108C441.146 321.221 447.535 318.375 447.535 314.167C447.535 313.605 447.45 312.94 447.297 312.224L447.246 312.19Z" fill="#616C8C"/>
</g>
<path d="M415.283 307.13C415.283 307.13 426.869 316.024 433.719 318.12C440.569 320.216 446.958 317.404 446.958 313.179C446.958 308.953 442.681 299.752 436.36 296.055C430.039 292.357 425.83 291.318 421.093 293.942C416.356 296.583 413.187 301.32 415.3 307.113L415.283 307.13Z" fill="#C6CAD6"/>
<path d="M421.075 293.959C417.361 296.021 414.635 299.377 414.635 303.518C414.669 303.603 414.686 303.671 414.703 303.756C414.703 303.756 426.494 312.804 433.48 314.951C439.699 316.859 445.543 314.763 446.719 311.236C445.765 306.585 441.829 299.258 436.342 296.055C430.021 292.374 425.812 291.318 421.075 293.942V293.959Z" fill="#616C8C"/>
<path d="M421.076 293.959C418.844 295.203 416.986 296.907 415.845 298.951C417.344 299.701 418.775 300.331 420.053 300.723C426.272 302.632 432.117 300.536 433.292 297.009C433.718 295.39 433.327 294.998 432.372 293.993C428.113 292.102 424.739 291.914 421.076 293.959Z" fill="white"/>
<path d="M426.341 294.351C428.147 295.424 429.204 297.537 428.761 297.792C428.318 298.065 426.494 297.401 424.688 296.327C422.882 295.254 421.792 294.163 422.252 293.891C422.695 293.618 424.552 293.26 426.358 294.351H426.341Z" fill="#84C8F9"/>
<path d="M176.568 352.283L144.416 375.643C140.309 378.012 130.546 371.332 130.546 366.578V325.975C130.546 321.221 133.868 315.462 137.992 313.077L173.16 292.783C177.266 290.415 187.524 295.288 187.575 299.497L184.014 339.385C184.014 344.138 180.674 349.897 176.568 352.283Z" fill="#E4E2DF"/>
<path d="M132.726 318.666C131.38 321 130.562 323.607 130.562 325.975V366.579C130.562 371.333 140.326 378.012 144.432 375.643L176.584 352.283C178.68 351.073 180.571 348.978 181.935 346.575C166.736 337.971 148.794 325.975 132.743 318.666H132.726Z" fill="#E4E2DF"/>
<g style="mix-blend-mode:multiply">
<path d="M132.726 318.666C131.38 321 130.562 323.607 130.562 325.975V366.579C130.562 371.333 140.326 378.012 144.432 375.643L176.584 352.283C178.68 351.073 180.571 348.978 181.935 346.575C166.736 337.971 148.794 325.975 132.743 318.666H132.726Z" fill="white"/>
</g>
<path d="M180.521 354.924L145.353 375.217C141.247 377.586 137.907 375.66 137.907 370.924V330.32C137.907 325.566 141.23 319.807 145.353 317.422L180.521 297.128C184.628 294.76 187.967 296.685 187.967 301.422V342.026C187.967 346.78 184.645 352.539 180.521 354.924Z" fill="white"/>
<path d="M154.184 347.432C153.039 348.093 151.843 348.501 150.595 348.656C149.353 348.789 148.137 348.69 146.948 348.36C145.764 348.007 144.663 347.437 143.643 346.65C142.638 345.855 141.789 344.857 141.095 343.656C140.41 342.469 139.978 341.249 139.801 339.995C139.629 338.718 139.69 337.487 139.985 336.299C140.285 335.09 140.803 333.98 141.539 332.971C142.276 331.962 143.223 331.123 144.382 330.454C145.47 329.826 146.484 329.429 147.424 329.263C148.379 329.088 149.439 329.098 150.606 329.291C150.768 329.31 150.906 329.353 151.019 329.42C151.139 329.464 151.234 329.531 151.306 329.622C151.383 329.69 151.458 329.788 151.532 329.915C151.687 330.184 151.718 330.467 151.626 330.765C151.541 331.04 151.372 331.27 151.12 331.453C150.859 331.622 150.545 331.681 150.176 331.63C149.392 331.48 148.648 331.448 147.944 331.534C147.255 331.612 146.451 331.916 145.532 332.446C144.698 332.928 144.012 333.55 143.473 334.314C142.934 335.077 142.553 335.918 142.331 336.838C142.122 337.75 142.091 338.691 142.237 339.662C142.375 340.619 142.701 341.542 143.215 342.432C143.737 343.337 144.382 344.095 145.15 344.707C145.909 345.304 146.736 345.741 147.63 346.016C148.537 346.283 149.457 346.374 150.387 346.289C151.31 346.19 152.188 345.9 153.021 345.418C153.742 345.002 154.351 344.491 154.848 343.883C155.351 343.254 155.773 342.548 156.114 341.768C156.262 341.437 156.464 341.217 156.721 341.106C156.984 340.974 157.253 340.95 157.528 341.036C157.796 341.108 158.019 341.299 158.199 341.61C158.28 341.751 158.334 341.909 158.359 342.083C158.375 342.242 158.36 342.411 158.312 342.59C157.9 343.638 157.346 344.57 156.649 345.387C155.967 346.196 155.145 346.877 154.184 347.432ZM165.461 337.53C165.151 337.709 164.832 337.761 164.506 337.686C164.186 337.588 163.936 337.384 163.756 337.073L162.117 334.232L159.276 335.872C158.965 336.052 158.643 336.097 158.308 336.007C157.988 335.909 157.738 335.705 157.559 335.394C157.379 335.083 157.332 334.772 157.415 334.46C157.505 334.125 157.705 333.869 158.016 333.689L160.856 332.049L159.216 329.209C159.045 328.912 159.004 328.597 159.094 328.262C159.197 327.92 159.391 327.667 159.673 327.504C159.998 327.316 160.321 327.271 160.641 327.369C160.953 327.453 161.199 327.65 161.378 327.961L163.018 330.801L165.858 329.161C166.155 328.99 166.471 328.949 166.805 329.039C167.153 329.12 167.413 329.309 167.585 329.606C167.764 329.917 167.802 330.243 167.698 330.586C167.609 330.92 167.415 331.173 167.119 331.344L164.279 332.984L165.918 335.824C166.098 336.135 166.15 336.454 166.074 336.78C165.991 337.092 165.786 337.342 165.461 337.53ZM177.053 330.837C176.742 331.017 176.424 331.069 176.097 330.993C175.777 330.895 175.527 330.691 175.348 330.38L173.708 327.54L170.868 329.18C170.557 329.359 170.234 329.404 169.9 329.315C169.58 329.217 169.33 329.013 169.15 328.702C168.971 328.391 168.923 328.079 169.007 327.767C169.096 327.433 169.296 327.176 169.607 326.997L172.448 325.357L170.808 322.517C170.636 322.22 170.596 321.904 170.685 321.57C170.789 321.228 170.982 320.975 171.265 320.812C171.59 320.624 171.912 320.579 172.232 320.677C172.544 320.76 172.79 320.958 172.97 321.268L174.61 324.109L177.45 322.469C177.747 322.298 178.062 322.257 178.396 322.346C178.745 322.428 179.005 322.617 179.176 322.913C179.356 323.224 179.393 323.551 179.29 323.894C179.2 324.228 179.007 324.481 178.71 324.652L175.87 326.292L177.51 329.132C177.689 329.443 177.741 329.761 177.666 330.088C177.582 330.4 177.378 330.65 177.053 330.837Z" fill="#0075F2"/>
<path style="mix-blend-mode:overlay" opacity="0.7" d="M187.951 312.259V301.422C187.951 296.668 184.611 294.76 180.505 297.128L145.337 317.422C141.23 319.79 137.891 325.566 137.891 330.32V358.996C151.999 338.192 169.498 321.358 187.934 312.259H187.951Z" fill="url(#paint5_linear_7366_9137)"/>
<path d="M451.541 179.305L419.389 202.665C415.283 205.033 405.52 198.354 405.52 193.6V152.997C405.52 148.243 408.842 142.484 412.965 140.098L448.134 119.805C452.24 117.437 462.497 122.31 462.549 126.518L458.987 166.406C458.987 171.16 455.648 176.919 451.541 179.305Z" fill="#E4E2DF"/>
<path d="M407.7 145.704C406.354 148.038 405.536 150.645 405.536 153.014V193.617C405.536 198.371 415.299 205.05 419.406 202.682L451.558 179.322C453.654 178.112 455.545 176.016 456.908 173.614C441.71 165.009 423.768 153.014 407.717 145.704H407.7Z" fill="#E4E2DF"/>
<path d="M407.7 145.704C406.354 148.038 405.536 150.645 405.536 153.014V193.617C405.536 198.371 415.299 205.05 419.406 202.682L451.558 179.322C453.654 178.112 455.545 176.016 456.908 173.614C441.71 165.009 423.768 153.014 407.717 145.704H407.7Z" fill="#E4E2DF"/>
<g style="mix-blend-mode:multiply">
<path d="M407.7 145.704C406.354 148.038 405.536 150.645 405.536 153.014V193.617C405.536 198.371 415.299 205.05 419.406 202.682L451.558 179.322C453.654 178.112 455.545 176.016 456.908 173.614C441.71 165.009 423.768 153.014 407.717 145.704H407.7Z" fill="#E4E2DF"/>
</g>
<path d="M455.495 181.946L420.327 202.239C416.22 204.607 412.881 202.682 412.881 197.945V157.341C412.881 152.588 416.203 146.828 420.327 144.443L455.495 124.15C459.601 121.781 462.941 123.707 462.941 128.444V169.047C462.941 173.801 459.618 179.56 455.495 181.946Z" fill="white"/>
<path d="M423.894 178.485C423.583 178.664 423.26 178.709 422.926 178.62C422.592 178.53 422.335 178.33 422.155 178.019L413.87 163.669C413.683 163.344 413.638 163.022 413.736 162.702C413.825 162.367 414.025 162.11 414.336 161.931L418.575 159.483C419.635 158.872 420.709 158.562 421.798 158.555C422.887 158.548 423.898 158.831 424.832 159.404C425.771 159.954 426.551 160.766 427.171 161.84C427.767 162.872 428.064 163.925 428.062 165C428.075 166.066 427.802 167.062 427.244 167.987C426.685 168.913 425.876 169.681 424.816 170.293L421.679 172.104L424.359 176.746C424.539 177.057 424.584 177.38 424.494 177.714C424.419 178.04 424.219 178.297 423.894 178.485ZM420.505 170.07L423.642 168.259C424.292 167.883 424.782 167.412 425.114 166.843C425.445 166.275 425.609 165.662 425.607 165.005C425.604 164.347 425.419 163.7 425.051 163.064C424.66 162.386 424.176 161.874 423.6 161.528C423.015 161.169 422.39 160.983 421.724 160.972C421.058 160.961 420.4 161.143 419.75 161.518L416.613 163.329L420.505 170.07ZM437.1 170.86C436.789 171.04 436.466 171.085 436.132 170.995C435.798 170.906 435.541 170.705 435.361 170.395L427.076 156.045C426.889 155.72 426.844 155.397 426.942 155.077C427.031 154.743 427.231 154.486 427.542 154.306C427.867 154.119 428.19 154.074 428.51 154.172C428.836 154.247 429.093 154.447 429.281 154.772L432.793 160.855L442.628 155.177L439.116 149.094C438.928 148.769 438.883 148.446 438.981 148.126C439.07 147.792 439.271 147.535 439.581 147.356C439.906 147.168 440.229 147.123 440.549 147.221C440.861 147.304 441.111 147.509 441.299 147.834L449.584 162.183C449.763 162.494 449.815 162.813 449.74 163.139C449.664 163.465 449.464 163.722 449.139 163.91C448.828 164.089 448.505 164.134 448.171 164.044C447.837 163.955 447.58 163.755 447.4 163.444L443.754 157.127L433.919 162.806L437.565 169.122C437.745 169.433 437.79 169.755 437.7 170.09C437.625 170.416 437.425 170.673 437.1 170.86ZM455.563 160.2C455.252 160.38 454.93 160.425 454.595 160.335C454.261 160.246 454.004 160.045 453.825 159.735L445.54 145.385C445.352 145.06 445.307 144.737 445.405 144.417C445.495 144.083 445.695 143.826 446.006 143.646L450.245 141.199C451.305 140.587 452.379 140.278 453.468 140.271C454.557 140.264 455.568 140.547 456.501 141.12C457.441 141.67 458.221 142.482 458.841 143.556C459.436 144.587 459.733 145.641 459.732 146.715C459.745 147.782 459.472 148.778 458.914 149.703C458.355 150.628 457.546 151.397 456.486 152.009L453.349 153.82L456.029 158.462C456.209 158.773 456.253 159.095 456.164 159.43C456.088 159.756 455.888 160.013 455.563 160.2ZM452.174 151.785L455.311 149.974C455.961 149.599 456.452 149.127 456.783 148.559C457.115 147.991 457.279 147.378 457.276 146.72C457.273 146.062 457.088 145.416 456.721 144.78C456.329 144.101 455.845 143.59 455.269 143.244C454.685 142.884 454.06 142.699 453.394 142.688C452.728 142.676 452.07 142.859 451.42 143.234L448.283 145.045L452.174 151.785Z" fill="#0075F2"/>
<g style="mix-blend-mode:overlay" opacity="0.7">
<path d="M462.924 139.28V128.444C462.924 123.69 459.585 121.782 455.478 124.15L420.31 144.443C416.204 146.812 412.864 152.588 412.864 157.342V186.018C426.972 165.214 444.471 148.379 462.907 139.28H462.924Z" fill="#E4E2DF"/>
</g>
<defs>
<linearGradient id="paint0_linear_7366_9137" x1="368.186" y1="129.091" x2="338.078" y2="38.0697" gradientUnits="userSpaceOnUse">
<stop stop-color="#EDFAFF"/>
<stop offset="1" stop-color="#30384F" stop-opacity="0"/>
</linearGradient>
<linearGradient id="paint1_linear_7366_9137" x1="141.164" y1="161.533" x2="111.056" y2="70.512" gradientUnits="userSpaceOnUse">
<stop stop-color="#EDFAFF"/>
<stop offset="1" stop-color="#30384F" stop-opacity="0"/>
</linearGradient>
<linearGradient id="paint2_linear_7366_9137" x1="260.075" y1="107.009" x2="229.968" y2="15.9874" gradientUnits="userSpaceOnUse">
<stop stop-color="#EDFAFF"/>
<stop offset="1" stop-color="#30384F" stop-opacity="0"/>
</linearGradient>
<linearGradient id="paint3_linear_7366_9137" x1="92.5182" y1="293.141" x2="62.4105" y2="202.12" gradientUnits="userSpaceOnUse">
<stop stop-color="#EDFAFF"/>
<stop offset="1" stop-color="#30384F" stop-opacity="0"/>
</linearGradient>
<linearGradient id="paint4_linear_7366_9137" x1="165.107" y1="361.541" x2="311.518" y2="431.059" gradientUnits="userSpaceOnUse">
<stop stop-color="#30384F" stop-opacity="0"/>
<stop offset="1" stop-color="#EDFAFF"/>
</linearGradient>
<linearGradient id="paint5_linear_7366_9137" x1="174.064" y1="363.171" x2="143.956" y2="272.15" gradientUnits="userSpaceOnUse">
<stop stop-color="#EDFAFF"/>
<stop offset="1" stop-color="#30384F" stop-opacity="0"/>
</linearGradient>
</defs>
</svg>
