<svg width="30" height="30" viewBox="0 0 30 30" fill="none" xmlns="http://www.w3.org/2000/svg">
<path d="M30 8.57143V5.35714C30 4.50466 29.6614 3.6871 29.0586 3.0843C28.4558 2.4815 27.6382 2.14286 26.7857 2.14286H22.5V1.07143C22.5 0.787268 22.3871 0.514746 22.1862 0.313814C21.9853 0.112882 21.7127 0 21.4286 0C21.1444 0 20.8719 0.112882 20.671 0.313814C20.47 0.514746 20.3571 0.787268 20.3571 1.07143V2.14286H9.64286V1.07143C9.64286 0.787268 9.52997 0.514746 9.32904 0.313814C9.12811 0.112882 8.85559 0 8.57143 0C8.28727 0 8.01475 0.112882 7.81381 0.313814C7.61288 0.514746 7.5 0.787268 7.5 1.07143V2.14286H3.21429C2.3618 2.14286 1.54424 2.4815 0.941443 3.0843C0.338647 3.6871 0 4.50466 0 5.35714V8.57143H30ZM0 10.7143V26.7857C0 27.6382 0.338647 28.4558 0.941443 29.0586C1.54424 29.6614 2.3618 30 3.21429 30H26.7857C27.6382 30 28.4558 29.6614 29.0586 29.0586C29.6614 28.4558 30 27.6382 30 26.7857V10.7143H0ZM21.0536 16.8846L13.5536 23.3132C13.3486 23.4885 13.085 23.58 12.8155 23.5695C12.546 23.5589 12.2903 23.4472 12.0996 23.2564L8.88536 20.0421C8.69019 19.8401 8.58219 19.5694 8.58463 19.2885C8.58708 19.0076 8.69976 18.7388 8.89841 18.5402C9.09706 18.3415 9.36579 18.2289 9.64671 18.2264C9.92764 18.224 10.1983 18.332 10.4004 18.5271L12.9139 21.0407L19.6639 15.255C19.7702 15.1592 19.8945 15.0857 20.0296 15.0388C20.1647 14.9918 20.3078 14.9724 20.4505 14.9817C20.5932 14.9909 20.7327 15.0286 20.8606 15.0926C20.9885 15.1566 21.1023 15.2455 21.1953 15.3542C21.2883 15.4629 21.3586 15.589 21.402 15.7253C21.4455 15.8615 21.4612 16.0051 21.4483 16.1476C21.4354 16.29 21.3941 16.4284 21.3269 16.5546C21.2596 16.6808 21.1678 16.7923 21.0568 16.8825L21.0536 16.8846Z" fill="#003B79"/>
</svg>
