<svg width="35" height="29" viewBox="0 0 35 29" fill="none" xmlns="http://www.w3.org/2000/svg">
<path d="M9.44029 27.398C10.4896 28.4474 12.193 28.4474 13.2423 27.398L26.2582 14.3822C26.6319 14.0084 26.9194 13.5628 27.1062 13.0885C28.4143 13.455 29.6864 13.6491 30.8076 13.6419C33.5818 13.6275 34.5018 12.4129 34.8037 11.687C35.1055 10.9683 35.3211 9.45898 33.3734 7.47534L33.3087 7.41065C32.1013 6.20322 30.3476 5.08921 28.3568 4.26269C27.9903 4.11176 27.6237 3.97521 27.2644 3.84584V3.82428C27.2428 2.22874 25.9563 0.94224 24.3608 0.920679L16.5627 0.812872C15.5278 0.798498 14.536 1.20098 13.8101 1.93406L0.78699 14.9499C-0.26233 15.9993 -0.26233 17.7026 0.78699 18.7519L9.44029 27.398ZM19.4735 5.47013C20.3432 4.60049 21.7518 4.60049 22.6215 5.47013C23.1389 5.9876 23.3474 6.69913 23.2468 7.36753C24.102 7.97125 25.1226 8.53184 26.215 8.98463C26.6031 9.14275 26.9769 9.28649 27.3362 9.40867L27.2931 6.27509C27.3578 6.30384 27.4153 6.3254 27.48 6.35415C29.1833 7.06567 30.7142 8.02875 31.6988 9.01338L31.7419 9.0565C32.6763 10.0124 32.7769 10.6233 32.6978 10.8102C32.4535 11.3923 29.8302 11.9098 25.8485 10.2496C24.6842 9.76084 23.5917 9.15712 22.7077 8.5031C22.679 8.53903 22.643 8.57497 22.6143 8.6109C21.7446 9.48054 20.336 9.48054 19.4663 8.6109C18.6039 7.74845 18.6039 6.33977 19.4735 5.47013Z" fill="#003B79"/>
</svg>
