<svg width="40" height="41" viewBox="0 0 40 41" fill="none" xmlns="http://www.w3.org/2000/svg">
<g clip-path="url(#clip0_8425_6706)">
<path d="M8.51932 6.66878C8.42234 6.63672 8.32577 6.63672 8.22919 6.63672C7.77798 6.63672 7.39168 6.92676 7.26265 7.37765C7.19821 7.6354 7.23059 7.8933 7.3593 8.11867C7.48818 8.34419 7.71386 8.50528 7.97145 8.60194C8.51932 8.76303 9.06678 8.44085 9.22787 7.92536C9.29231 7.66778 9.26025 7.41003 9.13122 7.18451C9.00259 6.92676 8.77698 6.76567 8.51932 6.66878ZM13.9639 11.3729C14.866 11.3729 15.7359 11.1472 16.5093 10.696C16.8315 10.5029 17.2181 10.5995 17.4114 10.9216C17.6046 11.2438 17.5079 11.6304 17.1857 11.8237C16.2192 12.4038 15.0916 12.6936 13.9639 12.6936C13.7708 12.6936 13.5773 12.6936 13.3841 12.6616" fill="#003B79"/>
<path d="M10.9029 10.344C11.7408 10.9884 12.7715 11.3426 13.835 11.375C14.5759 8.15317 12.6104 4.86693 9.35648 3.96483C9.0343 3.86825 8.71212 3.83587 8.42208 3.77136L9.48551 4.22257C9.29196 4.60919 9.16333 5.02802 9.06636 5.47915C9.61414 5.67238 10.0654 6.02662 10.3551 6.54235C10.6452 7.09006 10.7418 7.70204 10.5807 8.28188C10.291 9.31294 9.35648 9.9573 8.32542 9.9573C8.13227 9.9573 7.90667 9.92525 7.68106 9.86065C7.06916 9.69956 6.58589 9.31294 6.26371 8.76523C5.97358 8.21769 5.87701 7.60538 6.0381 7.02562C6.26363 6.18771 6.94021 5.60787 7.71344 5.41472C7.81009 4.83479 7.97118 4.28709 8.22893 3.7393C6.94021 3.61027 5.68346 3.86825 4.52385 4.51261C3.04182 5.3502 1.97847 6.67098 1.4952 8.31434C0.75418 10.7951 1.55963 13.3726 3.49271 14.919C3.58937 15.0156 3.62175 15.1446 3.58937 15.2412L2.30065 20.1705C2.30065 20.2671 2.30065 20.3316 2.33303 20.396L3.07404 22.0715C3.13848 22.2325 3.07404 22.3936 2.94501 22.4903L1.72072 23.2957C1.59209 23.3923 1.52757 23.5534 1.59209 23.7145L2.20399 25.0032C2.26851 25.1643 2.23645 25.3254 2.07536 25.422L0.883213 26.1954C0.75418 26.2919 0.689663 26.453 0.75418 26.6141L1.36648 27.9028C1.43092 28.0639 1.36648 28.2571 1.23745 28.3216L0.174335 28.9015C0.0132451 28.9983 -0.051191 29.1915 0.0453021 29.3526L1.23745 31.5113C1.26991 31.5758 1.36648 31.64 1.431 31.6724H1.52757C1.59201 31.6724 1.6562 31.6724 1.68866 31.64L4.16945 30.1902C4.23365 30.1581 4.29817 30.0936 4.33054 29.997L8.16433 16.8197C8.19679 16.691 8.29336 16.5944 8.42208 16.5944C10.4841 16.3043 12.3851 14.758 13.3192 12.6958C12.1272 12.5992 10.9674 12.1481 10.0008 11.4071C9.71072 11.1816 9.6466 10.7628 9.87181 10.473C10.194 10.1829 10.6131 10.1184 10.9029 10.344Z" fill="#003B79"/>
<path d="M8.19727 3.70624C9.22792 1.57953 11.4511 0.0976562 13.9641 0.0976562C16.9282 0.0976562 19.5378 2.19183 20.1821 5.02694C20.2466 5.38118 20.021 5.73573 19.6667 5.80025C19.3125 5.86445 18.9579 5.63916 18.8613 5.2846C18.346 3.02934 16.2838 1.38638 13.9319 1.38638C11.9665 1.38638 10.2268 2.51401 9.38909 4.18935" fill="#003B79"/>
<path d="M39.8023 17.3003L28.4939 6.12093C28.2359 5.86294 27.5274 5.2831 26.6895 5.25104L19.376 4.57422H19.1507C18.3773 4.57422 17.7329 4.86434 17.1531 5.44419C16.5408 6.05649 16.2832 6.70085 16.2832 7.6028V7.66739L16.9276 14.9165C16.9276 15.754 17.5397 16.4307 17.7975 16.6884L29.1058 27.8681C29.2349 27.9968 29.396 28.0613 29.5891 28.0613C29.7826 28.0613 29.9437 27.9968 30.0724 27.8681L39.8344 18.2348C40.06 17.9771 40.06 17.5583 39.8023 17.3003ZM24.5632 16.5273C24.4021 16.5273 24.2086 16.4628 24.0799 16.3337C23.8223 16.0761 23.8223 15.6573 24.0799 15.3996L27.3017 12.2099C27.5594 11.9522 27.9783 11.9522 28.2359 12.2099C28.4939 12.4676 28.4939 12.8866 28.2359 13.1444L25.0141 16.3337C24.8854 16.4628 24.7243 16.5273 24.5632 16.5273H24.5632ZM32.0055 16.8495L28.7837 20.0388C28.655 20.1678 28.4939 20.2324 28.3005 20.2324C28.1072 20.2324 27.9461 20.1678 27.8172 20.0388C27.5594 19.7811 27.5594 19.3624 27.8172 19.1047L31.039 15.915C31.2966 15.6572 31.7157 15.6572 31.9733 15.915C32.2631 16.1727 32.2631 16.5917 32.0055 16.8495Z" fill="#003B79"/>
</g>
<defs>
<clipPath id="clip0_8425_6706">
<rect width="40" height="40" fill="white" transform="translate(0 0.046875)"/>
</clipPath>
</defs>
</svg>
