<svg width="34" height="36" viewBox="0 0 34 36" fill="none" xmlns="http://www.w3.org/2000/svg">
<path d="M13.1138 27.5023L9.92 29.0586L7.7 20.8598L10.8225 19.2986C11.9973 18.7109 13.2927 18.4049 14.6063 18.4048H22.3325C23.355 18.4048 24.2438 19.2598 24.2438 20.3161C24.2438 21.2823 23.4625 22.1398 22.4938 22.2186L19.9125 22.4323C18.265 22.5711 18.47 25.0598 20.1187 24.9248L22.6987 24.7111C24.6975 24.5461 26.3125 23.0261 26.6675 21.1086L31.5337 19.7736C31.954 19.6542 32.4038 19.6975 32.7936 19.8948C33.1833 20.0922 33.4844 20.4292 33.6369 20.8386C33.7893 21.248 33.782 21.6999 33.6162 22.1041C33.4505 22.5083 33.1385 22.8353 32.7425 23.0198L22.37 28.6361C21.2278 29.2549 19.8895 29.4046 18.6387 29.0536L13.1138 27.5023ZM7.58875 31.8748L0 35.8898V22.7648L4.3475 20.8148C4.42988 20.7779 4.51928 20.7592 4.60956 20.7602C4.69983 20.7611 4.78883 20.7815 4.87044 20.8201C4.95205 20.8588 5.02432 20.9146 5.08229 20.9838C5.14026 21.053 5.18255 21.1339 5.20625 21.2211L7.89875 31.1586C7.93601 31.2954 7.92562 31.4409 7.86929 31.571C7.81295 31.7012 7.71402 31.8083 7.58875 31.8748ZM22.6463 0.199804L21.5938 1.6348C21.5528 1.69014 21.497 1.73269 21.4328 1.75748C21.3687 1.78227 21.2987 1.78828 21.2313 1.7748C20.4173 1.6198 19.5814 1.6198 18.7675 1.7748C18.7002 1.78818 18.6305 1.78212 18.5665 1.75733C18.5025 1.73254 18.447 1.69004 18.4062 1.6348L17.3538 0.199804C17.299 0.125363 17.2188 0.073736 17.1284 0.0548207C17.0379 0.0359053 16.9437 0.0510335 16.8638 0.0973046L14.3862 1.5273C14.3062 1.57363 14.2461 1.64778 14.2173 1.73562C14.1885 1.82346 14.193 1.91884 14.23 2.00355L14.9487 3.6373C14.9765 3.70031 14.9856 3.76995 14.9749 3.83797C14.9643 3.90598 14.9344 3.96952 14.8888 4.02105C14.3491 4.64821 13.9296 5.36941 13.6512 6.14855C13.6292 6.21352 13.5893 6.27092 13.5359 6.31406C13.4826 6.35721 13.4181 6.38434 13.35 6.3923L11.5837 6.58605C11.4918 6.59623 11.4069 6.64002 11.3453 6.709C11.2837 6.77799 11.2497 6.86731 11.25 6.9598V9.82106C11.2501 9.91333 11.2841 10.0023 11.3457 10.0711C11.4073 10.1398 11.492 10.1834 11.5837 10.1936L13.35 10.3873C13.4182 10.3951 13.4827 10.4222 13.5361 10.4654C13.5894 10.5085 13.6294 10.566 13.6512 10.6311C13.93 11.4186 14.355 12.1373 14.8888 12.7586C14.9344 12.8101 14.9643 12.8736 14.9749 12.9416C14.9856 13.0097 14.9765 13.0793 14.9487 13.1423L14.23 14.7761C14.1927 14.8607 14.188 14.9562 14.2169 15.0441C14.2457 15.132 14.306 15.2062 14.3862 15.2523L16.8638 16.6836C16.9437 16.7298 17.0379 16.745 17.1284 16.726C17.2188 16.7071 17.299 16.6555 17.3538 16.5811L18.4062 15.1461C18.447 15.0908 18.5025 15.0483 18.5665 15.0235C18.6305 14.9987 18.7002 14.9927 18.7675 15.0061C19.5814 15.1617 20.4174 15.1617 21.2313 15.0061C21.2985 14.9927 21.3683 14.9987 21.4322 15.0235C21.4962 15.0483 21.5518 15.0908 21.5925 15.1461L22.645 16.5811C22.6997 16.6555 22.78 16.7071 22.8704 16.726C22.9608 16.745 23.055 16.7298 23.135 16.6836L25.6125 15.2536C25.6925 15.2072 25.7527 15.1331 25.7815 15.0452C25.8103 14.9574 25.8058 14.862 25.7687 14.7773L25.05 13.1436C25.0223 13.0805 25.0132 13.0109 25.0238 12.9429C25.0344 12.8749 25.0644 12.8113 25.11 12.7598C25.6497 12.1327 26.0692 11.4115 26.3475 10.6323C26.3695 10.5673 26.4095 10.5099 26.4628 10.4668C26.5161 10.4237 26.5806 10.3965 26.6488 10.3886L28.415 10.1948C28.5072 10.1844 28.5922 10.1404 28.654 10.0712C28.7158 10.002 28.75 9.91255 28.75 9.8198V6.95855C28.7499 6.86628 28.7159 6.77726 28.6543 6.70854C28.5927 6.63981 28.508 6.5962 28.4163 6.58605L26.65 6.39355C26.5818 6.38574 26.5173 6.35866 26.4639 6.31549C26.4106 6.27232 26.3706 6.21485 26.3488 6.1498C26.0712 5.37029 25.6516 4.64895 25.1113 4.0223C25.0656 3.97077 25.0357 3.90723 25.0251 3.83922C25.0144 3.7712 25.0235 3.70156 25.0513 3.63855L25.77 2.0048C25.8073 1.92013 25.812 1.82465 25.7831 1.73674C25.7543 1.64883 25.694 1.57468 25.6137 1.52855L23.1363 0.0973046C23.0563 0.0510335 22.9621 0.0359053 22.8716 0.0548207C22.7812 0.073736 22.701 0.125363 22.6463 0.199804ZM22.7063 9.9523C22.5026 10.3106 22.23 10.625 21.9043 10.8775C21.5786 11.13 21.2061 11.3156 20.8084 11.4236C20.4107 11.5316 19.9955 11.5598 19.5868 11.5067C19.1782 11.4536 18.784 11.3201 18.4271 11.1141C18.0702 10.908 17.7576 10.6334 17.5072 10.306C17.2569 9.97861 17.0738 9.60495 16.9684 9.20651C16.8631 8.80808 16.8376 8.39274 16.8934 7.98441C16.9493 7.57609 17.0853 7.18284 17.2938 6.8273C17.7111 6.11541 18.3931 5.59749 19.1909 5.38656C19.9887 5.17564 20.8375 5.28883 21.5522 5.70145C22.2668 6.11406 22.7893 6.7926 23.0055 7.58898C23.2217 8.38536 23.1141 9.23493 22.7063 9.9523Z" fill="#003B79"/>
</svg>
