<svg width="164" height="26" viewBox="0 0 164 26" fill="none" xmlns="http://www.w3.org/2000/svg">
<g clip-path="url(#clip0_8669_8010)">
<path d="M13.5571 4.43917C9.70824 4.43917 8.50792 6.18131 7.73815 7.39126C7.54244 6.48152 7.25542 4.53924 3.79146 4.53924C2.98815 4.52693 2.19853 4.6856 1.52781 4.99411C0.0404595 5.73099 -0.0117188 6.97278 -0.0117188 7.90981V22.4383C-0.0117188 23.5118 0.0404697 24.649 1.43649 25.4223C2.15648 25.7956 3.03853 25.985 3.93497 25.959C4.88952 25.987 5.82324 25.7592 6.54436 25.3222C7.79687 24.5171 7.84905 23.4436 7.84905 22.4383V19.9866C7.98853 20.2349 8.168 20.4715 8.38398 20.6916C8.94714 21.3062 9.73273 21.8065 10.6616 22.1419C11.5904 22.4773 12.6296 22.636 13.6745 22.6021C14.7219 22.6417 15.7644 22.4776 16.6859 22.1282C17.6074 21.7789 18.3716 21.2579 18.8933 20.6234C19.9501 19.3498 20.1001 17.8077 20.1001 14.7556C20.1001 9.58828 20.1001 7.4413 18.3649 5.89929C17.7806 5.41273 17.0422 5.02755 16.2078 4.77415C15.3734 4.52075 14.4659 4.40607 13.5571 4.43917ZM12.0632 16.6842C12.0632 17.0461 11.857 17.3932 11.49 17.6491C11.123 17.9051 10.6252 18.0488 10.1062 18.0488C9.83631 18.0543 9.56764 18.0219 9.31618 17.9534C9.06472 17.8848 8.83565 17.7817 8.64263 17.6501C8.44961 17.5185 8.29661 17.3611 8.19277 17.1873C8.08892 17.0136 8.03637 16.827 8.03824 16.6387C7.94039 16.1338 7.94039 13.7549 7.94039 13.0817C7.94039 10.166 7.94038 8.92417 10.1518 8.92417C10.6365 8.91456 11.1082 9.03372 11.4716 9.25752C11.8349 9.48133 12.0627 9.79305 12.1089 10.1296C12.2485 11.0358 12.2965 11.9478 12.2524 12.8588C12.2949 14.1352 12.2361 15.4123 12.0763 16.6842H12.0632Z" fill="#1D1D1B"/>
<path d="M149.517 12.8226L152.309 8.86527C152.72 8.31262 152.967 7.7076 153.033 7.08673C153.024 6.75701 152.92 6.4319 152.728 6.13066C152.535 5.82941 152.258 5.55816 151.913 5.33294C151.567 5.10773 151.16 4.93314 150.716 4.8195C150.272 4.70587 149.8 4.6555 149.328 4.67138C147.019 4.67138 146.249 5.9814 145.668 6.91843L142.406 12.5224V4.4394C142.406 3.46598 142.309 2.36065 140.958 1.51915C140.244 1.11243 139.335 0.909308 138.414 0.95056C137.497 0.936914 136.599 1.137 135.863 1.51915C134.513 2.22419 134.559 3.42959 134.559 4.37117V18.8087C134.559 19.9504 134.604 21.6607 137.201 22.1656C137.647 22.2823 138.12 22.3394 138.597 22.3339C142.348 22.3339 142.4 20.0596 142.4 18.8087V13.091L145.662 20.005C146.19 21.0103 146.914 22.3521 149.576 22.3521C151.591 22.3521 153.327 21.4424 153.327 19.9004C153.274 19.2709 153.052 18.6538 152.674 18.0809L149.517 12.8226Z" fill="#1D1D1B"/>
<path d="M43.0623 13.6962C43.0623 10.1072 42.9644 7.78286 40.2181 6.1135C38.6785 5.17647 36.4671 4.50781 32.9574 4.50781C29.2978 4.50781 25.9317 5.37661 24.2486 7.62366C23.3353 8.86545 22.9961 10.3529 22.9961 13.9645C22.9961 16.9849 23.2375 19.4684 26.3165 21.1424C28.2736 22.2158 30.5959 22.5524 33.1009 22.5524C37.6217 22.5524 40.9291 21.1878 42.2925 18.7634C43.108 17.2851 43.0623 15.5429 43.0623 13.6962ZM35.5994 13.3505C35.5994 14.3239 35.5538 17.276 35.2146 18.0129C34.9797 18.5178 34.497 18.9226 33.1009 18.9226C30.6938 18.9226 30.5503 17.8127 30.5503 13.9554C30.5503 12.982 30.5503 10.0299 30.7917 9.2248C30.8895 8.89274 31.1309 8.08762 33.0553 8.08762C35.2146 8.08762 35.4559 9.16112 35.5538 9.96623C35.6516 10.6758 35.5994 13.1958 35.5994 13.3505Z" fill="#1D1D1B"/>
<path d="M162.558 1.55437C161.831 1.1557 160.931 0.942234 160.007 0.949393C159.058 0.945935 158.136 1.17086 157.397 1.58621C156.093 2.35948 156.047 3.42842 156.047 4.40184V19.0622C156.047 20.0675 156.093 21.7141 158.695 22.2463C159.149 22.3393 159.619 22.3837 160.092 22.3782C161.038 22.4033 161.965 22.1883 162.701 21.7733C163.901 21.0364 164.006 19.9993 164.006 19.0441V4.47007C163.999 3.53304 163.901 2.29126 162.558 1.55437Z" fill="#1D1D1B"/>
<path d="M64.4376 5.8803C63.8555 5.40147 63.1233 5.02239 62.2975 4.77236C61.4718 4.52233 60.5747 4.40806 59.6755 4.43837C55.8267 4.43837 54.6198 6.18051 53.85 7.39046C53.6609 6.48073 53.3738 4.53844 49.936 4.53844C49.1323 4.52438 48.342 4.6832 47.6723 4.99331C46.1785 5.7302 46.1328 6.97198 46.1328 7.90901V22.4375C46.1328 23.511 46.1785 24.6482 47.5745 25.4214C48.2974 25.7941 49.1812 25.9834 50.0795 25.9582C51.034 25.9862 51.9678 25.7584 52.6889 25.3214C53.9414 24.5163 53.9936 23.4428 53.9936 22.4375V19.9858C54.1307 20.234 54.308 20.4706 54.522 20.6908C55.0861 21.3048 55.8719 21.8045 56.8005 22.1398C57.7291 22.4752 58.7678 22.6343 59.8125 22.6013C60.8597 22.6403 61.902 22.4761 62.8233 22.1267C63.7447 21.7774 64.509 21.2567 65.0313 20.6226C66.0881 19.3489 66.2316 17.8069 66.2316 14.7548C66.1468 9.56928 66.1468 7.43595 64.4376 5.8803ZM58.1816 16.6834C58.1816 17.0453 57.9754 17.3924 57.6084 17.6483C57.2414 17.9043 56.7436 18.048 56.2246 18.048C55.9547 18.0535 55.6861 18.0211 55.4346 17.9526C55.1831 17.884 54.9541 17.7809 54.761 17.6493C54.568 17.5177 54.415 17.3603 54.3112 17.1865C54.2074 17.0128 54.1548 16.8262 54.1567 16.6379C54.0588 16.133 54.0588 13.7541 54.0588 13.0809C54.0588 10.1652 54.0588 8.92337 56.2703 8.92337C56.7557 8.91156 57.2292 9.02995 57.5932 9.25418C57.9573 9.47841 58.1842 9.79141 58.2273 10.1288C58.3762 11.0346 58.4263 11.9469 58.3773 12.858C58.4068 14.1349 58.3349 15.412 58.1621 16.6834H58.1816Z" fill="#1D1D1B"/>
<path d="M79.1867 10.843C78.1234 10.5109 77.1188 10.1061 77.1188 9.23272C77.1138 9.06899 77.1589 8.90639 77.2509 8.75572C77.3429 8.60505 77.4798 8.46974 77.6526 8.35877C77.8253 8.24779 78.0299 8.16369 78.2528 8.11204C78.4756 8.06038 78.7117 8.04236 78.9453 8.05916C80.1978 8.05916 80.5306 8.5959 80.8698 9.16904C81.0631 9.60757 81.462 9.98811 82.0027 10.2496C82.5433 10.5111 83.1942 10.6383 83.851 10.611C84.2948 10.6318 84.7398 10.5862 85.1562 10.4772C85.5726 10.3682 85.9507 10.1983 86.2652 9.97904C86.5797 9.75975 86.8233 9.49609 86.9796 9.20575C87.1359 8.91541 87.2013 8.60511 87.1715 8.29569C87.1556 7.48865 86.6873 6.71801 85.8668 6.14871C84.1837 4.97515 81.4373 4.57031 78.7953 4.57031C77.3471 4.57031 69.271 4.57031 69.271 9.73762C69.271 12.9217 72.1087 13.8951 74.6594 14.7412C78.0255 15.8465 79.4216 16.4151 79.4216 17.4704C79.4216 18.1072 78.7692 18.744 77.2036 18.744C76.8771 18.7673 76.5481 18.7227 76.2579 18.6158C75.9677 18.509 75.7293 18.3447 75.5727 18.1436C75.4135 17.8471 75.2848 17.5431 75.1878 17.2339C74.8943 16.5334 73.8831 15.8965 72.2 15.8965C70.243 15.8965 68.5469 16.597 68.5469 18.412C68.5469 20.891 71.8673 22.5695 77.4971 22.5695C80.3348 22.5695 83.2704 22.201 85.1949 20.7909C86.5898 19.7469 87.3335 18.3597 87.2628 16.9337C87.2693 13.6631 84.4316 12.6579 79.1867 10.843Z" fill="#1D1D1B"/>
<path d="M105.261 15.9114C102.899 15.9114 102.325 16.9485 102.181 17.1532C102.09 17.3719 102.024 17.5955 101.986 17.8218C101.961 17.9966 101.886 18.166 101.765 18.3202C101.645 18.4744 101.481 18.6103 101.284 18.7196C101.087 18.829 100.861 18.9098 100.618 18.9572C100.376 19.0045 100.122 19.0175 99.8722 18.9954C97.465 18.9954 97.465 17.5216 97.4194 14.7696H105.065C107.57 14.7696 109.494 14.6696 109.494 11.6174C109.494 9.13383 109.057 4.50781 99.7091 4.50781C95.795 4.50781 92.9704 5.41755 91.4308 6.78215C89.6499 8.36055 89.5586 10.4211 89.5586 14.2647C89.5586 17.0804 89.6043 19.2273 92.2528 20.9058C93.2117 21.5062 95.2797 22.5479 99.8983 22.5479C103.604 22.5479 105.717 21.811 106.781 21.1378C107.377 20.7803 107.858 20.3382 108.189 19.8408C108.521 19.3435 108.697 18.8024 108.705 18.2539C108.724 16.7847 107.276 15.9114 105.261 15.9114ZM98.0847 8.73354C98.2836 8.58013 98.5292 8.45967 98.8035 8.38097C99.0778 8.30227 99.3738 8.26732 99.67 8.27868C101.881 8.27868 101.881 9.45678 101.934 11.2308H97.4585C97.5107 9.83887 97.5629 9.17022 98.0913 8.73354H98.0847Z" fill="#1D1D1B"/>
<path d="M127.581 15.9114C125.226 15.9114 124.652 16.9485 124.502 17.1532C124.413 17.372 124.349 17.5957 124.313 17.8218C124.287 17.9967 124.211 18.1663 124.09 18.3206C123.969 18.4748 123.805 18.6106 123.607 18.7199C123.41 18.8293 123.183 18.9099 122.94 18.9573C122.697 19.0046 122.443 19.0175 122.193 18.9954C119.792 18.9954 119.792 17.5216 119.74 14.7696H127.392C129.89 14.7696 131.815 14.6696 131.815 11.6174C131.815 9.13383 131.384 4.50781 122.029 4.50781C118.115 4.50781 115.297 5.41755 113.758 6.78215C111.977 8.36055 111.879 10.4211 111.879 14.2647C111.879 17.0804 111.931 19.2273 114.573 20.9058C115.539 21.5062 117.607 22.5479 122.225 22.5479C125.93 22.5479 128.044 21.811 129.101 21.1378C129.705 20.7832 130.192 20.3422 130.53 19.8445C130.868 19.3469 131.048 18.8044 131.058 18.2539C131.045 16.7847 129.603 15.9114 127.581 15.9114ZM120.405 8.73354C120.604 8.58013 120.85 8.45967 121.124 8.38097C121.398 8.30227 121.694 8.26732 121.99 8.27868C124.202 8.27868 124.202 9.45678 124.254 11.2308H119.779C119.838 9.83887 119.89 9.17022 120.418 8.73354H120.405Z" fill="#1D1D1B"/>
</g>
<defs>
<clipPath id="clip0_8669_8010">
<rect width="164" height="24.9905" fill="white" transform="translate(0 0.949219)"/>
</clipPath>
</defs>
</svg>
