<svg width="50" height="50" viewBox="0 0 50 50" fill="none" xmlns="http://www.w3.org/2000/svg">
<rect width="50" height="50" rx="10" fill="#0075F2"/>
<path d="M26.5375 18.75C25.715 18.7533 24.9113 18.9965 24.225 19.45L21.45 21.25C20.362 21.9762 19.0831 22.3633 17.775 22.3625H10V34.4875C10 35.1505 10.2634 35.7864 10.7322 36.2553C11.2011 36.7241 11.837 36.9875 12.5 36.9875H37.5C38.163 36.9875 38.7989 36.7241 39.2678 36.2553C39.7366 35.7864 40 35.1505 40 34.4875V18.75H26.5375ZM19.725 31.425C19.9481 31.669 20.0655 31.9914 20.0515 32.3217C20.0374 32.6521 19.893 32.9634 19.65 33.1875C19.4195 33.4033 19.1158 33.5239 18.8 33.525C18.6277 33.5229 18.4577 33.4851 18.3006 33.4141C18.1436 33.3431 18.0029 33.2404 17.8875 33.1125L14.5375 29.475C14.3267 29.2446 14.2098 28.9436 14.2098 28.6312C14.2098 28.3189 14.3267 28.0179 14.5375 27.7875L17.8875 24.15C18.1116 23.907 18.4229 23.7626 18.7533 23.7485C19.0836 23.7345 19.406 23.8519 19.65 24.075C19.7722 24.1862 19.8712 24.3205 19.9411 24.4701C20.0111 24.6198 20.0507 24.7818 20.0577 24.9469C20.0647 25.1119 20.0389 25.2767 19.9818 25.4317C19.9247 25.5868 19.8374 25.7289 19.725 25.85L17.15 28.6375L19.725 31.425ZM27.4 25.725L24.6375 32.2125C24.5418 32.4384 24.3817 32.6312 24.1772 32.7668C23.9727 32.9024 23.7329 32.9748 23.4875 32.975C23.3195 32.9793 23.1527 32.9451 23 32.875C22.6983 32.7454 22.4596 32.5024 22.3357 32.1983C22.2117 31.8942 22.2124 31.5536 22.3375 31.25L25.1 24.75C25.2318 24.4474 25.478 24.2093 25.7848 24.0875C26.0915 23.9657 26.434 23.9702 26.7375 24.1C27.0392 24.2296 27.2779 24.4726 27.4018 24.7767C27.5258 25.0808 27.5251 25.4214 27.4 25.725ZM35.475 29.475L32.125 33.1125C32.0096 33.2404 31.8689 33.3431 31.7119 33.4141C31.5548 33.4851 31.3848 33.5229 31.2125 33.525C30.9686 33.5267 30.7295 33.4569 30.5247 33.3243C30.3199 33.1918 30.1584 33.0022 30.06 32.7789C29.9617 32.5557 29.9308 32.3085 29.9713 32.0679C30.0117 31.8274 30.1216 31.6039 30.2875 31.425L32.8625 28.6375L30.2875 25.85C30.1759 25.7293 30.0891 25.5879 30.0322 25.4337C29.9752 25.2795 29.9492 25.1156 29.9556 24.9514C29.9684 24.6197 30.1126 24.3067 30.3562 24.0812C30.5999 23.8558 30.9232 23.7364 31.2549 23.7493C31.5866 23.7622 31.8996 23.9063 32.125 24.15L35.475 27.7875C35.6858 28.0179 35.8027 28.3189 35.8027 28.6312C35.8027 28.9436 35.6858 29.2446 35.475 29.475Z" fill="white"/>
<path d="M37.5 12.9502H12.5C11.837 12.9502 11.2011 13.2136 10.7322 13.6824C10.2634 14.1513 10 14.7872 10 15.4502V19.9127H17.7875C18.6047 19.9122 19.404 19.6732 20.0875 19.2252L22.8625 17.3877C23.9737 16.6514 25.2796 16.264 26.6125 16.2752H40V15.4502C40 14.7872 39.7366 14.1513 39.2678 13.6824C38.7989 13.2136 38.163 12.9502 37.5 12.9502ZM14.125 18.3002C13.8778 18.3002 13.6361 18.2269 13.4305 18.0895C13.225 17.9522 13.0648 17.757 12.9702 17.5285C12.8755 17.3001 12.8508 17.0488 12.899 16.8063C12.9473 16.5639 13.0663 16.3411 13.2411 16.1663C13.4159 15.9915 13.6387 15.8724 13.8811 15.8242C14.1236 15.776 14.3749 15.8007 14.6034 15.8953C14.8318 15.99 15.027 16.1502 15.1643 16.3557C15.3017 16.5613 15.375 16.803 15.375 17.0502C15.375 17.3817 15.2433 17.6997 15.0089 17.9341C14.7745 18.1685 14.4565 18.3002 14.125 18.3002ZM17.625 18.3002C17.3778 18.3002 17.1361 18.2269 16.9305 18.0895C16.725 17.9522 16.5648 17.757 16.4702 17.5285C16.3755 17.3001 16.3508 17.0488 16.399 16.8063C16.4473 16.5639 16.5663 16.3411 16.7411 16.1663C16.9159 15.9915 17.1387 15.8724 17.3811 15.8242C17.6236 15.776 17.8749 15.8007 18.1034 15.8953C18.3318 15.99 18.527 16.1502 18.6643 16.3557C18.8017 16.5613 18.875 16.803 18.875 17.0502C18.875 17.3817 18.7433 17.6997 18.5089 17.9341C18.2745 18.1685 17.9565 18.3002 17.625 18.3002Z" fill="white"/>
</svg>
