<svg width="50" height="50" viewBox="0 0 50 50" fill="none" xmlns="http://www.w3.org/2000/svg">
<rect width="50" height="50" rx="10" fill="#CC8B00"/>
<path fill-rule="evenodd" clip-rule="evenodd" d="M37.8565 12.7129C38.6809 12.7129 39.3555 13.3874 39.3555 14.2118V30.7592H10.6445V14.2118C10.6445 13.3874 11.319 12.7129 12.1434 12.7129H37.8565ZM30.9998 34.8084H19.0002L17.5558 37.287H32.4442L30.9998 34.8084ZM25 18.5976C23.121 18.5976 21.5979 20.1207 21.5979 21.9997C21.5979 23.8787 23.121 25.4018 25 25.4018C26.8789 25.4018 28.4021 23.8786 28.4021 21.9997C28.4021 20.1208 26.8789 18.5976 25 18.5976ZM39.3555 31.8139V32.2549C39.3555 33.0793 38.6809 33.7538 37.8565 33.7538H12.1434C11.319 33.7538 10.6445 33.0794 10.6445 32.2549V31.8139H39.3555ZM23.7436 14.4704V16.2077C23.0386 16.3599 22.3802 16.6372 21.793 17.0158L20.5645 15.7872L18.7875 17.5641L20.0162 18.7928C19.6376 19.3799 19.3603 20.0382 19.208 20.7433H17.4707V23.2562H19.2079C19.3602 23.9611 19.6376 24.6196 20.0161 25.2067L18.7875 26.4353L20.5644 28.2122L21.793 26.9836C22.3802 27.3621 23.0385 27.6395 23.7435 27.7918V29.5291H26.2564V27.7918C26.9614 27.6395 27.6198 27.3621 28.2069 26.9836L29.4355 28.2122L31.2125 26.4353L29.9838 25.2067C30.3623 24.6195 30.6398 23.9611 30.7919 23.2562H32.5292V20.7433H30.7919C30.6396 20.0382 30.3624 19.3798 29.9838 18.7928L31.2125 17.5642L29.4355 15.7872L28.2069 17.016C27.6197 16.6374 26.9614 16.36 26.2564 16.2078V14.4705L23.7436 14.4704Z" fill="white"/>
</svg>
