<svg width="50" height="50" viewBox="0 0 50 50" fill="none" xmlns="http://www.w3.org/2000/svg">
<rect width="50" height="50" rx="10" fill="#7EDE4A"/>
<g clip-path="url(#clip0_68_175)">
<path d="M36.7 22.45C36.4 21.1 35.8 19.75 35.05 18.55L36.55 15.4L34.45 13.3L31.3 14.8C30.1 14.05 28.9 13.6 27.55 13.3L26.5 10H23.5L22.3 13.3C20.95 13.6 19.75 14.2 18.55 14.95L15.4 13.45L13.3 15.4L14.8 18.55C14.05 19.75 13.6 20.95 13.3 22.3L10 23.5V26.5L13.3 27.7C13.6 29.05 14.2 30.4 14.8 31.45L13.3 34.6L15.4 36.7L18.55 35.2C19.75 35.95 20.95 36.55 22.3 36.85L23.5 40H26.5L27.7 36.7C28.15 36.55 28.75 36.4 29.2 36.25L26.8 33.85C21.1 34.9 16 30.7 16 25C16 20.05 20.05 16 25 16C30.55 16 34.75 20.95 33.85 26.2L36.4 28.75C36.55 28.3 36.7 28 36.7 27.55L40 26.5V23.5L36.7 22.45Z" fill="white"/>
<path d="M39.3998 36.1003L30.5498 27.2503C32.6498 22.6003 28.2998 17.6503 23.4998 19.0003L26.1998 21.7003C27.3998 22.9003 27.3998 24.8503 26.1998 25.9003C25.1498 27.1003 23.0498 27.1003 21.9998 25.9003L19.2998 23.3503C17.9498 27.5503 22.2998 32.3503 27.2498 30.4003L36.0998 39.2503C36.9998 40.1503 38.3498 40.1503 39.2498 39.2503C40.1498 38.5003 40.1498 37.0003 39.3998 36.1003Z" fill="white"/>
</g>
<defs>
<clipPath id="clip0_68_175">
<rect width="30" height="30" fill="white" transform="translate(10 10)"/>
</clipPath>
</defs>
</svg>
