<svg width="50" height="50" viewBox="0 0 50 50" fill="none" xmlns="http://www.w3.org/2000/svg">
<rect width="50" height="50" rx="10" fill="#F97261"/>
<path fill-rule="evenodd" clip-rule="evenodd" d="M24 29.0004C24 28.2044 23.684 27.4413 23.121 26.8793C22.559 26.3163 21.796 26.0004 21 26.0004C19.014 26.0004 15.986 26.0004 14 26.0004C13.204 26.0004 12.441 26.3163 11.879 26.8793C11.316 27.4413 11 28.2044 11 29.0004V36.0004C11 36.7964 11.316 37.5594 11.879 38.1214C12.441 38.6844 13.204 39.0004 14 39.0004H21C21.796 39.0004 22.559 38.6844 23.121 38.1214C23.684 37.5594 24 36.7964 24 36.0004V29.0004ZM39 29.0004C39 28.2044 38.684 27.4413 38.121 26.8793C37.559 26.3163 36.796 26.0004 36 26.0004C34.014 26.0004 30.986 26.0004 29 26.0004C28.204 26.0004 27.441 26.3163 26.879 26.8793C26.316 27.4413 26 28.2044 26 29.0004V36.0004C26 36.7964 26.316 37.5594 26.879 38.1214C27.441 38.6844 28.204 39.0004 29 39.0004H36C36.796 39.0004 37.559 38.6844 38.121 38.1214C38.684 37.5594 39 36.7964 39 36.0004V29.0004ZM34.621 23.7934L38.793 19.6214C39.964 18.4504 39.964 16.5503 38.793 15.3793L34.621 11.2074C33.45 10.0364 31.55 10.0364 30.379 11.2074L26.207 15.3793C25.036 16.5503 25.036 18.4504 26.207 19.6214L30.379 23.7934C31.55 24.9644 33.45 24.9644 34.621 23.7934ZM24 14.0004C24 13.2044 23.684 12.4413 23.121 11.8793C22.559 11.3163 21.796 11.0004 21 11.0004C19.014 11.0004 15.986 11.0004 14 11.0004C13.204 11.0004 12.441 11.3163 11.879 11.8793C11.316 12.4413 11 13.2044 11 14.0004V21.0004C11 21.7964 11.316 22.5594 11.879 23.1214C12.441 23.6844 13.204 24.0004 14 24.0004H21C21.796 24.0004 22.559 23.6844 23.121 23.1214C23.684 22.5594 24 21.7964 24 21.0004V14.0004Z" fill="white"/>
</svg>
