<svg width="50" height="50" viewBox="0 0 50 50" fill="none" xmlns="http://www.w3.org/2000/svg">
<rect width="50" height="50" rx="10" fill="#FECC2C"/>
<path fill-rule="evenodd" clip-rule="evenodd" d="M31.6981 18.2087C31.6981 18.8124 31.2081 19.3024 30.6043 19.3024C30.0006 19.3024 29.5106 18.8124 29.5106 18.2087V16.0212C29.5106 13.806 27.7154 12.0107 25.5002 12.0107C23.285 12.0107 21.4897 13.806 21.4897 16.0212V18.2087C21.4897 18.8124 20.9997 19.3024 20.396 19.3024C19.7922 19.3024 19.3022 18.8124 19.3022 18.2087V16.0212C19.3022 12.5985 22.0775 9.82324 25.5002 9.82324C28.9229 9.82324 31.6981 12.5985 31.6981 16.0212V18.2087Z" fill="white"/>
<path fill-rule="evenodd" clip-rule="evenodd" d="M36.2071 20.1777L37.3738 37.6777C37.4336 38.5848 37.1157 39.4744 36.4959 40.1379C35.8746 40.8015 35.0069 41.1777 34.0998 41.1777H16.9002C15.9932 41.1777 15.1254 40.8015 14.5042 40.1379C13.8844 39.4744 13.5665 38.5848 13.6263 37.6777L14.7929 20.1777C14.9082 18.454 16.3402 17.1152 18.0669 17.1152H32.9332C34.6598 17.1152 36.0919 18.454 36.2071 20.1777ZM29.1254 23.5727C28.4809 24.9275 27.0998 25.8652 25.5 25.8652C23.9002 25.8652 22.5192 24.9275 21.8746 23.5727C21.6165 23.0273 20.9632 22.7954 20.4177 23.055C19.8723 23.3132 19.6404 23.9665 19.8986 24.5119C20.8932 26.6061 23.0282 28.0527 25.5 28.0527C27.9719 28.0527 30.1069 26.6061 31.1015 24.5119C31.3596 23.9665 31.1277 23.3132 30.5823 23.055C30.0369 22.7954 29.3836 23.0273 29.1254 23.5727Z" fill="white"/>
</svg>
