<svg width="50" height="50" viewBox="0 0 50 50" fill="none" xmlns="http://www.w3.org/2000/svg">
<rect width="50" height="50" rx="10" fill="#9976FF"/>
<g clip-path="url(#clip0_68_171)">
<path fill-rule="evenodd" clip-rule="evenodd" d="M36.6733 11.8574H13.3267C12.4447 11.8584 11.5991 12.2092 10.9754 12.8329C10.3518 13.4565 10.001 14.3021 10 15.1841V32.1988C10.0011 33.0807 10.3519 33.9263 10.9755 34.5499C11.5992 35.1736 12.4447 35.5244 13.3267 35.5254H21.6126V38.57H19.1025C18.8939 38.57 18.6939 38.6528 18.5464 38.8003C18.3989 38.9478 18.3161 39.1478 18.3161 39.3563C18.3161 39.5649 18.3989 39.7649 18.5464 39.9124C18.6939 40.0599 18.8939 40.1427 19.1025 40.1427H30.8971C31.1056 40.1427 31.3056 40.0599 31.4531 39.9124C31.6006 39.7649 31.6834 39.5649 31.6834 39.3563C31.6834 39.1478 31.6006 38.9478 31.4531 38.8003C31.3056 38.6528 31.1056 38.57 30.8971 38.57H28.3867V35.5254H36.6733C37.5553 35.5242 38.4007 35.1733 39.0243 34.5497C39.6479 33.9261 39.9988 33.0807 40 32.1988V15.1841C39.9989 14.3021 39.648 13.4567 39.0244 12.833C38.4008 12.2094 37.5553 11.8586 36.6733 11.8574ZM26.8142 38.57H23.1854V35.5254H26.8142V38.57ZM31.9852 21.7037L29.998 23.6915L31.9852 25.6792C32.1316 25.8267 32.2136 26.0263 32.2133 26.2342C32.2129 26.4421 32.1303 26.6413 31.9833 26.7884C31.8364 26.9355 31.6372 27.0183 31.4293 27.0189C31.2214 27.0194 31.0218 26.9376 30.8741 26.7913L28.8859 24.803L26.8984 26.7911C26.7505 26.9365 26.5512 27.0176 26.3437 27.0168C26.1363 27.0159 25.9376 26.9331 25.791 26.7864C25.6443 26.6397 25.5615 26.441 25.5607 26.2336C25.5599 26.0262 25.641 25.8268 25.7864 25.6789L27.7739 23.6915L25.7862 21.7037C25.7131 21.6307 25.6552 21.544 25.6157 21.4486C25.5762 21.3532 25.5559 21.2509 25.5559 21.1477C25.556 21.0444 25.5763 20.9421 25.6158 20.8468C25.6554 20.7514 25.7133 20.6647 25.7864 20.5917C25.8594 20.5187 25.9461 20.4608 26.0415 20.4213C26.1369 20.3818 26.2392 20.3614 26.3424 20.3615C26.4457 20.3615 26.548 20.3818 26.6434 20.4214C26.7388 20.4609 26.8254 20.5188 26.8984 20.5919L28.8861 22.5796L30.874 20.5919C30.9469 20.5184 31.0336 20.4601 31.1291 20.4202C31.2247 20.3803 31.3271 20.3597 31.4306 20.3595C31.5341 20.3593 31.6366 20.3796 31.7323 20.4191C31.828 20.4587 31.9149 20.5167 31.988 20.5899C32.0612 20.6632 32.1192 20.7501 32.1586 20.8458C32.1981 20.9415 32.2183 21.044 32.218 21.1475C32.2178 21.251 32.1971 21.3535 32.1571 21.4489C32.1171 21.5444 32.0587 21.6311 31.9852 21.7039V21.7037ZM23.7662 21.1453V24.0328C23.7592 24.8215 23.441 25.5756 22.8808 26.1308C22.3206 26.6861 21.5637 26.9976 20.775 26.9976C19.9862 26.9976 19.2294 26.6861 18.6692 26.1308C18.109 25.5756 17.7908 24.8215 17.7838 24.0328V21.1453C17.7856 20.9379 17.8692 20.7396 18.0165 20.5936C18.1637 20.4476 18.3627 20.3657 18.5701 20.3657C18.7775 20.3657 18.9765 20.4476 19.1238 20.5936C19.2711 20.7396 19.3547 20.9379 19.3565 21.1453V24.0328C19.3589 24.4074 19.5094 24.7659 19.7752 25.03C20.041 25.2941 20.4004 25.4423 20.7751 25.4423C21.1497 25.4423 21.5092 25.2941 21.775 25.03C22.0407 24.7659 22.1912 24.4074 22.1937 24.0328V21.1453C22.1937 20.9367 22.2765 20.7367 22.424 20.5892C22.5715 20.4418 22.7715 20.3589 22.98 20.3589C23.1886 20.3589 23.3886 20.4418 23.5361 20.5892C23.6836 20.7367 23.7664 20.9367 23.7664 21.1453H23.7662Z" fill="white"/>
</g>
<defs>
<clipPath id="clip0_68_171">
<rect width="30" height="30" fill="white" transform="translate(10 11)"/>
</clipPath>
</defs>
</svg>
