<svg width="92" height="137" viewBox="0 0 92 137" fill="none" xmlns="http://www.w3.org/2000/svg">
<path d="M10.8584 90.811C23.6713 94.3208 26.6985 93.3383 28.982 96.773C29.2442 97.1671 30.583 99.1823 30.3152 101.769C30.1015 103.829 28.9536 105.42 28.2316 106.119C23.8422 110.368 11.7641 105.17 4.84684 99.4845C3.3388 98.2448 -0.707668 94.9198 0.107304 92.5578C0.441308 91.5903 1.47839 91.1094 2.22267 90.7765C5.51317 89.3046 8.92614 90.2816 10.8584 90.811Z" fill="url(#paint0_linear_9963_10827)"/>
<path d="M50.4225 4.6875H47.6953V22.5835H50.4225V4.6875Z" fill="url(#paint1_linear_9963_10827)"/>
<path d="M58.474 32.4634H39.6395C38.2506 32.4634 37.125 31.3378 37.125 29.9489V23.2176C37.125 21.8287 38.2506 20.7031 39.6395 20.7031H58.474C59.8629 20.7031 60.9885 21.8287 60.9885 23.2176V29.9489C60.988 31.3378 59.8624 32.4634 58.474 32.4634Z" fill="url(#paint2_linear_9963_10827)"/>
<path d="M91.7494 71.5796C91.7494 82.4515 82.9355 91.2653 72.0637 91.2653H26.0451C15.2177 91.2653 6.35938 82.407 6.35938 71.5796V61.3535C6.35938 42.0898 22.1205 26.3281 41.3848 26.3281H56.7245C75.9882 26.3281 91.7499 42.0892 91.7499 61.3535L91.7494 71.5796Z" fill="url(#paint3_linear_9963_10827)"/>
<path d="M78.3203 69.7163C77.2031 70.2685 75.9506 70.558 74.678 70.558H23.435C22.1624 70.558 20.9099 70.2685 19.7927 69.7163C17.0483 68.3597 15.4996 65.6203 15.887 62.8102L15.9154 62.6059C17.2286 53.0873 25.8493 45.7693 36.4183 45.2193C40.8901 44.9866 45.5829 44.8663 50.4777 44.8947C54.3121 44.917 58.0184 45.0294 61.5872 45.2131C72.1964 45.7598 80.8805 53.0489 82.1987 62.6037C82.2081 62.6721 82.2176 62.7411 82.2271 62.8096C82.614 65.6203 81.0647 68.3597 78.3203 69.7163Z" fill="url(#paint4_linear_9963_10827)"/>
<path d="M35.5534 68.4583C40.89 68.4583 45.2162 64.1322 45.2162 58.7956C45.2162 53.459 40.89 49.1328 35.5534 49.1328C30.2168 49.1328 25.8906 53.459 25.8906 58.7956C25.8906 64.1322 30.2168 68.4583 35.5534 68.4583Z" fill="url(#paint5_radial_9963_10827)"/>
<path d="M35.545 65.7384C39.3754 65.7384 42.4806 62.6332 42.4806 58.8028C42.4806 54.9724 39.3754 51.8672 35.545 51.8672C31.7146 51.8672 28.6094 54.9724 28.6094 58.8028C28.6094 62.6332 31.7146 65.7384 35.545 65.7384Z" fill="#EEFDFF"/>
<path d="M35.5438 64.6188C38.7609 64.6188 41.3688 62.0109 41.3688 58.7938C41.3688 55.5767 38.7609 52.9688 35.5438 52.9688C32.3267 52.9688 29.7188 55.5767 29.7188 58.7938C29.7188 62.0109 32.3267 64.6188 35.5438 64.6188Z" fill="url(#paint6_linear_9963_10827)"/>
<path d="M39.2841 57.2905C39.2841 58.4823 38.3183 59.4482 37.1264 59.4482C35.9346 59.4482 34.9688 58.4818 34.9688 57.2905C34.9688 56.0992 35.9346 55.1328 37.1264 55.1328C38.3183 55.1328 39.2841 56.0992 39.2841 57.2905Z" fill="#EEFDFF"/>
<path d="M34.6893 64.1208C35.1649 64.1208 35.5505 63.7352 35.5505 63.2596C35.5505 62.784 35.1649 62.3984 34.6893 62.3984C34.2137 62.3984 33.8281 62.784 33.8281 63.2596C33.8281 63.7352 34.2137 64.1208 34.6893 64.1208Z" fill="#EEFDFF"/>
<path d="M32.5559 61.9772C32.5559 62.2149 32.3633 62.4075 32.1256 62.4075C31.8879 62.4075 31.6953 62.2149 31.6953 61.9772C31.6953 61.7395 31.8879 61.5469 32.1256 61.5469C32.3633 61.5469 32.5559 61.74 32.5559 61.9772Z" fill="#EEFDFF"/>
<path d="M61.6471 68.4583C66.9837 68.4583 71.3099 64.1322 71.3099 58.7956C71.3099 53.459 66.9837 49.1328 61.6471 49.1328C56.3105 49.1328 51.9844 53.459 51.9844 58.7956C51.9844 64.1322 56.3105 68.4583 61.6471 68.4583Z" fill="url(#paint7_radial_9963_10827)"/>
<path d="M61.6466 65.7384C65.477 65.7384 68.5822 62.6332 68.5822 58.8028C68.5822 54.9724 65.477 51.8672 61.6466 51.8672C57.8161 51.8672 54.7109 54.9724 54.7109 58.8028C54.7109 62.6332 57.8161 65.7384 61.6466 65.7384Z" fill="#EEFDFF"/>
<path d="M61.6532 64.6188C64.8703 64.6188 67.4782 62.0109 67.4782 58.7938C67.4782 55.5767 64.8703 52.9688 61.6532 52.9688C58.4361 52.9688 55.8281 55.5767 55.8281 58.7938C55.8281 62.0109 58.4361 64.6188 61.6532 64.6188Z" fill="url(#paint8_linear_9963_10827)"/>
<path d="M65.3862 57.2905C65.3862 58.4823 64.4198 59.4482 63.2285 59.4482C62.0373 59.4482 61.0703 58.4818 61.0703 57.2905C61.0703 56.0992 62.0367 55.1328 63.2285 55.1328C64.4204 55.1328 65.3862 56.0992 65.3862 57.2905Z" fill="#EEFDFF"/>
<path d="M60.7909 64.1208C61.2665 64.1208 61.6521 63.7352 61.6521 63.2596C61.6521 62.784 61.2665 62.3984 60.7909 62.3984C60.3153 62.3984 59.9297 62.784 59.9297 63.2596C59.9297 63.7352 60.3153 64.1208 60.7909 64.1208Z" fill="#EEFDFF"/>
<path d="M58.6575 61.9772C58.6575 62.2149 58.4649 62.4075 58.2272 62.4075C57.9895 62.4075 57.7969 62.2149 57.7969 61.9772C57.7969 61.7395 57.9895 61.5469 58.2272 61.5469C58.4649 61.5469 58.6575 61.74 58.6575 61.9772Z" fill="#EEFDFF"/>
<path d="M52.5504 3.49425C52.5504 5.42368 50.9862 6.9885 49.0562 6.9885C47.1268 6.9885 45.5625 5.42424 45.5625 3.49425C45.5625 1.56481 47.1268 0 49.0562 0C50.9862 0 52.5504 1.56426 52.5504 3.49425Z" fill="url(#paint9_linear_9963_10827)"/>
<path d="M51.4825 2.12798C51.4825 2.71638 51.0054 3.1929 50.417 3.1929C49.8286 3.1929 49.3516 2.71582 49.3516 2.12798C49.3516 1.53957 49.8286 1.0625 50.417 1.0625C51.0054 1.06306 51.4825 1.53957 51.4825 2.12798Z" fill="white"/>
<path d="M79.136 37.5327C79.1822 39.1638 77.8507 41.1149 76.3254 41.2814C74.8958 41.4378 73.7541 39.9771 72.5767 38.4707C71.4161 36.9861 68.8782 33.1717 69.8891 32.0929C71.2212 30.6706 79.0264 33.6844 79.136 37.5327Z" fill="white"/>
<path d="M66.0813 31.311C66.7518 31.311 67.2954 30.7675 67.2954 30.0969C67.2954 29.4264 66.7518 28.8828 66.0813 28.8828C65.4108 28.8828 64.8672 29.4264 64.8672 30.0969C64.8672 30.7675 65.4108 31.311 66.0813 31.311Z" fill="white"/>
<path d="M78.9633 60.1561C78.5736 60.4311 75.8576 54.8978 68.5663 50.1004C66.0034 48.4136 63.4733 47.2118 63.6236 46.8622C63.7761 46.5076 66.6257 47.1672 68.907 48.2255C76.176 51.5978 79.4264 59.8294 78.9633 60.1561Z" fill="white"/>
<path d="M60.2901 24.1913C60.2033 24.2035 60.1476 23.6931 59.7223 22.9043C59.7223 22.9043 59.5236 22.5352 59.2964 22.2223C58.5644 21.2148 56.0828 21.237 55.8879 21.2387C52.0229 21.2721 49.5379 21.0272 49.5391 21.0505C49.5396 21.07 51.3522 21.0333 52.6804 21.0066C56.4274 20.9303 58.6596 20.7288 59.6165 21.7325C60.0134 22.1489 60.2133 22.6911 60.2133 22.6911C60.4838 23.427 60.3937 24.1763 60.2901 24.1913Z" fill="white"/>
<path d="M59.4917 74.7027C59.3971 75.6284 58.6266 76.3415 57.7003 76.4306L44.9001 77.6648C43.9744 77.7538 43.0815 77.2022 42.8115 76.3115C42.6913 75.9157 42.5989 75.5076 42.536 75.0879C42.5187 74.9721 42.5493 74.8541 42.6217 74.7611C42.6941 74.6687 42.8009 74.6103 42.9178 74.5986L59.0664 73.041C59.1816 73.0299 59.2957 73.0666 59.3831 73.1423C59.4705 73.218 59.5223 73.3266 59.5273 73.4418C59.5468 73.8688 59.534 74.2896 59.4917 74.7027Z" fill="#EEFDFF"/>
<path d="M59.4951 74.7031C59.0859 78.6711 55.9312 81.9332 51.8102 82.3268C47.7453 82.7204 44.0741 80.1997 42.8672 76.4672C43.1895 77.2649 44.0279 77.7509 44.9024 77.6635L57.7059 76.431C58.6311 76.3392 59.3982 75.6283 59.4951 74.7031Z" fill="url(#paint10_linear_9963_10827)"/>
<path d="M79.6625 103.454C79.6625 103.572 79.6625 103.684 79.6575 103.792C79.6168 104.866 79.3658 105.673 79.2433 106.036C75.7201 116.8 73.6086 122.475 70.6482 127.067C70.1372 127.86 69.6 128.621 69.0222 129.368C68.2657 130.365 67.4373 131.336 66.5166 132.339C64.4714 134.563 61.3779 135.57 60.3809 135.918C56.7353 137.207 53.5138 136.971 51.3717 136.992H50.9982C48.8505 136.971 45.6346 137.207 41.989 135.918C40.992 135.57 37.8935 134.563 35.8533 132.339C30.2287 126.218 28.066 121.13 23.1266 106.036C23.0091 105.689 22.7737 104.937 22.7174 103.93C22.7024 103.638 22.6968 103.347 22.7124 103.055C22.8199 101.251 23.5508 99.4808 24.8501 97.8654C27.0745 95.0942 30.5103 93.5756 34.0641 93.56L51.188 93.4882L68.0001 93.422C71.6308 93.4064 75.1484 94.9306 77.4541 97.7373C78.5692 99.0973 79.2795 100.565 79.5406 102.078C79.5762 102.293 79.6068 102.513 79.6274 102.728C79.6469 102.968 79.6625 103.209 79.6625 103.454Z" fill="url(#paint11_linear_9963_10827)"/>
<path d="M51.1787 93.4882L34.0548 93.56C30.501 93.5756 27.0652 95.0942 24.8408 97.8654C23.542 99.4814 22.8111 101.251 22.7031 103.055C22.79 101.204 23.5521 99.389 24.907 97.7373C27.2077 94.93 30.7309 93.4064 34.361 93.422L51.1787 93.4882Z" fill="url(#paint12_linear_9963_10827)"/>
<path d="M68.2021 118.723C67.9522 105.44 66.1547 102.813 68.8056 99.6531C69.1101 99.2901 70.6649 97.437 73.2217 96.9638C75.2591 96.5869 77.1084 97.2394 77.9834 97.7348C83.2986 100.746 81.7215 113.8 78.22 122.041C77.4568 123.838 75.4088 128.659 72.9127 128.543C71.8901 128.496 71.1358 127.637 70.607 127.017C68.2661 124.275 68.24 120.725 68.2021 118.723Z" fill="url(#paint13_linear_9963_10827)"/>
<path d="M70.6427 127.071C70.1317 127.864 69.5945 128.625 69.0167 129.372C68.8324 129.182 68.6688 128.993 68.5207 128.819C66.1788 126.079 66.1532 122.53 66.1175 120.526C65.867 107.242 64.0673 104.619 66.721 101.459C66.9153 101.224 67.6261 100.38 68.7818 99.6797C66.1637 102.829 67.9484 105.478 68.199 118.721C68.2346 120.725 68.2652 124.274 70.6021 127.02C70.6171 127.035 70.6327 127.05 70.6427 127.071Z" fill="url(#paint14_linear_9963_10827)"/>
<path d="M78.1405 107.659C78.0653 106.231 77.7976 105.182 77.2621 103.082C76.5618 100.336 75.6833 98.9969 76.2539 98.4664C76.6252 98.1213 77.3567 98.3545 77.5226 98.4074C80.0332 99.2084 80.8103 103.918 80.7023 106.866C80.6361 108.671 80.1957 110.689 79.5344 110.778C79.4303 110.792 79.1709 110.778 78.9855 110.614C78.2474 109.962 78.1978 108.744 78.1405 107.659Z" fill="white"/>
<path d="M79.8624 112.693C79.8624 112.981 79.6292 113.214 79.3414 113.214C79.0536 113.214 78.8203 112.981 78.8203 112.693C78.8203 112.405 79.0536 112.172 79.3414 112.172C79.6292 112.172 79.8624 112.405 79.8624 112.693Z" fill="white"/>
<defs>
<linearGradient id="paint0_linear_9963_10827" x1="18.1505" y1="98.8863" x2="67.8301" y2="137.497" gradientUnits="userSpaceOnUse">
<stop offset="0.0397" stop-color="#06BED8"/>
<stop offset="1" stop-color="#DEFA8E"/>
</linearGradient>
<linearGradient id="paint1_linear_9963_10827" x1="43.5011" y1="14.4459" x2="51.6823" y2="13.2529" gradientUnits="userSpaceOnUse">
<stop offset="0.0397" stop-color="#06CFF1"/>
<stop offset="1" stop-color="#DEFA8E"/>
</linearGradient>
<linearGradient id="paint2_linear_9963_10827" x1="41.4121" y1="35.2142" x2="55.9306" y2="18.8223" gradientUnits="userSpaceOnUse">
<stop offset="0.0397" stop-color="#06CFF1"/>
<stop offset="1" stop-color="#DEFA8E"/>
</linearGradient>
<linearGradient id="paint3_linear_9963_10827" x1="20.3812" y1="91.9928" x2="77.9126" y2="34.4613" gradientUnits="userSpaceOnUse">
<stop offset="0.0397" stop-color="#06CFF1"/>
<stop offset="1" stop-color="#DEFA8E"/>
</linearGradient>
<linearGradient id="paint4_linear_9963_10827" x1="48.905" y1="70.475" x2="49.4163" y2="47.4657" gradientUnits="userSpaceOnUse">
<stop stop-color="#030D14"/>
<stop offset="1" stop-color="#0B2F45"/>
</linearGradient>
<radialGradient id="paint5_radial_9963_10827" cx="0" cy="0" r="1" gradientUnits="userSpaceOnUse" gradientTransform="translate(35.5532 58.7955) scale(9.56278 9.56278)">
<stop offset="0.1296" stop-color="#3280FC"/>
<stop offset="1"/>
</radialGradient>
<linearGradient id="paint6_linear_9963_10827" x1="29.7183" y1="58.7937" x2="41.3688" y2="58.7937" gradientUnits="userSpaceOnUse">
<stop stop-color="#030D14"/>
<stop offset="1" stop-color="#0B2F45"/>
</linearGradient>
<radialGradient id="paint7_radial_9963_10827" cx="0" cy="0" r="1" gradientUnits="userSpaceOnUse" gradientTransform="translate(61.647 58.7955) scale(9.56278)">
<stop offset="0.1296" stop-color="#3280FC"/>
<stop offset="1"/>
</radialGradient>
<linearGradient id="paint8_linear_9963_10827" x1="55.8278" y1="58.7937" x2="67.4783" y2="58.7937" gradientUnits="userSpaceOnUse">
<stop stop-color="#030D14"/>
<stop offset="1" stop-color="#0B2F45"/>
</linearGradient>
<linearGradient id="paint9_linear_9963_10827" x1="41.7013" y1="4.56663" x2="52.5283" y2="2.98767" gradientUnits="userSpaceOnUse">
<stop offset="0.0397" stop-color="#06CFF1"/>
<stop offset="1" stop-color="#DEFA8E"/>
</linearGradient>
<linearGradient id="paint10_linear_9963_10827" x1="48.7076" y1="79.4094" x2="65.3649" y2="62.7521" gradientUnits="userSpaceOnUse">
<stop offset="0.0714" stop-color="#0DA9AB"/>
<stop offset="1" stop-color="#DEFA8E"/>
</linearGradient>
<linearGradient id="paint11_linear_9963_10827" x1="32.9756" y1="129.961" x2="77.1092" y2="78.424" gradientUnits="userSpaceOnUse">
<stop offset="0.0397" stop-color="#06CFF1"/>
<stop offset="0.0408" stop-color="#06CFF1"/>
<stop offset="0.1607" stop-color="#37D9DB"/>
<stop offset="0.2745" stop-color="#5DE0CA"/>
<stop offset="0.3793" stop-color="#78E6BD"/>
<stop offset="0.4719" stop-color="#88E9B6"/>
<stop offset="0.5423" stop-color="#8EEAB3"/>
<stop offset="0.8004" stop-color="#B9F39F"/>
<stop offset="1" stop-color="#DEFA8E"/>
</linearGradient>
<linearGradient id="paint12_linear_9963_10827" x1="30.6318" y1="104.265" x2="57.172" y2="73.2725" gradientUnits="userSpaceOnUse">
<stop offset="0.0397" stop-color="#06CFF1"/>
<stop offset="1" stop-color="#DEFA8E"/>
</linearGradient>
<linearGradient id="paint13_linear_9963_10827" x1="87.6615" y1="122.269" x2="54.6177" y2="98.1009" gradientUnits="userSpaceOnUse">
<stop offset="0.0397" stop-color="#06CFF1"/>
<stop offset="0.0734" stop-color="#0FD1ED"/>
<stop offset="0.4151" stop-color="#67E2C5"/>
<stop offset="0.6937" stop-color="#A7EFA7"/>
<stop offset="0.8955" stop-color="#CFF795"/>
<stop offset="1" stop-color="#DEFA8E"/>
</linearGradient>
<linearGradient id="paint14_linear_9963_10827" x1="58.538" y1="119.925" x2="81.9563" y2="107.721" gradientUnits="userSpaceOnUse">
<stop offset="0.0397" stop-color="#06BED8"/>
<stop offset="1" stop-color="#DEFA8E"/>
</linearGradient>
</defs>
</svg>
