<svg width="136" height="30" viewBox="0 0 136 30" fill="none" xmlns="http://www.w3.org/2000/svg">
<g clip-path="url(#clip0_9963_11072)">
<path fill-rule="evenodd" clip-rule="evenodd" d="M66.2609 16.5002V0.369062C66.2609 0.151697 66.0604 -0.0135734 65.8388 0.0199595L62.7151 0.495409C62.5375 0.522355 62.4062 0.670859 62.4062 0.845111L62.4168 17.2056C62.4168 17.9792 62.4168 22.7565 68.3576 22.9236C68.5637 22.9295 68.7346 22.7691 68.7346 22.5697V20.1277C68.7346 19.9505 68.599 19.7978 68.4176 19.778C66.2603 19.5379 66.2603 16.9295 66.2603 16.5014L66.2609 16.5002Z" fill="#003DFF"/>
<path d="M117.774 6.28906H114.631C114.429 6.28906 114.266 6.44727 114.266 6.64236V22.5765C114.266 22.7716 114.429 22.9298 114.631 22.9298H117.774C117.975 22.9298 118.139 22.7716 118.139 22.5765V6.64236C118.139 6.44727 117.975 6.28906 117.774 6.28906Z" fill="#003DFF"/>
<path fill-rule="evenodd" clip-rule="evenodd" d="M114.631 4.28941H117.774C117.976 4.28941 118.139 4.13132 118.139 3.93611V0.36905C118.139 0.152284 117.939 -0.0135859 117.717 0.0199471L114.575 0.495995C114.397 0.522942 114.266 0.670845 114.266 0.845096V3.93611C114.266 4.13132 114.429 4.28941 114.631 4.28941H114.631Z" fill="#003DFF"/>
<path fill-rule="evenodd" clip-rule="evenodd" d="M109.198 16.5002V0.369062C109.198 0.151697 108.998 -0.0135734 108.776 0.0199595L105.653 0.495409C105.475 0.522355 105.344 0.670859 105.344 0.845111L105.354 17.2056C105.354 17.9792 105.354 22.7565 111.295 22.9236C111.501 22.9295 111.672 22.7691 111.672 22.5697V20.1277C111.672 19.9505 111.536 19.7978 111.355 19.778C109.198 19.5379 109.198 16.9295 109.198 16.5014L109.198 16.5002Z" fill="#003DFF"/>
<path fill-rule="evenodd" clip-rule="evenodd" d="M101.026 8.56628C100.336 7.83275 99.4887 7.26987 98.5014 6.87107C97.5159 6.48005 96.4425 6.28125 95.2781 6.28125C94.1156 6.28125 93.0403 6.47107 92.0641 6.87107C91.0991 7.26987 90.251 7.83215 89.541 8.56628C88.831 9.29862 88.2794 10.1753 87.8845 11.2028C87.4895 12.231 87.3125 13.4405 87.3125 14.6974C87.3125 15.9543 87.51 16.9052 87.9037 17.9435C88.2986 18.9807 88.8409 19.8663 89.541 20.5998C90.2399 21.3321 91.078 21.8944 92.0542 22.304C93.0304 22.713 94.5378 22.9226 95.2979 22.9315C96.0562 22.9315 97.5747 22.7028 98.5602 22.304C99.5457 21.904 100.384 21.3321 101.085 20.5998C101.783 19.8663 102.326 18.9807 102.71 17.9435C103.095 16.9052 103.282 15.9543 103.282 14.6974C103.282 13.4405 103.075 12.231 102.661 11.2028C102.266 10.1747 101.723 9.29862 101.025 8.56628H101.026ZM98.2754 18.3717C97.5654 19.3148 96.5694 19.7908 95.2986 19.7908C94.0265 19.7908 93.0311 19.3238 92.321 18.3717C91.611 17.4286 91.2557 16.3351 91.2557 14.707C91.2557 13.0968 91.6017 11.7645 92.3118 10.8226C93.0205 9.87945 94.0165 9.41418 95.2874 9.41418C96.5595 9.41418 97.5549 9.88005 98.2643 10.8226C98.9743 11.7549 99.3389 13.0968 99.3389 14.707C99.3389 16.3351 98.9849 17.4196 98.2748 18.3717H98.2754Z" fill="#003DFF"/>
<path fill-rule="evenodd" clip-rule="evenodd" d="M55.3686 6.28906H52.3149C49.3213 6.28906 46.6874 7.81481 45.1497 10.1274C44.2509 11.4795 43.7266 13.0992 43.7266 14.8418C43.7266 17.5298 44.9727 19.9268 46.9201 21.4945C47.1015 21.6501 47.2946 21.7927 47.4964 21.922C48.2925 22.4304 49.2365 22.7286 50.2523 22.7286C50.3285 22.7286 50.4046 22.7268 50.4801 22.7232C50.5024 22.722 50.5241 22.7202 50.5464 22.719C50.6002 22.716 50.6547 22.7124 50.7086 22.707C50.7296 22.7052 50.7506 22.7022 50.7717 22.6998C50.828 22.6939 50.8844 22.6873 50.9407 22.6795C50.9537 22.6777 50.9667 22.6753 50.9797 22.6735C53.0157 22.3699 54.7904 20.828 55.3686 18.9124V22.3753C55.3686 22.5705 55.532 22.7286 55.7338 22.7286H58.8549C59.0567 22.7286 59.2202 22.5705 59.2202 22.3753V6.64236C59.2202 6.44715 59.0567 6.28906 58.8549 6.28906H55.3686ZM55.3686 18.6795C54.6134 19.2879 53.6372 19.5166 52.5929 19.5849C52.583 19.5855 52.5724 19.5867 52.5625 19.5873C52.4932 19.5915 52.4239 19.5933 52.3545 19.5933C49.7398 19.5933 47.5806 17.4442 47.5806 14.8406C47.5806 14.2268 47.7019 13.6424 47.9161 13.1052C48.6107 11.3615 50.3161 10.1268 52.3149 10.1268H55.3686V18.6795Z" fill="#003DFF"/>
<path fill-rule="evenodd" clip-rule="evenodd" d="M132.095 6.28906H129.041C126.048 6.28906 123.414 7.81481 121.876 10.1274C120.977 11.4795 120.453 13.0992 120.453 14.8418C120.453 17.5298 121.699 19.9268 123.647 21.4945C123.828 21.6501 124.021 21.7927 124.223 21.922C125.019 22.4304 125.963 22.7286 126.979 22.7286C127.055 22.7286 127.131 22.7268 127.207 22.7232C127.229 22.722 127.251 22.7202 127.273 22.719C127.327 22.716 127.381 22.7124 127.435 22.707C127.456 22.7052 127.477 22.7022 127.498 22.6998C127.555 22.6939 127.611 22.6873 127.667 22.6795C127.68 22.6777 127.693 22.6753 127.706 22.6735C129.742 22.3699 131.517 20.828 132.095 18.9124V22.3753C132.095 22.5705 132.259 22.7286 132.46 22.7286H135.582C135.783 22.7286 135.947 22.5705 135.947 22.3753V6.64236C135.947 6.44715 135.783 6.28906 135.582 6.28906H132.095ZM132.095 18.6795C131.34 19.2879 130.364 19.5166 129.319 19.5849C129.31 19.5855 129.299 19.5867 129.289 19.5873C129.22 19.5915 129.15 19.5933 129.081 19.5933C126.466 19.5933 124.307 17.4442 124.307 14.8406C124.307 14.2268 124.429 13.6424 124.643 13.1052C125.337 11.3615 127.043 10.1268 129.041 10.1268H132.095V18.6795Z" fill="#003DFF"/>
<path fill-rule="evenodd" clip-rule="evenodd" d="M81.3451 6.28906H78.2915C75.2979 6.28906 72.6639 7.81481 71.1263 10.1274C70.3964 11.2256 69.913 12.501 69.7576 13.8753C69.7217 14.1927 69.7031 14.5148 69.7031 14.8418C69.7031 15.1687 69.7223 15.5094 69.7607 15.8352C70.0256 18.116 71.1931 20.1232 72.8967 21.4951C73.0781 21.6507 73.2712 21.7933 73.473 21.9226C74.2691 22.431 75.2131 22.7292 76.2289 22.7292C77.3425 22.7292 78.3714 22.3741 79.2101 21.7729C80.2185 21.0795 80.9979 20.0639 81.3445 18.9136V21.9232H81.3377V22.5867C81.3377 23.8945 80.9843 24.8783 80.2643 25.5424C79.5456 26.2058 78.3429 26.5382 76.6585 26.5382C75.9701 26.5382 74.8763 26.5028 73.7738 26.3939C73.5987 26.3765 73.4359 26.4837 73.3857 26.6465L72.5946 29.228C72.5315 29.4352 72.6732 29.6483 72.8936 29.6789C74.2257 29.8633 75.5257 29.9591 76.2766 29.9591C79.3042 29.9591 81.5482 29.3154 83.0171 28.0304C84.3468 26.8681 85.0692 25.1028 85.1961 22.7298V6.64355C85.1961 6.44834 85.0327 6.29026 84.8309 6.29026H81.3445L81.3451 6.28906ZM81.3451 10.1274C81.3451 10.1274 81.3854 18.4585 81.3451 18.7118C80.5974 19.2968 79.667 19.5256 78.653 19.5921C78.6431 19.5927 78.6326 19.5939 78.6227 19.5945C78.5533 19.5986 78.484 19.6004 78.4147 19.6004C78.333 19.6004 78.2519 19.5986 78.1708 19.5945C75.6693 19.4681 73.5578 17.3633 73.5578 14.8412C73.5578 14.2274 73.6791 13.643 73.8933 13.1058C74.5879 11.3621 76.2933 10.1274 78.2921 10.1274H81.3458H81.3451Z" fill="#003DFF"/>
<path d="M15.4649 0.0168237C7.01332 0.0168237 0.123579 6.60844 0.00163099 14.7563C-0.122174 23.0312 6.81832 29.8881 15.3739 29.936C18.0159 29.951 20.5607 29.3258 22.8208 28.1378C23.0411 28.0222 23.0752 27.7288 22.8876 27.5683L21.4403 26.3276C21.1463 26.0755 20.7278 26.0042 20.3657 26.1528C18.7884 26.8019 17.0743 27.1336 15.3076 27.1126C8.39436 27.0306 2.80892 21.4665 2.9191 14.7797C3.02805 8.1773 8.61412 2.83898 15.4649 2.83898H28.0119V24.412L20.8931 18.2935C20.6628 18.0953 20.31 18.1342 20.1243 18.3719C18.9816 19.8354 17.1202 20.7456 15.0526 20.6078C12.1847 20.4162 9.86084 18.1827 9.64603 15.4096C9.38914 12.1019 12.0992 9.3306 15.4649 9.3306C18.5092 9.3306 21.0163 11.5971 21.2782 14.4773C21.3017 14.7336 21.4211 14.9725 21.6199 15.1432L23.4738 16.733C23.6843 16.9132 24.018 16.803 24.07 16.5354C24.2037 15.8438 24.2507 15.1234 24.1981 14.3845C23.8997 10.1725 20.3725 6.78389 16.0164 6.52461C11.0221 6.227 6.8468 10.006 6.71433 14.7432C6.58495 19.3599 10.4953 23.3396 15.2686 23.4414C17.2613 23.4839 19.1085 22.8779 20.6009 21.8276L29.9024 29.8036C30.3011 30.1456 30.9306 29.8719 30.9306 29.3563V0.583288C30.9306 0.269516 30.6682 0.015625 30.3438 0.015625H15.4649V0.0168237Z" fill="#003DFF"/>
</g>
<defs>
<clipPath id="clip0_9963_11072">
<rect width="136" height="30" fill="white"/>
</clipPath>
</defs>
</svg>
