<svg width="156" height="30" viewBox="0 0 156 30" fill="none" xmlns="http://www.w3.org/2000/svg">
<g clip-path="url(#clip0_9963_11068)">
<path d="M50.2615 9.42771C51.0744 9.42931 51.8761 9.61739 52.6049 9.97749C53.3337 10.3376 53.9701 10.8601 54.4653 11.5048C54.4828 11.5282 54.505 11.5477 54.5304 11.5622C54.5558 11.5766 54.5839 11.5857 54.6129 11.5889C54.642 11.5921 54.6714 11.5893 54.6993 11.5807C54.7272 11.5721 54.7531 11.5579 54.7753 11.5389L56.5455 10.1283C56.5681 10.1103 56.587 10.0879 56.6009 10.0625C56.6149 10.0371 56.6237 10.0092 56.6269 9.98042C56.6301 9.95161 56.6275 9.92247 56.6194 9.89465C56.6113 9.86684 56.5978 9.8409 56.5796 9.81833C55.8261 8.84058 54.8582 8.04893 53.7504 7.50444C52.6426 6.95995 51.4246 6.67717 50.1902 6.67789C45.5679 6.67789 41.8198 10.6616 41.8198 15.5598C41.8198 20.458 45.5803 24.4417 50.1902 24.4417C51.4244 24.4458 52.6429 24.1648 53.7506 23.6206C54.8584 23.0764 55.8255 22.2837 56.5765 21.3043C56.5953 21.2819 56.6093 21.2559 56.6177 21.2278C56.626 21.1998 56.6286 21.1703 56.6251 21.1413C56.6216 21.1122 56.6122 21.0842 56.5974 21.0589C56.5827 21.0336 56.5629 21.0116 56.5393 20.9943L54.7722 19.5993C54.7496 19.5811 54.7237 19.5675 54.6959 19.5594C54.6681 19.5513 54.6389 19.5488 54.6101 19.5519C54.5813 19.5551 54.5534 19.5639 54.528 19.5779C54.5026 19.5919 54.4803 19.6107 54.4622 19.6334C53.9645 20.2739 53.3278 20.7929 52.6 21.1511C51.8723 21.5093 51.0726 21.6974 50.2615 21.7011C47.1025 21.7011 44.6317 19.004 44.6317 15.566C44.6317 12.1279 47.1025 9.42771 50.2615 9.42771ZM58.8613 6.17257H61.081C61.1394 6.17257 61.1953 6.19576 61.2366 6.23704C61.2779 6.27832 61.3011 6.3343 61.3011 6.39268V23.9952C61.3011 24.0528 61.2782 24.108 61.2375 24.1487C61.1968 24.1894 61.1416 24.2122 61.0841 24.2122H58.8644C58.806 24.2122 58.75 24.1891 58.7087 24.1478C58.6675 24.1065 58.6443 24.0505 58.6443 23.9921V6.39268C58.6439 6.36392 58.6492 6.33537 58.6599 6.30868C58.6706 6.28199 58.6865 6.2577 58.7067 6.23722C58.7269 6.21674 58.751 6.20048 58.7775 6.18938C58.804 6.17828 58.8325 6.17257 58.8613 6.17257ZM68.8654 12.2612C65.9234 12.2612 62.9473 14.3445 62.9473 18.3282C62.9473 21.8282 65.4925 24.4696 68.8654 24.4696C72.2384 24.4696 74.8084 21.8282 74.8084 18.3282C74.8084 14.8281 72.2539 12.2612 68.8654 12.2612ZM72.1299 18.3282C72.1299 20.3495 70.7255 21.8747 68.8654 21.8747C67.0053 21.8747 65.6289 20.3495 65.6289 18.3282C65.6289 16.3069 67.0208 14.856 68.8654 14.856C70.71 14.856 72.1299 16.3472 72.1299 18.3282ZM86.7718 12.5154H84.5521C84.5233 12.515 84.4948 12.5203 84.4681 12.5311C84.4414 12.5418 84.4171 12.5577 84.3966 12.5779C84.3762 12.5981 84.3599 12.6222 84.3488 12.6487C84.3377 12.6752 84.332 12.7037 84.332 12.7325V18.6227C84.332 20.923 82.7447 21.7383 81.3838 21.7383C80.1809 21.7383 78.9688 20.83 78.9688 18.7994V12.7325C78.9688 12.7037 78.963 12.6752 78.9519 12.6487C78.9408 12.6222 78.9246 12.5981 78.9041 12.5779C78.8836 12.5577 78.8593 12.5418 78.8326 12.5311C78.806 12.5203 78.7774 12.515 78.7486 12.5154H76.5289C76.4714 12.5154 76.4162 12.5383 76.3755 12.579C76.3348 12.6197 76.3119 12.6749 76.3119 12.7325V19.0877C76.3119 22.5754 77.8899 24.4944 80.7575 24.4944C81.7992 24.4944 83.4856 23.896 84.1181 22.5754L84.332 22.6188V23.9952C84.332 24.0536 84.3552 24.1096 84.3965 24.1509C84.4377 24.1922 84.4937 24.2154 84.5521 24.2154H86.7718C86.8302 24.2154 86.8862 24.1922 86.9274 24.1509C86.9687 24.1096 86.9919 24.0536 86.9919 23.9952V12.7325C86.9919 12.7037 86.9862 12.6752 86.9751 12.6487C86.964 12.6222 86.9477 12.5981 86.9273 12.5779C86.9068 12.5577 86.8825 12.5418 86.8558 12.5311C86.8291 12.5203 86.8006 12.515 86.7718 12.5154ZM100.403 6.17257H98.1803C98.1515 6.17257 98.1231 6.17828 98.0965 6.18938C98.07 6.20048 98.0459 6.21674 98.0257 6.23722C98.0055 6.2577 97.9896 6.28199 97.9789 6.30868C97.9682 6.33537 97.9629 6.36392 97.9633 6.39268V14.2608L97.8269 14.0438C97.151 12.9557 95.6971 12.2519 94.1222 12.2519C91.4065 12.2519 88.6598 14.3445 88.6598 18.3437C88.6598 21.8313 91.019 24.4603 94.1439 24.4603C95.3344 24.4603 97.0115 23.9828 97.8269 22.6436L97.9633 22.4204V23.9952C97.9629 24.024 97.9682 24.0526 97.9789 24.0792C97.9896 24.1059 98.0055 24.1302 98.0257 24.1507C98.0459 24.1712 98.07 24.1874 98.0965 24.1985C98.1231 24.2096 98.1515 24.2154 98.1803 24.2154H100.403C100.432 24.2154 100.46 24.2096 100.487 24.1985C100.513 24.1874 100.537 24.1712 100.558 24.1507C100.578 24.1302 100.594 24.1059 100.604 24.0792C100.615 24.0526 100.621 24.024 100.62 23.9952V6.39268C100.621 6.36392 100.615 6.33537 100.604 6.30868C100.594 6.28199 100.578 6.2577 100.558 6.23722C100.537 6.21674 100.513 6.20048 100.487 6.18938C100.46 6.17828 100.432 6.17257 100.403 6.17257ZM97.923 18.3282C97.9378 18.7789 97.8632 19.228 97.7033 19.6497C97.5434 20.0713 97.3015 20.457 96.9916 20.7846C96.6817 21.1121 96.3099 21.3749 95.8977 21.5578C95.4855 21.7406 95.0411 21.8399 94.5903 21.8499C92.7737 21.8499 91.3507 20.2999 91.3507 18.3282C91.3507 16.3565 92.7737 14.856 94.5903 14.856C95.4905 14.8788 96.3451 15.2567 96.9677 15.9071C97.5903 16.5576 97.9303 17.4279 97.9137 18.3282H97.923ZM103.73 12.5154H105.949C106.007 12.5154 106.062 12.5383 106.103 12.579C106.143 12.6197 106.166 12.6749 106.166 12.7325V23.9952C106.166 24.0528 106.143 24.108 106.103 24.1487C106.062 24.1894 106.007 24.2122 105.949 24.2122H103.73C103.671 24.2122 103.615 24.1891 103.574 24.1478C103.533 24.1065 103.509 24.0505 103.509 23.9921V12.7325C103.51 12.6746 103.534 12.6194 103.575 12.5788C103.616 12.5382 103.672 12.5154 103.73 12.5154ZM104.849 6.52909C104.619 6.52413 104.39 6.56514 104.176 6.6497C103.963 6.73425 103.768 6.86066 103.604 7.0215C103.439 7.18234 103.309 7.37438 103.22 7.58635C103.131 7.79831 103.085 8.02593 103.085 8.25586C103.09 8.71905 103.278 9.16136 103.609 9.4857C103.94 9.81003 104.385 9.98987 104.849 9.98573C105.077 9.98863 105.304 9.94593 105.515 9.86013C105.727 9.77434 105.92 9.64718 106.082 9.48609C106.244 9.325 106.372 9.13322 106.459 8.92198C106.546 8.71074 106.59 8.48428 106.588 8.25586C106.592 8.02699 106.549 7.79971 106.463 7.58766C106.377 7.37562 106.249 7.18318 106.086 7.0219C105.924 6.86062 105.73 6.73383 105.518 6.64915C105.305 6.56446 105.078 6.52362 104.849 6.52909ZM115.309 12.2612C114.335 12.2612 112.605 12.7852 111.945 14.1802L111.731 14.1368V12.7325C111.731 12.7037 111.725 12.6752 111.714 12.6487C111.703 12.6222 111.687 12.5981 111.666 12.5779C111.646 12.5577 111.622 12.5418 111.595 12.5311C111.568 12.5203 111.54 12.515 111.511 12.5154H109.291C109.234 12.5154 109.178 12.5383 109.138 12.579C109.097 12.6197 109.074 12.6749 109.074 12.7325V23.9952C109.074 24.024 109.079 24.0526 109.09 24.0792C109.101 24.1059 109.116 24.1302 109.137 24.1507C109.157 24.1712 109.181 24.1874 109.207 24.1985C109.234 24.2096 109.262 24.2154 109.291 24.2154H111.511C111.569 24.2154 111.625 24.1922 111.667 24.1509C111.708 24.1096 111.731 24.0536 111.731 23.9952V18.105C111.731 15.8233 113.318 15.0049 114.679 15.0049C115.882 15.0049 117.094 15.907 117.094 17.919V23.9952C117.094 24.0536 117.117 24.1096 117.159 24.1509C117.2 24.1922 117.256 24.2154 117.314 24.2154H119.54C119.599 24.2154 119.655 24.1922 119.696 24.1509C119.737 24.1096 119.76 24.0536 119.76 23.9952V17.6431C119.754 14.174 118.173 12.2612 115.309 12.2612ZM133.02 12.5154H130.8C130.771 12.515 130.743 12.5203 130.716 12.5311C130.689 12.5418 130.665 12.5577 130.644 12.5779C130.624 12.5981 130.608 12.6222 130.597 12.6487C130.586 12.6752 130.58 12.7037 130.58 12.7325V14.2825L130.446 14.0655C129.768 12.9774 128.314 12.2736 126.726 12.2736C124.014 12.2736 121.264 14.3662 121.264 18.3654C121.264 21.8531 123.623 24.482 126.751 24.482C127.938 24.482 129.616 24.0045 130.434 22.6653L130.567 22.4421V23.9952C130.567 24.0536 130.591 24.1096 130.632 24.1509C130.673 24.1922 130.729 24.2154 130.788 24.2154H133.007C133.036 24.2154 133.064 24.2096 133.091 24.1985C133.118 24.1874 133.142 24.1712 133.162 24.1507C133.182 24.1302 133.198 24.1059 133.209 24.0792C133.219 24.0526 133.225 24.024 133.224 23.9952V12.7325C133.224 12.677 133.203 12.6236 133.165 12.5832C133.127 12.5429 133.075 12.5186 133.02 12.5154ZM130.539 18.3282C130.554 18.7796 130.479 19.2295 130.319 19.6518C130.158 20.074 129.916 20.4602 129.605 20.7878C129.294 21.1155 128.921 21.3781 128.508 21.5604C128.095 21.7427 127.649 21.8412 127.198 21.8499C125.381 21.8499 123.961 20.2999 123.961 18.3282C123.961 16.3565 125.381 14.856 127.198 14.856C128.1 14.8756 128.958 15.252 129.583 15.9028C130.208 16.5537 130.55 17.4258 130.533 18.3282H130.539ZM143.148 12.5557C142.642 12.3506 142.1 12.2453 141.554 12.2457C140.079 12.2457 139.006 13.1293 138.454 14.8033L138.256 14.7754V12.7325C138.256 12.7037 138.25 12.6752 138.239 12.6487C138.228 12.6222 138.212 12.5981 138.191 12.5779C138.171 12.5577 138.146 12.5418 138.12 12.5311C138.093 12.5203 138.064 12.515 138.036 12.5154H135.816C135.787 12.515 135.759 12.5203 135.732 12.5311C135.705 12.5418 135.681 12.5577 135.66 12.5779C135.64 12.5981 135.624 12.6222 135.613 12.6487C135.602 12.6752 135.596 12.7037 135.596 12.7325V23.9952C135.596 24.0536 135.619 24.1096 135.66 24.1509C135.702 24.1922 135.758 24.2154 135.816 24.2154H138.06C138.089 24.2154 138.118 24.2096 138.144 24.1985C138.171 24.1874 138.195 24.1712 138.215 24.1507C138.235 24.1302 138.251 24.1059 138.262 24.0792C138.273 24.0526 138.278 24.024 138.277 23.9952V20.1511C138.277 15.5629 140.11 14.8808 141.204 14.8808C141.666 14.882 142.122 14.9769 142.546 15.1599C142.576 15.1737 142.608 15.1809 142.641 15.1809C142.674 15.1809 142.706 15.1737 142.735 15.1599C142.764 15.1449 142.789 15.1238 142.808 15.098C142.827 15.0723 142.841 15.0426 142.847 15.0111L143.287 12.8069C143.298 12.7552 143.29 12.7015 143.264 12.6554C143.239 12.6093 143.197 12.574 143.148 12.5557ZM155.465 12.6115C155.445 12.5814 155.417 12.5568 155.385 12.5399C155.354 12.5231 155.318 12.5147 155.282 12.5154H152.891C152.847 12.5159 152.804 12.5294 152.768 12.5542C152.732 12.579 152.703 12.6141 152.687 12.655L149.794 20.1511L146.874 12.655C146.858 12.6141 146.829 12.579 146.793 12.5542C146.757 12.5294 146.714 12.5159 146.669 12.5154H144.233C144.197 12.5152 144.162 12.5239 144.131 12.5407C144.099 12.5575 144.073 12.5818 144.053 12.6115C144.033 12.6412 144.02 12.6754 144.016 12.7111C144.013 12.7468 144.018 12.7829 144.031 12.8162L148.371 23.4744L145.975 29.7026C145.96 29.7364 145.954 29.7735 145.957 29.8104C145.96 29.8473 145.972 29.8829 145.992 29.9138C146.013 29.9447 146.041 29.9699 146.073 29.9872C146.106 30.0045 146.143 30.0132 146.18 30.0126H148.505C148.549 30.0128 148.591 29.9995 148.627 29.9746C148.664 29.9496 148.691 29.9142 148.706 29.8731L155.483 12.8224C155.499 12.7886 155.505 12.7515 155.502 12.7145C155.499 12.6775 155.486 12.6421 155.465 12.6115ZM30.8485 8.71468C30.0464 6.19964 28.4698 4.00254 26.3439 2.4374C24.2181 0.872268 21.6519 0.0192256 19.0122 0.000201996C16.7803 -0.012596 14.5872 0.582964 12.6683 1.72289C10.7495 2.86282 9.17757 4.50403 8.12138 6.47018C6.18022 6.81806 4.40073 7.77637 3.04193 9.20563C1.68313 10.6349 0.815931 12.4605 0.566556 14.4168C0.317182 16.373 0.698646 18.3578 1.65543 20.0823C2.61221 21.8067 4.09437 23.1808 5.88618 24.0045L6.11869 24.1099H6.1342V21.4748C4.90501 20.7203 3.94272 19.6001 3.38222 18.2711C2.82171 16.9422 2.69107 15.4712 3.00862 14.0643C3.32616 12.6574 4.07597 11.3851 5.15296 10.4257C6.22994 9.46641 7.5801 8.8681 9.01422 8.71468L9.66525 8.64648L9.95046 8.06055C10.7603 6.34434 12.0432 4.89498 13.6484 3.88285C15.2537 2.87072 17.1145 2.33789 19.0122 2.347C21.2733 2.36296 23.4642 3.13444 25.2365 4.53878C27.0088 5.94312 28.2607 7.89969 28.7931 10.0973L29.0163 10.984H29.9463C31.4456 11.0147 32.8735 11.6305 33.9248 12.6999C34.9762 13.7692 35.5677 15.2072 35.5731 16.7068C35.5731 18.8924 34.3113 20.6812 32.1629 21.5864V24.0851L32.3179 24.0355C35.7715 22.904 37.9168 20.0953 37.9168 16.7068C37.9026 14.7456 37.179 12.8559 35.8797 11.3868C34.5804 9.91765 32.7932 8.96849 30.8485 8.71468Z" fill="#3448C5"/>
<path d="M14.4657 23.8045L14.9803 24.3191C14.9942 24.3334 15.0036 24.3515 15.0074 24.3711C15.0112 24.3906 15.0092 24.4109 15.0016 24.4293C14.994 24.4478 14.9812 24.4636 14.9648 24.4749C14.9483 24.4861 14.9289 24.4924 14.909 24.4928H10.8478C10.3545 24.4928 9.88139 24.2968 9.53256 23.9479C9.18373 23.5991 8.98775 23.126 8.98775 22.6327V14.7459C8.98775 14.7188 8.97698 14.6928 8.95779 14.6736C8.9386 14.6544 8.91258 14.6436 8.88545 14.6436H8.01741C7.99721 14.6438 7.97741 14.6381 7.96049 14.627C7.94357 14.616 7.93029 14.6002 7.92233 14.5816C7.91438 14.5631 7.91209 14.5426 7.91577 14.5227C7.91945 14.5028 7.92893 14.4845 7.94301 14.47L11.3904 11.0227C11.3999 11.013 11.4112 11.0053 11.4237 11.0001C11.4362 10.9949 11.4497 10.9922 11.4632 10.9922C11.4768 10.9922 11.4902 10.9949 11.5027 11.0001C11.5152 11.0053 11.5265 11.013 11.5361 11.0227L14.9803 14.47C14.9942 14.4843 15.0036 14.5024 15.0074 14.5219C15.0112 14.5415 15.0092 14.5618 15.0016 14.5802C14.994 14.5987 14.9812 14.6145 14.9648 14.6257C14.9483 14.637 14.9289 14.6432 14.909 14.6436H14.0286C14.0011 14.6436 13.9748 14.6543 13.9551 14.6734C13.9354 14.6925 13.924 14.7185 13.9232 14.7459V22.4963C13.9244 22.9868 14.1194 23.457 14.4657 23.8045ZM22.0827 23.8045L22.6004 24.3191C22.6145 24.3336 22.624 24.352 22.6277 24.3718C22.6314 24.3917 22.6291 24.4122 22.6211 24.4308C22.6132 24.4493 22.5999 24.4651 22.583 24.4761C22.566 24.4872 22.5462 24.493 22.526 24.4928H18.4742C17.9808 24.4928 17.5077 24.2968 17.1589 23.9479C16.8101 23.5991 16.6141 23.126 16.6141 22.6327V16.7393C16.6141 16.7119 16.6034 16.6855 16.5843 16.6659C16.5652 16.6462 16.5392 16.6347 16.5118 16.6339H15.6344C15.6145 16.6335 15.5951 16.6273 15.5787 16.616C15.5622 16.6048 15.5494 16.5889 15.5418 16.5705C15.5343 16.5521 15.5323 16.5318 15.536 16.5122C15.5398 16.4926 15.5492 16.4746 15.5631 16.4603L19.0074 13.0192C19.0169 13.0095 19.0282 13.0018 19.0408 12.9966C19.0533 12.9914 19.0667 12.9887 19.0802 12.9887C19.0938 12.9887 19.1072 12.9914 19.1197 12.9966C19.1322 13.0018 19.1436 13.0095 19.1531 13.0192L22.6004 16.4541C22.6145 16.4686 22.624 16.4869 22.6277 16.5068C22.6314 16.5266 22.6291 16.5471 22.6211 16.5657C22.6132 16.5843 22.5999 16.6001 22.583 16.6111C22.566 16.6221 22.5462 16.6279 22.526 16.6277H21.6456C21.6182 16.6285 21.5922 16.64 21.5731 16.6597C21.554 16.6793 21.5433 16.7057 21.5433 16.7331V22.4963C21.5437 22.9864 21.7376 23.4565 22.0827 23.8045ZM29.7029 23.8045L30.2175 24.3191C30.2314 24.3334 30.2408 24.3515 30.2446 24.3711C30.2484 24.3906 30.2463 24.4109 30.2388 24.4293C30.2312 24.4478 30.2184 24.4636 30.2019 24.4749C30.1855 24.4861 30.1661 24.4924 30.1462 24.4928H26.0819C25.5886 24.4928 25.1155 24.2968 24.7666 23.9479C24.4178 23.5991 24.2218 23.126 24.2218 22.6327V18.7172C24.2218 18.6901 24.211 18.664 24.1919 18.6449C24.1727 18.6257 24.1466 18.6149 24.1195 18.6149H23.2515C23.2309 18.6151 23.2107 18.6091 23.1936 18.5977C23.1765 18.5863 23.1632 18.57 23.1555 18.5509C23.1478 18.5318 23.146 18.5108 23.1504 18.4907C23.1548 18.4706 23.1652 18.4523 23.1802 18.4382L26.6275 14.9939C26.6368 14.9844 26.6479 14.9768 26.6601 14.9716C26.6723 14.9664 26.6855 14.9637 26.6988 14.9637C26.7121 14.9637 26.7253 14.9664 26.7375 14.9716C26.7498 14.9768 26.7609 14.9844 26.7701 14.9939L30.2175 18.4382C30.2324 18.4523 30.2428 18.4706 30.2472 18.4907C30.2516 18.5108 30.2498 18.5318 30.2421 18.5509C30.2344 18.57 30.2212 18.5863 30.204 18.5977C30.1869 18.6091 30.1668 18.6151 30.1462 18.6149H29.2626C29.2355 18.6149 29.2095 18.6257 29.1903 18.6449C29.1711 18.664 29.1603 18.6901 29.1603 18.7172V22.4963C29.1616 22.9868 29.3566 23.457 29.7029 23.8045Z" fill="#3448C5"/>
</g>
<defs>
<clipPath id="clip0_9963_11068">
<rect width="156" height="30" fill="white"/>
</clipPath>
</defs>
</svg>
