<svg width="129" height="30" viewBox="0 0 129 30" fill="none" xmlns="http://www.w3.org/2000/svg">
<path d="M82.8134 21.9986C86.2469 21.9986 87.7729 20.1604 87.7729 18.0275C87.7729 13.2587 80.3163 14.7327 80.3163 12.3396C80.3163 11.4032 81.166 10.7442 82.4666 10.7442C83.8539 10.7269 85.1891 11.2471 86.1949 12.2182L87.4608 10.5535C86.2816 9.40896 84.6516 8.75 82.6747 8.75C79.8481 8.75 78.0099 10.3801 78.0099 12.513C78.0099 17.2124 85.4666 15.5477 85.4666 18.2356C85.4666 19.1026 84.7556 20.0043 82.9175 20.0043C81.3741 20.0043 79.9001 19.3454 78.8596 18.2182L77.5938 19.9697C78.7383 21.1662 80.455 21.9986 82.8134 21.9986ZM90.7903 11.3685C91.4839 11.3685 92.0388 10.8136 92.0388 10.1199C92.0388 9.4263 91.4839 8.87139 90.7903 8.87139C90.0966 8.87139 89.5417 9.4263 89.5417 10.1199C89.5417 10.7962 90.0966 11.3685 90.7903 11.3685ZM91.7961 21.7731V12.4957H89.7672V21.7731H91.7961ZM98.1949 25.5361C96.6169 25.5361 95.455 25.1893 94.2932 24.1488L95.2296 22.6922C95.9926 23.5592 96.9637 23.8887 98.1949 23.8887C99.5302 23.8887 100.935 23.2818 100.935 21.2876V20.2298C100.241 21.2009 99.1487 21.7731 97.9521 21.7905C95.5937 21.7905 93.8423 20.0737 93.8423 17.0217C93.8423 14.0043 95.5591 12.2529 97.9521 12.2529C99.1313 12.2529 100.241 12.8078 100.935 13.7789V12.4957H102.946V21.2876C102.946 24.6344 100.449 25.5361 98.1949 25.5361ZM98.5591 19.987C99.4955 19.9697 100.38 19.5014 100.935 18.7558V15.2876C100.363 14.5419 99.4955 14.091 98.5591 14.0564C96.9463 14.0564 95.9232 15.2529 95.9232 17.039C95.9232 18.8251 96.929 19.987 98.5591 19.987ZM113.854 21.7731V15.2355C113.854 13.328 112.848 12.2529 110.854 12.2529C109.605 12.2529 108.409 12.7905 107.576 13.7269V12.4783H105.565V21.7731H107.576V15.2702C108.062 14.6633 108.946 14.039 109.952 14.039C111.079 14.039 111.825 14.4899 111.825 15.9639V21.7731H113.854ZM124.172 21.7731H122.16V20.75C121.467 21.5477 120.374 21.9986 119.143 21.9986C117.652 21.9986 115.935 20.9581 115.935 18.9292C115.935 16.7789 117.634 15.8945 119.143 15.8945C120.409 15.8945 121.467 16.2934 122.16 17.091V15.7038C122.16 14.6286 121.258 13.9697 119.993 13.9697C118.952 13.9697 117.946 14.4032 117.253 15.1662L116.403 13.7616C117.478 12.7211 118.831 12.2702 120.305 12.2702C122.386 12.2702 124.189 13.1373 124.189 15.6171L124.172 21.7731ZM119.941 20.6286C120.808 20.6286 121.675 20.2991 122.143 19.6749V18.2529C121.657 17.6286 120.79 17.2991 119.941 17.2991C118.813 17.2991 117.946 17.9754 117.946 18.9639C117.946 19.9523 118.813 20.6286 119.941 20.6286ZM128.802 21.7731V8.95809H126.79V21.7731H128.802Z" fill="#E54B4D"/>
<path d="M47.536 21.9986C43.7557 21.9986 41.1719 19.1546 41.1719 15.3743C41.1719 11.5939 43.7383 8.75 47.536 8.75C51.3337 8.75 53.9175 11.5939 53.9175 15.3743C53.9175 19.1546 51.3164 21.9986 47.536 21.9986ZM47.536 20.5766C50.3973 20.5766 52.2528 18.3396 52.2528 15.3743C52.2528 12.409 50.38 10.172 47.536 10.172C44.6921 10.172 42.8366 12.3743 42.8366 15.3743C42.8366 18.3743 44.6401 20.5766 47.536 20.5766ZM63.5938 21.7731V15.2529C63.5938 13.2413 62.5707 12.2529 60.6459 12.2529C59.3626 12.2876 58.1661 12.8598 57.3164 13.8309V12.4783H55.8771V21.7731H57.3164V14.9928C57.8713 14.2471 58.9291 13.5535 60.0563 13.5535C61.3048 13.5535 62.1545 14.0564 62.1545 15.7038V21.7731H63.5938ZM70.2701 21.9986C67.4956 21.9986 65.5187 20.0217 65.5187 17.1257C65.5187 14.4379 67.4435 12.2702 70.0967 12.2702C72.906 12.2702 74.5534 14.4552 74.5534 17.2471V17.6113H67.062C67.1834 19.3627 68.38 20.8194 70.3915 20.8194C71.4667 20.8194 72.5071 20.4032 73.2701 19.6228L73.9638 20.5593C73.01 21.4783 71.7615 21.9986 70.2701 21.9986ZM73.1314 16.5361C73.1141 15.1662 72.195 13.4668 70.0794 13.4668C68.1025 13.4668 67.1141 15.1315 67.0447 16.5361H73.1314Z" fill="#E54B4D"/>
<path d="M20.0893 25.0578C23.8176 23.7746 26.3147 20.2717 26.3321 16.3526C26.3321 11.237 22.1355 7.09249 16.9679 7.09249C11.8003 7.09249 7.60373 11.2543 7.60373 16.3526C7.60373 20.7052 10.6558 24.3468 14.7309 25.3353V26.237C10.1529 25.2312 6.71934 21.1908 6.71934 16.3526C6.71934 10.7514 11.3147 6.20809 16.9679 6.20809C22.6211 6.20809 27.2164 10.7514 27.2164 16.3526C27.1991 20.7746 24.3205 24.6936 20.0893 26.0116V25.0578ZM16.9679 11.4971C14.28 11.4798 12.0777 13.6647 12.0604 16.3526C12.0604 18.1734 13.1008 19.8382 14.7309 20.6532V21.6416C11.7829 20.4104 10.3783 17.0116 11.6095 14.0636C12.8407 11.1156 16.2396 9.71098 19.1875 10.9422C22.1355 12.1734 23.5401 15.5723 22.3089 18.5202C21.8581 19.6127 21.0777 20.5491 20.0719 21.1734V20.0809C21.1991 19.1792 21.8581 17.8093 21.8581 16.3526C21.8581 13.6474 19.6558 11.4798 16.9679 11.4971ZM0.476562 16.3353C0.476562 21.8671 3.32049 27.0173 7.98523 30C8.26269 29.8266 8.54015 29.6532 8.8176 29.4971C9.02569 29.3931 9.21645 29.2717 9.42454 29.1676C9.66731 29.0462 9.92743 28.9249 10.1702 28.8035C10.4303 28.6821 10.6904 28.578 10.9506 28.474C11.1586 28.3873 11.3841 28.3179 11.5922 28.2312C11.887 28.1272 12.1991 28.0405 12.5112 27.9538C12.7367 27.8844 12.9795 27.8324 13.2222 27.7803C13.465 27.7283 13.7078 27.6763 13.9506 27.6243C14.1933 27.5723 14.4708 27.5376 14.7309 27.5029C15.0257 27.4682 15.3205 27.4335 15.6153 27.4162V17.6358H14.7309V15.8671H19.2049V27.4855C21.6153 27.815 23.9216 28.6647 25.9679 29.9827C30.6326 27 33.4592 21.8497 33.4766 16.3179C33.4766 7.30058 26.0893 0 16.9852 0C7.88119 0 0.476562 7.33526 0.476562 16.3353Z" fill="#E54B4D"/>
</svg>
