<svg width="171" height="30" viewBox="0 0 171 30" fill="none" xmlns="http://www.w3.org/2000/svg">
<path d="M59.1161 19.1298C59.8266 17.5382 61.3157 16.4547 63.2788 16.4547C65.242 16.4547 66.6973 17.3688 67.3065 19.1298H59.1161ZM71.9769 21.1618C71.9769 16.285 68.4229 12.3907 63.2451 12.3907C58.3714 12.3907 54.4455 16.3188 54.4455 21.1958C54.4455 26.0724 58.101 30.0007 63.3806 30.0007C67.0371 30.0007 69.667 28.2358 71.1467 25.7058L67.4691 23.5114C66.6889 25.0093 65.1913 25.937 63.4144 25.937C60.9775 25.937 59.4547 24.7176 58.9131 22.855H71.9769V21.1618ZM166.372 21.1618C166.372 18.6558 164.544 16.6239 162.04 16.6239C159.468 16.6239 157.505 18.5542 157.505 21.1618C157.505 23.7694 159.468 25.7338 162.04 25.7338C164.544 25.7338 166.372 23.668 166.372 21.1618ZM152.97 21.1958C152.97 15.2019 157.369 12.3907 161.194 12.3907C163.394 12.3907 165.12 13.2035 166.237 14.3887V4.94038H170.873V29.6619H166.237V27.7658C165.12 29.0866 163.326 30.0007 161.126 30.0007C157.538 30.0007 152.97 27.1559 152.97 21.1958ZM149.564 10.1522C151.095 10.1522 152.337 8.90975 152.337 7.3769C152.337 5.84406 151.095 4.60156 149.564 4.60156C148.032 4.60156 146.79 5.84406 146.79 7.3769C146.79 8.90975 148.032 10.1522 149.564 10.1522ZM147.245 12.7295H151.882V29.6619H147.245V17.2337L145.563 17.2334L147.245 12.7295ZM134.894 12.7295H139.497V15.5065C140.343 13.7455 141.866 12.7295 144.167 12.7295H146.029L144.347 17.2334H143.084C140.613 17.2334 139.53 18.5205 139.53 21.6698V29.6619H134.894V12.7295ZM108.81 17.3013C108.81 10.2571 114.123 4.60156 121.433 4.60156C125.09 4.60156 128.165 5.91909 130.391 8.01866C131.297 8.87293 132.063 9.857 132.669 10.9345L128.541 13.4405C127.018 10.6295 124.682 9.1733 121.467 9.1733C116.966 9.1733 113.48 12.8649 113.48 17.3013C113.48 21.8392 116.898 25.4287 121.636 25.4287C125.224 25.4287 127.762 23.397 128.642 20.2474H120.892V15.7435H133.719V17.6398C133.719 24.2776 128.981 30.0007 121.636 30.0007C113.92 30.0007 108.81 24.1422 108.81 17.3013ZM103.22 21.1618C103.22 18.6558 101.393 16.6239 98.8887 16.6239C96.3165 16.6239 94.3534 18.5542 94.3534 21.1618C94.3534 23.7694 96.3165 25.7338 98.8887 25.7338C101.393 25.7338 103.22 23.668 103.22 21.1618ZM89.8183 21.1958C89.8183 15.2019 94.2178 12.3907 98.0424 12.3907C100.242 12.3907 101.968 13.2035 103.085 14.3887V4.94038H107.722V29.6619H103.085V27.7658C101.968 29.0866 100.175 30.0007 97.9749 30.0007C94.3874 30.0007 89.8183 27.1559 89.8183 21.1958ZM73.0607 12.7295H77.6638V14.6259C78.7467 13.2373 80.4053 12.3907 82.3342 12.3907C86.3276 12.3907 88.7307 14.9645 88.7307 19.333V29.6619H84.0263V19.9426C84.0263 17.6736 82.9772 16.3528 80.913 16.3528C79.1529 16.3528 77.6976 17.572 77.6976 20.4166V29.6619H73.0607V12.7295ZM35.2031 25.5644L39.5016 22.1776C40.7198 24.2776 42.649 25.4966 44.8485 25.4966C47.2518 25.4966 48.538 23.939 48.538 22.2454C48.538 20.2136 46.067 19.5705 43.4273 18.7572C40.1108 17.7414 36.4215 16.4547 36.4215 11.7133C36.4215 7.75114 39.874 4.60156 44.6457 4.60156C48.6733 4.60156 50.9747 6.12555 52.9716 8.19156L49.0793 11.1377C48.0641 9.61396 46.6089 8.80093 44.6795 8.80093C42.4797 8.80093 41.2955 9.98633 41.2955 11.5441C41.2955 13.4405 43.6643 14.0843 46.304 14.9645C49.6549 16.048 53.4453 17.5382 53.4453 22.2796C53.4453 26.2078 50.3314 30.0007 44.8825 30.0007C40.4154 30.0007 37.4371 28.1046 35.2031 25.5644Z" fill="#212F38"/>
<path d="M29.646 0V19.7765H19.764V29.6642H0.00023288L0 9.888H9.88201V0H29.646Z" fill="#9DD6E3"/>
<path d="M0 29.6605H9.88201V19.7734H0V29.6605Z" fill="#3F72AB"/>
<path d="M19.7734 19.7701H29.6554V9.88281H19.7734V19.7701Z" fill="#00A9D1"/>
<path d="M9.88281 9.88706H19.7648V0H9.88281V9.88706Z" fill="#00A9D1"/>
<path d="M9.88281 19.7699H19.7648V9.88281H9.88281V19.7699Z" fill="#2191C4"/>
<path d="M19.7734 9.88706H29.6554V0H19.7734V9.88706Z" fill="#3F72AB"/>
</svg>
