<svg width="71" height="30" viewBox="0 0 71 30" fill="none" xmlns="http://www.w3.org/2000/svg">
<g clip-path="url(#clip0_9963_11058)">
<path fill-rule="evenodd" clip-rule="evenodd" d="M70.9965 15.4979C70.9965 10.3724 68.5511 6.32812 63.8772 6.32812C59.1836 6.32812 56.3438 10.3724 56.3438 15.4579C56.3438 21.4843 59.6963 24.5275 64.5083 24.5275C66.8551 24.5275 68.63 23.987 69.971 23.2261V19.2219C68.63 19.9026 67.0918 20.3231 65.1394 20.3231C63.2264 20.3231 61.5304 19.6423 61.3135 17.2798H70.9571C70.9571 17.0195 70.9965 15.9784 70.9965 15.4979ZM61.2543 13.5959C61.2543 11.3335 62.6151 10.3925 63.8575 10.3925C65.0605 10.3925 66.3424 11.3335 66.3424 13.5959H61.2543Z" fill="#635BFF"/>
<path fill-rule="evenodd" clip-rule="evenodd" d="M48.7338 6.32812C46.8011 6.32812 45.5587 7.24911 44.8685 7.88979L44.6121 6.64847H40.2734V29.9934L45.2037 28.9322L45.2234 23.2662C45.9334 23.7867 46.9786 24.5275 48.7141 24.5275C52.2442 24.5275 55.4587 21.6445 55.4587 15.2977C55.439 9.4915 52.185 6.32812 48.7338 6.32812ZM47.5505 20.1228C46.387 20.1228 45.6967 19.7024 45.2234 19.1818L45.2037 11.7539C45.7165 11.1733 46.4264 10.7729 47.5505 10.7729C49.3452 10.7729 50.5876 12.815 50.5876 15.4378C50.5876 18.1207 49.3649 20.1228 47.5505 20.1228Z" fill="#635BFF"/>
<path fill-rule="evenodd" clip-rule="evenodd" d="M33.4844 5.14549L38.4344 4.06433V0L33.4844 1.06113V5.14549Z" fill="#635BFF"/>
<path d="M38.4344 6.66406H33.4844V24.1828H38.4344V6.66406Z" fill="#635BFF"/>
<path fill-rule="evenodd" clip-rule="evenodd" d="M28.1769 8.14947L27.8613 6.66789H23.6016V24.1866H28.5318V12.3139C29.6954 10.7723 31.6675 11.0526 32.2789 11.2728V6.66789C31.6478 6.42763 29.3404 5.98716 28.1769 8.14947Z" fill="#635BFF"/>
<path fill-rule="evenodd" clip-rule="evenodd" d="M18.316 2.32031L13.5041 3.36142L13.4844 19.3985C13.4844 22.3617 15.6734 24.544 18.5921 24.544C20.2093 24.544 21.3925 24.2437 22.0433 23.8833V19.819C21.4123 20.0793 18.2963 21.0002 18.2963 18.0371V10.9295H22.0433V6.66495H18.2963L18.316 2.32031Z" fill="#635BFF"/>
<path fill-rule="evenodd" clip-rule="evenodd" d="M4.98945 11.7539C4.98945 10.9731 5.62052 10.6728 6.66574 10.6728C8.16455 10.6728 10.0578 11.1332 11.5566 11.9541V7.24911C9.91973 6.5884 8.30259 6.32812 6.66574 6.32812C2.66235 6.32812 0 8.45039 0 11.9942C0 17.5201 7.49403 16.6391 7.49403 19.0217C7.49403 19.9426 6.70518 20.243 5.6008 20.243C3.96395 20.243 1.87351 19.5622 0.216932 18.6413V23.4063C2.051 24.2072 3.90478 24.5476 5.6008 24.5476C9.70279 24.5476 12.5229 22.4854 12.5229 18.9015C12.5032 12.9352 4.98945 13.9963 4.98945 11.7539Z" fill="#635BFF"/>
</g>
<defs>
<clipPath id="clip0_9963_11058">
<rect width="71" height="30" fill="white"/>
</clipPath>
</defs>
</svg>
