<svg width="70" height="39" viewBox="0 0 70 39" fill="none" xmlns="http://www.w3.org/2000/svg">
<path d="M52.077 11.7509L57.8837 1.75683C58.2114 1.19656 58.0132 0.484848 57.4569 0.159281C56.9007 -0.166281 56.1767 0.0229956 55.8567 0.583272L49.9738 10.7061C45.4855 8.66942 40.4332 7.53371 35 7.53371C29.5667 7.53371 24.5145 8.6694 20.0261 10.7061L14.1432 0.583272C13.8156 0.0229956 13.0993 -0.166281 12.5354 0.159281C11.9715 0.484848 11.7809 1.19656 12.1086 1.75683L17.9153 11.7509C7.90222 17.1417 1.12016 27.2116 0 39H70C68.8798 27.2115 62.0977 17.1416 52.077 11.7509ZM18.9288 29.2331C17.3057 29.2331 15.995 27.9233 15.995 26.3181C15.995 24.7054 17.3133 23.4032 18.9288 23.4032C20.5519 23.4032 21.8626 24.713 21.8626 26.3181C21.8702 27.9233 20.5519 29.2331 18.9288 29.2331ZM51.0636 29.2331C49.4405 29.2331 48.1298 27.9233 48.1298 26.3181C48.1298 24.7054 49.4481 23.4032 51.0636 23.4032C52.6867 23.4032 53.9974 24.713 53.9974 26.3181C54.005 27.9233 52.6867 29.2331 51.0636 29.2331Z" fill="#32DE84"/>
</svg>
