<svg width="38" height="45" viewBox="0 0 38 45" fill="none" xmlns="http://www.w3.org/2000/svg">
<path fill-rule="evenodd" clip-rule="evenodd" d="M33.5567 8.70312L26.1875 22.5898L33.5567 36.4766L36.5754 34.8066V10.373L33.5567 8.70312Z" fill="#E25444"/>
<path fill-rule="evenodd" clip-rule="evenodd" d="M33.561 8.70312L18.8226 10.373L11.3203 22.5898L18.8226 34.8066L33.561 36.4766V8.70312Z" fill="#7B1D13"/>
<path fill-rule="evenodd" clip-rule="evenodd" d="M3.81907 8.70312L1.42188 9.75781V35.4219L3.81907 36.4766L18.8237 22.5898L3.81907 8.70312Z" fill="#58150D"/>
<path fill-rule="evenodd" clip-rule="evenodd" d="M3.78125 8.67188L18.838 12.8125V32.7343L3.78125 36.4843V8.67188Z" fill="#E25444"/>
<path fill-rule="evenodd" clip-rule="evenodd" d="M18.8464 15.0001L12.4531 13.9844L18.8464 6.79688L25.2238 13.9844L18.8464 15.0001Z" fill="#58150D"/>
<path fill-rule="evenodd" clip-rule="evenodd" d="M25.2238 13.9844L18.8385 15.0156L12.4531 13.9844V6.79688" fill="#58150D"/>
<path fill-rule="evenodd" clip-rule="evenodd" d="M18.8464 30.0781L12.4531 31.2501L18.8464 37.4219L25.2238 31.2501L18.8464 30.0781Z" fill="#58150D"/>
<path fill-rule="evenodd" clip-rule="evenodd" d="M18.8222 1.40625L12.4297 4.74609V13.9746L18.8421 12.1875L18.8222 1.40625Z" fill="#7B1D13"/>
<path fill-rule="evenodd" clip-rule="evenodd" d="M18.8385 17.2656L12.4531 17.9532V27.1675L18.8385 27.8906V17.2656Z" fill="#7B1D13"/>
<path fill-rule="evenodd" clip-rule="evenodd" d="M18.8385 32.8115L12.4531 31.2266V40.2848L18.8385 43.5928V32.8115Z" fill="#7B1D13"/>
<path fill-rule="evenodd" clip-rule="evenodd" d="M25.2291 31.2266L18.8438 32.8119V43.5928L25.2291 40.2848V31.2266Z" fill="#E25444"/>
<path fill-rule="evenodd" clip-rule="evenodd" d="M18.8438 17.2656L25.2291 17.9532V27.1675L18.8438 27.8906V17.2656Z" fill="#E25444"/>
<path fill-rule="evenodd" clip-rule="evenodd" d="M18.8203 1.40625L25.2128 4.74609V13.9746L18.8203 12.2168V1.40625Z" fill="#E25444"/>
</svg>
