<svg width="40" height="45" viewBox="0 0 40 45" fill="none" xmlns="http://www.w3.org/2000/svg">
<path d="M39.6787 0L36.0639 40.4953L19.8151 45L3.611 40.5016L0 0H39.6787Z" fill="#264DE4"/>
<path d="M32.9697 37.9176L36.0588 3.3125H19.8398V41.5577L32.9697 37.9176Z" fill="#2965F1"/>
<path d="M8.27734 18.332L8.72255 23.2993H19.8386V18.332H8.27734Z" fill="#EBEBEB"/>
<path d="M19.8386 8.27734H19.8214H7.38281L7.83436 13.2448H19.8386V8.27734Z" fill="#EBEBEB"/>
<path d="M19.8394 36.403V31.2349L19.8176 31.2407L14.2854 29.7469L13.9318 25.7852H11.2436H8.94531L9.64124 33.5846L19.8165 36.4093L19.8394 36.403Z" fill="#EBEBEB"/>
<path d="M25.9371 23.2987L25.3605 29.741L19.8203 31.2363V36.4043L30.0037 33.5819L30.0784 32.7427L31.2457 19.6653L31.3669 18.3314L32.2636 8.27734H19.8203V13.2448H26.8198L26.3678 18.3314H19.8203V23.2987H25.9371Z" fill="white"/>
</svg>
