<svg width="45" height="45" viewBox="0 0 45 45" fill="none" xmlns="http://www.w3.org/2000/svg">
<circle cx="22.5" cy="22.5" r="22.5" fill="#F1C30F"/>
<path d="M36 29.9222C35.0179 30.1719 34.4104 29.9332 33.8653 29.1147L29.9891 23.7518L29.4289 23.0093L24.9022 29.1324C24.3849 29.869 23.8424 30.1897 22.8772 29.9289L28.6737 22.1479L23.2771 15.1194C24.2052 14.9389 24.8465 15.0308 25.416 15.8619L29.4365 21.2915L33.4865 15.8915C34.0054 15.1549 34.5631 14.8748 35.4946 15.1464L33.4021 17.9207L30.5671 21.6121C30.2296 22.034 30.276 22.3225 30.5865 22.7301L36 29.9222ZM9.00675 22.0179L9.48094 19.6858C10.7719 15.0705 16.0622 13.1527 19.7106 16.0045C21.8427 17.6819 22.3726 20.0545 22.2671 22.7123H10.2487C10.0682 27.4964 13.5115 30.3837 17.9016 28.9105C19.4414 28.3933 20.3484 27.1876 20.8024 25.679C21.0327 24.923 21.4141 24.8048 22.1245 25.0208C21.7617 26.9075 20.9433 28.4836 19.2136 29.4699C16.6292 30.9465 12.9403 30.4689 10.9997 28.4169C9.84375 27.2264 9.36619 25.7178 9.15188 24.1045C9.11813 23.8379 9.05063 23.5839 9 23.3283C9.0045 22.8918 9.00675 22.4553 9.00675 22.0188V22.0179ZM10.2707 21.6973H21.1314C21.0606 18.2379 18.9065 15.7809 15.9626 15.7598C12.7311 15.7345 10.4108 18.1333 10.2707 21.6973Z" fill="black"/>
</svg>
