<svg width="30" height="45" viewBox="0 0 30 45" fill="none" xmlns="http://www.w3.org/2000/svg">
<g clip-path="url(#clip0_8669_7917)">
<path d="M7.42953 45.0003C9.4248 45.0003 11.3383 44.2077 12.7492 42.7968C14.1601 41.3859 14.9527 39.4724 14.9527 37.4771V30.0234H7.42953C5.54218 30.1718 3.78016 31.0264 2.49501 32.4165C1.20987 33.8067 0.496094 35.6303 0.496094 37.5234C0.496094 39.4166 1.20987 41.2402 2.49501 42.6304C3.78016 44.0205 5.54218 44.875 7.42953 45.0234V45.0003Z" fill="#47B97E"/>
<path d="M-0.046875 22.4997C-0.0469126 20.5124 0.739344 18.6059 2.14021 17.1963C3.54108 15.7868 5.44275 14.9888 7.42998 14.9766H14.9531V30.0229H7.42998C5.44275 30.0106 3.54108 29.2126 2.14021 27.8031C0.739344 26.3935 -0.0469126 24.487 -0.046875 22.4997Z" fill="#8062A9"/>
<path d="M-0.046875 7.49971C-0.046875 5.50445 0.74574 3.59091 2.1566 2.18004C3.56747 0.769178 5.48101 -0.0234375 7.47627 -0.0234375H14.9531V14.9766H7.42998C5.45074 14.9644 3.55602 14.1728 2.15646 12.7732C0.756904 11.3737 -0.0347321 9.47895 -0.046875 7.49971Z" fill="#EF4F23"/>
<path d="M15 0H22.5231C24.3848 0.179483 26.1128 1.04596 27.3703 2.43045C28.6277 3.81493 29.3243 5.61815 29.3243 7.48843C29.3243 9.3587 28.6277 11.1619 27.3703 12.5464C26.1128 13.9309 24.3848 14.7974 22.5231 14.9768H15V0Z" fill="#F27264"/>
<path d="M29.9994 22.4999C29.9994 23.9898 29.557 25.4461 28.7283 26.6843C27.8995 27.9224 26.7218 28.8866 25.3445 29.4547C23.9671 30.0227 22.4521 30.1689 20.9915 29.8749C19.5309 29.5808 18.1905 28.8597 17.1402 27.8029C16.0899 26.7462 15.3771 25.4013 15.0921 23.939C14.8071 22.4766 14.9627 20.9625 15.5392 19.5886C16.1157 18.2148 17.0871 17.0431 18.3304 16.222C19.5736 15.401 21.0327 14.9675 22.5226 14.9767C24.5098 14.9889 26.4115 15.7869 27.8123 17.1965C29.2132 18.606 29.9995 20.5126 29.9994 22.4999Z" fill="#45B6E8"/>
</g>
<defs>
<clipPath id="clip0_8669_7917">
<rect width="30" height="45" fill="white"/>
</clipPath>
</defs>
</svg>
