<svg width="45" height="45" viewBox="0 0 45 45" fill="none" xmlns="http://www.w3.org/2000/svg">
<g clip-path="url(#clip0_8669_7884)">
<path d="M29.9261 14.3822L33.8377 10.4705L34.0984 8.82343C26.9703 2.34185 15.6393 3.07679 9.21359 10.3569C7.42871 12.379 6.10455 14.8998 5.39844 17.503L6.79941 17.3056L14.6226 16.0155L15.2265 15.3978C18.7065 11.576 24.5904 11.0618 28.6084 14.3136L29.9261 14.3822Z" fill="#EA4335"/>
<path d="M39.4114 17.3886C38.5123 14.0776 36.6664 11.1011 34.0998 8.82422L28.6098 14.3142C30.928 16.2084 32.2487 19.0621 32.192 22.0551V23.0296C34.8905 23.0296 37.0782 25.2172 37.0782 27.9156C37.0782 30.6142 34.8905 32.747 32.192 32.747H22.4061L21.4453 33.7901V39.6506L22.4061 40.5701H32.192C39.211 40.6248 44.9453 35.0341 45 28.0151C45.033 23.7607 42.9354 19.7722 39.4114 17.3886Z" fill="#4285F4"/>
<path d="M12.6333 40.571H22.4055V32.7477H12.6333C11.937 32.7475 11.2627 32.5979 10.6295 32.3086L9.24314 32.734L5.30406 36.6456L4.96094 37.977C7.16998 39.645 9.86523 40.583 12.6333 40.571Z" fill="#34A853"/>
<path d="M12.6335 15.1915C5.61433 15.2333 -0.0416053 20.9575 0.0002306 27.9764C0.0236095 31.896 1.8542 35.5856 4.96113 37.975L10.6297 32.3066C8.17037 31.1955 7.07754 28.3013 8.18865 25.8421C9.29959 23.3829 12.194 22.2901 14.653 23.401C15.7367 23.8906 16.6045 24.7586 17.0941 25.8421L22.7627 20.1737C20.3508 17.0207 16.6031 15.1772 12.6335 15.1915Z" fill="#FBBC05"/>
</g>
<defs>
<clipPath id="clip0_8669_7884">
<rect width="45" height="45" fill="white"/>
</clipPath>
</defs>
</svg>
