<svg width="39" height="45" viewBox="0 0 39 45" fill="none" xmlns="http://www.w3.org/2000/svg">
<path fill-rule="evenodd" clip-rule="evenodd" d="M26.0347 7.18403C27.6752 5.28278 28.7809 2.63473 28.4783 7.46509e-09C26.1144 0.0900008 23.2544 1.51009 21.5594 3.40909C20.0373 5.09433 18.7086 7.78709 19.0658 10.3701C21.7027 10.5658 24.3943 9.0875 26.0347 7.18403ZM31.948 23.9065C32.014 30.7172 38.1821 32.9828 38.2504 33.012C38.2003 33.1718 37.2652 36.2402 35.0014 39.4127C33.0424 42.1532 31.0106 44.8826 27.8094 44.9411C24.6651 44.9973 23.6526 43.1547 20.0555 43.1547C16.4606 43.1547 15.3367 44.8824 12.3607 44.9971C9.27097 45.1074 6.91612 42.0321 4.94351 39.3007C0.907287 33.7139 -2.17562 23.5129 1.96526 16.628C4.02206 13.2102 7.69652 11.0426 11.6872 10.9886C14.7201 10.9324 17.5846 12.9442 19.4389 12.9442C21.2932 12.9442 24.7743 10.5255 28.4328 10.881C29.964 10.9417 34.2642 11.4725 37.024 15.3447C36.801 15.4775 31.8934 18.214 31.948 23.9065Z" fill="black"/>
</svg>
