<svg width="45" height="45" viewBox="0 0 45 45" fill="none" xmlns="http://www.w3.org/2000/svg">
<g clip-path="url(#clip0_8669_7877)">
<path d="M22.5 45C34.9264 45 45 34.9264 45 22.5C45 10.0736 34.9264 0 22.5 0C10.0736 0 0 10.0736 0 22.5C0 34.9264 10.0736 45 22.5 45Z" fill="#13AA52"/>
<path d="M28.5154 19.7498C27.0942 13.4775 23.7355 11.4151 23.3738 10.6272C22.9783 10.0713 22.5775 9.08252 22.5775 9.08252C22.5709 9.06582 22.5604 9.03638 22.5481 9.00781C22.5072 9.56372 22.4861 9.77817 21.9605 10.3389C21.1467 10.9752 16.971 14.479 16.6313 21.6052C16.3145 28.2515 21.4323 32.2118 22.1245 32.7167L22.2031 32.7726V32.7677C22.2075 32.8011 22.4228 34.3498 22.574 35.9907H23.1163C23.2435 34.8308 23.4343 33.6787 23.6876 32.5396L23.7315 32.5111C24.0411 32.2891 24.3363 32.0476 24.6153 31.7882L24.6469 31.7596C26.1182 30.4004 28.7633 27.2565 28.7373 22.2441C28.7319 21.408 28.6576 20.5738 28.5154 19.7498ZM22.5165 28.9643C22.5165 28.9643 22.5165 19.6426 22.8241 19.6443C23.064 19.6443 23.3747 31.6682 23.3747 31.6682C22.9476 31.6168 22.5165 29.6894 22.5165 28.9643Z" fill="white"/>
</g>
<defs>
<clipPath id="clip0_8669_7877">
<rect width="45" height="45" fill="white"/>
</clipPath>
</defs>
</svg>
