<svg width="49" height="45" viewBox="0 0 49 45" fill="none" xmlns="http://www.w3.org/2000/svg">
<path d="M19.9666 45C19.364 45 18.7655 44.8419 18.2372 44.5377L12.7323 41.2786C11.91 40.8188 12.3112 40.6562 12.5824 40.5625C13.6787 40.1786 13.9012 40.0919 15.0713 39.4274C15.1943 39.3572 15.3553 39.382 15.4812 39.4563L19.7103 41.9658C19.863 42.0484 20.0797 42.0484 20.2213 41.9658L36.7108 32.4477C36.8636 32.361 36.9626 32.1835 36.9626 32.0019V12.9739C36.9626 12.7841 36.8636 12.6148 36.7076 12.5199L20.2246 3.01002C20.0719 2.91921 19.8696 2.91921 19.7169 3.01002L3.23724 12.5199C3.0775 12.6107 2.97597 12.7882 2.97597 12.9698V31.9978C2.97597 32.1794 3.07503 32.3528 3.23187 32.4394L7.74742 35.0481C10.1992 36.2739 11.6975 34.8293 11.6975 33.3764V14.596C11.6975 14.3278 11.908 14.1214 12.1763 14.1214H14.2648C14.5249 14.1214 14.7395 14.3278 14.7395 14.596V33.3847C14.7395 36.6537 12.9564 38.5317 9.85659 38.5317C8.90313 38.5317 8.15191 38.5317 6.05512 37.4998L1.72944 35.0068C0.660409 34.3877 0 33.2319 0 31.9978V12.9698C0 11.7315 0.660409 10.5758 1.72944 9.96494L18.2355 0.44268C19.2798 -0.14756 20.6666 -0.14756 21.7027 0.44268L38.1881 9.96907C39.253 10.5841 39.9175 11.7357 39.9175 12.9739V32.0019C39.9175 33.2361 39.253 34.3877 38.1881 35.0068L21.7027 44.529C21.1743 44.8345 20.5758 44.9913 19.965 44.9913" fill="#539E43"/>
<path d="M25.0597 31.889C17.8448 31.889 16.332 28.577 16.332 25.7992C16.332 25.535 16.545 25.3245 16.8096 25.3245H18.9394C19.1747 25.3245 19.3728 25.4958 19.4099 25.7282C19.7319 27.8984 20.6895 28.9931 25.0523 28.9931C28.5277 28.9931 30.0054 28.208 30.0054 26.3651C30.0054 25.3043 29.5844 24.5159 24.1855 23.9876C19.67 23.5418 16.8798 22.5471 16.8798 18.9355C16.8798 15.6087 19.6865 13.6274 24.3878 13.6274C29.6669 13.6274 32.2838 15.4601 32.614 19.3978C32.6264 19.534 32.5768 19.666 32.486 19.7651C32.3952 19.86 32.2673 19.9178 32.1352 19.9178H29.993C29.7701 19.9178 29.5761 19.761 29.5307 19.5463C29.0148 17.2638 27.7682 16.5332 24.3795 16.5332C20.5863 16.5332 20.1446 17.8541 20.1446 18.8447C20.1446 20.0458 20.6647 20.3966 25.7829 21.0735C30.8515 21.7463 33.2579 22.6957 33.2579 26.2577C33.2579 29.8487 30.2613 31.9084 25.0358 31.9084M45.1205 11.7288H45.6735C46.1276 11.7288 46.2143 11.4109 46.2143 11.2252C46.2143 10.7382 45.8799 10.7382 45.6942 10.7382H45.1246L45.1205 11.7288ZM44.4477 10.1686H45.6735C46.0946 10.1686 46.9201 10.1686 46.9201 11.1096C46.9201 11.7659 46.4991 11.9021 46.2473 11.9847C46.7385 12.0177 46.7715 12.3396 46.8375 12.7937C46.8705 13.0785 46.9242 13.5697 47.0233 13.7348H46.2679C46.2473 13.5697 46.1317 12.6616 46.1317 12.6121C46.0822 12.4098 46.012 12.3108 45.7602 12.3108H45.137V13.7389H44.4477V10.1686ZM42.9741 11.9434C42.9741 13.4211 44.167 14.6181 45.6323 14.6181C47.1099 14.6181 48.3028 13.3963 48.3028 11.9434C48.3028 10.4616 47.0934 9.28526 45.6282 9.28526C44.1835 9.28526 42.97 10.4451 42.97 11.9393M48.8146 11.9517C48.8146 13.7017 47.3824 15.1299 45.6364 15.1299C43.9028 15.1299 42.4582 13.7182 42.4582 11.9517C42.4582 10.152 43.9359 8.77344 45.6364 8.77344C47.3493 8.77344 48.8105 10.1562 48.8105 11.9517" fill="#539E43"/>
</svg>
