<svg width="51" height="45" viewBox="0 0 51 45" fill="none" xmlns="http://www.w3.org/2000/svg">
<g clip-path="url(#clip0_8669_7864)">
<path d="M25.4988 27.0122C28.0093 27.0122 30.0444 24.9938 30.0444 22.5041C30.0444 20.0144 28.0093 17.9961 25.4988 17.9961C22.9883 17.9961 20.9531 20.0144 20.9531 22.5041C20.9531 24.9938 22.9883 27.0122 25.4988 27.0122Z" fill="#61DAFB"/>
<path d="M25.5007 31.7376C38.9716 31.7376 49.892 27.6025 49.892 22.5016C49.892 17.4007 38.9716 13.2656 25.5007 13.2656C12.0297 13.2656 1.10938 17.4007 1.10938 22.5016C1.10938 27.6025 12.0297 31.7376 25.5007 31.7376Z" stroke="#61DAFB" stroke-width="2.44338"/>
<path d="M17.4361 27.1182C24.1716 38.6879 33.2427 45.9993 37.6971 43.4489C42.1514 40.8985 40.3022 29.4519 33.5667 17.8823C26.8313 6.31263 17.7601 -0.998865 13.3058 1.55158C8.8514 4.10202 10.7006 15.5486 17.4361 27.1182Z" stroke="#61DAFB" stroke-width="2.44338"/>
<path d="M17.4354 17.8807C10.6999 29.4503 8.85072 40.8969 13.3051 43.4473C17.7594 45.9978 26.8306 38.6863 33.5661 27.1166C40.3015 15.547 42.1507 4.10043 37.6964 1.54999C33.242 -1.00046 24.1709 6.31104 17.4354 17.8807Z" stroke="#61DAFB" stroke-width="2.44338"/>
</g>
<defs>
<clipPath id="clip0_8669_7864">
<rect width="51" height="45" fill="white"/>
</clipPath>
</defs>
</svg>
