<svg width="65" height="35" viewBox="0 0 65 35" fill="none" xmlns="http://www.w3.org/2000/svg">
<path d="M19.5953 23.2411C22.8128 23.2411 25.421 20.6329 25.421 17.4155C25.421 14.1981 22.8128 11.5898 19.5953 11.5898C16.3779 11.5898 13.7697 14.1981 13.7697 17.4155C13.7697 20.6329 16.3779 23.2411 19.5953 23.2411ZM5.82564 34.8924C9.04305 34.8924 11.6513 32.2842 11.6513 29.0668C11.6513 25.8494 9.04305 23.2411 5.82564 23.2411C2.60823 23.2411 0 25.8494 0 29.0668C0 32.2842 2.60823 34.8924 5.82564 34.8924ZM58.4329 34.8924C61.6504 34.8924 64.2586 32.2842 64.2586 29.0668C64.2586 25.8494 61.6504 23.2411 58.4329 23.2411C55.2155 23.2411 52.6073 25.8494 52.6073 29.0668C52.6073 32.2842 55.2155 34.8924 58.4329 34.8924Z" fill="black"/>
<path d="M39.2989 17.6603C39.1127 15.7139 39.0178 14.094 37.5268 12.9554C35.6385 11.5135 33.4995 12.4491 30.8647 11.4981C28.2758 10.8718 26.3555 8.57314 26.3555 5.83333C26.3555 2.61167 29.0106 0 32.2859 0C34.7118 0 36.7974 1.43263 37.7161 3.48466C39.1221 6.1553 38.2083 8.87322 39.9748 10.2422C42.0666 11.8633 44.8866 10.6762 48.0332 12.2121C49.0443 12.6767 49.9001 13.4136 50.5032 14.3269C51.1062 15.2402 51.4565 16.3299 51.4565 17.5C51.4565 20.2398 49.5362 22.5385 46.9472 23.1648C44.3124 24.1158 42.1735 23.1802 40.2851 24.6221C38.1617 26.2435 39.2985 28.9562 37.5679 31.8217C36.5857 33.7085 34.5891 35 32.2859 35C29.0106 35 26.3555 32.3883 26.3555 29.1667C26.3555 26.8264 27.7566 24.808 29.7787 23.8787C32.9254 22.3429 35.7454 23.53 37.8371 21.9089C39.0438 20.9738 39.2989 19.5312 39.2989 17.6603Z" fill="#D0021B"/>
</svg>
