<svg width="45" height="45" viewBox="0 0 45 45" fill="none" xmlns="http://www.w3.org/2000/svg">
<path d="M31.1803 31.4276C32.8409 31.2466 34.1007 29.7386 34.0434 27.9289C33.9862 26.1193 32.5545 24.6715 30.8366 24.6715H30.7222C28.9468 24.7319 27.5725 26.3002 27.6298 28.1701C27.6871 29.075 28.0306 29.8592 28.546 30.402C26.599 34.4437 23.6213 37.3994 19.1547 39.8726C16.1197 41.5616 12.9702 42.1648 9.82072 41.7427C7.24377 41.3807 5.23951 40.1744 3.97951 38.1835C2.14717 35.2278 1.97543 32.0307 3.5216 28.8337C4.60969 26.5415 6.32742 24.8524 7.41551 24.0079C7.18646 23.2238 6.84281 21.8968 6.67107 20.9317C-1.63231 27.2654 -0.773264 35.8311 1.74638 39.8726C3.63603 42.8888 7.47281 44.7587 11.7104 44.7587C12.8556 44.7587 14.0008 44.638 15.1462 44.3366C22.4761 42.8285 28.0308 38.2439 31.1803 31.4276ZM41.2588 23.9478C36.9067 18.5791 30.4931 15.6234 23.1632 15.6234H22.247C21.7317 14.5376 20.6436 13.8136 19.4411 13.8136H19.3264C17.5514 13.874 16.1771 15.4423 16.2343 17.3124C16.2916 19.122 17.7231 20.5697 19.4411 20.5697H19.5555C20.8153 20.5094 21.9034 19.6648 22.3615 18.5187H23.3923C27.7444 18.5187 31.8674 19.8457 35.5897 22.4396C38.4529 24.4303 40.5144 27.0242 41.6596 30.1608C42.6331 32.6943 42.5758 35.1675 41.545 37.2789C39.9417 40.4758 37.2503 42.2252 33.6999 42.2252C31.4093 42.2252 29.2333 41.5012 28.0879 40.9583C27.4581 41.5616 26.3127 42.5266 25.511 43.1301C27.9735 44.3364 30.4931 45 32.8982 45C38.3955 45 42.4614 41.8029 44.0075 38.6059C45.6681 35.1071 45.5535 29.075 41.2588 23.9478ZM12.1685 32.4529C12.2258 34.2626 13.6573 35.7102 15.3752 35.7102H15.4898C17.2651 35.65 18.6393 34.0815 18.582 32.2116C18.5249 30.4019 17.0931 28.9543 15.3752 28.9543H15.2608C15.1462 28.9543 14.9743 28.9543 14.86 29.0145C12.5121 24.9126 11.5386 20.449 11.8823 15.6232C12.1111 12.0039 13.2565 8.86709 15.2608 6.2732C16.9214 4.04129 20.1282 2.95551 22.3044 2.89534C28.3743 2.77461 30.951 10.737 31.1229 13.9342C31.8674 14.1151 33.1272 14.5374 33.9862 14.839C33.2989 5.06707 27.5725 0 22.0753 0C16.9214 0 12.1685 3.92093 10.2786 9.71179C7.64455 17.4329 9.36246 24.8524 12.5692 30.7037C12.2831 31.1258 12.1111 31.7893 12.1685 32.4529Z" fill="#764ABC"/>
</svg>
