<svg width="42" height="45" viewBox="0 0 42 45" fill="none" xmlns="http://www.w3.org/2000/svg">
<path d="M40.6727 10.7507L21.7272 0.250017C21.2057 -0.0833389 20.5105 -0.0833389 19.989 0.250017C19.989 0.250017 18.4247 1.08341 18.4247 1.25008C16.339 2.41683 15.4699 4.75032 18.2509 6.08374C21.5533 7.75052 25.2034 9.58397 25.2034 9.58397C29.8964 11.9175 29.5487 13.4176 29.5487 16.0844V17.9179L18.2509 12.0841C17.3818 11.7508 16.8604 12.0841 16.8604 12.9175V15.5844C16.8604 16.4178 17.5557 17.5845 18.2509 17.9179L22.9438 20.418C25.3772 21.7515 29.5487 23.2516 29.5487 25.9184V40.4194L40.6727 34.5856C41.1942 34.2523 41.5418 33.7523 41.5418 33.2522V12.0841C41.5418 11.5841 41.1942 11.0841 40.6727 10.7507Z" fill="#ED4F2E"/>
<path d="M0.695251 34.2507L19.6408 44.7514C20.1623 45.0847 20.8575 45.0847 21.379 44.7514C21.379 44.7514 22.9433 43.918 22.9433 43.7513C25.029 42.5846 25.8981 40.2511 23.1171 38.9177C19.8147 37.2509 16.1646 35.4174 16.1646 35.4174C11.4716 33.2506 11.8193 31.5838 11.8193 28.917V27.0835L23.1171 32.9173C23.9862 33.4173 24.5076 32.9173 24.5076 32.0839V29.417C24.5076 28.5836 23.8123 27.4169 23.1171 27.0835L18.4241 24.5834C15.9908 23.2499 11.8193 21.7498 11.8193 19.083V4.58203L0.695251 10.4158C0.347625 10.7491 0 11.4158 0 11.9159V32.9173C0 33.4173 0.347625 33.9173 0.695251 34.2507Z" fill="#ED4F2E"/>
</svg>
