<svg width="45" height="45" viewBox="0 0 45 45" fill="none" xmlns="http://www.w3.org/2000/svg">
<g clip-path="url(#clip0_8669_8281)">
<path fill-rule="evenodd" clip-rule="evenodd" d="M29.8877 30.586V16.0412C29.8876 15.7924 29.7888 15.5539 29.6129 15.3781C29.437 15.2022 29.1985 15.1034 28.9497 15.1034H14.4219V0.0898438H43.9467C44.0699 0.0898195 44.1919 0.114062 44.3057 0.161187C44.4195 0.208313 44.5229 0.277397 44.61 0.364496C44.6971 0.451594 44.7663 0.555001 44.8134 0.668809C44.8605 0.782618 44.8848 0.904599 44.8848 1.02779V30.586H29.8877Z" fill="#8E75FF"/>
<path opacity="0.405" fill-rule="evenodd" clip-rule="evenodd" d="M14.4206 0.0898438V15.1034H0.554875C0.462144 15.1034 0.3715 15.0759 0.294398 15.0244C0.217295 14.9728 0.157193 14.8996 0.121686 14.8139C0.0861787 14.7283 0.0768594 14.634 0.0949055 14.5431C0.112952 14.4521 0.157553 14.3685 0.223075 14.3029L14.4206 0.0898438ZM29.8864 44.4664V30.586H44.8836L30.6871 44.7978C30.6215 44.8634 30.538 44.908 30.447 44.9261C30.3561 44.9442 30.2618 44.9349 30.1761 44.8995C30.0904 44.864 30.0172 44.8039 29.9656 44.7268C29.9141 44.6498 29.8865 44.5591 29.8864 44.4664ZM14.4206 15.1034H29.4174C29.5417 15.1034 29.661 15.1528 29.749 15.2407C29.837 15.3287 29.8864 15.4479 29.8864 15.5723V30.586H15.3586C15.2354 30.586 15.1134 30.5618 14.9996 30.5146C14.8858 30.4675 14.7824 30.3984 14.6953 30.3113C14.6082 30.2242 14.5392 30.1208 14.492 30.007C14.4449 29.8932 14.4206 29.7713 14.4206 29.6481V15.1034Z" fill="#8E75FF"/>
</g>
<defs>
<clipPath id="clip0_8669_8281">
<rect width="45" height="45" fill="white"/>
</clipPath>
</defs>
</svg>
