<svg width="171" height="99" viewBox="0 0 171 99" fill="none" xmlns="http://www.w3.org/2000/svg">
<g clip-path="url(#clip0_9708_5779)">
<path d="M169.958 67.0122C169.578 66.947 169.182 66.9696 168.79 66.9696C160.292 66.9696 151.795 66.9696 143.297 66.9646C142.91 66.9646 142.509 66.9996 142.14 66.9144C141.914 66.8643 142.167 66.6362 142.157 66.4859C144.293 65.3255 145.534 63.4182 146.395 61.2478C146.917 59.932 146.907 58.5611 146.508 57.1776C145.943 55.2277 144.853 53.5761 143.731 51.927C143.478 51.556 143.083 51.2428 143.048 50.7741C143.889 50.4032 144.783 50.546 145.539 50.3154C145.659 49.8844 145.408 49.724 145.283 49.5084C143.919 47.1325 141.931 45.3405 139.817 43.6613C137.548 41.8568 135.276 40.0498 133.014 38.2327C131.548 37.0548 131.443 36.6062 132.125 34.9019C132.432 34.14 132.673 33.3656 132.763 32.5335C132.989 30.4809 132.482 28.5836 131.618 26.7565C128.799 20.7716 126.412 14.6037 123.844 8.51093C123.58 7.88937 123.261 7.26782 123.234 6.43323C123.924 6.43323 124.572 6.42571 125.219 6.43574C125.955 6.44827 126.69 6.49088 127.428 6.49589C129.088 6.50842 129.72 5.95203 129.821 4.30291C129.876 3.40065 129.889 2.49088 129.705 1.58611C129.484 0.515938 129.218 0.230224 128.091 0.117442C127.446 0.0547854 126.793 0.0196977 126.146 0.0196977C92.1018 0.0146851 58.0554 0.0146852 24.0116 0.0146852C23.7078 0.0146852 23.399 -0.0229088 23.1028 0.0222039C22.1664 0.170074 21.2049 -0.00285869 20.276 0.337993C19.6836 0.556039 19.3848 0.81669 19.2744 1.49338C19.0911 2.62621 19.2267 3.72646 19.302 4.84677C19.3522 5.62872 19.6685 6.01469 20.394 6.22521C20.8635 6.36055 21.3204 6.42321 21.7974 6.42822C25.1789 6.45078 28.5604 6.49839 31.942 6.49589C36.9704 6.49088 42.0013 6.44827 47.0296 6.43323C48.9727 6.42571 49.4095 6.86431 49.412 8.78411C49.417 12.5936 49.417 16.4032 49.407 20.2152C49.407 20.734 49.3468 21.2503 49.3116 21.7691C49.2815 22.2052 49.1384 22.5034 48.6062 22.4809C47.5367 22.4307 47.0698 23.0949 46.8388 24.0247C46.7535 24.3605 46.6531 24.6889 46.5376 25.0147C45.8096 27.0748 44.1602 28.0974 41.9761 27.7766C39.9427 27.4783 37.9042 27.5736 35.8758 27.6513C34.2566 27.7114 32.8482 28.3631 31.9495 29.8317C30.0767 32.8969 28.2291 35.9746 26.8985 39.3255C26.3688 40.6638 26.055 42.0372 26.0801 43.4859C26.1078 45.0022 26.1078 46.5184 26.0776 48.0322C26.055 49.1976 25.563 49.7064 24.4283 49.759C23.7379 49.7916 23.04 49.8142 22.3522 49.6814C21.2953 49.4758 20.9564 49.1124 20.871 48.0372C20.8434 47.6939 20.8635 47.3455 20.8635 46.9971C20.8635 41.0222 20.8635 35.0473 20.866 29.0723C20.866 28.4633 20.871 27.8568 20.6752 27.2728C20.6099 27.0748 20.5898 26.8317 20.3162 26.7916C19.9899 26.7415 19.8392 26.9621 19.7539 27.2152C19.5104 27.952 19.3095 28.6889 19.3221 29.4909C19.43 35.4608 19.4827 41.4307 19.6258 47.4007C19.6585 48.7966 19.2443 49.6387 17.8987 50.1976C15.2301 51.3104 15.1397 54.4082 16.4853 56.2001C17.266 57.2377 18.3029 57.5686 19.548 57.5636C23.7555 57.546 27.9605 57.5535 32.1679 57.5636C33.8876 57.5661 34.1738 57.8292 34.3997 59.541C34.4097 59.6262 34.4148 59.7139 34.4248 59.7991C34.7763 62.7465 36.2624 64.9621 38.7729 66.5159C38.7477 66.6663 39.0088 66.8869 38.7829 66.9395C38.454 67.0172 38.095 66.9646 37.7486 66.9646C25.9546 66.9646 14.1632 66.9646 2.36919 66.9671C1.85205 66.9671 1.32486 66.8969 0.820262 67.0673C0.267969 67.2528 -0.0709385 67.6362 -0.0081779 68.2327C0.0520723 68.8042 0.388469 69.1876 0.98846 69.2528C1.32988 69.2904 1.68134 69.2728 2.02778 69.2728C57.6563 69.2728 113.282 69.2728 168.908 69.2728C169.212 69.2728 169.518 69.2904 169.819 69.2628C170.535 69.2027 170.917 68.8643 170.979 68.2753C171.045 67.6463 170.655 67.1375 169.942 67.0122H169.958ZM121.152 7.76155C122.3 10.4157 123.399 13.0924 124.534 15.7515C126.374 20.0798 128.151 24.4382 130.107 28.7139C131.151 30.9946 130.561 32.9921 129.64 35.0448C129.552 35.2377 129.432 35.3831 129.151 35.343C127.921 35.1651 127.062 34.1976 127.346 33.0147C127.785 31.1851 127.371 29.536 126.715 27.8543C124.426 21.9896 122.179 16.1074 119.922 10.2277C119.493 9.10992 119.091 7.9796 118.677 6.85679C120.04 6.28035 120.59 6.4608 121.15 7.75905L121.152 7.76155ZM84.6508 7.88937C84.6534 6.84426 85.0525 6.47584 86.2148 6.44326C87.6433 6.40316 89.0767 6.39564 90.5077 6.43824C95.1042 6.57108 99.6983 6.48336 104.295 6.49338C107.676 6.50341 111.058 6.44576 114.44 6.43323C116.129 6.42571 116.526 6.70641 117.118 8.31293C119.531 14.8317 121.89 21.3731 124.67 27.7515C125.47 29.5886 125.495 31.5134 125.079 33.4658C124.757 34.9771 124.275 36.4332 123.761 38.0473C123.266 37.6964 122.817 37.4433 122.445 37.1049C119.666 34.5611 116.922 31.9771 114.128 29.4533C112.444 27.932 112.057 26.145 112.77 24.0548C112.923 23.6062 113.127 23.1676 113.134 22.6814C113.142 22.0899 112.916 21.9295 112.323 22.0197C111.937 22.0748 111.686 22.3029 111.495 22.5911C109.657 25.3681 107.835 28.1575 106.17 31.0423C105.849 31.5961 105.856 32.1951 106.032 32.8643C106.692 32.6763 107.187 32.2954 107.621 31.8042C109.07 30.1575 111.548 30.0347 113.242 31.7189C115.788 34.2503 118.521 36.5936 121.175 39.0172C121.464 39.2803 121.72 39.5736 122.011 39.8367C122.772 40.526 122.932 41.3681 122.671 42.323C121.951 44.942 121.24 47.5661 120.492 50.1776C120.188 51.2352 119.593 51.6964 118.501 51.7064C115.424 51.7315 112.343 51.7315 109.263 51.7064C108.179 51.6964 107.749 51.2027 107.734 50.0698C107.714 48.3405 107.752 46.6112 107.91 44.8844C107.995 43.937 107.985 42.9821 108.015 42.0322C108.048 41.0623 107.596 40.3856 106.748 39.947C105.854 39.4809 104.905 39.2377 103.903 39.1124C101.363 38.7966 98.7946 38.9395 96.254 38.6262C94.0674 38.3555 93.3218 37.5911 93.0658 35.4257C92.6691 32.0798 91.675 28.9345 89.7721 26.1174C88.8081 24.6914 87.5755 23.536 86.0341 22.7766C85.0851 22.3079 84.6759 21.5911 84.6709 20.6237C84.6458 16.3806 84.6408 12.1375 84.6534 7.89438L84.6508 7.88937ZM84.8818 36.0573C84.8567 35.9746 84.8692 35.8969 84.9195 35.8267C84.8517 35.5109 84.9144 35.2202 85.2634 35.1726C85.4065 35.1525 85.4492 35.4007 85.3914 35.5736C85.5446 36.739 86.0416 37.8643 85.9111 39.1676C84.7939 38.8092 84.5454 38.0773 84.6659 37.125C84.563 36.734 84.6232 36.3756 84.8818 36.0573ZM56.519 19.2653C56.6596 15.4157 56.5592 11.5585 56.5642 7.70641C56.5642 6.51093 56.5743 6.50341 57.7768 6.5009C61.8964 6.49589 66.016 6.49839 70.1381 6.49839C74.2602 6.49839 78.2041 6.49589 82.2358 6.5009C83.6693 6.5009 83.8525 6.67383 83.8475 8.02471C83.8324 12.0924 83.7973 16.1626 83.7973 20.2302C83.7973 21.155 83.6642 21.9144 82.7078 22.3781C82.0701 22.6864 81.9195 23.353 81.9295 24.0448C81.9446 24.942 82.2785 25.749 82.6877 26.5009C83.6517 28.2753 83.8927 30.1776 83.8877 32.145C83.8827 34.0473 83.9078 35.952 83.8048 37.8543C83.7571 38.759 83.5864 39.4558 82.5697 39.7089C81.9019 39.8718 81.7915 40.4633 81.8216 41.0548C81.8844 42.2628 81.9572 43.4708 82.0576 44.6763C82.1906 46.2703 82.3563 47.8593 82.5095 49.4508C82.517 49.536 82.5346 49.6212 82.5421 49.7089C82.7228 51.5986 81.9195 52.2428 80.0869 51.6688C79.4969 51.4834 79.3036 51.0423 79.3287 50.4608C79.4041 48.8618 79.4467 47.2628 79.5522 45.6663C79.6149 44.7189 79.6702 43.7691 79.7907 42.8217C80.0442 40.8593 79.2509 39.7991 77.2752 39.4382C75.2292 39.0648 73.1631 38.8267 71.0795 38.8217C69.9071 38.8192 68.7448 38.6964 67.5825 38.5585C66.375 38.4182 65.6168 37.7666 65.2252 36.6262C64.8034 35.3906 64.7432 34.0824 64.4168 32.8267C63.7516 30.2653 62.9658 27.7641 61.2637 25.6488C60.5458 24.759 59.7274 23.9846 58.7508 23.4232C57.1215 22.4834 56.4487 21.2027 56.519 19.2628V19.2653ZM56.6521 34.8543C57.6136 36.0723 57.8445 38.0974 57.1517 39.2102C56.0295 37.7866 56.7324 36.2778 56.6521 34.8543ZM50.863 26.4057C50.9384 25.8518 50.9434 25.2854 50.9434 24.724C50.9484 19.1901 50.9459 13.6563 50.9459 8.12245C50.9459 7.8618 50.9685 7.60115 50.9434 7.34551C50.8706 6.65378 51.1769 6.43574 51.8496 6.49088C52.4948 6.54351 53.1475 6.51343 53.7952 6.48336C55.3994 6.40566 55.6806 6.6613 55.6881 8.30541C55.6981 10.2503 55.6881 12.1951 55.6881 14.1425C55.6881 16.0899 55.678 18.1199 55.6931 20.1099C55.6981 21.0272 55.4446 21.7465 54.6337 22.323C53.489 23.1375 53.3258 23.9445 53.981 25.2653C54.6387 26.5886 55.2036 27.9395 55.432 29.3981C55.9065 32.4007 55.9241 35.4207 55.6103 38.4382C55.5098 39.4007 55.1308 39.7114 54.1668 39.7415C53.3885 39.7666 52.6053 39.7465 51.8321 39.6738C50.9685 39.5911 50.5744 39.1926 50.5919 38.323C50.6723 34.3505 50.3233 30.3706 50.8605 26.4082L50.863 26.4057ZM28.9872 47.7641C28.9747 48.5636 28.5579 49.3831 28.1989 49.4007C27.7797 49.4182 27.3831 48.5786 27.3379 47.6989C27.2374 45.6588 27.5738 43.6438 27.6366 41.6137C27.6567 41.0022 27.9429 40.4508 28.1487 39.8844C28.2291 39.6638 28.3345 39.4783 28.5906 39.5059C28.8542 39.531 28.9194 39.7565 28.927 39.9796C28.9546 40.8017 28.9772 41.6212 28.9897 42.4433C28.9998 43.0498 28.9922 43.6538 28.9922 44.2603C28.9922 45.4282 29.0048 46.5961 28.9872 47.7641ZM30.6491 48.0974C30.3077 47.7064 30.2474 47.2879 30.2424 46.8593C30.2148 44.7866 30.1772 42.7164 30.1746 40.6413C30.1746 39.6212 30.4784 39.2628 31.2617 39.2052C32.2382 39.135 32.5947 39.4433 32.6399 40.4382C32.7052 41.9044 32.6524 43.3681 32.7152 44.8367C32.778 46.3054 32.0876 47.4708 30.6516 48.0949L30.6491 48.0974ZM32.5269 33.2929C32.3186 33.2854 32.1102 33.2428 31.7964 33.2027C31.9796 31.7014 32.8683 30.7641 34.003 30.0047C34.8541 29.4332 35.8457 29.3179 36.8398 29.2227C39.1293 29.0047 41.4138 29.2077 43.7008 29.2177C44.2129 29.2202 44.4539 29.4032 44.3108 29.9069C44.1452 30.4834 43.9995 31.0849 43.7184 31.6062C43.1611 32.6387 42.3954 33.3004 41.0674 33.3054C38.2206 33.3179 35.3762 33.3806 32.5294 33.2904L32.5269 33.2929ZM43.4523 62.6538C41.2682 62.6362 39.4707 60.7265 39.531 58.4859C39.5887 56.2879 41.3937 54.5435 43.5728 54.5786C45.6815 54.6137 47.4966 56.5385 47.4388 58.6788C47.3786 60.8693 45.5736 62.6713 43.4523 62.6538ZM48.6237 32.6438C48.7643 32.4909 48.8597 32.2528 49.1334 32.3881C49.3141 32.4758 49.3292 32.6563 49.3292 32.8292C49.3317 33.739 49.3292 34.6463 49.3292 35.556H49.3317C49.3317 36.3781 49.3317 37.2001 49.3317 38.0222C49.3317 38.3255 49.3442 38.6312 49.1961 38.9094C48.9727 39.328 48.5811 39.3931 48.2497 39.0573C48.1593 38.9646 48.0589 38.8568 48.0288 38.739C47.4715 36.6337 46.884 34.526 48.6237 32.6438ZM132.904 66.9621C132.653 67.0222 132.387 66.9646 132.133 66.9646C104.373 66.9696 76.6125 66.9696 48.8522 66.9646C48.5861 66.9646 48.3024 67.0272 48.0438 66.9495C47.9359 66.9194 47.8355 66.8643 47.7376 66.7716C50.8856 64.9771 52.5601 62.3004 52.6354 58.6513C52.648 58.0573 52.5902 57.1901 53.0722 56.9996C53.6898 56.7565 53.9408 57.6613 54.3726 58.0423C54.5935 58.2377 54.7718 58.5059 54.9099 58.7691C55.5048 59.8994 56.4437 60.2703 57.6939 60.2603C64.1934 60.2077 70.6929 60.1951 77.1924 60.1901C92.3152 60.1826 107.438 60.1651 122.563 60.2152C124.476 60.2227 125.784 59.4809 126.791 57.9671C127.097 57.5084 127.426 57.0623 127.883 56.4132C128.177 57.7365 128.119 58.8869 128.372 59.9921C129.048 62.9445 130.366 65.4132 133.25 66.7716C133.142 66.8743 133.027 66.9295 132.909 66.957L132.904 66.9621ZM137.304 62.6538C135.223 62.5986 133.466 60.6939 133.496 58.5235C133.526 56.3605 135.349 54.556 137.478 54.5786C139.599 54.6012 141.545 56.5911 141.502 58.6964C141.462 60.7616 139.396 62.7089 137.304 62.6538Z" fill="white"/>
<path d="M146.437 75.3102C146.417 75.7438 146.091 76.0571 145.571 76.0947C145.247 76.1198 144.921 76.1022 144.594 76.1022H33.2446C32.9182 76.1022 32.5944 76.1022 32.268 76.0972C31.7961 76.0872 31.535 75.8265 31.4697 75.3779C31.407 74.9343 31.6856 74.5158 32.1551 74.418C32.4689 74.3528 32.8027 74.3754 33.1266 74.3754C38.7299 74.3754 44.3306 74.3754 49.9339 74.3754H144.587C144.948 74.3754 145.315 74.3503 145.669 74.4005C146.126 74.4681 146.455 74.8967 146.437 75.3128V75.3102Z" fill="white"/>
<path d="M89.5126 95.5082C89.2188 97.6009 87.7502 98.5107 86.018 98.7964C85.0917 98.9493 84.1578 98.9969 83.2164 98.9869C81.3738 98.9643 79.5311 98.9794 77.6885 98.9794C75.4115 98.9794 73.1346 98.9844 70.8601 98.9769C69.9087 98.9744 69.8735 98.9343 69.8509 98.017C69.8359 97.3678 69.8635 96.7187 69.8459 96.0696C69.8308 95.5533 70.0668 95.3478 70.5664 95.3854C70.8174 95.4029 71.0735 95.3854 71.3245 95.3854C75.3713 95.3854 79.4181 95.3854 83.4649 95.3854C85.5737 95.3854 86.126 94.7312 85.7871 92.6611C85.6741 91.9744 85.295 91.5759 84.5871 91.4681C84.198 91.4104 83.7963 91.4054 83.3997 91.4054C80.8692 91.4004 78.3412 91.433 75.8107 91.3904C74.7362 91.3728 73.6517 91.3578 72.5923 91.0846C71.0459 90.6861 70.1798 89.7037 69.9714 88.1448C69.7731 86.6736 69.7329 85.1974 70.0794 83.7363C70.5262 81.8515 71.7036 80.7713 73.6517 80.6836C75.8157 80.5884 77.9847 80.641 80.1537 80.6134C80.6784 80.6059 80.8466 80.8515 80.8315 81.3403C80.8114 82.0245 80.8039 82.7112 80.8315 83.3954C80.8566 83.9744 80.5855 84.1423 80.0483 84.1348C78.783 84.1122 77.5203 84.1272 76.255 84.1272C75.9663 84.1272 75.6751 84.1147 75.3889 84.1322C74.1387 84.2099 73.722 84.646 73.6944 85.8841C73.6567 87.6561 73.9705 87.9919 75.7253 87.9969C78.4717 88.0044 81.2181 87.9944 83.9645 88.0044C85.0139 88.0069 86.0582 88.1047 87.0624 88.433C88.4155 88.8741 89.2289 89.7814 89.4799 91.2099C89.731 92.646 89.7184 94.0721 89.5151 95.5107L89.5126 95.5082Z" fill="white"/>
<path d="M23.7746 98.9621C22.06 98.9621 20.4107 98.9646 18.7588 98.9596C18.4074 98.9596 18.1689 98.7115 17.9228 98.4984C16.2911 97.0799 14.6568 95.6613 13.0275 94.2378C11.6694 93.0523 10.3188 91.8568 8.96063 90.6713C8.83511 90.5611 8.67695 90.4909 8.48114 90.3681C8.29035 90.7891 8.35311 91.1475 8.35311 91.4909C8.34558 93.6187 8.35813 95.744 8.34558 97.8719C8.34056 98.8894 8.25771 98.9621 7.22342 98.9771C6.53807 98.9871 5.85022 98.9896 5.16487 98.9771C4.17576 98.9571 4.12305 98.9094 4.12053 97.9295C4.113 95.2252 4.12053 92.5235 4.12053 89.8192C4.12053 87.115 4.11551 84.4132 4.12053 81.7089C4.12053 80.6312 4.1356 80.6237 5.20755 80.6137C5.9657 80.6062 6.72384 80.5987 7.48199 80.6162C8.27026 80.6338 8.33805 80.6939 8.34307 81.5009C8.35813 83.521 8.34307 85.5385 8.3506 87.5561C8.3506 88.0072 8.28031 88.4708 8.46608 89.0623C9.05854 88.5586 9.57317 88.13 10.0803 87.6864C12.6309 85.4533 15.179 83.2202 17.727 80.9821C17.9178 80.8142 18.0961 80.6287 18.3747 80.6287C20.0542 80.6287 21.7337 80.6287 23.5186 80.6287C23.3378 81.1651 22.9663 81.348 22.6826 81.5886C19.8308 84.0247 16.9689 86.4508 14.112 88.8794C13.3965 89.4884 13.3915 89.4984 14.1271 90.1475C17.1622 92.8142 20.2048 95.4734 23.2399 98.1375C23.4458 98.3205 23.7571 98.4307 23.7721 98.9596L23.7746 98.9621Z" fill="white"/>
<path d="M111.197 98.2334C111.2 98.8048 110.959 98.9978 110.417 98.9852C109.588 98.9627 108.755 98.9927 107.924 98.9752C107.146 98.9577 107.095 98.9075 107.09 98.0729C107.08 95.692 107.085 93.311 107.085 90.9326C107.085 90.6444 107.093 90.3536 107.083 90.0654C107.025 88.7221 106.558 88.1983 105.253 87.9426C104.894 87.8699 104.537 87.8474 104.178 87.8474C101.866 87.8474 99.5541 87.8449 97.242 87.8474C96.2177 87.8474 96.2102 87.8549 96.2052 88.8424C96.1977 90.3562 96.2052 91.8699 96.2052 93.3862C96.2052 94.9025 96.2152 96.5592 96.2002 98.1481C96.1926 98.9201 96.155 98.9552 95.4119 98.9752C94.5809 98.9953 93.75 98.9953 92.919 98.9752C92.1408 98.9552 92.0781 98.8875 92.063 98.0805C92.0479 97.1782 92.058 96.276 92.058 95.3762C92.058 90.6143 92.058 85.8549 92.058 81.093C92.058 80.8048 92.0605 80.5166 92.068 80.2283C92.0755 79.8699 92.2714 79.712 92.6178 79.712C93.6295 79.712 94.6412 79.712 95.6504 79.707C96.0746 79.707 96.2127 79.9401 96.2102 80.3261C96.2052 81.2283 96.2102 82.1306 96.2102 83.0303C96.2127 84.4288 96.1023 84.3386 97.4755 84.3411C99.7876 84.3411 102.1 84.3336 104.412 84.3436C105.386 84.3486 106.357 84.3937 107.319 84.6068C109.932 85.1832 111.022 86.6243 111.15 89.1506C111.303 92.1732 111.182 95.2083 111.2 98.2359L111.197 98.2334Z" fill="white"/>
<path d="M166.721 87.3486C166.533 86.1631 165.888 85.3837 164.826 84.9025C163.887 84.4789 162.885 84.3385 161.869 84.336C159.195 84.3285 156.521 84.316 153.848 84.3411C152.545 84.3536 151.249 84.4538 150.044 85.0403C149.121 85.4889 148.45 86.1656 148.157 87.1556C147.973 87.7746 147.825 88.4012 147.838 89.0629C147.865 90.6493 147.878 92.2383 147.838 93.8248C147.773 96.6894 149.424 98.5065 152.384 98.8273C153.936 98.9952 155.485 98.9726 157.036 98.9726C159.228 98.9726 158.921 99.2207 158.944 97.0829C158.959 95.6794 158.982 95.8022 157.641 95.7997C156.341 95.7997 155.038 95.8298 153.74 95.7897C152.394 95.7471 151.927 95.2608 151.94 94.0378C151.947 93.2032 151.947 93.1857 152.776 93.1807C154.945 93.1706 157.111 93.1781 159.28 93.1781C161.52 93.1781 163.761 93.1756 166.001 93.1781C166.463 93.1781 166.897 93.1731 166.874 92.529C166.819 90.8022 166.995 89.0704 166.724 87.3461L166.721 87.3486ZM161.274 90.5215C159.936 90.5215 158.6 90.5215 157.262 90.5215C155.781 90.5215 154.3 90.5315 152.818 90.5165C151.977 90.509 151.965 90.4764 151.942 89.6744C151.942 89.6017 151.942 89.5315 151.942 89.4588C151.947 88.0353 152.394 87.5716 153.81 87.5666C156.087 87.5591 158.364 87.5666 160.641 87.5666C160.967 87.5666 161.291 87.5666 161.618 87.5666C162.205 87.5666 162.582 87.8172 162.654 88.4338C162.672 88.5766 162.725 88.7145 162.742 88.8573C162.958 90.3912 162.843 90.5215 161.276 90.524L161.274 90.5215Z" fill="white"/>
<path d="M44.3685 89.771C44.3861 86.6306 43.2413 85.207 40.2112 84.5003C39.9326 84.4351 39.6414 84.4 39.3577 84.3925C38.2029 84.3624 37.0456 84.3198 35.8908 84.3374C33.4231 84.38 33.8348 83.8562 33.8046 86.5529C33.7971 87.3048 33.8297 87.3198 34.618 87.3299C35.9184 87.3424 37.2213 87.3123 38.5192 87.3424C39.5535 87.3674 40.023 87.806 40.2188 88.8085C40.3769 89.6381 40.2866 89.7735 39.4556 89.7785C37.6858 89.791 35.9134 89.7835 34.1436 89.7835C32.5168 89.7835 30.8926 89.7785 29.2658 89.7835C28.3194 89.7885 27.393 89.9289 26.5043 90.2597C25.4826 90.6406 24.8475 91.3449 24.624 92.4426C24.3906 93.593 24.4006 94.7359 24.5437 95.8837C24.6918 97.0968 25.342 97.9489 26.4817 98.4101C26.9838 98.6131 27.501 98.7434 28.0432 98.8261C29.3009 99.0216 30.5662 98.984 31.8264 98.9639C34.6055 98.9238 37.392 99.1394 40.161 98.7885C42.5409 98.4852 43.9794 97.3725 44.2505 94.9514C44.4463 93.2196 44.361 91.4953 44.371 89.7684L44.3685 89.771ZM40.284 93.4502C40.284 93.7033 40.284 93.9564 40.2464 94.2045C40.0531 95.5078 39.5008 96.0316 38.1627 96.0692C36.792 96.1068 35.4239 96.0767 34.0532 96.0767V96.0817C32.7553 96.0817 31.4574 96.0993 30.1595 96.0767C28.9294 96.0542 28.5729 95.6707 28.5503 94.4351C28.5453 94.1469 28.5302 93.8562 28.5704 93.573C28.6658 92.8862 28.9771 92.5654 29.675 92.4376C29.9562 92.385 30.2474 92.3775 30.5361 92.3775C33.4206 92.3725 36.305 92.37 39.1895 92.3775C40.2765 92.3775 40.2891 92.4 40.284 93.4527V93.4502Z" fill="white"/>
<path d="M133.672 88.6554C133.529 86.5827 132.311 85.2143 130.288 84.6755C128.154 84.1065 125.98 84.4048 123.823 84.3396C123.394 84.3271 123.266 84.5827 123.271 84.9612C123.276 85.4298 123.263 85.8985 123.271 86.3672C123.284 87.3146 123.286 87.3221 124.232 87.3296C125.46 87.3396 126.688 87.307 127.915 87.3446C128.919 87.3772 129.474 87.906 129.592 88.8384C129.698 89.6855 129.635 89.7732 128.774 89.7782C127.042 89.7882 125.307 89.7807 123.575 89.7832C121.95 89.7832 120.324 89.7908 118.699 89.7807C117.896 89.7757 117.113 89.901 116.345 90.099C114.808 90.495 113.962 91.5426 113.874 93.1266C113.842 93.7381 113.89 94.3522 113.862 94.9637C113.754 97.2293 115.007 98.485 117.346 98.8183C118.426 98.9712 119.503 98.9963 120.585 98.9762C123.542 98.9186 126.502 99.1216 129.454 98.8058C131.96 98.5376 133.478 97.1792 133.659 94.8158C133.817 92.7657 133.81 90.7055 133.669 88.6554H133.672ZM126.919 96.0815C124.571 96.0865 122.224 96.0815 119.879 96.0815C119.591 96.0815 119.297 96.0965 119.016 96.0464C118.16 95.891 117.956 95.5276 117.956 94.2419C117.956 92.9261 118.14 92.5953 119.011 92.4374C119.327 92.3797 119.656 92.3822 119.982 92.3822C121.391 92.3772 122.799 92.3822 124.207 92.3822C125.724 92.3822 127.24 92.3747 128.756 92.3847C129.647 92.3923 129.647 92.4048 129.647 93.3095C129.647 95.5251 129.105 96.0815 126.924 96.0865L126.919 96.0815Z" fill="white"/>
<path d="M68.5458 86.9889C68.5558 87.4576 68.3324 87.6255 67.8831 87.6155C67.017 87.6004 66.1509 87.6104 65.2848 87.613C64.3994 87.613 63.9559 88.0407 63.9542 88.8962C63.9542 91.7809 63.9542 94.6656 63.9542 97.5478C63.9542 97.7633 63.9417 97.9814 63.9542 98.1969C63.9894 98.7433 63.7484 98.9914 63.1936 98.9814C62.3275 98.9663 61.4589 98.9939 60.5953 98.9739C59.8547 98.9563 59.8146 98.9187 59.807 98.1443C59.792 96.5227 59.802 94.8987 59.802 93.2771C59.802 91.6906 59.8095 90.1067 59.797 88.5177C59.7894 87.6781 59.7568 87.6029 58.9635 87.628C57.5476 87.6731 57.7987 87.2972 57.7886 86.4074C57.7836 85.9388 57.7987 85.4701 57.7886 85.0014C57.7811 84.5628 57.9568 84.3423 58.4213 84.3247C58.843 84.3097 59.3602 84.5152 59.6614 84.1693C59.9777 83.8034 59.7819 83.2696 59.797 82.811C59.8196 82.1643 59.8146 81.5127 59.797 80.8636C59.7869 80.42 59.9351 80.1969 60.4171 80.2044C61.356 80.222 62.2949 80.232 63.2337 80.2019C63.8312 80.1844 63.9693 80.4726 63.9568 80.9939C63.9342 81.8586 63.9743 82.7257 63.9442 83.5879C63.9241 84.1593 64.1626 84.3498 64.7124 84.3373C65.7241 84.3122 66.7358 84.3197 67.745 84.3373C68.4931 84.3498 68.5232 84.3849 68.5433 85.1493C68.5584 85.7608 68.5358 86.3749 68.5483 86.9889H68.5458Z" fill="white"/>
<path d="M145.34 87.6256C144.441 87.5955 143.54 87.6256 142.641 87.7459C141.273 87.9264 140.723 88.4452 140.698 89.8512C140.651 92.4101 140.651 94.9665 140.641 97.5254C140.633 99.0542 140.748 98.989 139.162 98.9815C138.62 98.9815 138.08 98.989 137.538 98.9815C136.599 98.964 136.546 98.9239 136.539 98.0091C136.526 96.5304 136.533 95.0542 136.533 93.578H136.576C136.576 92.2823 136.544 90.984 136.581 89.6883C136.697 85.7434 139.019 84.7735 141.469 84.4351C142.757 84.2572 144.065 84.3499 145.363 84.3374C145.855 84.3324 146.101 84.5153 146.086 85.0316C146.068 85.6432 146.058 86.2572 146.088 86.8687C146.116 87.4251 145.902 87.6482 145.338 87.6306L145.34 87.6256Z" fill="white"/>
<path d="M56.4637 87.3912C56.0294 87.9476 55.1106 87.5365 54.4101 87.6217C53.9809 87.6744 53.5516 87.717 53.1223 87.7696C52.088 87.8974 51.5734 88.341 51.3725 89.3736C51.2847 89.8298 51.2746 90.3035 51.2721 90.7721C51.2621 93.1481 51.2721 95.5265 51.2646 97.9025C51.2596 98.9701 51.2445 98.9751 50.16 98.9801C49.4395 98.9852 48.7165 98.9952 47.996 98.9751C47.2504 98.9551 47.1952 98.9075 47.1851 98.1631C47.1676 96.7245 47.1801 95.2834 47.1801 93.8423C47.1801 92.6192 47.1751 91.3937 47.1801 90.1706C47.1801 89.8097 47.1801 89.4463 47.2303 89.0929C47.6144 86.2659 49.1357 84.7847 52.0529 84.4363C53.3432 84.2834 54.6461 84.3461 55.944 84.3385C56.3909 84.3385 56.6243 84.509 56.6043 84.9701C56.6017 85.0428 56.6093 85.113 56.6043 85.1857C56.5616 85.935 56.893 86.8398 56.4586 87.3962L56.4637 87.3912Z" fill="white"/>
</g>
<defs>
<clipPath id="clip0_9708_5779">
<rect width="171" height="99" fill="white"/>
</clipPath>
</defs>
</svg>
