<svg width="122" height="74" viewBox="0 0 122 74" fill="none" xmlns="http://www.w3.org/2000/svg">
<path d="M71.9839 0C68.1284 0 64.3839 0.933746 61.0013 2.57487C57.6161 0.933746 53.8742 0 50.0187 0H0V74H38.4443V50.057H50.4761C54.236 50.057 57.7995 49.2313 61.0013 47.7548C64.2056 49.2287 67.7692 50.057 71.5291 50.057H83.5557V74H122V0H71.9839ZM53.285 47.4641C39.6563 48.3207 28.4204 37.1363 29.2809 23.57C29.9916 12.3779 39.1136 3.30284 50.352 2.59545C53.3651 2.4051 56.262 2.80638 58.9366 3.68868C51.962 7.86867 46.9384 15.1792 46.4345 23.48C45.8453 33.2264 50.8611 41.8488 58.5774 46.4764C56.8873 47.0088 55.1172 47.3484 53.285 47.4641ZM47.6464 26.4896C47.0237 16.7097 52.6881 8.17478 61.0013 4.4861C69.3145 8.17478 74.9763 16.7123 74.3562 26.4896C73.8186 34.9602 68.454 42.2218 61.0013 45.558C53.5486 42.2218 48.1865 34.9602 47.6464 26.4896ZM68.7176 47.4641C66.8906 47.3484 65.1152 47.0063 63.4252 46.4764C71.1415 41.8488 76.1625 33.2239 75.5681 23.48C75.0668 15.1792 70.038 7.86867 63.066 3.68868C65.7406 2.80895 68.6374 2.4051 71.6506 2.59545C82.8942 3.30026 92.011 12.3779 92.7217 23.57C93.5848 37.1363 82.3463 48.3207 68.7176 47.4641Z" fill="white"/>
</svg>
