<svg width="198" height="99" viewBox="0 0 198 99" fill="none" xmlns="http://www.w3.org/2000/svg">
<path d="M115.848 5.6543C123.833 5.72795 131.48 7.35956 138.786 10.5388C149.315 15.1213 158.017 22.0149 164.935 31.1156C170.803 38.8347 174.804 47.4321 177.035 56.8428C177.077 57.0207 177.121 57.2004 177.137 57.3816C177.226 58.416 176.027 59.0036 175.264 58.6489C174.975 58.5142 174.777 58.3002 174.675 58.0072C174.601 57.7913 174.555 57.5649 174.502 57.3421C172.509 48.9678 169.053 41.2423 164.027 34.2275C157.59 25.2437 149.39 18.3208 139.337 13.5943C134.934 11.5238 130.333 10.0435 125.542 9.15837C123.567 8.79336 121.575 8.54381 119.568 8.39813C118.068 8.28919 116.569 8.2615 115.067 8.27579C109.142 8.33226 103.411 9.41879 97.8784 11.5211C90.8126 14.2059 84.613 18.2408 79.1714 23.4356C72.4533 29.8491 67.5217 37.4387 64.1473 46.0439C62.8469 49.36 61.8234 52.7591 61.0782 56.2404C61.0399 56.4194 61.0012 56.6016 60.9327 56.7704C60.7618 57.1916 60.4436 57.4178 59.9801 57.45C59.0343 57.5157 58.3039 56.7046 58.5238 55.7567C58.9637 53.8583 59.42 51.9652 59.9911 50.1009C62.7003 41.2579 66.9885 33.2582 73.0111 26.1968C78.7043 19.5215 85.503 14.2608 93.5055 10.564C97.565 8.68876 101.797 7.34001 106.203 6.5414C108.339 6.15413 110.493 5.88449 112.665 5.79075C113.726 5.74496 114.787 5.70044 115.849 5.6552L115.848 5.6543Z" fill="white"/>
<path d="M161.933 80.2377C161.699 80.0942 161.51 79.9747 161.318 79.8624C160.555 79.4166 159.872 78.8757 159.311 78.1917C158.809 77.578 158.45 76.8929 158.283 76.1136C158.053 75.0311 158.252 74.0191 158.792 73.0643C159.205 72.3328 159.776 71.7384 160.44 71.2277C161.345 70.5313 162.357 70.0349 163.447 69.7037C165.144 69.188 166.876 68.9878 168.647 69.2095C168.943 69.2466 169.241 69.2654 169.575 69.296C169.647 69.1339 169.717 68.9949 169.771 68.8505C170.383 67.2377 172.365 65.8073 174.65 66.0755C176.083 66.2438 176.678 67.6773 176.225 68.8043C175.988 69.3923 175.519 69.7099 174.871 69.6703C174.343 69.638 173.819 69.5358 173.294 69.4562C172.676 69.3623 172.055 69.3181 171.43 69.3724C171.25 69.3881 171.055 69.3798 170.9 69.5905C171.072 69.6612 171.229 69.7361 171.393 69.7922C172.36 70.1229 173.267 70.5684 174.086 71.1817C174.68 71.6269 175.208 72.1379 175.612 72.7626C176.649 74.3658 176.673 75.9916 175.684 77.6222C175.212 78.4005 174.558 79.014 173.81 79.5285C172.496 80.433 171.026 80.954 169.458 81.2108C167.562 81.5213 165.685 81.4198 163.832 80.9055C163.635 80.8508 163.441 80.7359 163.243 80.8968C162.975 81.1152 162.686 81.326 162.608 81.6842C162.582 81.8036 162.626 81.9581 162.686 82.072C162.798 82.2844 162.998 82.4041 163.232 82.4605C163.596 82.5479 163.963 82.5765 164.333 82.5144C165.402 82.3349 166.471 82.1581 167.538 81.9677C168.79 81.7444 170.043 81.5696 171.323 81.611C172.73 81.6565 173.924 82.1815 174.944 83.1183C176.023 84.1097 176.534 85.3435 176.494 86.8036C176.463 87.9552 176.108 89.0128 175.522 89.9929C174.201 92.1986 172.282 93.6602 169.826 94.4297C168.849 94.7355 167.844 94.8622 166.819 94.8331C164.734 94.7741 162.749 94.324 160.899 93.3445C159.767 92.7447 158.766 91.98 157.939 91C157.476 90.4517 157.091 89.8541 156.824 89.1885C156.723 88.9354 156.645 88.6664 156.604 88.3975C156.494 87.6639 156.735 87.0448 157.278 86.5366C157.636 86.2006 158.054 85.9574 158.511 85.7889C159.526 85.4155 160.57 85.257 161.639 85.4896C161.995 85.5668 162.351 85.694 162.671 85.8654C163.229 86.1649 163.488 86.6546 163.419 87.2951C163.409 87.3863 163.402 87.4782 163.384 87.5678C163.09 89.0083 163.541 90.2423 164.478 91.3205C165.48 92.4738 166.77 93.1575 168.267 93.442C169.02 93.5851 169.778 93.5681 170.532 93.3644C171.73 93.0401 172.443 92.1617 172.552 90.8681C172.614 90.1462 172.468 89.4522 172.206 88.7824C171.644 87.3448 170.675 86.2324 169.392 85.3857C168.072 84.515 166.602 84.0798 165.03 83.9743C164.224 83.9202 163.415 83.9005 162.609 83.8417C162.29 83.8183 161.969 83.751 161.66 83.6663C161.344 83.58 161.067 83.4066 160.862 83.1449C160.504 82.69 160.378 82.1952 160.713 81.6833C160.938 81.3398 161.212 81.0267 161.474 80.7089C161.602 80.5546 161.754 80.4203 161.934 80.2377H161.933ZM169.688 75.1451C169.699 74.3559 169.598 73.5158 169.357 72.696C169.201 72.1665 169.01 71.6452 168.67 71.2031C168.477 70.9517 168.254 70.7043 167.995 70.5253C167.535 70.207 167.025 70.2123 166.571 70.5411C166.316 70.726 166.096 70.9745 165.905 71.2277C165.569 71.6727 165.372 72.1919 165.228 72.7248C164.769 74.4228 164.78 76.1243 165.239 77.82C165.383 78.3525 165.6 78.8603 165.917 79.3184C166.755 80.5269 167.867 80.5231 168.683 79.2894C168.909 78.9485 169.084 78.5657 169.228 78.1819C169.585 77.2253 169.701 76.2253 169.689 75.1451H169.688Z" fill="white"/>
<path d="M116.282 12.8178C123.712 12.8361 130.817 14.3783 137.567 17.4375C150.397 23.2533 159.855 32.5223 166.041 45.0889C167.871 48.8076 169.247 52.694 170.221 56.7191C170.259 56.8749 170.311 57.0299 170.326 57.188C170.382 57.7964 169.811 58.2992 169.211 58.1759C168.857 58.1032 168.647 57.8782 168.559 57.5389C168.455 57.1397 168.362 56.7374 168.26 56.3378C164.384 41.2645 154.272 28.0761 139.95 20.5734C135.596 18.2921 131.013 16.6306 126.19 15.6357C123.973 15.1782 121.732 14.8779 119.47 14.7254C117.97 14.6242 116.47 14.5906 114.969 14.6322C108.821 14.8028 102.941 16.1418 97.3403 18.6685C90.8752 21.5853 85.3036 25.7152 80.5646 30.9497C74.669 37.4618 70.6522 44.9931 68.311 53.4185C68.0595 54.3235 67.8517 55.2406 67.6243 56.1522C67.5966 56.2633 67.582 56.3784 67.5452 56.486C67.3967 56.92 67.0745 57.1263 66.649 57.068C66.196 57.0061 65.841 56.6871 65.8153 56.2797C65.8025 56.078 65.835 55.868 65.8789 55.6688C66.8884 51.1041 68.429 46.7228 70.5149 42.5327C73.7128 36.1093 77.9427 30.4526 83.3229 25.6642C88.9218 20.6809 95.2842 17.0132 102.489 14.8224C104.966 14.0692 107.491 13.5353 110.063 13.212C112.128 12.9523 114.199 12.8051 116.282 12.8171L116.282 12.8178Z" fill="white"/>
<path d="M106.474 73.4504C106.793 73.5454 107.015 73.6047 107.232 73.6775C108.277 74.0276 109.209 74.563 109.969 75.3664C110.928 76.38 111.449 77.5748 111.406 78.9768C111.369 80.218 110.89 81.2939 110.058 82.2117C109.066 83.3075 107.816 83.9651 106.369 84.2415C105.874 84.3361 105.361 84.3839 104.857 84.3853C100.768 84.3966 96.6794 84.392 92.5908 84.3913C92.4294 84.3913 92.2658 84.3955 92.107 84.3721C91.8364 84.3325 91.6809 84.0411 91.8052 83.7994C91.8661 83.6806 91.9608 83.5733 92.0592 83.4807C92.2264 83.3232 92.4133 83.1864 92.584 83.0322C93.2678 82.4148 93.6181 81.6395 93.6737 80.7291C93.6863 80.5233 93.6899 80.3166 93.6901 80.1103C93.691 75.9604 93.6908 71.8104 93.6901 67.6605C93.6901 67.4772 93.6864 67.2937 93.6782 67.1105C93.6343 66.1212 93.2461 65.2927 92.4956 64.636C92.3052 64.4693 92.1015 64.3164 91.9221 64.1388C91.7876 64.0057 91.709 63.8366 91.8027 63.6397C91.8807 63.4758 92.0277 63.4153 92.1956 63.4012C92.3335 63.3896 92.4724 63.3904 92.611 63.3902C96.0067 63.3898 99.4023 63.3864 102.798 63.3913C104.801 63.3942 106.488 64.1291 107.832 65.6054C108.495 66.334 108.924 67.1842 109.098 68.1623C109.269 69.1245 109.112 70.0328 108.708 70.908C108.337 71.7149 107.775 72.3779 107.094 72.9458C106.92 73.0915 106.742 73.233 106.474 73.4504ZM100.075 83.2029C100.65 83.2852 101.154 83.2499 101.651 83.1542C103.314 82.8339 104.503 81.9097 105.159 80.3546C105.468 79.6225 105.56 78.8492 105.38 78.0643C104.968 76.2642 103.817 75.1578 102.069 74.6201C101.372 74.4055 100.652 74.4669 99.938 74.4667C99.8102 74.4667 99.6823 74.5152 99.5197 74.5485C99.5897 77.4427 99.7046 80.2976 100.075 83.2029H100.075ZM99.5565 73.2254C99.704 73.2442 99.8151 73.2752 99.9243 73.2698C101.419 73.1945 102.517 72.4701 103.178 71.1638C103.93 69.6792 103.91 68.1496 103.172 66.6603C102.619 65.5442 101.692 64.8662 100.46 64.6141C100.335 64.5886 100.201 64.6106 100.034 64.6106C99.7321 67.0416 99.6411 69.4436 99.5445 71.845C99.5263 72.2972 99.4918 72.7531 99.5565 73.2254Z" fill="white"/>
<path d="M149.965 69.3993C149.766 68.6007 149.473 67.9181 148.909 67.3708C148.794 67.2594 148.669 67.1531 148.577 67.0245C148.411 66.7921 148.523 66.4913 148.796 66.4264C148.929 66.3947 149.07 66.3918 149.209 66.3894C150.606 66.3643 151.887 65.9414 153.081 65.2454C153.598 64.9439 154.089 64.5989 154.593 64.2756C154.903 64.0767 155.203 63.8564 155.531 63.6919C155.815 63.5492 156.127 63.448 156.438 63.3722C156.705 63.3068 156.887 63.4992 156.84 63.7766C156.764 64.2283 156.671 64.6775 156.579 65.1263C156.115 67.3793 155.884 69.6514 155.912 71.9549C155.944 74.5909 155.919 77.2276 155.92 79.8639C155.92 80.139 155.919 80.4146 155.937 80.6888C156 81.621 156.362 82.417 157.061 83.0519C157.231 83.2064 157.413 83.3481 157.584 83.5023C157.668 83.5787 157.755 83.6605 157.813 83.7564C157.974 84.0211 157.822 84.3387 157.518 84.3789C157.381 84.397 157.241 84.3928 157.103 84.3928C153.869 84.3934 150.635 84.4068 147.402 84.3881C145.214 84.3755 143.281 83.6523 141.659 82.1827C140.139 80.8055 139.294 79.0851 139.206 77.0401C139.131 75.2808 139.666 73.69 140.764 72.3053C142.126 70.5881 143.927 69.6031 146.088 69.2426C147.242 69.05 148.387 69.0906 149.524 69.3662C149.65 69.3966 149.785 69.3872 149.964 69.3995L149.965 69.3993ZM149.868 77.0385C149.868 75.9404 149.83 75.0728 149.687 74.2118C149.544 73.3513 149.344 72.5069 148.982 71.7084C148.801 71.3105 148.586 70.9314 148.255 70.6324C147.781 70.2042 147.239 70.1831 146.774 70.6257C146.529 70.8588 146.304 71.1418 146.161 71.4446C145.918 71.9596 145.692 72.4946 145.554 73.0447C144.972 75.3691 144.963 77.7104 145.449 80.0532C145.588 80.7266 145.794 81.3824 146.11 81.9983C146.299 82.3671 146.519 82.7176 146.855 82.9757C147.297 83.3141 147.769 83.3255 148.173 82.9514C148.421 82.7216 148.652 82.4436 148.8 82.1432C149.041 81.6528 149.246 81.1372 149.398 80.613C149.757 79.3735 149.878 78.0988 149.868 77.0387L149.868 77.0385Z" fill="white"/>
<path d="M16.1721 44.5223C15.479 44.3877 14.9094 44.5375 14.3631 44.8166C13.6191 45.1966 12.9514 45.6872 12.3132 46.2189C11.9948 46.4842 11.6883 46.7636 11.38 47.0405C11.2394 47.1666 11.0924 47.267 10.8928 47.271C10.6931 47.2748 10.5221 47.1295 10.545 46.933C10.5821 46.6148 10.6441 46.2996 10.6962 45.9831C10.7742 45.5082 10.8528 45.0335 10.9309 44.5587C10.9456 44.4682 10.9526 44.3761 10.973 44.2871C11.0817 43.8109 11.2469 43.6674 11.725 43.6379C11.8632 43.6294 12.0021 43.6334 12.1407 43.6334C16.2534 43.6332 20.3661 43.6329 24.4788 43.6341C24.6864 43.6341 24.8949 43.6372 25.1014 43.6553C25.3573 43.6777 25.5341 43.8247 25.6036 44.0646C25.6671 44.2838 25.6955 44.5129 25.7376 44.738C25.7916 45.0267 25.8439 45.3157 25.8972 45.6059C26.1816 45.6365 26.3933 45.5542 26.609 45.4805C27.2707 45.2549 27.8641 44.9038 28.4394 44.5167C28.7834 44.2852 29.1277 44.0536 29.4816 43.8377C29.6986 43.7054 29.9362 43.6052 30.2019 43.631C30.331 43.6437 30.4183 43.7252 30.4156 43.8554C30.4132 43.968 30.3778 44.0798 30.3556 44.1919C30.0518 45.7252 29.9116 47.2768 29.8262 48.8346C29.823 48.8941 29.8545 48.9557 29.8695 49.0143C29.9309 49.0063 29.9865 49.0157 30.015 48.9926C30.1038 48.92 30.1827 48.8357 30.2646 48.755C31.0972 47.9339 32.1055 47.6512 33.2499 47.8101C34.8302 48.0295 36.0612 48.8006 36.9111 50.1462C37.4351 50.9762 37.7411 51.8873 37.8129 52.8628C37.86 53.5021 37.8514 54.1456 37.8636 54.7875C37.8709 55.1773 37.8647 55.5673 37.8744 55.9569C37.8946 56.7822 38.2101 57.4682 38.8608 57.9954C38.9854 58.0962 39.1085 58.2037 39.2098 58.3262C39.3617 58.5098 39.2596 58.7641 39.0288 58.7952C38.915 58.8106 38.7985 58.8095 38.6831 58.8095C36.8808 58.8104 35.0787 58.8104 33.2765 58.8095C33.1381 58.8095 32.9981 58.8104 32.8617 58.7913C32.5696 58.75 32.4445 58.4881 32.5858 58.2259C32.6181 58.166 32.6578 58.1068 32.7056 58.0587C33.2861 57.4738 33.5033 56.7264 33.6382 55.9521C33.9187 54.342 33.7779 52.75 33.3392 51.1863C33.2105 50.7275 33.0028 50.2825 32.7727 49.8628C32.6345 49.6108 32.4051 49.3923 32.1761 49.2088C31.9047 48.9915 31.5765 48.973 31.2651 49.1502C31.086 49.2521 30.9004 49.3592 30.7578 49.5033C30.5324 49.7307 30.3339 49.9859 30.1364 50.2389C29.8576 50.5961 29.7584 50.9964 29.7726 51.457C29.8197 52.9712 29.9023 54.4808 30.1813 55.973C30.2527 56.3551 30.3539 56.7326 30.4588 57.1074C30.5583 57.4631 30.708 57.797 30.9741 58.0688C31.037 58.1331 31.0915 58.2109 31.1309 58.2916C31.2277 58.4903 31.1128 58.7286 30.8931 58.7739C30.7589 58.8014 30.6185 58.8088 30.4807 58.809C28.6323 58.8112 26.7839 58.8106 24.9355 58.8097C24.8434 58.8097 24.7501 58.8077 24.6595 58.7932C24.4357 58.7574 24.3371 58.5004 24.48 58.3153C24.5493 58.2255 24.6396 58.1515 24.7227 58.0728C24.873 57.9304 25.0334 57.7977 25.1746 57.647C25.5157 57.2829 25.7156 56.8495 25.7564 56.3531C25.7808 56.0565 25.79 55.7577 25.7903 55.46C25.7931 53.3501 25.7934 51.2404 25.79 49.1305C25.7894 48.81 25.7816 48.4875 25.7464 48.1694C25.6946 47.7005 25.5092 47.2815 25.1598 46.9536C24.3012 46.1481 23.392 45.408 22.3437 44.8517C21.7805 44.5527 21.1946 44.3848 20.5081 44.516C20.4864 44.6588 20.443 44.8104 20.4432 44.9621C20.4448 47.3928 20.4432 49.8238 20.4614 52.2545C20.4713 53.5638 20.5996 54.8646 20.8958 56.1433C20.9782 56.4993 21.0761 56.8583 21.224 57.191C21.3522 57.4791 21.5577 57.7342 21.736 57.9992C21.7994 58.0934 21.8957 58.1669 21.955 58.2632C22.0673 58.4452 21.9632 58.7131 21.7577 58.7639C21.6253 58.7969 21.4844 58.8083 21.3471 58.8084C19.3369 58.8112 17.3268 58.8112 15.3167 58.8084C15.1794 58.8084 15.0386 58.7976 14.9059 58.7656C14.6988 58.7156 14.5903 58.4543 14.6929 58.2674C14.7363 58.1883 14.7948 58.1128 14.8612 58.0515C15.2671 57.6765 15.4804 57.1897 15.6064 56.6765C15.7755 55.9877 15.9359 55.2906 16.0151 54.5876C16.1201 53.6548 16.1828 52.7135 16.1932 51.7751C16.2182 49.5279 16.2025 47.2803 16.2011 45.0328C16.2011 44.8761 16.1839 44.7192 16.1722 44.5225L16.1721 44.5223Z" fill="white"/>
<path d="M18.0338 64.6134C18.0208 64.8161 17.9995 64.994 17.9995 65.1719C17.9979 68.2672 17.9815 71.3626 18.0053 74.4577C18.0205 76.4076 18.1518 78.3534 18.5498 80.2686C18.6798 80.894 18.8809 81.5068 19.0819 82.1148C19.2341 82.5757 19.4885 82.9858 19.8596 83.3172C19.9606 83.4073 20.0521 83.5171 20.1188 83.6342C20.2718 83.9033 20.1697 84.2139 19.8756 84.311C19.684 84.3744 19.469 84.3867 19.2642 84.3887C18.4327 84.3968 17.6011 84.3923 16.7694 84.3923C14.8753 84.3923 12.9811 84.3937 11.087 84.3905C10.8572 84.3901 10.6204 84.3945 10.3992 84.344C10.0433 84.2629 9.90451 83.8997 10.0896 83.5864C10.1468 83.4896 10.2236 83.3984 10.3089 83.3246C10.7229 82.9655 10.9603 82.4959 11.1515 82.0008C11.4422 81.2489 11.6178 80.4658 11.746 79.6728C12.0279 77.9267 12.165 76.1678 12.1684 74.4002C12.1743 71.3507 12.1708 68.3014 12.1692 65.2519C12.1692 65.0499 12.1504 64.848 12.1387 64.61C11.4637 64.5119 10.8226 64.5057 10.2222 64.7797C9.65781 65.0372 9.10094 65.3223 8.57544 65.65C7.5361 66.2982 6.60507 67.0894 5.70285 67.9134C5.567 68.0373 5.44247 68.1798 5.28912 68.2771C5.15893 68.3596 4.99792 68.419 4.84475 68.436C4.50743 68.4735 4.31797 68.2825 4.34186 67.9472C4.35645 67.7418 4.39182 67.5375 4.42628 67.3341C4.59076 66.3627 4.75796 65.3916 4.92426 64.4203C4.94358 64.3074 4.95252 64.1916 4.98424 64.0821C5.08873 63.7213 5.30954 63.4773 5.70303 63.4331C5.90889 63.41 6.11694 63.3924 6.3239 63.3923C12.1681 63.3901 18.0125 63.3901 23.8566 63.3923C24.0636 63.3923 24.2718 63.4089 24.4773 63.4337C24.8679 63.4811 25.0953 63.7164 25.1912 64.0848C25.2258 64.2178 25.2508 64.3536 25.2734 64.4893C25.4457 65.5291 25.6162 66.5691 25.788 67.6092C25.7991 67.677 25.8201 67.7433 25.8292 67.8113C25.8999 68.3376 25.5606 68.6034 25.0725 68.3814C24.8896 68.2981 24.7384 68.1418 24.5803 68.0098C23.8911 67.4347 23.2177 66.8401 22.5133 66.2839C21.8257 65.741 21.0836 65.2756 20.2839 64.9048C19.5746 64.5761 18.841 64.4817 18.0343 64.6134H18.0338Z" fill="white"/>
<path d="M29.6278 82.5403C29.4939 82.6697 29.3486 82.8109 29.2025 82.9511C27.1352 84.9363 23.8299 84.8696 21.8557 82.8027C20.217 81.0873 20.0784 78.5022 21.5293 76.6296C23.2987 74.3461 26.7362 73.938 29.0348 75.9471C29.2045 76.0955 29.3659 76.2531 29.5298 76.405C29.5798 76.3558 29.6332 76.3282 29.635 76.2977C29.7142 74.9836 29.6389 73.6829 29.1978 72.4304C29.0466 72.0011 28.8419 71.5836 28.607 71.1931C28.4577 70.9448 28.221 70.7412 27.9989 70.5449C27.8047 70.3733 27.554 70.308 27.2903 70.3131C27.0558 70.3176 26.8901 70.4307 26.8427 70.663C26.8068 70.8393 26.7787 71.0326 26.8142 71.2047C26.8879 71.5614 26.9754 71.9213 27.1131 72.2575C27.3709 72.8875 27.0972 73.2959 26.7116 73.5808C26.2559 73.9172 25.7257 74.083 25.1772 74.1778C24.5831 74.2806 23.982 74.2929 23.3828 74.2022C23.0137 74.1463 22.6642 74.0332 22.3522 73.8244C21.9071 73.5267 21.7202 73.1067 21.7833 72.5822C21.8568 71.972 22.1162 71.4432 22.522 70.9819C22.9548 70.4899 23.4851 70.129 24.0729 69.8474C24.9161 69.4437 25.8176 69.2513 26.7415 69.1645C28.2626 69.0215 29.7499 69.1916 31.1434 69.8291C33.8154 71.0518 35.2615 73.1553 35.4553 76.0595C35.5407 77.3382 35.4763 78.6264 35.4905 79.9101C35.4945 80.2759 35.5277 80.6418 35.5611 81.0064C35.6335 81.7962 35.9912 82.4482 36.566 82.9871C36.7673 83.1757 36.9917 83.3402 37.1889 83.5326C37.2831 83.6245 37.3644 83.7474 37.4057 83.8712C37.4879 84.1182 37.3398 84.342 37.0867 84.3761C36.9502 84.3945 36.8103 84.3918 36.6719 84.3918C35.4014 84.3927 34.131 84.3846 32.8605 84.3943C31.6592 84.4038 30.7247 83.9054 30.009 82.9679C29.9117 82.8405 29.8199 82.709 29.7231 82.581C29.7122 82.5666 29.6854 82.564 29.6278 82.5401V82.5403ZM29.5018 79.695C29.4957 78.8164 29.3072 78.1651 28.847 77.6126C28.0345 76.6368 26.7776 76.6612 26.0041 77.6649C25.5176 78.2963 25.3592 79.0227 25.4184 79.8026C25.4702 80.4865 25.7005 81.1007 26.1901 81.5978C26.9164 82.3353 27.9128 82.3599 28.6533 81.6358C28.8783 81.4158 29.0583 81.1357 29.206 80.8557C29.4224 80.4453 29.5127 79.9937 29.5018 79.695Z" fill="white"/>
<path d="M63.5606 84.4019C61.0192 84.3211 58.7443 83.3769 57.0431 81.2746C54.8499 78.5644 54.8874 74.8236 57.1224 72.1464C58.5419 70.4458 60.3868 69.4934 62.586 69.2089C64.8868 68.9114 66.9923 69.4221 68.8709 70.7726C70.3001 71.8 71.3103 73.1542 71.7546 74.8573C72.4769 77.6255 71.7477 80.0351 69.7199 82.0301C68.0661 83.6572 66.0131 84.3762 63.5608 84.4019H63.5606ZM66.1028 76.6774C66.1262 75.6948 66.0166 74.6491 65.8081 73.6142C65.6634 72.8948 65.4604 72.1918 65.1282 71.5318C64.9521 71.182 64.7489 70.8492 64.4453 70.5917C64.009 70.2214 63.4895 70.1928 63.0667 70.571C62.815 70.7962 62.6064 71.0825 62.4274 71.3709C62.1234 71.8606 61.9495 72.4093 61.7999 72.9631C61.3959 74.4588 61.3144 75.9847 61.3636 77.524C61.3966 78.5577 61.545 79.5744 61.8083 80.5735C61.9544 81.1276 62.1367 81.6736 62.44 82.1644C62.607 82.4346 62.7984 82.7029 63.0304 82.9174C63.4873 83.3399 63.9977 83.3334 64.4508 82.9138C64.6499 82.7294 64.8361 82.5095 64.9595 82.2708C65.1793 81.8453 65.3853 81.4054 65.529 80.9503C65.96 79.5858 66.1205 78.1795 66.103 76.6776L66.1028 76.6774Z" fill="white"/>
<path d="M183.972 78.4492C184.364 80.0267 186.064 81.5931 188.307 81.4151C189.123 81.3503 189.901 81.169 190.635 80.8067C191.115 80.5696 191.545 80.2648 191.908 79.8709C191.971 79.8032 192.026 79.7286 192.091 79.6642C192.32 79.4389 192.493 79.4042 192.701 79.5359C192.972 79.7071 193.09 79.9776 192.976 80.2366C192.894 80.4241 192.785 80.6027 192.668 80.7721C191.437 82.557 189.743 83.6831 187.63 84.1591C185.064 84.7371 182.672 84.295 180.512 82.7845C179.068 81.7739 178.056 80.4216 177.588 78.7246C176.904 76.2441 177.43 73.9988 179.103 72.0402C180.211 70.7429 181.638 69.9276 183.284 69.4815C185.287 68.939 187.256 68.984 189.18 69.8112C189.841 70.0952 190.464 70.4472 191.003 70.9218C191.313 71.194 191.612 71.4884 191.865 71.8113C192.805 73.0069 192.921 74.3184 192.335 75.6969C191.994 76.4964 191.437 77.1357 190.737 77.6502C189.707 78.4079 188.545 78.8097 187.268 78.8891C186.312 78.9487 185.379 78.8397 184.473 78.5201C184.343 78.4743 184.208 78.4407 184.075 78.405C184.059 78.4009 184.037 78.4202 183.972 78.4492H183.972ZM187.664 73.9874C187.645 73.2297 187.543 72.4389 187.246 71.6841C187.076 71.2539 186.85 70.8567 186.475 70.5653C186.04 70.2285 185.587 70.2217 185.142 70.5465C184.782 70.8095 184.526 71.1593 184.318 71.5471C183.828 72.4626 183.688 73.4518 183.724 74.4699C183.745 75.0886 183.845 75.699 184.093 76.275C184.285 76.7217 184.533 77.1321 184.927 77.4347C185.518 77.8887 186.138 77.8433 186.66 77.3113C186.938 77.0281 187.122 76.6857 187.262 76.3196C187.544 75.5839 187.65 74.8175 187.665 73.9874H187.664Z" fill="white"/>
<path d="M116.914 21.2497C108.88 21.2749 101.808 23.3833 95.339 27.4826C88.9157 31.5533 83.9273 36.9653 80.2352 43.5672C78.0016 47.5613 76.4054 51.7982 75.385 56.2509C75.3493 56.407 75.3173 56.5658 75.2621 56.7154C75.1706 56.9635 74.9773 57.0614 74.7134 57.0149C74.4598 56.9702 74.2776 56.7999 74.2736 56.558C74.2707 56.3775 74.3019 56.1931 74.3425 56.016C76.3733 47.154 80.5024 39.4075 86.9122 32.8992C91.4853 28.2557 96.8379 24.7753 102.997 22.5462C105.784 21.5375 108.651 20.8605 111.597 20.4963C114.244 20.1692 116.898 20.1109 119.552 20.3025C125.071 20.7012 130.336 22.0974 135.317 24.4856C145.964 29.59 153.731 37.5165 158.703 48.1498C160.029 50.9847 161.043 53.931 161.778 56.9711C161.81 57.1047 161.855 57.237 161.869 57.3725C161.9 57.6742 161.71 57.9109 161.412 57.9608C161.138 58.007 160.929 57.8837 160.836 57.5882C160.753 57.3264 160.7 57.0555 160.634 56.7885C157.408 43.8955 148.745 32.7951 137.01 26.5182C133.163 24.4606 129.107 22.9698 124.825 22.0943C122.103 21.5375 119.348 21.2729 116.914 21.2495V21.2497Z" fill="white"/>
<path d="M46.1319 72.6878C46.3502 72.4211 46.4594 72.2812 46.5754 72.1471C46.9512 71.7124 47.3137 71.2649 47.7119 70.8512C47.9978 70.5542 48.3222 70.2909 48.647 70.0343C50.3745 68.6694 52.2816 68.9912 53.793 69.9929C54.7136 70.6031 55.1113 71.4942 55.0269 72.5959C54.9908 73.0668 54.829 73.489 54.5661 73.8753C53.7729 75.0406 51.9962 75.7558 50.6024 75.4747C49.5235 75.2572 49.0811 74.6065 49.2842 73.5355C49.344 73.2204 49.427 72.9079 49.4595 72.5903C49.5092 72.1009 49.2808 71.9079 48.7937 72.022C48.5952 72.0687 48.3962 72.1529 48.2241 72.2617C47.9723 72.4209 47.723 72.5959 47.5113 72.8033C47.1999 73.1082 46.9029 73.4323 46.6347 73.7753C45.8798 74.7398 45.8615 74.803 45.7986 76.0247C45.7122 77.7021 45.774 79.3708 46.1234 81.0201C46.1755 81.2664 46.2361 81.5127 46.3167 81.7509C46.5242 82.3645 46.788 82.946 47.309 83.3747C47.5141 83.5435 47.6559 83.7567 47.5549 84.0365C47.4534 84.3177 47.2054 84.3782 46.9392 84.3885C46.7776 84.3946 46.6157 84.393 46.4541 84.393C44.0746 84.3932 41.6949 84.3934 39.3153 84.3926C39.1306 84.3926 38.9445 84.3995 38.7616 84.3796C38.4239 84.3427 38.27 84.0025 38.4529 83.7135C38.4893 83.6557 38.5336 83.6011 38.5831 83.5539C38.6494 83.4905 38.7215 83.4321 38.7957 83.3778C39.8917 82.5763 40.335 81.4811 40.3129 80.1537C40.2923 78.9157 40.3091 77.6771 40.3078 76.4389C40.3076 76.2556 40.3031 76.0719 40.2912 75.889C40.2294 74.9309 39.8618 74.1149 39.1388 73.4664C39.0189 73.3587 38.8978 73.2525 38.7745 73.1486C38.5626 72.9701 38.301 72.7982 38.3994 72.4756C38.5019 72.1402 38.8174 72.1782 39.0947 72.1607C39.4399 72.1389 39.7867 72.118 40.1277 72.0649C41.2407 71.8921 42.2548 71.4603 43.1948 70.8555C43.6791 70.5439 44.1413 70.1988 44.6225 69.8823C44.9298 69.6801 45.2434 69.482 45.5736 69.322C45.7753 69.2243 46.0114 69.185 46.237 69.1517C46.4075 69.1266 46.5437 69.2797 46.538 69.4521C46.5351 69.543 46.5192 69.6338 46.5059 69.7241C46.3818 70.5622 46.2556 71.3999 46.1338 72.2383C46.121 72.3268 46.1321 72.4185 46.1321 72.6875L46.1319 72.6878Z" fill="white"/>
<path d="M119.648 72.5784C119.746 72.4586 119.839 72.3354 119.941 72.2199C120.412 71.6864 120.867 71.1366 121.364 70.6279C121.832 70.1496 122.378 69.7631 122.99 69.4744C123.679 69.1496 124.393 69.0524 125.147 69.1833C125.956 69.3237 126.71 69.5856 127.361 70.0948C127.884 70.5047 128.243 71.0196 128.393 71.6761C128.572 72.4566 128.446 73.1796 128.008 73.8454C127.197 75.0778 125.291 75.8072 123.858 75.4431C122.979 75.2198 122.557 74.6054 122.667 73.7064C122.681 73.5933 122.714 73.4823 122.738 73.3705C122.786 73.1465 122.84 72.9235 122.879 72.698C122.899 72.5867 122.906 72.4696 122.896 72.3573C122.879 72.1609 122.729 71.9995 122.537 72.008C122.334 72.0169 122.108 72.0295 121.937 72.1224C121.596 72.3077 121.261 72.5201 120.969 72.7731C120.355 73.3044 119.869 73.9476 119.469 74.6499C119.359 74.8436 119.263 75.0721 119.251 75.2895C119.142 77.2841 119.123 79.2764 119.6 81.2368C119.686 81.5913 119.809 81.9397 119.945 82.2788C120.1 82.6641 120.32 83.0146 120.642 83.2915C120.712 83.3514 120.779 83.4142 120.841 83.4817C120.993 83.6468 121.052 83.8424 120.971 84.0528C120.888 84.2677 120.7 84.3605 120.48 84.3768C120.273 84.3922 120.065 84.3925 119.858 84.3927C117.549 84.3938 115.24 84.3934 112.931 84.3932C112.723 84.3932 112.515 84.3918 112.307 84.3909C112.113 84.39 111.929 84.3542 111.85 84.1533C111.768 83.9435 111.812 83.7432 111.978 83.5858C112.112 83.4596 112.257 83.3464 112.4 83.2294C113.186 82.5834 113.649 81.7716 113.697 80.7455C113.71 80.471 113.738 80.1968 113.74 79.9223C113.745 78.8451 113.747 77.768 113.739 76.6909C113.736 76.348 113.703 76.005 113.677 75.6626C113.614 74.8231 113.248 74.127 112.644 73.5484C112.478 73.3895 112.296 73.2476 112.129 73.0896C112.03 72.9961 111.926 72.898 111.861 72.7816C111.726 72.5408 111.864 72.251 112.137 72.1944C112.271 72.1665 112.412 72.1658 112.549 72.1627C113.873 72.1338 115.095 71.7521 116.226 71.0863C116.722 70.7946 117.19 70.458 117.671 70.1417C118.017 69.9138 118.351 69.6636 118.713 69.4649C118.971 69.323 119.262 69.226 119.549 69.1536C119.818 69.0859 120 69.2781 119.961 69.5454C119.948 69.6357 119.918 69.7235 119.898 69.8129C119.702 70.7081 119.639 71.6198 119.649 72.5786L119.648 72.5784Z" fill="white"/>
<path d="M74.6861 72.9552C74.416 72.9499 74.1423 72.9543 73.8701 72.9372C73.4133 72.9087 73.1925 72.7243 73.1378 72.2713C73.1055 72.0038 73.1225 71.7226 73.1672 71.4557C73.2179 71.1529 73.441 70.9861 73.7454 70.947C73.9049 70.9265 74.0679 70.9285 74.2293 70.9265C75.3403 70.9126 76.3094 70.5184 77.1256 69.79C77.5694 69.3939 77.9669 68.942 78.3526 68.488C78.724 68.0508 79.0382 67.566 79.4058 67.1251C79.684 66.7916 79.9944 66.4816 80.3138 66.1863C80.5343 65.9825 80.8098 65.8507 81.1152 65.8062C81.5623 65.7411 81.8943 65.96 81.9731 66.4002C82.0043 66.5742 81.9766 66.7634 81.9514 66.9422C81.8013 68.0079 81.6412 69.0723 81.4917 70.138C81.4602 70.3633 81.4582 70.593 81.4399 70.8603C81.6186 70.8871 81.7711 70.9262 81.9244 70.9298C82.3398 70.9396 82.7557 70.924 83.1707 70.9372C83.7411 70.9553 83.9597 71.1638 84.0009 71.7297C84.0159 71.9332 84.0082 72.1439 83.9725 72.3446C83.9072 72.7107 83.6898 72.907 83.3108 72.9306C82.9428 72.9534 82.5725 72.9383 82.2032 72.9418C81.9288 72.9443 81.6544 72.9496 81.3459 72.9543C81.3118 73.1618 81.2649 73.3356 81.2574 73.5109C81.1847 75.2307 81.2492 76.9457 81.4312 78.6575C81.5258 79.5473 81.6602 80.4295 81.8945 81.2936C81.9902 81.6465 82.1069 81.9952 82.2382 82.3367C82.3786 82.7019 82.567 83.0436 82.8595 83.3177C82.9262 83.3804 82.9924 83.4466 83.0447 83.521C83.2969 83.8793 83.1487 84.2769 82.722 84.3599C82.5429 84.3949 82.3546 84.3898 82.1704 84.3902C81.0393 84.3927 79.9081 84.3914 78.7771 84.3916C77.3688 84.3916 75.9608 84.392 74.5526 84.3911C74.3681 84.3911 74.1823 84.3959 73.9994 84.3768C73.7514 84.3507 73.5771 84.1245 73.6431 83.8892C73.691 83.7182 73.7632 83.5288 73.8852 83.4073C74.6638 82.6308 74.9461 81.6385 75.0746 80.609C75.3306 78.5568 75.3392 76.4965 75.1076 74.4391C75.0515 73.9396 74.9452 73.4492 74.6861 72.9548V72.9552Z" fill="white"/>
<path d="M133.732 84.3926C132.509 84.3926 131.286 84.3935 130.062 84.3916C129.878 84.3913 129.691 84.3953 129.511 84.3661C129.281 84.329 129.128 84.0404 129.233 83.8312C129.302 83.6926 129.412 83.5677 129.525 83.4584C129.707 83.2832 129.913 83.1334 130.097 82.96C130.728 82.3639 131.052 81.6245 131.107 80.766C131.122 80.5376 131.126 80.3081 131.127 80.0792C131.128 78.8881 131.127 77.6969 131.127 76.5058C131.127 76.3684 131.123 76.2309 131.122 76.0936C131.12 74.9703 130.677 74.0524 129.818 73.3262C129.642 73.1782 129.457 73.0359 129.311 72.8618C129.087 72.5924 129.225 72.2534 129.572 72.1857C129.684 72.1638 129.801 72.1653 129.916 72.1635C131.314 72.1414 132.593 71.7194 133.777 71.0058C134.231 70.7329 134.659 70.4208 135.099 70.1258C135.386 69.9334 135.662 69.7244 135.961 69.5516C136.197 69.4142 136.452 69.2955 136.713 69.213C137.269 69.0373 137.428 69.2039 137.323 69.7828C137.196 70.4805 137.065 71.1787 136.977 71.8817C136.687 74.1804 136.531 76.4866 136.654 78.8046C136.703 79.7216 136.822 80.6293 137.077 81.5141C137.281 82.226 137.559 82.9016 138.161 83.3904C138.196 83.4191 138.23 83.4519 138.257 83.4884C138.384 83.6593 138.486 83.8388 138.382 84.0576C138.284 84.2637 138.105 84.3603 137.885 84.3784C137.702 84.3935 137.517 84.392 137.332 84.392C136.132 84.3931 134.932 84.3926 133.732 84.3926Z" fill="white"/>
<path d="M44.1609 54.4982C44.4606 55.6113 45.3271 56.4304 46.4055 56.601C47.7086 56.8071 48.8764 56.4917 49.8455 55.5664C49.9119 55.5031 49.9682 55.4287 50.0368 55.3681C50.1896 55.2329 50.3305 55.2246 50.4715 55.3341C50.6447 55.4687 50.72 55.6477 50.6389 55.8107C50.5473 55.9946 50.4403 56.1738 50.3187 56.3395C49.3309 57.6874 47.9862 58.4889 46.344 58.7366C44.4243 59.0264 42.6695 58.5922 41.1798 57.3097C38.6215 55.107 38.6874 51.3262 41.305 49.1958C43.0003 47.8163 45.8098 47.2743 48.0285 48.3294C48.7029 48.65 49.3105 49.0568 49.7817 49.6421C50.5573 50.6052 50.6292 51.6427 50.0778 52.7267C49.7461 53.3787 49.2254 53.8626 48.5908 54.2231C47.4758 54.8565 46.2822 54.9714 45.0406 54.7255C44.7742 54.6726 44.5137 54.5903 44.1609 54.4982ZM46.7986 51.2719C46.7703 50.704 46.6983 50.1153 46.4607 49.5588C46.3334 49.2606 46.1702 48.9854 45.8975 48.7926C45.5849 48.5717 45.3012 48.5509 45.0076 48.7879C44.7972 48.9579 44.5877 49.162 44.461 49.3954C43.8106 50.5947 43.7457 51.8358 44.291 53.0915C44.38 53.2966 44.5219 53.4915 44.6792 53.6525C45.161 54.1455 45.7445 54.1183 46.1593 53.5754C46.3232 53.361 46.4452 53.1051 46.5408 52.8514C46.7277 52.3544 46.7853 51.8302 46.7982 51.2719H46.7986Z" fill="white"/>
<path d="M115.661 42.904C115.471 42.9641 115.283 43.0302 115.092 43.0832C112.473 43.8074 110.713 45.439 109.826 47.9934C109.668 48.4478 109.521 48.9058 109.356 49.3575C109.302 49.5057 109.211 49.6416 109.128 49.7777C109.107 49.8105 109.051 49.8215 108.968 49.8657C108.916 49.7828 108.839 49.7037 108.812 49.6105C108.612 48.9293 108.455 48.2342 108.223 47.5647C107.821 46.4052 107.219 45.3525 106.364 44.4551C105.601 43.6547 104.701 43.0803 103.613 42.8162C103.507 42.7907 103.409 42.737 103.312 42.6983C103.34 42.4809 103.49 42.482 103.614 42.4503C103.97 42.3589 104.341 42.3057 104.682 42.1754C106.708 41.4029 108.056 39.9919 108.688 37.9222C108.754 37.7061 108.813 37.4878 108.884 37.2383C109.22 37.2662 109.467 37.3979 109.652 37.6487C109.87 37.9448 110.081 38.2455 110.3 38.5411C110.86 39.2995 111.453 40.0306 112.131 40.6915C113.051 41.5887 114.09 42.2904 115.344 42.6447C115.45 42.6747 115.551 42.7247 115.654 42.7654C115.656 42.8115 115.659 42.8579 115.661 42.904Z" fill="white"/>
<path d="M132.333 69.4109C130.794 69.4739 129.569 68.1993 129.92 66.4807C130.264 64.7962 131.821 63.4839 133.547 63.3983C134.748 63.3387 135.727 63.9971 136.033 65.0713C136.149 65.4769 136.153 65.8925 136.072 66.2983C135.689 68.2303 133.794 69.4643 132.333 69.4107L132.333 69.4109Z" fill="white"/>
<path d="M120.301 46.8123C120.977 46.4279 121.58 46.147 122.048 45.6664C122.519 45.1825 122.882 44.6356 123.142 44.0147C123.401 43.397 123.432 42.7349 123.517 42.0948C123.866 42.036 124.062 42.228 124.278 42.4057C124.862 42.8874 125.444 43.3751 126.056 43.8212C126.73 44.3126 127.483 44.6607 128.31 44.8236C128.577 44.8761 128.849 44.9014 129.107 44.9376C129.16 45.0627 129.115 45.1276 129.022 45.1741C128.94 45.2152 128.858 45.2583 128.778 45.303C127.013 46.2822 126.052 47.7766 125.866 49.7698C125.838 50.0655 125.814 50.3619 125.772 50.6558C125.754 50.7845 125.696 50.9077 125.661 51.0185C125.472 51.0516 125.436 50.93 125.383 50.8337C125.174 50.4522 124.979 50.0628 124.757 49.6887C124.405 49.0941 123.98 48.5526 123.457 48.0944C122.694 47.4263 121.829 46.9818 120.794 46.9149C120.667 46.9067 120.542 46.8637 120.301 46.8121V46.8123Z" fill="white"/>
<path d="M119.36 39.4743C119.282 39.2188 119.227 39.0474 119.176 38.875C119.012 38.3248 118.811 37.7902 118.511 37.2964C118.092 36.6076 117.533 36.0862 116.751 35.8264C116.673 35.8005 116.599 35.7612 116.492 35.7142C118.473 34.8768 118.57 34.7096 119.412 32.8672C119.543 32.9629 119.688 33.0339 119.784 33.1459C119.962 33.3545 120.107 33.5909 120.275 33.8089C120.929 34.6591 121.678 35.3901 122.735 35.704C122.758 35.9438 122.576 35.9134 122.463 35.9478C121.422 36.2656 120.623 36.8838 120.106 37.8375C119.955 38.1171 119.863 38.4287 119.748 38.7273C119.659 38.9586 119.622 39.2145 119.361 39.4741L119.36 39.4743Z" fill="white"/>
<path d="M101.979 35.3998C101.963 35.6436 101.746 35.8257 101.511 35.7924C101.299 35.7625 101.156 35.5805 101.164 35.3535C101.174 35.1005 101.371 34.9357 101.627 34.9666C101.838 34.9921 101.993 35.1832 101.979 35.3997L101.979 35.3998Z" fill="white"/>
<path d="M116.674 50.688C116.69 50.9035 116.537 51.093 116.323 51.1208C116.072 51.1536 115.866 50.9826 115.86 50.7352C115.853 50.5121 116.001 50.3231 116.206 50.2913C116.432 50.2564 116.655 50.4453 116.674 50.6878L116.674 50.688Z" fill="white"/>
<path d="M129.073 35.1358C129.067 35.3678 128.916 35.5288 128.695 35.5372C128.448 35.5466 128.258 35.3567 128.266 35.1104C128.274 34.8649 128.477 34.6859 128.72 34.709C128.933 34.7293 129.078 34.9049 129.073 35.1358Z" fill="white"/>
</svg>
