<svg width="100" height="80" viewBox="0 0 100 80" fill="none" xmlns="http://www.w3.org/2000/svg">
<rect width="100" height="80" rx="16" fill="#0075F2"/>
<path fill-rule="evenodd" clip-rule="evenodd" d="M46.6487 21H53.68V24.4375H55.555C56.4925 24.4375 57.1175 25.0625 57.1175 26V33.1875L56.18 34.4375L65.8675 51.3125L67.2737 57.4062C67.43 58.1875 66.4925 58.8125 65.8675 58.1875L61.3362 53.9688L58.2112 48.5C55.7112 49.9062 53.055 50.6875 50.0862 50.6875C47.1175 50.6875 44.4612 49.9062 42.1175 48.5L38.9925 53.9688L34.4612 58.1875C33.8362 58.8125 32.7425 58.1875 33.055 57.4062L34.4612 51.3125L38.055 44.9062C35.7112 42.25 34.4612 38.6562 34.4612 34.9062C34.4612 34.2812 34.4612 33.6562 34.6175 33.1875H39.305C39.1487 33.8125 39.1487 34.2812 39.1487 34.9062C39.1487 36.9375 39.7737 38.8125 40.7112 40.5312L44.305 34.4375L43.3675 33.1875V26C43.3675 25.0625 43.9925 24.4375 44.93 24.4375H46.805V21H46.6487ZM47.5862 38.8125L44.4612 44.4375C46.18 45.375 48.055 46 50.0862 46C52.1175 46 54.1487 45.375 55.7112 44.4375L52.43 38.8125L51.18 40.375C50.555 41.1562 49.305 41.1562 48.68 40.375L47.5862 38.8125ZM47.1175 33.1875C47.7425 34.2812 48.8362 34.9062 50.0862 34.9062C51.3362 34.9062 52.5862 34.2812 53.055 33.1875C53.3675 32.7188 53.5237 32.0938 53.5237 31.4688C53.5237 29.5938 51.9612 28.0312 50.0862 28.0312C48.2112 28.0312 46.6487 29.5938 46.6487 31.4688C46.6487 32.0938 46.805 32.7188 47.1175 33.1875Z" fill="white"/>
</svg>
