<svg width="277" height="264" viewBox="0 0 277 264" fill="none" xmlns="http://www.w3.org/2000/svg">
<path d="M276.825 130.696C271.527 189.313 206.625 261.253 132.452 263.918C58.2789 266.583 0 204.272 0 130.696C0 57.1195 157.618 -65.9183 161.591 43.3233C165.565 152.565 282.123 72.0782 276.825 130.696Z" fill="#0075F2"/>
<path d="M140.037 212.679L138.057 214.655C137.497 215.214 136.832 215.658 136.1 215.96C135.369 216.263 134.584 216.418 133.792 216.418H116.308C114.708 216.418 113.174 215.784 112.043 214.655L110.063 212.679H66.9109C66.431 212.679 65.9708 212.869 65.6315 213.208C65.2922 213.546 65.1016 214.006 65.1016 214.485V217.878C65.1016 221.202 67.8018 223.897 71.1326 223.897H178.968C182.299 223.897 184.999 221.202 184.999 217.878V214.485C184.999 214.006 184.808 213.546 184.469 213.208C184.13 212.869 183.67 212.679 183.19 212.679H140.037ZM96.5383 212.679H71.1326C67.8018 212.679 65.1016 209.984 65.1016 206.66V162.606C65.1016 159.282 67.8018 156.587 71.1326 156.587H96.5383C99.8692 156.587 102.569 159.282 102.569 162.606V206.66C102.569 209.984 99.8694 212.679 96.5383 212.679Z" stroke="white" stroke-width="3" stroke-miterlimit="10" stroke-linecap="round" stroke-linejoin="round"/>
<path d="M94.971 188.882V165.364C94.971 165.047 94.8438 164.744 94.6173 164.52C94.3909 164.296 94.0837 164.17 93.7634 164.17H88.526C87.9673 164.17 87.4908 164.551 87.3531 165.087C86.9406 166.692 85.4692 167.879 83.7174 167.879C81.9657 167.879 80.4943 166.692 80.0818 165.087C79.9441 164.551 79.4676 164.17 78.9089 164.17H73.6715C73.3512 164.17 73.044 164.296 72.8176 164.52C72.5911 164.744 72.4639 165.047 72.4639 165.364V203.772C72.4639 204.089 72.5911 204.393 72.8176 204.617C73.044 204.841 73.3512 204.966 73.6715 204.966H93.7634C94.0837 204.966 94.3909 204.841 94.6173 204.617C94.8438 204.393 94.971 204.089 94.971 203.772V197.239M178.961 186.423H123.516C120.182 186.423 117.478 183.75 117.478 180.453V140.47C117.478 137.173 120.182 134.5 123.516 134.5H178.961C182.296 134.5 184.999 137.173 184.999 140.47V180.453C184.999 183.75 182.296 186.423 178.961 186.423Z" stroke="white" stroke-width="3" stroke-miterlimit="10" stroke-linecap="round" stroke-linejoin="round"/>
<path d="M154.739 178.95H125.05V141.862H170.125V178.95H163.204M177.637 212.328V186.367M117.538 141.862H78.51C75.1709 141.862 72.4639 144.535 72.4639 147.832V156.697M102.513 204.911H170.125V186.367" stroke="white" stroke-width="3" stroke-miterlimit="10" stroke-linecap="round" stroke-linejoin="round"/>
<path d="M95.4781 148.979H79.8262V156.476M117.446 148.979H103.956M177.637 156.476V163.972M142.141 160.224L145.741 163.812L152.942 156.637M79.8262 184.588L82.3341 187.087L87.3502 182.089M142.53 133.986C142.723 133.536 142.9 133.079 143.058 132.615C143.173 132.28 143.416 132.003 143.735 131.846L146.789 130.325C147.015 130.212 147.205 130.039 147.338 129.824C147.471 129.61 147.542 129.362 147.542 129.11V123.868C147.542 123.616 147.471 123.369 147.338 123.155C147.205 122.94 147.015 122.767 146.789 122.654L143.735 121.133C143.416 120.976 143.173 120.699 143.058 120.364C142.791 119.583 142.474 118.82 142.107 118.08C141.951 117.761 141.926 117.394 142.04 117.058L143.12 113.83C143.2 113.59 143.211 113.334 143.153 113.088C143.095 112.843 142.969 112.619 142.79 112.44L139.07 108.734C138.891 108.555 138.666 108.43 138.42 108.372C138.174 108.314 137.916 108.326 137.676 108.406L134.436 109.482C134.098 109.595 133.73 109.571 133.41 109.414C132.668 109.049 131.902 108.733 131.117 108.467C130.781 108.352 130.504 108.11 130.346 107.793L128.819 104.75C128.706 104.525 128.532 104.335 128.317 104.203C128.101 104.07 127.853 104 127.6 104H122.339C122.086 104 121.838 104.07 121.623 104.203C121.408 104.335 121.234 104.525 121.121 104.75L119.594 107.793C119.436 108.11 119.159 108.352 118.822 108.467C118.038 108.733 117.272 109.049 116.53 109.414C116.21 109.57 115.841 109.595 115.504 109.482L112.264 108.406C112.024 108.326 111.766 108.314 111.52 108.372C111.274 108.43 111.049 108.555 110.87 108.734L107.149 112.44C106.97 112.619 106.845 112.843 106.787 113.088C106.729 113.334 106.74 113.59 106.82 113.83L107.9 117.058C108.014 117.394 107.989 117.761 107.832 118.08C107.466 118.82 107.148 119.583 106.882 120.364C106.767 120.699 106.523 120.976 106.205 121.133L103.151 122.654C102.925 122.767 102.735 122.94 102.602 123.155C102.469 123.369 102.398 123.616 102.398 123.868V129.11C102.398 129.362 102.469 129.61 102.602 129.824C102.735 130.038 102.925 130.212 103.151 130.325L106.205 131.846C106.523 132.004 106.767 132.28 106.882 132.615C107.148 133.396 107.466 134.159 107.832 134.899C107.99 135.217 108.013 135.585 107.9 135.921L106.82 139.15C106.74 139.389 106.729 139.645 106.787 139.891C106.845 140.136 106.97 140.361 107.149 140.539L108.097 141.483" stroke="white" stroke-width="3" stroke-miterlimit="10" stroke-linecap="round" stroke-linejoin="round"/>
<path d="M126.855 133.854L134.455 126.259C135.939 124.776 135.939 122.371 134.455 120.888C132.971 119.405 130.565 119.405 129.081 120.888L123.707 126.259L121.02 123.574C119.536 122.091 117.13 122.091 115.646 123.574C114.162 125.057 114.162 127.461 115.646 128.944L121.012 134.306L121.02 134.314C121.085 134.379 121.152 134.441 121.22 134.5" stroke="white" stroke-width="3" stroke-miterlimit="10" stroke-linecap="round" stroke-linejoin="round"/>
</svg>
