<svg width="277" height="264" viewBox="0 0 277 264" fill="none" xmlns="http://www.w3.org/2000/svg">
<path d="M276.825 130.696C271.527 189.313 206.625 261.252 132.452 263.918C58.2789 266.583 0 204.272 0 130.696C0 57.1195 157.618 -65.9183 161.591 43.3233C165.565 152.565 282.123 72.0782 276.825 130.696Z" fill="#0075F2"/>
<path d="M185.506 139.3C185.506 132.177 179.779 126.365 172.639 126.085V106.417C172.637 104.312 171.799 102.293 170.31 100.804C168.822 99.3153 166.803 98.4778 164.697 98.4756H81.306C79.2004 98.4778 77.1817 99.3153 75.6928 100.804C74.2039 102.293 73.3664 104.312 73.3642 106.417V126.081C66.2242 126.363 60.499 132.175 60.499 139.296V200.852C60.499 208.072 66.5127 213.946 73.9051 213.946H111.217L107.664 225.549H101.458C100.931 225.549 100.426 225.758 100.054 226.13C99.6812 226.503 99.472 227.008 99.472 227.534C99.472 228.061 99.6812 228.566 100.054 228.938C100.426 229.311 100.931 229.52 101.458 229.52H144.548C145.074 229.52 145.579 229.311 145.952 228.938C146.324 228.566 146.533 228.061 146.533 227.534C146.533 227.008 146.324 226.503 145.952 226.13C145.579 225.758 145.074 225.549 144.548 225.549H138.339L134.786 213.946H172.098C179.491 213.946 185.504 208.07 185.504 200.852V195.797L185.506 195.786V139.298V139.3ZM168.668 128.043V193.782H77.3351V125.322H168.668V128.043ZM181.535 139.3V193.794H172.639V130.043C177.592 130.317 181.535 134.364 181.535 139.3ZM77.3351 106.422C77.3351 104.23 79.1169 102.449 81.306 102.449H164.697C166.886 102.449 168.668 104.23 168.668 106.42V121.353H77.3351V106.422ZM73.3642 130.041V193.792H64.4699V139.298C64.4699 134.362 68.4111 130.315 73.3642 130.041ZM134.186 225.549H111.818L115.373 213.946H130.633L134.186 225.549ZM172.098 209.975H73.9051C68.7018 209.975 64.4699 205.881 64.4699 200.852V197.772H181.533V200.852C181.533 205.883 177.301 209.975 172.098 209.975Z" fill="white"/>
<path d="M124.741 201.885H121.262C120.735 201.885 120.23 202.094 119.857 202.467C119.485 202.839 119.275 203.344 119.275 203.871C119.275 204.398 119.485 204.903 119.857 205.276C120.23 205.649 120.735 205.858 121.262 205.858H124.741C125.267 205.858 125.772 205.649 126.145 205.276C126.517 204.904 126.726 204.399 126.726 203.872C126.726 203.346 126.517 202.841 126.145 202.468C125.772 202.096 125.267 201.885 124.741 201.885ZM89.8128 105.942C86.5291 105.942 83.8564 108.615 83.8564 111.901C83.8564 115.187 86.5291 117.857 89.8128 117.857C93.0964 117.857 95.7691 115.185 95.7691 111.901C95.7691 108.617 93.0964 105.942 89.8128 105.942ZM89.8128 113.886C89.5512 113.889 89.2918 113.84 89.0496 113.741C88.8074 113.642 88.5874 113.496 88.4025 113.311C88.2176 113.126 88.0714 112.906 87.9727 112.664C87.8739 112.422 87.8245 112.162 87.8273 111.901C87.8509 111.39 88.0704 110.908 88.4402 110.555C88.8099 110.202 89.3015 110.005 89.8128 110.005C90.324 110.005 90.8156 110.202 91.1853 110.555C91.5551 110.908 91.7746 111.39 91.7982 111.901C91.7982 112.995 90.9073 113.886 89.8128 113.886ZM106.808 105.942C103.524 105.942 100.852 108.615 100.852 111.901C100.852 115.187 103.524 117.857 106.808 117.857C110.092 117.857 112.764 115.185 112.764 111.901C112.764 108.617 110.092 105.942 106.808 105.942ZM106.808 113.886C106.297 113.863 105.815 113.643 105.462 113.273C105.109 112.904 104.912 112.412 104.912 111.901C104.912 111.39 105.109 110.898 105.462 110.528C105.815 110.159 106.297 109.939 106.808 109.915C107.319 109.939 107.801 110.159 108.154 110.528C108.507 110.898 108.704 111.39 108.704 111.901C108.704 112.412 108.507 112.904 108.154 113.273C107.801 113.643 107.319 113.863 106.808 113.886ZM123.805 105.942C120.519 105.942 117.849 108.615 117.849 111.901C117.849 115.187 120.522 117.857 123.805 117.857C127.089 117.857 129.762 115.185 129.762 111.901C129.762 108.617 127.089 105.942 123.805 105.942ZM123.805 113.886C123.294 113.863 122.813 113.643 122.459 113.273C122.106 112.904 121.909 112.412 121.909 111.901C121.909 111.39 122.106 110.898 122.459 110.528C122.813 110.159 123.294 109.939 123.805 109.915C124.9 109.915 125.791 110.806 125.791 111.901C125.793 112.162 125.744 112.422 125.645 112.664C125.547 112.906 125.4 113.126 125.215 113.311C125.031 113.496 124.811 113.642 124.568 113.741C124.326 113.84 124.067 113.889 123.805 113.886ZM159.092 109.918H138.304C137.777 109.918 137.272 110.127 136.9 110.499C136.527 110.871 136.318 111.376 136.318 111.903C136.318 112.43 136.527 112.935 136.9 113.307C137.272 113.679 137.777 113.888 138.304 113.888H159.092C159.618 113.888 160.123 113.679 160.495 113.307C160.868 112.935 161.077 112.43 161.077 111.903C161.077 111.376 160.868 110.871 160.495 110.499C160.123 110.127 159.618 109.918 159.092 109.918ZM85.8312 136.59H106.808C107.335 136.59 107.84 136.38 108.213 136.008C108.585 135.635 108.794 135.13 108.794 134.603C108.794 134.076 108.585 133.571 108.213 133.198C107.84 132.826 107.335 132.617 106.808 132.617H85.8312C85.3044 132.617 84.7991 132.826 84.4266 133.198C84.054 133.571 83.8447 134.076 83.8447 134.603C83.8447 135.13 84.054 135.635 84.4266 136.008C84.7991 136.38 85.3044 136.59 85.8312 136.59ZM85.8312 146.014H98.0728C98.5993 146.014 99.1043 145.805 99.4767 145.433C99.849 145.06 100.058 144.555 100.058 144.029C100.058 143.502 99.849 142.997 99.4767 142.625C99.1043 142.252 98.5993 142.043 98.0728 142.043H85.8334C85.3068 142.043 84.8018 142.252 84.4294 142.625C84.0571 142.997 83.8479 143.502 83.8479 144.029C83.8479 144.555 84.0571 145.06 84.4294 145.433C84.8018 145.805 85.3047 146.014 85.8312 146.014ZM138.21 136.59H159.185C159.712 136.59 160.217 136.38 160.59 136.008C160.962 135.635 161.171 135.13 161.171 134.603C161.171 134.076 160.962 133.571 160.59 133.198C160.217 132.826 159.712 132.617 159.185 132.617H138.21C137.683 132.617 137.178 132.826 136.806 133.198C136.433 133.571 136.224 134.076 136.224 134.603C136.224 135.13 136.433 135.635 136.806 136.008C137.178 136.38 137.683 136.59 138.21 136.59ZM159.185 142.043H146.943C146.417 142.043 145.912 142.252 145.539 142.625C145.167 142.997 144.958 143.502 144.958 144.029C144.958 144.555 145.167 145.06 145.539 145.433C145.912 145.805 146.417 146.014 146.943 146.014H159.185C159.711 146.014 160.216 145.805 160.589 145.433C160.961 145.06 161.17 144.555 161.17 144.029C161.17 143.502 160.961 142.997 160.589 142.625C160.216 142.252 159.711 142.043 159.185 142.043ZM133.463 181.738C133.638 181.932 133.849 182.089 134.085 182.201C134.321 182.313 134.577 182.377 134.838 182.39C135.098 182.403 135.359 182.364 135.605 182.276C135.851 182.187 136.076 182.051 136.269 181.875L148.954 170.376C149.16 170.19 149.323 169.963 149.436 169.709C149.548 169.455 149.606 169.181 149.605 168.904C149.605 168.626 149.547 168.352 149.434 168.099C149.322 167.845 149.158 167.618 148.952 167.432L136.267 155.954C135.873 155.63 135.368 155.469 134.859 155.507C134.349 155.544 133.874 155.777 133.531 156.156C133.188 156.534 133.004 157.031 133.018 157.541C133.031 158.052 133.241 158.538 133.603 158.898L144.663 168.906L133.601 178.933C133.211 179.287 132.977 179.781 132.951 180.307C132.925 180.833 133.11 181.347 133.463 181.738ZM96.397 168.904C96.397 169.464 96.6346 169.999 97.0482 170.376L109.733 181.873C109.926 182.049 110.152 182.184 110.398 182.272C110.643 182.36 110.904 182.399 111.164 182.386C111.425 182.373 111.68 182.309 111.916 182.198C112.152 182.086 112.363 181.93 112.538 181.736C112.714 181.543 112.849 181.317 112.937 181.072C113.025 180.826 113.064 180.566 113.051 180.305C113.038 180.045 112.974 179.79 112.863 179.554C112.752 179.318 112.595 179.106 112.402 178.931L101.339 168.906L112.397 158.898C112.591 158.724 112.748 158.512 112.859 158.277C112.971 158.041 113.035 157.786 113.048 157.525C113.061 157.265 113.023 157.005 112.935 156.759C112.847 156.513 112.712 156.288 112.537 156.094C112.362 155.901 112.151 155.744 111.915 155.632C111.68 155.521 111.425 155.456 111.164 155.443C110.904 155.43 110.643 155.469 110.398 155.556C110.152 155.644 109.926 155.779 109.733 155.954L97.0503 167.432C96.8447 167.618 96.6804 167.845 96.5679 168.099C96.4554 168.353 96.3972 168.627 96.397 168.904ZM119.143 187.766C119.659 187.869 120.195 187.763 120.633 187.471C121.071 187.179 121.375 186.725 121.478 186.209L128.415 151.565C128.473 151.307 128.48 151.039 128.434 150.778C128.387 150.517 128.289 150.268 128.145 150.045C128.001 149.823 127.814 149.631 127.594 149.482C127.375 149.333 127.128 149.23 126.868 149.178C126.608 149.126 126.34 149.126 126.08 149.179C125.821 149.233 125.574 149.337 125.356 149.487C125.137 149.637 124.95 149.83 124.807 150.053C124.664 150.276 124.567 150.526 124.522 150.787L117.586 185.428C117.534 185.684 117.534 185.948 117.584 186.203C117.635 186.459 117.735 186.703 117.88 186.92C118.025 187.137 118.21 187.323 118.427 187.469C118.644 187.614 118.887 187.715 119.143 187.766Z" fill="white"/>
</svg>
