<svg width="277" height="264" viewBox="0 0 277 264" fill="none" xmlns="http://www.w3.org/2000/svg">
<path d="M276.825 130.696C271.527 189.313 206.625 261.252 132.452 263.918C58.2789 266.583 0 204.272 0 130.696C0 57.1195 157.618 -65.9183 161.591 43.3233C165.565 152.565 282.123 72.0782 276.825 130.696Z" fill="white"/>
<path d="M173.038 114.167H146.333V99.9099C146.333 94.9049 142.261 90.8333 137.256 90.8333H73.7427C68.7377 90.8333 64.666 94.9049 64.666 99.9099V210.09C64.666 215.095 68.7377 219.167 73.7427 219.167H137.256C142.261 219.167 146.333 215.095 146.333 210.09V195.833H173.038C177.611 195.833 181.333 192.112 181.333 187.538V122.462C181.333 117.888 177.611 114.167 173.038 114.167ZM175.499 122.462V125.833H146.496C146.111 125.836 145.734 125.73 145.407 125.528C145.079 125.326 144.816 125.035 144.647 124.69L142.302 120H173.038C174.397 120 175.499 121.102 175.499 122.462ZM121.197 96.6666L118.28 102.5H92.7185L89.8018 96.6666H121.197ZM137.256 213.333H73.7427C72.883 213.332 72.0589 212.99 71.451 212.382C70.8431 211.774 70.5009 210.95 70.4993 210.09V207.5H140.499V210.09C140.498 210.95 140.156 211.774 139.548 212.382C138.94 212.99 138.116 213.332 137.256 213.333ZM140.499 201.667H70.4993V99.9099C70.4993 98.1249 71.9577 96.6666 73.7427 96.6666H83.2802L88.3085 106.723C88.551 107.207 88.9233 107.614 89.3838 107.898C89.8443 108.183 90.3748 108.333 90.916 108.333H120.083C120.624 108.333 121.154 108.183 121.615 107.898C122.075 107.614 122.448 107.207 122.69 106.723L127.719 96.6666H137.256C139.047 96.6666 140.499 98.1249 140.499 99.9099V114.167H102.128C97.5543 114.167 93.8327 117.888 93.8327 122.462V187.538C93.8327 192.112 97.5543 195.833 102.128 195.833H140.499V201.667ZM173.038 190H102.128C101.804 190 101.484 189.936 101.186 189.813C100.887 189.689 100.616 189.508 100.387 189.279C100.158 189.05 99.9771 188.779 99.8534 188.48C99.7297 188.182 99.666 187.862 99.666 187.538V122.462C99.666 121.102 100.769 120 102.128 120H135.78L139.426 127.292C140.774 129.992 143.486 131.667 146.496 131.667H175.499V187.538C175.499 187.862 175.436 188.182 175.312 188.48C175.188 188.779 175.007 189.05 174.778 189.279C174.55 189.508 174.278 189.689 173.98 189.813C173.681 189.936 173.361 190 173.038 190Z" fill="#0075F2"/>
<path d="M112.184 154.148C113.316 155.28 115.177 155.28 116.309 154.148C117.44 153.017 117.44 151.156 116.309 150.024L112.54 146.25L116.309 142.482C116.84 141.932 117.134 141.195 117.127 140.43C117.121 139.665 116.814 138.934 116.273 138.393C115.732 137.852 115.001 137.546 114.236 137.539C113.471 137.532 112.734 137.826 112.184 138.358L106.351 144.191C105.804 144.738 105.497 145.48 105.497 146.253C105.497 147.026 105.804 147.768 106.351 148.315L112.184 154.148ZM124.609 154.691C125.302 155.034 126.102 155.089 126.836 154.844C127.569 154.599 128.176 154.075 128.524 153.384L134.357 141.718C135.074 140.288 134.485 138.521 133.05 137.803C131.615 137.086 129.854 137.675 129.136 139.11L123.303 150.777C122.961 151.47 122.907 152.269 123.152 153.002C123.396 153.735 123.92 154.342 124.609 154.691ZM141.351 154.148C141.899 154.692 142.641 154.998 143.413 154.998C144.186 154.998 144.927 154.692 145.475 154.148L151.309 148.315C151.855 147.768 152.162 147.026 152.162 146.253C152.162 145.48 151.855 144.738 151.309 144.191L145.475 138.358C144.925 137.826 144.188 137.532 143.424 137.539C142.659 137.546 141.927 137.852 141.387 138.393C140.846 138.934 140.539 139.665 140.532 140.43C140.526 141.195 140.82 141.932 141.351 142.482L145.119 146.25L141.351 150.018C140.81 150.569 140.506 151.311 140.506 152.083C140.506 152.856 140.81 153.597 141.351 154.148ZM108.416 172.5H137.583C138.356 172.5 139.098 172.193 139.645 171.646C140.192 171.099 140.499 170.357 140.499 169.583C140.499 168.81 140.192 168.068 139.645 167.521C139.098 166.974 138.356 166.667 137.583 166.667H108.416C107.642 166.667 106.901 166.974 106.354 167.521C105.807 168.068 105.499 168.81 105.499 169.583C105.499 170.357 105.807 171.099 106.354 171.646C106.901 172.193 107.642 172.5 108.416 172.5ZM160.916 178.333H108.416C107.642 178.333 106.901 178.641 106.354 179.188C105.807 179.735 105.499 180.476 105.499 181.25C105.499 182.024 105.807 182.765 106.354 183.312C106.901 183.859 107.642 184.167 108.416 184.167H160.916C161.69 184.167 162.431 183.859 162.978 183.312C163.525 182.765 163.833 182.024 163.833 181.25C163.833 180.476 163.525 179.735 162.978 179.188C162.431 178.641 161.69 178.333 160.916 178.333Z" fill="#0075F2"/>
<path d="M125.916 131.667C127.527 131.667 128.832 130.361 128.832 128.75C128.832 127.139 127.527 125.833 125.916 125.833C124.305 125.833 122.999 127.139 122.999 128.75C122.999 130.361 124.305 131.667 125.916 131.667Z" fill="#0075F2"/>
<path d="M114.25 131.667C115.861 131.667 117.166 130.361 117.166 128.75C117.166 127.139 115.861 125.833 114.25 125.833C112.639 125.833 111.333 127.139 111.333 128.75C111.333 130.361 112.639 131.667 114.25 131.667Z" fill="#0075F2"/>
</svg>
