<svg width="100" height="80" viewBox="0 0 100 80" fill="none" xmlns="http://www.w3.org/2000/svg">
<rect width="100" height="80" rx="16" fill="#0075F2"/>
<path d="M73 17H27V63H73V17Z" fill="white"/>
<path d="M31.3701 54.375H48.6201V57.25H31.3701V54.375ZM43.6751 26.43V22.98H34.2451V26.43H36.8901V38.505H34.2451V42.07H43.6751V38.505H41.0301V26.43H43.6751ZM52.8751 42.3C51.5622 42.3592 50.2559 42.0821 49.0801 41.495C48.1181 40.9643 47.2608 40.2628 46.5501 39.425L49.1951 36.435C49.6727 36.9597 50.2135 37.4233 50.8051 37.815C51.3618 38.1413 52.0004 38.301 52.6451 38.275C53.3541 38.3292 54.0437 38.0275 54.4851 37.47C55.0178 36.784 55.2649 35.9188 55.1751 35.055V22.75H59.4301V35.17C59.4738 36.1872 59.3175 37.203 58.9701 38.16C58.6667 39.1309 58.1111 40.0039 57.3601 40.69C56.0568 41.6576 54.4963 42.2178 52.8751 42.3Z" fill="#0075F2"/>
</svg>
