<svg width="100" height="80" viewBox="0 0 100 80" fill="none" xmlns="http://www.w3.org/2000/svg">
<rect width="100" height="80" rx="16" fill="#0075F2"/>
<path d="M49.9545 25.5855C47.8133 27.0915 45.3865 28.7985 44.0862 31.6225C41.8277 36.5491 48.7077 41.9233 49.0017 42.1497C49.0703 42.2024 49.1547 42.2302 49.2412 42.2285C49.3277 42.2267 49.4109 42.1955 49.4773 42.14C49.5436 42.0845 49.589 42.008 49.6059 41.9232C49.6229 41.8384 49.6104 41.7504 49.5706 41.6736C49.5457 41.6256 47.0761 36.8288 47.1679 33.3873C47.2004 32.1889 48.8778 30.8292 50.6536 29.3896C52.28 28.0712 54.1236 26.5767 55.2023 24.8286C57.5704 20.9805 54.9384 17.1968 54.9115 17.1591C54.8608 17.0881 54.7871 17.0367 54.703 17.0136C54.6188 16.9905 54.5292 16.997 54.4493 17.0321C54.3694 17.0673 54.3041 17.1289 54.2642 17.2065C54.2244 17.2842 54.2125 17.3732 54.2305 17.4586C54.2359 17.4835 54.7477 19.9857 53.3235 22.5635C52.7366 23.6288 51.4474 24.5357 49.9545 25.5855Z" fill="white"/>
<path d="M58.9751 27.2825C59.0483 27.2275 59.0991 27.1479 59.1182 27.0584C59.1373 26.9689 59.1235 26.8755 59.0793 26.7954C59.035 26.7152 58.9634 26.6538 58.8774 26.6223C58.7915 26.5908 58.6971 26.5914 58.6115 26.624C58.2478 26.7623 49.7041 30.0554 49.7041 34.0347C49.7041 36.7776 50.8758 38.2267 51.7314 39.285C52.067 39.6999 52.3567 40.0583 52.4521 40.3643C52.7209 41.2461 52.0841 42.8399 51.8164 43.3796C51.779 43.4551 51.7677 43.5409 51.7844 43.6235C51.8011 43.7061 51.8447 43.7808 51.9085 43.8359C51.9723 43.891 52.0526 43.9233 52.1368 43.9277C52.221 43.9321 52.3042 43.9084 52.3734 43.8603C52.5203 43.7581 55.9636 41.3236 55.346 38.3905C55.116 37.2758 54.5681 36.4611 54.0847 35.7423C53.3358 34.6288 52.7949 33.8243 53.6155 32.3386C54.5772 30.6059 58.9312 27.3155 58.9751 27.2825Z" fill="white"/>
<path d="M36.7361 43.9919C36.5896 44.4302 36.6587 44.8655 36.9359 45.2504C37.862 46.536 41.1426 47.2442 46.1737 47.2442H46.1743C46.8561 47.2442 47.5758 47.2308 48.313 47.2044C56.3568 46.9163 59.3403 44.4105 59.4634 44.304C59.5285 44.2476 59.5725 44.1708 59.5882 44.0862C59.6039 44.0015 59.5905 43.914 59.5499 43.8381C59.5094 43.7621 59.4443 43.7022 59.3653 43.668C59.2862 43.6339 59.1979 43.6277 59.1149 43.6503C56.2821 44.4238 50.992 44.6984 47.3228 44.6984C43.2171 44.6984 41.1262 44.4027 40.6143 44.1844C40.877 43.8237 42.4971 43.1796 44.5046 42.7848C44.5975 42.7669 44.6804 42.715 44.737 42.6392C44.7936 42.5635 44.8199 42.4693 44.8108 42.3751C44.8016 42.281 44.7576 42.1937 44.6875 42.1302C44.6173 42.0668 44.526 42.0319 44.4314 42.0322C43.2545 42.0324 37.3529 42.1269 36.7361 43.9919ZM63.6524 41.4111C61.9933 41.4111 60.42 42.2425 60.3537 42.2779C60.2794 42.318 60.2205 42.3818 60.1864 42.4591C60.1523 42.5364 60.1449 42.6229 60.1655 42.7048C60.186 42.7868 60.2332 42.8596 60.2997 42.9117C60.3662 42.9638 60.4482 42.9923 60.5327 42.9926C60.568 42.9928 64.0717 43.0213 64.3891 45.0232C64.6702 46.7502 61.0739 49.5486 59.6644 50.4811C59.5908 50.53 59.5365 50.603 59.5108 50.6876C59.4852 50.7722 59.4899 50.8631 59.5241 50.9446C59.5583 51.0261 59.6199 51.0931 59.6982 51.1341C59.7765 51.1751 59.8666 51.1876 59.9531 51.1692C60.2876 51.0978 68.1355 49.3685 67.3058 44.7991C66.7995 41.9988 65.0395 41.4111 63.6524 41.4111ZM58.2704 49.922C58.2838 49.8503 58.2762 49.7763 58.2487 49.7088C58.2211 49.6413 58.1747 49.5831 58.115 49.5413L56.2333 48.2232C56.1879 48.1916 56.1362 48.1702 56.0817 48.1605C56.0273 48.1508 55.9713 48.1532 55.9179 48.1673C55.8983 48.1725 53.9304 48.6897 51.0735 49.0069C49.9396 49.1341 48.6696 49.2012 47.4005 49.2012C44.5442 49.2012 42.6767 48.8656 42.4047 48.6195C42.3687 48.5504 42.3801 48.5189 42.3865 48.5014C42.4359 48.3639 42.7007 48.2006 42.8715 48.136C42.9623 48.1024 43.037 48.0354 43.08 47.9486C43.1231 47.8618 43.1314 47.7618 43.1031 47.6691C43.0749 47.5764 43.0123 47.498 42.9282 47.4499C42.8441 47.4019 42.7447 47.3878 42.6505 47.4105C40.7629 47.866 39.8399 48.5031 39.9071 49.3038C40.0263 50.7233 43.3146 51.452 46.0946 51.6448C46.4943 51.6721 46.9267 51.6861 47.3793 51.6861H47.3801C52.0027 51.6861 57.9287 50.2358 57.988 50.221C58.0588 50.2035 58.1231 50.1661 58.1731 50.113C58.2232 50.06 58.257 49.9937 58.2704 49.922ZM44.0837 52.9691C44.153 52.9239 44.2057 52.8573 44.2337 52.7795C44.2617 52.7017 44.2635 52.6168 44.2389 52.5379C44.1884 52.3756 44.0366 52.2691 43.8662 52.2712C43.6132 52.2779 41.3909 52.3782 41.2353 53.7931C41.1882 54.216 41.3093 54.6022 41.5954 54.9412C42.3933 55.8868 44.5471 56.4488 48.179 56.6595C48.6086 56.6852 49.045 56.6981 49.4763 56.6981C54.0936 56.6981 57.2032 55.2525 57.3334 55.1909C57.3954 55.1617 57.4483 55.1162 57.4865 55.0593C57.5247 55.0024 57.5468 54.9362 57.5505 54.8678C57.5541 54.7994 57.5392 54.7312 57.5073 54.6706C57.4754 54.6099 57.4276 54.5591 57.3691 54.5233L54.9911 53.0716C54.9086 53.0215 54.8102 53.0045 54.7156 53.0239C54.7006 53.0271 53.1907 53.3402 50.912 53.6497C50.4808 53.7082 49.9408 53.738 49.3072 53.738C47.031 53.738 44.4991 53.3661 44.0135 53.1227C44.0066 53.0769 44.0155 53.0192 44.0837 52.9691Z" fill="white"/>
<path d="M47.3244 61.0626C57.9005 61.0537 63.5769 59.1729 64.6704 57.9893C65.0575 57.5704 65.0993 57.174 65.0663 56.9151C64.985 56.2779 64.4048 55.8879 64.3388 55.8455C64.1801 55.7434 63.9671 55.7702 63.8432 55.913C63.7197 56.056 63.7168 56.2646 63.8408 56.4072C63.9075 56.4931 63.9461 56.6366 63.751 56.8319C63.3139 57.2401 58.9048 58.4795 51.5636 58.8517C50.558 58.9041 49.5032 58.9305 48.4288 58.9307C41.8558 58.9307 37.0454 58.0305 36.414 57.5057C36.6575 57.1561 38.3589 56.5973 40.1684 56.2814C40.2671 56.2651 40.3554 56.2105 40.4141 56.1294C40.4727 56.0484 40.4971 55.9475 40.4818 55.8486C40.4665 55.7498 40.4128 55.6609 40.3324 55.6014C40.252 55.5419 40.1514 55.5165 40.0523 55.5307C40.0013 55.5376 39.8282 55.5482 39.6275 55.5603C36.6419 55.7427 33.1916 56.1491 33.0116 57.6873C32.9569 58.1561 33.0962 58.5816 33.4257 58.952C34.2321 59.858 36.5498 61.0625 47.3239 61.0625L47.3244 61.0626Z" fill="white"/>
<path d="M66.7479 58.3233C66.6752 58.2896 66.5937 58.2798 66.515 58.2952C66.4364 58.3107 66.3647 58.3507 66.3102 58.4094C66.2945 58.4261 64.7045 60.0889 59.9236 61.0652C58.0933 61.432 54.6576 61.618 49.712 61.618C44.7571 61.618 40.0424 61.423 39.9953 61.421C39.9009 61.4166 39.8081 61.4478 39.7355 61.5084C39.6629 61.569 39.6157 61.6547 39.6032 61.7485C39.5902 61.842 39.6126 61.937 39.6659 62.0149C39.7192 62.0929 39.7996 62.1482 39.8914 62.1701C39.9405 62.1818 44.8815 63.3394 51.6374 63.3394C54.8777 63.3394 58.0308 63.0761 61.0093 62.5567C66.563 61.5832 66.9518 58.8294 66.9656 58.7127C66.975 58.6331 66.959 58.5526 66.9199 58.4826C66.8808 58.4127 66.8206 58.3569 66.7479 58.3233Z" fill="white"/>
</svg>
