<svg width="277" height="264" viewBox="0 0 277 264" fill="none" xmlns="http://www.w3.org/2000/svg">
<path d="M276.825 130.696C271.527 189.313 206.625 261.253 132.452 263.918C58.2789 266.583 0 204.272 0 130.696C0 57.1195 157.618 -65.9183 161.591 43.3233C165.565 152.565 282.123 72.0782 276.825 130.696Z" fill="#0075F2"/>
<path d="M111.758 219.364H94.7881C93.7275 219.364 92.6668 220.212 92.6668 221.485C92.6668 222.757 93.5153 223.606 94.7881 223.606H111.758C112.818 223.606 113.879 222.757 113.879 221.485C113.879 220.212 113.03 219.364 111.758 219.364ZM95.4244 108.212C96.2729 107.364 96.2729 106.091 95.4244 105.242C94.5759 104.394 93.3032 104.394 92.4547 105.242C91.6062 106.091 91.6062 107.364 92.4547 108.212C93.3032 108.848 94.5759 109.061 95.4244 108.212ZM104.758 108.212C105.606 107.364 105.606 106.091 104.758 105.242C103.909 104.394 102.637 104.394 101.788 105.242C100.94 106.091 100.94 107.364 101.788 108.212C102.849 108.848 104.121 108.848 104.758 108.212ZM114.303 108.212C115.152 107.364 115.152 106.091 114.303 105.242C113.455 104.394 112.182 104.394 111.334 105.242C110.485 106.091 110.485 107.364 111.334 108.212C112.182 108.848 113.455 108.848 114.303 108.212Z" fill="white"/>
<path d="M183.03 152.757C182.606 152.757 180.697 152.121 179.212 151.697H179C178.363 149.788 177.727 147.879 176.666 146.182L178.788 142.576C179.212 141.727 179 140.667 178.363 140.03L173.485 135.151C172.848 134.515 171.788 134.303 170.939 134.727L167.333 136.848C165.636 135.788 163.727 135.151 161.818 134.515L160.757 130.485C160.545 129.636 159.697 129 158.848 129H151.848C151 129 150.151 129.636 149.939 130.485L148.879 134.515C147.818 134.727 146.545 135.364 145.485 135.788V104.394C145.485 99.9393 141.879 96.1211 137.212 96.1211H69.5452C64.8785 96.1211 61.2725 99.7272 61.2725 104.394V223.818C61.2725 228.273 64.8785 232.091 69.5452 232.091H137.212C141.666 232.091 145.485 228.485 145.485 223.818V180.97C146.545 181.394 147.818 181.818 148.879 182.242L149.939 186.273C150.151 187.121 151 187.757 151.848 187.757H158.848C159.697 187.757 160.545 187.121 160.757 186.273L161.818 182.242C163.727 181.606 165.636 180.97 167.333 179.909L170.939 182.03C171.788 182.454 172.848 182.242 173.485 181.606L178.363 176.727C178.575 176.515 178.788 176.303 179 175.879C179.212 175.242 179.212 174.606 178.788 173.97C178.575 173.757 177.515 171.636 176.879 170.364C177.939 168.667 178.575 166.757 179.212 164.848L183.242 163.788C184.091 163.576 184.727 162.727 184.727 161.879V154.879C184.727 153.818 184.091 152.97 183.03 152.757ZM131.909 142.576L134.03 146.182C132.969 147.879 132.333 149.788 131.697 151.697L127.666 152.757C126.818 152.97 126.182 153.818 126.182 154.667V161.667C126.182 162.515 126.818 163.364 127.666 163.576L131.697 164.636C132.333 166.545 132.969 168.454 134.03 170.151L131.909 173.757C131.485 174.606 131.697 175.667 132.333 176.303L137.212 181.182C137.848 181.818 138.909 182.03 139.757 181.606L141.454 180.757V210.667H65.3028V117.121H141.242V135.576L139.545 134.727C138.697 134.303 137.636 134.515 137 135.151L132.121 140.03C131.697 140.667 131.485 141.727 131.909 142.576ZM69.5452 100.151H137.212C139.545 100.151 141.242 102.06 141.242 104.182V113.091H65.3028V104.394C65.3028 102.06 67.2119 100.151 69.5452 100.151ZM137.212 227.848H69.5452C67.2119 227.848 65.5149 225.939 65.5149 223.818V214.909H141.454V223.606C141.242 225.939 139.545 227.848 137.212 227.848ZM180.697 160.182L177.091 161.242C176.454 161.454 175.818 162.091 175.606 162.727C175.182 165.06 174.121 167.182 172.848 169.303C172.424 169.939 172.424 170.788 172.848 171.424C173.697 173.121 174.333 174.182 174.757 174.818L171.788 177.364L168.394 175.454C167.757 175.03 166.909 175.03 166.272 175.454C164.151 176.727 162.03 177.576 159.697 178.212C159.06 178.424 158.424 178.848 158.212 179.697L157.151 183.303H153.333L152.272 179.697C152.06 179.06 151.424 178.424 150.788 178.212C148.454 177.788 146.333 176.727 144.212 175.454H143.788C143.151 175.242 142.515 175.242 142.091 175.454L138.697 177.364L135.939 174.606L137.848 171.212C138.272 170.576 138.272 169.727 137.848 169.091C136.575 167.182 135.727 164.848 135.091 162.515C134.879 161.879 134.454 161.242 133.606 161.03L130 159.97V156.151L133.606 155.091C134.242 154.879 134.879 154.242 135.091 153.606C135.727 151.273 136.575 149.151 137.848 147.03C138.272 146.394 138.272 145.545 137.848 144.909L135.939 141.515L138.697 138.757L142.091 140.667C142.727 140.879 143.363 141.091 143.788 140.667H144.212C146.333 139.394 148.454 138.545 150.788 137.909C151.636 137.697 152.06 137.273 152.272 136.424L153.333 132.606H157.151L158.212 136.424C158.424 137.06 159.06 137.697 159.697 137.909C162.03 138.333 164.151 139.394 166.272 140.667C166.909 141.091 167.757 141.091 168.394 140.667L171.788 138.757L174.545 141.515L172.636 144.909C172.212 145.545 172.212 146.394 172.636 147.03C173.909 149.151 174.757 151.273 175.394 153.606C175.606 154.454 176.242 154.879 176.879 155.091L178.151 155.515C179.212 155.727 180.06 155.939 180.485 156.151V160.182H180.697Z" fill="white"/>
<path d="M121.727 168.879C121.727 168.879 120.03 168.454 118.757 168.03C118.333 166.545 117.696 165.273 117.06 164L118.545 161.242C118.969 160.394 118.757 159.333 118.121 158.697L114.302 154.879C113.666 154.242 112.605 154.03 111.757 154.454L108.999 155.939C107.727 155.303 106.242 154.667 104.969 154.242L104.121 151.273C103.908 150.424 103.06 149.788 102.211 149.788H96.6963C95.8478 149.788 94.9993 150.424 94.7872 151.273L93.9387 154.242C92.666 154.667 91.1811 155.091 89.9084 155.939L87.1508 154.454C86.3024 154.03 85.2417 154.242 84.6054 154.879L80.7872 158.697C80.1508 159.333 79.9387 160.394 80.363 161.242L81.8478 164C81.2114 165.273 80.5751 166.545 80.1508 168.03L77.1811 168.879C76.3327 169.091 75.6963 169.939 75.6963 170.788V176.303C75.6963 177.151 76.3327 178 77.1811 178.212L80.1508 179.06C80.5751 180.545 81.2114 181.818 81.8478 183.091L80.5751 185.848C80.1508 186.697 80.363 187.757 80.9993 188.394L84.8175 192.212C85.4539 192.848 86.5145 193.06 87.363 192.636L90.1205 191.151C91.3933 191.788 92.666 192.424 94.1508 192.848L94.9993 195.818C95.2114 196.667 96.0599 197.303 96.9084 197.303H102.424C103.272 197.303 104.121 196.667 104.333 195.818L105.181 192.848C106.666 192.424 107.939 191.788 109.211 191.151L111.969 192.636C112.818 193.06 113.878 192.848 114.514 192.212L118.333 188.394C118.969 187.757 119.181 186.697 118.757 185.848L117.06 183.091C117.696 181.818 118.333 180.545 118.757 179.06L121.727 178.212C122.575 178 123.211 177.151 123.211 176.303V170.788C123.211 169.939 122.575 169.091 121.727 168.879ZM118.969 174.606L116.424 175.242C115.787 175.454 115.151 176.091 114.939 176.727C114.514 178.424 113.878 180.121 112.818 181.818C112.393 182.454 112.393 183.303 112.818 183.939L114.09 186.273L112.393 188.182L110.06 186.909C109.424 186.485 108.575 186.485 107.939 186.909C106.454 187.97 104.757 188.606 102.848 189.03C102.211 189.242 101.575 189.667 101.363 190.515L100.514 193.06H98.1811L97.5448 190.303C97.3327 189.667 96.6963 189.03 96.0599 188.818C94.363 188.394 92.666 187.757 90.969 186.697C90.3327 186.273 89.4842 186.273 88.8478 186.697L86.5145 187.97L84.8175 186.273L86.0902 183.939C86.5145 183.303 86.5145 182.454 86.0902 181.818C85.0296 180.121 84.3933 178.424 83.969 176.727C83.7569 176.091 83.3327 175.454 82.4842 175.242L80.1508 174.606V172.273L82.6963 171.636C83.3327 171.424 83.969 170.788 84.1811 170.151C84.6054 168.454 85.2417 166.757 86.3024 165.06C86.7266 164.424 86.7266 163.576 86.3024 162.939L85.0296 160.606L86.7266 158.909L89.0599 160.182C89.6963 160.606 90.5448 160.606 91.1811 160.182C92.8781 159.121 94.363 158.485 96.272 158.06C97.1205 157.848 97.5448 157.424 97.7569 156.576L98.6054 154.03H100.939L101.787 156.576C101.999 157.212 102.636 157.848 103.272 158.06C104.969 158.485 106.666 159.121 108.363 160.182C108.999 160.606 109.848 160.606 110.484 160.182L112.818 158.909L114.514 160.606L113.242 162.939C112.818 163.576 112.818 164.424 113.242 165.06C114.302 166.545 114.939 168.242 115.363 170.151C115.575 170.788 115.999 171.424 116.848 171.636L119.393 172.273V174.606H118.969Z" fill="white"/>
<path d="M99.4542 165.485C94.9996 165.485 91.3936 169.091 91.3936 173.545C91.3936 178 94.9996 181.606 99.4542 181.606C103.909 181.606 107.515 178 107.515 173.545C107.515 169.091 103.909 165.485 99.4542 165.485ZM99.4542 177.364C97.3329 177.364 95.636 175.667 95.636 173.545C95.636 171.424 97.3329 169.727 99.4542 169.727C101.575 169.727 103.272 171.424 103.272 173.545C103.484 175.667 101.787 177.364 99.4542 177.364ZM155.454 146.818C149.091 146.818 144 151.909 144 158.273C144 164.636 149.091 169.727 155.454 169.727C161.818 169.727 166.909 164.636 166.909 158.273C166.909 151.909 161.818 146.818 155.454 146.818ZM155.454 165.697C151.424 165.697 148.03 162.303 148.03 158.273C148.03 154.242 151.424 150.848 155.454 150.848C159.484 150.848 162.878 154.242 162.878 158.273C162.878 162.303 159.484 165.697 155.454 165.697Z" fill="white"/>
</svg>
