<svg width="100" height="80" viewBox="0 0 100 80" fill="none" xmlns="http://www.w3.org/2000/svg">
<rect width="100" height="80" rx="16" fill="#0075F2"/>
<path d="M74.1179 46.4103C73.0953 49.8913 71.199 53.012 68.4243 55.7683L68.3023 55.8904C64.8376 59.3328 60.8028 61.3968 56.202 62.0912C55.0394 62.2665 53.8425 62.3585 52.6071 62.3585C46.427 62.3585 41.1422 60.1638 36.7473 55.7683C33.9904 53.011 32.1074 49.8913 31.0927 46.4103H74.1179ZM74.9816 41.2057C74.9404 42.0349 74.8547 42.8452 74.7305 43.64L74.6877 43.9043H30.5269C30.3947 43.113 30.301 42.3065 30.2506 41.4814L30.2354 41.2057H74.9816ZM74.6868 36.001C74.8199 36.7927 74.914 37.5993 74.9649 38.4241L74.9802 38.6997H30.2354C30.2761 37.8708 30.361 37.0605 30.4844 36.2654L30.5269 36.001H74.6868Z" fill="white"/>
<path d="M74.1183 33.4941C73.0967 30.0035 71.1999 26.8691 68.4239 24.0926C64.9411 20.6098 60.8771 18.5204 56.2372 17.8173C55.0636 17.6393 53.8548 17.5459 52.6066 17.5459C46.4266 17.5459 41.1413 19.7287 36.7468 24.0926C33.9891 26.8691 32.1051 30.0035 31.0908 33.4941" fill="white"/>
<path d="M28.9043 39.9531C28.9043 28.1331 37.7817 18.3119 49.3303 16.5845C49.0438 16.5739 48.7559 16.5625 48.4666 16.5625C35.5068 16.5625 25 27.035 25 39.9531C25 52.8717 35.5064 63.3437 48.4666 63.3437C48.7568 63.3437 49.0447 63.3327 49.3321 63.3222C37.7817 61.5948 28.9043 51.7736 28.9043 39.9531Z" fill="white"/>
</svg>
