<svg width="100" height="80" viewBox="0 0 100 80" fill="none" xmlns="http://www.w3.org/2000/svg">
<rect width="100" height="80" rx="16" fill="#0075F2"/>
<path d="M62.7311 18.0894L62.7238 18.1186H32.6553C30.6376 18.1186 29 19.7708 29 21.7739V54.9348C29 56.9525 30.6522 58.5901 32.6553 58.5901H50.7946" stroke="white"/>
<path d="M69.742 17.0367C67.6804 15.2091 65.1875 15.9401 62.7238 18.1187L61.6272 19.186C57.4163 23.6455 53.5856 31.9211 52.2989 38.2448C52.7573 39.2463 53.1196 40.2891 53.3809 41.3591L53.5417 42.0901L53.7025 42.8358C53.7025 42.8358 53.666 42.6896 53.5124 42.251L53.4101 41.9585C53.3896 41.9044 53.3676 41.8508 53.3443 41.7977C53.0665 41.1617 52.3208 39.8092 51.9772 39.2244C51.7112 40.0017 51.4602 40.7841 51.2242 41.5711C52.1892 43.3403 52.7741 46.3668 52.7741 46.3668C52.7741 46.3668 52.7229 46.1695 52.4817 45.4896C52.2623 44.8828 51.195 43.004 50.9464 42.5653C50.5078 44.1737 50.3396 45.2556 50.4932 45.5188C50.7856 46.0306 51.078 46.9809 51.3339 47.8874C51.7287 49.495 52.0507 51.1196 52.2989 52.7563L52.3354 53.2096C52.2597 55.0377 52.2963 56.8688 52.4451 58.6925C52.6352 60.9807 52.9934 62.9473 53.4467 64L53.7537 63.8319C53.0957 61.7556 52.8179 59.0434 52.9349 55.9072C53.1177 51.1187 54.2143 45.3434 56.2539 39.3267C59.7118 30.1666 64.4783 22.8706 68.8501 19.3907C64.8658 22.9876 59.4779 34.626 57.8696 38.932C56.0638 43.757 54.7845 48.2895 54.0096 52.6247C55.3401 48.56 59.6387 46.8055 59.6387 46.8055C59.6387 46.8055 61.7588 44.2029 64.2152 40.4818L59.4998 41.7392L57.9792 42.4118C57.9792 42.4118 61.8538 40.0505 65.1948 38.9758C69.7785 31.7603 74.7717 21.5035 69.742 17.0294" fill="white"/>
</svg>
