<svg width="277" height="264" viewBox="0 0 277 264" fill="none" xmlns="http://www.w3.org/2000/svg">
<path d="M276.825 130.696C271.527 189.313 206.625 261.252 132.452 263.918C58.2789 266.583 0 204.272 0 130.696C0 57.1195 157.618 -65.9183 161.591 43.3233C165.565 152.565 282.123 72.0782 276.825 130.696Z" fill="white"/>
<path d="M135.414 87.0511L134.17 93.548C133.486 97.1163 130.366 99.6948 126.735 99.6948H99.5224C95.8914 99.6948 92.7715 97.1163 92.0879 93.548L90.8438 87.0511H135.414Z" stroke="#0075F2" stroke-width="4" stroke-miterlimit="10" stroke-linecap="round" stroke-linejoin="round"/>
<path d="M154.219 192.319V213.824C154.219 218.864 150.134 222.949 145.094 222.949H81.1646C76.1252 222.949 72.04 218.864 72.04 213.824V96.1758C72.04 91.1363 76.1252 87.0512 81.1646 87.0512H145.094C150.134 87.0512 154.219 91.1363 154.219 96.1758V156.214" stroke="#0075F2" stroke-width="4" stroke-miterlimit="10" stroke-linecap="round" stroke-linejoin="round"/>
<path d="M154.219 182.855V175.874" stroke="#0075F2" stroke-width="4" stroke-miterlimit="10" stroke-linecap="round" stroke-linejoin="round"/>
<path d="M109.042 93.6957H117.217" stroke="#0075F2" stroke-width="4" stroke-miterlimit="10" stroke-linecap="round" stroke-linejoin="round"/>
<path d="M143.332 95.7286C143.335 95.725 143.337 95.7202 143.337 95.7151C143.337 95.71 143.335 95.7051 143.332 95.7015L144.746 94.2873L143.332 95.7015C143.328 95.6979 143.323 95.6959 143.318 95.6959C143.313 95.6959 143.308 95.6979 143.304 95.7015L141.89 94.2873L143.304 95.7015C143.301 95.7051 143.299 95.71 143.299 95.7151C143.299 95.7201 143.301 95.725 143.304 95.7286C143.308 95.7322 143.313 95.7343 143.318 95.7343C143.323 95.7343 143.328 95.7322 143.332 95.7286L144.746 97.1428L143.332 95.7286Z" stroke="#0075F2" stroke-width="4"/>
<path d="M134.526 171.874H115.661C113.298 171.874 111.382 173.79 111.382 176.153V188.134H97.1191" stroke="#0075F2" stroke-width="4" stroke-miterlimit="10" stroke-linecap="round" stroke-linejoin="round"/>
<path d="M134.526 188.134H97.1191" stroke="#0075F2" stroke-width="4" stroke-miterlimit="10" stroke-linecap="round" stroke-linejoin="round"/>
<path d="M169.229 175.875H139.257C136.644 175.875 134.525 173.757 134.525 171.144C134.525 168.53 136.644 166.412 139.257 166.412H169.229C171.843 166.412 173.962 168.53 173.962 171.144C173.962 173.757 171.843 175.875 169.229 175.875Z" stroke="#0075F2" stroke-width="4" stroke-miterlimit="10" stroke-linecap="round" stroke-linejoin="round"/>
<path d="M169.229 192.319H139.257C136.644 192.319 134.525 190.201 134.525 187.587C134.525 184.974 136.644 182.856 139.257 182.856H169.229C171.843 182.856 173.962 184.974 173.962 187.587C173.962 190.201 171.843 192.319 169.229 192.319Z" stroke="#0075F2" stroke-width="4" stroke-miterlimit="10" stroke-linecap="round" stroke-linejoin="round"/>
<path d="M133.001 209.857H115.649C113.035 209.857 110.917 207.738 110.917 205.125C110.917 202.512 113.035 200.393 115.649 200.393H133.001C135.614 200.393 137.733 202.512 137.733 205.125C137.733 207.738 135.614 209.857 133.001 209.857Z" stroke="#0075F2" stroke-width="4" stroke-miterlimit="10" stroke-linecap="round" stroke-linejoin="round"/>
<path d="M92.3875 192.866H86.1515C83.5385 192.866 81.4199 190.748 81.4199 188.134C81.4199 185.521 83.5385 183.403 86.1515 183.403H92.3875C95.001 183.403 97.1196 185.521 97.1196 188.134C97.1196 190.748 95.001 192.866 92.3875 192.866Z" stroke="#0075F2" stroke-width="4" stroke-miterlimit="10" stroke-linecap="round" stroke-linejoin="round"/>
<path d="M82.9121 116.271V138.851C82.9121 142.696 84.8199 145.285 88.0601 147.355C89.6384 148.364 91.6315 149.082 94.1085 149.085C96.2539 149.088 98.0468 148.591 99.5291 147.845C103.306 145.943 105.713 143.055 105.713 138.827V116.271" stroke="#0075F2" stroke-width="4" stroke-miterlimit="10" stroke-linecap="round" stroke-linejoin="round"/>
<path d="M141.42 115.981L116.767 148.676" stroke="#0075F2" stroke-width="4" stroke-miterlimit="10" stroke-linecap="round" stroke-linejoin="round"/>
<path d="M118.009 115.981L143.263 149.257" stroke="#0075F2" stroke-width="4" stroke-miterlimit="10" stroke-linecap="round" stroke-linejoin="round"/>
<path d="M89.2695 192.866V200.846C89.2695 203.209 91.1852 205.125 93.5485 205.125H101.187" stroke="#0075F2" stroke-width="4" stroke-miterlimit="10" stroke-linecap="round" stroke-linejoin="round"/>
</svg>
