<svg width="50" height="50" viewBox="0 0 50 50" fill="none" xmlns="http://www.w3.org/2000/svg">
<rect width="50" height="50" rx="10" fill="#FEC327"/>
<g clip-path="url(#clip0_71_164)">
<path d="M25.5 8C15.8345 8 8 15.8345 8 25.5C8 35.1644 15.8345 43 25.5 43C35.1655 43 43 35.1644 43 25.5C43 15.8345 35.1655 8 25.5 8Z" fill="white"/>
<path d="M15.1428 31.5838C17.8247 33.9123 20.7625 36.0769 24.7131 36.078C24.7897 36.078 24.8674 36.0769 24.9472 36.0747C27.4606 36.0167 30.3033 35.168 32.5105 33.7822L32.5236 33.7734C32.8124 33.5995 33.1022 33.4038 33.3735 33.185C33.5441 33.0592 33.66 32.8645 33.66 32.66C33.6535 32.2958 33.345 32.0508 33.0125 32.0508C32.9086 32.0497 32.8003 32.0738 32.6986 32.123C32.586 32.1678 32.4689 32.2192 32.3606 32.2663L32.1988 32.3341L31.991 32.4183V32.4194C29.7214 33.3392 27.337 33.8795 25.131 33.9288C25.05 33.9309 24.9691 33.9309 24.8881 33.9309C21.4188 33.932 18.587 32.322 15.7324 30.7361C15.6317 30.6836 15.53 30.6562 15.4305 30.6562C15.3003 30.6562 15.1702 30.7044 15.0739 30.7941C14.9777 30.8838 14.9208 31.015 14.9219 31.1484C14.9219 31.3234 15.0138 31.482 15.1428 31.5838Z" fill="#FEC327"/>
<path d="M36.0731 30.7627C36.0643 30.5417 36.0184 30.3744 35.9254 30.2355L35.9167 30.2213L35.9058 30.207C35.8117 30.1042 35.722 30.067 35.6247 30.0233C35.3359 29.9117 34.9137 29.8527 34.4073 29.8516C34.042 29.8516 33.6384 29.8866 33.2348 29.9741L33.2337 29.9478L32.8279 30.0823L32.8214 30.0867L32.5917 30.1611V30.1709C32.3215 30.2825 32.0765 30.4236 31.849 30.5866C31.7068 30.6938 31.5887 30.8337 31.5822 31.0481C31.5789 31.1652 31.639 31.3008 31.7375 31.3806C31.8359 31.4605 31.9497 31.4867 32.0503 31.4867C32.0754 31.4867 32.0973 31.4856 32.1181 31.4823L32.1356 31.4812L32.152 31.478C32.35 31.4353 32.6409 31.408 32.98 31.3598C33.2709 31.3281 33.5793 31.303 33.8462 31.303C34.0354 31.303 34.2061 31.3161 34.3231 31.3412C34.3822 31.3544 34.4248 31.3686 34.45 31.3817C34.4587 31.385 34.4653 31.3872 34.4675 31.3905C34.4729 31.4069 34.4795 31.4484 34.4784 31.5075C34.4828 31.7306 34.3865 32.1473 34.2575 32.552C34.1306 32.9578 33.9753 33.3647 33.8736 33.6348C33.8484 33.6972 33.8353 33.7661 33.8353 33.8405C33.832 33.9488 33.8768 34.08 33.9709 34.1686C34.0617 34.255 34.1809 34.2911 34.2804 34.2911H34.2848C34.4347 34.2889 34.5615 34.2287 34.672 34.1434C35.7045 33.2137 36.0633 31.7306 36.0786 30.8972L36.0731 30.7627Z" fill="#FEC327"/>
<path d="M26.6287 20.8073C26.0217 20.8533 25.3206 20.8992 24.6206 20.9922C23.5466 21.1344 22.4736 21.3203 21.5866 21.7414C19.8595 22.4414 18.6914 23.9355 18.6914 26.1306C18.6914 28.8869 20.4655 30.288 22.7077 30.288C23.4547 30.288 24.0617 30.1928 24.6206 30.055C25.5088 29.7739 26.2536 29.2609 27.1428 28.3258C27.6558 29.0258 27.7958 29.3539 28.6828 30.1009C28.9158 30.1928 29.1498 30.1928 29.3358 30.0561C29.898 29.588 30.8769 28.7469 31.3887 28.2798C31.6239 28.0939 31.5758 27.8128 31.4347 27.5809C30.9228 26.9269 30.4087 26.3658 30.4087 25.1036V20.9003C30.4087 19.1252 30.5487 17.49 29.2428 16.277C28.1698 15.297 26.4888 14.9219 25.1817 14.9219H24.6217C22.2417 15.0608 19.7206 16.0889 19.1595 19.0322C19.0655 19.4062 19.3477 19.5452 19.5336 19.5911L22.1466 19.9181C22.4277 19.8711 22.5688 19.637 22.6136 19.4052C22.8477 18.377 23.6877 17.863 24.6217 17.77H24.8098C25.3698 17.77 25.9758 18.0041 26.3028 18.4711C26.6758 19.0322 26.6309 19.7781 26.6309 20.4333L26.6287 20.8073ZM26.1158 26.3636C25.7888 27.0155 25.2287 27.4355 24.6217 27.5787C24.5277 27.5787 24.3887 27.6236 24.2477 27.6236C23.2217 27.6236 22.6147 26.8284 22.6147 25.6625C22.6147 24.1662 23.5028 23.4663 24.6228 23.1392C25.2298 23.0003 25.9298 22.9511 26.6309 22.9511V23.5122C26.6288 24.5895 26.6747 25.4295 26.1158 26.3636Z" fill="#FEC327"/>
</g>
<defs>
<clipPath id="clip0_71_164">
<rect width="35" height="35" fill="white" transform="translate(8 8)"/>
</clipPath>
</defs>
</svg>
