<svg width="50" height="50" viewBox="0 0 50 50" fill="none" xmlns="http://www.w3.org/2000/svg">
<rect width="50" height="50" rx="10" fill="#7EDE4A"/>
<path d="M24.69 29.5183L27.3167 37.35C26.0333 37.7333 24.6833 37.9167 23.3333 37.9167C15.3 37.9167 8.75 31.3833 8.75 23.3333C8.75 15.2833 15.3 8.75 23.3333 8.75C31.3667 8.75 37.9167 15.2833 37.9167 23.3333C37.9167 24.6833 37.7333 26.0333 37.35 27.3167L29.3833 24.65C29.0167 24.5333 28.6167 24.4667 28.2167 24.4667C28.03 24.4667 27.8483 24.4933 27.6667 24.52C27.1317 23.1017 25.77 22.0833 24.1667 22.0833H22.5C21.81 22.0833 21.25 21.5217 21.25 20.8333C21.25 20.145 21.81 19.5833 22.5 19.5833H26.6667C27.3567 19.5833 27.9167 19.0233 27.9167 18.3333C27.9167 17.6433 27.3567 17.0833 26.6667 17.0833H24.5833V16.6667C24.5833 15.9767 24.0233 15.4167 23.3333 15.4167C22.6433 15.4167 22.0833 15.9767 22.0833 16.6667V17.125C20.2133 17.335 18.75 18.9083 18.75 20.8333C18.75 22.9 20.4317 24.5833 22.5 24.5833H24.1667C24.8367 24.5833 25.375 25.1167 25.405 25.7783C25.0983 26.1267 24.875 26.5183 24.7183 26.94C24.55 27.025 24.3667 27.0833 24.165 27.0833H19.9983C19.3083 27.0833 18.7483 27.6433 18.7483 28.3333C18.7483 29.0233 19.3083 29.5833 19.9983 29.5833H22.0817V30C22.0817 30.69 22.6417 31.25 23.3317 31.25C24.0217 31.25 24.5817 30.69 24.5817 30V29.5417C24.6183 29.5367 24.6517 29.525 24.6883 29.52L24.69 29.5183ZM40.8833 39.115L37.0533 35.285L39.705 32.6317C40.0117 32.325 40.1367 31.8833 40.0383 31.4617C39.9383 31.0383 39.6283 30.7 39.2167 30.5617L28.61 27.0267C28.1583 26.8783 27.665 26.9933 27.33 27.33C26.995 27.665 26.8783 28.16 27.0283 28.61L30.565 39.2167C30.7017 39.6267 31.0417 39.9383 31.4633 40.0367C31.5583 40.06 31.655 40.0717 31.75 40.0717C32.0783 40.0717 32.3967 39.9433 32.6333 39.705L35.285 37.0533L39.115 40.8833C39.3583 41.1267 39.6783 41.25 39.9983 41.25C40.3183 41.25 40.6383 41.1283 40.8817 40.8833C41.37 40.395 41.37 39.6033 40.8817 39.115H40.8833Z" fill="white"/>
</svg>
