<svg width="50" height="50" viewBox="0 0 50 50" fill="none" xmlns="http://www.w3.org/2000/svg">
<rect width="50" height="50" rx="10" fill="#F97261"/>
<path d="M23.3395 9.10156C15.4874 9.10156 9.08984 15.4905 9.08984 23.3427C9.08984 31.1949 15.4874 37.5817 23.3395 37.5817C26.8711 37.5817 30.0997 36.2837 32.5912 34.1477L33.8343 35.3908L33.0597 36.1653C32.8544 36.3707 32.739 36.6493 32.739 36.9398C32.739 37.2303 32.8544 37.5089 33.0597 37.7144L36.344 41.0008C37.0625 41.7198 37.9869 42.0688 38.8452 42.0299C39.7035 41.9927 40.4691 41.6069 41.034 41.0436C41.5988 40.4803 41.9842 39.7173 42.0246 38.859C42.0651 38.0007 41.7161 37.0747 40.9976 36.3557L37.7091 33.065C37.6056 32.9615 37.4824 32.8798 37.3468 32.8246C37.2112 32.7695 37.0659 32.7421 36.9196 32.7441C36.6342 32.7481 36.3617 32.8632 36.16 33.065L35.3833 33.8417L34.1402 32.5986C36.2791 30.107 37.5807 26.8764 37.5807 23.3427C37.5807 15.4905 31.1917 9.10156 23.3395 9.10156ZM25.5219 17.8589H29.906C30.0505 17.8584 30.1938 17.8864 30.3275 17.9415C30.4611 17.9966 30.5826 18.0776 30.6848 18.1798C30.7871 18.282 30.868 18.4035 30.9231 18.5372C30.9782 18.6708 31.0063 18.8141 31.0057 18.9587V23.3427C31.0089 23.4886 30.983 23.6337 30.9294 23.7694C30.8758 23.9052 30.7956 24.0288 30.6936 24.1332C30.5915 24.2375 30.4697 24.3204 30.3352 24.377C30.2006 24.4336 30.0562 24.4627 29.9102 24.4627C29.7643 24.4627 29.6198 24.4336 29.4853 24.377C29.3508 24.3204 29.2289 24.2375 29.1269 24.1332C29.0248 24.0288 28.9447 23.9052 28.8911 23.7694C28.8375 23.6337 28.8115 23.4886 28.8148 23.3427V21.6011L24.1077 26.3018C23.6804 26.7264 22.9902 26.7264 22.5629 26.3018L21.1486 24.8854L17.5412 28.4927C16.5123 29.5958 14.8902 27.9826 15.9879 26.9479L20.3719 22.566C20.7992 22.1414 21.4894 22.1414 21.9167 22.566L23.331 23.9889L27.27 20.0499H25.5219C25.376 20.0531 25.2309 20.0272 25.0951 19.9737C24.9593 19.9201 24.8356 19.8399 24.7313 19.7379C24.6269 19.6358 24.544 19.5139 24.4874 19.3794C24.4308 19.2449 24.4016 19.1004 24.4016 18.9544C24.4016 18.8084 24.4308 18.6639 24.4874 18.5294C24.544 18.3949 24.6269 18.273 24.7313 18.1709C24.8356 18.0689 24.9593 17.9887 25.0951 17.9351C25.2309 17.8816 25.376 17.8556 25.5219 17.8589Z" fill="white"/>
</svg>
