<svg width="50" height="50" viewBox="0 0 50 50" fill="none" xmlns="http://www.w3.org/2000/svg">
<rect width="50" height="50" rx="10" fill="#00ACEA"/>
<path d="M33.0175 22.1588C33.6037 20.96 34.62 20.0588 35.8838 19.6238C36.4125 19.4413 36.9575 19.3712 37.5 19.3687V12.25C37.5 10.1825 35.8175 8.5 33.75 8.5H13.75C11.6825 8.5 10 10.1825 10 12.25V37.25C10 39.3175 11.6825 41 13.75 41H26.1862L26.0512 40.6075C25.5075 39.0213 25.6137 37.3262 26.3475 35.8275L33.0175 22.1588ZM15 16H30C30.6912 16 31.25 16.56 31.25 17.25C31.25 17.94 30.6912 18.5 30 18.5H15C14.3088 18.5 13.75 17.94 13.75 17.25C13.75 16.56 14.3088 16 15 16ZM15 21H28.75C29.4412 21 30 21.56 30 22.25C30 22.94 29.4412 23.5 28.75 23.5H15C14.3088 23.5 13.75 22.94 13.75 22.25C13.75 21.56 14.3088 21 15 21ZM23.75 33.5H15C14.3088 33.5 13.75 32.94 13.75 32.25C13.75 31.56 14.3088 31 15 31H23.75C24.4412 31 25 31.56 25 32.25C25 32.94 24.4412 33.5 23.75 33.5ZM15 28.5C14.3088 28.5 13.75 27.94 13.75 27.25C13.75 26.56 14.3088 26 15 26H26.25C26.9412 26 27.5 26.56 27.5 27.25C27.5 27.94 26.9412 28.5 26.25 28.5H15ZM42.005 26.5437L35.3325 40.2175C34.8913 41.1188 34.1275 41.7938 33.1813 42.1188L30.8175 42.9313C30.6837 42.9775 30.545 43 30.4113 43C29.8925 43 29.4075 42.675 29.23 42.1562L28.4162 39.7925C28.09 38.8425 28.1538 37.825 28.5938 36.9262L35.2662 23.255C35.5575 22.655 36.0675 22.205 36.6987 21.9875C37.3287 21.77 38.0075 21.81 38.6075 22.105L40.855 23.2012C41.455 23.4937 41.905 24.0037 42.1225 24.635C42.34 25.2662 42.2988 25.9437 42.005 26.5437Z" fill="white"/>
</svg>
