<svg width="50" height="50" viewBox="0 0 50 50" fill="none" xmlns="http://www.w3.org/2000/svg">
<rect width="50" height="50" rx="10" fill="#0075F2"/>
<path fill-rule="evenodd" clip-rule="evenodd" d="M25.2075 8.14281L26.2725 10.9584C26.3045 11.043 26.3791 11.0974 26.4692 11.1018L29.4659 11.2484C29.6698 11.2584 29.7532 11.5161 29.5942 11.6445L27.2556 13.5312C27.1853 13.5879 27.1568 13.6759 27.1804 13.7632L27.9676 16.6694C28.0212 16.867 27.8028 17.0263 27.6321 16.9141L25.1217 15.2646C25.0462 15.215 24.9541 15.215 24.8787 15.2646L22.3684 16.9141C22.1977 17.0263 21.9793 16.867 22.0328 16.6694L22.8199 13.7631C22.8436 13.6758 22.8152 13.5878 22.7449 13.5311L20.4063 11.6444C20.2473 11.5161 20.3307 11.2583 20.5345 11.2483L23.5313 11.1017C23.6214 11.0973 23.6959 11.043 23.7279 10.9583L24.7929 8.14273C24.8648 7.95241 25.1356 7.95241 25.2075 8.14281ZM13.7832 42L32.2716 41.9999C31.8587 41.0265 31.6301 39.9553 31.6301 38.8306C31.6301 37.1199 32.159 35.5336 33.061 34.2262C30.9192 32.3094 28.0955 31.1443 25.0004 31.1443C19.0423 31.1443 14.0889 35.4605 13.0729 41.1477C12.993 41.5945 13.331 42 13.7832 42ZM25.0004 18.0584C28.3843 18.0584 31.1276 20.8121 31.1276 24.2089C31.1276 27.6057 28.3843 30.3593 25.0004 30.3593C21.6164 30.3593 18.8731 27.6057 18.8731 24.2089C18.8731 20.8121 21.6163 18.0584 25.0004 18.0584ZM35.5305 12.1282C35.4585 11.9378 35.1877 11.9378 35.1157 12.1282L34.0507 14.9438C34.0187 15.0285 33.9441 15.0828 33.854 15.0872L30.8573 15.2338C30.6534 15.2438 30.57 15.5015 30.729 15.6299L33.0676 17.5166C33.1379 17.5734 33.1664 17.6613 33.1427 17.7486L32.3556 20.6549C32.302 20.8526 32.5204 21.0118 32.6912 20.8996L35.2014 19.2501C35.2769 19.2005 35.369 19.2005 35.4444 19.2501L37.9548 20.8996C38.1256 21.0118 38.3439 20.8525 38.2904 20.6549L37.5032 17.7487C37.4795 17.6613 37.508 17.5734 37.5782 17.5167L39.9168 15.6299C40.0759 15.5016 39.9924 15.2439 39.7886 15.2339L36.7918 15.0873C36.7018 15.0829 36.6273 15.0285 36.5952 14.9439L35.5305 12.1282ZM14.8846 12.1282C14.8126 11.9378 14.5417 11.9378 14.4698 12.1282L13.4048 14.9438C13.3728 15.0285 13.2982 15.0828 13.2082 15.0872L10.2114 15.2338C10.0076 15.2438 9.92415 15.5015 10.0832 15.6299L12.4218 17.5166C12.4921 17.5734 12.5205 17.6613 12.4968 17.7486L11.7097 20.6549C11.6562 20.8526 11.8745 21.0118 12.0453 20.8996L14.5556 19.2501C14.631 19.2005 14.7231 19.2005 14.7986 19.2501L17.3089 20.8996C17.4797 21.0118 17.6981 20.8525 17.6445 20.6549L16.8574 17.7487C16.8337 17.6613 16.8622 17.5734 16.9325 17.5167L19.271 15.6299C19.4301 15.5016 19.3466 15.2439 19.1428 15.2339L16.146 15.0873C16.056 15.0829 15.9815 15.0285 15.9494 14.9439L14.8846 12.1282Z" fill="white"/>
<path d="M17.6851 41.9998L36.1735 41.9999C36.6257 41.9999 36.9637 41.5944 36.8838 41.1477C35.8678 35.4604 30.9144 31.1442 24.9563 31.1442C21.8612 31.1442 19.0375 32.3094 16.8957 34.2262C17.7977 35.5335 18.3266 37.1199 18.3266 38.8305C18.3266 39.9553 18.098 41.0264 17.6851 41.9998Z" fill="white"/>
</svg>
