<svg width="50" height="50" viewBox="0 0 50 50" fill="none" xmlns="http://www.w3.org/2000/svg">
<rect width="50" height="50" rx="10" fill="#9976FF"/>
<path fill-rule="evenodd" clip-rule="evenodd" d="M18.273 27.3806C19.057 26.3859 19.5249 25.1303 19.5249 23.7655C19.5249 20.5377 16.9083 17.9211 13.6804 17.9211C10.4526 17.9211 7.83594 20.5377 7.83594 23.7655C7.83594 26.9934 10.4526 29.61 13.6804 29.61C15.0895 29.61 16.3821 29.1113 17.3915 28.2808C17.421 28.2565 17.4635 28.2581 17.4912 28.2845L19.8371 30.5237C19.8525 30.5384 19.8603 30.5567 19.8603 30.5781V33.1947C19.8603 33.2214 19.8731 33.2443 19.8957 33.2584C19.9183 33.2726 19.9446 33.2739 19.9685 33.2622L20.9422 32.7872C20.9687 32.7744 20.9844 32.7491 20.9844 32.7196V30.3044C20.9844 30.1441 20.9174 29.9996 20.8098 29.8972L20.8103 29.8966L18.2803 27.4815C18.2519 27.4547 18.2488 27.4111 18.273 27.3806ZM15.4522 42.2177V34.0481C15.4522 34.0175 15.4251 33.9904 15.3944 33.9904H13.4737C13.4431 33.9904 13.4159 34.0175 13.4159 34.0481V42.2177C13.4159 42.2483 13.4431 42.2755 13.4737 42.2755H15.3944C15.4251 42.2756 15.4522 42.2484 15.4522 42.2177ZM18.9595 34.7436C19.5038 34.6242 20.5359 34.1219 21.516 33.6516C23.1882 32.8493 23.6111 32.7599 24.7633 32.9829C24.7688 32.9839 24.7735 32.9854 24.7786 32.9876C24.8445 33.0158 24.9169 33.0318 24.9929 33.0328C24.9981 33.0328 25.0024 33.0333 25.0075 33.0344L25.4873 33.1356C26.3207 33.3173 29.2319 33.8588 29.2319 34.7808C29.2319 34.9311 29.227 35.015 29.1792 35.1641C29.1027 35.4032 29.0854 35.3534 28.9967 35.4525C28.7315 35.7491 28.3461 35.9036 27.9396 35.8709L23.0147 35.4752C22.7043 35.4509 22.4329 35.6828 22.4085 35.9932C22.3842 36.3036 22.6161 36.575 22.9265 36.5994L27.8515 36.9951C28.2299 37.0255 28.5985 36.9644 28.9339 36.8307C29.2103 36.7206 29.4623 36.5607 29.6769 36.3622C29.6829 36.3567 29.6887 36.3528 29.6961 36.3493C29.7145 36.3407 29.7325 36.331 29.75 36.3204C29.7505 36.3201 29.7509 36.3199 29.7513 36.3196L35.8888 32.7561C36.2095 32.57 36.58 32.5287 36.9188 32.6122C38.0768 32.8977 38.2975 34.3824 37.2811 34.9796C34.2855 36.7399 27.453 41.0477 25.7435 40.9493C22.6972 40.7741 19.6517 40.2195 16.6667 40.6526C16.6443 40.6559 16.6237 40.6499 16.6067 40.6351C16.5895 40.6203 16.5807 40.6008 16.5807 40.5782V35.1154C16.5807 35.0756 16.6116 35.0427 16.6515 35.0404C17.426 34.9945 18.2066 34.9087 18.9595 34.7436ZM30.4752 23.7655C30.4752 25.1303 30.9431 26.3859 31.7271 27.3806C31.7512 27.4111 31.7482 27.4547 31.72 27.4815L29.2205 29.8675C29.2192 29.8687 29.2181 29.8697 29.2167 29.8708C29.0927 29.9743 29.0136 30.1301 29.0136 30.3044V33.0695C29.0136 33.0995 29.0301 33.1252 29.0574 33.1378C29.3973 33.2943 29.7285 33.4844 30.0144 33.7223C30.0374 33.7414 30.0674 33.7452 30.0944 33.7326C30.1215 33.7199 30.1377 33.6944 30.1378 33.6646L30.1421 30.5759C30.1421 30.5546 30.15 30.5363 30.1654 30.5215L32.509 28.2844C32.5367 28.258 32.5791 28.2564 32.6087 28.2808C33.618 29.1112 34.9107 29.61 36.3198 29.61C39.5476 29.61 42.1643 26.9933 42.1643 23.7655C42.1643 20.5376 39.5476 17.921 36.3198 17.921C33.0919 17.921 30.4752 20.5377 30.4752 23.7655ZM33.9372 26.5015V22.491C33.9372 22.4495 33.971 22.4158 34.0124 22.4158H35.0507C35.0921 22.4158 35.1259 22.382 35.1259 22.3406V21.0288C35.1259 20.5203 35.5419 20.1042 36.0505 20.1042C36.5591 20.1042 36.9751 20.5203 36.9751 21.0288V22.3406C36.9751 22.382 37.0089 22.4158 37.0503 22.4158H37.6686C38.8128 22.4158 39.7491 23.352 39.7491 24.4963C39.7491 25.6406 38.8128 26.5767 37.6686 26.5767H34.0123C33.971 26.5767 33.9372 26.5429 33.9372 26.5015ZM25.6315 19.3738C25.5931 19.3779 25.5643 19.4099 25.5643 19.4486V32.0635C25.5643 32.0869 25.5547 32.1071 25.5366 32.1219C25.5184 32.1367 25.4968 32.142 25.4739 32.1372L25.0942 32.059C25.0928 32.0588 25.0917 32.0585 25.0903 32.0584L24.4996 31.9684C24.4627 31.9627 24.4358 31.9314 24.4358 31.8939V19.4485C24.4358 19.4099 24.407 19.3779 24.3686 19.3737C21.4378 19.0588 19.1555 16.5777 19.1555 13.5632C19.1555 10.3354 21.7722 7.71875 25 7.71875C28.2279 7.71875 30.8445 10.3354 30.8445 13.5632C30.8446 16.5778 28.5623 19.0589 25.6315 19.3738ZM28.2736 13.6284C28.2975 13.6146 28.3112 13.5909 28.3112 13.5633C28.3112 13.5357 28.2975 13.5119 28.2736 13.4982L23.4415 10.7083C23.4175 10.6946 23.3902 10.6946 23.3663 10.7083C23.3423 10.7221 23.3287 10.7459 23.3287 10.7735V16.3531C23.3287 16.3807 23.3423 16.4044 23.3663 16.4182C23.3902 16.4319 23.4175 16.432 23.4415 16.4182L28.2736 13.6284ZM14.9556 21.1609C15.8922 21.1609 16.6514 21.9201 16.6514 22.8567C16.6514 24.384 15.0602 26.1223 13.7114 26.7334C13.691 26.7427 13.6698 26.7427 13.6493 26.7334C12.3005 26.1223 10.7094 24.3841 10.7094 22.8567C10.7094 21.9201 11.4686 21.1609 12.4051 21.1609C12.8848 21.1609 13.3178 21.3602 13.6262 21.6803C13.6409 21.6955 13.6591 21.7033 13.6803 21.7033C13.7015 21.7033 13.7198 21.6955 13.7345 21.6803C14.0429 21.3601 14.4759 21.1609 14.9556 21.1609Z" fill="white"/>
</svg>
