<svg width="13" height="13" viewBox="0 0 13 13" fill="none" xmlns="http://www.w3.org/2000/svg">
<path d="M9.30817 1.33594H4.1415C2.7155 1.33594 1.55817 2.49327 1.55817 3.91927V9.08594C1.55817 10.5119 2.7155 11.6693 4.1415 11.6693H9.30817C10.7342 11.6693 11.8915 10.5119 11.8915 9.08594V3.91927C11.8915 2.49327 10.7342 1.33594 9.30817 1.33594ZM6.72483 9.08594C5.29883 9.08594 4.1415 7.92861 4.1415 6.50261C4.1415 5.0766 5.29883 3.91927 6.72483 3.91927C8.15083 3.91927 9.30817 5.0766 9.30817 6.50261C9.30817 7.92861 8.15083 9.08594 6.72483 9.08594ZM9.489 4.2396C9.20483 4.2396 8.97233 4.0071 8.97233 3.72294C8.97233 3.43877 9.20483 3.20627 9.489 3.20627C9.77317 3.20627 10.0057 3.43877 10.0057 3.72294C10.0057 4.0071 9.77317 4.2396 9.489 4.2396Z" fill="#1B1B1B"/>
<path d="M6.72535 8.05313C7.5814 8.05313 8.27535 7.35917 8.27535 6.50313C8.27535 5.64708 7.5814 4.95312 6.72535 4.95312C5.86931 4.95312 5.17535 5.64708 5.17535 6.50313C5.17535 7.35917 5.86931 8.05313 6.72535 8.05313Z" fill="#1B1B1B"/>
</svg>
