<svg width="11" height="11" viewBox="0 0 11 11" fill="none" xmlns="http://www.w3.org/2000/svg">
<path d="M10.4591 10.463V6.82977C10.4591 5.04417 10.0747 3.68017 7.99146 3.68017C6.98706 3.68017 6.31746 4.22577 6.04466 4.74657H6.01986V3.84137H4.04826V10.463H6.10666V7.17697C6.10666 6.30897 6.26786 5.47817 7.33426 5.47817C8.38826 5.47817 8.40066 6.45777 8.40066 7.22657V10.4506H10.4591V10.463ZM0.700263 3.84137H2.75866V10.463H0.700263V3.84137ZM1.72946 0.542969C1.07226 0.542969 0.539062 1.07617 0.539062 1.73337C0.539062 2.39057 1.07226 2.93617 1.72946 2.93617C2.38666 2.93617 2.91986 2.39057 2.91986 1.73337C2.91986 1.07617 2.38666 0.542969 1.72946 0.542969Z" fill="#1B1B1B"/>
</svg>
